<svg xmlns="http://www.w3.org/2000/svg" xmlns:xlink="http://www.w3.org/1999/xlink" viewBox="0 0 280.31 434.8"><defs><style>.cls-1{fill:none;}.cls-2{clip-path:url(#clip-path);}.cls-3{fill:url(#linear-gradient);}.cls-4{fill:#312783;}.cls-5{fill:#7885b5;}.cls-6{fill:#1a1a1a;opacity:0.24;}.cls-7{fill:#7a4c08;}.cls-8{fill:#fff;}.cls-9{fill:#e6e8e8;}.cls-10{fill:url(#linear-gradient-2);}.cls-11{fill:#d9dbdb;}.cls-12{fill:#ffb031;}.cls-13{fill:#ff9433;}.cls-14{fill:#eb5c40;}.cls-15{fill:url(#linear-gradient-3);}.cls-16{fill:url(#linear-gradient-4);}.cls-17{fill:url(#linear-gradient-5);}.cls-18{fill:url(#linear-gradient-6);}.cls-19{fill:url(#linear-gradient-7);}</style><clipPath id="clip-path"><rect class="cls-1" x="-709.93" width="990.24" height="434.8"/></clipPath><linearGradient id="linear-gradient" x1="166.73" y1="317.07" x2="333.84" y2="317.07" gradientTransform="translate(297.51 -84.11) rotate(45)" gradientUnits="userSpaceOnUse"><stop offset="0" stop-color="#a3cce3"/><stop offset="1" stop-color="#a3cce3"/></linearGradient><linearGradient id="linear-gradient-2" x1="172.69" y1="270.27" x2="202.5" y2="270.27" gradientTransform="matrix(1, 0, 0, 1, 0, 0)" xlink:href="#linear-gradient"/><linearGradient id="linear-gradient-3" x1="119.1" y1="341.13" x2="130.8" y2="341.13" gradientTransform="matrix(1, 0, 0, 1, 0, 0)" xlink:href="#linear-gradient"/><linearGradient id="linear-gradient-4" x1="203.73" y1="218.4" x2="210.97" y2="218.4" gradientTransform="matrix(1, 0, 0, 1, 0, 0)" xlink:href="#linear-gradient"/><linearGradient id="linear-gradient-5" x1="184.32" y1="203.16" x2="194.9" y2="203.16" gradientTransform="matrix(1, 0, 0, 1, 0, 0)" xlink:href="#linear-gradient"/><linearGradient id="linear-gradient-6" x1="134.8" y1="261.31" x2="139.95" y2="261.31" gradientTransform="matrix(1, 0, 0, 1, 0, 0)" xlink:href="#linear-gradient"/><linearGradient id="linear-gradient-7" x1="110.22" y1="323.28" x2="119.1" y2="323.28" gradientTransform="matrix(1, 0, 0, 1, 0, 0)" xlink:href="#linear-gradient"/></defs><title>contact</title><g id="Contact_mobile" data-name="Contact mobile"><g id="titre-2" data-name="titre"><g class="cls-2"><g id="illu_fond" data-name="illu fond"><circle class="cls-3" cx="250.29" cy="317.07" r="83.55" transform="translate(-150.9 269.85) rotate(-45)"/><polygon class="cls-4" points="56.59 182.22 81.11 239.75 99.03 227.49 109.42 242.58 111.29 217.13 132.98 203.91 56.59 182.22"/><polygon class="cls-5" points="103 224.77 81.11 239.75 99.03 227.49 109.42 242.58 111.29 217.13 76.73 196.55 103 224.77"/><polygon class="cls-6" points="110.83 223.37 76.73 196.55 111.29 217.13 110.83 223.37"/><path class="cls-5" d="M110.51,250.05c-.19-1.12-.44-2.24-.73-3.33l1.68-.45c.31,1.14.56,2.31.77,3.48Z"/><path class="cls-5" d="M90.21,289.13a14.35,14.35,0,0,1-7-2.34l1-1.45a12.65,12.65,0,0,0,6.14,2.05Zm7.23-1.42-.77-1.57a17.6,17.6,0,0,0,5.21-4.1l1.29,1.17A19.32,19.32,0,0,1,97.44,287.71Zm-19.07-6.48a14.35,14.35,0,0,1-1.5-6.32c0-.17,0-.35,0-.53l0-.37,1.74.12,0,.32c0,.16,0,.31,0,.46a12.68,12.68,0,0,0,1.32,5.55Zm67.34-.39V279.1c2.26,0,4.6-.11,6.93-.28l.13,1.74C150.39,280.73,148,280.83,145.71,280.84Zm-7.06-.23-1.11-.09c-2.14-.17-4.07-.42-5.92-.74l.29-1.71c1.8.31,3.69.55,5.78.72l1.09.08Zm21.13-.79-.24-1.73c2.24-.3,4.55-.68,6.86-1.13l.33,1.71C164.39,279.12,162.05,279.51,159.78,279.82Zm-35.08-1.76a34,34,0,0,1-5.7-2.53l-.81-.47.89-1.49.77.44a32.1,32.1,0,0,0,5.41,2.4Zm-17.37-.7-1.51-.86a38.92,38.92,0,0,0,2.87-6.21l1.64.59A40.17,40.17,0,0,1,107.33,277.36Zm66.28-.19-.41-1.69c2.18-.53,4.44-1.13,6.73-1.78l.48,1.67C178.1,276,175.81,276.64,173.61,277.17Zm13.53-3.85-.54-1.66c2.21-.71,4.41-1.47,6.6-2.24l.58,1.64C191.58,271.84,189.36,272.6,187.14,273.32ZM112.37,271a49.36,49.36,0,0,0-5.18-3.41l-.58-.3.8-1.55.62.33a51,51,0,0,1,5.37,3.53Zm-31.29-2.61-1.22-1.25a14.84,14.84,0,0,1,6.41-3.43l.58,1.64A13.49,13.49,0,0,0,81.08,268.41Zm19.17-3.4a27.79,27.79,0,0,0-6-.67h-.7l0-1.74a29.2,29.2,0,0,1,7.16.7Zm11.92-1-1.72-.3a40,40,0,0,0,.62-6.82h1.74A42.43,42.43,0,0,1,112.17,264Z"/><path class="cls-5" d="M200.45,268.6l-.62-1.62,3.24-1.26.64,1.62C202.62,267.77,201.54,268.19,200.45,268.6Z"/><path class="cls-7" d="M268.5,317.08l-60.64,35.75-60.64-35.75a.34.34,0,0,1,0-.1c.05-.23,3.4-3,8.5-7.17l.14-.12c16.75-13.59,52-41.43,52-41.43s35.24,27.84,52,41.43c5.18,4.21,8.59,7.05,8.64,7.29A.34.34,0,0,1,268.5,317.08Z"/><path class="cls-8" d="M232.8,238.64H167.37a10.16,10.16,0,0,0-10.16,10.16v98.92a10.16,10.16,0,0,0,10.16,10.16h82a10.16,10.16,0,0,0,10.16-10.16V265.36Z"/><path class="cls-9" d="M232.8,255.2A10.16,10.16,0,0,0,243,265.36h16.55L232.8,238.64Z"/><rect class="cls-10" x="172.69" y="255.36" width="29.81" height="29.81" rx="2.7"/><path class="cls-11" d="M229.8,293.46H175.64a2.91,2.91,0,0,0-2.92,2.91h0a2.92,2.92,0,0,0,2.92,2.92H229.8a2.91,2.91,0,0,0,2.91-2.92h0A2.91,2.91,0,0,0,229.8,293.46Z"/><path class="cls-11" d="M229.8,308H175.64a2.91,2.91,0,0,0-2.92,2.91h0a2.92,2.92,0,0,0,2.92,2.92H229.8a2.91,2.91,0,0,0,2.91-2.92h0A2.91,2.91,0,0,0,229.8,308Z"/><path class="cls-11" d="M205.2,322.08H175.64a2.91,2.91,0,0,0-2.92,2.91h0a2.92,2.92,0,0,0,2.92,2.92H205.2a2.92,2.92,0,0,0,2.92-2.92h0A2.91,2.91,0,0,0,205.2,322.08Z"/><path class="cls-12" d="M268.5,317.07v58.18a7.4,7.4,0,0,1-7.39,7.38H154.6a7.39,7.39,0,0,1-7.37-7.38V317.07l60.64,35.76Z"/><path class="cls-13" d="M266.45,380.32l-39-39-19.56,11.54L188.3,341.29l-39,39a7.31,7.31,0,0,0,5.33,2.31H261.11A7.35,7.35,0,0,0,266.45,380.32Z"/><path class="cls-14" d="M281.08,263.3a17.71,17.71,0,0,0-15.8,16.25,17.47,17.47,0,0,0,3.1,11.29,4.3,4.3,0,0,1,.4,4.08l-1.39,3.35,5.69-1.47a4.31,4.31,0,0,1,2.79.21,17.62,17.62,0,1,0,5.21-33.71Z"/><path class="cls-8" d="M283.3,289.74l1-1s-.77-1.81,2.45-4.87a5.94,5.94,0,0,0,2.2-5,5,5,0,0,0-4.42-4.41,5.9,5.9,0,0,0-5,2.19c-3.06,3.22-4.87,2.45-4.87,2.45l-1,1Z"/><path class="cls-8" d="M275.83,283.83a2.67,2.67,0,0,0,3.73,3.73Z"/><path class="cls-6" d="M282.39,263.22a15.23,15.23,0,1,1-15.56,24.89,17,17,0,0,0,1.55,2.73,4.3,4.3,0,0,1,.4,4.08l-1.39,3.35,5.69-1.47a4.31,4.31,0,0,1,2.79.21,17.62,17.62,0,1,0,6.52-33.79Z"/><path class="cls-15" d="M125,335.28a5.85,5.85,0,1,0,5.85,5.85A5.85,5.85,0,0,0,125,335.28Zm0,8.22a2.37,2.37,0,1,1,2.37-2.37A2.37,2.37,0,0,1,125,343.5Z"/><path class="cls-16" d="M207.35,214.78A3.62,3.62,0,1,0,211,218.4,3.62,3.62,0,0,0,207.35,214.78Z"/><path class="cls-17" d="M189.61,197.87a5.29,5.29,0,1,0,5.29,5.29A5.29,5.29,0,0,0,189.61,197.87Z"/><circle class="cls-18" cx="137.38" cy="261.31" r="2.58"/><path class="cls-19" d="M116.88,323.28l1.76-1.76a1.57,1.57,0,1,0-2.22-2.22l-1.76,1.76-1.76-1.76a1.57,1.57,0,1,0-2.22,2.22l1.76,1.76L110.68,325a1.57,1.57,0,0,0,2.22,2.22l1.76-1.76,1.76,1.76a1.57,1.57,0,0,0,2.22-2.22Z"/></g></g></g></g></svg>