<svg xmlns="http://www.w3.org/2000/svg" xmlns:xlink="http://www.w3.org/1999/xlink" viewBox="0 0 569.58 588"><defs><style>.cls-1{fill:none;}.cls-2{fill:#46b594;}.cls-3{clip-path:url(#clip-path);}.cls-4{fill:#fbbc43;}</style><clipPath id="clip-path"><rect class="cls-1" x="-912.71" width="1920" height="588"/></clipPath></defs><title>hp_forme_vert_jaune</title><g id="Calque_2_-_copie_2" data-name="Calque 2 - copie 2"><rect class="cls-2" x="-912.71" width="1920" height="588"/><g class="cls-3"><path class="cls-4" d="M-296-380.21l436.08-99L1277.48-259.38l183,192.88-28.2,254.65-53,325.29L1343.1,708.12s-29.55,297.19-155.49,254.66c-187.3-63.25-215.1,43.28-328.35,17.56-83.83-19-92.57-100.47-167.36-148.43-78.49-50.32-168.3-24.59-209.15-65.23-71.8-71.43,7.32-180.37,24.66-217,33.9-71.64,26.82-96.49,19.71-115.83-10-27.26-42-48.76-97.61-46.66-49.91,1.88-160.57,25.44-227.15-16.38-58.18-36.54-61.94-103.75-27-226C213.1,12.34,70.2-6.19,70.2-6.19L-22.66-83.87l-75.53-23.81"/></g></g></svg>