<svg xmlns="http://www.w3.org/2000/svg" xmlns:xlink="http://www.w3.org/1999/xlink" viewBox="0 0 1896.77 792.19"><defs><style>.cls-1{fill:none;}.cls-2{isolation:isolate;}.cls-3{clip-path:url(#clip-path);}.cls-4{fill:#edf6f9;}.cls-5{fill:#54619e;}.cls-6{fill:#7885b5;}.cls-7{fill:#392d87;}.cls-8{fill:#bedded;}.cls-9{fill:#46b594;}.cls-10{fill:#494949;opacity:0.2;mix-blend-mode:darken;}.cls-11{fill:#2f9fa8;}.cls-12{fill:#fff;}</style><clipPath id="clip-path"><rect class="cls-1" width="1896.77" height="793"/></clipPath></defs><title>mobile</title><g class="cls-2"><g id="Homepage_mobile" data-name="Homepage mobile"><g id="animation-2" data-name="animation"><g id="background"><g class="cls-3"><path class="cls-4" d="M372.39,576c0-318.12,257.88-576,576-576s576,257.88,576,576"/><rect class="cls-4" x="-11.61" y="-147" width="1920" height="882"/><path class="cls-5" d="M731.06,712H-36.41c57.45-30,187.08-71.73,383.74-71.73S680.8,677.7,731.06,712Z"/><path class="cls-5" d="M1807.44,712.23H1040c57.45-30,187.09-71.73,383.74-71.73S1757.17,677.93,1807.44,712.23Z"/><path class="cls-6" d="M1365.65,712.23H878.42c36.47-19,118.77-45.53,243.62-45.53S1333.74,690.46,1365.65,712.23Z"/><rect class="cls-7" x="1374.74" y="491.58" width="181.64" height="223.76"/><rect class="cls-7" x="1401.51" y="481.93" width="128.11" height="9.65"/><rect class="cls-8" x="1394.42" y="510.89" width="66.98" height="42.12"/><rect class="cls-8" x="1394.42" y="563.54" width="66.98" height="42.12"/><rect class="cls-8" x="1394.42" y="616.2" width="66.98" height="42.12"/><rect class="cls-8" x="1470.18" y="510.89" width="66.98" height="42.12"/><rect class="cls-8" x="1470.18" y="563.54" width="66.98" height="42.12"/><rect class="cls-8" x="1470.18" y="616.2" width="66.98" height="42.12"/><rect class="cls-7" x="162.74" y="491.58" width="181.64" height="223.76"/><rect class="cls-7" x="189.51" y="481.93" width="128.11" height="9.65"/><rect class="cls-8" x="182.42" y="510.89" width="66.98" height="42.12"/><rect class="cls-8" x="182.42" y="563.54" width="66.98" height="42.12"/><rect class="cls-8" x="182.42" y="616.2" width="66.98" height="42.12"/><rect class="cls-8" x="258.18" y="510.89" width="66.98" height="42.12"/><rect class="cls-8" x="258.18" y="563.54" width="66.98" height="42.12"/><rect class="cls-8" x="258.18" y="616.2" width="66.98" height="42.12"/><path class="cls-9" d="M122.3,319.1C89,407.84,84.79,507.66,88.47,556.76c3.91,52,26.67,88.47,50.09,85,20.79-3.08,44.24-31.23,42.29-121.43s-19.52-170-31.23-201.23C138.49,289.41,132.71,291.35,122.3,319.1Z"/><path class="cls-10" d="M113.49,345c-25.2,81.62-28.34,167.43-25,211.8,3.91,52,26.67,88.47,50.09,85,19.14-2.84,40.53-27,42.27-101.21C137.81,657.34,90.65,527.87,113.49,345Z"/><polygon class="cls-7" points="135.45 540.1 129.26 712.21 139.39 712.21 135.45 540.1"/><polygon class="cls-7" points="117.63 607.97 133.76 632.9 134.89 622.78 117.63 607.97"/><polygon class="cls-7" points="134.89 599.31 134.89 607.03 153.17 583.63 134.89 599.31"/><path class="cls-9" d="M1808.16,319.1c-33.28,88.74-37.51,188.56-33.83,237.66,3.9,52,26.67,88.47,50.09,85,20.78-3.08,44.23-31.23,42.28-121.43s-19.51-170-31.22-201.23C1824.34,289.41,1818.56,291.35,1808.16,319.1Z"/><path class="cls-10" d="M1799.35,345c-25.21,81.62-28.35,167.43-25,211.8,3.9,52,26.67,88.47,50.09,85,19.14-2.84,40.52-27,42.26-101.21C1823.66,657.34,1776.5,527.87,1799.35,345Z"/><polygon class="cls-7" points="1821.31 540.1 1815.12 712.21 1825.24 712.21 1821.31 540.1"/><polygon class="cls-7" points="1803.49 607.97 1819.62 632.9 1820.74 622.78 1803.49 607.97"/><polygon class="cls-7" points="1820.74 599.31 1820.74 607.03 1839.03 583.63 1820.74 599.31"/><path class="cls-9" d="M759.78,540.52c-14.57,38.86-16.43,82.59-14.81,104.09,1.71,22.79,11.68,38.75,21.94,37.23,9.1-1.35,19.37-13.68,18.52-53.19s-8.55-74.46-13.68-88.13C766.87,527.51,764.34,528.36,759.78,540.52Z"/><path class="cls-10" d="M755.92,551.84c-11,35.75-12.41,73.33-10.95,92.77,1.71,22.79,11.68,38.75,21.94,37.23,8.38-1.24,17.74-11.81,18.51-44.33C766.57,688.66,745.92,632,755.92,551.84Z"/><polygon class="cls-7" points="765.54 637.31 762.83 712.7 767.27 712.7 765.54 637.31"/><polygon class="cls-7" points="757.74 667.04 764.8 677.96 765.3 673.53 757.74 667.04"/><polygon class="cls-7" points="765.3 663.25 765.3 666.63 773.3 656.38 765.3 663.25"/><path class="cls-9" d="M1230.63,420.21c-61,61-68.71,129.51-62,163.24,7.15,35.74,48.85,60.76,91.75,58.38,38.07-2.11,81-21.45,77.45-83.41s-35.75-116.77-57.2-138.21C1260.28,399.81,1249.69,401.14,1230.63,420.21Z"/><path class="cls-10" d="M1214.49,438c-46.16,56.06-51.92,115-45.82,145.48,7.15,35.74,48.85,60.76,91.74,58.38,35.06-2,74.23-18.52,77.42-69.52C1259,652.53,1172.65,563.6,1214.49,438Z"/><polygon class="cls-7" points="1253.65 540.1 1247.46 712.21 1257.58 712.21 1253.65 540.1"/><polygon class="cls-7" points="1220.46 588.47 1251.96 632.9 1253.09 622.78 1220.46 588.47"/><polygon class="cls-7" points="1253.09 599.31 1253.09 607.03 1285.14 581.72 1253.09 599.31"/><path class="cls-11" d="M63.34,561.19c-37.44,37.44-42.2,79.56-38.06,100.27,4.39,22,30,37.32,56.36,35.86,23.38-1.3,49.76-13.17,47.57-51.23s-22-71.72-35.13-84.9C81.55,548.67,75.05,549.48,63.34,561.19Z"/><path class="cls-10" d="M53.43,572.11c-28.36,34.43-31.89,70.63-28.15,89.35,4.39,22,30,37.32,56.35,35.86,21.54-1.2,45.6-11.38,47.56-42.7C80.78,703.89,27.73,649.27,53.43,572.11Z"/><polygon class="cls-7" points="77.48 634.84 73.68 712.21 79.9 712.21 77.48 634.84"/><polygon class="cls-7" points="57.09 664.54 76.44 691.84 77.13 685.62 57.09 664.54"/><polygon class="cls-7" points="77.13 671.21 77.13 675.95 96.83 660.4 77.13 671.21"/><path class="cls-11" d="M1324.17,561.19c-37.44,37.44-42.2,79.56-38.06,100.27,4.39,22,30,37.32,56.35,35.86,23.39-1.3,49.77-13.17,47.57-51.23s-22-71.72-35.13-84.9C1342.38,548.67,1335.87,549.48,1324.17,561.19Z"/><path class="cls-10" d="M1314.25,572.11c-28.35,34.43-31.89,70.63-28.14,89.35,4.39,22,30,37.32,56.35,35.86,21.53-1.2,45.59-11.38,47.55-42.7C1341.61,703.89,1288.55,649.27,1314.25,572.11Z"/><polygon class="cls-7" points="1338.3 634.84 1334.5 712.21 1340.72 712.21 1338.3 634.84"/><polygon class="cls-7" points="1317.92 664.54 1337.27 691.84 1337.96 685.62 1317.92 664.54"/><polygon class="cls-7" points="1337.96 671.21 1337.96 675.95 1357.65 660.4 1337.96 671.21"/><path class="cls-6" d="M1915.19,735.81H-19.2A11.84,11.84,0,0,1-31,724h0A11.84,11.84,0,0,1-19.2,712.12H1915.19A11.84,11.84,0,0,1,1927,724h0A11.84,11.84,0,0,1,1915.19,735.81Z"/><rect class="cls-12" x="-54.61" y="735" width="1963" height="58"/></g></g></g></g></g></svg>