<svg xmlns="http://www.w3.org/2000/svg" viewBox="0 0 130 130"><defs><style>.cls-1{fill:#2f9fa8;opacity:0.25;}.cls-2{fill:#fbbc43;}.cls-3{fill:#fb9543;}.cls-4{fill:#a4d7d8;}</style></defs><title>hp_icones</title><g id="Calque_2_-_copie_2" data-name="Calque 2 - copie 2"><ellipse class="cls-1" cx="66.04" cy="106.94" rx="22.72" ry="5.99"/><path class="cls-2" d="M66,17.07A35.9,35.9,0,0,0,30.15,53c0,19.83,35.89,54,35.89,54s35.9-34.14,35.9-54A35.9,35.9,0,0,0,66,17.07Zm0,56A20.14,20.14,0,1,1,86.19,53,20.15,20.15,0,0,1,66.05,73.11Z"/><path class="cls-3" d="M66,28.92A24.06,24.06,0,1,0,90.1,53,24.05,24.05,0,0,0,66,28.92Zm0,40.27A16.22,16.22,0,1,1,82.26,53,16.22,16.22,0,0,1,66,69.19Z"/><path class="cls-4" d="M104.58,50.93a8.74,8.74,0,0,0-8.74,8.74h17.48A8.74,8.74,0,0,0,104.58,50.93Z"/><path class="cls-4" d="M64.24,54.25a5.42,5.42,0,0,0-5.41,5.42H69.66A5.42,5.42,0,0,0,64.24,54.25Z"/><path class="cls-4" d="M82.75,46.58A13.09,13.09,0,0,0,69.66,59.67H95.84A13.09,13.09,0,0,0,82.75,46.58Z"/><path class="cls-4" d="M112.61,20.25a3.8,3.8,0,0,0-3.81,3.81h7.63A3.81,3.81,0,0,0,112.61,20.25Z"/><path class="cls-4" d="M101.81,17.07a7,7,0,0,0-7,7h14A7,7,0,0,0,101.81,17.07Z"/><path class="cls-4" d="M25.63,71.43a3,3,0,0,0-2.95,2.94h5.89A2.94,2.94,0,0,0,25.63,71.43Z"/><path class="cls-4" d="M17.29,69a5.39,5.39,0,0,0-5.39,5.39H22.68A5.39,5.39,0,0,0,17.29,69Z"/><path class="cls-4" d="M30.3,66.83h-.5v-.51a.24.24,0,0,0-.24-.24h0a.24.24,0,0,0-.24.24v.51h-.51a.24.24,0,0,0-.24.24.24.24,0,0,0,.24.24h.51v.5a.24.24,0,0,0,.24.24h0a.24.24,0,0,0,.24-.24v-.5h.5a.24.24,0,0,0,.24-.24A.23.23,0,0,0,30.3,66.83Z"/><path class="cls-4" d="M59.57,45.1h-.5v-.5a.24.24,0,0,0-.24-.24h0a.24.24,0,0,0-.24.24v.5h-.51a.24.24,0,0,0-.24.24.24.24,0,0,0,.24.24h.51v.51a.24.24,0,0,0,.24.24h0a.24.24,0,0,0,.24-.24v-.51h.5a.24.24,0,0,0,.24-.24A.24.24,0,0,0,59.57,45.1Z"/><path class="cls-4" d="M100.15,29.66h-.51v-.51a.23.23,0,0,0-.24-.23h0a.23.23,0,0,0-.24.23v.51h-.5a.24.24,0,1,0,0,.48h.5v.51a.23.23,0,0,0,.24.23h0a.23.23,0,0,0,.24-.23v-.51h.51a.24.24,0,1,0,0-.48Z"/><path class="cls-4" d="M117.86,65.84h-.5v-.5a.24.24,0,0,0-.24-.24h0a.24.24,0,0,0-.24.24v.5h-.51a.24.24,0,0,0,0,.48h.51v.51a.24.24,0,0,0,.24.24h0a.24.24,0,0,0,.24-.24v-.51h.5a.24.24,0,0,0,0-.48Z"/><path class="cls-4" d="M92.38,86.05h-.51v-.5a.24.24,0,0,0-.24-.24h0a.24.24,0,0,0-.24.24v.5h-.51a.23.23,0,0,0-.23.24.23.23,0,0,0,.23.24h.51V87a.24.24,0,0,0,.24.24h0a.24.24,0,0,0,.24-.24v-.51h.51a.23.23,0,0,0,.23-.24A.23.23,0,0,0,92.38,86.05Z"/><path class="cls-4" d="M29.32,27.69h-.51v-.5a.23.23,0,0,0-.24-.24h0a.24.24,0,0,0-.24.24v.5h-.5a.24.24,0,1,0,0,.48h.5v.51a.24.24,0,0,0,.24.24h0a.24.24,0,0,0,.24-.24v-.51h.51a.24.24,0,0,0,0-.48Z"/><path class="cls-4" d="M26.16,82.19h-.5v-.5a.24.24,0,0,0-.24-.24h0a.24.24,0,0,0-.24.24v.5h-.51a.24.24,0,0,0-.24.24.24.24,0,0,0,.24.24h.51v.51a.24.24,0,0,0,.24.24h0a.24.24,0,0,0,.24-.24v-.51h.5a.23.23,0,0,0,.24-.24A.24.24,0,0,0,26.16,82.19Z"/></g></svg>