<svg xmlns="http://www.w3.org/2000/svg" xmlns:xlink="http://www.w3.org/1999/xlink" viewBox="0 0 130 130"><defs><style>.cls-1{fill:none;}.cls-2{fill:#fbbc43;}.cls-3{clip-path:url(#clip-path);}.cls-4{fill:#fff;}.cls-5{fill:#46b594;}.cls-6{fill:#a4d7d8;}</style><clipPath id="clip-path"><polygon class="cls-1" points="12.92 34.93 65 4.86 117.08 34.93 117.08 95.07 65 125.14 12.92 95.07 12.92 34.93"/></clipPath></defs><title>hp_icones</title><g id="Calque_2_-_copie_2" data-name="Calque 2 - copie 2"><path class="cls-2" d="M104.69,82.42a33,33,0,0,0,.12-4.09l-6.91-2-1.59-7,5.35-4.82a35.55,35.55,0,0,0-4.25-7.13l-6.78,2.44-5.39-4.69,1.5-7.06a35.86,35.86,0,0,0-7.4-3.19l-4.09,6-7.11-.69-2.9-6.61a35.48,35.48,0,0,0-8.11,1.81l.19,7.21L51.17,56.2l-6.23-3.62a35.35,35.35,0,0,0-5.48,6.22l4.38,5.71L41,71.07l-7.17.73a35,35,0,0,0-.66,4.28,38,38,0,0,0-.12,4l6.91,2,1.57,7-5.38,4.81A36.23,36.23,0,0,0,40.4,101l6.8-2.41,5.37,4.71L51,110.37a36,36,0,0,0,7.63,3.29l4.07-6,7.11.66,2.92,6.6a35.44,35.44,0,0,0,8.1-1.84l-.21-7.21,6.14-3.65L93,105.86a35,35,0,0,0,5.47-6.25l-4.41-5.69,2.81-6.58,7.18-.74A36,36,0,0,0,104.69,82.42Zm-21.23,18A25.69,25.69,0,1,1,90.12,64.7,25.7,25.7,0,0,1,83.46,100.45Z"/><g class="cls-3"><path class="cls-4" d="M53.32,42.52a14.21,14.21,0,0,1-.92-2.44,3.58,3.58,0,0,0-.93-1.85,2.39,2.39,0,0,0-2.29,1.09,2.16,2.16,0,0,1-.11.47,5.27,5.27,0,0,1-2.44,2.43.48.48,0,0,1-.2.07c-.36,0-35.78,4.61-38.39,5-3,.51-4.19-1.15-4.24-1.22a1.08,1.08,0,0,1-.08-.19l-5-18.21-2.18.53L1.15,50.41A.63.63,0,0,1,1,51L-24.69,79.52a.65.65,0,0,1-.18.15l-.16.09a.64.64,0,0,1-.4.11.48.48,0,0,0-.12,0,1.89,1.89,0,0,0-1.84,1.94,1.87,1.87,0,0,0,.58,1.33,1.88,1.88,0,0,0,1.36.52,1.9,1.9,0,0,0,1.29-.55.64.64,0,0,1,.47-.19h.07c5.53.63,33.18,3.78,34.78,3.86a2.62,2.62,0,0,0,2.18-1.16.31.31,0,0,1,.09-.11c.09-.09,9.21-9.24,18.32-18.27C50.34,48.78,50.67,48.77,51.08,48.76a1.28,1.28,0,0,1,1.21,1,3.72,3.72,0,0,0,2.15-1l.23-.17a.36.36,0,0,1,0-.09C55.4,47.26,54.15,44.41,53.32,42.52ZM46,46.29C44.81,47.4,20.14,71.07,17,74a25.65,25.65,0,0,1-2.23,1.9c-1,.77-1.49.84-1.84.78-.85-1.7-4-14.42-6.79-26l39.73-5a2.38,2.38,0,0,1,.45,0A2.52,2.52,0,0,1,46,46.29Z"/><path class="cls-5" d="M69.28,82.83a3.47,3.47,0,0,1-.41-6.91,3.43,3.43,0,0,1,2.55.71,3.47,3.47,0,0,1-1.72,6.18Zm0-5.63-.27,0a2.16,2.16,0,0,0-1.88,2.4,2.17,2.17,0,0,0,2.4,1.89,2.17,2.17,0,0,0,1.89-2.41h0a2.16,2.16,0,0,0-2.14-1.9Z"/><path class="cls-5" d="M69.28,81.47A2.14,2.14,0,0,1,68,81a2.07,2.07,0,0,1-.78-1.41,2.1,2.1,0,1,1,4.17-.5h0a2.11,2.11,0,0,1-1.84,2.34Zm0-2.9h-.09a.8.8,0,0,0-.4,1.42.79.79,0,0,0,.59.16.79.79,0,0,0-.1-1.58Z"/><path class="cls-5" d="M69.27,102.22a22.9,22.9,0,1,1,2.74-.17A21.22,21.22,0,0,1,69.27,102.22Zm.06-44.41a20.94,20.94,0,0,0-2.62.16,21.55,21.55,0,1,0,24,18.82h0a21.55,21.55,0,0,0-21.35-19Z"/><rect class="cls-5" x="75.21" y="80.31" width="1.31" height="19.39" transform="translate(-36 53.38) rotate(-31.75)"/><rect class="cls-5" x="62.05" y="59.03" width="1.31" height="19.39" transform="translate(-26.78 43.27) rotate(-31.74)"/><rect class="cls-5" x="79.03" y="76.61" width="1.31" height="19.39" transform="translate(-36.34 104.67) rotate(-56.28)"/><rect class="cls-5" x="58.23" y="62.72" width="1.31" height="19.39" transform="translate(-34.04 81.19) rotate(-56.28)"/><rect class="cls-5" x="80.85" y="72.32" width="1.31" height="19.39" transform="translate(-15.89 144.32) rotate(-77.79)"/><rect class="cls-5" x="56.4" y="67.02" width="1.31" height="19.39" transform="translate(-29.99 116.25) rotate(-77.78)"/><rect class="cls-5" x="71.93" y="76.69" width="19.39" height="1.31" transform="translate(-11.42 14.19) rotate(-9.29)"/><rect class="cls-5" x="47.25" y="80.73" width="19.39" height="1.31" transform="translate(-12.39 10.26) rotate(-9.29)"/><rect class="cls-5" x="70.33" y="72.31" width="19.39" height="1.31" transform="translate(-26.07 51.25) rotate(-30.79)"/><rect class="cls-5" x="48.85" y="85.11" width="19.39" height="1.31" transform="translate(-35.65 42.06) rotate(-30.79)"/><rect class="cls-5" x="67.24" y="68.81" width="19.39" height="1.31" transform="translate(-25.08 87.86) rotate(-52.3)"/><rect class="cls-5" x="51.94" y="88.6" width="19.39" height="1.31" transform="translate(-46.68 83.44) rotate(-52.3)"/><rect class="cls-5" x="63.08" y="66.7" width="19.39" height="1.31" transform="translate(-12.22 118.42) rotate(-73.78)"/><rect class="cls-5" x="56.1" y="90.72" width="19.39" height="1.31" transform="translate(-40.32 129.03) rotate(-73.78)"/><rect class="cls-5" x="67.13" y="57.25" width="1.31" height="19.39" transform="translate(-7.51 8.58) rotate(-6.86)"/><rect class="cls-5" x="70.12" y="82.09" width="1.31" height="19.39" transform="translate(-10.46 9.12) rotate(-6.86)"/><path class="cls-6" d="M54.32,25.28h0c-.35-1.85-6.15-1.21-8.15.15s-1.27,2.82-.5,4.87,1.76,1.25,1.76,1.25l2.33-1.62c-.24-.49.28-1,.55-1.14a2.06,2.06,0,0,0,0-.33A6.4,6.4,0,0,1,54.32,25.28Z"/><path class="cls-6" d="M47,32.34a1.18,1.18,0,0,1-.37-.05,2.57,2.57,0,0,1-1.54-1.77l-.13-.36c-.7-1.83-1.43-3.71.88-5.28,1.69-1.15,5.93-1.88,7.94-1.05A1.77,1.77,0,0,1,55,25.15h0s0,.05,0,.07a.67.67,0,0,1-.45.68A5.77,5.77,0,0,0,51,28.62v.07a.41.41,0,0,1,0,.11.63.63,0,0,1-.27.51.91.91,0,0,0-.34.36.61.61,0,0,1-.22.78l-2.31,1.61A1.41,1.41,0,0,1,47,32.34Zm4.52-7.56a10.34,10.34,0,0,0-5,1.18c-1.39.95-1.14,1.78-.39,3.73l.14.36c.32.87.62,1,.65,1H47l0,0,2-1.38a1.72,1.72,0,0,1,.63-1.17.67.67,0,0,1,.08-.3A6.67,6.67,0,0,1,53.2,25,5.2,5.2,0,0,0,51.49,24.78Z"/><path class="cls-6" d="M74,15.37c-1.14.46-8.07,12.14-9,13.17S58.72,30.28,56.23,30s-1.56-2.9-1.91-4.75a6.4,6.4,0,0,0-4,3.17,2.06,2.06,0,0,1,0,.33l.16-.11A6.6,6.6,0,0,0,55,33.2c1.73.31,6.6-.6,8.36-.76s3.41-1.13,5.29-3.77S74.63,19,75.44,17.59,75.08,14.92,74,15.37Z"/><path class="cls-6" d="M71.47,79.35A2.42,2.42,0,0,0,69.54,77l-.06-.2A6.47,6.47,0,0,0,69,75.72s-13-21.07-12.61-23.88a4.35,4.35,0,0,0-.06-2,1.53,1.53,0,0,0-.88-1c-1.12.76-2.15,1.82-3.64,1.5a5.24,5.24,0,0,1,.12.95c-.34,1.92,2.56,6.56,3.24,8.58S62.55,72.56,64,75.32a12.35,12.35,0,0,0,2.68,3.62,2.24,2.24,0,0,0,0,.52,2.42,2.42,0,1,0,4.83-.11Z"/><path class="cls-6" d="M69.05,82.47a3.05,3.05,0,0,1-3.06-3V79.2a14.06,14.06,0,0,1-2.56-3.57c-.55-1-1.89-3.27-3.31-5.64-2.53-4.22-5.15-8.58-5.6-9.9a23.71,23.71,0,0,0-1.17-2.58c-1.14-2.34-2.32-4.74-2.11-6.24a3.61,3.61,0,0,0-.1-.78.66.66,0,0,1,.18-.6.64.64,0,0,1,.6-.18c.94.2,1.67-.34,2.52-1l.61-.44a.66.66,0,0,1,.59-.07,2.14,2.14,0,0,1,1.28,1.43A4.94,4.94,0,0,1,57,51.94c-.27,1.67,6.25,13.32,12.52,23.44a6.11,6.11,0,0,1,.52,1.12,3.07,3.07,0,0,1-.93,6ZM52.54,51.05c0,.14,0,.23,0,.24a.29.29,0,0,1,0,.13c-.19,1.07,1.07,3.64,2,5.51a27.25,27.25,0,0,1,1.23,2.74c.4,1.19,3.22,5.88,5.48,9.65C62.73,71.8,64,74,64.58,75a12,12,0,0,0,2.52,3.42.65.65,0,0,1,.23.63,1.64,1.64,0,0,0,0,.38,1.82,1.82,0,0,0,.55,1.23,1.77,1.77,0,0,0,3-1.31h0a1.76,1.76,0,0,0-1.41-1.69.66.66,0,0,1-.49-.45l-.06-.18a6.46,6.46,0,0,0-.45-1c-2.19-3.54-13.15-21.41-12.69-24.31a3.72,3.72,0,0,0,0-1.66,1.25,1.25,0,0,0-.24-.44l-.22.16A5.21,5.21,0,0,1,52.54,51.05Z"/><path class="cls-6" d="M51.81,37.64l-.22-.19-1.75-4.28-2.63,1.58s1.39,2.83,1.33,4.34A3,3,0,0,1,51.81,37.64Z"/><path class="cls-6" d="M48.54,39.75a.68.68,0,0,1-.65-.68,12.07,12.07,0,0,0-1.27-4,.66.66,0,0,1,.25-.85l2.64-1.58a.65.65,0,0,1,.94.31l1.69,4.13a1.35,1.35,0,0,0,.12.12.65.65,0,0,1-.63,1.1,2.39,2.39,0,0,0-2.55,1.19A.66.66,0,0,1,48.54,39.75ZM48.05,35a17,17,0,0,1,1,2.64,3.46,3.46,0,0,1,1.67-.73l-1.14-2.8Z"/><path class="cls-6" d="M11.27,88.09h-.18C9.52,88-15.38,85.18-23.48,84.25a3.2,3.2,0,0,1-1.94.72,3.19,3.19,0,0,1-2.29-.89,3.18,3.18,0,0,1-1-2.25,3.2,3.2,0,0,1,3.12-3.27L-.19,50.35-4.83,27.89a.66.66,0,0,1,.48-.77l3.42-.84a.66.66,0,0,1,.79.47l5.08,18.7c.2.21,1,.9,2.88.59,2.6-.43,35.72-4.7,38.33-5a4,4,0,0,0,1.7-1.67,1.4,1.4,0,0,0,0-.26.63.63,0,0,1,.11-.35A3.63,3.63,0,0,1,52,37a.67.67,0,0,1,.27.16,4.92,4.92,0,0,1,1.43,2.68h0A13.51,13.51,0,0,0,54.52,42c1,2.19,2.13,4.87,1.53,6.69,0,0,0,.06,0,.09a.63.63,0,0,1-.29.62l-.56.41A4.3,4.3,0,0,1,51.64,51a.66.66,0,0,1-.5-.49,1.09,1.09,0,0,0-.07-.25c-3,2.51-23.16,22.6-36.67,36.15A4,4,0,0,1,11.27,88.09Zm-35-5.17h.07c5.53.63,33.18,3.78,34.78,3.86a2.62,2.62,0,0,0,2.18-1.16.31.31,0,0,1,.09-.11c.09-.09,9.21-9.24,18.32-18.27C50.34,48.78,50.67,48.77,51.08,48.76a1.28,1.28,0,0,1,1.21,1,3.72,3.72,0,0,0,2.15-1l.23-.17a.36.36,0,0,1,0-.09c.69-1.23-.56-4.08-1.39-6a14.21,14.21,0,0,1-.92-2.44,3.58,3.58,0,0,0-.93-1.85,2.39,2.39,0,0,0-2.29,1.09,2.16,2.16,0,0,1-.11.47,5.27,5.27,0,0,1-2.44,2.43.48.48,0,0,1-.2.07c-.36,0-35.78,4.61-38.39,5-3,.51-4.19-1.15-4.24-1.22a1.08,1.08,0,0,1-.08-.19l-5-18.21-2.18.53L1.15,50.41A.63.63,0,0,1,1,51L-24.69,79.52a.65.65,0,0,1-.18.15l-.16.09a.64.64,0,0,1-.4.11.48.48,0,0,0-.12,0,1.89,1.89,0,0,0-1.84,1.94,1.91,1.91,0,0,0,.58,1.33,1.88,1.88,0,0,0,1.36.52,1.88,1.88,0,0,0,1.29-.55A.64.64,0,0,1-23.69,82.92Zm27.1.38c-5,0-22.38-.6-23.2-.63a10.32,10.32,0,0,1-3.42-.54.67.67,0,0,1-.4-.54,1.8,1.8,0,0,0-.41-1,.66.66,0,0,1,0-.79l.63-.88c.33-.46,2.19-2.28,5.46-5.47C-14.09,69.69-9.29,65-7.58,63l.78-.92C-1,55.18.74,53.59,1.84,54c.46.16,1,.36,3.61,11.84,1.3,5.79,2.48,11.74,2.58,13,.19,2.62-1.06,4.24-3.44,4.45h0C4.39,83.29,4,83.3,3.41,83.3ZM-22.37,81a10.88,10.88,0,0,0,2.62.32C-12,81.63,3,82.1,4.48,82h0c1.67-.15,2.39-1.12,2.24-3-.18-2.45-4.17-21-5.38-23.61C.05,56-3.87,60.64-5.81,62.93l-.78.92C-8.34,65.91-13.16,70.6-17,74.38c-2.48,2.41-5,4.9-5.32,5.29l-.36.51A3.35,3.35,0,0,1-22.37,81ZM13.14,78a2.91,2.91,0,0,1-.76-.11c-.52-.14-.91-.24-4.17-13.19C6.61,58.3,5,51.65,4.74,50.38l0-.18a.64.64,0,0,1,.1-.52.68.68,0,0,1,.45-.28L45.7,44.31c.9-.11,1.5.08,1.79.59.47.82-.27,1.9-.51,2.22a.46.46,0,0,1-.07.07c-.26.25-25.81,24.77-29,27.74a29.85,29.85,0,0,1-2.34,2A4.11,4.11,0,0,1,13.14,78Zm-.21-1.32c.35.06.79,0,1.84-.78A25.65,25.65,0,0,0,17,74c3.14-2.9,27.81-26.57,29-27.68a2.52,2.52,0,0,0,.35-.7,2.38,2.38,0,0,0-.45,0l-39.73,5C8.88,62.23,12.08,75,12.93,76.65Zm-.21-.05ZM46.46,46.72Zm0,0Z"/><path class="cls-6" d="M55.14,28.49v0c-.24-2-6.57-1.76-8.83-.44s-1.59,3-.9,5.24,1.81,1.48,1.81,1.48l2.63-1.58c-.22-.55.38-1,.69-1.19,0-.14,0-.26,0-.36A7,7,0,0,1,55.14,28.49Z"/><path class="cls-6" d="M46.75,35.54a1.5,1.5,0,0,1-.49-.09,2.72,2.72,0,0,1-1.49-2l-.12-.39C44,31,43.4,29,46,27.47c1.91-1.12,6.52-1.59,8.63-.55a1.87,1.87,0,0,1,1.18,1.46v0a.65.65,0,0,1-.48.72,6.38,6.38,0,0,0-4.09,2.72s0,.06,0,.09a.5.5,0,0,0,0,.12.64.64,0,0,1-.31.48,1,1,0,0,0-.42.4.64.64,0,0,1-.27.8l-2.63,1.58A1.57,1.57,0,0,1,46.75,35.54Zm4.56-7.89a10.43,10.43,0,0,0-4.68,1c-1.62.94-1.41,1.87-.73,4.07l.12.41c.29,1,.61,1.12.67,1.14a.29.29,0,0,0,.14,0l0,0,2.27-1.37a1.81,1.81,0,0,1,.78-1.22.56.56,0,0,1,.09-.31,7.24,7.24,0,0,1,4.07-3.17l-.06,0A6.68,6.68,0,0,0,51.31,27.65Z"/><path class="cls-6" d="M5.83,14.47c-1.67.32-3.52.66-5.22.85-5.83.63-6.46.65-9.66,0s-7.15-1.37-6.32,1.41a1.43,1.43,0,0,0,.08.22C-8.07,18.73-.37,18.8,5.83,14.47Z"/><path class="cls-6" d="M-6.53,18.74a37,37,0,0,1-8.92-1.19.63.63,0,0,1-.45-.4c0-.09-.07-.18-.1-.27a2.06,2.06,0,0,1,.33-2.11c1-1.11,3.35-.87,6.76-.13,3.08.66,3.61.67,9.45,0,1.65-.18,3.46-.52,5.17-.84A.65.65,0,0,1,6.2,15,21.75,21.75,0,0,1-6.53,18.74Zm-8.25-2.37c6.59,1.59,12.26,1.4,16.91-.59L.68,16c-5.76.63-6.51.67-9.86-.05-1.19-.26-4.81-1-5.54-.26C-14.84,15.79-14.86,16-14.78,16.37Z"/><path class="cls-6" d="M5.83,14.47c-6.2,4.33-13.9,4.26-21.12,2.44,1,2.6,5.79,3.38,8.43,5.06a6,6,0,0,1,2.4,3.73c1.11-.17,2.21-.35,3.31-.54a3.48,3.48,0,0,1,.36-2.31C.12,21.56,6,18,10,15.11,12.86,13.06,9.88,13.7,5.83,14.47Z"/><path class="cls-6" d="M-4.46,26.35a.66.66,0,0,1-.64-.5,5.39,5.39,0,0,0-2.11-3.33,19.36,19.36,0,0,0-3.15-1.47c-2.35-.95-4.77-1.93-5.54-3.9a.63.63,0,0,1,.12-.67.66.66,0,0,1,.65-.2C-6.72,18.39.2,17.6,5.45,13.93a.82.82,0,0,1,.26-.1l.5-.1c4-.76,5.15-.94,5.52-.08s-.48,1.38-1.32,2c-1.44,1-3.11,2.15-4.72,3.22C3,20.65.26,22.49-.26,23.23A2.91,2.91,0,0,0-.5,25.09.65.65,0,0,1-1,25.8c-1.08.19-2.14.36-3.32.54ZM-13.62,18a16.81,16.81,0,0,0,3.75,1.87,20.88,20.88,0,0,1,3.36,1.58A6.25,6.25,0,0,1-4,25l2.15-.34a3.45,3.45,0,0,1,.52-2.15c.62-.88,2.79-2.36,6.28-4.69,1.61-1.07,3.26-2.18,4.68-3.2l.2-.15c-.9.11-2.23.37-3.39.59l-.36.07C.92,18.64-5.7,19.61-13.62,18Z"/></g></g></svg>