<svg xmlns="http://www.w3.org/2000/svg" viewBox="0 0 130 130"><defs><style>.cls-1{opacity:0.25;}.cls-2{fill:#2f9fa8;}.cls-3{fill:#46b594;}.cls-4{fill:#fff;}.cls-5{fill:#fbbc43;}</style></defs><title>hp_icones</title><g id="Calque_2_-_copie_2" data-name="Calque 2 - copie 2"><g class="cls-1"><path class="cls-2" d="M73.8,25.28c1.82,0,3.5,0,5.17,0,.3,0,.68-.43.84-.74.34-.68.48-1.47.86-2.12.17-.3.7-.4,1.07-.58.14.38.46.8.39,1.15a17,17,0,0,1-.8,2.32c2.64,0,5.11,0,7.57,0,.29,0,.64-.39.83-.67,1-1.44,1.83-2.92,2.82-4.33.24-.33.83-.42,1.25-.62,0,.47.2,1,0,1.39-.77,1.39-1.67,2.71-2.54,4.08a14.7,14.7,0,0,1,2.31.63,4.19,4.19,0,0,1,2.62,4c0,1.67-.28,3.33-.43,5a.55.55,0,0,1-.09.32c-1.16,1.15-2.34,2.29-3.51,3.43-.26.26-.5.53-.76.78s-.8.71-1.2,1.06l-.42-.23c-.33,2.87-.51,5.77-1,8.6a32,32,0,0,1-1.8,5c-.24.64-.47,1.28-.72,1.92a1.13,1.13,0,0,1-.31.52c-3.23,2.1-6.56,4.06-9.63,6.36-1,.79-2.33.7-3.53,1.7,1.66,0,2.86,1.4,4.47.32a4.07,4.07,0,0,1,2.12-.33q14.36,0,28.7,0c.19,0,.43-.06.57,0,.39.26.75.57,1.13.86a5.34,5.34,0,0,1-1.11.76,4,4,0,0,1-1.25,0H77.08l-.1.35a14.82,14.82,0,0,0,2.2.79q22.95,4.57,45.91,9.09c.26,0,.52.12.79.16.63.12,1.33.26,1.14,1.1s-.94.62-1.52.51c-1.73-.31-3.46-.65-5.18-1l-37-7.38a3.11,3.11,0,0,0-.51,0c1.78,1.09,2.64,2.76,4.62,3.5,10.23,3.78,20.36,7.79,30.52,11.75a1.78,1.78,0,0,1,1,.84c.23.56-.45.93-1.26.62-3.25-1.24-6.5-2.5-9.74-3.75q-9.21-3.57-18.4-7.14c-.77-.3-1.49-.72-2.44-1.18a4.1,4.1,0,0,0,.21,1c.87,1.56.54,3.61,2.06,4.88a.36.36,0,0,1,0,.32c-.88,1.51,0,3,0,4.49,0,.41.13.84.11,1.25-.13,2.36,1.3,3.67,3.14,4.69a6.21,6.21,0,0,1,3.24,4.11,12.87,12.87,0,0,1,.2,4.2,4.36,4.36,0,0,1-4,3.65,12.32,12.32,0,0,0-1.27.39,1.88,1.88,0,0,1-.85,0,16.47,16.47,0,0,0-7.71-.07,2.53,2.53,0,0,1-.55,0c-2.28-.11-4.56-.24-6.84-.33-1,0-.79.66-.65,1.21.92,3.7,1.91,7.37,2.79,11.08.81,3.38,1.52,6.79,2.29,10.19.14.61.35,1.3-.46,1.53s-1-.5-1.13-1.09q-2.27-10.08-4.49-20.16a2.11,2.11,0,0,1,0-1c.3-1.22-.08-1.78-1.39-1.76-2.25,0-4.5.2-6.75.21-1.4,0-2.8-.19-4.21-.21q-4.27-.06-8.56,0a16.51,16.51,0,0,0-2.38.38,6.29,6.29,0,0,0-1.51-.38c-2,0-4,0-6,0-.83,0-1.49.17-1.76,1.17a12.28,12.28,0,0,1-1.18,2.68A35.22,35.22,0,0,1,37.32,110c-.2.29-.73.34-1.11.5-.07-.4-.34-.95-.17-1.18,1.29-1.77,1.93-4,3.9-5.31a1,1,0,0,0,.28-.86c0-.16-.44-.34-.7-.36a12.88,12.88,0,0,0-2.06,0c-2.55.2-4.75-.3-6-3.27-1.63,1.72-3.05,3.26-4.51,4.76-1.66,1.7-3.35,3.36-5,5a2,2,0,0,1-.7.58c-.28.09-.78.1-.91-.07a1.14,1.14,0,0,1-.13-1,4.32,4.32,0,0,1,.9-1c3.17-3.17,6.35-6.31,9.48-9.52a3.4,3.4,0,0,0,.81-1.88A6.86,6.86,0,0,1,35,90.73c1.8-1.06,3.19-2.41,3.1-4.74,0-.6.07-1.21.12-2l-1.12.7L27.55,91c-.19.12-.39.34-.59.34s-.82,0-1-.27,0-.69.17-1,.47-.37.73-.54c3.59-2.4,7.2-4.78,10.75-7.24a3.24,3.24,0,0,0,1.08-1.59c.34-1,.49-2.15.78-3.46-.59.21-1,.34-1.46.53L9,90.64c-.14.06-.29.2-.42.18-.47,0-1.19,0-1.37-.24-.42-.64.15-1,.71-1.27l10.29-4.54q10.6-4.67,21.2-9.37a3.55,3.55,0,0,0,1.28-1.19c.79-1.07,1.5-2.19,2.34-3.44l-6.28,1.4L9.17,78.31c-.58.13-1.3.27-1.34-.53,0-.32.62-.91,1.05-1q11.85-2.7,23.73-5.32c4.33-1,8.69-1.83,13-3a32.74,32.74,0,0,0,5.09-2.25l-.06-.33c-.39,0-.77,0-1.16,0H33c-.19,0-.38,0-.57,0C31.84,65.81,31,66,31,65s.85-.82,1.48-.82l21.46,0a1,1,0,0,0,.79-.34,16.18,16.18,0,0,0-2.19-.75c-3.38-.61-6.78-1.09-10.15-1.75-12.65-2.47-25.28-5-37.93-7.5-.22-.05-.51,0-.66-.15a9.39,9.39,0,0,1-.88-1c.39-.2.82-.62,1.18-.56,1.85.27,3.68.65,5.52,1l37.24,7.42a7.91,7.91,0,0,0,1.74.28,13.09,13.09,0,0,1-1.86-1.08C43.3,57,39,55.83,35,54.21c-2.95-1.18-5.92-2.3-8.88-3.45-.14,0-.33-.07-.41-.18-.26-.31-.47-.67-.7-1,.41-.13.9-.45,1.23-.34,2.83,1,5.64,2.16,8.46,3.25L41,54.92c-.56-1.68-1.05-3.28-1.64-4.83a2.39,2.39,0,0,0-1-.94Q25.58,41,12.73,32.83c-.59-.38-1.7-.68-1.15-1.63s1.42-.13,2,.26Q25.4,38.9,37.16,46.39c.41.25.84.48,1.47.84a52.83,52.83,0,0,0-.86-7.15,5.18,5.18,0,0,0-2.45-2.54,8,8,0,0,1-3.6-4,5.76,5.76,0,0,0-1.07-1.7c-1.91-2-3.88-3.92-5.83-5.87-.16-.16-.41-.3-.47-.49a11.41,11.41,0,0,1-.23-1.3c.44.06,1,0,1.29.21,1.25,1.12,2.41,2.34,3.6,3.54.69.7,1.36,1.43,2.23,2.35.42-3.82,2.58-5.2,6.1-5-.32-.52-.53-.87-.75-1.21L30,14.15c-.09-.13-.24-.25-.25-.38,0-.44,0-.88.06-1.32.44.15,1.07.16,1.29.46,1.38,1.93,2.68,3.92,4,5.89s2.58,3.89,3.92,5.8a1.6,1.6,0,0,0,1.06.66c4.82,0,9.65,0,14.47,0a4.74,4.74,0,0,0,.7-.15c-.4-1.82-.77-3.61-1.17-5.39L50.76,5.19c-.06-.26-.22-.56-.15-.78a6.79,6.79,0,0,1,.63-1.15c.31.26.81.47.9.8.49,1.8.89,3.63,1.3,5.46,1.1,4.89,2.2,9.78,3.24,14.68.18.85.52,1.13,1.37,1.11,2-.06,4,0,6.08,0,0-.53.09-1,.09-1.41,0-3.3,0-6.59,0-9.88a2.64,2.64,0,0,1,.06-1c.13-.29.47-.5.72-.74a3.16,3.16,0,0,1,.7.77,2.87,2.87,0,0,1,0,1c0,3.37,0,6.74,0,10.1,0,.91.26,1.22,1.17,1.18a35.94,35.94,0,0,1,4,0c.89.05,1.16-.32,1.32-1.13q1.91-9.81,3.87-19.59c0-.26,0-.59.17-.77a7.47,7.47,0,0,1,1-.84c.2.36.58.74.55,1.08a32.9,32.9,0,0,1-.58,3.27q-1.71,8.55-3.41,17.11A6.45,6.45,0,0,0,73.8,25.28Zm-9.94,3.23h-27a3.06,3.06,0,0,0-1.14,0,2,2,0,0,0-1.06.85,4.17,4.17,0,0,0,2.83,5.53c.42.11.76.58,1.1.93.52.54.91,1.28,1.53,1.62a1.6,1.6,0,0,1,1,1.5c.22,2.63.45,5.25.79,7.87.62,4.85,2.79,8.66,7.44,10.8,2.29,1.06,4.52,2.23,6.75,3.41a17.12,17.12,0,0,1,2.6,1.66c1.16.92,1.16,1.68,0,2.62A17.64,17.64,0,0,1,56,67.07c-2.5,1.32-5,2.55-7.55,3.88a10.58,10.58,0,0,0-5.94,7.71c-.55,3.23-1,6.49-1.35,9.75a3.82,3.82,0,0,1-1.22,2.39,23.07,23.07,0,0,1-4.36,3.48c-1.05.69-1.44,3.36-.86,4.5s1.88.8,2.87.8q26.4,0,52.81,0a5.6,5.6,0,0,0,1.48-.07,1.78,1.78,0,0,0,1-.75c.72-1.59,0-4.22-1.5-5-1.26-.66-2.58-1.1-3.12-2.61a1.34,1.34,0,0,0-.81-.6c-.75-.24-.88-.74-1-1.47-.28-2.92-.61-5.85-1-8.76a12.1,12.1,0,0,0-7.15-9.85c-1.79-.85-3.57-1.75-5.33-2.67a31.3,31.3,0,0,1-3.77-2.18c-1.67-1.21-1.64-1.94,0-3.18a15,15,0,0,1,2.14-1.33c2.64-1.38,5.33-2.68,8-4.1,3-1.6,5.12-3.93,5.69-7.36s1-7.09,1.49-10.65a1.65,1.65,0,0,1,.91-1.52c.65-.35,1.06-1.13,1.58-1.71.26-.28.5-.7.82-.8,2.5-.79,3.19-1.69,3.19-4.31,0-2-.2-2.16-2.18-2.16Z"/><path class="cls-2" d="M83.33,61.66c1-1.71,2.53-2.11,4-2.44q16.68-3.75,33.35-7.44c.15,0,.33-.14.45-.1.35.14.68.33,1,.5-.22.34-.38.88-.68,1-1,.34-2.07.53-3.11.77L84.93,61.39C84.46,61.5,84,61.55,83.33,61.66Z"/><path class="cls-2" d="M90.6,80.43c.4.2.71.32,1,.49l26.06,16.54c.13.09.33.15.37.26.15.41.25.85.37,1.27-.41,0-.92.24-1.22.07-1.34-.74-2.61-1.59-3.91-2.41q-10.69-6.8-21.42-13.58A2.55,2.55,0,0,1,90.6,80.43Z"/><path class="cls-2" d="M12.56,65.87H3.62a3.44,3.44,0,0,1-1.25-.09A1.21,1.21,0,0,1,1.73,65c0-.21.34-.57.6-.7a2.63,2.63,0,0,1,1-.09c6.15,0,12.3,0,18.46,0,.67,0,1.69-.24,1.71.81s-1,.83-1.67.84c-3.1,0-6.19,0-9.29,0Z"/><path class="cls-2" d="M91.27,48.24a1.71,1.71,0,0,1,.63-2.14q9.46-6.37,19-12.69c.33-.22.93,0,1.41,0-.19.44-.24,1.07-.57,1.3C105.17,39.11,98.59,43.5,92,47.9A5.87,5.87,0,0,1,91.27,48.24Z"/><path class="cls-2" d="M52,126.34c.39-2,.73-3.85,1.09-5.65q1.44-7.31,2.9-14.62c.06-.26.15-.52.19-.78.09-.68.46-1.15,1.13-.88.28.1.52.79.46,1.15-.37,2.15-.84,4.28-1.26,6.42q-1.35,6.8-2.69,13.61c0,.26,0,.6-.18.77a1.88,1.88,0,0,1-1,.66C52.42,127,52.16,126.52,52,126.34Z"/><path class="cls-2" d="M50.41,104.83c-.18.5-.29.83-.41,1.15q-3.31,8.55-6.62,17.11c-.23.6-.55,1.27-1.28.86-.28-.15-.4-1-.25-1.44q3.27-8.64,6.67-17.21c.17-.42.78-.7,1.25-.94C49.88,104.31,50.22,104.68,50.41,104.83Z"/><path class="cls-2" d="M89.49,55a2.25,2.25,0,0,1,1.4-2.32L106.08,46a2.12,2.12,0,0,1,.85-.3c.33,0,.81.19.91.43s-.12.68-.3,1-.38.23-.59.32L90.5,54.67C90.23,54.79,89.94,54.85,89.49,55Z"/><path class="cls-2" d="M120.22,65.85c-2.21,0-4.43,0-6.64,0-.62,0-1.4,0-1.28-.85,0-.32.8-.76,1.24-.77,4.47-.06,8.93,0,13.4,0,.61,0,1.37,0,1.33.86s-.79.8-1.41.8h-6.64Z"/><path class="cls-2" d="M98.52,32.43a1.81,1.81,0,0,1,.22-2.33c3.19-3.19,6.36-6.39,9.59-9.55.28-.27.91-.2,1.38-.29-.06.47.05,1.11-.21,1.38-3.48,3.54-7,7-10.54,10.54A1.9,1.9,0,0,1,98.52,32.43Z"/><path class="cls-2" d="M82.58,104.17c.31.31.8.61,1,1q3,6.58,5.82,13.21c.15.35-.18.9-.28,1.36-.39-.25-1-.42-1.15-.78-2-4.53-4-9.08-6-13.62C81.68,104.81,81.6,104.36,82.58,104.17Z"/><path class="cls-2" d="M91.62,104.15a5.33,5.33,0,0,1,1.11.92c2.53,3.72,5,7.47,7.54,11.21.35.51.48,1.09-.16,1.34a1.36,1.36,0,0,1-1.18-.46c-2.7-3.94-5.35-7.91-8-11.88a1,1,0,0,1-.1-.81C90.9,104.31,91.27,104.28,91.62,104.15Z"/><path class="cls-2" d="M111.46,45.38c-.22-.18-.61-.34-.68-.59a1.18,1.18,0,0,1,.26-.89c.13-.2.45-.27.69-.38l9.54-4.22c.07,0,.14-.09.21-.08.47.07.93.16,1.4.25-.23.41-.37,1-.72,1.2-1.67.83-3.4,1.55-5.11,2.31l-4.51,2C112.22,45.1,111.9,45.21,111.46,45.38Z"/><path class="cls-2" d="M88.46,6.63c-.18.53-.27.82-.38,1.11-1.2,3.1-2.39,6.19-3.6,9.29a2.19,2.19,0,0,1-.42.8,1,1,0,0,1-.78.28,1.32,1.32,0,0,1-.58-.74,1.36,1.36,0,0,1,.17-.76c1.25-3.25,2.49-6.49,3.79-9.71a1.5,1.5,0,0,1,.9-.86C87.82,6,88.19,6.44,88.46,6.63Z"/><path class="cls-2" d="M41.27,10.16c.2.2.54.42.67.72,1.37,3,2.73,6.08,4,9.14.14.33-.17.85-.27,1.28-.39-.22-1-.34-1.13-.66-1.4-3-2.73-6.07-4.06-9.12C40.22,10.89,40.38,10.4,41.27,10.16Z"/><path class="cls-2" d="M98.12,97.3a8.73,8.73,0,0,1,1,.72l6.4,6.39c.4.4.93.85.36,1.45s-1,.09-1.44-.31c-1.82-1.8-3.65-3.58-5.41-5.44a8.21,8.21,0,0,1-1.21-2C97.71,98,98,97.65,98.12,97.3Z"/><path class="cls-2" d="M18.16,97c-.13-.11-.46-.27-.52-.5a.89.89,0,0,1,.19-.8q2.24-1.59,4.56-3a.93.93,0,0,1,.85.27c.14.2.11.78-.06.89-1.52,1.08-3.08,2.1-4.63,3.12C18.49,97,18.4,97,18.16,97Z"/><path class="cls-2" d="M65.73,114.68a15.9,15.9,0,0,1,0,2.29c0,.31-.48.56-.73.84-.24-.29-.68-.57-.7-.87-.07-1.49-.07-3,0-4.47,0-.31.44-.59.68-.89.26.31.7.58.75.92a13.19,13.19,0,0,1,0,2.18Z"/><path class="cls-2" d="M65.73,106.53a5.68,5.68,0,0,1,0,1.37c-.09.3-.45.52-.69.77-.25-.24-.7-.46-.72-.72a16.37,16.37,0,0,1,0-3c0-.29.44-.54.68-.81.25.29.64.55.73.88A6.07,6.07,0,0,1,65.73,106.53Z"/></g><path class="cls-3" d="M63.86,28.51h27c2,0,2.18.2,2.18,2.16,0,2.62-.69,3.52-3.19,4.31-.32.1-.56.52-.82.8-.52.58-.93,1.36-1.58,1.71A1.65,1.65,0,0,0,86.52,39c-.45,3.56-.89,7.12-1.49,10.65S82.29,55.42,79.34,57c-2.62,1.42-5.31,2.72-8,4.1a15,15,0,0,0-2.14,1.33c-1.62,1.24-1.65,2,0,3.18A31.3,31.3,0,0,0,73,67.81c1.76.92,3.54,1.82,5.33,2.67a12.1,12.1,0,0,1,7.15,9.85c.39,2.91.72,5.84,1,8.76.07.73.2,1.23,1,1.47a1.34,1.34,0,0,1,.81.6c.54,1.51,1.86,2,3.12,2.61,1.5.79,2.22,3.42,1.5,5a1.78,1.78,0,0,1-1,.75,5.6,5.6,0,0,1-1.48.07q-26.4,0-52.81,0c-1,0-2.23.48-2.87-.8s-.19-3.81.86-4.5a23.07,23.07,0,0,0,4.36-3.48,3.82,3.82,0,0,0,1.22-2.39c.38-3.26.8-6.52,1.35-9.75A10.58,10.58,0,0,1,48.43,71c2.5-1.33,5-2.56,7.55-3.88a17.64,17.64,0,0,0,2.7-1.72c1.16-.94,1.16-1.7,0-2.62a17.12,17.12,0,0,0-2.6-1.66c-2.23-1.18-4.46-2.35-6.75-3.41-4.65-2.14-6.82-5.95-7.44-10.8-.34-2.62-.57-5.24-.79-7.87a1.6,1.6,0,0,0-1-1.5c-.62-.34-1-1.08-1.53-1.62-.34-.35-.68-.82-1.1-.93a4.17,4.17,0,0,1-2.83-5.53,2,2,0,0,1,1.06-.85,3.06,3.06,0,0,1,1.14,0Zm-.14,9.43H43.52c-.72,0-1.32,0-1.19,1,.44,3.25.79,6.52,1.3,9.77a9.51,9.51,0,0,0,5.11,7.1c1.67.92,3.4,1.74,5.08,2.65a49.9,49.9,0,0,1,5.64,3.27c2,1.44,1.88,3.06,0,4.66a11.24,11.24,0,0,1-2.1,1.39c-2.71,1.43-5.47,2.74-8.16,4.21-2.52,1.37-4.7,3.18-5.24,6.18-.66,3.64-1.1,7.32-1.63,11-.13.91.45,1,1.14,1q20.25,0,40.52,0c1.07,0,1.34-.42,1.22-1.38-.34-2.69-.63-5.39-1-8.09a11.15,11.15,0,0,0-6.83-9.23c-1.42-.66-2.84-1.34-4.21-2.1A41.78,41.78,0,0,1,68,66.26c-1.78-1.35-1.73-3.18.06-4.52A35.5,35.5,0,0,1,72.59,59c2.08-1.13,4.24-2.13,6.31-3.28a9.24,9.24,0,0,0,5-6.8c.51-3.16.93-6.35,1.31-9.53.17-1.47.09-1.49-1.37-1.49Zm22.06,56.7H39a2.63,2.63,0,0,0-1.13,0,5.45,5.45,0,0,0-1.63,1.25c-.39.51-.12,1,.58,1,.88,0,1.75-.14,2.63-.15q19-.15,38.09-.29c1.72,0,3.44-.1,5.15-.24A3.56,3.56,0,0,0,85.78,94.64Zm-.29-64-.15-.51c-.41,0-.81,0-1.22,0H37.53c-.73,0-1.55-.12-1.46,1s.9.92,1.62.89c.46,0,.92-.05,1.38-.05,6.23,0,12.47-.05,18.7,0,5.73.06,11.47.34,17.2.35a61.12,61.12,0,0,0,7.86-.66A11.78,11.78,0,0,0,85.49,30.66Zm2,5-.15-.28H40.11c.57,1.09,1.46,1,2.28,1H85.28a2.66,2.66,0,0,0,.8,0C86.57,36.11,87,35.85,87.51,35.63Zm-.28,57.06.13-.51a10.08,10.08,0,0,0-2-.46q-21.47,0-42.94,0a3.14,3.14,0,0,0-1,.07,5.36,5.36,0,0,0-1.05.62l.11.29Z"/><path class="cls-4" d="M63.72,37.94h20.1c1.46,0,1.54,0,1.37,1.49-.38,3.18-.8,6.37-1.31,9.53a9.24,9.24,0,0,1-5,6.8c-2.07,1.15-4.23,2.15-6.31,3.28a35.5,35.5,0,0,0-4.52,2.7c-1.79,1.34-1.84,3.17-.06,4.52a41.78,41.78,0,0,0,5.21,3.09c1.37.76,2.79,1.44,4.21,2.1a11.15,11.15,0,0,1,6.83,9.23c.33,2.7.62,5.4,1,8.09.12,1-.15,1.38-1.22,1.38q-20.27,0-40.52,0c-.69,0-1.27-.07-1.14-1,.53-3.66,1-7.34,1.63-11,.54-3,2.72-4.81,5.24-6.18,2.69-1.47,5.45-2.78,8.16-4.21a11.24,11.24,0,0,0,2.1-1.39c1.87-1.6,2-3.22,0-4.66a49.9,49.9,0,0,0-5.64-3.27c-1.68-.91-3.41-1.73-5.08-2.65a9.51,9.51,0,0,1-5.11-7.1c-.51-3.25-.86-6.52-1.3-9.77-.13-1,.47-1,1.19-1Zm.12,51h0c5.55,0,11.1,0,16.65,0,1.33,0,2-.49,1.84-1.62-.24-2.44-.46-4.88-.92-7.28A6.44,6.44,0,0,0,77.18,75a57.54,57.54,0,0,0-5.93-1.73,7.89,7.89,0,0,1-5.7-4.21,3.86,3.86,0,0,0-.49-.77,1.35,1.35,0,0,0-2.37.16,5.5,5.5,0,0,1-3.6,2.78c-1.63.57-3.3,1-4.89,1.67a13.67,13.67,0,0,0-7.38,6.56c-1.19,2.36-1.33,4.92-1.52,7.47-.12,1.54.36,2,1.89,2C52.74,89,58.29,89,63.84,89Zm0-42.7H47.83c-1.36,0-2,.67-1.82,1.88.47,3.55,1.94,6.42,5.35,8,.69.32,1.35.7,2,1.05,1.94,1,3.91,1.93,5.8,3a5.09,5.09,0,0,1,3,3.95c.09.8.72,1.1,1.51,1.11s1.6-.12,1.7-1c.27-2.29,1.85-3.45,3.63-4.41,2.32-1.26,4.68-2.44,7-3.59a9.35,9.35,0,0,0,5.46-7.67c.24-1.8-.17-2.36-2-2.36Z"/><path class="cls-4" d="M85.78,94.64a3.56,3.56,0,0,1-3,1.58c-1.71.14-3.43.23-5.15.24q-19.05.17-38.09.29c-.88,0-1.75.13-2.63.15-.7,0-1-.45-.58-1a5.45,5.45,0,0,1,1.63-1.25,2.63,2.63,0,0,1,1.13,0H85.78Z"/><path class="cls-4" d="M85.49,30.66a11.78,11.78,0,0,1-2.66,1,61.12,61.12,0,0,1-7.86.66c-5.73,0-11.47-.29-17.2-.35-6.23-.07-12.47,0-18.7,0-.46,0-.92,0-1.38.05-.72,0-1.53.22-1.62-.89s.73-1,1.46-1H84.12c.41,0,.81,0,1.22,0Z"/><path class="cls-4" d="M87.51,35.63c-.48.22-.94.48-1.43.66a2.66,2.66,0,0,1-.8,0H42.39c-.82,0-1.71.13-2.28-1H87.36Z"/><path class="cls-4" d="M87.23,92.69H40.41l-.11-.29a5.36,5.36,0,0,1,1.05-.62,3.14,3.14,0,0,1,1-.07q21.47,0,42.94,0a10.08,10.08,0,0,1,2,.46Z"/><path class="cls-5" d="M63.84,89c-5.55,0-11.1,0-16.65,0-1.53,0-2-.48-1.89-2,.19-2.55.33-5.11,1.52-7.47a13.67,13.67,0,0,1,7.38-6.56c1.59-.66,3.26-1.1,4.89-1.67a5.5,5.5,0,0,0,3.6-2.78,1.35,1.35,0,0,1,2.37-.16,3.86,3.86,0,0,1,.49.77,7.89,7.89,0,0,0,5.7,4.21A57.54,57.54,0,0,1,77.18,75a6.44,6.44,0,0,1,4.23,5.06c.46,2.4.68,4.84.92,7.28.11,1.13-.51,1.62-1.84,1.62-5.55,0-11.1,0-16.65,0Z"/><path class="cls-5" d="M63.89,46.26h15.6c1.87,0,2.28.56,2,2.36a9.35,9.35,0,0,1-5.46,7.67c-2.37,1.15-4.73,2.33-7,3.59-1.78,1-3.36,2.12-3.63,4.41-.1.86-.91,1-1.7,1s-1.42-.31-1.51-1.11a5.09,5.09,0,0,0-3-3.95c-1.89-1.07-3.86-2-5.8-3-.68-.35-1.34-.73-2-1.05-3.41-1.59-4.88-4.46-5.35-8-.16-1.21.46-1.88,1.82-1.88Z"/></g></svg>