<svg xmlns="http://www.w3.org/2000/svg" viewBox="0 0 120 120"><defs><style>.cls-1{fill:#fff;}</style></defs><title>hp_icone</title><g id="Calque_2_-_copie_2" data-name="Calque 2 - copie 2"><path class="cls-1" d="M89,31A40.66,40.66,0,0,0,60,19h0a40.9,40.9,0,0,0-37.6,24.71l-.66.22.25.77A40.94,40.94,0,0,0,60,101h0A41,41,0,0,0,89,31Zm1,41.77L84.71,62.32v-5A1.67,1.67,0,0,0,84,55.91L79.9,53.2A1.66,1.66,0,0,0,78.58,53L73.7,54.19l-8.12-3.48L64.47,43l3-3H74l2.22,3.33a1.64,1.64,0,0,0,1.1.71l8.14,1.36a1.64,1.64,0,0,0,.79-.07l7.25-2.41A37.57,37.57,0,0,1,91.86,80l-1.73-1.74V73.56A1.79,1.79,0,0,0,90,72.81ZM41,60.3h8.55l3.59,6a1.66,1.66,0,0,0,1.42.81H58l-.86,4.3-5.07,5.07a1.65,1.65,0,0,0-.48,1.17v3.24l-4.76,3.57a1.66,1.66,0,0,0-.67,1.32v4.49L45,89.85l-2.3-5.77V70.84a1.67,1.67,0,0,0-1.33-1.62l-6-1.2L33.2,63.67v-3L37.87,56l1.68,3.37A1.64,1.64,0,0,0,41,60.3Zm4.1-34.89,3.12,2.08a1.62,1.62,0,0,0,.65.26l6.22,1-.48,1.45-3.29,1.09a1.67,1.67,0,0,0-.89.72l-3.85,6.42-6.14,3.69-9.16,1.3a1.67,1.67,0,0,0-1.42,1.64v4.07a1.71,1.71,0,0,0,.48,1.17l2.23,2.22V54.2l-5.09-3.4-2-5.92A37.71,37.71,0,0,1,45.13,25.41ZM31.66,57.55l-1.29,1.28A1.65,1.65,0,0,0,29.89,60v4.07a1.74,1.74,0,0,0,.17.74l2.71,5.42a1.65,1.65,0,0,0,1.16.88l5.45,1.09V84.4a1.58,1.58,0,0,0,.12.61l2.71,6.78a1.63,1.63,0,0,0,1,.95l4.06,1.36a1.53,1.53,0,0,0,.52.08,1.65,1.65,0,0,0,1.65-1.65v-6L54.22,83a1.64,1.64,0,0,0,.67-1.32V78.31l4.93-4.94a1.73,1.73,0,0,0,.46-.85l1.35-6.77a1.65,1.65,0,0,0-1.3-2,1.73,1.73,0,0,0-.32,0H55.52l-3.58-6a1.67,1.67,0,0,0-1.42-.8H42.06l-2.25-4.51a1.66,1.66,0,0,0-1.21-.89,1.63,1.63,0,0,0-1.44.46L35.91,53.3V51.87a1.62,1.62,0,0,0-.49-1.17L33.2,48.47V46.52l8.07-1.15a1.5,1.5,0,0,0,.61-.22l6.78-4.06a1.73,1.73,0,0,0,.57-.57L53,34.27l3.48-1.17a1.63,1.63,0,0,0,1-1L58.87,28a1.67,1.67,0,0,0-.1-1.26,1.65,1.65,0,0,0-1-.83,1.14,1.14,0,0,0-.25-.06l-7.78-1.3L49,24a37.56,37.56,0,0,1,24.65.91l-1.81.9h-5a1.66,1.66,0,0,0-1.48.92l-2.71,5.42a1.66,1.66,0,0,0,.74,2.22l.21.09,4.07,1.35a1.52,1.52,0,0,0,.92,0l5-1.24,3.6,1.2a.83.83,0,0,0,.21.06l6.78,1.35A1.65,1.65,0,0,0,85.32,37l2.87-1.92A38.15,38.15,0,0,1,91.86,40L85.62,42l-7-1.17-2.31-3.47a1.67,1.67,0,0,0-1.37-.73H66.79a1.63,1.63,0,0,0-1.17.48l-4.07,4.07a1.66,1.66,0,0,0-.47,1.4l1.36,9.49a1.67,1.67,0,0,0,1,1.29l9.49,4.06a1.65,1.65,0,0,0,1,.09l4.71-1.18,2.72,1.81v4.54a1.6,1.6,0,0,0,.16.74l5.26,10.49v5a1.67,1.67,0,0,0,.48,1.17L90,82.8A37.65,37.65,0,0,1,23.73,49.92l.82,2.47a1.67,1.67,0,0,0,.65.85Zm52.4-23.71-6-1.19-4-1.33a1.59,1.59,0,0,0-.53-.08,1.41,1.41,0,0,0-.4.05l-5,1.23-1.8-.6,1.4-2.8h4.4A1.74,1.74,0,0,0,73,29l4.55-2.28a38.22,38.22,0,0,1,8.35,6Z"/></g></svg>