<svg xmlns="http://www.w3.org/2000/svg" viewBox="0 0 144 86"><defs><style>.cls-1{fill:#fff;}.cls-2{fill:#eb5c40;}.cls-3{fill:#fcc670;}</style></defs><title>nos_offres_immobilier</title><g id="Calque_116" data-name="Calque 116"><circle class="cls-1" cx="72" cy="43" r="42.99"/></g><g id="Nos_offres_4" data-name="Nos offres 4"><g id="bloc_1-2" data-name="bloc 1"><path class="cls-2" d="M69.14,47V59.57H63.26V25.74H76.21q5.67,0,9,3a10,10,0,0,1,3.34,7.82,9.61,9.61,0,0,1-3.27,7.75C83.11,46.1,80.06,47,76.14,47Zm0-4.75h7.07A7,7,0,0,0,81,40.81a5.43,5.43,0,0,0,1.65-4.27A5.86,5.86,0,0,0,81,32.16a6.44,6.44,0,0,0-4.6-1.68H69.14Z"/><path class="cls-3" d="M72,12.6A30.4,30.4,0,1,0,102.4,43,30.4,30.4,0,0,0,72,12.6ZM98.78,43a26.7,26.7,0,0,1-6.37,17.34L54.66,22.59A26.78,26.78,0,0,1,98.78,43ZM45.22,43a26.7,26.7,0,0,1,5.9-16.78L88.78,63.88A26.79,26.79,0,0,1,45.22,43Z"/></g></g></svg>