<svg xmlns="http://www.w3.org/2000/svg" viewBox="0 0 144 86"><defs><style>.cls-1{fill:#fff;}.cls-2{fill:#fcc670;}.cls-3{fill:#eb5c40;}</style></defs><title>nos_offres_immobilier</title><g id="Calque_116" data-name="Calque 116"><circle class="cls-1" cx="72" cy="43" r="42.99"/></g><g id="Nos_offres_4" data-name="Nos offres 4"><g id="bloc_1-2" data-name="bloc 1"><path class="cls-2" d="M108.11,73.45h-4.2A6,6,0,0,0,105,68.78a6.23,6.23,0,0,0-1-2.45,6.46,6.46,0,0,0,2.57-1.24,1.88,1.88,0,0,0,0-2.89L96.46,53.57a5.4,5.4,0,0,1-1.61-2.38l-2.35-7h0l-2.12-6.33a9.52,9.52,0,0,0-6.15-6l-7.31-2.29a7.73,7.73,0,0,0,3.28-6.32V18.09a7.72,7.72,0,0,0-15.44,0v5.07a7.71,7.71,0,0,0,3,6.12l-.57.17-7.41,2.32a9.52,9.52,0,0,0-6.15,6L49.15,51.19a5.4,5.4,0,0,1-1.61,2.38L37.45,62.2a1.88,1.88,0,0,0,0,2.89,6.45,6.45,0,0,0,2.7,1.27,6.71,6.71,0,0,0-.38,5.58,5.79,5.79,0,0,0,.83,1.51H35.89a1.09,1.09,0,1,0,0,2.18h72.22a1.09,1.09,0,0,0,0-2.18ZM83.31,48l3.85,9.58a1,1,0,0,0,.07.15A7.49,7.49,0,0,0,90,60.48l1.27.71-8-2.44ZM95,55.23l9.8,8.37a4.2,4.2,0,0,1-4.4.18l-9.34-5.2a5.49,5.49,0,0,1-2-1.87l-3.43-8.53L90.8,46l2,5.92A7.52,7.52,0,0,0,95,55.23ZM66.92,23.16V18.09a5.55,5.55,0,0,1,11.1,0v5.07a5.55,5.55,0,1,1-11.1,0ZM60.43,33.85l7.42-2.33a13.83,13.83,0,0,1,8.3,0l7.42,2.33A7.33,7.33,0,0,1,88.3,38.5l1.81,5.38L84.9,46.15,83.23,42a1.09,1.09,0,0,0-2.1.41V58.46H62.87V42.4a1.09,1.09,0,0,0-2.1-.41l-1.44,3.6L54.18,43,55.7,38.5a7.33,7.33,0,0,1,4.73-4.65ZM49,55.23a7.46,7.46,0,0,0,2.26-3.35l2.27-6.77,5,2.51-.79,2a1.09,1.09,0,0,0,2,.82L60.69,48V58.74l-7.85,2.37L54,60.48a7.49,7.49,0,0,0,2.81-2.72,1,1,0,0,0,.07-.15l.82-2a1.1,1.1,0,0,0-.61-1.42,1.09,1.09,0,0,0-1.41.61l-.78,1.94a5.49,5.49,0,0,1-2,1.87l-9.33,5.2a4.22,4.22,0,0,1-4.41-.18ZM45.22,73.45h0a3.41,3.41,0,0,1-3.35-2.28,4.57,4.57,0,0,1,1-4.8l19-5.73H82.05l18.09,5.53a3.88,3.88,0,0,1,1.26,6.77l-.66.51h-23a5.54,5.54,0,0,0-1.28-2.68l2.17-.12a1.09,1.09,0,1,0-.12-2.17l-5.91.32-.78-.11L55,66.94a1.09,1.09,0,1,0-.23,2.16l16.81,1.76a7,7,0,0,1,.72.1h0a3.73,3.73,0,0,1,3.21,2.48Zm0,0"/><path class="cls-2" d="M84.21,70.34h.06l7.35-.41a1.09,1.09,0,1,0-.12-2.17l-7.35.4a1.1,1.1,0,0,0-1,1.15,1.09,1.09,0,0,0,1.09,1Zm0,0"/><path class="cls-3" d="M103.91,73.45a6.09,6.09,0,0,0,0-7.12c-.49-1.07-6.38-3.23-12.62-5.14l-8-2.44-2.18-.29H62.87l-2.18.28s-4.2,1.14-7.85,2.37-11,3.44-12.64,5.25a6.63,6.63,0,0,0-.38,5.58,5.79,5.79,0,0,0,.83,1.51Zm-3.47-9.67M45.22,73.45h0a3.41,3.41,0,0,1-3.35-2.28,4.57,4.57,0,0,1,1-4.8l19-5.73H82.05l18.09,5.53a3.88,3.88,0,0,1,1.26,6.77l-.66.51h-23a5.54,5.54,0,0,0-1.28-2.68l2.17-.12a1.09,1.09,0,1,0-.12-2.17l-5.91.32-.78-.11L55,66.94a1.09,1.09,0,1,0-.23,2.16l16.81,1.76a7,7,0,0,1,.72.1h0a3.73,3.73,0,0,1,3.21,2.48Zm0,0"/><path class="cls-3" d="M84.21,70.34h.06l7.35-.41a1.09,1.09,0,1,0-.12-2.17l-7.35.4a1.1,1.1,0,0,0-1,1.15,1.09,1.09,0,0,0,1.09,1Zm0,0"/></g></g></svg>