<svg xmlns="http://www.w3.org/2000/svg" viewBox="0 0 144 86"><defs><style>.cls-1{fill:#fff;}.cls-2{fill:#469fb7;}.cls-3{fill:#312783;}</style></defs><title>nos_offres_restauration</title><g id="Nos_offres_1" data-name="Nos offres 1"><g id="bloc_2-5" data-name="bloc 2"><circle class="cls-1" cx="72" cy="43" r="42.99"/><path class="cls-2" d="M57.62,36.08a9.08,9.08,0,0,0,9.08,1.84L90.44,68.3a3.64,3.64,0,0,0,5.11.63,3.65,3.65,0,0,0,1.38-2.43,3.46,3.46,0,0,0-.48-2.32L72.3,33.27a10.08,10.08,0,0,0-2.53-10.64,9.08,9.08,0,0,0-8.85-1.9l5.37,4.85a1.79,1.79,0,0,1,.13,2.54l-3.67,4.09a1.82,1.82,0,0,1-2.54.13l-5.37-4.86A9,9,0,0,0,57.62,36.08Z"/><path class="cls-2" d="M92,66.83a1.54,1.54,0,0,0,2.17.27h0a1.55,1.55,0,0,0,.27-2.17L74.48,39.44a1.56,1.56,0,0,0-2.18-.27h0A1.54,1.54,0,0,0,72,41.34Z"/><path class="cls-3" d="M101.13,42.63l-2.4-2.39-3.27.87-.87,3.28L97,46.78l3.27-.88Zm-4.52,2.13a1.77,1.77,0,1,1,2.5,0A1.77,1.77,0,0,1,96.61,44.76Z"/><path class="cls-3" d="M49.41,60.52,47,58.13,43.75,59l-.88,3.27,2.4,2.39,3.27-.88ZM44.9,62.65a1.77,1.77,0,1,1,2.5,0A1.78,1.78,0,0,1,44.9,62.65Z"/><path class="cls-3" d="M97.86,20,94.19,16.3l-5,1.34-1.34,5,3.67,3.67,5-1.34Zm-6.93,3.27a2.72,2.72,0,1,1,3.84-3.84,2.72,2.72,0,0,1-3.84,3.84Z"/></g></g></svg>