<svg xmlns="http://www.w3.org/2000/svg" viewBox="0 0 144 86"><defs><style>.cls-1{isolation:isolate;}.cls-2{fill:#fff;}.cls-3{fill:#6da9ad;}.cls-4,.cls-7{fill:#2d8287;}.cls-5{fill:#84cbcf;}.cls-6{fill:#5babb0;}.cls-7{opacity:0.65;mix-blend-mode:multiply;}.cls-8{fill:#a0e7eb;}.cls-9{fill:#46b594;}.cls-10{fill:#31846a;}.cls-11{fill:#a9df90;}.cls-12{fill:#72cc72;}</style></defs><title>nos_offres_foodtech</title><g class="cls-1"><g id="Calque_116" data-name="Calque 116"><circle class="cls-2" cx="72" cy="43" r="42.99"/></g><g id="Nos_offres_3" data-name="Nos offres 3"><g id="bloc_1-3" data-name="bloc 1"><path class="cls-3" d="M96.39,42.41c-1.22-.08-2.67.76-4.11,1.67-4.53,2.87-8,9.15-13.82,9.09-2.65,0-6.89-1.87-11.21-3.48l-.46,4.53A57.19,57.19,0,0,1,73,56a81.45,81.45,0,0,0,10.83,3c2.91-1.83,7.1-5.76,13.62-13C98.46,44.94,97.84,42.49,96.39,42.41Z"/><path class="cls-4" d="M77.18,54.6a78.39,78.39,0,0,0,10.82,3c2.91-1.82,7.1-5.76,13.63-13,1-1.08.34-3.52-1.1-3.61-1.23-.07-2.68.77-4.11,1.68-4.54,2.86-8,9.14-13.83,9.09s-19.32-8.93-24.51-4.69L58,47l-.37,3.72C64.28,51.42,70.87,52.34,77.18,54.6Z"/><path class="cls-5" d="M82.21,53.54a81.45,81.45,0,0,0,10.83,3c2.91-1.83,7.34-5.48,13.87-12.74a1.75,1.75,0,0,0-1.17-2.91,9.81,9.81,0,0,0-4.29.7c-4,1.61-8,9.14-13.82,9.09S68.31,41.74,63.12,46l0-.06-.38,3.72C69.31,50.35,75.91,51.28,82.21,53.54Z"/><path class="cls-6" d="M31.88,58.23A12.78,12.78,0,0,0,43.47,69.34S52.9,59.21,55,58.34c5.74-2.38,14.79.67,17.26.86,4,.32,13,.5,17.6,1.29a2.07,2.07,0,0,0,1.61-.4,86.59,86.59,0,0,1,8.45-6c2.42-1.45,4.46-4.52,7.43-7.82a1.75,1.75,0,0,0-1.17-2.91,9.83,9.83,0,0,0-4.29.7c-4,1.61-8,9.14-13.82,9.09S68.75,44.25,63.56,48.5c0,0-6.21-7.72-11.62-4.45S40.17,53.66,31.88,58.23Z"/><path class="cls-7" d="M72.3,48.17,65,43.78c-13-4.48-11.81,1.22-13.67,2.37l8.75,5s6.46-2.89,23.11,1C83.23,52.07,72.76,48.21,72.3,48.17Z"/><path class="cls-6" d="M88.55,46.84a.71.71,0,0,0-.55-1c-3.59-.32-17.14-1.69-25.11-4.44C49.91,37,50.85,44.87,49,46l11.12,5.09s1.74-5.44,20.26-.09C80.38,51,87.34,51.63,88.55,46.84Z"/><path class="cls-8" d="M83.19,45.6s-2.22,1-1,2.28c.61.68,1.67,1.11,3.61.72a2.78,2.78,0,0,0,2.33-1.94.53.53,0,0,0-.47-.62Z"/><path class="cls-8" d="M106.61,44.61c-1.31-.18-3.59.66-3.53,3.79,0,.73,1.06,1,1.79.47s1.47-1.43,2.35-2.33A1.1,1.1,0,0,0,106.61,44.61Z"/><path class="cls-9" d="M104.82,23.38a33.83,33.83,0,0,0-6.55,5.7c-4.5,5.34-10.41,9.17-14.45,9.69-5.57.72-12.94-1.7-21-11.47a61.22,61.22,0,0,0,10.45-6.61C86.28,10,92.48,24.27,104.82,23.38Z"/><path class="cls-10" d="M104.82,23.38a33.83,33.83,0,0,0-6.55,5.7c-4.5,5.34-10.41,9.17-14.45,9.69-5.57.72-12.94-1.7-21-11.47C62.81,27.3,71.11,33.68,104.82,23.38Z"/><path class="cls-11" d="M78.33,30c6.5.06,13.12-1.13,17.94-5.05,0,0-6.06,3.4-16.81,3.72,2.46-3.6,11.1-4.87,11.1-4.87-.41,0-9.84.72-12.21,4.89a58,58,0,0,1-6.64-.33c1.46-4,9.49-6.86,9.49-6.86-.38.1-9,2.44-10.48,6.76a70.58,70.58,0,0,1-15-3.6s-1.72.57-.08,1.13A80.25,80.25,0,0,0,68.4,29.08c4.09,7.14,12.76,7.55,12.85,7.56s-7.73-1-11.66-7.36A63.51,63.51,0,0,0,77,30c6.08,4.8,12,3.64,12.3,3.58A18,18,0,0,1,78.33,30Z"/><path class="cls-12" d="M78.33,30a33.4,33.4,0,0,0,13.12-2.2c-7.77,3.31-23,1.25-23,1.25,4.09,7.14,12.76,7.55,12.85,7.56s-7.73-1-11.66-7.36A63.51,63.51,0,0,0,77,30c6.08,4.8,12,3.64,12.3,3.58A18,18,0,0,1,78.33,30Z"/></g></g></g></svg>