<svg xmlns="http://www.w3.org/2000/svg" viewBox="0 0 144 86"><defs><style>.cls-1{fill:#fff;}.cls-2{fill:#79c0d4;}.cls-3{fill:#469fb7;}.cls-4{fill:#2a7185;}.cls-5{fill:#badce6;opacity:0.46;}.cls-6{fill:#392d87;}</style></defs><title>nos_offres_restauration</title><g id="Nos_offres_1" data-name="Nos offres 1"><g id="bloc_1-5" data-name="bloc 1"><circle class="cls-1" cx="72" cy="43" r="42.99"/><path class="cls-2" d="M143.84,62.66a16,16,0,0,1-9.51-1.28c-.37-.16-.75-.33-1.12-.53-4-2-7.44-3.12-11.31-1.89a17.55,17.55,0,0,0-5.94,3.5,10.14,10.14,0,0,1-4.43,2.2c-5.5,1.18-11.72-2.14-19.82-1.22-3,.34-7.49,3.23-9.93,2.24,2.7-10.76-12.27-28.94-7.71-32.94,0,0,.75-.31,2.09-.72l.27-.08a53,53,0,0,1,5.28-1.28,49.45,49.45,0,0,1,12.91-.72,37.59,37.59,0,0,1,20.49,7.81c18.21,14.26,10.76,8.74,16.76,15.43l.95,1a45.78,45.78,0,0,0,8.91,7.29A23.31,23.31,0,0,0,143.84,62.66Z"/><path class="cls-3" d="M134.33,61.38c-.37-.16-.75-.33-1.12-.53-4-2-7.44-3.12-11.31-1.89a17.55,17.55,0,0,0-5.94,3.5,10.14,10.14,0,0,1-4.43,2.2c-5.5,1.18-11.72-2.14-19.82-1.22-3,.34-11.19,4.59-9.85,1.35,5.61-13.57-11.68-29.43-5.34-31.43l.24,0,.08,0,.24,0c4.91-.63,12.35-.59,22.52,2.45C111.58,39.28,125.92,50.32,134.33,61.38Z"/><path class="cls-4" d="M111.53,64.66c-5.5,1.18-11.72-2.14-19.82-1.22-3,.34-11,4.55-9.85,1.35a21.41,21.41,0,0,0-1.44-16.64c-6.83-12.07,4.75-7.27,10-2.62C94.37,49.08,103.32,59.34,111.53,64.66Z"/><path class="cls-5" d="M132.82,54.2c-2.48-1.72-5.47-3.9-9.38-6.75-14.52-10.55-24.48-16-30-16.07-4.58,0-6.17-.3-6.42-.6a51.26,51.26,0,0,1,7.57-.84,37.59,37.59,0,0,1,20.49,7.81c18.21,14.26,10.76,8.74,16.76,15.43Z"/><path class="cls-6" d="M77.76,55.9A16.26,16.26,0,1,1,94,72.16,16.29,16.29,0,0,1,77.76,55.9Zm2.58,0A13.68,13.68,0,1,0,94,42.21,13.69,13.69,0,0,0,80.34,55.9Z"/><path class="cls-6" d="M24.13,55.9A16.26,16.26,0,1,1,40.38,72.16,16.28,16.28,0,0,1,24.13,55.9Zm2.57,0A13.69,13.69,0,1,0,40.38,42.21,13.69,13.69,0,0,0,26.7,55.9Z"/><circle class="cls-6" cx="94.02" cy="55.9" r="3.21"/><path class="cls-6" d="M94,54a1.93,1.93,0,1,1-1.93,1.93A1.94,1.94,0,0,1,94,54m0-1.29a3.22,3.22,0,1,0,3.21,3.22A3.21,3.21,0,0,0,94,52.68Z"/><circle class="cls-6" cx="40.38" cy="55.9" r="3.21"/><path class="cls-6" d="M40.38,54a1.93,1.93,0,1,1-1.92,1.93A1.93,1.93,0,0,1,40.38,54m0-1.29A3.22,3.22,0,1,0,43.6,55.9a3.22,3.22,0,0,0-3.22-3.22Z"/><path class="cls-6" d="M65.23,56.66,48.56,33.86a1.28,1.28,0,0,1,1-2h26a1.27,1.27,0,0,1,1,.48L94.91,55.09a1.29,1.29,0,0,1-1,2.1H66.27A1.29,1.29,0,0,1,65.23,56.66ZM75,34.39H52.13L66.92,54.61H91.23Z"/><rect class="cls-6" x="57.06" y="40.89" width="29.65" height="2.57" transform="translate(5.62 92.73) rotate(-67.74)"/><circle class="cls-6" cx="66.27" cy="55.9" r="3.86"/><path class="cls-6" d="M61.77,55.9a4.5,4.5,0,1,1,4.5,4.5A4.5,4.5,0,0,1,61.77,55.9Zm1.28,0a3.22,3.22,0,1,0,3.22-3.22A3.22,3.22,0,0,0,63.05,55.9Z"/><path class="cls-6" d="M73.44,26.82h7.67v3.27l-7.83-2A.64.64,0,0,1,73.44,26.82Z"/><path class="cls-6" d="M80.79,31.33l-7.83-2a1.92,1.92,0,0,1,.48-3.79h7.67a1.28,1.28,0,0,1,1.29,1.28v3.27a1.29,1.29,0,0,1-.5,1,1.28,1.28,0,0,1-.79.27A1.17,1.17,0,0,1,80.79,31.33Zm-2.23-3.22,1.26.32v-.32Zm-5.13,0h0Z"/><line class="cls-6" x1="66.27" y1="55.9" x2="66.27" y2="63.53"/><path class="cls-6" d="M66.27,64.18a.65.65,0,0,0,.64-.65V55.9a.65.65,0,0,0-1.29,0v7.63A.65.65,0,0,0,66.27,64.18Z"/><path class="cls-6" d="M66.27,64.82H70a1.29,1.29,0,0,0,0-2.57H66.27a1.29,1.29,0,1,0,0,2.57Z"/><circle class="cls-6" cx="94.02" cy="55.9" r="1.29"/><path class="cls-6" d="M40.38,57.19a1.3,1.3,0,0,0,1.2-.81l12-29.73a1.31,1.31,0,0,0-.12-1.2,1.28,1.28,0,0,0-1.07-.57H50.06a2,2,0,0,1,0-3.92h2.3a1.29,1.29,0,0,0,0-2.58h-2.3a4.54,4.54,0,0,0,0,9.07h.42l-11.28,28a1.29,1.29,0,0,0,.71,1.67A1.18,1.18,0,0,0,40.38,57.19Z"/><circle class="cls-6" cx="40.38" cy="55.9" r="1.29"/><path class="cls-6" d="M52.37,21.59H59a1.93,1.93,0,0,0,0-3.86h-6.6a1.93,1.93,0,0,0,0,3.86Z"/><path class="cls-3" d="M87.87,28.77c-.78,1.23-1.41,2.16-1.41,2.16s-2.1.76-3.42,1.15S75.2,33.4,75.2,33.4a88.75,88.75,0,0,1,5.26-8,6.49,6.49,0,0,1,3.62-1.56h0c2.69-.52,5.88-.53,6.63-.72S89.38,26.37,87.87,28.77Z"/><path class="cls-3" d="M73.81,33.4l-1.47-.28-3.09-.6s-8.37-3.91-7.91-4.89c.34-.76,2.12-3.26,4-3.56a2.25,2.25,0,0,1,1.82.51,34.24,34.24,0,0,1,4.94,6.2h0c.43.65.81,1.23,1.1,1.69S73.81,33.4,73.81,33.4Z"/><path class="cls-4" d="M73.44,32a2,2,0,0,1-.22.44,1.78,1.78,0,0,1-.88.65l-3.09-.6s-8.37-3.91-7.91-4.89c.34-.76,2.12-3.26,4-3.56a3.76,3.76,0,0,0-1.26,2.47c.12,1.29,5.91,4.23,8,4.24h0a1.53,1.53,0,0,0,.46-.07S73.8,30.93,73.44,32Z"/><path class="cls-3" d="M73.84,33.25a26.23,26.23,0,0,1-5.53,1.37,3.74,3.74,0,0,1-1,.06c-.61-.15-1.07-.76-.39-2.35.32-.73,4.68-.65,6.33-.5a1.91,1.91,0,0,1,.63.11A1.23,1.23,0,0,1,73.84,33.25Z"/><path class="cls-4" d="M73.28,31.83a3.83,3.83,0,0,1-.29.58c-3.43,1-4.32,1.06-4.62,1.65a1.06,1.06,0,0,0-.06.56,3.74,3.74,0,0,1-1,.06c-.61-.15-1.07-.76-.39-2.35C67.27,31.6,71.63,31.68,73.28,31.83Z"/><path class="cls-3" d="M79,39.66c-.84-.13-3.08-3.74-4.3-6a9.4,9.4,0,0,1-.82-1.82c0-.7.39-1.61.88-1.21,0,0,6.07,4.82,6.68,6.38a.35.35,0,0,1,0,.11A2.36,2.36,0,0,1,79,39.66Z"/><path class="cls-4" d="M79,39.66c-.84-.13-3.08-3.74-4.3-6,0-.4,0-.69.18-.78.55-.37,1.85.57,1.85.57,1.51,2.3,1.33,4.37,3,4A14.07,14.07,0,0,0,81.46,37a.35.35,0,0,1,0,.11A2.36,2.36,0,0,1,79,39.66Z"/><path class="cls-4" d="M87.87,28.77c-.78,1.23-1.41,2.16-1.41,2.16s-2.1.76-3.42,1.15S75.2,33.4,75.2,33.4a88.75,88.75,0,0,1,5.26-8,6.49,6.49,0,0,1,3.62-1.56c-2.91,3.94-4.1,6.65-.12,5.66A22,22,0,0,1,87.87,28.77Z"/><path class="cls-3" d="M75.93,34.24c-1.3.19-3.34-.46-3.8-1.11-.26-.36-.09-1.32.11-2.1s.35-1.15.35-1.15a24.75,24.75,0,0,1,3.4,0l.3,0a.72.72,0,0,1,.46.39C77.33,31.31,77,34.09,75.93,34.24Z"/><path class="cls-4" d="M75.93,34.24c-1.3.19-3.34-.46-3.8-1.11-.26-.36-.09-1.32.11-2.1a3.44,3.44,0,0,0,.9,1.25c.93.71,2.62,0,2.85-2.44l.3,0a.72.72,0,0,1,.46.39C77.33,31.31,77,34.09,75.93,34.24Z"/></g></g></svg>