<svg xmlns="http://www.w3.org/2000/svg" viewBox="0 0 144 86"><defs><style>.cls-1{fill:#fff;}.cls-2{fill:#a9df90;}.cls-3{fill:#5da884;}.cls-4{fill:#448074;}.cls-5{fill:#deebd8;opacity:0.46;}.cls-6{fill:#216868;}</style></defs><title>nos_offres_foodtech</title><g id="Calque_116" data-name="Calque 116"><circle class="cls-1" cx="72" cy="43" r="42.99"/></g><g id="Nos_offres_3" data-name="Nos offres 3"><g id="bloc_1-3" data-name="bloc 1"><path class="cls-2" d="M144,60.72a15.94,15.94,0,0,1-9.5-1.28c-.38-.16-.75-.34-1.13-.53-4-2-7.44-3.12-11.31-1.89a17.67,17.67,0,0,0-5.94,3.49,10.06,10.06,0,0,1-4.43,2.21c-5.5,1.18-11.72-2.14-19.82-1.22-3,.33-7.48,3.23-9.93,2.23C84.64,53,69.67,34.79,74.23,30.8c0,0,.76-.31,2.09-.72l.27-.09a51.35,51.35,0,0,1,5.28-1.27A49.44,49.44,0,0,1,94.78,28a37.61,37.61,0,0,1,20.49,7.82C133.48,50.06,126,44.54,132,51.23c.32.36.64.7,1,1a44.69,44.69,0,0,0,8.91,7.28C143.2,60.34,144,60.72,144,60.72Z"/><path class="cls-3" d="M134.5,59.44c-.38-.16-.75-.34-1.13-.53-4-2-7.44-3.12-11.31-1.89a17.67,17.67,0,0,0-5.94,3.49,10.06,10.06,0,0,1-4.43,2.21c-5.5,1.18-11.72-2.14-19.82-1.22-3,.33-11.19,4.58-9.85,1.34,5.61-13.56-11.68-29.43-5.33-31.42a.86.86,0,0,1,.23-.05l.09,0,.23,0c4.92-.63,12.35-.6,22.52,2.44C111.74,37.33,126.08,48.38,134.5,59.44Z"/><path class="cls-4" d="M111.69,62.72c-5.5,1.18-11.72-2.14-19.82-1.22-3,.33-11,4.54-9.85,1.34a21.34,21.34,0,0,0-1.44-16.63c-6.83-12.07,4.75-7.27,10-2.63C94.54,47.14,103.49,57.39,111.69,62.72Z"/><path class="cls-5" d="M133,52.26c-2.49-1.72-5.48-3.9-9.39-6.75-14.51-10.55-24.48-16-30-16.07-4.59,0-6.18-.3-6.42-.6A51,51,0,0,1,94.78,28a37.61,37.61,0,0,1,20.49,7.82C133.48,50.06,126,44.54,132,51.23,132.35,51.59,132.67,51.93,133,52.26Z"/><path class="cls-6" d="M77.93,54A16.26,16.26,0,1,1,94.18,70.21,16.27,16.27,0,0,1,77.93,54Zm2.57,0A13.69,13.69,0,1,0,94.18,40.27,13.7,13.7,0,0,0,80.5,54Z"/><path class="cls-6" d="M24.29,54A16.26,16.26,0,1,1,40.55,70.21,16.27,16.27,0,0,1,24.29,54Zm2.57,0A13.69,13.69,0,1,0,40.55,40.27,13.7,13.7,0,0,0,26.86,54Z"/><circle class="cls-6" cx="94.18" cy="53.96" r="3.21"/><path class="cls-6" d="M94.18,52A1.93,1.93,0,1,1,92.25,54,1.92,1.92,0,0,1,94.18,52m0-1.29A3.22,3.22,0,1,0,97.4,54a3.22,3.22,0,0,0-3.22-3.22Z"/><circle class="cls-6" cx="40.55" cy="53.96" r="3.21"/><path class="cls-6" d="M40.55,52A1.93,1.93,0,1,1,38.62,54,1.93,1.93,0,0,1,40.55,52m0-1.29A3.22,3.22,0,1,0,43.76,54a3.22,3.22,0,0,0-3.21-3.22Z"/><path class="cls-6" d="M65.39,54.72,48.72,31.92a1.28,1.28,0,0,1,1-2h26a1.26,1.26,0,0,1,1,.48L95.08,53.15a1.29,1.29,0,0,1-1,2.09H66.43A1.28,1.28,0,0,1,65.39,54.72Zm9.75-22.27H52.29L67.08,52.67H91.39Z"/><rect class="cls-6" x="57.22" y="38.95" width="29.65" height="2.57" transform="translate(7.52 91.67) rotate(-67.74)"/><circle class="cls-6" cx="66.43" cy="53.96" r="3.86"/><path class="cls-6" d="M61.93,54a4.5,4.5,0,1,1,4.5,4.5A4.51,4.51,0,0,1,61.93,54Zm1.28,0a3.22,3.22,0,1,0,3.22-3.22A3.22,3.22,0,0,0,63.21,54Z"/><path class="cls-6" d="M73.6,24.88h7.67v3.26l-7.83-2A.65.65,0,0,1,73.6,24.88Z"/><path class="cls-6" d="M81,29.39l-7.83-2a1.93,1.93,0,0,1,.48-3.8h7.67a1.29,1.29,0,0,1,1.29,1.29v3.26a1.3,1.3,0,0,1-.5,1,1.28,1.28,0,0,1-.79.27A1.22,1.22,0,0,1,81,29.39Zm-2.23-3.22,1.27.32v-.32Zm-5.13,0h0Z"/><line class="cls-6" x1="66.43" y1="53.96" x2="66.43" y2="61.59"/><path class="cls-6" d="M66.43,62.23a.64.64,0,0,0,.64-.64V54a.65.65,0,1,0-1.29,0v7.63A.64.64,0,0,0,66.43,62.23Z"/><path class="cls-6" d="M66.43,62.88h3.71a1.29,1.29,0,0,0,0-2.57H66.43a1.29,1.29,0,1,0,0,2.57Z"/><circle class="cls-6" cx="94.18" cy="53.96" r="1.29"/><path class="cls-6" d="M40.55,55.24a1.28,1.28,0,0,0,1.19-.8l12-29.74a1.27,1.27,0,0,0-1.18-1.76H50.23a2,2,0,0,1,0-3.93h2.29a1.29,1.29,0,1,0,0-2.57H50.24a4.54,4.54,0,0,0,0,9.07h.41l-11.28,28a1.29,1.29,0,0,0,.72,1.67A1.32,1.32,0,0,0,40.55,55.24Z"/><circle class="cls-6" cx="40.55" cy="53.96" r="1.29"/><path class="cls-6" d="M52.53,19.64h6.6a1.93,1.93,0,1,0,0-3.85h-6.6a1.93,1.93,0,1,0,0,3.85Z"/><path class="cls-3" d="M88,26.82C87.25,28.05,86.62,29,86.62,29s-2.1.76-3.42,1.14-7.83,1.33-7.83,1.33a89.18,89.18,0,0,1,5.25-8,6.56,6.56,0,0,1,3.62-1.56h0c2.69-.52,5.88-.53,6.63-.72S89.55,24.43,88,26.82Z"/><path class="cls-3" d="M74,31.46l-1.48-.28-3.09-.6S61,26.67,61.5,25.68c.34-.75,2.12-3.25,4-3.55a2.2,2.2,0,0,1,1.81.51,34.15,34.15,0,0,1,5,6.19h0c.44.66.82,1.24,1.1,1.69S74,31.46,74,31.46Z"/><path class="cls-4" d="M73.6,30.09a1.59,1.59,0,0,1-.22.43,1.73,1.73,0,0,1-.88.66l-3.09-.6S61,26.67,61.5,25.68c.34-.75,2.12-3.25,4-3.55a3.65,3.65,0,0,0-1.26,2.46c.11,1.3,5.9,4.24,8,4.24h0a1.51,1.51,0,0,0,.46-.06S74,29,73.6,30.09Z"/><path class="cls-3" d="M74,31.3a25.61,25.61,0,0,1-5.53,1.37,3.91,3.91,0,0,1-1,.07c-.61-.15-1.07-.76-.38-2.35.31-.73,4.67-.65,6.33-.51a2.25,2.25,0,0,1,.62.11A1.19,1.19,0,0,1,74,31.3Z"/><path class="cls-4" d="M73.45,29.88a4.25,4.25,0,0,1-.3.59c-3.43,1-4.31,1.06-4.62,1.65a1,1,0,0,0-.06.55,3.91,3.91,0,0,1-1,.07c-.61-.15-1.07-.76-.38-2.35C67.43,29.66,71.79,29.74,73.45,29.88Z"/><path class="cls-3" d="M79.18,37.72c-.84-.13-3.07-3.75-4.29-6a8.43,8.43,0,0,1-.82-1.82c0-.71.39-1.61.87-1.21,0,0,6.07,4.81,6.68,6.37,0,0,0,.08,0,.12A2.38,2.38,0,0,1,79.18,37.72Z"/><path class="cls-4" d="M79.18,37.72c-.84-.13-3.07-3.75-4.29-6,0-.41,0-.7.17-.79.55-.36,1.85.58,1.85.58,1.51,2.29,1.33,4.37,3,4A11.76,11.76,0,0,0,81.62,35s0,.08,0,.12A2.38,2.38,0,0,1,79.18,37.72Z"/><path class="cls-4" d="M88,26.82C87.25,28.05,86.62,29,86.62,29s-2.1.76-3.42,1.14-7.83,1.33-7.83,1.33a89.18,89.18,0,0,1,5.25-8,6.56,6.56,0,0,1,3.62-1.56c-2.9,3.95-4.1,6.66-.11,5.66A23.79,23.79,0,0,1,88,26.82Z"/><path class="cls-3" d="M76.09,32.3c-1.3.18-3.34-.47-3.8-1.12-.26-.35-.09-1.31.12-2.09a11.54,11.54,0,0,1,.34-1.15,24.75,24.75,0,0,1,3.4,0l.31,0a.73.73,0,0,1,.45.39C77.49,29.37,77.18,32.15,76.09,32.3Z"/><path class="cls-4" d="M76.09,32.3c-1.3.18-3.34-.47-3.8-1.12-.26-.35-.09-1.31.12-2.09a3.3,3.3,0,0,0,.89,1.25c.94.71,2.62,0,2.85-2.44l.31,0a.73.73,0,0,1,.45.39C77.49,29.37,77.18,32.15,76.09,32.3Z"/></g></g></svg>