<svg xmlns="http://www.w3.org/2000/svg" xmlns:xlink="http://www.w3.org/1999/xlink" viewBox="0 0 660 280"><defs><style>.cls-1,.cls-17,.cls-21,.cls-22,.cls-23,.cls-24,.cls-26,.cls-32,.cls-33,.cls-34,.cls-38{fill:none;}.cls-2{isolation:isolate;}.cls-3{clip-path:url(#clip-path);}.cls-4{fill:#e8edff;}.cls-5{clip-path:url(#clip-path-2);}.cls-6{fill:#bedded;}.cls-7{fill:url(#linear-gradient);}.cls-8{fill:url(#linear-gradient-2);}.cls-9{fill:url(#linear-gradient-3);}.cls-10{fill:#c5e6ee;}.cls-11{fill:#54619e;}.cls-12{fill:#46b594;}.cls-13{fill:#494949;opacity:0.2;mix-blend-mode:darken;}.cls-14{fill:#392d87;}.cls-15{fill:#2f9fa8;}.cls-16{fill:#fff;}.cls-17,.cls-24{stroke:#2f2f30;stroke-width:1.85px;}.cls-17,.cls-22,.cls-25,.cls-32,.cls-33,.cls-38,.cls-39{stroke-linecap:round;}.cls-17,.cls-19,.cls-21,.cls-22,.cls-23,.cls-24,.cls-25,.cls-26,.cls-32,.cls-33,.cls-34,.cls-38,.cls-39{stroke-miterlimit:10;}.cls-18{fill:#eb5c40;}.cls-19,.cls-27{fill:#a7dbf2;}.cls-19,.cls-22,.cls-25,.cls-26,.cls-33,.cls-39{stroke:#1d1d1b;}.cls-19,.cls-32,.cls-33,.cls-34{stroke-width:0.62px;}.cls-20{fill:#2b2b2a;}.cls-21{stroke:#b2b2b2;stroke-width:1.75px;}.cls-22{stroke-width:6.16px;}.cls-23{stroke:#9d9d9c;stroke-width:1.23px;}.cls-25{fill:#2f2f30;stroke-width:0.69px;}.cls-26{stroke-width:0.92px;}.cls-28{fill:#1d1d1b;}.cls-29{fill:#312783;}.cls-30{fill:#3c3c3b;}.cls-31{fill:#683c11;}.cls-32{stroke:#706f6f;}.cls-34{stroke:#fff;}.cls-35{fill:#fbbc43;}.cls-36{fill:#ffde00;}.cls-37,.cls-39{fill:#f9cee3;}.cls-38{stroke:#eb5c40;}.cls-38,.cls-39{stroke-width:0.57px;}.cls-40{fill:#252d42;}.cls-41{fill:#000922;}.cls-42{fill:#c64534;}</style><clipPath id="clip-path"><rect class="cls-1" x="-0.29" y="-0.65" width="660.38" height="433.16"/></clipPath><clipPath id="clip-path-2"><path class="cls-1" d="M-31.44,200.12c70.16,31,123.13,63.24,236.64,63.24s152-50.67,237.32-49.73,226.32,65.12,226.32,65.12V-23.44L-31.44-9Z"/></clipPath><linearGradient id="linear-gradient" x1="523.39" y1="177.57" x2="619.04" y2="177.57" gradientTransform="translate(1144.3 355.15) rotate(-180)" gradientUnits="userSpaceOnUse"><stop offset="0" stop-color="#a3cce3"/><stop offset="1" stop-color="#a3cce3"/></linearGradient><linearGradient id="linear-gradient-2" x1="375.24" y1="192.05" x2="441.93" y2="192.05" gradientTransform="translate(819.05 384.1) rotate(-180)" xlink:href="#linear-gradient"/><linearGradient id="linear-gradient-3" x1="425.32" y1="121.35" x2="525.03" y2="121.35" gradientTransform="translate(1.88)" xlink:href="#linear-gradient"/></defs><title>nos_offres</title><g class="cls-2"><g id="Nos_offres_1" data-name="Nos offres 1"><g id="video-5" data-name="video"><g class="cls-3"><path class="cls-4" d="M-31.44,200.12c70.16,31,123.13,63.24,236.64,63.24s152-50.67,237.32-49.73,226.32,65.12,226.32,65.12V-23.44L-31.44-9Z"/><g class="cls-5"><polygon class="cls-6" points="48.12 311.98 -28.13 311.98 -28.13 -63.06 48.12 -22.36 48.12 311.98"/><rect class="cls-6" x="41.28" y="55.85" width="81.14" height="256.13" transform="translate(163.69 367.84) rotate(-180)"/><rect class="cls-6" x="114.6" y="167.3" width="37.15" height="144.68" transform="translate(266.34 479.28) rotate(-180)"/><rect class="cls-6" x="145.88" y="93.98" width="46.92" height="218" transform="translate(338.68 405.96) rotate(-180)"/><polygon class="cls-6" points="291.54 311.98 191.83 311.98 191.83 57.81 241.59 25.9 291.54 57.81 291.54 311.98"/><rect class="cls-6" x="483.34" y="167.3" width="37.15" height="144.68" transform="translate(1003.84 479.28) rotate(-180)"/><rect class="cls-6" x="514.63" y="93.98" width="46.92" height="218" transform="translate(1076.18 405.96) rotate(-180)"/><polygon class="cls-6" points="660.29 311.98 560.57 311.98 560.57 57.81 610.34 25.9 660.29 57.81 660.29 311.98"/><rect class="cls-6" x="281.77" y="133.08" width="103.63" height="178.9" transform="translate(667.16 445.07) rotate(-180)"/><rect class="cls-6" x="375.61" y="15.77" width="66.48" height="296.21" transform="translate(817.71 327.75) rotate(-180)"/><rect class="cls-6" x="435.25" y="106.69" width="55.72" height="205.3" transform="translate(926.22 418.67) rotate(-180)"/><rect class="cls-7" x="525.27" y="129.75" width="95.65" height="95.65" transform="translate(1146.19 355.15) rotate(180)"/><rect class="cls-8" x="377.12" y="158.7" width="66.7" height="66.7" transform="translate(820.93 384.1) rotate(180)"/><polygon class="cls-9" points="526.91 225.4 427.2 225.4 427.2 49.21 476.96 17.3 526.91 49.21 526.91 225.4"/><rect class="cls-10" x="461.67" y="64.7" width="11.12" height="29.94"/><rect class="cls-10" x="489.47" y="64.7" width="11.12" height="29.94"/><rect class="cls-10" x="461.67" y="121.58" width="11.12" height="29.94"/><rect class="cls-10" x="489.47" y="121.58" width="11.12" height="29.94"/><rect class="cls-11" x="378.55" y="225.58" width="345.32" height="74.29"/><path class="cls-11" d="M356.23,231.7H836.72c-36-18.75-117.13-44.91-240.24-44.91S387.7,210.23,356.23,231.7Z"/><path class="cls-12" d="M569.71,22c38.16,38.16,43,81.09,38.79,102.2-4.48,22.38-30.59,38-57.44,36.55-23.84-1.32-50.73-13.43-48.49-52.22S525,35.46,538.38,22C551.15,9.26,557.77,10.1,569.71,22Z"/><path class="cls-13" d="M579.81,33.15c28.9,35.1,32.5,72,28.69,91.08-4.48,22.38-30.59,38-57.44,36.55-21.95-1.22-46.47-11.6-48.47-43.52C551.93,167.48,606,111.81,579.81,33.15Z"/><polygon class="cls-14" points="555.3 97.09 559.17 204.84 552.83 204.84 555.3 97.09"/><polygon class="cls-14" points="576.07 127.38 556.35 155.19 555.65 148.86 576.07 127.38"/><polygon class="cls-14" points="555.65 134.16 555.65 139 535.58 123.15 555.65 134.16"/><path class="cls-15" d="M511.15,110.3c23.44,23.44,26.42,49.8,23.82,62.77-2.75,13.75-18.78,23.37-35.28,22.45-14.64-.81-31.15-8.25-29.78-32.07s13.75-44.9,22-53.15C499.75,102.46,503.82,103,511.15,110.3Z"/><path class="cls-13" d="M517.35,117.13c17.75,21.56,20,44.22,17.62,55.94-2.75,13.75-18.78,23.37-35.28,22.45-13.48-.75-28.54-7.12-29.77-26.73C500.23,199.64,533.44,165.44,517.35,117.13Z"/><polygon class="cls-14" points="502.3 156.4 504.68 204.84 500.78 204.84 502.3 156.4"/><polygon class="cls-14" points="515.06 175 502.94 192.09 502.51 188.2 515.06 175"/><polygon class="cls-14" points="502.51 179.17 502.51 182.14 490.18 172.41 502.51 179.17"/><g id="Calque_2" data-name="Calque 2"><g id="textes"><path class="cls-16" d="M477.17,70.15c3.05-.82,6.58,0,9.74-.11a52.82,52.82,0,0,0,15.54-2.33,86,86,0,0,1,11.68-3.23c3-.56,7-1.12,9.72.64.85.55-.06,1.68-.87,1.5-5-1.13-9.52,1.43-14.16,2.89-4.1,1.23-7.78,3.34-11.93,4.43-6.94,1.8-13.56,2.25-20.32,0C474.5,73.29,475.45,70.6,477.17,70.15Z"/><path class="cls-16" d="M434.23,68a74.74,74.74,0,0,1,21.28-6.71,79.67,79.67,0,0,1,10.91-1c4.67-.06,9.11,1.19,13.71,1.28.86,0,.72,1.27,0,1.38-8.51,1.24-16.61-.46-25.07,2-6.63,2-13.24,7.36-20.34,7.4C432.05,72.4,432.36,68.93,434.23,68Z"/><path class="cls-16" d="M419,84.84a31.79,31.79,0,0,1,7.16-.38,29.73,29.73,0,0,0,10.93-2.24c5.87-2.23,11.57-5.64,17.71-7.3,1.44-.41,1.51,1.74.22,2.14-4.13,1.29-7.48,4.25-11.29,6.22a85.68,85.68,0,0,1-10.33,4.92c-4.31,1.5-11.44,2.77-15.52.48C416.15,87.7,417.48,85.17,419,84.84Z"/><line class="cls-17" x1="392.22" y1="220.13" x2="382.03" y2="219.7"/><path class="cls-18" d="M385.86,173.87l5.66-10-2.79,5,2.83-5c-11-6.25-24.77-19.31-24.49-26.69.08-2.21-.05-3.94,4.05-5.89,14.19-6.74,22.19-9.57,26.76-10.75a8.73,8.73,0,0,0,6.53-8.44v-5.56c-5.55.83-12.45,2.14-38.16,14.4-10.29,4.89-10.39,11.12-10.57,15.81C355,153.76,380.34,170.71,385.86,173.87Z"/><polygon class="cls-19" points="398.57 194.31 403.25 132.18 400.17 131.87 395.48 193.99 398.57 194.31"/><path class="cls-20" d="M340,231a4.41,4.41,0,0,1,1.78-.48c.94,0,1.55.74,2.24,2.45a1.69,1.69,0,0,1-.85,1.7,27.58,27.58,0,0,1-11.29,4.07,38.26,38.26,0,0,1-12.08-.43,33.17,33.17,0,0,1-21.31-13.63,34.22,34.22,0,0,1-5.53-12.92,34.68,34.68,0,0,1,15.88-36.32A33.7,33.7,0,0,1,335,171.62a34.6,34.6,0,0,1,20.87,15.75,30.2,30.2,0,0,1,3.82,10.94,41.26,41.26,0,0,1,0,11.48,36.73,36.73,0,0,1-3.49,12.14,21,21,0,0,1-8.68,9.21c-.38,1.32-2.88,2.65-3.59,1.42l-.09-.15a1.42,1.42,0,0,1-.08-.18l-.52-1a2,2,0,0,1,.68-1.93,40.72,40.72,0,0,0,6.51-7.42,30.48,30.48,0,0,0,4-8.86,31.69,31.69,0,0,0,.78-12.49A32.3,32.3,0,0,0,351,188.7a27.9,27.9,0,0,0-20.78-13.42,29.28,29.28,0,0,0-23.8,8,29.75,29.75,0,0,0-9.05,23.83A29.06,29.06,0,0,0,310.24,229a30.25,30.25,0,0,0,26.89,3.19C338.3,231.68,339.27,231.36,340,231Zm-45-30.68a29.73,29.73,0,0,0,.85,12.86,32.26,32.26,0,0,1-.85-12.86Z"/><path class="cls-21" d="M361.44,197.27a36.23,36.23,0,0,0-43.64-26.81h-.05s-5.25,1.36-7.26,3.05"/><path class="cls-21" d="M480.51,162.21a36.21,36.21,0,0,0-47.76-18.49l-.05,0"/><path class="cls-21" d="M434.07,143a35.76,35.76,0,0,0-22.51,41.26"/><path class="cls-20" d="M418.67,165.37a4.36,4.36,0,0,1-1,1.54c-.65.61-1.65.47-3.3-.34a1.7,1.7,0,0,1-.49-1.84,27.77,27.77,0,0,1,5.67-10.56,38.35,38.35,0,0,1,9.3-7.72,33.19,33.19,0,0,1,25-4.09,34.23,34.23,0,0,1,12.73,6,34.68,34.68,0,0,1,12.32,37.76,33.67,33.67,0,0,1-17,20.27,34.64,34.64,0,0,1-26.06,2.14,30.38,30.38,0,0,1-10.14-5.6,41.24,41.24,0,0,1-7.67-8.53A36.93,36.93,0,0,1,412.56,183a21,21,0,0,1,.4-12.64c-.57-1.23.42-3.89,1.74-3.45l.18,0,.18,0,1.08.42a1.9,1.9,0,0,1,.77,1.89,41.42,41.42,0,0,0,.1,9.89,30.62,30.62,0,0,0,2.85,9.29,31.62,31.62,0,0,0,7.74,9.83,32.41,32.41,0,0,0,11,6,27.86,27.86,0,0,0,24.44-3.84,29.27,29.27,0,0,0,12.44-21.85,29.8,29.8,0,0,0-9.13-23.82A29.06,29.06,0,0,0,442.19,147,30.24,30.24,0,0,0,420,162.53C419.48,163.69,419,164.58,418.67,165.37Zm44.84-16.18a32.32,32.32,0,0,1,9.18,9A29.6,29.6,0,0,0,463.51,149.19Z"/><polyline class="cls-22" points="454.7 130.03 423.96 137.41 413.87 143.46"/><path class="cls-23" d="M425.41,178.42s13.86-3.84,17.41-4.3,7.33-1.63,8.26,2.21-3.32,4.74-5.89,5.87L405.5,199.68"/><line class="cls-24" x1="445.46" y1="174.14" x2="454.76" y2="126.62"/><polygon class="cls-25" points="332.32 162.7 339.24 163.81 339.64 161.26 332.73 160.16 332.32 162.7"/><polyline class="cls-17" points="414.4 159 415.73 148.07 422.57 143.1 452.29 135.99"/><path class="cls-26" d="M324.55,119.08s-16.82-3-8.11,15.3,29.74,21.12,29.74,21.12c-7.19,1.76-19.54.69-25.61-3.46a19.6,19.6,0,0,1-8-19.27C313.69,126.85,318.7,120.48,324.55,119.08Z"/><path class="cls-14" d="M336.71,151.15a5.5,5.5,0,0,1-.08-.91l.11-1.37a33.08,33.08,0,0,1,.6-4.21,3.66,3.66,0,0,1,.67-1.3,1.4,1.4,0,0,1,.95-.57,17.75,17.75,0,0,1,8,2.3c2.37,1.31,4.61,2.77,6.87,4.1a48.68,48.68,0,0,1,12.78,10.52c1,1.1,1.89,2.28,2.8,3.45l1.33,1.76,1.23,1.83,2.36,3.55,2.1,3.23a50.83,50.83,0,0,0,9.83,11.12l1.35,1c.45.33.93.62,1.38,1a14.24,14.24,0,0,0,1.36.8l.63.38.13.12a3.72,3.72,0,0,0,.75.49,5.49,5.49,0,0,0,.51.21l.3,0c.1.09.21.12.22,0,.13-.3.24-.6.34-.9a7.93,7.93,0,0,0,.38-2.1c.33-2.66.61-5.33.82-8,.36-4.68,2.15-9.28,2.12-14,0-5-2.92-10.58.34-15.34-1.53-.79-.94-2.38,1.92-2.19l.35.05.37.06,2.31.21a3,3,0,0,1,2.35,1.25c1.56,4.63,1.26,9.25,1.34,13.83a74.62,74.62,0,0,1-1.71,17.82c-.33,1.44-.62,2.89-.9,4.34l-.39,2.18-.15,1.11-.2,1.36-.42,3.7-.13.92a2.92,2.92,0,0,1-.12.83L401,195.3l-.93,2.71c-1.06.18-2.1.25-3.14.33a20.93,20.93,0,0,1-6.63-.93c-1.09-.44-2.49-.9-3.26-1.3s-1.52-.77-2.25-1.18a46.15,46.15,0,0,1-7.79-5.81,83.34,83.34,0,0,1-11.92-14.51,58.29,58.29,0,0,0-11.26-12.71,76.94,76.94,0,0,0-7.24-5.19,46.54,46.54,0,0,0-7.58-3.85C337.63,152.31,336.93,152.16,336.71,151.15Zm35.22,24.13c-.69-1.15-1.29-2.19-2.09-3.32s-1.63-2.22-2.48-3.31l4.62,6.64Z"/><path class="cls-14" d="M371.34,173.21a1.6,1.6,0,0,1,.78-.36c1.1.53,1.53,1.63,2.54,2.25s2,1.2,2.9,1.69a12.77,12.77,0,0,0,6.81,1.66,23.66,23.66,0,0,0,7.54-.7,11.13,11.13,0,0,0,3.19-1c1-.81,1.19-2.45,2.7-2.4-.32-.5,0-.6.82.12l.1.08.1.1.65.57a1.26,1.26,0,0,1,.45.85,6.44,6.44,0,0,1-2.48,3.09,9.29,9.29,0,0,1-4.58,2c-1.64.23-3.26.44-4.83.57s-3.07.26-4.67.27a17,17,0,0,1-4.9-.69,19.7,19.7,0,0,1-4.57-2,16.56,16.56,0,0,1-4-3.43C369.3,175.12,369.2,175,371.34,173.21Zm6.83,6a11.38,11.38,0,0,0,1.89.56Z"/><path class="cls-27" d="M338.46,149.86l.79-7.19a29.05,29.05,0,0,0-.06-6,9.49,9.49,0,0,0-4.76-5.68,21.41,21.41,0,0,0-6.11-1.58l-.42-.06-.36,2.58.42.06a19.84,19.84,0,0,1,5.36,1.37,6.71,6.71,0,0,1,3.3,3.94,26,26,0,0,1,0,5.07l-.71,7.17Z"/><path class="cls-28" d="M328.31,129.86a21.5,21.5,0,0,1,6,1.56,9,9,0,0,1,4.53,5.38,27.52,27.52,0,0,1,.05,5.81l-.74,6.84-1.76-.24.74-6.75a25.92,25.92,0,0,0,0-5.21,7.16,7.16,0,0,0-3.57-4.23,19.76,19.76,0,0,0-5.51-1.4l.25-1.76m-.77-.93-.12.85-.25,1.75-.12.85.85.12a19.25,19.25,0,0,1,5.27,1.33,6.33,6.33,0,0,1,3.08,3.67,26.32,26.32,0,0,1,0,4.78L335.5,149l-.12.85.84.12,1.76.25.84.12.12-.85.75-6.84a27.47,27.47,0,0,0-.08-6.08,9.8,9.8,0,0,0-4.94-5.94,21.79,21.79,0,0,0-6.23-1.63l-.85-.12Z"/><path class="cls-29" d="M339.46,160.25l.69-3.2a.52.52,0,0,0,0-.11L341.75,140a1,1,0,0,0-.87-1.06l-4.21-.49a1,1,0,0,0-1.07.8l-.8,4.4v.08l-1.49,15.73a1,1,0,0,0,.86,1.07l4.24.49A1,1,0,0,0,339.46,160.25Z"/><path class="cls-14" d="M325.4,205.15c-.34-.16-.66-.45-.64-.61.12-1.65,1.08-2.93,1.43-4.6s.77-3.34,1.26-4.95c1.09-3.58,2.29-7.18,3.13-10.67s2.06-6.95,2.56-10.53a39.3,39.3,0,0,0,1-4.67c.05-1.72-1-3.62.2-5.2-.57-.26-.35-.8.72-.73l.27,0,.86.12a1.12,1.12,0,0,1,.88.43,12.93,12.93,0,0,1,.45,4.79,20.67,20.67,0,0,1-.95,6.1c-1.26,3.91-2,7.84-2.9,11.87s-2.15,8-3.17,12a47.35,47.35,0,0,1-2.07,6.37C328,206,327.89,206.22,325.4,205.15Zm4.52-11.91c.26-.89.49-1.79.74-2.67A24.53,24.53,0,0,0,329.92,193.24Z"/><path class="cls-14" d="M402.32,153.36c.19-.34.53-.59.72-.57,1.95.47,3.47,1.65,5.44,2.36a59.92,59.92,0,0,1,5.79,2.42c4.1,2,8.16,4.21,12.13,6.2s7.71,4.38,11.68,6.33c1.74.86,3.16,2.16,5.06,2.93s4.46.64,5.83,2.52c.5-.39,1,0,.56,1v.12l0,.12-.4.77c-.21.39-.58.65-.8.62a20.25,20.25,0,0,1-5.48-1.69,34.58,34.58,0,0,1-6.57-3.38,104.58,104.58,0,0,0-12.9-6.94c-4.48-2.16-8.85-4.4-13.45-6.3-2.48-1-4.92-2.13-7.3-3.34C401.29,155.88,401.06,155.75,402.32,153.36Zm13.8,7.16,3,1.46A31.24,31.24,0,0,0,416.12,160.52Z"/><path class="cls-14" d="M398.64,192.27a1,1,0,0,1,.12-.9c1.73-1,3.76-1.2,5.63-2.06a51.93,51.93,0,0,1,5.88-2.29c4.38-1.41,8.88-2.65,13.23-4s8.73-2.2,13-3.55c1.87-.57,3.8-.63,5.76-1.41s3.72-2.62,6-2.23c.08-.65.79-.69,1.12.33l0,.12,0,.12.25.83a1.08,1.08,0,0,1-.15,1,20.52,20.52,0,0,1-5.2,2.58,34.59,34.59,0,0,1-7.17,2.14,105.48,105.48,0,0,0-14.3,4c-4.79,1.56-9.58,3-14.28,4.8-2.54,1-5.1,1.87-7.7,2.66C399.41,194.86,399.15,194.92,398.64,192.27Zm14.88-4.38,3.23-1A31.18,31.18,0,0,0,413.52,187.89Z"/><path class="cls-30" d="M325.88,132.9a2.08,2.08,0,0,0,2.32-1.73l1.36-8.66a2.06,2.06,0,0,0-1.73-2.35h0l-1.14-.16a2.08,2.08,0,0,0-2.36,1.72L323,130.37a2.07,2.07,0,0,0,1.72,2.36h0Z"/><path class="cls-28" d="M326.6,120.41l1.16.17h0a1.61,1.61,0,0,1,1.34,1.84l-1.35,8.66a1.6,1.6,0,0,1-1.82,1.35l-1.16-.16h0a1.61,1.61,0,0,1-1.34-1.84l1.35-8.66a1.62,1.62,0,0,1,1.82-1.36m-2.7,1.22-1.35,8.66a2.51,2.51,0,0,0,2.1,2.86l1.17.17a2.52,2.52,0,0,0,2.82-2.1l1.35-8.66a2.52,2.52,0,0,0-2.09-2.87l-1.17-.16A2.52,2.52,0,0,0,323.9,121.63Z"/><path class="cls-30" d="M330.53,128.67a3.77,3.77,0,0,0,3.9-3.62,4.52,4.52,0,0,0-.54-3,3.07,3.07,0,0,0-2.21-1.55,3.76,3.76,0,0,0-3.9,3.61,4.56,4.56,0,0,0,.54,3A3.09,3.09,0,0,0,330.53,128.67Z"/><path class="cls-28" d="M331.61,121h0a3.72,3.72,0,0,1-1,7.21h0a3.72,3.72,0,0,1,1-7.21m.12-.83h-.06a4.14,4.14,0,0,0-4.33,3.91,5,5,0,0,0,.6,3.23,3.51,3.51,0,0,0,2.53,1.74h.07a4.13,4.13,0,0,0,4.32-3.93,5,5,0,0,0-.6-3.22,3.48,3.48,0,0,0-2.53-1.75h0Z"/><path class="cls-31" d="M342.91,129.52a1.9,1.9,0,0,0,2.11-1.46l.25-1.06a1.89,1.89,0,0,0-1.38-2.3h-.06l-11.14-2.55-.13,0a1.88,1.88,0,0,0-2.11,1.45l-.25,1.06a1.91,1.91,0,0,0,1.42,2.26l11.14,2.55Z"/><path class="cls-28" d="M332.54,122.53l.12,0,11.13,2.55a1.53,1.53,0,0,1,1.13,1.82l-.25,1.07a1.53,1.53,0,0,1-1.7,1.14l-.17,0-11.12-2.55a1.53,1.53,0,0,1-1.13-1.82l.24-1.07a1.54,1.54,0,0,1,1.71-1.14m.1-.7a2.27,2.27,0,0,0-2.5,1.72l-.24,1.06h0a2.24,2.24,0,0,0,1.7,2.68l11.12,2.55.19,0a2.26,2.26,0,0,0,2.54-1.73l.25-1.06h0A2.24,2.24,0,0,0,344,124.4l-11.13-2.55-.19,0Z"/><path class="cls-28" d="M392.2,127.67c2.66-.76,5.54-.89,8-2.18,2-1.11,3.52-2.77,5.42-3.93s4.58-1.63,6.24-.16,1.49,4.5.36,6.61a11,11,0,0,1-1.93,2.61,9,9,0,0,1-7.84,2.82c-2.26-.4-4.31-1.86-6.6-1.83-2,0-7.12,3.29-8.64,1S390.6,128.13,392.2,127.67Z"/><path class="cls-20" d="M392.34,128.33a.67.67,0,0,1-.25.66,31.44,31.44,0,0,0-2.81,1.62,3.39,3.39,0,0,0-.93.88c-.18.27-.19.37-.06.39l.53.08a5.74,5.74,0,0,0,1.43-.27c1.09-.33,2.23-.82,3.54-1.26a8.54,8.54,0,0,1,1.2-.33,4.27,4.27,0,0,1,.79-.1l.68,0a9.55,9.55,0,0,1,2.42.55,33.25,33.25,0,0,0,3.74,1.33,7.52,7.52,0,0,0,6.44-2.06,7.75,7.75,0,0,0,2.84-6,2.53,2.53,0,0,0-1.64-2.17,4.65,4.65,0,0,0-3.28.28,40.81,40.81,0,0,0-5.87,3.79,12.81,12.81,0,0,1-7.59,2.5.65.65,0,0,1-1.21-.17v-.17l-.13-.56a.73.73,0,0,1,.39-.74c2.2-1,4.58-1.29,6.36-2.19a18.9,18.9,0,0,0,3.36-2.31,12.55,12.55,0,0,1,4.3-2.5,6.51,6.51,0,0,1,5.38.53,4.66,4.66,0,0,1,1.81,2.25,6.26,6.26,0,0,1,.34,2.68,9.36,9.36,0,0,1-1.79,4.63,12,12,0,0,1-3.53,3.34,9.91,9.91,0,0,1-4.78,1.49,11.5,11.5,0,0,1-4.79-1.1,7.16,7.16,0,0,0-3.86-.74c-1.31.33-2.7,1-4.25,1.51a6.78,6.78,0,0,1-3,.36,3,3,0,0,1-1.74-1,2.77,2.77,0,0,1-.72-1.94,3.24,3.24,0,0,1,.67-1.82,6.3,6.3,0,0,1,1.09-1.1,11.58,11.58,0,0,1,2.35-1.4C391.61,126.52,392,126.51,392.34,128.33Zm5.57,3.21c1.37.38,2.56,1,3.89,1.35C400.52,132.55,399.27,131.94,397.91,131.54Z"/><line class="cls-17" x1="447.56" y1="163.82" x2="413.01" y2="145.79"/><path class="cls-28" d="M434.74,177a.76.76,0,0,0,.37-1,.77.77,0,0,0-.43-.4,16,16,0,0,0-8.68-.09c-6.68,1.6-32.87,8.66-32.87,8.66s-10.49,3.69-7.26,13.91,11.52,7.83,14.24,7,7.3-2.51,7.3-2.51-3.73-12.88,5.44-16.62C420.09,182.92,430.65,178.65,434.74,177Z"/><line class="cls-17" x1="394.03" y1="195.48" x2="387.04" y2="218.76"/><circle class="cls-32" cx="395.84" cy="195.45" r="8.21"/><path class="cls-16" d="M357.46,159.34h0a1.2,1.2,0,1,1,0-1.69A1.2,1.2,0,0,1,357.45,159.35Zm.64-2.39a2.16,2.16,0,1,0,.06,3.07,2.16,2.16,0,0,0-.06-3.07Z"/><path class="cls-16" d="M359.11,161.79l4.27-1.89.62.61.68-.7-1.1-1.06-4.1,1.81a3.4,3.4,0,0,1,.68-3.79l.5.48.68-.69-1.23-1.18-.34.36a4.77,4.77,0,0,0-1.54,3.95,3.92,3.92,0,0,0,.65,1.77Z"/><path class="cls-16" d="M359.68,162.38l.55.54a1.2,1.2,0,0,0,2.34.51,1.21,1.21,0,0,0-.91-1.43,1.27,1.27,0,0,0-.55,0l-.55-.53a.54.54,0,0,0-.29-.15,2.15,2.15,0,1,1-.75.78A.74.74,0,0,0,359.68,162.38Z"/><path class="cls-16" d="M359.84,162.21l1.23,1.14a.38.38,0,0,0,.55,0,.39.39,0,0,0,0-.55l-1.23-1.14a.38.38,0,0,0-.55,0A.39.39,0,0,0,359.84,162.21Z"/><path class="cls-33" d="M384,119.25c.17.72.28,2.23,3.58,5.48"/><line class="cls-34" x1="341.89" y1="143.97" x2="340.95" y2="153.1"/><path class="cls-18" d="M402.37,116.14s-5.46,28.74-4.59,52.93a285.25,285.25,0,0,0,4.4,41.53,75.83,75.83,0,0,0-11,1.35c-1.64-8-2.92-15.9-3.81-23.39a299.34,299.34,0,0,1-2.1-32.51,241.12,241.12,0,0,1,2-35.83Z"/><path class="cls-33" d="M387.08,124.39l-1.19,8.38"/><path class="cls-35" d="M399.77,101.91l-20.35,6.41S358.2,94.06,354.27,85.7s4.63-14.1,4.63-14.1Z"/><path class="cls-36" d="M400.29,105.05a5.77,5.77,0,0,1-1.49.69A4.82,4.82,0,0,1,400.29,105.05Z"/><path class="cls-36" d="M397.2,104.61l-.4-.3Z"/><path class="cls-35" d="M368.42,105.07l0-.28c-1.18-.91-.52-.07-1.58-.93-.2-.62-1.83-1.4-2.08-1.86,0,0-.54-.4-.59-.28,0-.28-.51-.48-.8-.79-.09-.14.12,0,.26,0l-.71-.68c-.34-.2-.49-.17-.19.11a83.37,83.37,0,0,1-6.56-5.9,36.06,36.06,0,0,1-3.78-4.41c-.27-.37-.52-.74-.75-1.12l-.32-.53-.29-.56a10.45,10.45,0,0,1-.44-1c-.12-.3-.23-.54-.3-.77.29.39.64,1.48,1.07,1.68a9.79,9.79,0,0,1-.66-1.65,2.18,2.18,0,0,1-.6-1.12c-.09-.28-.17-.57-.27-.82a2.46,2.46,0,0,0-.31-.68l.16-.31-.19-.49a12.05,12.05,0,0,1,.05-2.08l.08-.55.06-.47c0-.21,0-.43.09-.64,0-.38.09-.75.16-1.13a10,10,0,0,1,1-2.35c.35-.58.65-1,.9-1.53-.09.14-.21.6.1.17-.11-.18.86-1.1.88-1.39s.49-.61.76-.91.75-.68.55-.31c.16-.39,1.73-2,.73-1.13a9.66,9.66,0,0,1,1.5-1.28c-.24.22-.46.42-.69.66.93-.8,1.68-1.29,2.35-1.78l.49-.35.05-.08h0l.25.15c.32.2.64.43.94.66l-.73-.31c.59.35,1.13.67,1.58.9.22.11.44.23.62.34a1.94,1.94,0,0,0,.5.2,9.76,9.76,0,0,0-1.26-.93,10.21,10.21,0,0,1,1.4,1l1.25.93.29.22.15.13.28.25.6.53-.33-.23c1,1,6.83,5.61,7.7,6.65l-.6-.21.8.79c-.12,0-.08-.8-.2-.82,1.92,1.46,11.89,9,13.74,10.28.78.46.3-.13.32-.16.83.7.25.44,1,1,.22.13,0-.15-.06-.26.31.26.66.43.64.52-.46-.25-.42.07-.68.06l1,.69,0-.15a4.78,4.78,0,0,0,1.3,1.35c1.63,1.13,3.32,2.44,4.93,3.6,0-.09-.28-.37-.58-.66a5.6,5.6,0,0,0,.76.51c-.48-.17.61.57.27.41,1,1.15,2.66,2,3.56,3-.05.32-1.05,6-1.28,6.33a7.21,7.21,0,0,0,.76.51,3.73,3.73,0,0,1-1.09-.71l0-.2c-.73-.64-.26,0-1-.6-.14.1.53.64,1.14,1.1-.56-.38-1.18-.69-1.25-1-.55-.33,0,.21-.72-.2a8.22,8.22,0,0,0-1.47-1.22h0c-1.28-.76-1.74-1.64-3-2.31l.09.14c-.46-.22-1.17-.9-1.95-1.36.23.13.48.16,0-.18-.9-.53-1.4-1-2.07-1.37l-.49-.56c-2.76-2.2-14-10.82-16.93-13l.1.11-8.92-6.72-.62-.48-.1-.09-.18-.14-.09,0H359l-.19.13-.17.14h0l-.1.1-.16.19c-.12.14-.22.27-.32.4a11.15,11.15,0,0,0-1,1.48,16.85,16.85,0,0,0-.45,2c.05-.33-.13-.25-.17,0l-.14,1s-.14.06,0,1a5.2,5.2,0,0,0,.25,1.12,8.1,8.1,0,0,0,.7,1.49,22.55,22.55,0,0,0,3,3.86,61.59,61.59,0,0,0,6.52,5.88c1,1.16,2.57,2.23,3.7,3.3l-.08-.13c.59.53,2.72,2.15,4.91,3.74l3.15,2.28,1.13.78.17.15h0a.85.85,0,0,0,.17.16.13.13,0,0,0,.13-.09,1.09,1.09,0,0,1,.22-.26c-.29.36,1.18.06,1.69-.08h0c.79-.21,2.62-.53,3.9-.91l-.09-.12c1.11-.19,3.12-.95,3.88-1.12a63.61,63.61,0,0,1,6.7-2.27l1.4-.87.23,0s3.95,3.9,1.13,5.89l.09.13-.62.17c-.71.31-1.11.25-1,.38l1-.33c-.73.27-.19.18.12.16a8.58,8.58,0,0,0-.83.35c-.16,0,.08-.09.19-.16a6.56,6.56,0,0,0-1.44.34c-.76.25,0,.23-.85.53l-6.93,2.34-3.44,1.15-1.75.56-2.12.67c-.2.13,0,0,.31,0l-2,.6-1,.29-.11,0h-.1l-.22-.14L378,112l-1.63-1.13-.77-.55-.41-.31a1.47,1.47,0,0,0-.62-.17c.12,0-1.41-1.1-3-2.28l-2.16-1.7Z"/><path class="cls-37" d="M338.83,126.08c-1.61-.23-3.1-2-2.38-3.44a4.22,4.22,0,0,1-3.54,1.18c-1.2,0-1.7-.71-2.31-1.72a3.67,3.67,0,0,1,1.17-4.9,5.81,5.81,0,0,1,5.69-.36c1.3.6,2.46,1.61,3.86,2.13,0,0,3.16,0,3.91-.84a30.62,30.62,0,0,1,1.45,5.57S341.45,126.42,338.83,126.08Z"/><path class="cls-28" d="M392.75,216.79l-2.55,2A49.11,49.11,0,0,1,376,216.38c0-6.2,21-6.93,21-6.93l.6,9.41-4.74-.06Z"/><path class="cls-33" d="M387.35,188.51a299.34,299.34,0,0,1-2.1-32.51"/><path class="cls-37" d="M330.76,68.22a12.24,12.24,0,0,0,5.36,7.53,11.65,11.65,0,0,0,9,1.51,12.15,12.15,0,1,0-14.41-9.36Z"/><path class="cls-38" d="M335.88,75.8a12.12,12.12,0,0,0,9.18,1.46"/><circle class="cls-16" cx="335.37" cy="63.28" r="1.83"/><path class="cls-28" d="M334.68,63.46l1.11-.48a1.22,1.22,0,1,0,.1.57Z"/><path class="cls-28" d="M337.55,69.29a4.37,4.37,0,0,1-5.21,1c-.61-.3-.19-1.29.43-1a3.29,3.29,0,0,0,4-.68c.46-.5,1.3.18.84.66Z"/><path class="cls-31" d="M346,61.09a1.27,1.27,0,0,1,.41-.93,1.9,1.9,0,0,1,1.43-.28,21.83,21.83,0,0,1,3.7.52c1.35.3,2.73.39,3,1.75-1.36-.19-1.06.25-1.55,1.17a1.77,1.77,0,0,1-1.24,1,1.07,1.07,0,0,1-1.27-.83h0a1.37,1.37,0,0,1-2.66.68,1.27,1.27,0,0,1,0-.67.92.92,0,0,1-1.28-.18A2.55,2.55,0,0,1,346,62,4.34,4.34,0,0,1,346,61.09Z"/><ellipse class="cls-37" cx="352.77" cy="64.69" rx="3.19" ry="2.49" transform="matrix(0.08, -1, 1, 0.08, 260.25, 411.2)"/><polygon class="cls-37" points="330.65 62.7 327.66 67.1 330.43 68.28 332.79 66.04 330.65 62.7"/><polyline class="cls-39" points="330.43 68.28 327.66 67.1 330.65 62.7"/><path class="cls-39" d="M352.52,68a3.29,3.29,0,0,0,.51-6.37"/><path class="cls-37" d="M365.45,93.87c.22,0,.31.32.42.54A.85.85,0,0,1,365.45,93.87Z"/><polygon class="cls-37" points="365.87 94.43 365.87 94.43 365.87 94.41 365.87 94.43"/><path class="cls-37" d="M368.4,105.48l-.27,0c0,.57.31.16.25.7-.38.19,0,.89-.15,1.07,0,0,0,.25.14.26-.2.07,0,.27-.06.44s0,0-.12-.1,0,.25-.06.38a.11.11,0,1,0,.21,0,18.69,18.69,0,0,1-.42,3.49,13.1,13.1,0,0,1-1.22,3.55c-.08-.2.17-.49,0-.72-.25.23-.14.44-.33.49.28.27-.19.66,0,1l-.23,0,0,.19c-.9,1.1-.22.24-.86,1.27-.45.58-.88.67-1,1,0,0,0-.26-.12-.14.12.14-.43.27-.35.46-.14.12-.52.57-.56.24,0,.15-.29.57-.06.41-.11.14-.2.29-.33.33l.11-.21c-.44.38-.58.73-1,.8l0-.23c-.28.21-.51.39-.45.67l.33-.17a3.23,3.23,0,0,1-1.23.71h.15c-.61.23-3.43,1.49-4,1.29l.15-.27h-.47s.43.51.44.43c-.22.08-.69.26-1.27.44l-2,.51-3.18.57c-.32.13,0,.31-.05.34-.4-.06-.19-.18-.55-.08-.09,0,0,.13.08.16-.15,0-.28.07-.3,0a.91.91,0,0,1,.15-.48l-.43.06,0,.14c-.1,0-.28-.37-.72-.27-.72.1-1.51.07-2.22.12,0,.08.16.13.32.18a.39.39,0,0,0-.34.07c.17-.17-.32,0-.17-.17-.53-.36-1.22-.06-1.67-.33-.06-.33-.71-5.66-.65-6.09a.57.57,0,0,0-.29,0c0-.1.28-.13.41-.07l0,.21c.3,0,0-.14.37-.1,0-.18-.24-.22-.48-.24.21,0,.44-.13.51.07.2-.07,0-.2.23-.27s.38.23.6.08h0c.48-.16.73.32,1.16.17h0c.15-.1.45.06.72-.09-.07,0-.14.16,0,.17a1.47,1.47,0,0,0,.75-.16l.23.16a10.91,10.91,0,0,0,1.29-.09,16.6,16.6,0,0,0,1.85-.2,13.75,13.75,0,0,0,1.77-.33,5.8,5.8,0,0,0,1.15-.33h0a7,7,0,0,0,1.25-.48l.7-.34.67-.42a13.57,13.57,0,0,0,2.16-1.77,2.85,2.85,0,0,1,.29-.71c0,.15.12.17.17,0,.33-.62.12,0,.54-.58a6.88,6.88,0,0,0,1.11-2.41,9.68,9.68,0,0,0,.26-2.57c.31-.42.14-1,.3-1.45h0a27.73,27.73,0,0,0-.3-3.85h0c.07-.53-.18-.41-.32-.79.27,0,.35-.45.35-.62h0a8,8,0,0,0,.07-1.29l-.13,0a3.67,3.67,0,0,0-.2-1.27,7.55,7.55,0,0,1-.75-2.12l-.57-.31v-.09s1.16-.61,2.46-1.2,2.79-1.14,3.53-.71l.14-.07.06.25c.16.26,0,.44.18.37l-.14-.36c.13.26.15,0,.19-.09a1.49,1.49,0,0,0,.18.3c0,.09-.06,0-.12,0s-.06.42.06.57.24,0,.36.28a25.73,25.73,0,0,1,1.31,5.41c.06,0,0,0,0-.09,0,.58.11,1.08.12,1.59a.49.49,0,0,0,.25.2S368.43,105.41,368.4,105.48Z"/><path class="cls-28" d="M383.72,83.51s-3.1,14.3-15.93,13.85l-.13,5.06s18.93-1.35,21.2-15Z"/><path class="cls-35" d="M354.39,83.84s10.49,1.69,13.36.62a8.44,8.44,0,0,1,.3,2.23,5.74,5.74,0,0,0,.21,1.17,12.17,12.17,0,0,0,.6,1.66c.59,1.37,1.38,2.72,2,4a5.74,5.74,0,0,1,.71,2.62,1.93,1.93,0,0,1-1.66,1.9c.92-.09,1.31,2.43,1.21,3.44a6.29,6.29,0,0,1-2.68,3.91c0,1.73-.69,7.14-.76,6-2.95-.83-3.8-.41-6.79-1.1C361,97,353,82.11,354.39,83.84Z"/><path class="cls-38" d="M368.41,105.4c0,1.72-.69,7.14-.75,5.95"/><path class="cls-38" d="M368.82,89.48c.6,1.38,1.38,2.73,2,4a5.59,5.59,0,0,1,.71,2.62,1.94,1.94,0,0,1-1.65,1.9c.91-.09,1.31,2.42,1.2,3.44a6.27,6.27,0,0,1-2.67,3.91l-.07.44"/><line class="cls-38" x1="396.36" y1="96.77" x2="385.84" y2="88.89"/><path class="cls-31" d="M338,62.41c.12.21-.12-.16-.15-.22a3.54,3.54,0,0,0-.57-.59,2.92,2.92,0,0,0-2.58-.55c-.67.14-.8-.92-.14-1.06A4.12,4.12,0,0,1,339,62c.33.6-.66,1-1,.4Z"/><path class="cls-31" d="M332.18,60.9a3.7,3.7,0,0,0-1.05-.15c-.68,0-.82-1-.14-1.06a4.9,4.9,0,0,1,1.61.23c.65.22.22,1.18-.43,1Z"/><rect class="cls-28" x="369.18" y="42.02" width="44.67" height="44.67" rx="5.5" transform="translate(103.12 336.86) rotate(-52.71)"/><path class="cls-28" d="M372.78,75.57c-.51-.07-23.9-.48-16.65,17.88a12.68,12.68,0,0,1-5.52-10C350.05,76.18,359,70,363.47,68.57Z"/><path class="cls-16" d="M412.45,197.62c3-1.84,5.4-4.46,8-6.85,1.31-1.21,2.89-2.25,4.38-3.37,0,1.82.5,3.68.37,5.53-.27,4.29,6.7,4.89,6.38.9l0-.21c.21.28,3-2.78,3.22-3.11,1.65-1.86,3.43-3.53,5.08-5.34s2.8-3.77,4.37-5.59a6.84,6.84,0,0,0,2-3.14c.11-.75-1.08-1.21-1.4-.5-.56,1.22-2.52,2.11-3.55,3.07-1.58,1.41-2.92,3-4.44,4.41s-2.77,2.5-4.08,3.82c-.36.36-.91,1.13-1.53,1.86a53.74,53.74,0,0,0-1.09-5.34c-.46-1.87-1.56-3.34-3.23-3.08a1.93,1.93,0,0,0-1.32,0c-3.28,1.27-5.55,4.77-7.75,7.37a62.27,62.27,0,0,0-6.75,8.61C410.87,197.3,411.85,198,412.45,197.62Z"/><path class="cls-31" d="M354.33,61.65c-1.91-5.75-8.12-9.87-14.09-8.6a12,12,0,0,0-3.85,1.53c-.65.4-2,1.6-1.55,2.07s2.83.33,4.17.87c1.13.46,3.27,3.34,4.7,3.77s2.08-.12,2.31-.55c.76-1.46,4.58.08,5.77.33A23.4,23.4,0,0,0,354.33,61.65Z"/><path class="cls-40" d="M339.92,55.26a41.08,41.08,0,0,1,16.86-3.59c.51.78,1.29,1.44.93,2.75-3.38,1.14-7.88.4-11.33.48,1.43,1.81,3.5,1.08,5.13,1.85-4.46.71-9.4.37-13.35,2.42h-3.37C335.74,57.25,338.12,56.21,339.92,55.26Z"/><path class="cls-41" d="M357.33,50.21a5.5,5.5,0,0,1-1,.26,2,2,0,0,0,.41,1.2,41.08,41.08,0,0,0-16.86,3.59c-1.8,1-4.18,2-5.13,3.91l-1.53,0C338.54,52.08,348.8,51.5,357.33,50.21Z"/><path class="cls-41" d="M351.51,56.75c-1.63-.77-3.7,0-5.13-1.85,3.45-.08,7.95.66,11.33-.48l-.06.2c-.71,2.06.52,2.57-1.84,3.88s-8.18.41-14.13.6c-1.25,0-2.43.06-3.52.07C342.11,57.12,347.05,57.46,351.51,56.75Z"/><path class="cls-42" d="M339,50.54c-.57.59-.54,1.75-.87,2.45,2.85-1.8,5.77-5.56,9.84-4.49-.33.7-.66,1.4-1.35,1.65a36.12,36.12,0,0,1,11.83-.65,2.83,2.83,0,0,1-1.13.71c-8.53,1.29-18.79,1.87-24.07,8.94l-1.82,0C333,55.48,335,52,339,50.54Z"/><path class="cls-18" d="M336.7,46.73c5.52-2.82,21.95.68,22,2a1,1,0,0,1-.28.76,36.12,36.12,0,0,0-11.83.65c.69-.25,1-.95,1.35-1.65-4.07-1.07-7,2.69-9.84,4.49.33-.7.3-1.86.87-2.45-4,1.43-6,4.94-7.57,8.58h-.89C325.91,59.35,331.19,49.55,336.7,46.73Z"/></g></g></g></g></g></g></g></svg>