<svg xmlns="http://www.w3.org/2000/svg" viewBox="0 0 144 86"><defs><style>.cls-1{fill:#fff;}.cls-2{fill:none;}.cls-3{fill:#312783;}.cls-4{fill:#46b594;}</style></defs><title>nos_offres_foodtech</title><g id="Calque_116" data-name="Calque 116"><circle class="cls-1" cx="72" cy="43" r="42.99"/></g><g id="Nos_offres_3" data-name="Nos offres 3"><g id="bloc_2-3" data-name="bloc 2"><path class="cls-2" d="M67.34,25.45a6.19,6.19,0,0,0-2.86,5.24v7.73h15V30.65C78.86,25.46,73,21.88,67.34,25.45Z"/><path class="cls-3" d="M73.71,57.59V52.43a3.27,3.27,0,0,0,1.56-2.78,3.34,3.34,0,0,0-5.39-2.59,1.86,1.86,0,0,0-.48.49,3.37,3.37,0,0,0,.89,4.88v5.16Z"/><path class="cls-4" d="M57.51,67.86h29a4.06,4.06,0,0,0,3.94-3.07H53.57A4.06,4.06,0,0,0,57.51,67.86Z"/><path class="cls-3" d="M53.44,63.79a4.15,4.15,0,0,0,.13,1H90.43a4.15,4.15,0,0,0,.13-1v-.65H53.44Z"/><path class="cls-4" d="M85.39,31.53C85.39,21.89,75.15,14.59,65,20a12.09,12.09,0,0,0-6.38,10.73v7.74H56A2.55,2.55,0,0,0,53.44,41V63.14H90.56V41A2.55,2.55,0,0,0,88,38.42H85.3V31.53ZM73.71,52.43v5.16H70.29V52.43a3.37,3.37,0,0,1-.89-4.88,1.86,1.86,0,0,1,.48-.49,3.34,3.34,0,0,1,5.39,2.59A3.27,3.27,0,0,1,73.71,52.43Zm5.75-14h-15V30.69a6.19,6.19,0,0,1,2.86-5.24c5.62-3.57,11.52,0,12.12,5.2Z"/></g></g></svg>