<svg xmlns="http://www.w3.org/2000/svg" viewBox="0 0 144 86"><defs><style>.cls-1{fill:#fff;}.cls-2{fill:#3a2722;}.cls-3{fill:#e8bc95;}</style></defs><title>nos_offres_immobilier</title><g id="Calque_116" data-name="Calque 116"><circle class="cls-1" cx="72" cy="43" r="42.99"/></g><g id="Nos_offres_4" data-name="Nos offres 4"><g id="bloc_2-2" data-name="bloc 2"><path class="cls-2" d="M93.43,46.68c-.57-3.24-3.08-1.77-3.83,1.21-.84,3.34-1.3,8.31-3,10.44s-4.25,3.89-4.2,3.05S85.9,56.31,86.66,55s-1.24-2.45-2.26-1.25-8.1,7.76-8.6,10.67A66,66,0,0,0,75.44,76H83a22.8,22.8,0,0,1,1.25-5.9c1.26-3.52,4.28-3.19,7-8.11C93.49,57.84,93.7,48.18,93.43,46.68Z"/><path class="cls-2" d="M53.55,46.68c.58-3.24,3.09-1.77,3.83,1.21.84,3.34,1.31,8.31,3,10.44s4.25,3.89,4.21,3.05-3.5-5.07-4.25-6.36,1.23-2.45,2.25-1.25,8.1,7.76,8.6,10.67A66.07,66.07,0,0,1,71.55,76H64a22.8,22.8,0,0,0-1.25-5.9c-1.26-3.52-4.29-3.19-7-8.11C53.5,57.84,53.28,48.18,53.55,46.68Z"/><path class="cls-3" d="M87.9,29.65c-2.3-3.76-6.86-1.6-9.28.69a24.69,24.69,0,0,0-2.91,3.27A22,22,0,0,0,73.89,36c-1.14-3.63-3.19-7.88-6.22-10-3.57-2.53-6.39.89-6.56,4.37-.24,5.08,2.45,10.75,4.69,15.15,1.76,3.45,3.72,7.26,8.16,6.75,5.07-.58,9.53-5.48,12.24-9.41S90.57,34,87.9,29.65ZM72.81,37.84c-.22.44-.43.89-.62,1.35a16.73,16.73,0,0,0-1.09-4.28c.57,1,1.13,2,1.7,2.92A0,0,0,0,1,72.81,37.84ZM64.7,33.51c-.53-2.17-.77-5.83,1.25-4.88A1.54,1.54,0,0,0,64.79,30a17.93,17.93,0,0,0,.77,6.52C65.24,35.51,65,34.51,64.7,33.51ZM85.78,35a13.24,13.24,0,0,1-2.13,5.35,21.19,21.19,0,0,1-7.47,7.55,8.29,8.29,0,0,0,.77-1c4.24-3.23,7.21-8.36,8.75-13.39A6.1,6.1,0,0,1,85.78,35Z"/><path class="cls-2" d="M74.31,36a.52.52,0,0,1-.28-.12.49.49,0,0,1-.15-.21l0,0,0-.09-.09-.17L73.53,35l-.37-.69c-.26-.46-.53-.91-.8-1.36a27.28,27.28,0,0,0-1.73-2.6,12.38,12.38,0,0,0-4.36-4A4,4,0,0,0,63.68,26c-.21,0-.42.14-.64.2s-.41.2-.62.32-.4.26-.58.4a4.16,4.16,0,0,0-.48.46A5.24,5.24,0,0,0,60.27,30a10.91,10.91,0,0,0,0,3A12.18,12.18,0,0,0,61,36c.35,1,.81,1.91,1.24,2.85s.87,1.87,1.32,2.8.86,1.87,1.33,2.79a22.84,22.84,0,0,0,3.57,5,12.78,12.78,0,0,0,2.24,1.94,6.31,6.31,0,0,0,2.51,1.09A5,5,0,0,0,75.94,52a10.45,10.45,0,0,0,2.54-1.65,11.44,11.44,0,0,0,1.06-1.14c.34-.38.65-.8,1-1.22.62-.83,1.27-1.62,1.9-2.44a34.05,34.05,0,0,0,3.45-5.18,23.41,23.41,0,0,0,2.31-5.73,10.85,10.85,0,0,0,.32-3,5,5,0,0,0-.81-2.57l-.39-.46-.46-.36a6.33,6.33,0,0,0-1.13-.62,4,4,0,0,0-1.16-.27,3.79,3.79,0,0,0-1.24.14,7.62,7.62,0,0,0-2.47,1.26,17.62,17.62,0,0,0-2.24,2c-.7.74-1.36,1.54-2,2.37-.32.41-.63.83-.94,1.26l-.44.65-.23.32-.1.17-.06.08,0,0a1.14,1.14,0,0,1-.15.18A.54.54,0,0,1,74.31,36Zm0-.94a.41.41,0,0,0-.29.07.44.44,0,0,0-.13.14l0,0,0-.1.09-.18.17-.38c.11-.25.23-.49.36-.73.25-.48.51-1,.78-1.43a22.69,22.69,0,0,1,1.85-2.74,16.29,16.29,0,0,1,2.33-2.45,8.91,8.91,0,0,1,3.11-1.79,6.11,6.11,0,0,1,1.92-.28,4.69,4.69,0,0,1,1,.11,4.31,4.31,0,0,1,.49.11l.46.17a5.52,5.52,0,0,1,.88.43c.27.16.51.36.77.55a7.93,7.93,0,0,1,.7.72c.19.28.38.56.54.84a7.36,7.36,0,0,1,.69,3.58A19.42,19.42,0,0,1,89.69,35c-.26,1.08-.58,2.14-.94,3.18s-.79,2.05-1.27,3a38.43,38.43,0,0,1-3.33,5.67A15.55,15.55,0,0,1,82,49.32c-.83.75-1.74,1.39-2.61,2.06a20.55,20.55,0,0,1-2.8,1.85,6.83,6.83,0,0,1-3.45.91A7.29,7.29,0,0,1,69.68,53,15.5,15.5,0,0,1,67,50.82,33.4,33.4,0,0,1,63,45.59a21,21,0,0,1-2.89-5.94A42.63,42.63,0,0,1,59,33.12a14.46,14.46,0,0,1,0-3.35,6.69,6.69,0,0,1,1.28-3.28,8.18,8.18,0,0,1,.64-.68c.23-.2.48-.35.71-.53s.52-.31.79-.45a6.45,6.45,0,0,1,.87-.32,5.23,5.23,0,0,1,3.64.33,9.1,9.1,0,0,1,2.8,2.05,19,19,0,0,1,2.09,2.59,27.83,27.83,0,0,1,1.64,2.84c.25.48.47,1,.69,1.47l.32.75.15.38.07.19,0,.1,0,0a.39.39,0,0,0-.13-.16A.44.44,0,0,0,74.35,35Z"/><path class="cls-2" d="M101.09,22.34c1.35-.8,3-1.89,3.74-3.34a1.63,1.63,0,0,0-.3-1.9c-1.47-1.51-3.38,1.51-4.44,2.35s-3.72,2.28-3.76,3.92a.69.69,0,0,0,.54.67C98.23,24.37,100,23,101.09,22.34Z"/><path class="cls-2" d="M92.21,20.91c.83-1.09,1.57-2.3,2.36-3.43a20.22,20.22,0,0,1,1.54-1.92c.48-.54,1.11-1,1.24-1.77s-.44-1.88-1.42-1.76c-1.77.21-2.8,2.46-3.58,3.87s-1.59,3.32-1.06,4.8A.55.55,0,0,0,92.21,20.91Z"/><path class="cls-2" d="M58.33,20.35c-.9-1.91-2.28-3.76-2.39-5.92-.07-1.61-2.48-2.06-2.87-.38-.62,2.66,2.32,6.28,4.74,7A.46.46,0,0,0,58.33,20.35Z"/></g></g></svg>