<svg xmlns="http://www.w3.org/2000/svg" viewBox="0 0 144 86"><defs><style>.cls-1{fill:#fff;}.cls-2{fill:#ed7e5f;}.cls-3{fill:#cc5a3a;}.cls-4{fill:#b83e1c;}.cls-5{fill:#f5aa95;opacity:0.46;}.cls-6{fill:#f7a663;}</style></defs><title>nos_offres_livreur</title><g id="Nos_offres_1" data-name="Nos offres 1"><g id="bloc_1-5" data-name="bloc 1"><circle class="cls-1" cx="72" cy="43" r="42.99"/></g></g><g id="Calque_116" data-name="Calque 116"><path class="cls-2" d="M142.77,60.72a16,16,0,0,1-9.51-1.28c-.37-.16-.75-.34-1.13-.53-4-2-7.43-3.12-11.31-1.89a17.63,17.63,0,0,0-5.93,3.49,10.11,10.11,0,0,1-4.43,2.21C105,63.9,98.74,60.58,90.63,61.5c-3,.33-7.48,3.23-9.92,2.23C83.4,53,68.43,34.79,73,30.8c0,0,.75-.31,2.09-.72l.27-.09a50.71,50.71,0,0,1,5.28-1.27A49.36,49.36,0,0,1,93.54,28,37.55,37.55,0,0,1,114,35.81c18.21,14.25,10.76,8.73,16.77,15.42.32.36.63.7.95,1a45,45,0,0,0,8.91,7.28C142,60.34,142.77,60.72,142.77,60.72Z"/><path class="cls-3" d="M133.26,59.44c-.37-.16-.75-.34-1.13-.53-4-2-7.43-3.12-11.31-1.89a17.63,17.63,0,0,0-5.93,3.49,10.11,10.11,0,0,1-4.43,2.21C105,63.9,98.74,60.58,90.63,61.5c-3,.33-11.18,4.58-9.84,1.34,5.61-13.56-11.68-29.43-5.34-31.42a1.06,1.06,0,0,1,.23-.05.32.32,0,0,1,.09,0l.24,0c4.91-.63,12.35-.6,22.51,2.44C110.51,37.33,124.85,48.38,133.26,59.44Z"/><path class="cls-4" d="M110.46,62.72C105,63.9,98.74,60.58,90.63,61.5c-3,.33-11,4.54-9.84,1.34a21.39,21.39,0,0,0-1.44-16.63c-6.84-12.07,4.75-7.27,10-2.63C93.3,47.14,102.25,57.39,110.46,62.72Z"/><path class="cls-5" d="M131.75,52.26c-2.48-1.72-5.47-3.9-9.39-6.75-14.51-10.55-24.47-16-30-16.07-4.58,0-6.18-.3-6.42-.6A51.19,51.19,0,0,1,93.54,28,37.55,37.55,0,0,1,114,35.81c18.21,14.25,10.76,8.73,16.77,15.42C131.12,51.59,131.43,51.93,131.75,52.26Z"/><path class="cls-6" d="M76.69,54A16.26,16.26,0,1,1,93,70.21,16.27,16.27,0,0,1,76.69,54Zm2.57,0A13.69,13.69,0,1,0,93,40.27,13.7,13.7,0,0,0,79.26,54Z"/><path class="cls-6" d="M23.06,54A16.26,16.26,0,1,1,39.31,70.21,16.27,16.27,0,0,1,23.06,54Zm2.57,0A13.69,13.69,0,1,0,39.31,40.27,13.7,13.7,0,0,0,25.63,54Z"/><circle class="cls-6" cx="92.95" cy="53.96" r="3.21"/><path class="cls-6" d="M93,52A1.93,1.93,0,1,1,91,54,1.93,1.93,0,0,1,93,52m0-1.29A3.22,3.22,0,1,0,96.16,54,3.22,3.22,0,0,0,93,50.74Z"/><circle class="cls-6" cx="39.31" cy="53.96" r="3.21"/><path class="cls-6" d="M39.31,52A1.93,1.93,0,1,1,37.38,54,1.92,1.92,0,0,1,39.31,52m0-1.29A3.22,3.22,0,1,0,42.53,54a3.22,3.22,0,0,0-3.22-3.22Z"/><path class="cls-6" d="M64.16,54.72,47.49,31.92a1.28,1.28,0,0,1,1-2h26a1.29,1.29,0,0,1,1,.48L93.84,53.15A1.29,1.29,0,0,1,94,54.51a1.27,1.27,0,0,1-1.16.73H65.19A1.27,1.27,0,0,1,64.16,54.72Zm9.75-22.27H51.06L65.85,52.67H90.16Z"/><rect class="cls-6" x="55.98" y="38.95" width="29.65" height="2.57" transform="translate(6.75 90.53) rotate(-67.74)"/><circle class="cls-6" cx="65.19" cy="53.96" r="3.86"/><path class="cls-6" d="M60.69,54a4.5,4.5,0,1,1,4.5,4.5A4.51,4.51,0,0,1,60.69,54ZM62,54a3.22,3.22,0,1,0,3.21-3.22A3.21,3.21,0,0,0,62,54Z"/><path class="cls-6" d="M72.36,24.88H80v3.26l-7.84-2A.65.65,0,0,1,72.36,24.88Z"/><path class="cls-6" d="M79.72,29.39l-7.83-2a1.93,1.93,0,0,1,.47-3.8H80a1.28,1.28,0,0,1,1.28,1.29v3.26A1.27,1.27,0,0,1,80,29.43,1.17,1.17,0,0,1,79.72,29.39Zm-2.24-3.22,1.27.32v-.32Zm-5.12,0Z"/><line class="cls-6" x1="65.19" y1="53.96" x2="65.19" y2="61.59"/><path class="cls-6" d="M65.19,62.23a.64.64,0,0,0,.65-.64V54a.65.65,0,1,0-1.29,0v7.63A.64.64,0,0,0,65.19,62.23Z"/><path class="cls-6" d="M65.19,62.88H68.9a1.29,1.29,0,1,0,0-2.57H65.19a1.29,1.29,0,0,0,0,2.57Z"/><circle class="cls-6" cx="92.95" cy="53.96" r="1.29"/><path class="cls-6" d="M39.31,55.24a1.3,1.3,0,0,0,1.2-.8l12-29.74a1.29,1.29,0,0,0-.13-1.2,1.26,1.26,0,0,0-1.06-.56H49A2,2,0,0,1,49,19h2.3a1.29,1.29,0,0,0,0-2.57H49a4.54,4.54,0,0,0,0,9.07h.42l-11.28,28a1.29,1.29,0,0,0,.71,1.67A1.36,1.36,0,0,0,39.31,55.24Z"/><circle class="cls-6" cx="39.31" cy="53.96" r="1.29"/><path class="cls-6" d="M51.3,19.64h6.6a1.93,1.93,0,1,0,0-3.85H51.3a1.93,1.93,0,1,0,0,3.85Z"/><path class="cls-3" d="M86.79,26.82C86,28.05,85.39,29,85.39,29s-2.1.76-3.43,1.14-7.83,1.33-7.83,1.33a87.69,87.69,0,0,1,5.26-8A6.56,6.56,0,0,1,83,21.86h0c2.69-.52,5.87-.53,6.63-.72S88.31,24.43,86.79,26.82Z"/><path class="cls-3" d="M72.74,31.46l-1.47-.28-3.09-.6s-8.37-3.91-7.91-4.9c.34-.75,2.11-3.25,4-3.55a2.18,2.18,0,0,1,1.81.51,33.72,33.72,0,0,1,5,6.19h0l1.1,1.69Z"/><path class="cls-4" d="M72.36,30.09a1.56,1.56,0,0,1-.21.43,1.73,1.73,0,0,1-.88.66l-3.09-.6s-8.37-3.91-7.91-4.9c.34-.75,2.11-3.25,4-3.55A3.69,3.69,0,0,0,63,24.59c.12,1.3,5.9,4.24,8,4.24h0a1.56,1.56,0,0,0,.46-.06S72.73,29,72.36,30.09Z"/><path class="cls-3" d="M72.77,31.3a25.61,25.61,0,0,1-5.53,1.37,3.93,3.93,0,0,1-1,.07c-.61-.15-1.07-.76-.39-2.35.32-.73,4.68-.65,6.33-.51a2.27,2.27,0,0,1,.63.11A1.23,1.23,0,0,1,72.77,31.3Z"/><path class="cls-4" d="M72.21,29.88a3.67,3.67,0,0,1-.29.59c-3.44,1-4.32,1.06-4.62,1.65a1,1,0,0,0-.06.55,3.93,3.93,0,0,1-1,.07c-.61-.15-1.07-.76-.39-2.35C66.2,29.66,70.56,29.74,72.21,29.88Z"/><path class="cls-3" d="M77.94,37.72c-.83-.13-3.07-3.75-4.29-6a9,9,0,0,1-.82-1.82c0-.71.39-1.61.88-1.21,0,0,6.07,4.81,6.67,6.37a.28.28,0,0,1,0,.12A2.37,2.37,0,0,1,77.94,37.72Z"/><path class="cls-4" d="M77.94,37.72c-.83-.13-3.07-3.75-4.29-6,0-.41,0-.7.18-.79.55-.36,1.84.58,1.84.58,1.52,2.29,1.34,4.37,3,4A11.57,11.57,0,0,0,80.38,35a.28.28,0,0,1,0,.12A2.37,2.37,0,0,1,77.94,37.72Z"/><path class="cls-4" d="M86.79,26.82C86,28.05,85.39,29,85.39,29s-2.1.76-3.43,1.14-7.83,1.33-7.83,1.33a87.69,87.69,0,0,1,5.26-8A6.56,6.56,0,0,1,83,21.86c-2.91,3.95-4.11,6.66-.12,5.66A24,24,0,0,1,86.79,26.82Z"/><path class="cls-3" d="M74.86,32.3c-1.3.18-3.34-.47-3.81-1.12-.25-.35-.08-1.31.12-2.09.16-.63.35-1.15.35-1.15a24.75,24.75,0,0,1,3.4,0l.3,0a.72.72,0,0,1,.46.39C76.26,29.37,76,32.15,74.86,32.3Z"/><path class="cls-4" d="M74.86,32.3c-1.3.18-3.34-.47-3.81-1.12-.25-.35-.08-1.31.12-2.09a3.41,3.41,0,0,0,.89,1.25c.94.71,2.63,0,2.86-2.44l.3,0a.72.72,0,0,1,.46.39C76.26,29.37,76,32.15,74.86,32.3Z"/></g></svg>