<svg xmlns="http://www.w3.org/2000/svg" xmlns:xlink="http://www.w3.org/1999/xlink" viewBox="0 0 1929.37 495.93"><defs><style>.cls-1{mask:url(#mask);filter:url(#luminosity-noclip-2);}.cls-2{mix-blend-mode:multiply;fill:url(#linear-gradient);}.cls-3{fill:none;}.cls-4{clip-path:url(#clip-path);}.cls-5{fill:#f5f8fd;}.cls-6{fill:#c5cfef;}.cls-7{fill:#469fb7;}.cls-8{fill:#c5e6ee;}.cls-9{fill:#392d87;}.cls-10{fill:#fff;}.cls-11{fill:#2f2f30;}.cls-12{fill:#b2b2b2;}.cls-13{fill:#2b2b2a;}.cls-14{fill:#1d1d1b;}.cls-15{fill:#9d9d9c;}.cls-16{fill:#312783;}.cls-17{fill:#706f6f;}.cls-18{clip-path:url(#clip-path-2);}.cls-19{fill:#e2e7f2;}.cls-20{fill:#fcf7fc;}.cls-21{fill:#273783;}.cls-22{fill:#b1c1e5;}.cls-23{fill:#8c97af;}.cls-24{fill:#1d2428;opacity:0.38;}.cls-25{mask:url(#mask-2);}.cls-26{fill:#7885b5;}.cls-27{fill:#4d4954;opacity:0.35;}.cls-28{fill:#e3d6fc;opacity:0.61;}.cls-29{fill:#7b759b;opacity:0.39;}.cls-30{fill:#3a3a51;}.cls-31{fill:#405291;}.cls-32{fill:#cabee5;}.cls-33{fill:#dadaef;}.cls-34{fill:#c9c1ea;}.cls-35{fill:#65617a;}.cls-36{fill:#dcdaed;}.cls-37{fill:#3f508c;}.cls-38{filter:url(#luminosity-noclip);}</style><filter id="luminosity-noclip" x="1656.83" y="-10655.59" width="911.9" height="32766" filterUnits="userSpaceOnUse" color-interpolation-filters="sRGB"><feFlood flood-color="#fff" result="bg"/><feBlend in="SourceGraphic" in2="bg"/></filter><mask id="mask" x="1656.83" y="-10655.59" width="911.9" height="32766" maskUnits="userSpaceOnUse"><g class="cls-38"/></mask><linearGradient id="linear-gradient" x1="1656.83" y1="410.43" x2="2568.73" y2="410.43" gradientUnits="userSpaceOnUse"><stop offset="0" stop-color="#1a1a1a"/><stop offset="0.2" stop-color="#fff"/><stop offset="0.45" stop-color="#fff"/><stop offset="0.46" stop-color="#fff"/><stop offset="0.53" stop-color="#fff"/><stop offset="0.88" stop-color="#1f1f1f"/><stop offset="0.99"/></linearGradient><clipPath id="clip-path"><path class="cls-3" d="M1929.37,485.81s-391.36-80-577.13-80S892.08,495.93,694.5,495.93,446.13,366.61,278.84,366.61,0,405.78,0,405.78V0H1929.37Z"/></clipPath><clipPath id="clip-path-2"><path class="cls-3" d="M1577.69,255.08c10.74-2.56,98.27-3,103.47,5.88a60,60,0,0,0,111.77-30.27c0-33.13,33.13-134,0-134-15.9,0-166.64-13.41-209.5,19.52C1535.88,152.7,1557.29,260,1577.69,255.08Z"/></clipPath><filter id="luminosity-noclip-2" x="1656.83" y="338.09" width="911.9" height="144.68" filterUnits="userSpaceOnUse" color-interpolation-filters="sRGB"><feFlood flood-color="#fff" result="bg"/><feBlend in="SourceGraphic" in2="bg"/></filter><mask id="mask-2" x="1656.83" y="338.09" width="911.9" height="144.68" maskUnits="userSpaceOnUse"><g class="cls-1"><polygon class="cls-2" points="2478.63 482.77 1656.84 482.77 1656.83 338.09 2568.73 338.09 2478.63 482.77"/></g></mask></defs><title>nos_offres</title><g id="Nos_offres_1" data-name="Nos offres 1"><g id="title-4" data-name="title"><g class="cls-4"><rect class="cls-5" x="4.68" y="-3.18" width="1920" height="537.53"/><g id="illustrations"><path class="cls-6" d="M-16.18,409.37a82.5,82.5,0,0,1-5.46-6.74c-8.22-11.32-14.34-24.23-24-34.37-17.34-18.21-44.72-26.09-58-47.46-3.74-6-6.15-13.19-5.11-20.21a26.61,26.61,0,0,1,4.78-11.36c11.12-15.65,34.49-18.56,52.06-10.85s30.2,23.58,40,40.05c5.42,9.09,11,19.25,20.92,23,12.81,4.85,26.53-3.14,38.13-10.42,6.93-4.35,15-8.6,22.88-9.92,22.43-24.08,93.56-33,174.49-19.63,94.64,15.62,166.82,55.81,161.22,89.75C401.22,419,345.87,434,274,429.9c-.09.06-.17.13-.26.18-10,6.56-23.91,7.66-33.88,1.05-22.94-15.47,48.45,32.13,23.39,43.65,6.92,20.61-74.31,21.14-83.49,21.14-6.28,0-77.23-9.47-101.28,1.45-21.24,9.64-45.75.82-68-6.23-14.71-4.66-29.83-8.55-45.25-9S-66,484.91-78.88,493.49s-23.86,24.13-39.28,23C-171.95,512.49-164.95,383.51-16.18,409.37Z"/><rect class="cls-7" x="43.62" y="131.83" width="148.25" height="198.41"/><polygon class="cls-7" points="98.78 330.24 98.78 51.65 76.01 51.65 76.01 -0.21 51.66 -0.21 51.66 -34.89 -2.36 -34.89 -2.36 -0.21 -26.71 -0.21 -26.71 51.65 -49.48 51.65 -49.48 330.24 98.78 330.24"/><rect class="cls-8" x="9.81" y="65.41" width="14.07" height="24.17"/><rect class="cls-8" x="38.55" y="65.41" width="14.07" height="24.17"/><rect class="cls-8" x="11.38" y="13.02" width="14.07" height="24.17"/><rect class="cls-8" x="39.39" y="13.02" width="14.07" height="24.17"/><rect class="cls-8" x="9.81" y="101.38" width="14.07" height="24.17"/><rect class="cls-8" x="38.55" y="101.38" width="14.07" height="24.17"/><rect class="cls-8" x="9.81" y="234.73" width="14.07" height="24.17"/><rect class="cls-8" x="38.55" y="234.73" width="14.07" height="24.17"/><path class="cls-9" d="M4.68,385.08c167-.72,298.61-8.89,298.61-18.85S171.65,348.1,4.68,347.38Z"/><ellipse class="cls-9" cx="105.76" cy="365.43" rx="196.58" ry="10.47"/><path class="cls-9" d="M233.63,383c0,3-42.78,5.5-95.54,5.5s-95.54-2.46-95.54-5.5Z"/><path class="cls-10" d="M21.8,363.31H40.1S29.24,355.5,24,357.09C20.23,358.22,21.8,363.31,21.8,363.31Z"/><path class="cls-10" d="M-37.12,363.31H7.43s-26.43-19-39.21-15.15C-40.93,350.93-37.12,363.31-37.12,363.31Z"/><path class="cls-10" d="M-4.66,363.31H25.88S7.76,350.28-1,352.93C-7.27,354.82-4.66,363.31-4.66,363.31Z"/><path class="cls-10" d="M93.94,363.31H123.5s-17.54-12.61-26-10.05C91.41,355.09,93.94,363.31,93.94,363.31Z"/><path class="cls-10" d="M175,363.31h20.58s-12.21-8.78-18.11-7C173.23,357.59,175,363.31,175,363.31Z"/><path class="cls-10" d="M111.43,363.31h41.15s-24.42-17.56-36.21-14C107.91,351.87,111.43,363.31,111.43,363.31Z"/><path class="cls-10" d="M144.5,363.31h34.34s-20.37-14.65-30.22-11.67C141.57,353.77,144.5,363.31,144.5,363.31Z"/><path class="cls-10" d="M284.18,65.68a10.06,10.06,0,0,1,1.09.11,16.18,16.18,0,0,1,22.48-8.66A21.13,21.13,0,0,1,348,56.6c.37,0,.74-.05,1.11-.05a16.23,16.23,0,0,1,0,32.46c-.53,0-1.05,0-1.56-.08l0,.08H284.18a11.67,11.67,0,1,1,0-23.33Z"/><path class="cls-10" d="M207.51,153c.28,0,.54.06.82.08a12.18,12.18,0,0,1,16.91-6.5,15.88,15.88,0,0,1,30.25-.4c.27,0,.55,0,.83,0a12.2,12.2,0,0,1,0,24.4,11.51,11.51,0,0,1-1.18-.06v.06H207.51a8.77,8.77,0,1,1,0-17.54Z"/><path class="cls-10" d="M130.06,82a6.31,6.31,0,0,0-.76.08,11.34,11.34,0,0,0-15.73-6.06,14.78,14.78,0,0,0-28.15-.37c-.25,0-.51,0-.77,0a11.36,11.36,0,0,0,0,22.71,9.82,9.82,0,0,0,1.09-.06v.06h44.31a8.16,8.16,0,0,0,0-16.32Z"/><path class="cls-11" d="M136.2,360.7a1.59,1.59,0,0,1-.44-3.12L148,354.09a1.59,1.59,0,1,1,.87,3.06l-12.26,3.49A1.59,1.59,0,0,1,136.2,360.7Z"/><polygon class="cls-12" points="124.63 328.28 100.81 254.12 97.15 255.39 120.96 329.55 124.63 328.28"/><path class="cls-13" d="M206.68,357.77a37.86,37.86,0,0,0,31.76-11.71,36.35,36.35,0,0,0,9.29-30.33,37.22,37.22,0,0,0-17.95-26.36,36.61,36.61,0,0,0-31.28-2.81,34.82,34.82,0,0,0-21.36,22.36,40.72,40.72,0,0,0-1.72,15.59,40,40,0,0,0,4.59,15,38.56,38.56,0,0,0,7.48,9.6,51.82,51.82,0,0,0,10.1,7.17c.81.45,1.54,1.43,1.37,2.15l-.34,1.41a.81.81,0,0,1,0,.22v.22c-.5,1.72-3.92.81-4.78-.68A26.11,26.11,0,0,1,180.6,351a46,46,0,0,1-7.79-13.76,51.12,51.12,0,0,1-3.3-14A38,38,0,0,1,171,308.81a43.33,43.33,0,0,1,20.72-25.33,42.14,42.14,0,0,1,32.91-3,43.36,43.36,0,0,1,29.89,39.55,42.86,42.86,0,0,1-3,17.31,41.43,41.43,0,0,1-21.92,22.77,48.27,48.27,0,0,1-14.56,4,34.61,34.61,0,0,1-14.91-1.72c-.93-.33-1.72-1.2-1.53-1.82.34-2.29.86-3.34,2-3.63a5.52,5.52,0,0,1,2.29,0C203.85,357.34,205.12,357.44,206.68,357.77Zm42-51a40.2,40.2,0,0,1,2.72,15.87,36.92,36.92,0,0,0-2.72-15.92Z"/><path class="cls-12" d="M165.37,322.35a46.83,46.83,0,0,1,46.74-46.82h.19c.73,0,7.2.17,10.36,1.74L221.32,280c-2.17-1.07-7.28-1.39-9.07-1.42a43.85,43.85,0,0,0-43.87,43.8Z"/><path class="cls-12" d="M13.44,314.67l-3-.54a46.83,46.83,0,0,1,54.44-37.59l-.43,3A43.83,43.83,0,0,0,13.44,314.67Z"/><path class="cls-12" d="M100.73,321.11a43.39,43.39,0,0,0-38.11-42l.35-3A46.4,46.4,0,0,1,103.74,321Z"/><path class="cls-13" d="M85.63,297.17a37.85,37.85,0,0,0-31.49-12.4A36.34,36.34,0,0,0,27,301.23a37.22,37.22,0,0,0-4.15,31.62,36.62,36.62,0,0,0,21.48,22.92,34.8,34.8,0,0,0,30.82-2.46,40.69,40.69,0,0,0,11.64-10.5,39.77,39.77,0,0,0,6.53-14.2,38.42,38.42,0,0,0,.81-12.14,51.3,51.3,0,0,0-2.75-12,2.43,2.43,0,0,1,.39-2.53l1.16-.88.17-.15.19-.12c1.51-.93,3.44,2,3.11,3.68a26.16,26.16,0,0,1,4.11,15.27,46.17,46.17,0,0,1-3.35,15.47,51.64,51.64,0,0,1-6.88,12.61,38,38,0,0,1-10.68,9.8,43.27,43.27,0,0,1-32.29,5,42.09,42.09,0,0,1-26.43-19.73A43.14,43.14,0,0,1,38.67,282.5a41.55,41.55,0,0,1,31.53-2.39,48.24,48.24,0,0,1,13.55,6.69,34.63,34.63,0,0,1,10,11.16,2.11,2.11,0,0,1,0,2.38c-1.72,1.46-2.85,1.9-3.92,1.37a5.53,5.53,0,0,1-1.72-1.58C87.5,299.3,86.63,298.43,85.63,297.17Zm-65.34,10.1a40.31,40.31,0,0,1,8.59-13.66,37.13,37.13,0,0,0-8.56,13.67Z"/><path class="cls-14" d="M87.56,277.49a5.24,5.24,0,0,1-1.6-.25l-13.27-4.18H34a5.3,5.3,0,1,1,0-10.59H74.32l14.82,4.67a5.3,5.3,0,0,1-1.58,10.35Z"/><path class="cls-15" d="M114,339.22l-53.3-9.71c-.54-.1-1.12-.18-1.72-.25-3.21-.43-8.06-1.07-8.06-6.21,0-5.32,4.79-5.73,8.63-6.05l1.71-.16c4.39-.48,21.76.12,22.5.15l-.07,2.11c-.18,0-18-.62-22.2-.16-.58.07-1.17.12-1.76.17C55,319.5,53,320,53,323.05s2.46,3.61,6.22,4.11c.63.08,1.25.16,1.82.27l53.3,9.71Z"/><rect class="cls-11" x="43.9" y="260.89" width="3.18" height="60.53" transform="translate(-116.82 45.2) rotate(-24.54)"/><path class="cls-11" d="M91.41,292.83a1.6,1.6,0,0,1-1.5-1l-4.52-12.24-8.87-3.67H38.65a1.59,1.59,0,0,1,0-3.18H77.16l10.73,4.44,5,13.55a1.59,1.59,0,0,1-.94,2A1.52,1.52,0,0,1,91.41,292.83Z"/><path class="cls-14" d="M173.29,267.94H169l4-1.53c.24-.09,24.49-9.71,29.58-33.82a35.14,35.14,0,0,0,.88-7.77c-3.62-4.18-9-7.5-14.43-7.5h-3.77l3.45-1.52c.33-.15,8.2-3.53,13,.34,2,1.66,3.15,4.37,3.33,8.08a22.39,22.39,0,0,1,3.26,5.15A25.42,25.42,0,0,1,204,256C197.63,263,182.71,267.94,173.29,267.94ZM205,226.79a40.85,40.85,0,0,1-.86,6.13c-4,19-19.52,29.31-26.78,33.16,8.89-1.11,20.38-5.51,25.47-11.12a23.82,23.82,0,0,0,4-25A19.42,19.42,0,0,0,205,226.79Zm-12.17-10.58a23.09,23.09,0,0,1,10.41,6.08,7.77,7.77,0,0,0-2.55-4.92C198.48,215.56,195.27,215.71,192.83,216.21Z"/><path class="cls-9" d="M181.27,261.82a57.94,57.94,0,0,0-8.12,6.88,97.36,97.36,0,0,0-7.27,8.44,72.44,72.44,0,0,0-10,18.73,104.7,104.7,0,0,1-10.32,21.2,58.31,58.31,0,0,1-7.77,9.33c-.78.73-1.57,1.38-2.39,2.1s-2.39,1.72-3.6,2.53a26.18,26.18,0,0,1-7.77,3.15c-1.29.19-2.58.43-3.92.51l-1.94-3.16-1-1.58a3.51,3.51,0,0,1-.43-1l-.39-1.08-1.6-4.38-.38-1-.26-.63-.53-1.28L112.47,318c-.76-1.69-1.54-3.36-2.36-5a93.77,93.77,0,0,1-7.25-21.11c-1.22-5.59-2.94-11.15-2.39-17.2,0-.67,1.12-1.72,2.49-2.2l2.73-.93.43-.15.43-.14c3.44-1.08,4.61.7,3,2.1,5.35,4.83,3.44,12.43,4.88,18.57,1.33,5.71,4.85,10.8,6.66,16.38,1,3.19,2.15,6.35,3.33,9.48a9.9,9.9,0,0,0,1.09,2.44,8.3,8.3,0,0,0,.67,1c0,.1.15,0,.27,0l.33-.19a4.57,4.57,0,0,0,.57-.41,4.66,4.66,0,0,0,.77-.83l.14-.19.65-.65a19.7,19.7,0,0,0,1.43-1.46c.46-.54.94-1,1.39-1.55l1.34-1.72a63.58,63.58,0,0,0,8.74-16.3l1.6-4.54,1.82-5,1-2.58,1.12-2.53a52.71,52.71,0,0,1,2.39-5,60.65,60.65,0,0,1,12.47-16.51c2.35-2.27,4.64-4.69,7.15-7a22.21,22.21,0,0,1,9.1-5.16,1.74,1.74,0,0,1,1.34.43,4.53,4.53,0,0,1,1.2,1.41,40.77,40.77,0,0,1,2,4.89l.5,1.56a7.12,7.12,0,0,1,.17,1.14C183.66,260.34,182.82,260.75,181.27,261.82Zm-33.46,36.85,3.74-9.46c-.7,1.57-1.39,3.15-2,4.73S148.3,297.07,147.81,298.67Z"/><path class="cls-9" d="M150.42,298.75a20.66,20.66,0,0,1-3.85,5.33,24.14,24.14,0,0,1-4.94,3.89,21,21,0,0,1-5.76,2.25c-1.94.45-3.8.73-5.74,1s-4,.52-6,.73a11.58,11.58,0,0,1-6.15-1.14,8,8,0,0,1-3.92-3,1.42,1.42,0,0,1,.31-1.17l.62-.88.1-.14.1-.13c.76-1.1,1.19-1.09,1-.36,1.83-.5,2.53,1.44,4,2.09a13.37,13.37,0,0,0,4.18.33,29.44,29.44,0,0,0,9.37-1.34,16,16,0,0,0,7.79-4c1-.88,2-1.86,3-2.89s1.24-2.51,2.42-3.44a1.64,1.64,0,0,1,1.05.21C151,297.58,151,297.71,150.42,298.75Zm-11.21,7.74a14.48,14.48,0,0,0,2.13-1.22Z"/><path class="cls-12" d="M189,233.69l1-.4-.4-1-.84-2.05-.39-1-.06.06-1,.39a27.45,27.45,0,0,0-7.1,3.8,12.21,12.21,0,0,0-4.28,8.6,34.55,34.55,0,0,0,1.72,7.43l2.89,8.05.36,1,1-.36,2.08-.74,1-.36-.37-1-2.87-8a33.09,33.09,0,0,1-1.44-6,7.92,7.92,0,0,1,2.68-5.37A24.31,24.31,0,0,1,189,233.69Z"/><path class="cls-16" d="M191.05,268.85l-1,.41a1.21,1.21,0,0,0,.14-1.05l-6.4-18.69v-.1l-2.27-5.16a1.22,1.22,0,0,0-1.53-.65l-5,1.82a1.24,1.24,0,0,0-.74,1.55l6.88,20.13v.14l1.72,3.7a1.22,1.22,0,0,0,1.57.65h0l-1.5.63,1.22,3,8.08-3.36Z"/><path class="cls-9" d="M209.28,322a62,62,0,0,1-4.39-7.13c-2.4-4.6-5-9-7.32-13.64s-4.32-9.2-7-13.58a25.82,25.82,0,0,1-2.92-7.16,16,16,0,0,1-.86-5.95c0-.24.43-.6.94-.77l1-.34h.31c1.28-.4,1.71.18,1.08.68,1.94,1.58,1.2,4.18,1.72,6.24a48,48,0,0,0,2.66,5.2c1.72,4.19,4.13,8.05,6.18,12s4.55,8,6.87,12c1.07,1.82,2.07,3.73,3,5.64s2.44,3.22,3.08,5.16a1.54,1.54,0,0,1-.6.91C210.33,323.38,210.17,323.24,209.28,322Zm-6.88-16.76c.57,1,1.08,2,1.72,3a30.61,30.61,0,0,0-1.68-3Z"/><path class="cls-9" d="M105.06,284.81C102.51,287,99.9,289,97.15,291c-5,3.64-9.7,7.65-14.51,11.57A130.84,130.84,0,0,0,69,314.78a42.79,42.79,0,0,1-7,6,25.06,25.06,0,0,1-6.17,3.64,1.32,1.32,0,0,1-1.15-.53l-.71-.82-.12-.12-.1-.14c-.86-1.05-.33-1.72.4-1.4,1.11-2.68,4.23-3.25,6.34-4.74s3.44-3.44,5.3-5c4.26-3.54,8.13-7.53,12.36-11.11s8.6-7.46,13-11.07a63,63,0,0,1,6.34-4.63c2.19-1.44,3.67-3.44,5.92-4.45.22-.11.72.12,1,.48C106.69,283.42,106.45,283.62,105.06,284.81ZM86.5,296.24l3.25-2.64A39,39,0,0,0,86.5,296.24Z"/><path class="cls-9" d="M118.25,330.36c-3.44-.19-6.76-.55-10.13-1-6.24-.84-12.47-1.18-18.74-1.72A133.46,133.46,0,0,0,70.84,327a44.26,44.26,0,0,1-9.34-.5,25.77,25.77,0,0,1-7.08-1.64,1.28,1.28,0,0,1-.48-1.18v-1.43c.1-1.34,1-1.5,1.27-.74,2.7-1.17,5.38.59,8,1s5-.13,7.41,0c5.6.4,11.24.19,16.83.54s11.49.51,17.2.94c2.63.21,5.28.57,7.89,1s5,.11,7.45.88c.24,0,.43.59.43,1.05C120.45,330.48,120.1,330.46,118.25,330.36Zm-21.6-4.57,4.25.34A37.83,37.83,0,0,0,96.65,325.79Z"/><path class="cls-14" d="M194.75,229.58l-4.16-10.15a3.11,3.11,0,0,0-2.91-1.94v0a3.15,3.15,0,0,0-1.18.24l-1.35.55a3.15,3.15,0,0,0-1.73,1.8,5.5,5.5,0,0,0-1.34-.27v-.08a4.14,4.14,0,0,0-1.51.29,4.36,4.36,0,0,0-2.54,2.87,6.18,6.18,0,0,0,.2,4.09,5.61,5.61,0,0,0,4.95,3.77,4.15,4.15,0,0,0,1.52-.29,5.28,5.28,0,0,0,1.55-1.2l1.34,3.26a3.13,3.13,0,0,0,4.07,1.73h0l1.34-.55A3.15,3.15,0,0,0,194.75,229.58Z"/><path class="cls-14" d="M184.19,224.8l-.6-1.22a2.79,2.79,0,0,0-3.75-1.28l-12.79,6.35a2.79,2.79,0,0,0-1.27,3.75l.6,1.22a2.81,2.81,0,0,0,3.75,1.27l12.79-6.34A2.81,2.81,0,0,0,184.19,224.8Z"/><path class="cls-14" d="M118.4,249.63a4,4,0,0,0-1.36-2,7.81,7.81,0,0,0-1.72-1,14.89,14.89,0,0,0-3.26-1c-1.83-.34-2.56-.34-2.74.64a.87.87,0,0,0-.67-.72c-3-.62-6-.23-8.39-.81a23.43,23.43,0,0,1-4.78-1.89,15.63,15.63,0,0,0-6-1.72,8.17,8.17,0,0,0-6.4,2.21,6,6,0,0,0-1.53,3.27,7.91,7.91,0,0,0,.36,3.35A11.84,11.84,0,0,0,85.44,255a14.7,14.7,0,0,0,5.26,3,12.44,12.44,0,0,0,6.26.41,14.41,14.41,0,0,0,5.5-2.72,8.89,8.89,0,0,1,4.47-2c1.65,0,3.6.47,5.63.59a8.52,8.52,0,0,0,3.68-.43,3.75,3.75,0,0,0,1.84-1.72A3.46,3.46,0,0,0,118.4,249.63Z"/><path class="cls-11" d="M52.51,308.34a1.56,1.56,0,0,1-1.2-.55,1.58,1.58,0,0,1,.16-2.24l36.74-32A1.59,1.59,0,1,1,90.3,276L53.55,308A1.58,1.58,0,0,1,52.51,308.34Z"/><path class="cls-14" d="M101.22,323.5c12.18,1.91,11.46,18.62,11.46,18.62s6,.72,9.54,1,14.32.73,15.27-12.65-12.9-14.81-12.9-14.81-33.89-1-42.49-1a20,20,0,0,0-10.54,2.65,1,1,0,0,0-.41.62,1,1,0,0,0,.77,1.1C77.37,319.84,91.54,322,101.22,323.5Z"/><path class="cls-11" d="M142.1,357.52a1.59,1.59,0,0,1-1.38-.79l-15.28-26.26a1.58,1.58,0,0,1,.57-2.17,1.6,1.6,0,0,1,2.18.57l15.28,26.26a1.58,1.58,0,0,1-.57,2.17A1.56,1.56,0,0,1,142.1,357.52Z"/><path class="cls-17" d="M124.59,341a10.8,10.8,0,1,1,10.8-10.8A10.8,10.8,0,0,1,124.59,341Zm0-20.53a9.74,9.74,0,1,0,9.74,9.73A9.75,9.75,0,0,0,124.59,320.42Z"/><path class="cls-10" d="M160.29,273a1.5,1.5,0,1,1,.47,2.07h0A1.51,1.51,0,0,1,160.29,273Zm-1-.65a2.7,2.7,0,1,0,3.73-.84,2.68,2.68,0,0,0-3.73.84Z"/><path class="cls-10" d="M159.72,278.07a5,5,0,0,0,.28-2.34,6,6,0,0,0-3.1-4.32l-.51-.32-1.14,1.72,1,.65.47-.74a4.27,4.27,0,0,1,1.92,4.42l-5.52-1-1,1.62,1,.65.59-.92,5.72,1Z"/><path class="cls-10" d="M159.05,279a2.7,2.7,0,1,1-1.15-.72.76.76,0,0,0-.31.28l-.52.8a1.63,1.63,0,0,0-.65.15,1.5,1.5,0,1,0,2,.7l.51-.81A.72.72,0,0,0,159.05,279Z"/><path class="cls-10" d="M158.69,279.25a.5.5,0,0,0-.15-.67.49.49,0,0,0-.67.16l-1.09,1.72a.49.49,0,0,0,.83.51l1.08-1.72Z"/><g class="cls-18"><g id="Calque_2" data-name="Calque 2"><g id="textes"><path class="cls-6" d="M1708,324.79V233.34c0-13.7,7.07-26,17.67-30.59l8.52-3.73a22.46,22.46,0,0,1,17.67-.26l4.89,2c11,4.44,18.4,16.86,18.4,30.86v23.22c0,12.53-5.94,23.93-15.27,29.34l-51.88,30"/><path class="cls-19" d="M1707.56,228a6.18,6.18,0,0,0-10.4-6.67c-8.46,12-21.73,18-33.8,15.36-10-2.22-17-10.33-19.13-22.26a6.19,6.19,0,1,0-12.18,2.18c3,16.83,13.71,28.85,28.63,32.16,17,3.76,35.25-4.21,46.59-20.31A4.43,4.43,0,0,0,1707.56,228Z"/><path class="cls-20" d="M1710.94,175.29a27.32,27.32,0,0,0,7.88,19.07,25.93,25.93,0,0,0,18.7,7.7,27,27,0,1,0-26.58-26.82Z"/><path class="cls-21" d="M1737.19,202.84h.34a.78.78,0,0,0,0-1.56h-.32a26,26,0,0,1-18.32-7.49.78.78,0,0,0-1.09,1.11A27.57,27.57,0,0,0,1737.19,202.84Z"/><path class="cls-14" d="M1725.43,184.16a9.63,9.63,0,0,1-10.83-4.7c-.66-1.2,1.18-2.3,1.76-1.08a7.47,7.47,0,0,0,8.43,3.71,1.08,1.08,0,0,1,.57,2.07Z"/><path class="cls-21" d="M1748.16,163.82c0-1.72-.57-6.31,1.15-5.74,2.67.79,7.83,7.39,10.33,8.61s5.87,4,5.94,7.22c-2.7-1.17-2.42,0-4,1.91a3.93,3.93,0,0,1-3.18,1.55,2.4,2.4,0,0,1-2.25-2.42,3.26,3.26,0,0,1-3.21,3.3,3.66,3.66,0,0,1-.57-.05,3.24,3.24,0,0,1-2.16-4.06,3.66,3.66,0,0,1,.18-.46,2.07,2.07,0,0,1-2.7-1,5.81,5.81,0,0,1-.41-3.16C1747.31,168.78,1748.16,165.18,1748.16,163.82Z"/><ellipse class="cls-20" cx="1760.57" cy="178.7" rx="7.1" ry="5.55" transform="translate(1059.02 1803.32) rotate(-72.44)"/><polyline class="cls-20" points="1720.96 175.75 1715.55 171.81 1724.23 163.76"/><path class="cls-14" d="M1721,176.53a.8.8,0,0,0,.63-.33.77.77,0,0,0-.18-1.08l-4.64-3.39,8-7.4a.77.77,0,1,0-1.06-1.13l-9.37,8.68,6.17,4.5A.79.79,0,0,0,1721,176.53Z"/><path class="cls-20" d="M1758.33,185.84c2.92.92,6.26-1.36,7.44-5.11s-.23-7.53-3.14-8.45"/><path class="cls-14" d="M1759.65,186.82c2.88,0,5.76-2.35,6.87-5.86a8.68,8.68,0,0,0-.41-6.58,5.58,5.58,0,0,0-3.25-2.84.78.78,0,0,0-.46,1.49,4,4,0,0,1,2.34,2.07,7.1,7.1,0,0,1,.29,5.39c-1,3.33-3.93,5.39-6.46,4.61a.77.77,0,0,0-1,.5.78.78,0,0,0,.51,1A5.17,5.17,0,0,0,1759.65,186.82Z"/><path class="cls-19" d="M1630.5,213.18c-3.35-1.64-8.61,2.3-12.06-2.29-1.57-2.1,14.78-18.52,17.38-18.87a8,8,0,0,0,4.82,7.49,5.29,5.29,0,0,0-5.33,3.7l8.54-4.47c.93-.48,2.15-1,3-.31,1,.87.24,2.54-.57,3.62l-5,6.53c4.06.47,3.35,6.4-.17,7.07C1636.81,216.1,1633.77,216,1630.5,213.18Z"/><path class="cls-6" d="M1715.59,225.9a2.73,2.73,0,0,1-1.63,0l6.44-20.2c-11.35-3.62-20.61,4.65-24.3,10.11-16,23.05-32.14,18.68-32.3,18.63l-6.46,20.2c1.26.41,31.09,9.43,56.26-26.85A7.06,7.06,0,0,1,1715.59,225.9Z"/><path class="cls-21" d="M1748.4,284.45h0a1.77,1.77,0,0,0,1.72-1.82L1749,240.22a1.77,1.77,0,0,0-3.54.1l1.19,42.41A1.76,1.76,0,0,0,1748.4,284.45Z"/><path class="cls-21" d="M1672,145.63c1.4,0,2.64,2,1.14,2.88a28.55,28.55,0,0,1-7.68,2.55,22.18,22.18,0,0,1-7.28,1.05,1.19,1.19,0,0,1-1-1.35,1.23,1.23,0,0,1,.47-.78,24.44,24.44,0,0,1,6.92-2.56A30.53,30.53,0,0,1,1672,145.63Z"/><path class="cls-21" d="M1656.25,135.12a45.6,45.6,0,0,1-4.46,7.79c-1.13,1.48-3.2,0-2.65-1.61a43.44,43.44,0,0,1,3.83-7.54C1654.11,131.75,1657.28,133,1656.25,135.12Z"/><path class="cls-21" d="M1637.73,129.69a49.91,49.91,0,0,1,1.71,8.88,1.46,1.46,0,0,1-2.81.71,49.59,49.59,0,0,1-2.61-8.6C1633.57,128.53,1637.13,127.61,1637.73,129.69Z"/><path class="cls-6" d="M1800.08,141.69c1.19-10.42-11.84-17.45-18.34-12.13,1.13-2.64.81-15.42-16.42-21.24-16.6-5.24-26.29,5.24-26.29,5.24s-12.63-11-21.79-2.3c-5.81,6.85.21,19.36,13.17,17.89-3.36,6.3-10.3,21.7-10.69,23.4,0,0,25.71-1.55,46.88,20.92l.2.11A91.7,91.7,0,0,1,1776,152C1777.61,152.48,1796.1,159.2,1800.08,141.69Z"/><path class="cls-22" d="M1782.56,141.25a18,18,0,0,1-6.18,2.1l6.18-2.1-2.41-5.57s8.62-15.6-7.13-23.3c0,0,9.55,8.12,3.63,15.67s-23.59,9-34.59,1.08c-4.08-4-4-10.08-4-10.08l.21-2.79s-17.58,14.16-23.1,1.49c1.2,7.27,5.19,13.56,15.29,11.4a63.23,63.23,0,0,1,6.48,3.23l-1.53,12.18,4.86-10.43c5.37,2.74,11.94,5.62,18.45,6.13a16.46,16.46,0,0,1,4.32,4.35l-11.56,16.75a67.75,67.75,0,0,1,15.17,12.11l.2.11a96.11,96.11,0,0,1,7.84-19.2c.29-.74.58-1.41.86-2l.26.08c.1-.15.18-.31.28-.47,1.44.45,17.18,6.15,22.8-6.53.05-.22.09-.43.13-.65C1794.5,152.11,1784.59,146.29,1782.56,141.25Z"/><path class="cls-21" d="M1690.89,208.05l-124.67,2.2,20.62-5.07s4.65-34.49,44.85-37.81c29.89-3,43.76,35.73,43.76,35.73Z"/><path class="cls-23" d="M1641.72,170.38s21.34,9,28.6,29.61c-19,3-57.44-.11-57.44-.11l19.18-28.77S1634.52,167.77,1641.72,170.38Z"/><path class="cls-19" d="M1637.72,171.44s17.65,5.56,24,16.31c-8.12,2-33-7.48-33-7.48S1633,170.56,1637.72,171.44Z"/><polygon class="cls-21" points="1633.87 169.57 1637.28 161.76 1629.26 160.86 1630.58 169.56 1633.87 169.57"/><path class="cls-14" d="M1726.76,167h.07a.94.94,0,0,0,1-.88,1.75,1.75,0,0,1,1.87-1.64,1.73,1.73,0,0,1,1.64,1.87c0,.08,0,.17,0,.26a.94.94,0,0,0,.74,1.12,1,1,0,0,0,1.12-.74,4.17,4.17,0,0,0,.08-.51,3.66,3.66,0,0,0-6.07-3,3.6,3.6,0,0,0-1.24,2.51A1,1,0,0,0,1726.76,167Z"/><path class="cls-14" d="M1722.1,163h.07a.94.94,0,0,0,1-.89,3.66,3.66,0,0,0-7.23-1,1,1,0,1,0,1.86.4,1.76,1.76,0,0,1,3.47.49A1,1,0,0,0,1722.1,163Z"/></g></g></g><rect class="cls-23" x="1656.83" y="332.21" width="344.45" height="150.56"/><rect class="cls-21" x="1650.05" y="304.2" width="351.24" height="33.9"/><rect class="cls-24" x="1656.83" y="338.09" width="344.46" height="11.34"/><g class="cls-25"><polygon class="cls-7" points="2001.28 482.77 1656.84 482.77 1656.83 338.09 2001.29 338.09 2001.28 482.77"/></g><polygon class="cls-26" points="2001.29 304.2 1649.54 304.2 1661.03 278.34 2001.29 278.34 2001.29 304.2"/><path class="cls-22" d="M1807.27,282.43c-2,0-4,3-6.26,2-3-1.63-6-1.24-9-1.06V297a1.19,1.19,0,0,0,1.19,1.19h26.49a1.19,1.19,0,0,0,1.19-1.19V284.73C1816.36,283.59,1811.82,282.43,1807.27,282.43Z"/><path class="cls-27" d="M1820.91,258.68V297a1.14,1.14,0,0,1-1.14,1.14h-20.7c2.44-1.27,8.19-5.34,11.17-16.47,2-7.29.8-16.62-.8-24a.54.54,0,0,1,.53-.66h9.25A1.69,1.69,0,0,1,1820.91,258.68Z"/><rect class="cls-28" x="1796.84" y="256.78" width="1.1" height="41.44"/><rect class="cls-28" x="1793.33" y="256.78" width="2.2" height="41.38"/><path class="cls-29" d="M1818.32,298.15h-23.69a2.59,2.59,0,0,1-2.59-2.59V259.37a2.59,2.59,0,0,1,2.59-2.59h21a5.25,5.25,0,0,1,5.24,5.24v33.54C1820.91,297,1821.24,298.15,1818.32,298.15Z"/><path class="cls-30" d="M1793.23,256.78c4-.07,7.93-.1,11.9-.16l11.9-.09h1.48a2.66,2.66,0,0,1,2.68,2.61c0,1,0-.15,0,6.7,0,14.78,0,8,0,29.74,0,.14,0,1.39,0,1.51a1.48,1.48,0,0,1-1.12,1.31c-.26.07-2.76,0-3,0l-11.9-.1c-4-.05-7.93-.08-11.9-.16,4-.07,7.93-.1,11.9-.16l11.9-.09c.21,0,2.7,0,2.9,0a.92.92,0,0,0,.69-.81c0-.07,0-1.4,0-1.47,0-21.7,0-15.06,0-29.74,0-6.85,0-5.66,0-6.69a2.13,2.13,0,0,0-2.11-2.09H1817l-11.9-.1C1801.16,256.89,1797.2,256.86,1793.23,256.78Z"/><path class="cls-31" d="M1818,252.29v4.47c0,.5-5.27.91-11.78.91s-11.77-.41-11.77-.91v-4.47Z"/><path class="cls-21" d="M1818,252.29v4.47c0,.5-5.27.91-11.78.91s-11.77-.41-11.77-.91h0c1.33-.37,3.11-.85,5.35-1.41a9.45,9.45,0,0,0,5.07-3.05Z"/><path class="cls-32" d="M1806.2,253.11c-7.35,0-11.58-.49-11.69-.82.11-.34,4.34-.82,11.69-.82s11.59.48,11.7.82C1817.79,252.62,1813.56,253.11,1806.2,253.11Z"/><path class="cls-33" d="M1806.2,251.55c6.81,0,10.94.41,11.56.74-.62.32-4.75.74-11.56.74s-10.94-.42-11.56-.74c.62-.33,4.76-.74,11.56-.74Zm0-.17c-6.5,0-11.77.41-11.77.91s5.27.91,11.77.91,11.78-.41,11.78-.91-5.27-.91-11.78-.91Z"/><path class="cls-34" d="M1807.42,250.91a1.21,1.21,0,0,1-1.22,1.21,1.14,1.14,0,0,1-.76-.27,1.19,1.19,0,0,1-.45-.94,1.21,1.21,0,0,1,1.87-1A1.19,1.19,0,0,1,1807.42,250.91Z"/><path class="cls-35" d="M1807.42,250.91a1.21,1.21,0,0,1-1.22,1.21,1.14,1.14,0,0,1-.76-.27c1.73-.25,1.69-1.25,1.42-2A1.19,1.19,0,0,1,1807.42,250.91Z"/><path class="cls-36" d="M1818.89,271.34c0,2.49-5.06,4.5-11.3,4.5s-11.3-2-11.3-4.5,5.06-4.5,11.3-4.5S1818.89,268.85,1818.89,271.34Z"/><path class="cls-21" d="M1848.43,277.57c-2.58,0-5.16,3.87-8.16,2.58-3.9-2.13-7.8-1.62-11.7-1.38v17.75a1.54,1.54,0,0,0,1.55,1.55h34.54a1.54,1.54,0,0,0,1.54-1.55V280.57C1860.28,279.08,1854.35,277.57,1848.43,277.57Z"/><path class="cls-27" d="M1866.2,246.6v50a1.48,1.48,0,0,1-1.47,1.49h-27c3.18-1.65,10.68-7,14.56-21.48,2.55-9.51,1-21.67-1-31.32a.71.71,0,0,1,.69-.86H1864A2.19,2.19,0,0,1,1866.2,246.6Z"/><rect class="cls-28" x="1834.82" y="244.13" width="1.43" height="54.03"/><rect class="cls-28" x="1830.24" y="244.13" width="2.86" height="53.96"/><path class="cls-29" d="M1862.83,298.07H1832a3.38,3.38,0,0,1-3.38-3.38V247.5a3.37,3.37,0,0,1,3.38-3.37h27.43a6.82,6.82,0,0,1,6.82,6.82v43.74C1866.2,296.56,1866.63,298.07,1862.83,298.07Z"/><path class="cls-30" d="M1830.12,244.13c5.17-.1,10.34-.14,15.51-.21l15.51-.12,1.94,0a3.48,3.48,0,0,1,3.49,3.41c0,1.35,0-.2,0,8.73.05,19.27.06,10.44,0,38.79,0,.17,0,1.8,0,2a1.89,1.89,0,0,1-1.46,1.69c-.34.1-3.6,0-4,0l-15.51-.12c-5.17-.07-10.34-.11-15.51-.21,5.17-.1,10.34-.14,15.51-.21l15.51-.12c.28,0,3.53,0,3.79-.06a1.19,1.19,0,0,0,.9-1.06c0-.09,0-1.83,0-1.91-.07-28.31-.06-19.64,0-38.79,0-8.93,0-7.38,0-8.72a2.79,2.79,0,0,0-2.75-2.73l-1.94,0-15.51-.11C1840.46,244.26,1835.29,244.22,1830.12,244.13Z"/><path class="cls-37" d="M1862.39,238.26v5.84c0,.65-6.88,1.18-15.36,1.18s-15.36-.53-15.36-1.18v-5.84Z"/><path class="cls-21" d="M1862.39,238.26v5.84c0,.65-6.88,1.18-15.36,1.18s-15.36-.53-15.36-1.18v0c1.74-.48,4.06-1.11,7-1.84a12.27,12.27,0,0,0,6.61-4Z"/><path class="cls-32" d="M1847,239.34c-9.59,0-15.1-.64-15.25-1.08.15-.43,5.66-1.07,15.25-1.07s15.11.64,15.25,1.08C1862.14,238.7,1856.63,239.34,1847,239.34Z"/><path class="cls-33" d="M1847,237.3c8.87,0,14.27.54,15.08,1-.81.43-6.21,1-15.08,1s-14.26-.54-15.07-1c.81-.42,6.2-1,15.07-1Zm0-.22c-8.48,0-15.35.53-15.35,1.18s6.87,1.19,15.35,1.19,15.36-.53,15.36-1.19-6.88-1.18-15.36-1.18Z"/><path class="cls-34" d="M1848.62,236.46a1.59,1.59,0,0,1-1.59,1.59,1.58,1.58,0,0,1-1.58-1.59,1.58,1.58,0,0,1,1.58-1.58,1.55,1.55,0,0,1,.86.25A1.6,1.6,0,0,1,1848.62,236.46Z"/><path class="cls-35" d="M1848.62,236.46a1.59,1.59,0,0,1-1.59,1.59,1.55,1.55,0,0,1-1-.35c2.25-.33,2.19-1.64,1.85-2.57A1.6,1.6,0,0,1,1848.62,236.46Z"/><path class="cls-36" d="M1863.57,263.11c0,3.24-6.59,5.87-14.73,5.87s-14.73-2.63-14.73-5.87,6.59-5.87,14.73-5.87S1863.57,259.87,1863.57,263.11Z"/></g></g></g></g></svg>