<svg xmlns="http://www.w3.org/2000/svg" xmlns:xlink="http://www.w3.org/1999/xlink" viewBox="0 0 144 86"><defs><style>.cls-1{fill:none;}.cls-2{fill:#fff;}.cls-3{fill:#e8bc95;}.cls-4{clip-path:url(#clip-path);}.cls-5{fill:#3a2722;}</style><clipPath id="clip-path"><polygon class="cls-1" points="35.94 22.18 72 1.36 108.06 22.18 108.06 63.82 72 84.64 35.94 63.82 35.94 22.18"/></clipPath></defs><title>nos_offres_immobilier</title><g id="Calque_116" data-name="Calque 116"><circle class="cls-2" cx="72" cy="43" r="42.99"/></g><g id="Nos_offres_4" data-name="Nos offres 4"><g id="bloc_2-2" data-name="bloc 2"><path class="cls-3" d="M99.48,55.06a22.4,22.4,0,0,0,.08-2.83l-4.78-1.4L93.68,46l3.7-3.34a24.53,24.53,0,0,0-2.94-4.93l-4.7,1.69L86,36.18l1-4.89a24.56,24.56,0,0,0-5.12-2.2L79.1,33.2l-4.93-.47-2-4.58a25.17,25.17,0,0,0-5.62,1.25l.14,5-4.27,2.52L58.11,34.4a24.35,24.35,0,0,0-3.79,4.31l3,3.95-2,4.54-5,.51a23.6,23.6,0,0,0-.53,5.71l4.78,1.42,1.08,4.82L52,63A25.15,25.15,0,0,0,55,67.94l4.7-1.67,3.72,3.26-1,4.88a24.84,24.84,0,0,0,5.28,2.28l2.82-4.13,4.92.45,2,4.58A25,25,0,0,0,83,76.31l-.15-5,4.25-2.53,4.32,2.5A24.84,24.84,0,0,0,95.2,67L92.14,63l2-4.55,5-.52A24.83,24.83,0,0,0,99.48,55.06ZM84.78,67.54A17.78,17.78,0,1,1,89.4,42.79,17.78,17.78,0,0,1,84.78,67.54Z"/><g class="cls-4"><path class="cls-2" d="M63.91,27.43a8.84,8.84,0,0,1-.63-1.69,2.5,2.5,0,0,0-.64-1.27,1.65,1.65,0,0,0-1.59.75,1.36,1.36,0,0,1-.08.32,3.61,3.61,0,0,1-1.69,1.69.33.33,0,0,1-.14,0c-.25,0-24.77,3.2-26.58,3.5-2.11.35-2.9-.8-2.93-.85a.31.31,0,0,1-.06-.13L26.14,17.18l-1.51.37L27.8,32.9a.5.5,0,0,1-.11.39L9.9,53.06a.45.45,0,0,1-.13.1l-.1.06a.47.47,0,0,1-.28.07H9.31a1.32,1.32,0,0,0-.87,2.27,1.3,1.3,0,0,0,.93.36,1.32,1.32,0,0,0,.9-.38.44.44,0,0,1,.32-.13h.05c3.83.43,23,2.62,24.08,2.67a1.82,1.82,0,0,0,1.51-.8l.06-.08c.07-.06,6.38-6.4,12.69-12.65,12.87-12.78,13.1-12.79,13.38-12.79a.88.88,0,0,1,.84.68,2.6,2.6,0,0,0,1.49-.69l.16-.12a.14.14,0,0,1,0-.06C65.35,30.72,64.49,28.74,63.91,27.43ZM58.82,30c-.8.77-17.88,17.16-20,19.17a19,19,0,0,1-1.54,1.31c-.74.54-1,.59-1.28.54-.59-1.17-2.81-10-4.7-18l27.5-3.47a1.92,1.92,0,0,1,.32,0A1.71,1.71,0,0,1,58.82,30Z"/><path class="cls-5" d="M75,55.35a2.4,2.4,0,0,1-.28-4.79,2.41,2.41,0,0,1,2.67,2.1,2.4,2.4,0,0,1-2.1,2.67Zm0-3.9h-.18a1.49,1.49,0,0,0-1.31,1.66,1.52,1.52,0,0,0,.56,1,1.47,1.47,0,0,0,1.1.31,1.52,1.52,0,0,0,1-.56,1.47,1.47,0,0,0,.31-1.1h0A1.49,1.49,0,0,0,75,51.45Z"/><path class="cls-5" d="M75,54.4a1.46,1.46,0,1,1,1.45-1.63h0a1.45,1.45,0,0,1-1.27,1.62Zm0-2H74.9a.55.55,0,0,0-.27,1,.51.51,0,0,0,.4.11.55.55,0,0,0-.07-1.1Z"/><path class="cls-5" d="M75,68.77a15.88,15.88,0,1,1,1.91-.12A15.43,15.43,0,0,1,75,68.77ZM75,38a15.87,15.87,0,0,0-1.82.11,14.92,14.92,0,1,0,16.6,13h0A14.93,14.93,0,0,0,75,38Z"/><rect class="cls-5" x="79.07" y="53.6" width="0.91" height="13.42" transform="translate(-19.83 50.86) rotate(-31.75)"/><rect class="cls-5" x="69.96" y="38.87" width="0.91" height="13.42" transform="translate(-13.45 43.86) rotate(-31.74)"/><rect class="cls-5" x="81.72" y="51.04" width="0.91" height="13.42" transform="translate(-11.48 94.03) rotate(-56.28)"/><rect class="cls-5" x="67.31" y="41.42" width="0.91" height="13.42" transform="translate(-9.89 77.77) rotate(-56.28)"/><rect class="cls-5" x="82.98" y="48.06" width="0.91" height="13.42" transform="translate(12.24 124.73) rotate(-77.79)"/><rect class="cls-5" x="66.05" y="44.4" width="0.91" height="13.42" transform="translate(2.47 105.29) rotate(-77.78)"/><rect class="cls-5" x="76.8" y="51.09" width="13.42" height="0.91" transform="translate(-7.23 14.16) rotate(-9.29)"/><rect class="cls-5" x="59.71" y="53.89" width="13.42" height="0.91" transform="translate(-7.9 11.44) rotate(-9.29)"/><rect class="cls-5" x="75.69" y="48.06" width="13.42" height="0.9" transform="translate(-13.22 49.02) rotate(-30.79)"/><rect class="cls-5" x="60.81" y="56.92" width="13.42" height="0.9" transform="translate(-19.85 42.66) rotate(-30.79)"/><rect class="cls-5" x="73.55" y="45.64" width="13.42" height="0.9" transform="translate(-5.29 81.41) rotate(-52.3)"/><rect class="cls-5" x="62.96" y="59.34" width="13.42" height="0.9" transform="translate(-20.25 78.36) rotate(-52.3)"/><rect class="cls-5" x="70.67" y="44.18" width="13.42" height="0.91" transform="translate(12.92 106.47) rotate(-73.78)"/><rect class="cls-5" x="65.84" y="60.81" width="13.42" height="0.91" transform="translate(-6.53 113.81) rotate(-73.78)"/><rect class="cls-5" x="73.48" y="37.63" width="0.91" height="13.42" transform="translate(-4.77 9.15) rotate(-6.86)"/><rect class="cls-5" x="75.55" y="54.83" width="0.91" height="13.42" transform="translate(-6.81 9.52) rotate(-6.86)"/><path class="cls-5" d="M30.77,43.56c-1.79-8-2.18-8.09-2.5-8.2-.76-.26-1.93.84-6,5.62l-.54.64c-1.19,1.39-4.51,4.62-7.18,7.22-2.26,2.21-3.56,3.47-3.78,3.79l-.44.61a.45.45,0,0,0,0,.54,1.33,1.33,0,0,1,.28.7.45.45,0,0,0,.28.38,6.84,6.84,0,0,0,2.36.37c.57,0,12.63.44,16.07.44l.82,0c1.64-.15,2.51-1.27,2.37-3.08C32.49,51.69,31.67,47.57,30.77,43.56ZM30.1,54.75c-1,.09-11.42-.24-16.77-.42a7.34,7.34,0,0,1-1.82-.23,2.15,2.15,0,0,0-.24-.59l.25-.35c.19-.27,2-2,3.68-3.67,2.69-2.61,6-5.86,7.24-7.29l.54-.64C24.32,40,27,36.78,27.92,36.29c.84,1.8,3.6,14.65,3.73,16.35C31.75,54,31.26,54.65,30.1,54.75Z"/><path class="cls-5" d="M58.64,28.67l-28,3.53a.48.48,0,0,0-.31.19.47.47,0,0,0-.07.36l0,.13c.2.87,1.29,5.48,2.4,9.89,2.26,9,2.53,9,2.89,9.13a1.93,1.93,0,0,0,.52.08,2.82,2.82,0,0,0,1.67-.73,18.92,18.92,0,0,0,1.62-1.37c2.22-2.06,19.92-19,20.1-19.21l0-.05c.17-.22.68-1,.35-1.54C59.67,28.73,59.26,28.6,58.64,28.67ZM58.82,30c-.8.77-17.88,17.16-20,19.17a19,19,0,0,1-1.54,1.31c-.73.54-1,.59-1.28.54-.59-1.17-2.81-10-4.7-18l27.5-3.47a1.92,1.92,0,0,1,.32,0A1.48,1.48,0,0,1,58.82,30Z"/><path class="cls-5" d="M62.22,20.52a.43.43,0,0,0,.21-.33s0-.06,0-.09V20a3.47,3.47,0,0,1,.4-.51A4.09,4.09,0,0,0,65.11,21c1.19.22,4.56-.41,5.78-.52s2.36-.79,3.66-2.62,4.11-6.72,4.68-7.67-.25-1.85-1-1.53-5.58,8.4-6.25,9.12-4.29,1.2-6,1a1.19,1.19,0,0,1-1-.54l.33-.09a.46.46,0,0,0,.33-.5h0a1.31,1.31,0,0,0-.82-1l-.13-.05c0-.21,0-.42,0-.63l.09,0a.45.45,0,0,0,.31-.47s0,0,0-.05a1.22,1.22,0,0,0-.84-.91,7.6,7.6,0,0,0-5.5.72A2.19,2.19,0,0,0,57.79,18a3.59,3.59,0,0,0,.12,2.88l.08.28a1.87,1.87,0,0,0,1,1.38.83.83,0,0,0,.33.06h.07A7.1,7.1,0,0,1,60.15,25a.4.4,0,0,1,0,.18A2.73,2.73,0,0,1,59,26.39c-1.81.23-24.74,3.19-26.54,3.48a2.11,2.11,0,0,1-2-.41L26.9,16.52v0h0a6.75,6.75,0,0,1-.24-1.12h0a2,2,0,0,1,.17-1.29,27.39,27.39,0,0,1,4.12-3c1.11-.75,2.27-1.52,3.26-2.24.58-.42,1.13-.87.92-1.37s-1.07-.47-3.83,0L31,7.57h0c-1.19.23-2.44.46-3.58.58-4,.44-4.41.44-6.54,0-2.37-.51-4-.67-4.68.09a1.41,1.41,0,0,0-.23,1.46,1.07,1.07,0,0,0,.07.19h0c.53,1.36,2.21,2,3.84,2.7a13.79,13.79,0,0,1,2.17,1,3.73,3.73,0,0,1,1.47,2.31h0a6.34,6.34,0,0,1,.17,1.31s0,0,0,0v.06l3.21,15.55L9.29,52.39a2.21,2.21,0,0,0-2.16,2.27,2.18,2.18,0,0,0,.68,1.55,2.23,2.23,0,0,0,1.59.62,2.19,2.19,0,0,0,1.34-.5c5.61.64,22.85,2.6,23.94,2.65h.12A2.74,2.74,0,0,0,37,57.81c9.36-9.38,23.35-23.29,25.4-25l0,.17h0a4.16,4.16,0,0,1,.07.54c-.15,1,.67,2.71,1.46,4.32.34.7.66,1.36.81,1.79a72.3,72.3,0,0,0,3.87,6.86c1,1.63,1.91,3.18,2.29,3.9a9.6,9.6,0,0,0,1.78,2.47,1.28,1.28,0,0,0,0,.19,2.13,2.13,0,0,0,2.13,2.08h0a2.1,2.1,0,0,0,1.49-.66,2,2,0,0,0,.59-1.51,2.11,2.11,0,0,0-1.43-2,5.92,5.92,0,0,0-.36-.78c-4.34-7-8.86-15.07-8.67-16.22a3.48,3.48,0,0,0-.06-1.57,1.55,1.55,0,0,0-.58-.82c.32-1.25-.45-3-1.09-4.5a10,10,0,0,1-.57-1.48h0a3.45,3.45,0,0,0-1-1.86h0l-.09-.08-1.16-2.86A.72.72,0,0,1,62.22,20.52Zm2.65,11.05a.14.14,0,0,0,0,.06l-.16.12L64.3,32l-.13.08c-.09,0-.18.11-.27.15a.76.76,0,0,1-.16.06,1,1,0,0,1-.25.08l-.17,0h-.13a.88.88,0,0,0-.83-.66c-.28,0-.51,0-13.38,12.79C42.67,50.8,36.36,57.14,36.29,57.2l-.06.08a1.82,1.82,0,0,1-1.51.8c-1.1,0-20.25-2.24-24.08-2.67h-.05a.44.44,0,0,0-.32.13,1.32,1.32,0,0,1-.9.38A1.31,1.31,0,0,1,8,54.64a1.32,1.32,0,0,1,1.28-1.35h.08a.47.47,0,0,0,.28-.07l.1-.06a.45.45,0,0,0,.13-.1L27.69,33.29a.5.5,0,0,0,.11-.39L24.63,17.55l.22-.06,1.29-.31,3.43,12.61a.31.31,0,0,0,.06.13s.82,1.2,2.93.85c1.81-.3,26.33-3.46,26.58-3.5a.33.33,0,0,0,.14,0A3.61,3.61,0,0,0,61,25.54a1,1,0,0,0,.07-.31l0,0a1.93,1.93,0,0,1,.27-.3l0,0a2.62,2.62,0,0,1,.34-.24h0a1.32,1.32,0,0,1,.38-.13l.06,0a1.14,1.14,0,0,1,.41,0h0a2.5,2.5,0,0,1,.64,1.26,8.84,8.84,0,0,0,.63,1.69C64.49,28.74,65.35,30.72,64.87,31.57Z"/></g></g></g></svg>