<svg xmlns="http://www.w3.org/2000/svg" viewBox="0 0 144 86"><defs><style>.cls-1{isolation:isolate;}.cls-2{fill:#fff;}.cls-3{fill:#946e31;}.cls-4,.cls-7{fill:#ba8b41;}.cls-5{fill:#fcc670;}.cls-6{fill:#c7aa7b;}.cls-7{opacity:0.65;mix-blend-mode:multiply;}.cls-8{fill:#fcd08b;}.cls-9{fill:#eb5c40;}.cls-10{fill:#ed7464;}.cls-11{fill:#b24038;}.cls-12{fill:#d65245;}</style></defs><title>nos_offres_livreur</title><g class="cls-1"><g id="Nos_offres_1" data-name="Nos offres 1"><g id="bloc_1-5" data-name="bloc 1"><circle class="cls-2" cx="72" cy="43" r="42.99"/></g></g><g id="Calque_116" data-name="Calque 116"><path class="cls-3" d="M86.16,48.75c-1.22-.07-2.68.76-4.11,1.67-4.53,2.87-8,9.15-13.83,9.09-2.64,0-6.88-1.87-11.21-3.48l-.45,4.54a55,55,0,0,1,6.25,1.81,80.23,80.23,0,0,0,10.82,3c2.92-1.83,7.1-5.76,13.63-13C88.23,51.28,87.61,48.84,86.16,48.75Z"/><path class="cls-4" d="M67,60.94a79.87,79.87,0,0,0,10.82,3c2.91-1.83,7.1-5.76,13.62-13,1-1.08.35-3.52-1.09-3.61-1.23-.07-2.68.77-4.12,1.68-4.53,2.86-8,9.14-13.82,9.09S53,49.15,47.85,53.39l-.05-.06-.38,3.73C54.05,57.76,60.64,58.68,67,60.94Z"/><path class="cls-5" d="M72,59.88a80,80,0,0,0,10.83,3c2.91-1.83,7.34-5.48,13.86-12.74a1.75,1.75,0,0,0-1.16-2.91,9.81,9.81,0,0,0-4.29.7c-4,1.61-8,9.15-13.83,9.09s-19.32-8.92-24.51-4.68l0-.06L52.46,56C59.08,56.69,65.68,57.62,72,59.88Z"/><path class="cls-6" d="M21.65,64.57A12.78,12.78,0,0,0,33.24,75.68s9.42-10.13,11.53-11c5.74-2.38,14.79.67,17.26.87,4,.32,13,.49,17.6,1.28a2,2,0,0,0,1.61-.4,86.59,86.59,0,0,1,8.45-6c2.42-1.44,4.46-4.52,7.42-7.82A1.75,1.75,0,0,0,96,49.73a9.81,9.81,0,0,0-4.29.7c-4,1.61-8,9.15-13.82,9.09S58.51,50.6,53.32,54.84c0,0-6.21-7.72-11.62-4.45S29.94,60,21.65,64.57Z"/><path class="cls-7" d="M62.07,54.51l-7.26-4.39c-13-4.48-11.81,1.22-13.67,2.38l8.75,5s6.45-2.89,23.11,1C73,58.42,62.53,54.55,62.07,54.51Z"/><path class="cls-6" d="M78.32,53.18a.72.72,0,0,0-.55-1c-3.59-.32-17.14-1.68-25.11-4.44-13-4.48-12,3.43-13.89,4.59l11.12,5.09s1.74-5.44,20.26-.09C70.15,57.37,77.11,58,78.32,53.18Z"/><path class="cls-8" d="M73,51.94s-2.22,1-1,2.28c.61.68,1.66,1.11,3.6.72A2.8,2.8,0,0,0,77.87,53a.52.52,0,0,0-.47-.61Z"/><path class="cls-8" d="M96.38,51c-1.31-.19-3.59.65-3.53,3.79,0,.72,1.06,1,1.79.46A31.38,31.38,0,0,0,97,52.88,1.09,1.09,0,0,0,96.38,51Z"/><path class="cls-9" d="M94.59,29.72A33.9,33.9,0,0,0,88,35.43c-4.5,5.33-10.4,9.17-14.45,9.69-5.57.71-12.93-1.7-21-11.48A61.22,61.22,0,0,0,63,27C76.05,16.3,82.24,30.61,94.59,29.72Z"/><path class="cls-10" d="M94.59,29.72A33.9,33.9,0,0,0,88,35.43c-4.5,5.33-10.4,9.17-14.45,9.69-5.57.71-12.93-1.7-21-11.48C52.58,33.64,60.88,40,94.59,29.72Z"/><path class="cls-11" d="M68.1,36.37c6.5.07,13.12-1.13,17.94-5,0,0-6.06,3.4-16.81,3.73,2.46-3.61,11.1-4.88,11.1-4.88-.42,0-9.84.73-12.21,4.9a60.27,60.27,0,0,1-6.64-.33c1.46-4,9.49-6.87,9.49-6.87-.39.1-9,2.44-10.48,6.76a70.58,70.58,0,0,1-15-3.6s-1.73.58-.08,1.13a80.86,80.86,0,0,0,12.76,3.27C62.26,42.57,70.93,43,71,43s-7.73-1-11.66-7.36a63.51,63.51,0,0,0,7.36.72A15.83,15.83,0,0,0,79,39.93,18,18,0,0,1,68.1,36.37Z"/><path class="cls-12" d="M68.1,36.37a33.22,33.22,0,0,0,13.12-2.2c-7.77,3.31-23,1.26-23,1.26C62.26,42.57,70.93,43,71,43s-7.73-1-11.66-7.36a63.51,63.51,0,0,0,7.36.72A15.83,15.83,0,0,0,79,39.93,18.09,18.09,0,0,1,68.1,36.37Z"/></g></g></svg>