<svg xmlns="http://www.w3.org/2000/svg" viewBox="0 0 144 86"><defs><style>.cls-1{fill:#fff;}.cls-2{fill:#9993c7;}.cls-3{fill:#584ead;}.cls-4{fill:#312783;}.cls-5{fill:#776dc9;opacity:0.46;}.cls-6{fill:#469fb7;}</style></defs><title>nos_offres_restauration</title><g id="Nos_offres_1" data-name="Nos offres 1"><g id="bloc_2-5" data-name="bloc 2"><circle class="cls-1" cx="72" cy="43" r="42.99"/><path class="cls-2" d="M144.58,57.4a15.94,15.94,0,0,1-9.5-1.28c-.37-.16-.75-.33-1.13-.53-4-2-7.43-3.12-11.31-1.89a17.64,17.64,0,0,0-5.94,3.5,10.09,10.09,0,0,1-4.43,2.2c-5.49,1.18-11.71-2.14-19.82-1.22-3,.34-7.48,3.23-9.93,2.24,2.7-10.76-12.27-28.94-7.7-32.94,0,0,.75-.31,2.09-.72l.27-.08a50.08,50.08,0,0,1,5.28-1.27,48.93,48.93,0,0,1,12.9-.73,37.56,37.56,0,0,1,20.49,7.81c18.21,14.26,10.76,8.74,16.77,15.43.32.35.63.69.95,1a45.48,45.48,0,0,0,8.91,7.29C143.79,57,144.58,57.4,144.58,57.4Z"/><path class="cls-3" d="M135.08,56.12c-.37-.16-.75-.33-1.13-.53-4-2-7.43-3.12-11.31-1.89a17.64,17.64,0,0,0-5.94,3.5,10.09,10.09,0,0,1-4.43,2.2c-5.49,1.18-11.71-2.14-19.82-1.22-3,.34-11.19,4.59-9.84,1.35C88.21,46,70.93,30.1,77.27,28.1l.23-.05.09,0,.24,0c4.91-.63,12.34-.59,22.51,2.45C112.33,34,126.66,45.06,135.08,56.12Z"/><path class="cls-4" d="M112.27,59.4c-5.49,1.18-11.71-2.14-19.82-1.22-3,.34-11,4.55-9.84,1.35a21.37,21.37,0,0,0-1.45-16.64c-6.83-12.07,4.76-7.27,10-2.62C95.12,43.82,104.07,54.08,112.27,59.4Z"/><path class="cls-5" d="M133.57,48.94c-2.49-1.72-5.47-3.9-9.39-6.75-14.51-10.55-24.47-16-30-16.07-4.58,0-6.18-.3-6.42-.6a51.27,51.27,0,0,1,7.56-.84,37.56,37.56,0,0,1,20.49,7.81c18.21,14.26,10.76,8.74,16.77,15.43C132.94,48.27,133.25,48.61,133.57,48.94Z"/><path class="cls-6" d="M78.51,50.64A16.26,16.26,0,1,1,94.77,66.9,16.28,16.28,0,0,1,78.51,50.64Zm2.57,0A13.69,13.69,0,1,0,94.77,37,13.7,13.7,0,0,0,81.08,50.64Z"/><path class="cls-6" d="M24.88,50.64A16.26,16.26,0,1,1,41.13,66.9,16.28,16.28,0,0,1,24.88,50.64Zm2.57,0A13.69,13.69,0,1,0,41.13,37,13.69,13.69,0,0,0,27.45,50.64Z"/><circle class="cls-6" cx="94.77" cy="50.64" r="3.21"/><path class="cls-6" d="M94.77,48.71a1.93,1.93,0,1,1-1.93,1.93,1.93,1.93,0,0,1,1.93-1.93m0-1.28A3.21,3.21,0,1,0,98,50.64a3.21,3.21,0,0,0-3.21-3.21Z"/><circle class="cls-6" cx="41.13" cy="50.64" r="3.21"/><path class="cls-6" d="M41.13,48.71a1.93,1.93,0,1,1-1.93,1.93,1.94,1.94,0,0,1,1.93-1.93m0-1.28a3.21,3.21,0,1,0,3.22,3.21,3.21,3.21,0,0,0-3.22-3.21Z"/><path class="cls-6" d="M66,51.4,49.31,28.6a1.28,1.28,0,0,1,1-2h26a1.26,1.26,0,0,1,1,.48L95.66,49.83a1.29,1.29,0,0,1-1,2.1H67A1.31,1.31,0,0,1,66,51.4Zm9.76-22.27H52.88L67.66,49.35H92Z"/><rect class="cls-6" x="57.8" y="35.63" width="29.65" height="2.57" transform="translate(10.95 90.15) rotate(-67.74)"/><circle class="cls-6" cx="67.01" cy="50.64" r="3.86"/><path class="cls-6" d="M62.51,50.64a4.5,4.5,0,1,1,4.5,4.5A4.51,4.51,0,0,1,62.51,50.64Zm1.29,0A3.22,3.22,0,1,0,67,47.43,3.21,3.21,0,0,0,63.8,50.64Z"/><path class="cls-6" d="M74.18,21.56h7.68v3.27l-7.84-2A.65.65,0,0,1,74.18,21.56Z"/><path class="cls-6" d="M81.54,26.07l-7.84-2a1.93,1.93,0,0,1,.48-3.79h7.68a1.28,1.28,0,0,1,1.28,1.28v3.27a1.27,1.27,0,0,1-1.28,1.28A1.12,1.12,0,0,1,81.54,26.07ZM79.3,22.85l1.27.32v-.32Zm-5.12,0Z"/><line class="cls-6" x1="67.01" y1="50.64" x2="67.01" y2="58.27"/><path class="cls-6" d="M67,58.92a.64.64,0,0,0,.64-.65V50.64a.64.64,0,0,0-1.28,0v7.63A.65.65,0,0,0,67,58.92Z"/><path class="cls-6" d="M67,59.56h3.71a1.29,1.29,0,1,0,0-2.57H67a1.29,1.29,0,0,0,0,2.57Z"/><circle class="cls-6" cx="94.77" cy="50.64" r="1.29"/><path class="cls-6" d="M41.13,51.93a1.29,1.29,0,0,0,1.19-.81l12-29.73a1.28,1.28,0,0,0-.13-1.2,1.26,1.26,0,0,0-1.06-.57H50.81a2,2,0,0,1,0-3.92h2.3a1.29,1.29,0,0,0,0-2.58h-2.3a4.54,4.54,0,0,0,0,9.07h.41l-11.27,28a1.27,1.27,0,0,0,.71,1.67A1.18,1.18,0,0,0,41.13,51.93Z"/><circle class="cls-6" cx="41.13" cy="50.64" r="1.29"/><path class="cls-6" d="M53.12,16.33h6.59a1.93,1.93,0,1,0,0-3.86H53.12a1.93,1.93,0,0,0,0,3.86Z"/><path class="cls-3" d="M88.61,23.51c-.78,1.23-1.4,2.17-1.4,2.17s-2.11.75-3.43,1.14S76,28.14,76,28.14a86.55,86.55,0,0,1,5.26-8,6.45,6.45,0,0,1,3.62-1.56h0c2.69-.52,5.87-.53,6.63-.72S90.13,21.11,88.61,23.51Z"/><path class="cls-3" d="M74.56,28.14l-1.47-.28L70,27.26s-8.37-3.91-7.92-4.89c.35-.76,2.12-3.26,4-3.56a2.23,2.23,0,0,1,1.81.51,34.17,34.17,0,0,1,5,6.2h0c.43.65.81,1.23,1.1,1.69S74.56,28.14,74.56,28.14Z"/><path class="cls-4" d="M74.18,26.77a1.63,1.63,0,0,1-.21.44,1.78,1.78,0,0,1-.88.65L70,27.26s-8.37-3.91-7.92-4.89c.35-.76,2.12-3.26,4-3.56a3.72,3.72,0,0,0-1.26,2.47c.11,1.29,5.9,4.23,8,4.24h0a1.42,1.42,0,0,0,.45-.07S74.55,25.68,74.18,26.77Z"/><path class="cls-3" d="M74.59,28a26.4,26.4,0,0,1-5.53,1.37,3.74,3.74,0,0,1-1,.06c-.61-.15-1.08-.76-.39-2.35.32-.73,4.68-.65,6.33-.5a2,2,0,0,1,.63.11A1.23,1.23,0,0,1,74.59,28Z"/><path class="cls-4" d="M74,26.57a3.83,3.83,0,0,1-.29.58c-3.44,1-4.32,1.06-4.62,1.65a1,1,0,0,0-.06.56,3.74,3.74,0,0,1-1,.06c-.61-.15-1.08-.76-.39-2.35C68,26.34,72.38,26.42,74,26.57Z"/><path class="cls-3" d="M79.76,34.4c-.83-.13-3.07-3.74-4.29-6a8.22,8.22,0,0,1-.82-1.82c0-.7.39-1.61.88-1.21,0,0,6.07,4.82,6.67,6.38a.25.25,0,0,1,0,.11A2.37,2.37,0,0,1,79.76,34.4Z"/><path class="cls-4" d="M79.76,34.4c-.83-.13-3.07-3.74-4.29-6,0-.4,0-.69.17-.78.56-.37,1.85.57,1.85.57,1.52,2.3,1.33,4.37,3.05,4a13.3,13.3,0,0,0,1.66-.46.25.25,0,0,1,0,.11A2.37,2.37,0,0,1,79.76,34.4Z"/><path class="cls-4" d="M88.61,23.51c-.78,1.23-1.4,2.17-1.4,2.17s-2.11.75-3.43,1.14S76,28.14,76,28.14a86.55,86.55,0,0,1,5.26-8,6.45,6.45,0,0,1,3.62-1.56c-2.91,3.94-4.11,6.65-.12,5.66A22,22,0,0,1,88.61,23.51Z"/><path class="cls-3" d="M76.68,29c-1.31.19-3.35-.46-3.81-1.11-.25-.36-.08-1.32.12-2.1.16-.63.34-1.15.34-1.15a24.75,24.75,0,0,1,3.4,0l.31,0a.72.72,0,0,1,.46.39C78.08,26.05,77.77,28.83,76.68,29Z"/><path class="cls-4" d="M76.68,29c-1.31.19-3.35-.46-3.81-1.11-.25-.36-.08-1.32.12-2.1A3.52,3.52,0,0,0,73.88,27c.94.7,2.63,0,2.85-2.45l.31,0a.72.72,0,0,1,.46.39C78.08,26.05,77.77,28.83,76.68,29Z"/></g></g></svg>