<svg xmlns="http://www.w3.org/2000/svg" viewBox="0 0 144 86"><defs><style>.cls-1{isolation:isolate;}.cls-2{fill:#fff;}.cls-3{fill:#8f6dad;}.cls-4,.cls-7{fill:#5d2d87;}.cls-5{fill:#ac84cf;}.cls-6{fill:#885bb0;}.cls-7{opacity:0.65;mix-blend-mode:multiply;}.cls-8{fill:#c8a0eb;}.cls-9{fill:#eb5c40;}.cls-10{fill:#ed7464;}.cls-11{fill:#b24038;}.cls-12{fill:#d65245;}</style></defs><title>nos_offres_entreprise</title><g class="cls-1"><g id="Calque_116" data-name="Calque 116"><circle class="cls-2" cx="72" cy="43" r="42.99"/></g><g id="Nos_offres_5" data-name="Nos offres 5"><g id="bloc_1" data-name="bloc 1"><path class="cls-3" d="M95.55,45.41c-1.22-.08-2.67.76-4.11,1.67-4.53,2.87-8,9.15-13.82,9.09-2.65,0-6.89-1.87-11.21-3.48L66,57.22A57.19,57.19,0,0,1,72.2,59,81.45,81.45,0,0,0,83,62c2.91-1.83,7.1-5.76,13.62-13C97.62,47.94,97,45.49,95.55,45.41Z"/><path class="cls-4" d="M76.34,57.6a78.39,78.39,0,0,0,10.82,3c2.91-1.82,7.1-5.76,13.63-13,1-1.08.34-3.52-1.1-3.61-1.23-.07-2.68.77-4.11,1.68-4.54,2.86-8,9.14-13.83,9.09s-19.32-8.93-24.51-4.69L57.19,50l-.37,3.72C63.44,54.42,70,55.34,76.34,57.6Z"/><path class="cls-5" d="M81.37,56.54a81.45,81.45,0,0,0,10.83,3c2.91-1.83,7.34-5.48,13.87-12.74a1.75,1.75,0,0,0-1.17-2.91,9.83,9.83,0,0,0-4.29.7c-4,1.61-8,9.14-13.82,9.09S67.47,44.74,62.28,49l-.05-.06-.38,3.72C68.47,53.35,75.07,54.28,81.37,56.54Z"/><path class="cls-6" d="M31,61.23A12.78,12.78,0,0,0,42.63,72.34s9.43-10.13,11.53-11C59.9,59,69,62,71.42,62.2c4,.32,13,.5,17.6,1.29a2.07,2.07,0,0,0,1.61-.4,86.59,86.59,0,0,1,8.45-6c2.42-1.45,4.46-4.52,7.43-7.82a1.75,1.75,0,0,0-1.17-2.91,9.83,9.83,0,0,0-4.29.7c-4,1.61-8,9.14-13.82,9.09S67.91,47.25,62.72,51.5c0,0-6.21-7.72-11.62-4.45S39.33,56.66,31,61.23Z"/><path class="cls-7" d="M71.46,51.17,64.2,46.78c-13-4.48-11.81,1.22-13.67,2.37l8.75,5s6.46-2.89,23.11,1C82.39,55.07,71.92,51.21,71.46,51.17Z"/><path class="cls-6" d="M87.71,49.84a.71.71,0,0,0-.55-1c-3.59-.32-17.14-1.69-25.11-4.44C49.07,40,50,47.87,48.16,49l11.12,5.09S61,48.67,79.54,54C79.54,54,86.5,54.63,87.71,49.84Z"/><path class="cls-8" d="M82.35,48.6s-2.22,1-1,2.28c.61.68,1.67,1.11,3.61.72a2.78,2.78,0,0,0,2.33-1.94.53.53,0,0,0-.47-.62Z"/><path class="cls-8" d="M105.77,47.61c-1.31-.18-3.59.66-3.53,3.79,0,.73,1.06,1,1.79.47s1.47-1.43,2.35-2.33A1.1,1.1,0,0,0,105.77,47.61Z"/><path class="cls-9" d="M104,26.38a33.83,33.83,0,0,0-6.55,5.7C92.93,37.42,87,41.25,83,41.77c-5.57.72-12.94-1.7-21-11.47a61.22,61.22,0,0,0,10.45-6.61C85.44,13,91.64,27.27,104,26.38Z"/><path class="cls-10" d="M104,26.38a33.83,33.83,0,0,0-6.55,5.7C92.93,37.42,87,41.25,83,41.77c-5.57.72-12.94-1.7-21-11.47C62,30.3,70.28,36.68,104,26.38Z"/><path class="cls-11" d="M77.49,33C84,33.09,90.61,31.9,95.43,28c0,0-6.06,3.4-16.81,3.72,2.46-3.6,11.1-4.87,11.1-4.87-.41,0-9.84.72-12.21,4.89a58,58,0,0,1-6.64-.33c1.46-4,9.49-6.86,9.49-6.86-.38.1-9,2.44-10.48,6.76a70.58,70.58,0,0,1-15-3.6s-1.72.57-.08,1.13a80.25,80.25,0,0,0,12.76,3.26c4.09,7.14,12.76,7.55,12.85,7.56s-7.73-1-11.66-7.36a63.51,63.51,0,0,0,7.36.72c6.08,4.8,12,3.64,12.3,3.58A18,18,0,0,1,77.49,33Z"/><path class="cls-12" d="M77.49,33a33.4,33.4,0,0,0,13.12-2.2c-7.77,3.31-23,1.25-23,1.25,4.09,7.14,12.76,7.55,12.85,7.56s-7.73-1-11.66-7.36a63.51,63.51,0,0,0,7.36.72c6.08,4.8,12,3.64,12.3,3.58A18,18,0,0,1,77.49,33Z"/></g></g></g></svg>