<svg xmlns="http://www.w3.org/2000/svg" viewBox="0 0 453.66 452"><defs><style>.cls-1{fill:#2f9fa8;}.cls-2{fill:#c7eae7;}.cls-3{fill:#46b594;}.cls-4{fill:#288481;}.cls-5{fill:#216868;}.cls-6{fill:#1d1d1b;}.cls-7{opacity:0.15;}.cls-12,.cls-8{fill:#fff;}.cls-10,.cls-8,.cls-9{fill-rule:evenodd;}.cls-14,.cls-9{fill:#a9df90;}.cls-10{fill:#e8e7e1;}.cls-11{fill:#dec4c4;}.cls-13{fill:#683c11;}</style></defs><title>nos_offres_foodtech_illu_bg</title><g id="Nos_offres_3" data-name="Nos offres 3"><g id="title-2" data-name="title"><g id="illustrations"><rect class="cls-1" x="241.22" y="244.95" width="50.99" height="91.56" transform="translate(533.44 581.47) rotate(180)"/><rect class="cls-1" x="284.17" y="144.31" width="64.41" height="192.2" transform="translate(632.74 480.82) rotate(-180)"/><polygon class="cls-1" points="484.12 336.51 347.24 336.51 347.24 94.66 415.55 50.85 484.12 94.66 484.12 336.51"/><rect class="cls-2" x="299.45" y="160.54" width="15.26" height="41.1"/><rect class="cls-2" x="337.61" y="160.54" width="15.26" height="41.1"/><rect class="cls-2" x="299.45" y="238.62" width="15.26" height="41.1"/><rect class="cls-2" x="337.61" y="238.62" width="15.26" height="41.1"/><rect class="cls-2" x="394.56" y="115.92" width="15.26" height="41.1"/><rect class="cls-2" x="432.72" y="115.92" width="15.26" height="41.1"/><rect class="cls-2" x="394.56" y="194" width="15.26" height="41.1"/><rect class="cls-2" x="432.72" y="194" width="15.26" height="41.1"/><path class="cls-3" d="M515.23,551.6V324.89c-22.27-2.91-70.59-7.4-149-5.8-13.91.28-18.12.81-55.91,3.84C206,331.31,107.48,371.88,59.83,398.45q-2.37,1.32-4.68,2.68A110.14,110.14,0,0,0,.91,496.23V551.6Z"/><path class="cls-4" d="M305.93,421.83c0-18.43,18.4-34.16,44.29-40.33-6.16-15.12-3.88-27.53,7.46-31.22,8.66-2.81,20.86,0,33.29,6.79-6.82-25.64-1.1-46.32,15.31-49.2,9.62-1.69,21.16,3.05,32.14,12.14,10.89-16.9,27.65-27.73,46.44-27.73,32.82,0,59.42,33,59.42,73.7q0,2.36-.12,4.68c9,8.63,14.25,19.31,14.25,30.87,0,10.74-4.57,20.72-12.39,29H307.32A28.13,28.13,0,0,1,305.93,421.83Z"/><path class="cls-5" d="M368.11,399.51C362,384.4,364.23,372,375.58,368.3c8.65-2.81,20.85,0,33.29,6.79-6.83-25.64-1.11-46.32,15.3-49.2,9.63-1.69,21.16,3.05,32.15,12.14,10.88-16.9,27.64-27.73,46.44-27.73a50.29,50.29,0,0,1,27.78,8.54c8.58,12.78,13.74,29.21,13.74,47.14q0,2.36-.12,4.68c9,8.63,14.25,19.31,14.25,30.87,0,10.74-4.57,20.72-12.39,29H325.44C330.46,416.24,346.72,404.62,368.11,399.51Z"/><g id="Calque_2" data-name="Calque 2"><path class="cls-6" d="M247.15,351.94l-3.28,3.35a71.58,71.58,0,0,1-21-.63c-1.28-8.93,28.9-14.15,28.9-14.15L254.52,354l-6.84.85Z"/><path class="cls-6" d="M284.17,350.41l-.08,4.27a41.13,41.13,0,0,1-17,3.91c-7.69-9.19,12.21-21.32,12.21-21.32L291.51,351l-4.76,2.4Z"/><path class="cls-5" d="M234.51,342.26l19.33,8.83,2.6-66.82,5.68-48.51,0,.53L269.79,347h20.44v-1l-6.54-111.44s-1-14.21-1.49-18.68-1.09-5.33-1.09-5.33-35.47-.52-36.87-.52-3,4.2-3.66,7.57-4.37,63.93-4.37,63.93Z"/><path class="cls-7" d="M234.51,342.26l19.33,8.83,2.6-66.82,5.68-48.51,0,.53L269.79,347h12.86l7.56-1h0v0h0l-2-1.41c-1.51-11.38-3.3-16.21-4.26-27.71l-2.53-66.72c.74-5.51-.35-31.41-3.43-39.56-5,2.39-25.44.43-31.88.12-5.15-.26-5.75,6.44.05,11.42s11.66,8.08,13.41,14.14L252.69,284l-2.15,41.44c-.33,9.19-7.28,16.53-15.88,16.78Z"/><g id="kcO2D6"><path class="cls-8" d="M219.71,182.19a6.57,6.57,0,0,1-.19,1.87,2.17,2.17,0,0,1-2.91,1.38,1,1,0,0,0-.79-.09,7.3,7.3,0,0,1-2.28.31,2,2,0,0,1-2.07-1.07,2.09,2.09,0,0,1,.09-2.35,10.23,10.23,0,0,1,3.89-3.38c2.43-1,4.24.19,4.26,2.83Z"/><path class="cls-8" d="M209.56,190.09a1,1,0,0,0,1.05.16,1.55,1.55,0,0,1,1.06-.07,12.2,12.2,0,0,0,3.93.35c3.46-.32,6.58,1.11,9.87,1.65a34.16,34.16,0,0,0,5.35.31c.41,0,.58-.26.79-.51.21-.42-.05-.9.15-1.33h0c0-3.25,0-6.5.05-9.74.06-1.94.33-3.88.5-5.82l.13.17v0a.27.27,0,0,1,0-.11,1.48,1.48,0,0,1,1.59.12,12.12,12.12,0,0,0,3,.12c1.1,0,2.21,0,3.31,0,.54,0,.7.17.71.7,0,3.48.09,6.95.15,10.42,0,2,.11,4.07.16,6.11a.6.6,0,0,1-.29-.31,4.73,4.73,0,0,0,0-.53.73.73,0,0,0,0-.56c0,.19,0,.37,0,.56a1.07,1.07,0,0,0,0,.53c0,.44-.1.89-.17,1.33a8,8,0,0,1-2.77,4.4c-1.66,1.27-3.55,1-5.39.61-2.26-.52-4.49-1.12-6.71-1.76a45.65,45.65,0,0,0-6.35-1,.68.68,0,0,0-.4.05,14,14,0,0,1-4,1,6.75,6.75,0,0,1-4.8-.73,9.35,9.35,0,0,1-4-3.44,5,5,0,0,1-.15-1.14A2,2,0,0,1,209.56,190.09Z"/><path class="cls-9" d="M232.3,175.09a.25.25,0,0,0,.13.17l1.64,0h.05a.26.26,0,0,0-.05.09c.3.38.74.3,1.14.3,1.51,0,3,0,4.54,0,.93,0,1,.08,1,1,0,1.81.07,3.62.13,5.44.12,3.48,0,7,.24,10.47a1,1,0,0,0,.17.57h.1a25,25,0,0,0,0,5,53,53,0,0,0,.2,5.34,15.25,15.25,0,0,0,.28,3.09,18.43,18.43,0,0,0,.46,4,.4.4,0,0,0,0,.15v0h0l.29.81a1.21,1.21,0,0,0,.87.16c2.09-.1,4.18-.25,6.28-.23,4,0,8,0,12,0,2.07,0,4.13.11,6.19.23,4,.23,7.91.56,11.85,1a1.06,1.06,0,0,0,.94-.18,3,3,0,0,1,.35-1.9,2.74,2.74,0,0,0,.26-.94c.36-2.75.7-5.5,1.07-8.25a53.26,53.26,0,0,1,.84-5.62c.22-.25.58,0,.8-.2l0,0c-.08-.47-.47-.37-.77-.39a28.54,28.54,0,0,1-4.33-.59c-1.69-.4-3.41-.64-5.1-1-.48-.12-.88-.09-1.14.38a9.63,9.63,0,0,1-2.74,2.58,3.93,3.93,0,0,1-3.09.76,27.43,27.43,0,0,1-4.23-.69,2.44,2.44,0,0,0-1.39,0,3.53,3.53,0,0,1-2.11-.08,22.82,22.82,0,0,0-4.15-1.08c-.44,0-.8-.28-.58-.85a6.29,6.29,0,0,1,3-1.56c.32-.11.7-.11.91-.45.54.1.82-.35,1.18-.62,2.1-1.62,4-3.52,6.06-5.12a8.11,8.11,0,0,1,.65-.51,4.16,4.16,0,0,0,2.14-4.3c-.15-1.81-.59-2.42-2.39-2.59-.22,0-.56.07-.56-.3s.27-.39.51-.47a3.71,3.71,0,0,1,.48-.1,27.74,27.74,0,0,1,4.37-.18,1.16,1.16,0,0,1,1.2.7,15.79,15.79,0,0,0,2.37,3.47,5.26,5.26,0,0,0,1.47,1.54.72.72,0,0,0,.65-.11.32.32,0,0,0,.18.1,16.52,16.52,0,0,0,3.83-.59,1.53,1.53,0,0,0,.3-1.17,30.67,30.67,0,0,1,.07-3.71c0-.94.46-1.33,1.34-1.54a5.84,5.84,0,0,0,2.29-.59,4.12,4.12,0,0,1,.47-.13,25.33,25.33,0,0,1,8.85.34c.62-.34,0-.72,0-1.08.16-1.57.19-3.14.35-4.7.57-5.42-2.17-12.42-2.78-17.3a16.91,16.91,0,0,0-6.87-12.12,25.89,25.89,0,0,0-8.09-4c-1.44-.42-2.93-.63-4.33-1.18l-.46-.21-.25-.11a.44.44,0,0,0-.15-.05,18.34,18.34,0,0,0-12.62,0l-.46.08a21.27,21.27,0,0,0-3.06.62,22.63,22.63,0,0,0-8.25,3.44,18.52,18.52,0,0,0-7.86,10.57c-.9,3.2-4.53,7.91-5.13,11.55-.52,3.16-.9,6.33-1.16,9.51A28.33,28.33,0,0,0,232.3,175.09ZM279.92,177a0,0,0,0,1,0,0h0Z"/></g><polygon class="cls-10" points="269.61 194.19 175.44 194.19 175.44 191.01 174.76 190.62 174.76 179.71 269.61 179.71 269.61 194.19"/><rect class="cls-11" x="243.7" y="179.71" width="26.32" height="14.48"/><path class="cls-8" d="M254.28,194.47a7.87,7.87,0,0,1,3.35-1.62l.79-.22a41.27,41.27,0,0,0,3.9-3.18c1.45-1.32,3-2.56,4.53-3.74a2.85,2.85,0,0,0,1.36-2.73,10.26,10.26,0,0,1,0-1.24,1.8,1.8,0,0,0-1.9-2c-.16,0-.33,0-.49,0s-.67.1-.68-.27a.77.77,0,0,1,.59-.87,16.53,16.53,0,0,1,2.21-.3c1-.05,2.09,0,3.14,0,.44,0,.83.06,1,.52.87,2,2.41,3.54,3.71,5.25a9.7,9.7,0,0,0,.84,1c-.09-.37-.31-.69,0-1a22.93,22.93,0,0,1,3.78-.53c.86-.67,1.85-.29,2.74-.4-.52-.17-1.11-.25-1.68-.41a.93.93,0,0,1-.79-1.06c.07-1-.6-4.35,1.2-4.63a20.31,20.31,0,0,1,2.66-.47h.08l-.06-.12a2.06,2.06,0,0,1,1.48-.4,26.81,26.81,0,0,1,6.87.28c.35.09.72.11.95.44-.42,4.65-1,9.3-1.76,13.91a2,2,0,0,1-.05.24c-.56,3.39-.44,3.19-4.13,4.29a10.49,10.49,0,0,1-3.84.42,6.83,6.83,0,0,0-2.25-.3c-2.69-.29-5.29-1-7.94-1.5-.49-.09-.77-.1-1.06.4-.89,1.53-2.44,2.33-3.86,3.27a1.31,1.31,0,0,1-.72.09,20.17,20.17,0,0,1-5.47-.7,2.28,2.28,0,0,0-1.39,0,3.59,3.59,0,0,1-2.42-.1,14.62,14.62,0,0,0-4.07-1C254.22,195.75,254,195.19,254.28,194.47Z"/><path class="cls-12" d="M244.43,118.69a21.17,21.17,0,0,0,6.1,14.76,20.07,20.07,0,0,0,14.48,6,20.92,20.92,0,1,0-20.58-20.77Z"/><path class="cls-5" d="M264.77,140H265a.57.57,0,0,0,.56-.58.52.52,0,0,0-.58-.56,20.5,20.5,0,0,1-14.45-5.8.57.57,0,1,0-.8.81A21.56,21.56,0,0,0,264.77,140Z"/><path class="cls-6" d="M248.53,111.32l1.82-1.07a2.08,2.08,0,1,0,.29,1Z"/><path class="cls-6" d="M259.8,114.27l1.79-1.07a2.12,2.12,0,1,0,.28,1Z"/><path class="cls-6" d="M255.65,125.56a7.46,7.46,0,0,1-8.39-3.64c-.5-.93.92-1.78,1.37-.84a5.79,5.79,0,0,0,6.53,2.88.83.83,0,0,1,.43,1.6Z"/><path class="cls-13" d="M272.82,112.55a2.2,2.2,0,0,1,1.05-1.37,3.34,3.34,0,0,1,2.45,0,37.89,37.89,0,0,1,6,2.34c2,1,4.34,1.64,4.4,4.1-2.1-.9-1.88,0-3.1,1.48a3,3,0,0,1-2.46,1.2,1.86,1.86,0,0,1-1.74-1.87A2.51,2.51,0,0,1,277,121a3.15,3.15,0,0,1-.44,0,2.52,2.52,0,0,1-1.68-3.14,3,3,0,0,1,.14-.36,1.6,1.6,0,0,1-2.09-.78,4.58,4.58,0,0,1-.32-2.45A7.17,7.17,0,0,1,272.82,112.55Z"/><path class="cls-5" d="M248.12,104c6.45-6.65,12.66-12.32,26.47-6.38,10.11,4.35,11.45,12.21,12.17,20Z"/><path class="cls-14" d="M248.75,105c9,3.31,23.82,7.59,23.82,7.59s-12-25.49-25.83-23.15C234.28,91.53,241.61,102.34,248.75,105Z"/><ellipse class="cls-12" cx="282.86" cy="121.34" rx="5.5" ry="4.3" transform="translate(81.84 354.4) rotate(-72.44)"/><polyline class="cls-12" points="252.19 119.05 248 116 254.72 109.77"/><path class="cls-6" d="M252.19,119.62a.56.56,0,0,0,.46-.24.57.57,0,0,0-.13-.8l-3.62-2.64,6.21-5.75a.58.58,0,0,0,0-.81.57.57,0,0,0-.81,0l-7.23,6.7,4.75,3.46A.6.6,0,0,0,252.19,119.62Z"/><path class="cls-12" d="M281.13,126.86c2.25.71,4.84-1,5.76-4s-.18-5.82-2.44-6.54"/><path class="cls-6" d="M282.15,127.59c2.21,0,4.43-1.81,5.28-4.51a7,7,0,0,0,0-4.47,4.43,4.43,0,0,0-2.78-2.79.56.56,0,0,0-.71.37.57.57,0,0,0,.37.72,3.28,3.28,0,0,1,2,2.1,5.7,5.7,0,0,1,0,3.72c-.82,2.59-3.08,4.2-5,3.58a.58.58,0,0,0-.72.38.57.57,0,0,0,.37.71A3.86,3.86,0,0,0,282.15,127.59Z"/><path class="cls-13" d="M264,112.92a5.22,5.22,0,0,0-5-3.74.85.85,0,0,1-.73-.93.83.83,0,0,1,.73-.72,6.83,6.83,0,0,1,6.62,5,.85.85,0,0,1-.69,1A.84.84,0,0,1,264,112.92Z"/><path class="cls-13" d="M252.05,107.36a6,6,0,0,0-2-.7c-1-.2-.6-1.8.44-1.6a7.31,7.31,0,0,1,2.37.88c.9.56.06,2-.84,1.37Z"/><path class="cls-5" d="M280.31,178.86a36.91,36.91,0,0,1-.83-11.58c0-.54.06-1.09,0-1.39l-.09-.15c-.29-.47-.1-1.13.94-3.2.15-.3-.34-1.29-.55-1.71a2.58,2.58,0,0,1-.39-1.08.66.66,0,0,1,.63-.67.61.61,0,0,1,.63.61c0,.09.17.37.27.57.41.83,1,2,.55,2.84a18.51,18.51,0,0,0-.89,2c.22.3.2.75.12,2.25a35.78,35.78,0,0,0,.78,11.17.64.64,0,0,1-.44.79l-.17,0A.64.64,0,0,1,280.31,178.86Zm-.24-12.77h0Z"/></g></g></g></g></svg>