<svg xmlns="http://www.w3.org/2000/svg" viewBox="0 0 144 86"><defs><style>.cls-1,.cls-4{fill:#fff;}.cls-2{fill:#8484ce;}.cls-3{opacity:0.08;}.cls-4{opacity:0.2;}.cls-5{fill:#392d87;}.cls-6{fill:#469fb7;}</style></defs><title>nos_offres_restauration</title><g id="Nos_offres_1" data-name="Nos offres 1"><g id="bloc_1-5" data-name="bloc 1"><circle class="cls-1" cx="72" cy="43" r="42.99"/><circle class="cls-2" cx="72" cy="43" r="22.01" transform="translate(12.86 102.46) rotate(-76)"/><g class="cls-3"><path d="M82.57,23.67A22,22,0,0,1,54.06,55.73,22,22,0,1,0,82.57,23.67Z"/></g><path class="cls-4" d="M53.12,46.26A20.43,20.43,0,0,1,89.09,32,20.44,20.44,0,1,0,56.33,56.3,20.36,20.36,0,0,1,53.12,46.26Z"/><path class="cls-5" d="M63.1,45.71a.73.73,0,0,0-1.14.85,11,11,0,0,0,20.39-.8A.73.73,0,0,0,81.14,45C78.07,48.29,71.46,53.07,63.1,45.71Z"/><path class="cls-5" d="M77.39,36.92a4.08,4.08,0,0,1,7.53-.45.66.66,0,0,1-.2.81.65.65,0,0,1-.83,0c-1.27-1.12-3.25-2-5.4.33a.66.66,0,0,1-.45.21.62.62,0,0,1-.37-.09A.65.65,0,0,1,77.39,36.92Z"/><path class="cls-5" d="M58.5,37.85A4.08,4.08,0,0,1,66,37.41a.64.64,0,0,1-.19.8.65.65,0,0,1-.83,0c-1.28-1.12-3.26-2-5.41.33a.62.62,0,0,1-.45.21.64.64,0,0,1-.37-.09A.65.65,0,0,1,58.5,37.85Z"/><circle class="cls-6" cx="55.99" cy="46.86" r="3.84" transform="translate(-16.43 37.55) rotate(-32.6)"/><path class="cls-6" d="M92.15,45.07a3.84,3.84,0,1,1-4-3.65A3.85,3.85,0,0,1,92.15,45.07Z"/></g></g></svg>