<svg xmlns="http://www.w3.org/2000/svg" xmlns:xlink="http://www.w3.org/1999/xlink" viewBox="0 0 1929.37 495.93"><defs><style>.cls-1{fill:none;}.cls-2{clip-path:url(#clip-path);}.cls-3{fill:#fcf9f5;}.cls-4{fill:#e5ab55;}.cls-5{fill:#edd2c8;}.cls-6{fill:#ffc82e;}.cls-7{fill:#ed6843;}.cls-23,.cls-8{fill:#fcc670;}.cls-22,.cls-9{fill:#fff;}.cls-10{fill:#c98600;}.cls-11{fill:#2f2f30;}.cls-12{fill:#b2b2b2;}.cls-13{fill:#2b2b2a;}.cls-14{fill:#1d1d1b;}.cls-15{fill:#9d9d9c;}.cls-16{fill:#392d87;}.cls-17{fill:#312783;}.cls-18{fill:#706f6f;}.cls-19{fill:#c44833;}.cls-20{fill:#eb5c40;}.cls-21{opacity:0.15;}.cls-22,.cls-23,.cls-24{fill-rule:evenodd;}.cls-24{fill:#e8e7e1;}.cls-25{fill:#dec4c4;}.cls-26{fill:#683c11;}.cls-27{fill:#fbbc43;}</style><clipPath id="clip-path"><path class="cls-1" d="M1932.47,485.81s-391.36-80-577.12-80-460.17,90.15-657.74,90.15S449.23,366.61,282,366.61,3.1,405.78,3.1,405.78V0H1932.47Z"/></clipPath></defs><title>nos_offres</title><g id="Nos_offres_2" data-name="Nos offres 2"><g id="title-3" data-name="title"><g class="cls-2"><rect class="cls-3" x="4.1" width="1920" height="545.89"/><g id="illustrations"><rect class="cls-4" x="1862.05" y="87.33" width="63.12" height="183.75"/><rect class="cls-4" x="1828.63" y="172.94" width="36.9" height="141.99"/><polygon class="cls-4" points="1758.72 314.93 1834.46 314.93 1834.46 19.87 1758.72 60.3 1758.72 314.93"/><rect class="cls-4" x="1684.92" y="137.99" width="80.6" height="176.95"/><rect class="cls-5" x="1807.74" y="68.23" width="11.05" height="29.74" transform="translate(3626.52 166.19) rotate(-180)"/><rect class="cls-5" x="1780.12" y="68.23" width="11.05" height="29.74" transform="translate(3571.29 166.19) rotate(-180)"/><rect class="cls-5" x="1807.74" y="124.73" width="11.05" height="29.74" transform="translate(3626.52 279.19) rotate(-180)"/><rect class="cls-5" x="1780.12" y="124.73" width="11.05" height="29.74" transform="translate(3571.29 279.19) rotate(-180)"/><rect class="cls-5" x="1807.74" y="181.23" width="11.05" height="29.74" transform="translate(3626.52 392.19) rotate(-180)"/><rect class="cls-5" x="1780.12" y="181.23" width="11.05" height="29.74" transform="translate(3571.29 392.19) rotate(-180)"/><rect class="cls-5" x="1807.74" y="237.73" width="11.05" height="29.74" transform="translate(3626.52 505.19) rotate(-180)"/><rect class="cls-5" x="1780.12" y="237.73" width="11.05" height="29.74" transform="translate(3571.29 505.19) rotate(-180)"/><rect class="cls-5" x="1733.82" y="159.56" width="11.05" height="29.74" transform="translate(3478.68 348.86) rotate(-180)"/><rect class="cls-5" x="1706.21" y="159.56" width="11.05" height="29.74" transform="translate(3423.46 348.86) rotate(-180)"/><rect class="cls-5" x="1733.82" y="216.06" width="11.05" height="29.74" transform="translate(3478.68 461.86) rotate(-180)"/><rect class="cls-5" x="1706.21" y="216.06" width="11.05" height="29.74" transform="translate(3423.46 461.86) rotate(-180)"/><rect class="cls-5" x="1899.66" y="100.41" width="11.05" height="29.74" transform="translate(3810.36 230.55) rotate(-180)"/><rect class="cls-5" x="1872.04" y="100.41" width="11.05" height="29.74" transform="translate(3755.13 230.55) rotate(-180)"/><rect class="cls-5" x="1899.66" y="156.91" width="11.05" height="29.74" transform="translate(3810.36 343.56) rotate(-180)"/><rect class="cls-5" x="1872.04" y="156.91" width="11.05" height="29.74" transform="translate(3755.13 343.56) rotate(-180)"/><rect class="cls-4" x="224.64" y="239.24" width="50.99" height="91.56"/><rect class="cls-4" x="168.28" y="138.59" width="64.41" height="192.2"/><polygon class="cls-4" points="32.74 330.79 169.62 330.79 169.62 88.94 101.31 45.13 32.74 88.94 32.74 330.79"/><rect class="cls-4" x="-23.66" y="156.04" width="76.49" height="174.76"/><rect class="cls-5" x="202.14" y="154.82" width="15.26" height="41.1" transform="translate(419.54 350.74) rotate(-180)"/><rect class="cls-5" x="163.98" y="154.82" width="15.26" height="41.1" transform="translate(343.22 350.74) rotate(-180)"/><rect class="cls-5" x="202.14" y="232.9" width="15.26" height="41.1" transform="translate(419.54 506.91) rotate(-180)"/><rect class="cls-5" x="163.98" y="232.9" width="15.26" height="41.1" transform="translate(343.22 506.91) rotate(-180)"/><rect class="cls-5" x="107.03" y="110.2" width="15.26" height="41.1" transform="translate(229.33 261.5) rotate(-180)"/><rect class="cls-5" x="68.87" y="110.2" width="15.26" height="41.1" transform="translate(153.01 261.5) rotate(-180)"/><rect class="cls-5" x="107.03" y="188.29" width="15.26" height="41.1" transform="translate(229.33 417.67) rotate(-180)"/><rect class="cls-5" x="68.87" y="188.29" width="15.26" height="41.1" transform="translate(153.01 417.67) rotate(-180)"/><path class="cls-6" d="M1836.66,259s1.25-6.43-2.42-7.66-5.68,7.66-5.68,7.66,1.08-10.38-2.93-12.19-5.41,15-5.41,15-1.14-7.32-4-8-2.44,16-2.44,16l10.65,8.17,12.47-13.53Z"/><path class="cls-7" d="M1840.64,295.75a30,30,0,0,0-38.38-28.88A50.11,50.11,0,0,0,1718.72,299a40.6,40.6,0,0,0-46,15.17,47.47,47.47,0,1,0,25.89,63.32,41.09,41.09,0,0,0,7.32.67,40.61,40.61,0,0,0,39.18-29.93,50.14,50.14,0,0,0,68.74-22.62A30.06,30.06,0,0,0,1840.64,295.75Z"/><path class="cls-8" d="M1932.47,214.75s-53.12,18-90.33,40.73S1729.25,354.12,1577,354.12c-166.93,0-117.31,141.81-53.36,141.81h408.83Z"/><path class="cls-9" d="M1847.77,252.14h0s31.12,8,33.53,29.86-31.73,38.6-54,47C1772,349.83,1726.08,395,1730,458.52l100.44,13.76s-39.73-67.73-12.11-91.7c23.18-20.1,86.1-25.63,114.15-53.29V214.75S1884.48,231,1847.77,252.14Z"/><path class="cls-7" d="M1840,282.66a15.8,15.8,0,0,1,11.39,4.84,11.09,11.09,0,0,1,17.52,9.05,11.5,11.5,0,0,1-.18,1.95h-44.57A15.84,15.84,0,0,1,1840,282.66Z"/><path class="cls-10" d="M1837,295.74a11,11,0,0,0-4.33.88,15.83,15.83,0,0,0-29.33,8.27h44.57A11.09,11.09,0,0,0,1837,295.74Z"/><ellipse class="cls-10" cx="1773.57" cy="331.71" rx="6.38" ry="1.3"/><ellipse class="cls-10" cx="1762.53" cy="338.15" rx="6.38" ry="1.3"/><ellipse class="cls-10" cx="1880.3" cy="366.34" rx="6.38" ry="1.3"/><path class="cls-10" d="M1920.3,359c0,.71-2.86,1.29-6.38,1.29s-6.39-.58-6.39-1.29,2.86-1.3,6.39-1.3S1920.3,358.24,1920.3,359Z"/><ellipse class="cls-10" cx="1923.11" cy="352.83" rx="6.38" ry="1.3"/><path class="cls-11" d="M1558.39,405.88a1.59,1.59,0,0,0,.44-3.12l-12.26-3.49a1.59,1.59,0,1,0-.87,3.06l12.26,3.49A1.59,1.59,0,0,0,1558.39,405.88Z"/><polygon class="cls-12" points="1569.97 373.46 1593.78 299.3 1597.45 300.57 1573.63 374.73 1569.97 373.46"/><path class="cls-13" d="M1491.73,402.21a5.52,5.52,0,0,1,2.29,0c1.15.29,1.66,1.34,2,3.63.19.62-.6,1.49-1.53,1.82a34.65,34.65,0,0,1-14.91,1.72,48.33,48.33,0,0,1-14.57-4,41.5,41.5,0,0,1-21.92-22.77,42.86,42.86,0,0,1-3-17.31A43.35,43.35,0,0,1,1470,325.71a42.14,42.14,0,0,1,32.91,3A43.26,43.26,0,0,1,1523.64,354a37.85,37.85,0,0,1,1.45,14.43,51.86,51.86,0,0,1-3.3,14,46.17,46.17,0,0,1-7.79,13.76,26.15,26.15,0,0,1-13.24,8.6c-.86,1.49-4.29,2.4-4.78.68v-.22a.81.81,0,0,1,0-.22l-.35-1.41c-.17-.72.57-1.7,1.38-2.15a51.45,51.45,0,0,0,10.09-7.17,38.33,38.33,0,0,0,7.48-9.6,39.61,39.61,0,0,0,4.59-15,40.33,40.33,0,0,0-1.72-15.59,34.83,34.83,0,0,0-21.35-22.36,36.6,36.6,0,0,0-31.28,2.81,37.16,37.16,0,0,0-18,26.36,36.31,36.31,0,0,0,9.28,30.33A37.86,37.86,0,0,0,1487.91,403C1489.48,402.62,1490.75,402.52,1491.73,402.21Zm-45.83-50.33a37.06,37.06,0,0,0-2.71,15.92,40.19,40.19,0,0,1,2.71-15.87Z"/><path class="cls-12" d="M1529.22,367.53a46.83,46.83,0,0,0-46.74-46.82h-.18c-.73,0-7.21.17-10.36,1.74l1.34,2.69c2.16-1.07,7.28-1.39,9.07-1.42a43.85,43.85,0,0,1,43.86,43.81Z"/><path class="cls-12" d="M1681.15,359.85l3-.54a46.82,46.82,0,0,0-54.44-37.59l.43,3A43.83,43.83,0,0,1,1681.15,359.85Z"/><path class="cls-12" d="M1593.86,366.29a43.39,43.39,0,0,1,38.12-42l-.35-3a46.42,46.42,0,0,0-40.78,44.91Z"/><path class="cls-13" d="M1606.47,345.31a5.53,5.53,0,0,1-1.72,1.58c-1.06.53-2.2.09-3.92-1.37a2.11,2.11,0,0,1,0-2.38,34.75,34.75,0,0,1,10-11.16,48.38,48.38,0,0,1,13.55-6.69,41.58,41.58,0,0,1,31.54,2.39A43.16,43.16,0,0,1,1673.71,388a42.14,42.14,0,0,1-26.43,19.73,43.26,43.26,0,0,1-32.29-5,37.84,37.84,0,0,1-10.68-9.8,51.31,51.31,0,0,1-6.88-12.61,45.69,45.69,0,0,1-3.35-15.47,26,26,0,0,1,4.11-15.27c-.33-1.67,1.59-4.61,3.11-3.68l.19.12.17.15,1.15.88a2.43,2.43,0,0,1,.4,2.53,51.32,51.32,0,0,0-2.76,12,38.72,38.72,0,0,0,.81,12.14,39.8,39.8,0,0,0,6.54,14.2,40.56,40.56,0,0,0,11.64,10.5,34.77,34.77,0,0,0,30.81,2.46A36.59,36.59,0,0,0,1671.73,378a37.25,37.25,0,0,0-4.14-31.62A36.38,36.38,0,0,0,1640.45,330a37.83,37.83,0,0,0-31.48,12.4C1608,343.61,1607.09,344.48,1606.47,345.31Zm67.8,7.15a36.87,36.87,0,0,0-8.56-13.67,40.34,40.34,0,0,1,8.6,13.66Z"/><path class="cls-14" d="M1607,322.67a5.17,5.17,0,0,0,1.59-.25l13.27-4.18h38.7a5.3,5.3,0,1,0,0-10.59h-40.32l-14.83,4.67a5.3,5.3,0,0,0,1.59,10.35Z"/><path class="cls-15" d="M1580.63,384.4l53.31-9.71c.53-.1,1.11-.18,1.71-.25,3.21-.43,8.06-1.07,8.06-6.21,0-5.32-4.78-5.73-8.63-6.05l-1.7-.16c-4.39-.48-21.77.12-22.51.15l.08,2.11c.18,0,18-.62,22.2-.16.58.07,1.17.12,1.75.17,4.66.39,6.69.88,6.69,3.94s-2.46,3.61-6.21,4.11c-.64.08-1.26.16-1.82.27l-53.31,9.71Z"/><rect class="cls-11" x="1618.84" y="334.74" width="60.53" height="3.18" transform="translate(658.2 1696.76) rotate(-65.46)"/><path class="cls-11" d="M1603.19,338a1.6,1.6,0,0,0,1.49-1l4.52-12.24,8.87-3.67h37.87a1.59,1.59,0,1,0,0-3.18h-38.5l-10.74,4.44-5,13.55a1.58,1.58,0,0,0,.94,2A1.52,1.52,0,0,0,1603.19,338Z"/><path class="cls-14" d="M1490.58,301.19a25.44,25.44,0,0,1-4.27-26.64,22.74,22.74,0,0,1,3.26-5.15c.18-3.71,1.29-6.42,3.34-8.08,4.76-3.87,12.63-.49,13-.34l3.45,1.52h-3.77c-5.45,0-10.81,3.32-14.43,7.5a35.14,35.14,0,0,0,.88,7.77c5.1,24.11,29.34,33.73,29.59,33.82l4,1.53h-4.25C1511.89,313.12,1497,308.22,1490.58,301.19Zm-2.82-26a23.84,23.84,0,0,0,4,24.95c5.09,5.61,16.59,10,25.47,11.12-7.25-3.85-22.76-14.13-26.77-33.16a41,41,0,0,1-.87-6.13A20.16,20.16,0,0,0,1487.76,275.19Zm6.14-12.64a7.77,7.77,0,0,0-2.55,4.92,23.07,23.07,0,0,1,10.42-6.08C1499.33,260.89,1496.12,260.74,1493.9,262.55Z"/><path class="cls-16" d="M1511,304.2a6.15,6.15,0,0,1,.17-1.14l.5-1.56a40.71,40.71,0,0,1,2-4.89,4.43,4.43,0,0,1,1.21-1.41,1.72,1.72,0,0,1,1.34-.43,22.11,22.11,0,0,1,9.09,5.16c2.51,2.29,4.8,4.71,7.16,7a60.77,60.77,0,0,1,12.46,16.51,48.26,48.26,0,0,1,2.39,5l1.12,2.53,1,2.58,1.83,5,1.6,4.54a63.55,63.55,0,0,0,8.73,16.3l1.34,1.72c.45.53.93,1,1.4,1.55a17.77,17.77,0,0,0,1.42,1.46l.66.65.13.19a5.11,5.11,0,0,0,.78.83,4.57,4.57,0,0,0,.57.41l.32.19c.12,0,.28.1.28,0a9.68,9.68,0,0,0,.67-1,9.87,9.87,0,0,0,1.08-2.44q1.79-4.7,3.34-9.48c1.8-5.58,5.33-10.67,6.65-16.38,1.45-6.14-.46-13.74,4.89-18.57-1.64-1.4-.47-3.18,3-2.1l.43.14.43.15,2.73.93c1.38.48,2.5,1.53,2.5,2.2.55,6.05-1.17,11.61-2.39,17.2a93.8,93.8,0,0,1-7.26,21.11c-.81,1.68-1.6,3.35-2.36,5l-1.11,2.54-.54,1.28-.25.63-.38,1-1.6,4.38-.4,1.08a3.24,3.24,0,0,1-.43,1l-1,1.58-2,3.16c-1.34-.08-2.63-.32-3.92-.51a26.29,26.29,0,0,1-7.77-3.15c-1.2-.81-2.77-1.81-3.59-2.53s-1.62-1.37-2.39-2.1a58.37,58.37,0,0,1-7.78-9.33,105.19,105.19,0,0,1-10.31-21.2,73.05,73.05,0,0,0-10-18.73,95.77,95.77,0,0,0-7.28-8.44,57.86,57.86,0,0,0-8.11-6.88C1511.78,305.93,1510.94,305.52,1511,304.2Zm34.1,34.92c-.66-1.58-1.35-3.16-2-4.73l3.75,9.46C1546.29,342.25,1545.74,340.7,1545.09,339.12Z"/><path class="cls-16" d="M1546.65,341.27a1.65,1.65,0,0,1,1-.21c1.19.93,1.39,2.41,2.42,3.44s2.05,2,3,2.89a16,16,0,0,0,7.79,4,29.48,29.48,0,0,0,9.37,1.34,13.37,13.37,0,0,0,4.18-.33c1.44-.65,2.15-2.59,4-2.09-.2-.73.23-.74,1,.36l.11.13.1.14.62.88a1.45,1.45,0,0,1,.31,1.17,8.07,8.07,0,0,1-3.92,3,11.6,11.6,0,0,1-6.16,1.14c-2.06-.21-4.09-.42-6-.72s-3.81-.59-5.75-1a21,21,0,0,1-5.76-2.25,24.36,24.36,0,0,1-4.93-3.89,20.93,20.93,0,0,1-3.86-5.33C1543.64,342.89,1543.56,342.76,1546.65,341.27Zm6.6,9.18a13.73,13.73,0,0,0,2.14,1.22Z"/><path class="cls-12" d="M1505.61,278.87l-1-.4.39-1,.84-2.05.4-1,0,.06,1,.39a27.29,27.29,0,0,1,7.1,3.8,12.17,12.17,0,0,1,4.28,8.6,34,34,0,0,1-1.72,7.43l-2.88,8.05-.37,1-1-.36-2.08-.74-1-.36.36-1,2.87-8a33.11,33.11,0,0,0,1.45-6,7.93,7.93,0,0,0-2.69-5.37A24.25,24.25,0,0,0,1505.61,278.87Z"/><path class="cls-17" d="M1503.54,314l1,.41a1.21,1.21,0,0,1-.15-1.05l6.4-18.69v-.1l2.27-5.16a1.22,1.22,0,0,1,1.53-.65l5,1.82a1.22,1.22,0,0,1,.74,1.55l-6.88,20.13v.14l-1.72,3.7a1.22,1.22,0,0,1-1.56.65h0l1.5.63-1.22,3L1502.3,317Z"/><path class="cls-16" d="M1481.55,366.51a1.54,1.54,0,0,1-.6-.91c.63-1.94,2.16-3.25,3.08-5.16s1.9-3.82,3-5.64c2.32-4,4.83-8.05,6.88-12s4.45-7.84,6.17-12a50,50,0,0,0,2.67-5.2c.51-2.06-.23-4.65,1.72-6.24-.64-.5-.21-1.08,1.08-.68h.31l1,.34c.52.17,1,.53,1,.77a16.46,16.46,0,0,1-.86,5.95,25.85,25.85,0,0,1-2.93,7.16c-2.68,4.38-4.67,8.95-7,13.58s-4.91,9-7.32,13.64a60.64,60.64,0,0,1-4.39,7.13C1484.42,368.42,1484.27,368.56,1481.55,366.51Zm10.61-16.09a30.69,30.69,0,0,0-1.69,3c.64-1,1.16-2,1.72-3Z"/><path class="cls-16" d="M1590.22,326.07c.31-.36.81-.59,1-.48,2.25,1,3.73,3,5.91,4.45a64.29,64.29,0,0,1,6.35,4.63c4.35,3.61,8.71,7.49,12.94,11.07s8.1,7.57,12.37,11.11c1.85,1.58,3.18,3.52,5.29,5s5.23,2.06,6.35,4.74c.72-.32,1.25.35.39,1.4l-.1.14-.12.12-.7.82a1.34,1.34,0,0,1-1.16.53,25.06,25.06,0,0,1-6.17-3.64,43.21,43.21,0,0,1-7-6A131.76,131.76,0,0,0,1612,347.75c-4.82-3.92-9.49-7.93-14.51-11.57-2.76-2-5.37-4-7.91-6.19C1588.14,328.8,1587.9,328.6,1590.22,326.07Zm14.62,12.71,3.25,2.64A37.44,37.44,0,0,0,1604.84,338.78Z"/><path class="cls-16" d="M1574.2,372.1c0-.46.19-1.05.43-1.05,2.4-.77,4.83-.41,7.44-.88s5.26-.82,7.9-1c5.7-.43,11.6-.6,17.19-.94s11.23-.14,16.84-.54c2.45-.13,4.81.38,7.41,0s5.28-2.13,8-1c.29-.76,1.16-.6,1.27.74v1.43a1.33,1.33,0,0,1-.48,1.18,25.84,25.84,0,0,1-7.09,1.64,44.19,44.19,0,0,1-9.34.5,133.32,133.32,0,0,0-18.53.63c-6.28.54-12.5.88-18.74,1.72-3.38.45-6.69.81-10.13,1C1574.49,375.64,1574.15,375.66,1574.2,372.1Zm19.5-.79,4.24-.34A37.66,37.66,0,0,0,1593.7,371.31Z"/><path class="cls-14" d="M1499.84,274.76l4.17-10.15a3.11,3.11,0,0,1,2.9-1.94v0a3.24,3.24,0,0,1,1.19.24l1.34.55a3.14,3.14,0,0,1,1.74,1.8,5.4,5.4,0,0,1,1.34-.27l0-.08a4.1,4.1,0,0,1,1.51.29,4.35,4.35,0,0,1,2.55,2.87,6.18,6.18,0,0,1-.21,4.09,5.61,5.61,0,0,1-4.95,3.77,4.1,4.1,0,0,1-1.51-.29,5.15,5.15,0,0,1-1.55-1.2l-1.34,3.26a3.14,3.14,0,0,1-4.08,1.73h0l-1.35-.55A3.15,3.15,0,0,1,1499.84,274.76Z"/><path class="cls-14" d="M1510.4,270l.6-1.22a2.84,2.84,0,0,1,2.52-1.57,2.75,2.75,0,0,1,1.23.29l12.8,6.35a2.81,2.81,0,0,1,1.27,3.75l-.6,1.22a2.81,2.81,0,0,1-3.75,1.27l-12.79-6.34A2.81,2.81,0,0,1,1510.4,270Z"/><path class="cls-14" d="M1576.19,294.81a4.1,4.1,0,0,1,1.36-2,8.3,8.3,0,0,1,1.72-1,15,15,0,0,1,3.27-1c1.83-.34,2.55-.34,2.73.64a.89.89,0,0,1,.67-.72c3-.62,6-.23,8.39-.81a23.43,23.43,0,0,0,4.78-1.89,15.63,15.63,0,0,1,6-1.72,8.16,8.16,0,0,1,6.4,2.21,5.89,5.89,0,0,1,1.53,3.27,7.76,7.76,0,0,1-.36,3.35,11.82,11.82,0,0,1-3.52,5.16,14.83,14.83,0,0,1-5.27,3,12.43,12.43,0,0,1-6.26.41,14.48,14.48,0,0,1-5.5-2.72,8.85,8.85,0,0,0-4.47-2c-1.65,0-3.59.47-5.62.59a8.52,8.52,0,0,1-3.68-.43,3.67,3.67,0,0,1-1.84-1.72A3.42,3.42,0,0,1,1576.19,294.81Z"/><path class="cls-11" d="M1642.08,353.52a1.55,1.55,0,0,0,1.2-.55,1.59,1.59,0,0,0-.15-2.24l-36.75-32a1.59,1.59,0,0,0-2.09,2.4l36.75,32A1.58,1.58,0,0,0,1642.08,353.52Z"/><path class="cls-14" d="M1593.37,368.68c-12.17,1.91-11.45,18.62-11.45,18.62s-6,.72-9.55,1-14.32.73-15.26-12.65S1570,360.8,1570,360.8s33.89-1,42.49-1a20,20,0,0,1,10.54,2.65.91.91,0,0,1,.41.62,1,1,0,0,1-.77,1.1C1617.22,365,1603.05,367.13,1593.37,368.68Z"/><path class="cls-11" d="M1552.5,402.7a1.58,1.58,0,0,0,1.37-.79l15.29-26.26a1.59,1.59,0,0,0-2.75-1.6l-15.29,26.26a1.59,1.59,0,0,0,.58,2.17A1.53,1.53,0,0,0,1552.5,402.7Z"/><path class="cls-18" d="M1559.2,375.33a10.8,10.8,0,1,1,10.8,10.8A10.82,10.82,0,0,1,1559.2,375.33Zm1.07,0a9.73,9.73,0,1,0,9.73-9.73A9.74,9.74,0,0,0,1560.27,375.33Z"/><path class="cls-9" d="M1533.84,320.26h0a1.5,1.5,0,1,1,.46-2.07A1.49,1.49,0,0,1,1533.84,320.26Zm1.49-2.73a2.7,2.7,0,1,0-.84,3.73,2.7,2.7,0,0,0,.84-3.73Z"/><path class="cls-9" d="M1534.87,323.25a5,5,0,0,1-.27-2.34,5.94,5.94,0,0,1,3.09-4.32l.52-.32,1.13,1.72-1,.65-.46-.74a4.28,4.28,0,0,0-1.93,4.42l5.52-1,1,1.62-1,.65-.58-.92-5.73,1.05Z"/><path class="cls-9" d="M1535.54,324.19a2.7,2.7,0,1,0,1.15-.72.7.7,0,0,1,.31.28l.52.8a1.53,1.53,0,0,1,.66.16,1.5,1.5,0,1,1-2,.69l-.52-.81A.93.93,0,0,1,1535.54,324.19Z"/><path class="cls-9" d="M1535.9,324.43a.49.49,0,1,1,.83-.51l1.08,1.72a.48.48,0,1,1-.82.51l-1.09-1.72Z"/><path class="cls-7" d="M1731.36,416.37a36.43,36.43,0,0,0-11.34-3.44,42,42,0,0,0-60.08-8.52,53.24,53.24,0,1,0,5.82,69.88c.52.29,1,.57,1.59.83a41.78,41.78,0,0,0,26.57,3.55,37.12,37.12,0,0,0,5.21,3.14,36.47,36.47,0,1,0,32.23-65.44Z"/><path class="cls-8" d="M5.42,545.89V319.17c22.26-2.9,70.58-7.4,149-5.8,13.92.29,18.12.81,55.91,3.84,104.32,8.39,202.82,49,250.47,75.52q2.37,1.32,4.68,2.68a110.15,110.15,0,0,1,54.24,95.1v55.38Z"/><path class="cls-7" d="M214.71,416.12c0-18.44-18.4-34.16-44.28-40.34,6.15-15.12,3.88-27.53-7.47-31.22-8.66-2.81-20.85,0-33.29,6.79,6.82-25.64,1.1-46.32-15.3-49.2-9.63-1.69-21.17,3.06-32.15,12.14-10.89-16.9-27.64-27.73-46.44-27.73-32.82,0-59.42,33-59.42,73.7q0,2.36.12,4.68c-8.95,8.63-14.25,19.31-14.25,30.87,0,10.74,4.57,20.72,12.39,29h238.7A28.12,28.12,0,0,0,214.71,416.12Z"/><path class="cls-19" d="M152.53,393.8c6.15-15.12,3.88-27.53-7.47-31.22-8.65-2.81-20.85,0-33.29,6.79,6.83-25.64,1.11-46.32-15.3-49.2-9.63-1.69-21.16,3.06-32.14,12.14-10.89-16.9-27.65-27.73-46.45-27.73a50.26,50.26,0,0,0-27.77,8.54c-8.59,12.78-13.75,29.21-13.75,47.14q0,2.36.12,4.68c-8.95,8.63-14.25,19.31-14.25,30.87,0,10.74,4.57,20.72,12.39,29H195.2C190.19,410.53,173.92,398.9,152.53,393.8Z"/><g id="Calque_2" data-name="Calque 2"><path class="cls-14" d="M273.49,346.22l3.28,3.35a71.58,71.58,0,0,0,21-.63c1.28-8.93-28.9-14.15-28.9-14.15l-2.72,13.46,6.84.85Z"/><path class="cls-14" d="M236.47,344.69l.08,4.27a41.17,41.17,0,0,0,17,3.91c7.69-9.19-12.21-21.32-12.21-21.32l-12.21,13.69,4.77,2.4Z"/><path class="cls-20" d="M286.14,336.54l-19.34,8.83-2.6-66.82L258.52,230l0,.53-7.64,110.75H230.41v-.95h0L237,228.92s1-14.22,1.49-18.69,1.09-5.32,1.09-5.32,35.47-.53,36.87-.53,3,4.21,3.66,7.57,4.37,63.93,4.37,63.93Z"/><path class="cls-21" d="M286.14,336.54l-19.34,8.83-2.6-66.82L258.52,230l0,.53-7.64,110.75H238l-7.56-.95h0l2-1.42c1.51-11.38,3.3-16.21,4.26-27.71l2.53-66.72c-.74-5.51.36-31.4,3.44-39.56,5,2.4,25.43.44,31.87.12,5.15-.25,5.75,6.45-.05,11.42s-11.66,8.08-13.41,14.14L268,278.32l2.15,41.44c.33,9.19,7.28,16.53,15.88,16.78Z"/><g id="kcO2D6"><path class="cls-22" d="M300.93,176.47a6.64,6.64,0,0,0,.19,1.88,2.16,2.16,0,0,0,2.91,1.37,1,1,0,0,1,.79-.08,7.61,7.61,0,0,0,2.28.31,2,2,0,0,0,2.07-1.08,2.09,2.09,0,0,0-.09-2.35,10.29,10.29,0,0,0-3.89-3.37c-2.43-1-4.24.18-4.26,2.82Z"/><path class="cls-22" d="M311.08,184.37a.93.93,0,0,1-1.05.16,1.55,1.55,0,0,0-1.06-.07,12.17,12.17,0,0,1-3.93.35c-3.45-.32-6.58,1.11-9.87,1.66a34.15,34.15,0,0,1-5.35.3c-.41,0-.58-.26-.79-.51-.21-.42.05-.9-.15-1.33h0c0-3.25,0-6.49-.05-9.74-.06-1.94-.33-3.88-.5-5.82a1.09,1.09,0,0,1-.13.17v0a.49.49,0,0,0,0-.11,1.52,1.52,0,0,0-1.6.12,12.64,12.64,0,0,1-2.95.13c-1.1,0-2.21,0-3.31,0-.54,0-.7.17-.71.71,0,3.47-.09,6.94-.15,10.41,0,2-.1,4.08-.16,6.11a.56.56,0,0,0,.29-.31,4.55,4.55,0,0,1,0-.52.75.75,0,0,1,0-.57c0,.19,0,.38,0,.57a1,1,0,0,1,0,.52c0,.44.1.89.17,1.33a7.92,7.92,0,0,0,2.77,4.4c1.66,1.27,3.55,1,5.39.61,2.26-.52,4.49-1.11,6.71-1.76a44.19,44.19,0,0,1,6.35-1,.68.68,0,0,1,.4,0,14,14,0,0,0,4,1,6.8,6.8,0,0,0,4.8-.74,9.23,9.23,0,0,0,4-3.44,5.59,5.59,0,0,0,.16-1.14A2.06,2.06,0,0,0,311.08,184.37Z"/><path class="cls-23" d="M287.88,166.06q-.37-4.77-1.16-9.5c-.6-3.64-4.23-8.36-5.13-11.55a18.51,18.51,0,0,0-7.86-10.58,22.63,22.63,0,0,0-8.25-3.44,21.27,21.27,0,0,0-3.06-.62l-.45-.07a18.29,18.29,0,0,0-12.63,0l-.15.05-.24.11-.47.21c-1.4.55-2.89.77-4.32,1.19a25.81,25.81,0,0,0-8.1,4A16.93,16.93,0,0,0,229.19,148c-.61,4.88-3.35,11.88-2.78,17.3.16,1.56.19,3.13.35,4.7,0,.37-.61.74,0,1.08a25.57,25.57,0,0,1,8.85-.33,2.06,2.06,0,0,1,.47.13,6.06,6.06,0,0,0,2.29.59c.88.21,1.38.59,1.34,1.54a30.59,30.59,0,0,1,.07,3.71,1.51,1.51,0,0,0,.3,1.16,16.53,16.53,0,0,0,3.83.6.42.42,0,0,0,.18-.11.72.72,0,0,0,.65.11c.67-.33,1-1,1.47-1.54a15,15,0,0,0,2.37-3.47,1.18,1.18,0,0,1,1.2-.7,27.75,27.75,0,0,1,4.37.19,2.81,2.81,0,0,1,.49.09c.24.08.51.18.51.47s-.35.28-.57.3c-1.79.17-2.24.79-2.39,2.59a4.15,4.15,0,0,0,2.14,4.3,6.44,6.44,0,0,1,.65.52c2.11,1.6,4,3.49,6.06,5.11.36.28.64.72,1.18.62.21.34.59.35.91.45a6.47,6.47,0,0,1,3,1.56c.22.57-.14.8-.58.85a22.05,22.05,0,0,0-4.15,1.09,3.53,3.53,0,0,1-2.11.07,2.44,2.44,0,0,0-1.39,0,27.43,27.43,0,0,1-4.23.69,3.89,3.89,0,0,1-3.09-.76,9.49,9.49,0,0,1-2.74-2.58.89.89,0,0,0-1.14-.38c-1.69.41-3.41.65-5.1,1a28.54,28.54,0,0,1-4.33.59c-.3,0-.69-.07-.77.39h0c.22.23.58-.06.8.19a53.29,53.29,0,0,1,.85,5.62c.36,2.75.7,5.5,1.06,8.25a2.79,2.79,0,0,0,.26.95,2.91,2.91,0,0,1,.35,1.89,1.06,1.06,0,0,0,.94.18c3.94-.47,7.89-.8,11.85-1,2.06-.12,4.12-.25,6.19-.22,4,0,8,0,12,0,2.09,0,4.18.14,6.27.24a1.31,1.31,0,0,0,.87-.16c.1-.28.19-.55.29-.82h0a.5.5,0,0,0,0-.16,18.36,18.36,0,0,0,.46-4,15.25,15.25,0,0,0,.28-3.09,50.07,50.07,0,0,0,.2-5.34,24.91,24.91,0,0,0,0-5l.1,0a1,1,0,0,0,.17-.57c.25-3.49.13-7,.24-10.47.06-1.81.1-3.62.13-5.44,0-.89.09-1,1-1h4.54c.4,0,.84.07,1.15-.31a.9.9,0,0,1-.05-.09h0l1.64,0a.21.21,0,0,0,.13-.17A28.93,28.93,0,0,0,287.88,166.06Zm-47.16,5.28h0s0,0,0,0Z"/></g><polygon class="cls-24" points="251.03 188.47 345.2 188.47 345.2 185.29 345.88 184.9 345.88 174 251.03 173.99 251.03 188.47"/><rect class="cls-25" x="250.63" y="173.99" width="26.32" height="14.48"/><path class="cls-22" d="M266.36,188.75a8,8,0,0,0-3.35-1.62l-.79-.22a41.27,41.27,0,0,1-3.9-3.18c-1.45-1.32-3-2.56-4.53-3.74a2.85,2.85,0,0,1-1.36-2.73,10.26,10.26,0,0,0,0-1.24,1.8,1.8,0,0,1,1.9-2c.16,0,.33,0,.49,0s.67.1.69-.26a.79.79,0,0,0-.6-.88,18.33,18.33,0,0,0-2.21-.3c-1-.05-2.09,0-3.14,0-.44,0-.83.06-1,.52-.87,2-2.41,3.54-3.71,5.25a10.9,10.9,0,0,1-.84,1c.09-.38.31-.7,0-1a22.93,22.93,0,0,0-3.78-.53c-.85-.66-1.85-.29-2.74-.4.52-.17,1.11-.25,1.68-.41a.93.93,0,0,0,.79-1.06c-.07-1,.6-4.35-1.2-4.62a17.23,17.23,0,0,0-2.66-.47H236a1.34,1.34,0,0,0,.06-.12,2.09,2.09,0,0,0-1.48-.4,26.81,26.81,0,0,0-6.87.28c-.35.09-.72.11-.95.44.42,4.66,1,9.3,1.76,13.91,0,.08,0,.16.05.24.56,3.4.44,3.19,4.13,4.29a10.28,10.28,0,0,0,3.84.42,6.57,6.57,0,0,1,2.25-.29c2.69-.3,5.29-1,7.94-1.51.49-.09.77-.1,1.06.4.89,1.54,2.44,2.34,3.86,3.27a1.35,1.35,0,0,0,.73.09,20.54,20.54,0,0,0,5.46-.69,2.14,2.14,0,0,1,1.39,0,3.66,3.66,0,0,0,2.42-.11,15.35,15.35,0,0,1,4.07-1C266.42,190,266.65,189.48,266.36,188.75Z"/><path class="cls-9" d="M276.21,113a21.22,21.22,0,0,1-6.1,14.77,20.1,20.1,0,0,1-14.48,6,20.92,20.92,0,1,1,20.58-20.76Z"/><path class="cls-20" d="M255.87,134.28h-.24a.58.58,0,0,1-.57-.58.52.52,0,0,1,.58-.57,20.44,20.44,0,0,0,14.45-5.8.57.57,0,0,1,.8.82A21.6,21.6,0,0,1,255.87,134.28Z"/><path class="cls-14" d="M272.11,105.6l-1.82-1.07a2.09,2.09,0,1,1-.29,1Z"/><path class="cls-14" d="M260.85,108.55l-1.8-1.06a2.11,2.11,0,1,1-.28,1Z"/><path class="cls-14" d="M265,119.84a7.45,7.45,0,0,0,8.39-3.64c.51-.93-.92-1.78-1.37-.83a5.79,5.79,0,0,1-6.53,2.87.83.83,0,0,0-.43,1.6Z"/><path class="cls-26" d="M247.82,106.83a2.23,2.23,0,0,0-1-1.37,3.34,3.34,0,0,0-2.45,0,39.27,39.27,0,0,0-6,2.34c-2,1-4.34,1.64-4.4,4.11,2.1-.91,1.88,0,3.1,1.47a3,3,0,0,0,2.46,1.21,1.87,1.87,0,0,0,1.74-1.88,2.51,2.51,0,0,0,2.48,2.55,2.27,2.27,0,0,0,.45,0,2.52,2.52,0,0,0,1.67-3.14,3,3,0,0,0-.14-.36,1.6,1.6,0,0,0,2.09-.78,4.57,4.57,0,0,0,.32-2.45A7.17,7.17,0,0,0,247.82,106.83Z"/><path class="cls-7" d="M272.52,98.29c-6.45-6.65-12.66-12.31-26.47-6.37-10.11,4.35-11.45,12.2-12.17,20Z"/><path class="cls-27" d="M271.89,99.25c-9,3.31-23.82,7.59-23.82,7.59s12-25.49,25.83-23.15C286.36,85.81,279,96.62,271.89,99.25Z"/><ellipse class="cls-9" cx="237.78" cy="115.62" rx="4.3" ry="5.5" transform="translate(-23.8 77.13) rotate(-17.56)"/><polyline class="cls-9" points="268.45 113.33 272.64 110.28 265.92 104.05"/><path class="cls-14" d="M268.45,113.9a.57.57,0,0,1-.33-1l3.62-2.65-6.21-5.75a.58.58,0,0,1,0-.81.57.57,0,0,1,.81,0l7.23,6.7-4.75,3.46A.6.6,0,0,1,268.45,113.9Z"/><path class="cls-9" d="M239.51,121.14c-2.25.71-4.84-1-5.76-4s.18-5.83,2.44-6.54"/><path class="cls-14" d="M238.49,121.87c-2.21,0-4.43-1.81-5.28-4.51a6.87,6.87,0,0,1,0-4.46,4.39,4.39,0,0,1,2.77-2.8.57.57,0,1,1,.34,1.09,3.3,3.3,0,0,0-2,2.11,5.67,5.67,0,0,0,0,3.71c.82,2.6,3.08,4.21,5,3.59a.57.57,0,0,1,.35,1.09A4.16,4.16,0,0,1,238.49,121.87Z"/><path class="cls-26" d="M256.6,107.2a5.23,5.23,0,0,1,5-3.74.83.83,0,0,0,0-1.65,6.85,6.85,0,0,0-6.63,5,.83.83,0,0,0,1.6.44Z"/><path class="cls-26" d="M268.59,101.64a6,6,0,0,1,2-.69c1-.21.6-1.81-.44-1.6a7.15,7.15,0,0,0-2.36.87c-.91.56-.07,2,.83,1.37Z"/><path class="cls-20" d="M239.72,173.61l-.17,0a.63.63,0,0,1-.44-.78,35.86,35.86,0,0,0,.78-11.18c-.08-1.5-.1-1.95.12-2.24a16.91,16.91,0,0,0-.89-2c-.43-.87.14-2,.55-2.85a5.13,5.13,0,0,0,.27-.57.6.6,0,0,1,.63-.6.65.65,0,0,1,.63.66,2.58,2.58,0,0,1-.39,1.08c-.21.42-.7,1.41-.55,1.71,1,2.08,1.23,2.74.94,3.2l-.09.15c0,.31,0,.86,0,1.39a36.89,36.89,0,0,1-.83,11.58A.63.63,0,0,1,239.72,173.61Zm1-13.25h0Z"/></g></g></g></g></g></svg>