<svg xmlns="http://www.w3.org/2000/svg" viewBox="0 0 144 86"><defs><style>.cls-1{isolation:isolate;}.cls-2{fill:#fff;}.cls-3{fill:#ada56d;}.cls-4,.cls-7{fill:#e8db89;}.cls-5{fill:#cfc584;}.cls-6{fill:#fcc670;}.cls-7{opacity:0.65;mix-blend-mode:multiply;}.cls-8{fill:#ebe1a0;}.cls-9{fill:#eb5c40;}.cls-10{fill:#ed7464;}.cls-11{fill:#b24038;}.cls-12{fill:#d65245;}</style></defs><title>nos_offres_immobilier</title><g class="cls-1"><g id="Calque_116" data-name="Calque 116"><circle class="cls-2" cx="72" cy="43" r="42.99"/></g><g id="Nos_offres_4" data-name="Nos offres 4"><g id="bloc_1-2" data-name="bloc 1"><path class="cls-3" d="M94.55,43.41c-1.22-.08-2.67.76-4.11,1.67-4.53,2.87-8,9.15-13.82,9.09-2.65,0-6.89-1.87-11.21-3.48L65,55.22A57.19,57.19,0,0,1,71.2,57,81.45,81.45,0,0,0,82,60c2.91-1.83,7.1-5.76,13.62-13C96.62,45.94,96,43.49,94.55,43.41Z"/><path class="cls-4" d="M75.34,55.6a78.39,78.39,0,0,0,10.82,3c2.91-1.82,7.1-5.76,13.63-13,1-1.08.34-3.52-1.1-3.61-1.23-.07-2.68.77-4.11,1.68-4.54,2.86-8,9.14-13.83,9.09s-19.32-8.93-24.51-4.69L56.19,48l-.37,3.72C62.44,52.42,69,53.34,75.34,55.6Z"/><path class="cls-5" d="M80.37,54.54a81.45,81.45,0,0,0,10.83,3c2.91-1.83,7.34-5.48,13.87-12.74a1.75,1.75,0,0,0-1.17-2.91,9.83,9.83,0,0,0-4.29.7c-4,1.61-8,9.14-13.82,9.09S66.47,42.74,61.28,47l-.05-.06-.38,3.72C67.47,51.35,74.07,52.28,80.37,54.54Z"/><path class="cls-6" d="M30,59.23A12.78,12.78,0,0,0,41.63,70.34s9.43-10.13,11.53-11C58.9,57,68,60,70.42,60.2c4,.32,13,.5,17.6,1.29a2.07,2.07,0,0,0,1.61-.4,86.59,86.59,0,0,1,8.45-6c2.42-1.45,4.46-4.52,7.43-7.82a1.75,1.75,0,0,0-1.17-2.91,9.83,9.83,0,0,0-4.29.7c-4,1.61-8,9.14-13.82,9.09S66.91,45.25,61.72,49.5c0,0-6.21-7.72-11.62-4.45S38.33,54.66,30,59.23Z"/><path class="cls-7" d="M70.46,49.17,63.2,44.78c-13-4.48-11.81,1.22-13.67,2.37l8.75,5s6.46-2.89,23.11,1C81.39,53.07,70.92,49.21,70.46,49.17Z"/><path class="cls-6" d="M86.71,47.84a.71.71,0,0,0-.55-1c-3.59-.32-17.14-1.69-25.11-4.44C48.07,38,49,45.87,47.16,47l11.12,5.09S60,46.67,78.54,52C78.54,52,85.5,52.63,86.71,47.84Z"/><path class="cls-8" d="M81.35,46.6s-2.22,1-1,2.28c.61.68,1.67,1.11,3.61.72a2.78,2.78,0,0,0,2.33-1.94.53.53,0,0,0-.47-.62Z"/><path class="cls-8" d="M104.77,45.61c-1.31-.18-3.59.66-3.53,3.79,0,.73,1.06,1,1.79.47s1.47-1.43,2.35-2.33A1.1,1.1,0,0,0,104.77,45.61Z"/><path class="cls-9" d="M103,24.38a33.83,33.83,0,0,0-6.55,5.7C91.93,35.42,86,39.25,82,39.77c-5.57.72-12.94-1.7-21-11.47a61.22,61.22,0,0,0,10.45-6.61C84.44,11,90.64,25.27,103,24.38Z"/><path class="cls-10" d="M103,24.38a33.83,33.83,0,0,0-6.55,5.7C91.93,35.42,86,39.25,82,39.77c-5.57.72-12.94-1.7-21-11.47C61,28.3,69.28,34.68,103,24.38Z"/><path class="cls-11" d="M76.49,31C83,31.09,89.61,29.9,94.43,26c0,0-6.06,3.4-16.81,3.72,2.46-3.6,11.1-4.87,11.1-4.87-.41,0-9.84.72-12.21,4.89a58,58,0,0,1-6.64-.33c1.46-4,9.49-6.86,9.49-6.86-.38.1-9,2.44-10.48,6.76a70.58,70.58,0,0,1-15-3.6s-1.72.57-.08,1.13a80.25,80.25,0,0,0,12.76,3.26c4.09,7.14,12.76,7.55,12.85,7.56s-7.73-1-11.66-7.36a63.51,63.51,0,0,0,7.36.72c6.08,4.8,12,3.64,12.3,3.58A18,18,0,0,1,76.49,31Z"/><path class="cls-12" d="M76.49,31a33.4,33.4,0,0,0,13.12-2.2c-7.77,3.31-23,1.25-23,1.25,4.09,7.14,12.76,7.55,12.85,7.56s-7.73-1-11.66-7.36a63.51,63.51,0,0,0,7.36.72c6.08,4.8,12,3.64,12.3,3.58A18,18,0,0,1,76.49,31Z"/></g></g></g></svg>