<svg xmlns="http://www.w3.org/2000/svg" viewBox="0 0 144 86"><defs><style>.cls-1{fill:#fff;}.cls-2{fill:#65007f;}.cls-3{fill:#eb5c40;}</style></defs><title>nos_offres_entreprise</title><g id="Calque_116" data-name="Calque 116"><circle class="cls-1" cx="72" cy="43" r="42.99"/></g><g id="Nos_offres_5" data-name="Nos offres 5"><g id="bloc_1" data-name="bloc 1"><path class="cls-2" d="M96.26,58.09H93.93a.83.83,0,0,1-.83-.83v-.78a2.35,2.35,0,0,0-2.35-2.35h-.53a15.73,15.73,0,0,0-15.68-15c-.49,0-4.21,0-5.62,0a9.8,9.8,0,0,0-8.39-4.82.76.76,0,0,0-.72,1l.17.49a7.78,7.78,0,0,1,0,5.34A18.67,18.67,0,0,0,52.37,47H49a2,2,0,0,0-2,2v9.36a2,2,0,0,0,2,2H51.1a16.06,16.06,0,0,0,4.79,5.47V71a2,2,0,0,0,2,2H63a2,2,0,0,0,2-2V69.8A1.79,1.79,0,0,1,66.84,68H74.2A1.79,1.79,0,0,1,76,69.8V71a2,2,0,0,0,2,2h5.09a2,2,0,0,0,2-2V65a13.8,13.8,0,0,0,5-9.33h.55a.83.83,0,0,1,.83.83v.78a2.36,2.36,0,0,0,2.35,2.36h2.33a.77.77,0,0,0,0-1.53Zm-40.63-4.7a3,3,0,0,1-3-3,.79.79,0,1,1,1.58,0,1.45,1.45,0,0,0,2.89,0,.79.79,0,1,1,1.58,0A3,3,0,0,1,55.63,53.39ZM78.26,46h-8.9a.93.93,0,1,1,0-1.85h8.9a.93.93,0,1,1,0,1.85Z"/><path class="cls-3" d="M75,34.93A10,10,0,1,0,65,25a10,10,0,0,0,10,10Zm0-18.16A8.18,8.18,0,1,1,66.85,25,8.17,8.17,0,0,1,75,16.77Zm0,0"/><path class="cls-3" d="M75.83,29.59h1.49a.65.65,0,1,0,0-1.3H75.83a3.36,3.36,0,0,1-3-1.85h3.44a.65.65,0,0,0,0-1.3H72.48v-.39h3.79a.65.65,0,1,0,0-1.3H72.83a3.36,3.36,0,0,1,3-1.85h1.49a.65.65,0,0,0,0-1.3H75.83a4.66,4.66,0,0,0-4.4,3.15H70.35a.65.65,0,0,0,0,1.3h.84v.39h-.84a.65.65,0,0,0,0,1.3h1.08a4.66,4.66,0,0,0,4.4,3.15Zm0,0"/></g></g></svg>