<svg xmlns="http://www.w3.org/2000/svg" viewBox="0 0 144 86"><defs><style>.cls-1{fill:#fff;}.cls-2{fill:#eb5c40;}.cls-3{fill:#65007f;}.cls-4{fill:#9b85cc;}</style></defs><title>nos_offres_entreprise</title><g id="Calque_116" data-name="Calque 116"><circle class="cls-1" cx="72" cy="43" r="42.99"/></g><g id="Nos_offres_5" data-name="Nos offres 5"><g id="bloc_1" data-name="bloc 1"><path class="cls-2" d="M70.36,39.93v8.31h-3.9V25.83H75a8.68,8.68,0,0,1,6,2A6.6,6.6,0,0,1,83.21,33a6.36,6.36,0,0,1-2.16,5.13A9,9,0,0,1,75,39.93Zm0-3.14H75a4.63,4.63,0,0,0,3.17-1A3.58,3.58,0,0,0,79.3,33a3.88,3.88,0,0,0-1.11-2.9,4.28,4.28,0,0,0-3-1.11H70.36Z"/><path class="cls-3" d="M72,12.6A30.4,30.4,0,1,0,102.4,43,30.4,30.4,0,0,0,72,12.6ZM88.78,63.88A26.79,26.79,0,0,1,51.12,26.22l3.54-3.63A26.78,26.78,0,0,1,92.41,60.34Z"/><path class="cls-2" d="M61.59,53.94a.84.84,0,0,0-1.31,1A12.67,12.67,0,0,0,83.7,54a.83.83,0,0,0-1.39-.85C78.79,56.9,71.2,62.39,61.59,53.94Z"/><circle class="cls-4" cx="55.84" cy="47.74" r="3.84" transform="translate(-16.92 37.61) rotate(-32.6)"/><path class="cls-4" d="M92,46a3.84,3.84,0,1,1-4-3.65A3.83,3.83,0,0,1,92,46Z"/></g></g></svg>