<svg xmlns="http://www.w3.org/2000/svg" viewBox="0 0 240 220"><defs><style>.cls-1{isolation:isolate;}.cls-2{fill:#bedded;}.cls-3{fill:#fff;}.cls-4,.cls-6{fill:#85c1c1;}.cls-4,.cls-5{opacity:0.5;mix-blend-mode:multiply;}.cls-7{fill:#2f2f30;}.cls-8{fill:#b2b2b2;}.cls-9{fill:#2b2b2a;}.cls-10{fill:#1d1d1b;}.cls-11{fill:#9d9d9c;}.cls-12{fill:#392d87;}.cls-13{fill:#312783;}.cls-14{fill:#706f6f;}</style></defs><title>notre_societe</title><g class="cls-1"><g id="Notre_société_mobile" data-name="Notre société mobile"><g id="notre_histoire-2" data-name="notre histoire"><path class="cls-2" d="M239.15,101.91a33.74,33.74,0,0,0-2.33-8.16,60.8,60.8,0,0,0-8.68-14.17,119.35,119.35,0,0,0-11-11.94,193.13,193.13,0,0,0-24.64-19.79,212.71,212.71,0,0,0-26.3-15.31c-4.46-2.21-9-4.14-13.5-5.95-.52-.21-1-.4-1.57-.6-19.37-9.52-40-14-59.37-8.76C27.52,34.46,5.8,106.91,5.8,106.91,3.64,112,4.62,119.55,8.12,128.25c0,.18,0,.28,0,.28s0-.05,0-.14c12.26,30.23,55,74,102.54,73.83a152.77,152.77,0,0,0,22.54-1.59c-1.22.29-2.45.57-3.66.83a81.22,81.22,0,0,1-12.54,1.66,94,94,0,0,1-23.92-1.89,119.16,119.16,0,0,1-21.26-6.56,145.49,145.49,0,0,1-33.17-19.22A119.36,119.36,0,0,1,17.87,155.2c-5-6.29-7.84-11.91-9.08-15.94a22.64,22.64,0,0,1-1-4.68c-.07-.54-.07-1-.1-1.23a1.91,1.91,0,0,0,0-.41,6.39,6.39,0,0,0-.07,1.65,21.07,21.07,0,0,0,.83,4.8c1.12,4.13,3.94,9.89,8.84,16.32A117.31,117.31,0,0,0,38,176.38a144.69,144.69,0,0,0,33.32,19.68,120.83,120.83,0,0,0,21.49,6.77,95.56,95.56,0,0,0,24.34,2A82.54,82.54,0,0,0,130,203.23c4.26-.9,8.56-2,12.88-3.22a131.71,131.71,0,0,0,12.93-4.54c1.71-.7,3.41-1.46,5.1-2.25,28.52-10.75,56.18-30.48,72.57-55.7,3.82-5.89,4.25-12.77,2.82-19.74l1.4-3.3.2-.47.18-.51.35-1c.2-.68.37-1.37.54-2.06A25.14,25.14,0,0,0,239.15,101.91ZM236.9,110c-.16.62-.3,1.25-.49,1.87l-.32.91-.15.46-.2.46-.3.72c-3.05-10.65-9.87-21.17-15-28.36a208.78,208.78,0,0,0-52.47-50.37,213,213,0,0,1,23.39,13.89,192.72,192.72,0,0,1,24.36,19.6A116.92,116.92,0,0,1,226.51,80.9a59.1,59.1,0,0,1,8.39,13.67,32.6,32.6,0,0,1,2.19,7.64A23.07,23.07,0,0,1,236.9,110Z"/><path class="cls-3" d="M27.75,117.47c.13-.42-3.13-1.81-7.37-2.78h0l0-.06c1.41-3.67,2.22-6.64,1.84-6.79s-1.49,1.94-2.78,4.91c-2.51-4.92-4.77-8.64-5.15-8.45s1.44,4.66,4.1,10v0c-3.28-.6-5.76-.66-5.82-.3s2.35,1.06,5.61,1.84c-1.41,3.7-2.23,6.68-1.85,6.83s1.79-2.48,3.26-6.05c2.17,4.12,4,7.05,4.33,6.88s-.8-3.06-2.63-6.94C24.84,117.34,27.63,117.86,27.75,117.47Z"/><path class="cls-3" d="M201.89,157.07c.22-.11-.42-2-1.61-4.1v-.05c2.06-.79,3.59-1.56,3.51-1.78s-1.36.11-3.08.69c1.1-2.88,1.8-5.21,1.58-5.3s-1.39,2.34-2.59,5.42v0c-1-1.59-1.88-2.64-2.05-2.52s.43,1.37,1.33,3c-2.06.8-3.6,1.57-3.52,1.79s1.7-.19,3.73-.92c-.9,2.44-1.43,4.3-1.23,4.37s1-1.47,1.89-3.68C200.85,155.81,201.68,157.16,201.89,157.07Z"/><path class="cls-3" d="M119.91,70.59c.23-.11-.44-2.08-1.69-4.31h0l0,0c2.15-.83,3.76-1.65,3.67-1.87s-1.43.11-3.23.72c1.16-3,1.89-5.47,1.66-5.56s-1.46,2.45-2.72,5.69v0c-1-1.67-2-2.77-2.16-2.65s.47,1.44,1.41,3.16c-2.17.84-3.79,1.65-3.7,1.88s1.78-.2,3.91-1c-.94,2.56-1.5,4.51-1.29,4.59s1-1.55,2-3.87C118.82,69.27,119.69,70.69,119.91,70.59Z"/><path class="cls-4" d="M37.85,67.39c-.23-.12-1.33,1.65-2.27,4v0h0c-2-1.15-3.65-1.88-3.77-1.67s1,1,2.6,2c-3.08,1-5.44,2-5.36,2.22s2.83-.41,6.13-1.48h0c-.64,1.85-.9,3.29-.69,3.35s.82-1.27,1.57-3.08c2,1.15,3.67,1.89,3.79,1.68s-1.28-1.26-3.22-2.43c2.58-.89,4.44-1.69,4.38-1.9s-1.85.19-4.26.91C37.52,69.06,38.07,67.49,37.85,67.39Z"/><g class="cls-5"><path class="cls-6" d="M219.26,101.2c-.57.27-3.18-5.12-8.34-10.16s-10.49-7.66-10.23-8.23c.1-.25,1.62.06,3.86,1.12.56.27,1.16.57,1.79.95s1.28.79,2,1.25a30.79,30.79,0,0,1,7.56,7.49c.46.68.91,1.31,1.26,1.95s.7,1.23,1,1.78C219.18,99.58,219.51,101.1,219.26,101.2Z"/><path class="cls-6" d="M225.3,105.06c-.59.1-1.63-3.31-3.5-7.19S218,91,218.42,90.62c.21-.18,1,.34,2.05,1.44a20.53,20.53,0,0,1,3.24,4.9,20.15,20.15,0,0,1,1.76,5.6C225.69,104.05,225.58,105,225.3,105.06Z"/></g><g class="cls-5"><path class="cls-6" d="M56.87,169.43c0-.62,6.11-.81,13.4-2.26s13-3.5,13.27-2.94c.11.26-1.2,1.13-3.49,2.15a45.76,45.76,0,0,1-9.37,2.86,44.44,44.44,0,0,1-9.77.86C58.4,170,56.87,169.71,56.87,169.43Z"/><path class="cls-6" d="M47,168.66c.41-.46,3.79,2.17,8.62,3.89s9.09,1.94,9.12,2.56c0,.28-1.08.61-2.89.65a17.78,17.78,0,0,1-3.17-.24,23,23,0,0,1-3.78-1,22.58,22.58,0,0,1-3.52-1.67A18,18,0,0,1,48.75,171C47.38,169.82,46.76,168.86,47,168.66Z"/></g><path class="cls-3" d="M31.35,197.77l0-.58a2.66,2.66,0,0,0-1.06-1.79,2.72,2.72,0,0,0-1.61-.5A2.65,2.65,0,0,0,26,197.23l0,.58a3,3,0,0,0,.55,2,2.61,2.61,0,0,0,2.15,1,2.55,2.55,0,0,0,1.9-.81A2.75,2.75,0,0,0,31.35,197.77Z"/><path class="cls-3" d="M30.51,183.49c-2.22,0-2.38,3.45-.15,3.45S32.74,183.49,30.51,183.49Z"/><path class="cls-3" d="M207,168.15c-2.33,0-1.85,3.6.46,3.6S209.26,168.15,207,168.15Z"/><path class="cls-3" d="M212,179.23a2,2,0,0,0-.44-.9,2.66,2.66,0,0,0-1.69-.93,2.6,2.6,0,0,0-1.9.54,2.46,2.46,0,0,0-.94,1.69v.47a1.92,1.92,0,0,0,.11,1,1.83,1.83,0,0,0,.44.89,2.54,2.54,0,0,0,3.59.39,2.47,2.47,0,0,0,.93-1.68v-.47A1.92,1.92,0,0,0,212,179.23Z"/><path class="cls-3" d="M42.26,34.81c-2.38,0-2.55,3.69-.17,3.69S44.64,34.81,42.26,34.81Z"/><path class="cls-3" d="M55.47,37.2a2.18,2.18,0,0,0-2.9-.15l-.45.41a1.73,1.73,0,0,0-.45.84,2.17,2.17,0,0,0-.05,1.21,2.32,2.32,0,0,0,2.2,1.85A2.38,2.38,0,0,0,56.07,40,2.44,2.44,0,0,0,55.47,37.2Z"/><path class="cls-3" d="M169.21,26.23c-2.07,0-2.49,3.24-.39,3.24S171.31,26.23,169.21,26.23Z"/><path class="cls-3" d="M180.72,31.86c-3.15,0-3.09,4.9.07,4.9S183.88,31.86,180.72,31.86Z"/><path class="cls-3" d="M2.32,120.67c-2.21,0-2.36,3.44-.15,3.44S4.53,120.67,2.32,120.67Z"/><path class="cls-3" d="M5.64,108.91c-3,0-2.73,4.64.25,4.64S8.62,108.91,5.64,108.91Z"/><path class="cls-3" d="M229.84,131.07c-2.45,0-1.93,3.78.49,3.78S232.25,131.07,229.84,131.07Z"/><path class="cls-3" d="M233.31,119.39a2.35,2.35,0,0,0-1.18-1.24,2.44,2.44,0,0,0-1.51-.06,2.22,2.22,0,0,0-.89.5,3.2,3.2,0,0,0-1,1.1,2.5,2.5,0,0,0-.51,1.22v.68a2.42,2.42,0,0,0,1.23,1.81,2.52,2.52,0,0,0,3.6-1.17,5.27,5.27,0,0,0,.19-.51,3.83,3.83,0,0,0,.19-.74,1.82,1.82,0,0,0,0-.4A2.31,2.31,0,0,0,233.31,119.39Z"/><g id="Calque_2" data-name="Calque 2"><g id="textes"><path class="cls-7" d="M123.38,163.94a1.4,1.4,0,0,1-.38-2.75l10.81-3.08a1.4,1.4,0,1,1,.76,2.7l-10.81,3.08A1.2,1.2,0,0,1,123.38,163.94Z"/><polygon class="cls-8" points="113.17 135.35 92.17 69.96 88.94 71.08 109.95 136.47 113.17 135.35"/><path class="cls-9" d="M185.53,161.36a33.37,33.37,0,0,0,28-10.33,32.06,32.06,0,0,0,8.19-26.75A32.86,32.86,0,0,0,205.9,101a32.29,32.29,0,0,0-27.59-2.47,30.71,30.71,0,0,0-18.83,19.71A35.75,35.75,0,0,0,158,132a35,35,0,0,0,4,13.19,34.16,34.16,0,0,0,6.6,8.47,45.6,45.6,0,0,0,8.9,6.32c.71.39,1.37,1.26,1.21,1.89l-.3,1.25a.61.61,0,0,1,0,.19v.2c-.44,1.52-3.46.71-4.21-.61a23,23,0,0,1-11.68-7.58,40.48,40.48,0,0,1-6.87-12.13,45.37,45.37,0,0,1-2.91-12.31A33.56,33.56,0,0,1,154,118.19,38.22,38.22,0,0,1,172.3,95.85a37.16,37.16,0,0,1,29-2.6,38,38,0,0,1,23.73,50.14,36.64,36.64,0,0,1-19.34,20.08A42.75,42.75,0,0,1,192.87,167a30.52,30.52,0,0,1-13.14-1.52c-.82-.29-1.52-1.06-1.35-1.61.3-2,.75-2.94,1.77-3.19a4.59,4.59,0,0,1,2,0C183,161,184.15,161.07,185.53,161.36Zm37.05-45a35.6,35.6,0,0,1,2.39,14,32.62,32.62,0,0,0-2.39-14Z"/><path class="cls-8" d="M149.1,130.12a41.31,41.31,0,0,1,41.22-41.28h.16c.65,0,6.36.15,9.14,1.53l-1.18,2.38c-1.91-1-6.42-1.23-8-1.26a38.67,38.67,0,0,0-38.68,38.63Z"/><path class="cls-8" d="M15.13,123.36l-2.61-.48a41.29,41.29,0,0,1,48-33.15l-.38,2.63A38.65,38.65,0,0,0,15.13,123.36Z"/><path class="cls-8" d="M92.11,129A38.27,38.27,0,0,0,58.49,92l.31-2.64a41,41,0,0,1,36,39.61Z"/><path class="cls-9" d="M78.79,107.92A33.37,33.37,0,0,0,51,97,32,32,0,0,0,27.1,111.5a32.83,32.83,0,0,0-3.66,27.89A32.3,32.3,0,0,0,42.38,159.6a30.7,30.7,0,0,0,27.17-2.17,35.92,35.92,0,0,0,10.27-9.26,35.06,35.06,0,0,0,5.76-12.53,34.07,34.07,0,0,0,.71-10.7,45.45,45.45,0,0,0-2.42-10.62,2.13,2.13,0,0,1,.34-2.23l1-.77.15-.14.17-.1c1.33-.82,3,1.77,2.74,3.24a23.07,23.07,0,0,1,3.63,13.47,40.48,40.48,0,0,1-3,13.64,45.52,45.52,0,0,1-6.07,11.12,33.44,33.44,0,0,1-9.41,8.64A38.18,38.18,0,0,1,45,165.59,37.14,37.14,0,0,1,21.7,148.2a38.22,38.22,0,0,1,3.55-43.55A37.84,37.84,0,0,1,37.38,95a36.58,36.58,0,0,1,27.8-2.11,42.56,42.56,0,0,1,11.95,5.9A30.5,30.5,0,0,1,86,108.62a1.85,1.85,0,0,1,0,2.09c-1.52,1.29-2.52,1.69-3.46,1.22a4.84,4.84,0,0,1-1.52-1.4C80.44,109.8,79.67,109,78.79,107.92Zm-57.62,8.9a35.7,35.7,0,0,1,7.58-12,32.77,32.77,0,0,0-7.55,12.06Z"/><path class="cls-10" d="M80.49,90.56a4.92,4.92,0,0,1-1.41-.21l-11.7-3.68H33.25a4.68,4.68,0,0,1,0-9.35H68.81l13.08,4.12a4.67,4.67,0,0,1-1.4,9.12Z"/><path class="cls-11" d="M103.77,145l-47-8.57c-.47-.09-1-.16-1.51-.23-2.83-.37-7.11-.93-7.11-5.47,0-4.69,4.22-5.05,7.61-5.33l1.5-.14c3.87-.43,19.19.11,19.85.13L77,127.26c-.16,0-15.84-.55-19.58-.14-.51.06-1,.1-1.55.14-4.1.35-5.9.79-5.9,3.48s2.18,3.19,5.49,3.62c.56.08,1.1.15,1.6.24l47,8.57Z"/><rect class="cls-7" x="41.99" y="75.93" width="2.81" height="53.37" transform="translate(-38.7 27.29) rotate(-24.54)"/><path class="cls-7" d="M83.88,104.09a1.41,1.41,0,0,1-1.32-.91l-4-10.8-7.82-3.24H37.36a1.4,1.4,0,1,1,0-2.8h34l9.46,3.92,4.42,11.95a1.39,1.39,0,0,1-1.32,1.88Z"/><path class="cls-10" d="M156.09,82.15h-3.75l3.5-1.35c.21-.09,21.59-8.56,26.08-29.82a30.56,30.56,0,0,0,.78-6.86c-3.19-3.68-7.92-6.61-12.73-6.61h-3.32l3-1.34c.3-.13,7.24-3.11,11.44.3,1.8,1.46,2.78,3.85,2.94,7.13a19.46,19.46,0,0,1,2.87,4.54,22.42,22.42,0,0,1-3.76,23.49C177.55,77.83,164.39,82.15,156.09,82.15Zm28-36.29a35.72,35.72,0,0,1-.76,5.41C179.74,68,166.08,77.11,159.68,80.51c7.83-1,18-4.86,22.45-9.81a21,21,0,0,0,3.53-22A17,17,0,0,0,184.05,45.86Zm-10.74-9.33a20.34,20.34,0,0,1,9.19,5.37,6.92,6.92,0,0,0-2.25-4.35C178.3,36,175.46,36.09,173.31,36.53Z"/><path class="cls-12" d="M163.12,76.75A51.81,51.81,0,0,0,156,82.81a84.16,84.16,0,0,0-6.41,7.45,64,64,0,0,0-8.81,16.51,92.13,92.13,0,0,1-9.1,18.7,51.34,51.34,0,0,1-6.85,8.23c-.68.64-1.38,1.21-2.11,1.85a37.65,37.65,0,0,1-3.17,2.23,22.94,22.94,0,0,1-6.85,2.77c-1.14.17-2.27.38-3.46.46l-1.71-2.79-.88-1.4a2.84,2.84,0,0,1-.38-.85l-.35-.95-1.41-3.87-.33-.91-.23-.56-.47-1.12-1-2.24q-1-2.23-2.08-4.45A82.35,82.35,0,0,1,94,103.25c-1.08-4.92-2.59-9.82-2.11-15.16,0-.59,1-1.52,2.2-1.94l2.41-.82.38-.14.38-.12c3-.95,4.06.62,2.62,1.85,4.72,4.26,3,11,4.31,16.38,1.17,5,4.27,9.52,5.87,14.45.91,2.8,1.89,5.59,2.94,8.35a8.87,8.87,0,0,0,1,2.16,10.38,10.38,0,0,0,.59.88c0,.09.14,0,.25,0l.29-.17a5.74,5.74,0,0,0,.5-.36,4.71,4.71,0,0,0,.68-.73l.12-.17.58-.58a15.1,15.1,0,0,0,1.25-1.28c.41-.47.84-.9,1.23-1.37l1.19-1.51a56.14,56.14,0,0,0,7.7-14.38l1.41-4,1.61-4.43.84-2.27,1-2.23a44.06,44.06,0,0,1,2.11-4.43,53.42,53.42,0,0,1,11-14.56c2.08-2,4.09-4.14,6.31-6.15a19.4,19.4,0,0,1,8-4.55,1.5,1.5,0,0,1,1.18.38,3.83,3.83,0,0,1,1.06,1.24,35.09,35.09,0,0,1,1.76,4.31l.44,1.38a5.48,5.48,0,0,1,.15,1C165.23,75.44,164.49,75.81,163.12,76.75Zm-29.51,32.49,3.31-8.34c-.62,1.38-1.23,2.78-1.8,4.17S134.05,107.83,133.61,109.24Z"/><path class="cls-12" d="M135.92,109.32a18.32,18.32,0,0,1-3.4,4.7,21.57,21.57,0,0,1-4.35,3.43,19,19,0,0,1-5.08,2c-1.71.4-3.35.64-5.06.91s-3.51.46-5.32.64a10.27,10.27,0,0,1-5.43-1,7.09,7.09,0,0,1-3.46-2.69,1.32,1.32,0,0,1,.27-1l.55-.77.09-.12.09-.12c.67-1,1.05-1,.86-.32,1.61-.44,2.23,1.27,3.51,1.85a12.31,12.31,0,0,0,3.68.29,26.08,26.08,0,0,0,8.27-1.19,13.93,13.93,0,0,0,6.86-3.51c.87-.78,1.76-1.64,2.67-2.55s1.09-2.21,2.14-3a1.42,1.42,0,0,1,.93.18C136.47,108.29,136.39,108.39,135.92,109.32ZM126,116.14a12,12,0,0,0,1.88-1.07Z"/><path class="cls-8" d="M169.93,51.94l.86-.35-.34-.86-.75-1.81-.35-.86,0,0-.87.34a24.09,24.09,0,0,0-6.26,3.36,10.71,10.71,0,0,0-3.77,7.58,30.68,30.68,0,0,0,1.51,6.55L162.47,73l.32.88.88-.32,1.83-.65.88-.32-.32-.88-2.53-7a28.81,28.81,0,0,1-1.27-5.26,6.92,6.92,0,0,1,2.36-4.73A21.35,21.35,0,0,1,169.93,51.94Z"/><path class="cls-13" d="M171.75,83l-.87.36a1.06,1.06,0,0,0,.13-.92l-5.64-16.48v-.09l-2-4.55a1.06,1.06,0,0,0-1.34-.58l-4.39,1.61a1.08,1.08,0,0,0-.65,1.36l6.07,17.76v.12l1.51,3.26a1.08,1.08,0,0,0,1.38.58h0l-1.32.55,1.07,2.63,7.13-3Z"/><path class="cls-12" d="M187.82,129.82a54.08,54.08,0,0,1-3.86-6.29c-2.13-4-4.42-8-6.46-12s-3.81-8.11-6.18-12a22.47,22.47,0,0,1-2.57-6.3A14.21,14.21,0,0,1,168,88c0-.21.38-.53.83-.68l.91-.31H170c1.13-.35,1.51.17,1,.61,1.71,1.4,1.06,3.68,1.52,5.5a41.18,41.18,0,0,0,2.35,4.58c1.51,3.7,3.64,7.1,5.44,10.62s4,7.06,6.07,10.61c.94,1.61,1.82,3.29,2.62,5s2.15,2.84,2.71,4.55a1.39,1.39,0,0,1-.53.81C188.75,131,188.61,130.91,187.82,129.82ZM181.76,115c.5.88,1,1.79,1.51,2.67a29.09,29.09,0,0,0-1.48-2.67Z"/><path class="cls-12" d="M95.92,97c-2.24,1.91-4.55,3.73-7,5.46-4.42,3.21-8.55,6.75-12.79,10.2a115,115,0,0,0-12,10.77,37.61,37.61,0,0,1-6.17,5.31A22.14,22.14,0,0,1,52.49,132a1.15,1.15,0,0,1-1-.47l-.62-.73-.11-.1-.09-.12c-.76-.93-.29-1.52.35-1.23,1-2.37,3.73-2.87,5.59-4.19s3-3,4.67-4.42c3.76-3.13,7.17-6.65,10.9-9.8s7.59-6.58,11.42-9.76a55.16,55.16,0,0,1,5.6-4.08c1.92-1.28,3.23-3,5.21-3.93.2-.09.64.11.91.42C97.36,95.79,97.15,96,95.92,97ZM79.56,107.1l2.86-2.33A35.45,35.45,0,0,0,79.56,107.1Z"/><path class="cls-12" d="M107.55,137.19c-3-.17-6-.49-8.93-.88-5.51-.74-11-1.05-16.53-1.52a118.91,118.91,0,0,0-16.34-.56,38.5,38.5,0,0,1-8.24-.44,22.66,22.66,0,0,1-6.24-1.44,1.15,1.15,0,0,1-.43-1v-1.25c.09-1.19.86-1.32,1.12-.66,2.38-1,4.75.52,7,.85s4.37-.12,6.53,0c5,.35,9.92.17,14.85.47s10.13.46,15.16.84c2.32.18,4.66.5,7,.91s4.44.09,6.57.77c.21,0,.38.52.38.93C109.49,137.29,109.19,137.28,107.55,137.19Zm-19-4,3.74.31A36,36,0,0,0,88.51,133.15Z"/><path class="cls-10" d="M175,48.32l-3.67-9a2.75,2.75,0,0,0-2.56-1.71v0a2.9,2.9,0,0,0-1.05.22l-1.18.48A2.73,2.73,0,0,0,165,39.92a5.22,5.22,0,0,0-1.19-.23l0-.08a3.75,3.75,0,0,0-1.33.26,3.89,3.89,0,0,0-2.25,2.53,5.46,5.46,0,0,0,.18,3.61,4.94,4.94,0,0,0,4.37,3.32,3.53,3.53,0,0,0,1.33-.25A4.53,4.53,0,0,0,167.52,48l1.18,2.88a2.77,2.77,0,0,0,3.6,1.52h0l1.18-.48A2.78,2.78,0,0,0,175,48.32Z"/><path class="cls-10" d="M165.7,44.1,165.17,43A2.49,2.49,0,0,0,163,41.65a2.45,2.45,0,0,0-1.09.25l-11.28,5.6a2.47,2.47,0,0,0-1.12,3.3l.53,1.08A2.47,2.47,0,0,0,153.3,53l11.28-5.59A2.48,2.48,0,0,0,165.7,44.1Z"/><path class="cls-10" d="M107.69,66a3.61,3.61,0,0,0-1.2-1.79,7.51,7.51,0,0,0-1.52-.9,13.78,13.78,0,0,0-2.88-.91c-1.61-.3-2.25-.3-2.41.57a.78.78,0,0,0-.59-.64c-2.64-.55-5.25-.2-7.4-.71A20.72,20.72,0,0,1,87.47,60a14,14,0,0,0-5.29-1.52,7.22,7.22,0,0,0-5.64,2,5.19,5.19,0,0,0-1.35,2.88,6.92,6.92,0,0,0,.32,3,10.49,10.49,0,0,0,3.11,4.54,13,13,0,0,0,4.64,2.69,10.89,10.89,0,0,0,5.52.36,12.81,12.81,0,0,0,4.85-2.39,7.77,7.77,0,0,1,3.94-1.79c1.46,0,3.17.41,5,.51a7.32,7.32,0,0,0,3.25-.38,3.26,3.26,0,0,0,1.62-1.51A3.07,3.07,0,0,0,107.69,66Z"/><path class="cls-7" d="M49.58,117.77a1.37,1.37,0,0,1-1-.48,1.41,1.41,0,0,1,.13-2l32.4-28.2a1.4,1.4,0,0,1,1.85,2.11L50.5,117.43A1.38,1.38,0,0,1,49.58,117.77Z"/><path class="cls-10" d="M92.54,131.14c10.73,1.68,10.1,16.42,10.1,16.42s5.26.64,8.41.85,12.63.64,13.47-11.16-11.38-13.06-11.38-13.06-29.88-.85-37.46-.85a17.72,17.72,0,0,0-9.3,2.34.86.86,0,0,0-.36.55.84.84,0,0,0,.68,1C71.51,127.91,84,129.77,92.54,131.14Z"/><path class="cls-7" d="M128.58,161.14a1.4,1.4,0,0,1-1.21-.7l-13.48-23.15a1.4,1.4,0,1,1,2.42-1.41L129.79,159a1.4,1.4,0,0,1-.5,1.92A1.43,1.43,0,0,1,128.58,161.14Z"/><path class="cls-14" d="M113.15,146.53a9.53,9.53,0,1,1,9.52-9.52A9.53,9.53,0,0,1,113.15,146.53Zm0-18.11a8.59,8.59,0,1,0,8.58,8.59A8.6,8.6,0,0,0,113.15,128.42Z"/><path class="cls-3" d="M144.62,86.62a1.32,1.32,0,1,1,.41,1.82h0A1.32,1.32,0,0,1,144.62,86.62Zm-.91-.58A2.38,2.38,0,1,0,147,85.3a2.39,2.39,0,0,0-3.29.74Z"/><path class="cls-3" d="M144.12,91.08a4.4,4.4,0,0,0,.25-2.06,5.29,5.29,0,0,0-2.73-3.81l-.46-.29-1,1.52.91.57.41-.65a3.78,3.78,0,0,1,1.7,3.9l-4.87-.9-.91,1.43.91.58.52-.82,5.05.92Z"/><path class="cls-3" d="M143.53,91.91a2.37,2.37,0,1,1-1-.64.68.68,0,0,0-.28.25l-.45.71a1.29,1.29,0,0,0-.58.13A1.32,1.32,0,1,0,143,93l.46-.71A.68.68,0,0,0,143.53,91.91Z"/><path class="cls-3" d="M143.21,92.12a.42.42,0,0,0-.13-.59.43.43,0,0,0-.59.14l-1,1.52a.43.43,0,0,0,.14.59.44.44,0,0,0,.59-.14l1-1.52Z"/></g></g></g></g></g></svg>