<svg xmlns="http://www.w3.org/2000/svg" viewBox="0 0 240 220"><defs><style>.cls-1{isolation:isolate;}.cls-2{fill:#bedded;}.cls-3{opacity:0.5;mix-blend-mode:multiply;}.cls-4{fill:#85c1c1;}.cls-5{fill:#fff;}.cls-6{fill:#fbbc43;}.cls-7{fill:#072743;}.cls-8{fill:#0f3358;}.cls-9{fill:#eb5c40;}.cls-10{fill:#1d1d1b;}.cls-11{fill:#683c11;}.cls-12{fill:#ed6843;}.cls-13{fill:none;stroke:#000;stroke-linecap:round;stroke-linejoin:round;stroke-width:2px;}</style></defs><title>notre_societe</title><g class="cls-1"><g id="Notre_société_mobile" data-name="Notre société mobile"><g id="notre_histoire-2" data-name="notre histoire"><path class="cls-2" d="M239.15,91.79a33.74,33.74,0,0,0-2.33-8.16,60.8,60.8,0,0,0-8.68-14.17,119.35,119.35,0,0,0-11-11.94,193.13,193.13,0,0,0-24.64-19.79,212.71,212.71,0,0,0-26.3-15.31c-4.46-2.21-9-4.14-13.5-6-.52-.21-1-.4-1.57-.6-19.37-9.52-40-14-59.37-8.76C27.52,24.34,5.8,96.79,5.8,96.79c-2.16,5.07-1.18,12.64,2.32,21.34,0,.18,0,.28,0,.28s0,0,0-.14c12.26,30.23,55,74,102.54,73.83a152.77,152.77,0,0,0,22.54-1.59c-1.22.29-2.45.57-3.66.83A81.22,81.22,0,0,1,117.06,193a94,94,0,0,1-23.92-1.89,119.16,119.16,0,0,1-21.26-6.56,145.49,145.49,0,0,1-33.17-19.22,119.36,119.36,0,0,1-20.84-20.25c-5-6.29-7.84-11.91-9.08-15.94a22.64,22.64,0,0,1-1-4.68c-.07-.54-.07-.95-.1-1.23a1.91,1.91,0,0,0,0-.41,6.39,6.39,0,0,0-.07,1.65,20.92,20.92,0,0,0,.83,4.79c1.12,4.14,3.94,9.9,8.84,16.33A117.31,117.31,0,0,0,38,166.26a144.69,144.69,0,0,0,33.32,19.68,120.83,120.83,0,0,0,21.49,6.77,95.56,95.56,0,0,0,24.34,2A82.54,82.54,0,0,0,130,193.11c4.26-.9,8.56-2,12.88-3.22a131.71,131.71,0,0,0,12.93-4.54c1.71-.7,3.41-1.46,5.1-2.25,28.52-10.75,56.18-30.48,72.57-55.7,3.82-5.89,4.25-12.77,2.82-19.74l1.4-3.3.2-.47.18-.51.35-1c.2-.68.37-1.37.54-2.06A25.14,25.14,0,0,0,239.15,91.79Zm-2.25,8.08c-.16.62-.3,1.25-.49,1.87l-.32.91-.15.46-.2.46-.3.72c-3.05-10.65-9.87-21.17-15-28.36a208.78,208.78,0,0,0-52.47-50.37,213,213,0,0,1,23.39,13.89,192.72,192.72,0,0,1,24.36,19.6,116.92,116.92,0,0,1,10.82,11.73,59.1,59.1,0,0,1,8.39,13.67,32.6,32.6,0,0,1,2.19,7.64A23.07,23.07,0,0,1,236.9,99.87Z"/><g class="cls-3"><path class="cls-4" d="M200.63,141.63c-.63,0-.87-6-3.58-12.64s-6.55-11.22-6.09-11.65c.2-.18,1.46.71,3.09,2.58.41.46.84,1,1.27,1.58s.86,1.24,1.3,1.93a32.76,32.76,0,0,1,2.4,4.78,34,34,0,0,1,1.54,5.11c.15.81.3,1.57.38,2.3s.14,1.4.17,2C201.21,140.12,200.91,141.63,200.63,141.63Z"/><path class="cls-4" d="M204.63,147.58c-.58-.14-.17-3.68-.33-8s-.79-7.82-.21-8c.27-.08.8.72,1.3,2.14a20.24,20.24,0,0,1,1,5.79,20.57,20.57,0,0,1-.62,5.84C205.38,146.81,204.91,147.64,204.63,147.58Z"/></g><g class="cls-3"><path class="cls-4" d="M51.62,121c.48.4-3.14,5.3-6.52,11.92s-5.32,12.39-5.91,12.23c-.28-.07-.15-1.63.48-4.06a46.77,46.77,0,0,1,8.92-17.33C50.21,121.81,51.41,120.8,51.62,121Z"/><path class="cls-4" d="M58.38,113.67c.1.61-4.06,1.63-8.4,4.36s-7.16,5.93-7.66,5.57c-.22-.17.19-1.23,1.28-2.67a17.11,17.11,0,0,1,2.15-2.34,22.12,22.12,0,0,1,3.12-2.36,22.57,22.57,0,0,1,3.49-1.73,18,18,0,0,1,3-.88C57.2,113.29,58.33,113.4,58.38,113.67Z"/></g><path class="cls-5" d="M31.35,187.65l0-.58a2.66,2.66,0,0,0-1.06-1.79,2.72,2.72,0,0,0-1.61-.5A2.65,2.65,0,0,0,26,187.11l0,.58a3,3,0,0,0,.55,2,2.61,2.61,0,0,0,2.15,1,2.55,2.55,0,0,0,1.9-.81A2.75,2.75,0,0,0,31.35,187.65Z"/><path class="cls-5" d="M30.51,173.37c-2.22,0-2.38,3.45-.15,3.45S32.74,173.37,30.51,173.37Z"/><path class="cls-5" d="M207,158c-2.33,0-1.85,3.6.46,3.6S209.26,158,207,158Z"/><path class="cls-5" d="M212,169.11a2,2,0,0,0-.44-.9,2.66,2.66,0,0,0-1.69-.93,2.6,2.6,0,0,0-1.9.54,2.46,2.46,0,0,0-.94,1.69V170a1.92,1.92,0,0,0,.11,1,1.83,1.83,0,0,0,.44.89,2.54,2.54,0,0,0,3.59.39,2.47,2.47,0,0,0,.93-1.68v-.47A1.92,1.92,0,0,0,212,169.11Z"/><path class="cls-5" d="M42.26,24.69c-2.38,0-2.55,3.69-.17,3.69S44.64,24.69,42.26,24.69Z"/><path class="cls-5" d="M55.47,27.08a2.18,2.18,0,0,0-2.9-.15l-.45.41a1.73,1.73,0,0,0-.45.84,2.17,2.17,0,0,0-.05,1.21,2.32,2.32,0,0,0,2.2,1.85,2.38,2.38,0,0,0,2.25-1.34A2.44,2.44,0,0,0,55.47,27.08Z"/><path class="cls-5" d="M169.21,16.11c-2.07,0-2.49,3.24-.39,3.24S171.31,16.11,169.21,16.11Z"/><path class="cls-5" d="M180.72,21.74c-3.15,0-3.09,4.9.07,4.9S183.88,21.74,180.72,21.74Z"/><path class="cls-5" d="M2.32,110.55C.11,110.55,0,114,2.17,114S4.53,110.55,2.32,110.55Z"/><path class="cls-5" d="M5.64,98.79c-3,0-2.73,4.64.25,4.64S8.62,98.79,5.64,98.79Z"/><path class="cls-5" d="M229.84,121c-2.45,0-1.93,3.78.49,3.78S232.25,121,229.84,121Z"/><path class="cls-5" d="M233.31,109.27a2.35,2.35,0,0,0-1.18-1.24,2.44,2.44,0,0,0-1.51-.06,2.22,2.22,0,0,0-.89.5,3.2,3.2,0,0,0-1,1.1,2.5,2.5,0,0,0-.51,1.22v.68a2.42,2.42,0,0,0,1.23,1.81,2.52,2.52,0,0,0,3.6-1.17,5.27,5.27,0,0,0,.19-.51,3.83,3.83,0,0,0,.19-.74,1.82,1.82,0,0,0,0-.4A2.31,2.31,0,0,0,233.31,109.27Z"/><path class="cls-5" d="M128.6,111.93s33.19,2.47,39.08,5.3l-4.29,12.14-36.11-2.93Z"/><path class="cls-6" d="M98.39,108.5s20-2.51,30.56-.4l-2.2,24.6-27.57-2.27Z"/><polygon class="cls-5" points="118.28 132.97 99.18 143.21 106.63 157.31 124.05 148.91 118.28 132.97"/><path class="cls-5" d="M101.42,147.45l5.21,9.86,14-6.75C115.07,146.24,108.28,144.75,101.42,147.45Z"/><path class="cls-7" d="M144.4,111.93s-20.45,7.19-27.9,15.84l9.17,25.36,22.85-16.93Z"/><path class="cls-8" d="M184.55,123.43c-5.62-6.21-19.26-11.07-19.26-11.07l-20.89-.43a59.14,59.14,0,0,0-8.92,16.84c-.53,1.44-1,2.92-1.5,4.42-8.95,28.38-8.73,66.35-8.73,66.35H178.5l-1-20.76-1.22-25.72,4.39,7.48,4.27-1.31,16.56-5.11S190.17,129.64,184.55,123.43Z"/><path class="cls-5" d="M204.71,182.32c-3.77,2.41-16.55,2.77-26.91,2.63-2.33,0-4.53-.09-6.49-.15l-5-.2c-5.52,4.6-14.35,2.73-14.35,2.73l-.53-1.69s-2.48-1.24-2.93-1.95-.18-3.19-.18-3.19l-2.39-.62a4.63,4.63,0,0,1-1.6-4c.27-2.58,11.59-4.11,11.59-4.11s-3.25-7.56-3-7.82a11.81,11.81,0,0,1,2.26-1.78,2.89,2.89,0,0,1,2.26-.48c1.2.4,4.79,9.58,4.79,9.58l4,1.86c3.67-.76,8.82-1.15,12.86-2.1,1.95-.46,3.63-.81,4.71-.94,3-.35,3.91,0,4.18.21L182.49,160l5.34-1.65,10.08-3.1C200.29,162.14,204.71,182.32,204.71,182.32Z"/><path class="cls-5" d="M192.91,172.93c-8.69-.18-17.75,4.7-26.22,2.71-2.13-.5-4.5-1.12-6.62-1.62a33.29,33.29,0,0,0-4.85-11.84,2.89,2.89,0,0,1,2.26-.48c1.2.4,4.79,9.58,4.79,9.58l4,1.86c3.67-.76,8.82-1.15,12.86-2.1,1.95-.46,3.63-.81,4.71-.94,3-.35,3.91,0,4.18.21L182.49,160l5.34-1.65A86.73,86.73,0,0,0,192.91,172.93Z"/><path class="cls-5" d="M168.92,117.27a3.34,3.34,0,0,0-.93,1.94,3.57,3.57,0,0,0,1.63,2.52,2.48,2.48,0,0,0,1.41.73,2.27,2.27,0,0,0,1.37-.58,20.24,20.24,0,0,0,4.43-4.48,3.4,3.4,0,0,0,.85-2.19,3.78,3.78,0,0,0-1.53-2.26c-1.3-1.15-2.17-1.43-3.25-.1C171.66,114.39,170.16,115.72,168.92,117.27Z"/><path class="cls-5" d="M173.79,122a3.36,3.36,0,0,0-.65,2c.12,1,1.09,1.72,2,2.27a2.43,2.43,0,0,0,1.5.53,2.34,2.34,0,0,0,1.28-.76,20.06,20.06,0,0,0,3.77-5,3.35,3.35,0,0,0,.54-2.28,3.76,3.76,0,0,0-1.83-2c-1.44-1-2.34-1.12-3.22.35C176.11,118.75,174.81,120.27,173.79,122Z"/><path class="cls-5" d="M181.71,120.57c-1,1.69-2.32,3.21-3.34,4.92a3.43,3.43,0,0,0-.66,2.05c.12,1,1.09,1.72,2,2.27a2.4,2.4,0,0,0,1.49.53,2.27,2.27,0,0,0,1.28-.76,19.86,19.86,0,0,0,3.78-5.05,3.4,3.4,0,0,0,.53-2.28,3.74,3.74,0,0,0-1.82-2"/><path class="cls-5" d="M183.3,127.43a2.83,2.83,0,0,0-.55,1.7c.11.86.91,1.44,1.64,1.9a2,2,0,0,0,1.25.44,1.92,1.92,0,0,0,1.06-.63,16.86,16.86,0,0,0,3.15-4.21,2.82,2.82,0,0,0,.44-1.9,3.09,3.09,0,0,0-1.52-1.69c-1.2-.8-2-.93-2.68.29C185.23,124.74,184.15,126,183.3,127.43Z"/><path class="cls-5" d="M177.68,115.21a3.78,3.78,0,0,0-1.53-2.26c-1.3-1.15-2.17-1.43-3.25-.1-.25.32-.53.62-.8.92a15.84,15.84,0,0,1,4.76,3.59A3.39,3.39,0,0,0,177.68,115.21Z"/><path class="cls-5" d="M182.19,118.74a3.76,3.76,0,0,0-1.83-2c-1.44-1-2.34-1.12-3.22.35-.08.11-.16.23-.23.35,1.44,1.5,2.72,3.14,4.19,4.57.19-.31.38-.63.55-1A3.35,3.35,0,0,0,182.19,118.74Z"/><path class="cls-5" d="M186.76,122.25a3.74,3.74,0,0,0-1.82-2c-1.44-1-2.34-1.12-3.23.35-.25.42-.52.82-.8,1.23a14,14,0,0,0,5,3.36c.12-.21.25-.41.36-.63A3.4,3.4,0,0,0,186.76,122.25Z"/><path class="cls-5" d="M190.29,124.73a3.09,3.09,0,0,0-1.52-1.69c-1.2-.8-2-.93-2.68.29-.32.51-.66,1-1,1.5a13,13,0,0,0,5.06,1.14A2,2,0,0,0,190.29,124.73Z"/><rect class="cls-5" x="76.69" y="98.12" width="16.54" height="16.54"/><path class="cls-5" d="M65.56,148.44H49.29a1,1,0,0,1,0,.16c-.17.6-.34,1.22-.52,1.84,0,.16-.09.31-.13.47-.19.65-.38,1.32-.56,2-.05.16-.09.32-.14.49-.2.71-.39,1.44-.59,2.18l-.09.35c-.22.81-.44,1.64-.66,2.48v0c-.08.3-.16.6-.23.9-.38,1.48-.76,3-1.14,4.54,0,.12-.06.24-.08.35-.19.77-.38,1.55-.56,2.34-.05.18-.09.37-.13.55l-.63,2.74v.06c-.2.86-.38,1.73-.57,2.61-.06.29-.13.58-.19.87-.13.65-.27,1.3-.4,1.95-.06.3-.13.6-.19.89l-.51,2.63c-.06.3-.11.59-.17.88-.11.64-.23,1.27-.35,1.91-.06.37-.13.73-.19,1.1-.12.64-.23,1.29-.33,1.93l-.15.89c-.15.89-.29,1.78-.42,2.68,0,.31-.09.63-.14,1-.1.66-.19,1.31-.28,2,0,.32-.09.63-.13.95-.12.94-.24,1.87-.35,2.81,0,.1,0,.2,0,.3s-.05.42-.07.63,0,.42.06.67,0,.34,0,.53a101.91,101.91,0,0,0,1.74,12.19,5.73,5.73,0,0,0,.61,1.62l.34.53.73,1.19.44.71c.79,1.32,1.76,3,2.73,4.63l.4.68v0l3.75,6.45.13,0,.2-.06.14,0,.43-.14.17-.06.12,0,.13-.05.14,0,.06,0a9.24,9.24,0,0,0,3.82-2.37l.1-.14.05-.06a3.17,3.17,0,0,0,.47-.84l-.5-5.69-.27-3.06h0a2.08,2.08,0,0,0-1.35,0,1.53,1.53,0,0,0-.74.56l-.12.19h0a.32.32,0,0,0,0-.08v-.28c0-.08,0-.17,0-.28a1.7,1.7,0,0,0,0-.22q0-.21,0-.45a.71.71,0,0,1,0-.14s0-.05,0-.08,0-.21,0-.32h0a24.82,24.82,0,0,0-.5-4.41c0-.16-.07-.31-.11-.44l0-.11,0-.09-.06-.17,0-.12h0s0-.06,0-.1l0-.13.12-.5c0-.16.07-.34.11-.54a1.18,1.18,0,0,0,0-.2l.09-.43c0-.08,0-.16,0-.24s0-.27.07-.4v-.06c0-.09,0-.17.05-.27a2.34,2.34,0,0,0,0-.26l0-.21c.09-.58.17-1.15.22-1.72a11.41,11.41,0,0,0-.3-4.78c1.4-6.18,6.42-28.94,5-33.2l.34-.6C59.3,160.37,62.91,154,65.56,148.44Z"/><path class="cls-6" d="M119.36,199.54s-.15-7-1-17.24a309.46,309.46,0,0,0-4.26-31.86A162.3,162.3,0,0,0,108,127c-2.57-7.26-5.71-13.69-9.56-18.46l-19.2,1.94s-15,5-20.59,11.21-17,30.69-17,30.69l5.88,1.81,12.31,3.79.57.17,2.07.64,4.39-7.47-.74,48.26Z"/><path class="cls-5" d="M113.39,73.47A30.9,30.9,0,0,1,104.48,95a29.3,29.3,0,0,1-21.15,8.71,30.55,30.55,0,1,1,30.06-30.32Z"/><path class="cls-9" d="M83.68,104.58h-.36a.82.82,0,0,1-.82-.84.76.76,0,0,1,.85-.83,29.89,29.89,0,0,0,21.1-8.47.83.83,0,1,1,1.17,1.19A31.57,31.57,0,0,1,83.68,104.58Z"/><path class="cls-10" d="M107.39,62.7l-2.65-1.56a3.06,3.06,0,1,1-.42,1.4Z"/><path class="cls-10" d="M91,67l-2.62-1.56a3.05,3.05,0,1,1-.42,1.4Z"/><path class="cls-10" d="M97,83.5a10.88,10.88,0,0,0,12.25-5.31c.74-1.36-1.34-2.6-2-1.22a8.44,8.44,0,0,1-9.53,4.19,1.22,1.22,0,0,0-1.39,1,1.21,1.21,0,0,0,.75,1.33Z"/><path class="cls-11" d="M71.92,64.5a3.22,3.22,0,0,0-1.53-2,4.92,4.92,0,0,0-3.58,0A56.52,56.52,0,0,0,58,65.92c-3,1.44-6.34,2.4-6.42,6,3.06-1.32,2.74,0,4.52,2.16a4.41,4.41,0,0,0,3.6,1.76,2.72,2.72,0,0,0,2.53-2.74,3.69,3.69,0,0,0,3.63,3.73,4.74,4.74,0,0,0,.65,0A3.67,3.67,0,0,0,69,72.18a3.39,3.39,0,0,0-.2-.53,2.33,2.33,0,0,0,3-1.14,6.52,6.52,0,0,0,.46-3.57A10,10,0,0,0,71.92,64.5Z"/><path class="cls-12" d="M108,52c-9.41-9.71-18.48-18-38.64-9.31C54.58,49.07,52.62,60.54,51.56,72Z"/><path class="cls-6" d="M107.07,53.43C93.93,58.26,72.28,64.52,72.28,64.52S89.87,27.29,110,30.71C128.22,33.8,117.51,49.59,107.07,53.43Z"/><ellipse class="cls-5" cx="57.27" cy="77.33" rx="6.27" ry="8.03" transform="translate(-20.66 20.88) rotate(-17.56)"/><polyline class="cls-5" points="102.06 73.99 108.17 69.53 98.36 60.44"/><path class="cls-10" d="M102.06,74.83a.84.84,0,0,1-.68-.35.82.82,0,0,1,.19-1.16l5.29-3.86-9.07-8.4a.85.85,0,0,1,0-1.18.82.82,0,0,1,1.18-.05l10.56,9.78-6.94,5.06A.89.89,0,0,1,102.06,74.83Z"/><path class="cls-5" d="M59.8,85.4c-3.3,1-7.08-1.54-8.42-5.77s.26-8.52,3.56-9.56"/><path class="cls-10" d="M58.3,86.47c-3.23,0-6.47-2.64-7.71-6.59a10,10,0,0,1,0-6.52,6.42,6.42,0,0,1,4-4.08.83.83,0,0,1,1.05.54.85.85,0,0,1-.55,1.05,4.83,4.83,0,0,0-3,3.07,8.47,8.47,0,0,0,0,5.43c1.2,3.79,4.5,6.14,7.36,5.23a.84.84,0,0,1,.51,1.6A5.86,5.86,0,0,1,58.3,86.47Z"/><path class="cls-11" d="M84.75,65a7.62,7.62,0,0,1,7.34-5.46,1.2,1.2,0,0,0,1-1.36,1.23,1.23,0,0,0-1-1.06,10,10,0,0,0-9.67,7.24,1.21,1.21,0,0,0,2.33.64Z"/><path class="cls-11" d="M102.26,56.93a8.4,8.4,0,0,1,2.88-1c1.51-.3.88-2.64-.64-2.34A10.47,10.47,0,0,0,101,54.85c-1.32.82-.1,2.91,1.22,2Z"/><path class="cls-5" d="M134.72,64.48a25.18,25.18,0,1,1,38.85,29.11,15,15,0,0,0-6,10.78l-.18,3.23c-.43,7.73-21.95,10-20.66-1.78l.11-1.85a6.15,6.15,0,0,0-4.66-6.44,14.36,14.36,0,0,1-7.53-4.28c-3.49-3.9-3.19-9.12-2.54-14.2Z"/><path class="cls-13" d="M157.39,69.87a3.42,3.42,0,1,0-6.78-.89,4.19,4.19,0,0,0,0,.5"/><path class="cls-13" d="M142.37,69a3.42,3.42,0,0,0-6.81-.38"/><path class="cls-13" d="M141.19,84.3a5.3,5.3,0,0,0,7.49.43h0"/><polyline class="cls-13" points="144.97 77.61 140.03 76 145.91 67.03"/><path class="cls-11" d="M177,55.19a.59.59,0,0,0-.11-.56c-.26-.3-6.44-7.41-19.28-7.1s-16.45,6-16.59,6.27a.54.54,0,0,0-.08.37,1.46,1.46,0,0,0,.68,1c1.7,1.24,7.64,2.56,14.52,2.94a57.9,57.9,0,0,0,14.19-.78l6.26-1.73A.61.61,0,0,0,177,55.19Z"/><path class="cls-11" d="M184.23,71.47a28.55,28.55,0,0,0-1-5.6c-2.82-10-5.12-10.86-5.55-10.93a.58.58,0,0,0-.54.19c-.24.26-5.74,6.6-4.51,20.35.4,4.56,1,5.53,1.83,5.61,1.2.1,1.89-1.87,3.11-6.11.26-.9.48-1.67.66-2.13.57-1.53,2.11-3.26,3.25-3.21h0c.81,0,1.29,1.06,1.56,2,.6,8.7-3.9,13.3-4,13.36a.6.6,0,0,0,0,.81.62.62,0,0,0,.42.2.54.54,0,0,0,.38-.12C182.44,83.93,186.46,79.49,184.23,71.47Z"/></g></g></g></svg>