<svg xmlns="http://www.w3.org/2000/svg" xmlns:xlink="http://www.w3.org/1999/xlink" viewBox="0 0 289.98 709.54"><defs><style>.cls-1{isolation:isolate;}.cls-16,.cls-2,.cls-3,.cls-36,.cls-4{fill:none;}.cls-16,.cls-2,.cls-3,.cls-4{stroke-linecap:round;stroke-width:2px;}.cls-2,.cls-3,.cls-36,.cls-4{stroke-miterlimit:10;}.cls-2{stroke:url(#linear-gradient);}.cls-3{stroke-dasharray:19.81 19.81;stroke:url(#linear-gradient-2);}.cls-4{stroke:url(#linear-gradient-3);}.cls-5{fill:#bedded;}.cls-40,.cls-6{opacity:0.5;}.cls-20,.cls-24,.cls-28,.cls-38,.cls-40,.cls-6{mix-blend-mode:multiply;}.cls-40,.cls-7{fill:#85c1c1;}.cls-23,.cls-8{fill:#fff;}.cls-39,.cls-9{fill:#fbbc43;}.cls-10{fill:#072743;}.cls-11{fill:#0f3358;}.cls-12{fill:#eb5c40;}.cls-13{fill:#1d1d1b;}.cls-14{fill:#683c11;}.cls-15{fill:#ed6843;}.cls-16{stroke:#000;stroke-linejoin:round;}.cls-17{fill:#d74033;}.cls-17,.cls-18,.cls-19,.cls-20,.cls-22,.cls-23,.cls-24,.cls-26,.cls-28,.cls-29,.cls-32,.cls-33,.cls-34,.cls-36,.cls-37,.cls-39{fill-rule:evenodd;}.cls-18{fill:#363863;}.cls-19{fill:#fdc333;}.cls-20{fill:#5f7fa9;}.cls-20,.cls-24,.cls-28,.cls-38{opacity:0.39;}.cls-21,.cls-29{fill:#231f20;}.cls-22,.cls-25{fill:#10110e;}.cls-24{fill:#3d418b;}.cls-26,.cls-30{fill:#3a5e8a;}.cls-27{fill:#4a4367;}.cls-28,.cls-37,.cls-38{fill:#958fb4;}.cls-31{fill:#b5b1c4;}.cls-32{fill:#3a3c56;}.cls-33,.cls-35{fill:#363555;}.cls-34{fill:#484c6a;}.cls-36{stroke:#25368f;}.cls-41{fill:#2f2f30;}.cls-42{fill:#b2b2b2;}.cls-43{fill:#2b2b2a;}.cls-44{fill:#9d9d9c;}.cls-45{fill:#392d87;}.cls-46{fill:#312783;}.cls-47{fill:#706f6f;}</style><linearGradient id="linear-gradient" x1="140.42" y1="233.38" x2="142.42" y2="233.38" gradientUnits="userSpaceOnUse"><stop offset="0" stop-color="#a3cce3"/><stop offset="1" stop-color="#a3cce3"/></linearGradient><linearGradient id="linear-gradient-2" x1="140.42" y1="391.93" x2="142.42" y2="391.93" xlink:href="#linear-gradient"/><linearGradient id="linear-gradient-3" x1="140.42" y1="540.57" x2="142.42" y2="540.57" xlink:href="#linear-gradient"/></defs><title>notre_societe</title><g class="cls-1"><g id="Notre_société" data-name="Notre société"><g id="notre_histoire" data-name="notre histoire"><line class="cls-2" x1="141.42" y1="228.38" x2="141.42" y2="238.38"/><line class="cls-3" x1="141.42" y1="258.19" x2="141.42" y2="525.66"/><line class="cls-4" x1="141.42" y1="535.57" x2="141.42" y2="545.57"/><path class="cls-5" d="M289.66,105.49a41.13,41.13,0,0,0-2.83-9.9,73.84,73.84,0,0,0-10.54-17.21,145.46,145.46,0,0,0-13.39-14.5,234.86,234.86,0,0,0-29.91-24,258.27,258.27,0,0,0-31.94-18.59c-5.41-2.68-10.91-5-16.39-7.23l-1.91-.73C159.23,1.75,134.2-3.64,110.66,2.68,32.71,23.59,6.33,111.57,6.33,111.57c-2.63,6.15-1.43,15.35,2.82,25.9,0,.22,0,.34,0,.35a.62.62,0,0,0,.06-.18c14.89,36.71,66.74,89.8,124.51,89.65a184.84,184.84,0,0,0,27.36-1.94c-1.49.36-3,.69-4.45,1a99,99,0,0,1-15.22,2,114,114,0,0,1-29-2.3,144,144,0,0,1-25.8-8,176.29,176.29,0,0,1-40.28-23.34A144.73,144.73,0,0,1,21,170.2c-6-7.64-9.52-14.46-11-19.36a28.54,28.54,0,0,1-1.23-5.69c-.07-.65-.08-1.15-.12-1.48a3,3,0,0,0,0-.51,6.88,6.88,0,0,0-.09,2,25.59,25.59,0,0,0,1,5.82c1.37,5,4.79,12,10.74,19.82a142.77,142.77,0,0,0,25.22,25.11A175.9,175.9,0,0,0,85.89,219.8,145,145,0,0,0,112,228a115.31,115.31,0,0,0,29.55,2.48,98.47,98.47,0,0,0,15.56-2c5.17-1.1,10.4-2.37,15.64-3.91a160.46,160.46,0,0,0,15.71-5.51c2.07-.84,4.13-1.77,6.19-2.73,34.63-13.05,68.21-37,88.11-67.63,4.64-7.15,5.16-15.5,3.42-24l1.71-4,.24-.57.21-.61.42-1.23c.26-.82.46-1.67.66-2.51A30.44,30.44,0,0,0,289.66,105.49Zm-2.74,9.81c-.18.76-.36,1.53-.59,2.27l-.38,1.11-.19.56-.24.56-.37.87c-3.7-12.93-12-25.71-18.24-34.43a253.57,253.57,0,0,0-63.72-61.16A258.9,258.9,0,0,1,231.6,41.94a233.84,233.84,0,0,1,29.57,23.8A142.3,142.3,0,0,1,274.32,80,71.75,71.75,0,0,1,284.5,96.58a39.41,39.41,0,0,1,2.66,9.28A27.94,27.94,0,0,1,286.92,115.3Z"/><g class="cls-6"><path class="cls-7" d="M242.89,166c-.76,0-1-7.25-4.34-15.35s-8-13.63-7.4-14.14c.24-.23,1.77.85,3.75,3.12.5.57,1,1.21,1.54,1.93s1,1.5,1.58,2.34a37.65,37.65,0,0,1,4.78,12c.19,1,.37,1.91.46,2.79s.18,1.7.21,2.45C243.59,164.17,243.22,166,242.89,166Z"/><path class="cls-7" d="M247.75,173.23c-.71-.17-.21-4.47-.41-9.7s-1-9.49-.25-9.71c.33-.1,1,.87,1.58,2.6a25.4,25.4,0,0,1,.48,14.11C248.66,172.3,248.09,173.31,247.75,173.23Z"/></g><g class="cls-6"><path class="cls-7" d="M62,140.94c.57.48-3.82,6.43-7.93,14.47s-6.45,15-7.17,14.85c-.33-.09-.18-2,.58-4.94a56.74,56.74,0,0,1,10.84-21C60.25,142,61.71,140.72,62,140.94Z"/><path class="cls-7" d="M70.17,132.06c.12.74-4.92,2-10.2,5.29s-8.69,7.2-9.29,6.76c-.28-.2.23-1.48,1.55-3.24A22.47,22.47,0,0,1,54.84,138a26.49,26.49,0,0,1,3.78-2.86,27.28,27.28,0,0,1,4.24-2.1A21.81,21.81,0,0,1,66.57,132C68.74,131.6,70.11,131.73,70.17,132.06Z"/></g><path class="cls-8" d="M37.35,221.89l0-.71A3.23,3.23,0,0,0,36,219a3.32,3.32,0,0,0-2-.61,3.21,3.21,0,0,0-3.2,2.82l0,.71a3.63,3.63,0,0,0,.67,2.42,3.18,3.18,0,0,0,2.61,1.24,3.14,3.14,0,0,0,2.31-1A3.34,3.34,0,0,0,37.35,221.89Z"/><path class="cls-8" d="M36.33,204.55c-2.69,0-2.89,4.19-.18,4.19S39,204.55,36.33,204.55Z"/><path class="cls-8" d="M250.56,185.92c-2.83,0-2.24,4.37.56,4.37S253.36,185.92,250.56,185.92Z"/><path class="cls-8" d="M256.64,199.37a2.27,2.27,0,0,0-.53-1.09,3.11,3.11,0,0,0-4.36-.47,3,3,0,0,0-1.13,2.05v.57a2.35,2.35,0,0,0,.12,1.23,2.3,2.3,0,0,0,.54,1.08,3.19,3.19,0,0,0,2,1.14,3.13,3.13,0,0,0,2.32-.67,3,3,0,0,0,1.13-2v-.57A2.23,2.23,0,0,0,256.64,199.37Z"/><path class="cls-8" d="M50.6,24c-2.89,0-3.09,4.48-.2,4.48S53.49,24,50.6,24Z"/><path class="cls-8" d="M66.64,26.93a2.65,2.65,0,0,0-3.52-.19l-.55.5a2.12,2.12,0,0,0-.54,1A2.76,2.76,0,0,0,62,29.73,2.84,2.84,0,0,0,64.64,32a2.88,2.88,0,0,0,2.73-1.62A3,3,0,0,0,66.64,26.93Z"/><path class="cls-8" d="M204.73,13.6c-2.51,0-3,3.93-.47,3.93S207.28,13.6,204.73,13.6Z"/><path class="cls-8" d="M218.72,20.44c-3.83,0-3.75,5.94.08,5.94S222.55,20.44,218.72,20.44Z"/><path class="cls-8" d="M2.1,128.27c-2.68,0-2.86,4.17-.17,4.17S4.79,128.27,2.1,128.27Z"/><path class="cls-8" d="M6.14,114c-3.63,0-3.31,5.62.31,5.62S9.76,114,6.14,114Z"/><path class="cls-8" d="M278.35,140.9c-3,0-2.34,4.58.59,4.58S281.28,140.9,278.35,140.9Z"/><path class="cls-8" d="M282.57,126.71a2.77,2.77,0,0,0-1.44-1.49,2.87,2.87,0,0,0-1.83-.08,2.72,2.72,0,0,0-1.08.6,4,4,0,0,0-1.21,1.34,3.11,3.11,0,0,0-.63,1.48v.82a2.92,2.92,0,0,0,1.5,2.21,3.07,3.07,0,0,0,4.37-1.42c.08-.21.16-.41.23-.63a5.4,5.4,0,0,0,.23-.9,2.5,2.5,0,0,0,0-.47A2.8,2.8,0,0,0,282.57,126.71Z"/><path class="cls-8" d="M155.44,130s40.29,3,47.45,6.43l-5.22,14.74-43.84-3.56Z"/><path class="cls-9" d="M118.75,125.78s24.26-3,37.1-.49l-2.67,29.87-33.47-2.75Z"/><polygon class="cls-8" points="142.91 155.49 119.71 167.92 128.76 185.04 149.9 174.84 142.91 155.49"/><path class="cls-8" d="M122.43,173.07l6.33,12,17-8.19C139,171.61,130.76,169.79,122.43,173.07Z"/><path class="cls-10" d="M174.61,130s-24.82,8.73-33.86,19.23L151.87,180l27.74-20.56Z"/><path class="cls-11" d="M223.37,143.91c-6.82-7.54-23.39-13.44-23.39-13.44L174.62,130c-4.39,5.44-8,12.52-10.84,20.44-.64,1.75-1.25,3.55-1.81,5.37-10.87,34.46-10.61,80.56-10.61,80.56H216l-1.19-25.21-1.48-31.23,5.33,9.09,5.19-1.6,20.1-6.19S230.19,151.45,223.37,143.91Z"/><path class="cls-8" d="M247.85,215.41c-4.59,2.93-20.1,3.37-32.67,3.2-2.83,0-5.52-.11-7.89-.19s-4.44-.17-6-.24c-6.7,5.59-17.42,3.32-17.42,3.32l-.64-2.05s-3-1.51-3.56-2.37-.22-3.88-.22-3.88l-2.9-.75a5.61,5.61,0,0,1-1.94-4.85c.32-3.12,14.07-5,14.07-5s-3.95-9.18-3.62-9.5a13.63,13.63,0,0,1,2.74-2.16,3.54,3.54,0,0,1,2.75-.59c1.45.49,5.81,11.63,5.81,11.63l4.85,2.26c4.45-.92,10.71-1.39,15.61-2.55,2.37-.55,4.41-1,5.72-1.13,3.66-.43,4.74-.07,5.08.25l-6.7-12.53,6.48-2,12.24-3.77C242.48,190.91,247.85,215.41,247.85,215.41Z"/><path class="cls-8" d="M233.52,204c-10.56-.21-21.56,5.71-31.84,3.29-2.58-.61-5.46-1.36-8-2A40.44,40.44,0,0,0,187.75,191a3.54,3.54,0,0,1,2.75-.59c1.45.49,5.81,11.63,5.81,11.63l4.85,2.26c4.45-.92,10.71-1.39,15.61-2.55,2.37-.55,4.41-1,5.72-1.13,3.66-.43,4.74-.07,5.08.25l-6.7-12.53,6.48-2C229.05,192.3,230.83,198.54,233.52,204Z"/><path class="cls-8" d="M204.39,136.43a4.1,4.1,0,0,0-1.14,2.35c0,1.27,1,2.26,2,3.07a3,3,0,0,0,1.71.88,2.85,2.85,0,0,0,1.67-.7,24.79,24.79,0,0,0,5.38-5.44,4.21,4.21,0,0,0,1-2.66,4.54,4.54,0,0,0-1.86-2.74c-1.57-1.4-2.63-1.74-3.94-.13C207.71,132.93,205.9,134.54,204.39,136.43Z"/><path class="cls-8" d="M210.31,142.14a4.06,4.06,0,0,0-.8,2.49c.14,1.26,1.32,2.09,2.39,2.77a2.94,2.94,0,0,0,1.81.64,2.81,2.81,0,0,0,1.55-.92,24.77,24.77,0,0,0,4.59-6.13,4.22,4.22,0,0,0,.65-2.78,4.58,4.58,0,0,0-2.22-2.46c-1.75-1.16-2.84-1.36-3.92.42C213.12,138.22,211.54,140.07,210.31,142.14Z"/><path class="cls-8" d="M219.92,140.43c-1.24,2.06-2.82,3.9-4.06,6a4.15,4.15,0,0,0-.8,2.49c.15,1.25,1.33,2.08,2.39,2.76a2.94,2.94,0,0,0,1.81.64,2.74,2.74,0,0,0,1.56-.92,24.31,24.31,0,0,0,4.58-6.13,4.11,4.11,0,0,0,.65-2.78,4.56,4.56,0,0,0-2.21-2.46"/><path class="cls-8" d="M221.85,148.76a3.41,3.41,0,0,0-.66,2.08c.12,1,1.1,1.74,2,2.3a2.48,2.48,0,0,0,1.51.53,2.31,2.31,0,0,0,1.3-.77,20.33,20.33,0,0,0,3.82-5.1,3.5,3.5,0,0,0,.54-2.31,3.77,3.77,0,0,0-1.85-2.05c-1.45-1-2.37-1.13-3.26.35C224.19,145.5,222.88,147,221.85,148.76Z"/><path class="cls-8" d="M215,133.93a4.54,4.54,0,0,0-1.86-2.74c-1.57-1.4-2.63-1.74-3.94-.13-.31.39-.64.76-1,1.12a19.43,19.43,0,0,1,5.78,4.36A4.12,4.12,0,0,0,215,133.93Z"/><path class="cls-8" d="M220.5,138.21a4.58,4.58,0,0,0-2.22-2.46c-1.75-1.16-2.84-1.36-3.92.42-.08.14-.18.28-.27.42,1.74,1.83,3.3,3.82,5.08,5.56.24-.38.47-.76.68-1.16A4.22,4.22,0,0,0,220.5,138.21Z"/><path class="cls-8" d="M226.05,142.47a4.56,4.56,0,0,0-2.21-2.46c-1.75-1.16-2.85-1.35-3.92.42-.31.51-.64,1-1,1.5a16.89,16.89,0,0,0,6,4.08c.15-.25.31-.5.44-.76A4.11,4.11,0,0,0,226.05,142.47Z"/><path class="cls-8" d="M230.34,145.49a3.77,3.77,0,0,0-1.85-2.05c-1.45-1-2.37-1.13-3.26.35-.38.62-.8,1.22-1.22,1.82a15.8,15.8,0,0,0,6.15,1.39A2.73,2.73,0,0,0,230.34,145.49Z"/><rect class="cls-8" x="92.4" y="113.18" width="20.08" height="20.08"/><path class="cls-8" d="M78.89,174.27H59.14l-.06.2-.64,2.24c0,.19-.11.37-.16.56-.22.8-.45,1.61-.68,2.44-.05.19-.11.39-.16.59-.24.86-.48,1.75-.72,2.64l-.12.42c-.26,1-.53,2-.79,3v0c-.1.37-.19.73-.29,1.11q-.69,2.68-1.38,5.51c0,.14-.07.28-.1.42-.23.94-.45,1.88-.68,2.84l-.15.67c-.26,1.1-.51,2.21-.77,3.33v.07c-.24,1-.47,2.1-.69,3.16-.08.36-.15.71-.23,1.07-.17.78-.33,1.57-.49,2.36-.07.36-.15.72-.22,1.08l-.63,3.2c-.07.35-.13.71-.2,1.06-.14.78-.29,1.55-.43,2.32-.08.45-.15.89-.23,1.34-.14.78-.27,1.56-.4,2.35-.06.36-.13.72-.18,1.08q-.27,1.62-.51,3.24c-.06.38-.12.77-.17,1.16-.12.79-.23,1.59-.34,2.39-.06.39-.11.77-.16,1.15-.15,1.14-.29,2.28-.43,3.42,0,.12,0,.24,0,.36l-.09.76c0,.24.05.52.08.82s0,.41.06.64c.37,3.88,1.14,11.11,2.11,14.8a6.72,6.72,0,0,0,.74,2l.41.65c.25.39.55.88.89,1.44l.53.86c1,1.6,2.14,3.61,3.32,5.62.15.28.32.55.48.83l0,0c1.51,2.61,3,5.21,4.54,7.83l.17,0,.24-.08a.71.71,0,0,0,.16-.05l.53-.17.21-.07.14-.05.16-.06.17-.06.07,0a11.2,11.2,0,0,0,4.64-2.89,1.83,1.83,0,0,1,.13-.16l.06-.07a4.3,4.3,0,0,0,.56-1l-.61-6.9L66.46,252h0a2.62,2.62,0,0,0-1.64,0,1.92,1.92,0,0,0-.9.69c-.05.07-.09.15-.14.23h0a.22.22,0,0,1,0-.1s0,0,0-.07v-.27c0-.1,0-.21,0-.34s0-.17,0-.26,0-.36,0-.56c0,0,0-.11,0-.17V251l0-.38h0a30.65,30.65,0,0,0-.61-5.35,5.38,5.38,0,0,0-.13-.54s0-.08,0-.13l0-.12a1.19,1.19,0,0,0-.08-.2,1,1,0,0,0,0-.15h0l0-.12s0-.09,0-.15.09-.36.14-.61.09-.41.14-.65,0-.17,0-.25.07-.34.11-.52a2.93,2.93,0,0,1,.05-.29c0-.16.06-.33.08-.49l0-.07c0-.11,0-.21.05-.33l.06-.32,0-.25c.11-.7.21-1.39.27-2.09a13.93,13.93,0,0,0-.37-5.8c1.7-7.5,7.79-35.14,6-40.32l.42-.72C71.29,188.77,75.68,181,78.89,174.27Z"/><path class="cls-9" d="M144.22,236.32s-.19-8.47-1.24-20.93a376.67,376.67,0,0,0-5.17-38.69,197.89,197.89,0,0,0-7.45-28.51c-3.12-8.81-6.94-16.61-11.61-22.41l-23.31,2.35s-18.18,6.07-25,13.62S49.83,179,49.83,179l7.14,2.2,15,4.6.69.21,2.51.78,5.34-9.08-.9,58.6Z"/><path class="cls-8" d="M137,83.25a37.48,37.48,0,0,1-10.82,26.18A35.62,35.62,0,0,1,100.47,120,36.66,36.66,0,0,1,64.61,82.67a36.19,36.19,0,1,1,72.35.52Z"/><path class="cls-12" d="M100.89,121h-.43a1,1,0,0,1-1-1,.93.93,0,0,1,1-1,36.28,36.28,0,0,0,25.63-10.28,1,1,0,1,1,1.42,1.45A38.31,38.31,0,0,1,100.89,121Z"/><path class="cls-13" d="M129.68,70.17l-3.22-1.89A3.71,3.71,0,1,1,126,70Z"/><path class="cls-13" d="M109.72,75.41l-3.18-1.89a3.71,3.71,0,1,1-.51,1.7Z"/><path class="cls-13" d="M117.07,95.43A13.22,13.22,0,0,0,131.94,89c.9-1.65-1.62-3.16-2.43-1.48a10.26,10.26,0,0,1-11.57,5.09,1.48,1.48,0,0,0-.77,2.84Z"/><path class="cls-14" d="M86.62,72.36a4,4,0,0,0-1.87-2.43,5.91,5.91,0,0,0-4.34,0,68.22,68.22,0,0,0-10.68,4.15C66.12,75.83,62,77,61.94,81.36c3.72-1.6,3.33,0,5.49,2.62a5.33,5.33,0,0,0,4.36,2.13,3.3,3.3,0,0,0,3.09-3.32,4.45,4.45,0,0,0,4.4,4.52,3.51,3.51,0,0,0,.79-.06,4.45,4.45,0,0,0,3-5.57,3.86,3.86,0,0,0-.25-.64,2.85,2.85,0,0,0,3.72-1.38,8.17,8.17,0,0,0,.56-4.34A12.83,12.83,0,0,0,86.62,72.36Z"/><path class="cls-15" d="M130.41,57.22C119,45.42,108,35.38,83.49,45.91c-17.93,7.72-20.31,21.64-21.6,35.5Z"/><path class="cls-9" d="M129.3,58.91c-16,5.88-42.24,13.47-42.24,13.47s21.35-45.2,45.8-41C155,35.09,142,54.26,129.3,58.91Z"/><ellipse class="cls-8" cx="68.82" cy="87.94" rx="7.62" ry="9.75" transform="translate(-23.33 24.86) rotate(-17.56)"/><polyline class="cls-8" points="123.21 83.88 130.63 78.47 118.72 67.43"/><path class="cls-13" d="M123.21,84.9a1,1,0,0,1-.6-1.84L129,78.37,118,68.18a1,1,0,1,1,1.38-1.49l12.82,11.87L123.8,84.7A1,1,0,0,1,123.21,84.9Z"/><path class="cls-8" d="M71.89,97.73c-4,1.27-8.59-1.86-10.21-7S62,80.39,66,79.13"/><path class="cls-13" d="M70.08,99c-3.93,0-7.86-3.21-9.37-8a12.25,12.25,0,0,1,.06-7.92,7.81,7.81,0,0,1,4.92-5,1,1,0,0,1,1.27.66,1,1,0,0,1-.66,1.27,5.85,5.85,0,0,0-3.62,3.73,10.26,10.26,0,0,0,0,6.6c1.46,4.59,5.47,7.45,9,6.35a1,1,0,0,1,1.27.66,1,1,0,0,1-.66,1.27A7,7,0,0,1,70.08,99Z"/><path class="cls-14" d="M102.19,73a9.25,9.25,0,0,1,8.91-6.62,1.48,1.48,0,0,0,0-2.94,12.12,12.12,0,0,0-11.74,8.78,1.48,1.48,0,0,0,2.83.78Z"/><path class="cls-14" d="M123.45,63.16a10.56,10.56,0,0,1,3.49-1.24c1.85-.36,1.07-3.2-.77-2.84a12.92,12.92,0,0,0-4.2,1.56c-1.6,1-.12,3.54,1.48,2.42Z"/><path class="cls-8" d="M162.86,72.33A30.57,30.57,0,1,1,210,107.68a18.17,18.17,0,0,0-7.26,13.08l-.22,3.92c-.53,9.4-26.65,12.13-25.09-2.15l.13-2.24a7.48,7.48,0,0,0-5.65-7.83,17.46,17.46,0,0,1-9.15-5.19c-4.23-4.74-3.87-11.08-3.08-17.24Z"/><path class="cls-16" d="M190.39,78.87a4.15,4.15,0,0,0-8.23-1.07,4.08,4.08,0,0,0,0,.61"/><path class="cls-16" d="M172.15,77.85a4.15,4.15,0,0,0-8.27-.47"/><path class="cls-16" d="M170.72,96.4a6.44,6.44,0,0,0,9.1.52h0"/><polyline class="cls-16" points="175.31 88.28 169.31 86.32 176.44 75.43"/><path class="cls-14" d="M214.18,61.05a.76.76,0,0,0-.14-.68c-.32-.36-7.82-9-23.41-8.62s-20,7.32-20.15,7.61a.72.72,0,0,0-.09.45,1.77,1.77,0,0,0,.83,1.21c2.06,1.51,9.28,3.1,17.63,3.57a71.13,71.13,0,0,0,17.22-.94l7.61-2.12A.71.71,0,0,0,214.18,61.05Z"/><path class="cls-14" d="M223,80.82a34.26,34.26,0,0,0-1.24-6.8c-3.41-12.11-6.2-13.18-6.73-13.27a.7.7,0,0,0-.66.23c-.28.32-7,8-5.47,24.71.49,5.54,1.22,6.71,2.23,6.81,1.44.13,2.29-2.27,3.77-7.42.31-1.09.59-2,.79-2.59.7-1.85,2.57-3.95,4-3.89h0c1,.05,1.56,1.28,1.89,2.39.74,10.57-4.74,16.15-4.8,16.22a.72.72,0,0,0,.46,1.23.74.74,0,0,0,.47-.14C220.81,96,225.69,90.56,223,80.82Z"/><path class="cls-17" d="M131.87,334.11l-2.81-4.51s-7.62,2.15-9,7.68Z"/><path class="cls-18" d="M204.67,356.88a1.5,1.5,0,0,1-.44-.14l-2.75-1.93-2.17-1.52-.09.52-.16.93-1.45-.21-6.71,5.91L192.58,348l.27-1.74.07-.39a1.7,1.7,0,0,1,1-1.33l.27-.1a1.88,1.88,0,0,1,.33,0l4-.25a1.71,1.71,0,0,0,.82-.25l2.27-1.39a1.73,1.73,0,0,1,1.9,0l1.71,1.16c1.32,1.53,2.54,1.91,2.73,3.74a6.44,6.44,0,0,1,0,1.14c-.14,1.47-.61,3.38-.73,4.23a16.51,16.51,0,0,1-.54,2.63,1,1,0,0,1-.08.31A1.74,1.74,0,0,1,204.67,356.88Z"/><path class="cls-19" d="M204.67,356.88a1.5,1.5,0,0,1-.44-.14l-2.75-1.93c1.49.12,4.35,1,4.08-1.46-.38-3.28-2.36-5.73-.79-6.32,1-.37,2,.25,3.2,1.57-.14,1.47-.61,3.38-.73,4.23a16.51,16.51,0,0,1-.54,2.63A1.74,1.74,0,0,1,204.67,356.88Z"/><path class="cls-20" d="M204.67,356.88a1.5,1.5,0,0,1-.44-.14l-2.75-1.93-2.17-1.52-.09.52-.16.93-1.45-.21-6.71,5.91L192.58,348l.27-1.74.07-.39a1.7,1.7,0,0,1,1-1.33l.27-.1a147.64,147.64,0,0,1,12.41,11.31A1.74,1.74,0,0,1,204.67,356.88Z"/><ellipse class="cls-21" cx="185.35" cy="398.64" rx="8.33" ry="8.34" transform="translate(-248.51 327.7) rotate(-55.78)"/><path class="cls-22" d="M193,387.34a13.66,13.66,0,1,0,3.63,19A13.67,13.67,0,0,0,193,387.34Z"/><path class="cls-23" d="M191.13,390.15a10.26,10.26,0,1,0,2.73,14.27A10.27,10.27,0,0,0,191.13,390.15Z"/><path class="cls-22" d="M190.1,391.66a8.44,8.44,0,1,0,2.24,11.73A8.45,8.45,0,0,0,190.1,391.66Z"/><ellipse class="cls-8" cx="185.35" cy="398.64" rx="7.32" ry="7.33" transform="translate(-248.51 327.71) rotate(-55.78)"/><path class="cls-22" d="M191.6,401.52l-1.36-.77a1.13,1.13,0,0,1,.44-2.11l1.55-.16a1.13,1.13,0,0,0,1-1.34h0a1.13,1.13,0,0,0-1.41-.88l-1.5.41a1.13,1.13,0,0,1-1.18-1.8l1-1.21a1.13,1.13,0,0,0-.24-1.64h0a1.13,1.13,0,0,0-1.62.37l-.77,1.36a1.13,1.13,0,0,1-2.11-.44l-.17-1.55a1.12,1.12,0,0,0-1.33-1h0a1.13,1.13,0,0,0-.88,1.41l.41,1.5a1.13,1.13,0,0,1-1.8,1.18l-1.21-1a1.14,1.14,0,0,0-1.65.24h0a1.14,1.14,0,0,0,.38,1.62l1.35.77a1.13,1.13,0,0,1-.44,2.11l-1.54.17a1.12,1.12,0,0,0-1,1.33h0a1.12,1.12,0,0,0,1.41.88l1.5-.41a1.13,1.13,0,0,1,1.18,1.8l-1,1.21a1.14,1.14,0,0,0,.25,1.65h0a1.13,1.13,0,0,0,1.62-.38l.77-1.35a1.13,1.13,0,0,1,2.11.44l.16,1.54a1.13,1.13,0,0,0,1.34,1h0a1.13,1.13,0,0,0,.88-1.41l-.41-1.5a1.13,1.13,0,0,1,1.8-1.18l1.21,1a1.13,1.13,0,0,0,1.64-.25h0A1.13,1.13,0,0,0,191.6,401.52Z"/><path class="cls-22" d="M187.23,395.88a3.33,3.33,0,1,0,.88,4.63A3.34,3.34,0,0,0,187.23,395.88Z"/><path class="cls-24" d="M193,387.34a13.67,13.67,0,0,0-18,2.34l21.09,17.44q.3-.37.57-.78A13.67,13.67,0,0,0,193,387.34Z"/><ellipse class="cls-21" cx="124.16" cy="357" rx="8.33" ry="8.34" transform="translate(-240.91 259.05) rotate(-55.8)"/><path class="cls-22" d="M131.84,345.71a13.66,13.66,0,1,0,3.64,19A13.67,13.67,0,0,0,131.84,345.71Z"/><path class="cls-23" d="M129.93,348.52a10.26,10.26,0,1,0,2.73,14.27A10.26,10.26,0,0,0,129.93,348.52Z"/><path class="cls-22" d="M128.9,350a8.44,8.44,0,1,0,2.25,11.73A8.44,8.44,0,0,0,128.9,350Z"/><ellipse class="cls-8" cx="124.16" cy="357" rx="7.32" ry="7.33" transform="translate(-240.86 258.88) rotate(-55.78)"/><path class="cls-22" d="M130.4,359.89l-1.35-.77a1.13,1.13,0,0,1,.44-2.11l1.54-.17a1.12,1.12,0,0,0,1-1.33h0a1.12,1.12,0,0,0-1.41-.88l-1.5.41a1.13,1.13,0,0,1-1.18-1.8l1-1.21a1.14,1.14,0,0,0-.25-1.65h0a1.14,1.14,0,0,0-1.62.38l-.77,1.35a1.13,1.13,0,0,1-2.11-.43l-.16-1.55a1.13,1.13,0,0,0-1.34-1h0a1.13,1.13,0,0,0-.88,1.41l.41,1.5a1.13,1.13,0,0,1-1.8,1.18l-1.21-1a1.12,1.12,0,0,0-1.64.24h0a1.13,1.13,0,0,0,.37,1.62l1.36.77a1.13,1.13,0,0,1-.44,2.11l-1.55.16a1.15,1.15,0,0,0-1,1.34h0a1.14,1.14,0,0,0,1.41.88l1.5-.41a1.14,1.14,0,0,1,1.19,1.8l-1,1.21a1.13,1.13,0,0,0,.24,1.64h0a1.12,1.12,0,0,0,1.62-.37l.77-1.35a1.13,1.13,0,0,1,2.11.43l.17,1.55a1.13,1.13,0,0,0,1.33,1h0a1.12,1.12,0,0,0,.88-1.41l-.41-1.5a1.13,1.13,0,0,1,1.8-1.18l1.21,1a1.14,1.14,0,0,0,1.65-.24h0A1.13,1.13,0,0,0,130.4,359.89Z"/><path class="cls-22" d="M126,354.25a3.33,3.33,0,1,0,.89,4.63A3.34,3.34,0,0,0,126,354.25Z"/><path class="cls-24" d="M131.84,345.71a13.68,13.68,0,0,0-18,2.33l21.09,17.44c.2-.25.39-.51.58-.78A13.67,13.67,0,0,0,131.84,345.71Z"/><rect class="cls-25" x="187.98" y="389.81" width="3.11" height="9.18" transform="translate(335.49 806.92) rotate(-173.82)"/><rect class="cls-25" x="185.75" y="386.76" width="1.34" height="13.46" transform="translate(329.38 804.76) rotate(-173.82)"/><rect class="cls-25" x="188.5" y="376.89" width="4.45" height="12.99" transform="translate(339.06 785.08) rotate(-173.82)"/><path class="cls-26" d="M184.85,400.56a1.68,1.68,0,0,0,2.27.67l1.24-.67,3.7-2a1.68,1.68,0,0,0,.68-2.27,1.65,1.65,0,0,0-.53-.58,1.67,1.67,0,0,0-1.74-.09l-3.32,1.8-1.62.87A1.67,1.67,0,0,0,184.85,400.56Z"/><path class="cls-24" d="M187.15,397.42c.4,1,.81,2.09,1.21,3.14l3.7-2a1.68,1.68,0,0,0,.68-2.27,1.65,1.65,0,0,0-.53-.58,1.67,1.67,0,0,0-1.74-.09Z"/><path class="cls-27" d="M202.52,391.5s-7.84-4.14-13.55-3.88a8.38,8.38,0,0,0-1.91.28c-5.67,1.57-10-1.54-13.53-3.8a15.66,15.66,0,0,1,7.29-7.4c6.29-2.75,12.06-1,17.54,3.7.32.27.61.55.89.83A12.2,12.2,0,0,1,202.52,391.5Z"/><path class="cls-28" d="M199.25,381.23c-2.68,1.72-6.42,4-10.28,6.39a8.38,8.38,0,0,0-1.91.28c-5.67,1.57-10-1.54-13.53-3.8a15.66,15.66,0,0,1,7.29-7.4c6.29-2.75,12.06-1,17.54,3.7C198.68,380.67,199,381,199.25,381.23Z"/><path class="cls-29" d="M138.82,365.05a2.48,2.48,0,1,0,.66,3.45A2.48,2.48,0,0,0,138.82,365.05Z"/><path class="cls-22" d="M140.23,363a5,5,0,1,0,1.32,6.93A5,5,0,0,0,140.23,363Z"/><path class="cls-23" d="M139.15,364.57a3.06,3.06,0,1,0,.81,4.26A3.07,3.07,0,0,0,139.15,364.57Z"/><path class="cls-26" d="M138.65,365.3a2.18,2.18,0,1,0,.58,3A2.18,2.18,0,0,0,138.65,365.3Z"/><path class="cls-22" d="M138,366.28a1,1,0,1,0-1.12,1.64,1,1,0,0,0,1.12-1.64Z"/><path class="cls-26" d="M187.52,380c-6.2,7.22-19,6.46-19,6.46l-34.26-23.31s1.44.06,2.29-4.71-.35-7.44,9.2-6.47a38.22,38.22,0,0,1,9.73,2.19c4,1.53,7.88,4.82,5.72,6a9.77,9.77,0,0,0-1.93,1.47c-2.64,2.51-4.47,6.43-3.44,7.13l10.72,7.29c1.86,1.27,4.49,1.33,7.25.72a27.62,27.62,0,0,0,6.22-2.25c4.38-2.18,7.53-8.19,10.28-15.48.11-.28.21-.55.31-.83,2.72-7.5,8.6-3.55,8.61-3.55l-4.72,8.95A32.29,32.29,0,0,1,187.52,380Z"/><path class="cls-25" d="M138.35,374.6l-11.28-7.68,1.37-2,11.07,7.53c.77.29,7.45,3.21,10.13-.73l2,1.37c-3.2,4.7-10.73,2.61-13.2,1.57Z"/><path class="cls-30" d="M114.83,346.79h0a5.62,5.62,0,0,0-1,9.21l14.32,12.31a2.89,2.89,0,0,0,4.27-.56h0a2.91,2.91,0,0,0,0-3.18l-10-15.79A5.75,5.75,0,0,0,114.83,346.79Z"/><path class="cls-31" d="M115.63,348.74h0a3.82,3.82,0,0,0-.69,6.26l9.74,8.38a2,2,0,0,0,2.9-.39h0a2,2,0,0,0,0-2.16l-6.83-10.74A3.93,3.93,0,0,0,115.63,348.74Z"/><path class="cls-22" d="M151.7,375.11c-5.42-.77-12.57-4.76-16.37-8.7a6,6,0,0,1-2.05-3.93c0-1.69,1.25-3.17,1.33-4.85,0-.72-.16-1.44-.16-2.16a2.11,2.11,0,0,1,.86-1.88,2.64,2.64,0,0,1,1.65-.15,50.54,50.54,0,0,1,9.48,2.19c1.65.56,10,3.59,10.53,5.39.41,1.32-3.43,4.58-4.13,6A13.23,13.23,0,0,0,151.7,375.11Z"/><path class="cls-32" d="M167.81,350.33l4.09,3.19a66.92,66.92,0,0,0-11.47,7.65c-5.38,4.58-11.19,1.36-14-2.54s-11.29-15.12-14.29-15.9-16.57-.55-16.57-.55,10.75-16.52,26.36-10.31C155.47,337.28,167.81,350.33,167.81,350.33Z"/><path class="cls-33" d="M199.25,354.73c-1.05-1.55-3.16-1.15-5,4.13-1.7,4.84-5,16.86-9,19.82s-11.73,4.93-16,3.26c-3.73-1.47-28.8-17.51-29.55-18-.26-.17-2.68-.59-1.9.43s5.24,4.06,6.5,7.26,16.26,13.52,20.31,15.53,9.07,3.84,14.72.05,12.48-8.23,16.71-8.3S200.17,356.1,199.25,354.73Z"/><path class="cls-26" d="M170.13,354,141.41,334.5c-4.11-2.79-2.35-6.6-2.77-10.34,0-.24,0-.47-.06-.68-.25-3.62,10.09,6.13,14,8.76s13.92,7,19,11.46c2.81,2.45,3,5.95,2.56,8.6,0,0,0,0,0,0A2.57,2.57,0,0,1,170.13,354Z"/><path class="cls-28" d="M170.13,354,141.41,334.5c-4.11-2.79-2.35-6.6-2.77-10.34a109.57,109.57,0,0,0,9.14,10.11c3,2.58,19.28,13.39,26.33,18,0,0,0,0,0,0A2.57,2.57,0,0,1,170.13,354Z"/><path class="cls-34" d="M146.28,364c-11.83-8.49-30.75-21.78-30.75-21.78s.44-.41,1.26-1c4.24-3.19,18.57-11.9,33.64,2.52,4.55,4.36,3.95,9.08,2,12.86A25.86,25.86,0,0,1,146.28,364Z"/><path class="cls-35" d="M118.39,354.76l-3.06-2.85a.34.34,0,0,0-.47,0h0a.33.33,0,0,0,0,.47l3.06,2.85a.32.32,0,0,0,.47,0h0A.33.33,0,0,0,118.39,354.76Z"/><path class="cls-35" d="M119.3,353.78l-3.06-2.84a.33.33,0,0,0-.47,0h0a.33.33,0,0,0,0,.47l3.06,2.85a.33.33,0,0,0,.47,0h0A.34.34,0,0,0,119.3,353.78Z"/><path class="cls-35" d="M120.21,352.81,117.15,350a.33.33,0,0,0-.47,0h0a.34.34,0,0,0,0,.48l3,2.84a.33.33,0,0,0,.47,0h0A.33.33,0,0,0,120.21,352.81Z"/><path class="cls-22" d="M197.6,344.1a1.66,1.66,0,0,0-2-1.3l-3.23.58a1.67,1.67,0,1,0,.68,3.28l3.24-.58A1.67,1.67,0,0,0,197.6,344.1Z"/><path class="cls-36" d="M198.58,333.51s2.49,1.41,2.14,3.63-1.61,8.91-1.61,8.91"/><rect class="cls-30" x="198.05" y="345.79" width="2.46" height="1.12" transform="translate(229.34 -52.11) rotate(34.23)"/><polygon class="cls-23" points="198.84 329.13 199.72 329.73 196.18 335.62 194.98 334.8 198.84 329.13"/><polygon class="cls-26" points="199.72 329.73 200.56 332.17 197.57 336.56 195.86 335.4 199.72 329.73"/><path class="cls-28" d="M146.28,364c-11.83-8.49-30.75-21.78-30.75-21.78s.44-.41,1.26-1a157.2,157.2,0,0,1,21.9,7.13,57.5,57.5,0,0,1,13.75,8.25A25.86,25.86,0,0,1,146.28,364Z"/><path class="cls-37" d="M123.07,341.53s15.5-7.28,27.52,7.08C150.59,348.61,137.29,338.62,123.07,341.53Z"/><path class="cls-25" d="M122.07,357.82a.64.64,0,1,1-.17-.9A.64.64,0,0,1,122.07,357.82Z"/><circle class="cls-25" cx="125.65" cy="361.73" r="0.64"/><path class="cls-38" d="M186.33,371.16c-7.8,10.57-17.52,7.26-17.52,7.26l-21-14.26,7.66-10c4,1.53,7.88,4.82,5.72,6a9.77,9.77,0,0,0-1.93,1.47c-2.64,2.51-4.47,6.43-3.44,7.13l10.72,7.29c1.86,1.27,4.49,1.33,7.25.72a27.62,27.62,0,0,0,6.22-2.25c4.38-2.18,7.53-8.19,10.28-15.48C190.26,362.59,190.24,365.88,186.33,371.16Z"/><polygon class="cls-9" points="89.43 375.64 95.45 377.86 89.42 384.96 103.23 375.78 97.21 373.56 103.25 366.45 89.43 375.64"/><polygon class="cls-9" points="85.81 350.31 88.22 356.26 78.9 356.57 94.99 360.61 92.59 354.66 101.9 354.35 85.81 350.31"/><path class="cls-39" d="M226.81,321.88l-5.19-6.25a1.14,1.14,0,0,0-1.06-.41,1.18,1.18,0,0,0-.57.25,1.12,1.12,0,0,0-.32.45,5.54,5.54,0,0,1-1.58,2.11,16.09,16.09,0,0,1-3.48,2,17.52,17.52,0,0,0-4,2.28,7.5,7.5,0,0,0-2.24,3,1.17,1.17,0,0,0,.18,1.18l5.19,6.26a1.16,1.16,0,0,0,1.06.4,1.14,1.14,0,0,0,.56-.25,1.25,1.25,0,0,0,.33-.45,5.44,5.44,0,0,1,1.58-2.11,16,16,0,0,1,3.47-2,17.37,17.37,0,0,0,4-2.28,7.48,7.48,0,0,0,2.23-3,1.15,1.15,0,0,0-.17-1.18ZM214.66,332c-1.73-2.07-3.48-4.18-5.19-6.26,2.11-5.11,9.14-4.22,11.26-9.34l5.19,6.26c-2.12,5.11-9.15,4.23-11.26,9.34Zm0,0"/><path class="cls-39" d="M216.63,327.63h0a10.78,10.78,0,0,0-1.12.79,8.74,8.74,0,0,0-.92.9l-.44.5a.29.29,0,0,0,0,.36.3.3,0,0,0,.41,0l0-.06.42-.46a6.79,6.79,0,0,1,.86-.83,8.88,8.88,0,0,1,1.06-.76h0l0,0a.3.3,0,0,0,0-.41.29.29,0,0,0-.38-.05Zm0,0"/><path class="cls-39" d="M219.5,319.54a8.21,8.21,0,0,1-1,.74l-.07,0a.29.29,0,0,0,0,.41.3.3,0,0,0,.4,0h0a10.65,10.65,0,0,0,1.11-.79,7.94,7.94,0,0,0,.93-.9l.44-.5a.28.28,0,0,0,0-.39.29.29,0,0,0-.41,0,.18.18,0,0,0-.05.07l-.43.48a8.47,8.47,0,0,1-.86.83Zm0,0"/><path class="cls-9" d="M217.33,324.61l.12.17,1.12-.75a.53.53,0,0,1,.14-.08s.08,0,.14,0a.34.34,0,0,1,.17.15.7.7,0,0,1,.1.19.13.13,0,0,1,0,.12.51.51,0,0,1-.18.18l-1,.69a.66.66,0,0,0,.42.19.77.77,0,0,0,.35-.12l.65-.44a.86.86,0,0,1,.34-.15.29.29,0,0,1,.23.07.86.86,0,0,1,.21.24,1,1,0,0,1,.14.29.23.23,0,0,1,0,.2.72.72,0,0,1-.26.27l-.68.46a1.62,1.62,0,0,1-.65.26,1.8,1.8,0,0,1-.56,0,1.86,1.86,0,0,1-.54-.21,3,3,0,0,1-.6-.44l-.22.14a.71.71,0,0,1-.21.11c-.08,0-.16-.05-.24-.17a.58.58,0,0,1-.11-.26.17.17,0,0,1,.05-.14l.13-.1.16-.11a1.16,1.16,0,0,1-.15-.21l-.07-.1-.15.1a.48.48,0,0,1-.21.1c-.08,0-.16,0-.24-.16a.56.56,0,0,1-.11-.27.2.2,0,0,1,0-.14.92.92,0,0,1,.13-.09l.21-.15a2.33,2.33,0,0,1-.2-.84,1.46,1.46,0,0,1,.11-.68,1.85,1.85,0,0,1,.66-.79l.66-.45.19-.11a.31.31,0,0,1,.17,0,.26.26,0,0,1,.2.07,1.1,1.1,0,0,1,.21.25.89.89,0,0,1,.15.29.28.28,0,0,1,0,.22.4.4,0,0,1-.11.14.59.59,0,0,1-.18.13l-.65.44a.61.61,0,0,0-.22.72l1-.69c.14-.09.26-.11.34,0a.39.39,0,0,1,.13.15.4.4,0,0,1,.09.17.13.13,0,0,1,0,.12.51.51,0,0,1-.18.18l-1.12.74Z"/><path class="cls-9" d="M221.92,344.79a.57.57,0,0,1,.4-.08,2.43,2.43,0,0,1,.6.26.9.9,0,0,1,.45.49.8.8,0,0,1-.13.62l-.08.14c-.08.14-.15.24-.19.3a1.11,1.11,0,0,1-.22.19c-.19.12-.47.07-.82-.13s-.55-.39-.6-.57a1.19,1.19,0,0,1,.21-.76A1.34,1.34,0,0,1,221.92,344.79Zm1.76-.34a2.55,2.55,0,0,1-.47-.21,2.09,2.09,0,0,1-.42-.3.4.4,0,0,1-.14-.29.85.85,0,0,1,0-.25c0-.06.08-.16.15-.28l1.59-2.76.17-.27a.7.7,0,0,1,.2-.16.51.51,0,0,1,.33,0,1.67,1.67,0,0,1,.47.21,1.76,1.76,0,0,1,.42.3.4.4,0,0,1,.13.3.6.6,0,0,1,0,.25,1.77,1.77,0,0,1-.14.29L224.37,344a2.36,2.36,0,0,1-.17.26.53.53,0,0,1-.2.15A.43.43,0,0,1,223.68,344.45Z"/><path class="cls-5" d="M292.13,584.52a41.84,41.84,0,0,0-2.82-9.9,74.15,74.15,0,0,0-10.55-17.2,143.29,143.29,0,0,0-13.39-14.5,235.83,235.83,0,0,0-29.91-24,259.54,259.54,0,0,0-31.94-18.59c-5.41-2.68-10.91-5-16.39-7.23l-1.9-.72c-23.53-11.57-48.56-17-72.1-10.64C35.18,502.63,8.8,590.6,8.8,590.6c-2.63,6.16-1.43,15.35,2.82,25.9,0,.23,0,.35,0,.35s0-.06.06-.17c14.89,36.71,66.74,89.8,124.51,89.64a183.5,183.5,0,0,0,27.36-1.93c-1.49.35-3,.69-4.45,1a97.57,97.57,0,0,1-15.22,2,114.07,114.07,0,0,1-29-2.29,145,145,0,0,1-25.8-8,176,176,0,0,1-40.27-23.35,144.13,144.13,0,0,1-25.31-24.58c-6-7.64-9.52-14.46-11-19.35a28.54,28.54,0,0,1-1.23-5.69c-.07-.65-.08-1.15-.11-1.49a3.3,3.3,0,0,0-.06-.5,7.36,7.36,0,0,0-.09,2,25.77,25.77,0,0,0,1,5.82c1.37,5,4.79,12,10.74,19.82A142.42,142.42,0,0,0,47.9,675a175.91,175.91,0,0,0,40.46,23.89,145.82,145.82,0,0,0,26.09,8.22A115.76,115.76,0,0,0,144,709.54a100.86,100.86,0,0,0,15.56-2c5.17-1.1,10.4-2.38,15.65-3.92a157.62,157.62,0,0,0,15.7-5.5c2.08-.85,4.14-1.77,6.19-2.74,34.63-13,68.21-37,88.11-67.62,4.64-7.15,5.16-15.51,3.42-24l1.71-4,.24-.57.21-.62.42-1.22c.26-.83.46-1.67.66-2.51A30.5,30.5,0,0,0,292.13,584.52Zm-2.73,9.82c-.19.76-.37,1.52-.6,2.27l-.38,1.11-.19.56-.24.56c-.12.29-.25.57-.37.86-3.7-12.93-12-25.7-18.24-34.43a253.86,253.86,0,0,0-63.71-61.16A259.81,259.81,0,0,1,234.07,521a233,233,0,0,1,29.57,23.8A142.19,142.19,0,0,1,276.79,559,71.47,71.47,0,0,1,287,575.62a39.2,39.2,0,0,1,2.66,9.27A28.25,28.25,0,0,1,289.4,594.34Z"/><path class="cls-8" d="M35.45,603.42c.16-.51-3.8-2.2-9-3.37h0l0-.06c1.7-4.47,2.69-8.06,2.22-8.25s-1.8,2.35-3.37,6c-3-6-5.79-10.49-6.25-10.26s1.75,5.65,5,12.08v0c-4-.72-7-.79-7.06-.35s2.85,1.28,6.8,2.23c-1.71,4.49-2.71,8.11-2.24,8.29s2.17-3,4-7.34c2.63,5,4.84,8.55,5.25,8.35s-1-3.72-3.19-8.43C31.92,603.27,35.31,603.9,35.45,603.42Z"/><path class="cls-8" d="M246.89,651.5c.27-.13-.51-2.4-1.95-5v0c2.49-1,4.35-1.9,4.25-2.17s-1.65.14-3.73.84c1.34-3.5,2.18-6.33,1.92-6.43s-1.69,2.83-3.15,6.58v0c-1.19-1.93-2.29-3.2-2.5-3.06s.54,1.66,1.63,3.65c-2.51,1-4.38,1.91-4.28,2.18s2.06-.23,4.53-1.11c-1.09,3-1.74,5.21-1.5,5.3s1.18-1.79,2.3-4.47C245.63,650,246.64,651.61,246.89,651.5Z"/><path class="cls-8" d="M147.35,546.5c.29-.13-.54-2.52-2-5.23h0l0,0c2.61-1,4.56-2,4.46-2.27s-1.73.13-3.92.87c1.4-3.67,2.29-6.64,2-6.75s-1.77,3-3.3,6.91v0c-1.25-2-2.4-3.36-2.62-3.21s.56,1.74,1.7,3.84c-2.63,1-4.59,2-4.49,2.28s2.17-.25,4.75-1.17c-1.14,3.11-1.82,5.47-1.57,5.57s1.24-1.88,2.42-4.7C146,544.9,147.09,546.62,147.35,546.5Z"/><path class="cls-40" d="M47.72,542.61c-.28-.14-1.62,2-2.76,4.89v0h0c-2.44-1.39-4.44-2.28-4.58-2s1.2,1.26,3.15,2.49c-3.73,1.23-6.6,2.42-6.51,2.7s3.43-.5,7.45-1.8h0c-.78,2.25-1.09,4-.84,4.07s1-1.54,1.9-3.75c2.45,1.4,4.46,2.3,4.61,2s-1.56-1.52-3.9-3c3.13-1.07,5.39-2,5.3-2.3s-2.24.23-5.16,1.1C47.31,544.64,48,542.74,47.72,542.61Z"/><g class="cls-6"><path class="cls-7" d="M268,583.67c-.69.32-3.87-6.22-10.12-12.33s-12.74-9.31-12.43-10c.13-.3,2,.08,4.69,1.37.68.32,1.41.7,2.17,1.15s1.56,1,2.39,1.51a41.2,41.2,0,0,1,5,4.15,39.81,39.81,0,0,1,4.19,5c.56.82,1.1,1.6,1.54,2.37s.84,1.49,1.17,2.17C267.89,581.7,268.28,583.54,268,583.67Z"/><path class="cls-7" d="M275.32,588.35c-.72.13-2-4-4.26-8.73s-4.66-8.32-4.1-8.8c.26-.22,1.24.41,2.48,1.75a25.56,25.56,0,0,1,6.08,12.75C275.78,587.13,275.66,588.29,275.32,588.35Z"/></g><g class="cls-6"><path class="cls-7" d="M70.81,666.51c0-.75,7.41-1,16.27-2.74s15.81-4.26,16.11-3.57c.13.31-1.45,1.37-4.24,2.6a54.41,54.41,0,0,1-11.38,3.48,55.07,55.07,0,0,1-11.85,1.05C72.67,667.23,70.81,666.85,70.81,666.51Z"/><path class="cls-7" d="M58.76,665.57c.51-.55,4.61,2.64,10.48,4.73s11,2.36,11.06,3.11c0,.33-1.31.74-3.51.79a22.14,22.14,0,0,1-3.85-.29,27.79,27.79,0,0,1-4.58-1.2,26.17,26.17,0,0,1-4.28-2A21,21,0,0,1,61,668.43C59.29,667,58.54,665.82,58.76,665.57Z"/></g><path class="cls-8" d="M39.82,700.92l0-.7A3.27,3.27,0,0,0,38.5,698a3.39,3.39,0,0,0-2-.61,3.22,3.22,0,0,0-3.2,2.83l0,.71a3.66,3.66,0,0,0,.67,2.42,3.17,3.17,0,0,0,2.61,1.23,3.1,3.1,0,0,0,2.31-1A3.37,3.37,0,0,0,39.82,700.92Z"/><path class="cls-8" d="M38.8,683.59c-2.69,0-2.89,4.18-.18,4.18S41.51,683.59,38.8,683.59Z"/><path class="cls-8" d="M253,665c-2.84,0-2.25,4.37.55,4.37S255.83,665,253,665Z"/><path class="cls-8" d="M259.11,678.41a2.27,2.27,0,0,0-.53-1.09,3.14,3.14,0,0,0-2-1.13,3.08,3.08,0,0,0-2.32.66,3,3,0,0,0-1.13,2v.57a2.33,2.33,0,0,0,.12,1.23,2.29,2.29,0,0,0,.54,1.09,3.11,3.11,0,0,0,4.36.47,3,3,0,0,0,1.13-2v-.57A2.23,2.23,0,0,0,259.11,678.41Z"/><path class="cls-8" d="M53.07,503.06c-2.89,0-3.09,4.48-.2,4.48S56,503.06,53.07,503.06Z"/><path class="cls-8" d="M69.11,506a2.65,2.65,0,0,0-3.52-.19l-.55.5a2.3,2.3,0,0,0-.54,1,2.76,2.76,0,0,0-.07,1.48A2.84,2.84,0,0,0,67.11,511a2.89,2.89,0,0,0,2.73-1.63A3,3,0,0,0,69.11,506Z"/><path class="cls-8" d="M207.21,492.64c-2.52,0-3,3.93-.48,3.93S209.76,492.64,207.21,492.64Z"/><path class="cls-8" d="M221.19,499.47c-3.83,0-3.75,5.95.08,5.95S225,499.47,221.19,499.47Z"/><path class="cls-8" d="M4.57,607.31c-2.68,0-2.86,4.17-.17,4.17S7.26,607.31,4.57,607.31Z"/><path class="cls-8" d="M8.61,593c-3.63,0-3.31,5.63.31,5.63S12.23,593,8.61,593Z"/><path class="cls-8" d="M280.82,619.93c-3,0-2.34,4.59.6,4.59S283.75,619.93,280.82,619.93Z"/><path class="cls-8" d="M285,605.75a2.82,2.82,0,0,0-1.44-1.5,2.94,2.94,0,0,0-1.83-.08,2.74,2.74,0,0,0-1.08.61,4,4,0,0,0-1.21,1.33,3,3,0,0,0-.62,1.49v.82a3,3,0,0,0,1.5,2.21,3.07,3.07,0,0,0,4.37-1.43c.08-.2.16-.41.23-.62a5.66,5.66,0,0,0,.23-.9,2.57,2.57,0,0,0,0-.48A2.78,2.78,0,0,0,285,605.75Z"/><g id="Calque_2" data-name="Calque 2"><g id="textes"><path class="cls-41" d="M151.57,659.85a1.7,1.7,0,0,1-.47-3.34l13.13-3.74a1.7,1.7,0,0,1,.93,3.27L152,659.78A1.47,1.47,0,0,1,151.57,659.85Z"/><polygon class="cls-42" points="139.18 625.13 113.68 545.73 109.75 547.09 135.25 626.5 139.18 625.13"/><path class="cls-43" d="M227,656.71a40.48,40.48,0,0,0,34-12.54,38.91,38.91,0,0,0,10-32.48,39.87,39.87,0,0,0-19.23-28.22,39.18,39.18,0,0,0-33.48-3A37.28,37.28,0,0,0,195.4,604.4a43.53,43.53,0,0,0-1.84,16.7,42.62,42.62,0,0,0,4.91,16,41,41,0,0,0,8,10.27,54.65,54.65,0,0,0,10.81,7.68c.87.48,1.66,1.53,1.47,2.3l-.37,1.51a1,1,0,0,1,0,.24v.24c-.53,1.84-4.19.86-5.11-.74a27.89,27.89,0,0,1-14.18-9.2,49.29,49.29,0,0,1-8.34-14.73,55,55,0,0,1-3.53-15,40.57,40.57,0,0,1,1.54-15.45A46.35,46.35,0,0,1,211,577.18,45,45,0,0,1,246.19,574,46.19,46.19,0,0,1,275,634.89a44.43,44.43,0,0,1-23.48,24.38,51.54,51.54,0,0,1-15.59,4.32,36.82,36.82,0,0,1-16-1.84c-1-.35-1.84-1.29-1.64-2,.37-2.45.92-3.57,2.15-3.88a5.63,5.63,0,0,1,2.45,0C224,656.25,225.35,656.36,227,656.71Zm45-54.63a43.11,43.11,0,0,1,2.9,17A39.63,39.63,0,0,0,272,602Z"/><path class="cls-42" d="M182.8,618.79a50.14,50.14,0,0,1,50-50.13h.2c.78,0,7.72.19,11.09,1.86l-1.43,2.89c-2.32-1.15-7.8-1.49-9.72-1.53a47,47,0,0,0-47,46.9Z"/><path class="cls-42" d="M20.13,610.57,17,610a50.12,50.12,0,0,1,58.28-40.25l-.46,3.19A46.94,46.94,0,0,0,20.13,610.57Z"/><path class="cls-42" d="M113.59,617.45a46.44,46.44,0,0,0-40.81-45l.38-3.2a49.69,49.69,0,0,1,43.66,48.09Z"/><path class="cls-43" d="M97.42,591.83a40.5,40.5,0,0,0-33.71-13.27,38.9,38.9,0,0,0-29.05,17.61A39.89,39.89,0,0,0,30.22,630a39.19,39.19,0,0,0,23,24.54,37.27,37.27,0,0,0,33-2.63,43.34,43.34,0,0,0,12.46-11.25,42.36,42.36,0,0,0,7-15.21,40.82,40.82,0,0,0,.86-13,55.29,55.29,0,0,0-2.94-12.89,2.6,2.6,0,0,1,.42-2.71l1.23-.94.19-.16.2-.13c1.62-1,3.68,2.15,3.33,3.94a27.94,27.94,0,0,1,4.4,16.35,49.17,49.17,0,0,1-3.59,16.57A55.06,55.06,0,0,1,102.41,646,40.75,40.75,0,0,1,91,656.51a46.38,46.38,0,0,1-34.58,5.33,45.13,45.13,0,0,1-28.3-21.11,46.17,46.17,0,0,1,19-64.6,44.41,44.41,0,0,1,33.77-2.56,51.48,51.48,0,0,1,14.5,7.16,37,37,0,0,1,10.72,11.95,2.26,2.26,0,0,1,0,2.54c-1.84,1.56-3.06,2-4.2,1.47a5.84,5.84,0,0,1-1.84-1.69C99.43,594.11,98.49,593.17,97.42,591.83Zm-70,10.81A42.94,42.94,0,0,1,36.67,588a39.45,39.45,0,0,0-9.17,14.64Z"/><path class="cls-13" d="M99.48,570.75a5.62,5.62,0,0,1-1.7-.26L83.57,566H42.13a5.67,5.67,0,1,1,0-11.34H85.31l15.87,5a5.67,5.67,0,0,1-1.7,11.08Z"/><path class="cls-44" d="M127.76,636.85l-57.07-10.4c-.58-.1-1.2-.19-1.84-.27-3.44-.45-8.63-1.14-8.63-6.64,0-5.7,5.12-6.13,9.24-6.48l1.82-.17c4.7-.52,23.31.13,24.1.16l-.08,2.26c-.19,0-19.23-.67-23.77-.17-.62.07-1.25.12-1.88.17-5,.43-7.16,1-7.16,4.23s2.63,3.86,6.65,4.39c.69.09,1.35.18,2,.29l57.08,10.4Z"/><rect class="cls-41" x="52.75" y="552.98" width="3.41" height="64.8" transform="translate(-238.22 75.5) rotate(-24.54)"/><path class="cls-41" d="M103.61,587.18a1.69,1.69,0,0,1-1.6-1.11L97.17,573,87.67,569H47.12a1.71,1.71,0,0,1,0-3.41H88.35l11.5,4.76,5.35,14.51a1.7,1.7,0,0,1-1,2.19A1.78,1.78,0,0,1,103.61,587.18Z"/><path class="cls-13" d="M191.28,560.53h-4.55l4.24-1.64c.26-.1,26.23-10.39,31.68-36.2a37.55,37.55,0,0,0,.94-8.32c-3.87-4.48-9.61-8-15.45-8h-4l3.69-1.62c.35-.16,8.78-3.78,13.88.36,2.19,1.78,3.38,4.68,3.57,8.66a23.75,23.75,0,0,1,3.49,5.51,27.23,27.23,0,0,1-4.57,28.52C217.34,555.29,201.36,560.53,191.28,560.53Zm33.95-44.06a43.47,43.47,0,0,1-.93,6.57c-4.3,20.37-20.89,31.38-28.66,35.5,9.51-1.19,21.81-5.9,27.26-11.91a25.5,25.5,0,0,0,4.29-26.71A21.49,21.49,0,0,0,225.23,516.47Zm-13-11.33a24.74,24.74,0,0,1,11.15,6.52,8.3,8.3,0,0,0-2.72-5.27C218.24,504.46,214.8,504.61,212.19,505.14Z"/><path class="cls-45" d="M199.82,554a61.07,61.07,0,0,0-8.69,7.36,103.06,103.06,0,0,0-7.79,9,77.51,77.51,0,0,0-10.69,20,112.66,112.66,0,0,1-11.05,22.7,63.19,63.19,0,0,1-8.32,10c-.83.77-1.68,1.47-2.56,2.24a47,47,0,0,1-3.85,2.71,28,28,0,0,1-8.32,3.37c-1.38.2-2.76.46-4.2.55l-2.08-3.39-1.07-1.69a4,4,0,0,1-.46-1l-.42-1.16-1.71-4.7-.41-1.1-.27-.68-.57-1.36-1.2-2.73q-1.22-2.7-2.52-5.39a99.94,99.94,0,0,1-7.77-22.61c-1.31-6-3.15-11.93-2.56-18.41,0-.72,1.19-1.84,2.67-2.36l2.92-1,.47-.17.46-.14c3.68-1.16,4.93.75,3.18,2.24,5.73,5.17,3.68,13.31,5.23,19.88,1.42,6.12,5.19,11.57,7.12,17.55q1.66,5.12,3.58,10.14a10.22,10.22,0,0,0,1.16,2.62,9.45,9.45,0,0,0,.71,1.07c0,.11.17,0,.3,0l.35-.21a6.25,6.25,0,0,0,.61-.44,5.25,5.25,0,0,0,.82-.88l.15-.2.7-.7a20.59,20.59,0,0,0,1.53-1.57c.5-.57,1-1.09,1.49-1.66l1.44-1.84a68.11,68.11,0,0,0,9.35-17.45l1.71-4.86,2-5.38,1-2.76,1.2-2.7a53.28,53.28,0,0,1,2.56-5.38,64.79,64.79,0,0,1,13.35-17.67c2.52-2.43,5-5,7.66-7.48a23.56,23.56,0,0,1,9.73-5.52,1.84,1.84,0,0,1,1.44.46,4.81,4.81,0,0,1,1.29,1.51,42.44,42.44,0,0,1,2.13,5.23l.54,1.67a6.3,6.3,0,0,1,.18,1.22C202.38,552.39,201.48,552.84,199.82,554ZM164,593.43l4-10.12c-.76,1.67-1.5,3.36-2.2,5.06S164.53,591.72,164,593.43Z"/><path class="cls-45" d="M166.79,593.52a22.11,22.11,0,0,1-4.12,5.71,26,26,0,0,1-5.29,4.16,22.69,22.69,0,0,1-6.16,2.41c-2.09.48-4.07.78-6.15,1.11s-4.26.55-6.47.77a12.42,12.42,0,0,1-6.59-1.21,8.66,8.66,0,0,1-4.19-3.26,1.52,1.52,0,0,1,.33-1.25l.66-.94.11-.15.11-.15c.81-1.18,1.27-1.16,1.05-.38,1.95-.54,2.71,1.54,4.25,2.24a14.69,14.69,0,0,0,4.48.35,31.54,31.54,0,0,0,10-1.43,17.08,17.08,0,0,0,8.34-4.28c1-.93,2.14-2,3.24-3.09s1.33-2.69,2.6-3.68a1.74,1.74,0,0,1,1.12.22C167.45,592.27,167.36,592.4,166.79,593.52Zm-12,8.29a15.64,15.64,0,0,0,2.28-1.31Z"/><path class="cls-42" d="M208.08,523.86l1-.43-.42-1-.9-2.2-.42-1-.06.05-1.05.42a29.61,29.61,0,0,0-7.6,4.07,13.06,13.06,0,0,0-4.59,9.21,37.31,37.31,0,0,0,1.84,8l3.1,8.62.38,1.07,1.07-.39,2.23-.79,1.07-.39-.39-1.07-3.07-8.54a34.42,34.42,0,0,1-1.55-6.39,8.48,8.48,0,0,1,2.87-5.74A25.87,25.87,0,0,1,208.08,523.86Z"/><path class="cls-46" d="M210.29,561.51l-1,.44a1.27,1.27,0,0,0,.15-1.12l-6.85-20v-.11l-2.43-5.52a1.3,1.3,0,0,0-1.63-.7l-5.33,1.95a1.32,1.32,0,0,0-.79,1.66l7.37,21.56v.15l1.84,4a1.3,1.3,0,0,0,1.67.7h0l-1.61.67L203,568.3l8.65-3.59Z"/><path class="cls-45" d="M229.81,618.41a64.15,64.15,0,0,1-4.7-7.64c-2.57-4.91-5.35-9.64-7.84-14.6s-4.62-9.85-7.49-14.54a27.53,27.53,0,0,1-3.13-7.66,17.46,17.46,0,0,1-.92-6.37c0-.26.46-.64,1-.83l1.11-.37h.33c1.38-.42,1.84.21,1.16.74,2.08,1.7,1.29,4.48,1.84,6.68a52,52,0,0,0,2.85,5.56c1.84,4.5,4.42,8.62,6.61,12.89s4.88,8.58,7.37,12.89c1.14,2,2.2,4,3.18,6s2.61,3.44,3.3,5.52a1.7,1.7,0,0,1-.65,1C230.93,619.89,230.77,619.74,229.81,618.41Zm-7.36-17.95c.6,1.07,1.16,2.18,1.84,3.24a36.67,36.67,0,0,0-1.81-3.24Z"/><path class="cls-45" d="M118.22,578.59c-2.72,2.32-5.52,4.53-8.46,6.63-5.38,3.9-10.39,8.19-15.54,12.39A139.48,139.48,0,0,0,79.6,610.68a46,46,0,0,1-7.49,6.45A27,27,0,0,1,65.5,621a1.42,1.42,0,0,1-1.24-.57l-.75-.89-.13-.12-.11-.15c-.92-1.12-.35-1.84.42-1.49,1.2-2.88,4.53-3.48,6.8-5.08s3.68-3.69,5.67-5.38c4.56-3.79,8.7-8.06,13.23-11.89s9.21-8,13.87-11.86a66.49,66.49,0,0,1,6.79-5c2.34-1.55,3.92-3.68,6.33-4.77.24-.11.78.13,1.11.52C120,577.1,119.72,577.32,118.22,578.59ZM98.36,590.84l3.48-2.84A41.05,41.05,0,0,0,98.36,590.84Z"/><path class="cls-45" d="M132.34,627.36c-3.68-.2-7.23-.59-10.84-1.07-6.68-.9-13.35-1.27-20.07-1.84a144.45,144.45,0,0,0-19.84-.68,47.14,47.14,0,0,1-10-.53A27.41,27.41,0,0,1,64,621.49a1.42,1.42,0,0,1-.52-1.27v-1.53c.11-1.44,1.05-1.6,1.36-.79,2.89-1.25,5.76.62,8.54,1s5.31-.15,7.94,0c6,.42,12,.2,18,.57s12.3.55,18.41,1c2.82.22,5.66.61,8.45,1.11s5.4.11,8,.94c.25,0,.46.62.46,1.12C134.7,627.49,134.33,627.47,132.34,627.36Zm-23.12-4.9,4.55.37C112.26,622.63,110.74,622.51,109.22,622.46Z"/><path class="cls-13" d="M214.25,519.46,209.8,508.6a3.33,3.33,0,0,0-3.11-2.08v0a3.24,3.24,0,0,0-1.27.26l-1.44.58a3.36,3.36,0,0,0-1.86,1.93,5.75,5.75,0,0,0-1.44-.29l0-.09a4.53,4.53,0,0,0-1.62.31,4.68,4.68,0,0,0-2.72,3.08,6.59,6.59,0,0,0,.22,4.38,6,6,0,0,0,5.3,4,4.25,4.25,0,0,0,1.62-.31,5.45,5.45,0,0,0,1.66-1.29l1.43,3.5a3.37,3.37,0,0,0,4.37,1.85h0l1.43-.59A3.36,3.36,0,0,0,214.25,519.46Z"/><path class="cls-13" d="M203,514.34,202.3,513a3,3,0,0,0-2.68-1.67,2.92,2.92,0,0,0-1.33.31l-13.7,6.79a3,3,0,0,0-1.36,4l.65,1.3a3,3,0,0,0,4,1.37l13.7-6.8A3,3,0,0,0,203,514.34Z"/><path class="cls-13" d="M132.51,540.92a4.41,4.41,0,0,0-1.45-2.17,8.37,8.37,0,0,0-1.85-1.08,15.26,15.26,0,0,0-3.49-1.11c-2-.36-2.74-.37-2.93.69a1,1,0,0,0-.72-.78c-3.2-.66-6.37-.24-9-.87a24.79,24.79,0,0,1-5.12-2,16.82,16.82,0,0,0-6.43-1.84,8.74,8.74,0,0,0-6.84,2.37,6.27,6.27,0,0,0-1.64,3.5,8.24,8.24,0,0,0,.38,3.59,12.73,12.73,0,0,0,3.78,5.52,15.69,15.69,0,0,0,5.63,3.26,13,13,0,0,0,6.7.44,15.47,15.47,0,0,0,5.89-2.9,9.44,9.44,0,0,1,4.79-2.18c1.77,0,3.85.5,6,.63a9.09,9.09,0,0,0,3.94-.46,4,4,0,0,0,2-1.84A3.71,3.71,0,0,0,132.51,540.92Z"/><path class="cls-41" d="M62,603.79a1.68,1.68,0,0,1-1.28-.59,1.71,1.71,0,0,1,.16-2.4l39.35-34.24a1.7,1.7,0,1,1,2.23,2.57L63.08,603.37A1.7,1.7,0,0,1,62,603.79Z"/><path class="cls-13" d="M114.12,620c13,2,12.26,19.93,12.26,19.93s6.39.78,10.22,1,15.33.77,16.35-13.55-13.81-15.86-13.81-15.86-36.29-1-45.49-1a21.45,21.45,0,0,0-11.29,2.84,1,1,0,0,0-.44.67,1,1,0,0,0,.83,1.17C88.58,616.09,103.75,618.36,114.12,620Z"/><path class="cls-41" d="M157.88,656.44a1.7,1.7,0,0,1-1.47-.84L140,627.48a1.7,1.7,0,0,1,3-1.71l16.36,28.11a1.71,1.71,0,0,1-.61,2.33A1.68,1.68,0,0,1,157.88,656.44Z"/><path class="cls-47" d="M139.14,638.7a11.56,11.56,0,1,1,11.56-11.56A11.57,11.57,0,0,1,139.14,638.7Zm0-22a10.42,10.42,0,1,0,10.42,10.42A10.43,10.43,0,0,0,139.14,616.72Z"/><path class="cls-8" d="M177.36,566a1.6,1.6,0,1,1,.5,2.21h0A1.6,1.6,0,0,1,177.36,566Zm-1.11-.7a2.89,2.89,0,1,0,4-.9,2.9,2.9,0,0,0-4,.9Z"/><path class="cls-8" d="M176.75,571.38a5.36,5.36,0,0,0,.3-2.51,6.4,6.4,0,0,0-3.32-4.62l-.55-.35L172,565.74l1.11.7.5-.79a4.59,4.59,0,0,1,2.06,4.73l-5.91-1.08L168.61,571l1.11.7.62-1,6.13,1.12Z"/><path class="cls-8" d="M176,572.39a2.9,2.9,0,1,1-1.23-.77.72.72,0,0,0-.33.29l-.55.86a1.58,1.58,0,0,0-.71.17,1.6,1.6,0,1,0,2.14.74l.55-.87A.8.8,0,0,0,176,572.39Z"/><path class="cls-8" d="M175.65,572.65a.53.53,0,0,0-.89-.56l-1.16,1.84a.53.53,0,0,0,.89.56l1.16-1.84Z"/></g></g></g></g></g></svg>