<svg xmlns="http://www.w3.org/2000/svg" xmlns:xlink="http://www.w3.org/1999/xlink" viewBox="0 0 280 270"><defs><style>.cls-1{fill:none;}.cls-2{fill:url(#Dégradé_sans_nom_332);}.cls-3{clip-path:url(#clip-path);}.cls-4,.cls-8{fill:#fff;}.cls-4,.cls-5,.cls-6{fill-rule:evenodd;}.cls-5{fill:#fcc670;}.cls-6{fill:#e8e7e1;}.cls-7{fill:#dec4c4;}.cls-9{fill:#eb5c40;}.cls-10{fill:#1d1d1b;}.cls-11{fill:#683c11;}.cls-12{fill:#ed6843;}.cls-13{fill:#fbbc43;}</style><linearGradient id="Dégradé_sans_nom_332" x1="131.11" y1="21.12" x2="131.11" y2="260.02" gradientUnits="userSpaceOnUse"><stop offset="0" stop-color="#fbbc43" stop-opacity="0.3"/><stop offset="1" stop-color="#cc8136"/></linearGradient><clipPath id="clip-path"><path class="cls-1" d="M231,258.94H31.22a9.62,9.62,0,0,1-9.59-9.59V49.57C21.63,44.3,25.94,32,31.22,32H231c5.27,0,49.54,12.31,49.54,17.58V249.35C280.54,254.62,236.27,258.94,231,258.94Z"/></clipPath></defs><title>hp_offre</title><g id="Calque_2_-_copie_2" data-name="Calque 2 - copie 2"><rect class="cls-2" x="21.63" y="39.98" width="218.96" height="218.96" rx="12"/><g class="cls-3"><g id="Calque_2" data-name="Calque 2"><g id="kcO2D6"><path class="cls-4" d="M182.68,220.18a12.47,12.47,0,0,0,.39,3.74,4.3,4.3,0,0,0,5.79,2.74,2.13,2.13,0,0,1,1.58-.17,14.82,14.82,0,0,0,4.54.62,4,4,0,0,0,4.13-2.14,4.14,4.14,0,0,0-.18-4.68c-2.13-2.73-4.47-5.34-7.74-6.74-4.87-2.07-8.46.37-8.5,5.64C182.68,219.52,182.69,219.85,182.68,220.18Z"/><path class="cls-4" d="M202.92,235.94a1.86,1.86,0,0,1-2.09.31,3.13,3.13,0,0,0-2.11-.13,24.88,24.88,0,0,1-7.85.7c-6.88-.65-13.12,2.2-19.67,3.29a68.13,68.13,0,0,1-10.68.62c-.81,0-1.15-.52-1.56-1-.42-.85.09-1.8-.3-2.65h0c0-6.47.08-13-.1-19.42-.1-3.87-.64-7.73-1-11.6l-.26.33v0c0-.07,0-.13-.09-.21a3,3,0,0,0-3.18.23c-1.94.53-3.92.2-5.89.25-2.19.07-4.4.07-6.6,0-1.08,0-1.4.32-1.41,1.4q-.1,10.4-.31,20.77c-.07,4.07-.2,8.13-.31,12.19a1.18,1.18,0,0,0,.57-.62c0-.35-.07-.7-.08-1a1.53,1.53,0,0,1,0-1.13c0,.37,0,.75,0,1.13a1.9,1.9,0,0,1,.08,1c.08.88.21,1.77.35,2.65a15.89,15.89,0,0,0,5.51,8.77c3.31,2.53,7.08,2.06,10.76,1.22,4.5-1,9-2.22,13.38-3.51,4.15-1.21,8.43-1.44,12.66-2a1.42,1.42,0,0,1,.8.09c2.45,1.4,5.25,1.47,7.9,2.09a13.58,13.58,0,0,0,9.57-1.46c3.19-1.67,6.17-3.63,8-6.87a10.4,10.4,0,0,0,.3-2.27A4.09,4.09,0,0,0,202.92,235.94Z"/><path class="cls-5" d="M156.65,199.43q-.75-9.52-2.31-19c-1.19-7.26-8.44-16.66-10.23-23-2.52-9-7.93-15.91-15.67-21.09A45,45,0,0,0,112,129.48a42.55,42.55,0,0,0-6.1-1.24l-.91-.14a36.5,36.5,0,0,0-25.18,0,.86.86,0,0,0-.3.09l-.49.22-.93.41c-2.78,1.1-5.76,1.54-8.62,2.37a51.62,51.62,0,0,0-16.14,8c-8.19,6-12.46,14.22-13.7,24.17-1.22,9.74-6.69,23.69-5.55,34.49.32,3.12.38,6.26.69,9.38.08.73-1.2,1.48,0,2.15,5.83-1.44,11.73-1.28,17.64-.66a4.93,4.93,0,0,1,.93.26c1.37,1,3.05.81,4.57,1.17,1.76.42,2.75,1.2,2.67,3.07a63.08,63.08,0,0,1,.15,7.4,3,3,0,0,0,.58,2.32A32.52,32.52,0,0,0,69,224.12a.7.7,0,0,0,.35-.21,1.44,1.44,0,0,0,1.3.23c1.34-.67,2-2,2.93-3.07a31,31,0,0,0,4.73-6.93,2.33,2.33,0,0,1,2.38-1.4,55.23,55.23,0,0,1,8.72.37,7.57,7.57,0,0,1,1,.2c.48.16,1,.34,1,.93s-.68.56-1.13.61c-3.58.32-4.47,1.56-4.77,5.16-.31,3.85,1,6.62,4.27,8.57a15.6,15.6,0,0,1,1.29,1c4.21,3.2,7.91,7,12.09,10.21.71.55,1.28,1.43,2.36,1.23.41.68,1.17.69,1.81.9,2.19.73,4.45,1.29,6.07,3.12.43,1.13-.28,1.59-1.17,1.69a44.73,44.73,0,0,0-8.27,2.16,7,7,0,0,1-4.21.14A5.11,5.11,0,0,0,97,249a53.31,53.31,0,0,1-8.43,1.38,7.82,7.82,0,0,1-6.17-1.5c-2-1.59-4.19-2.85-5.46-5.16-.51-.92-1.32-1-2.28-.76-3.36.81-6.79,1.3-10.16,2.08a59.82,59.82,0,0,1-8.64,1.18c-.6,0-1.37-.15-1.54.78l0,0c.45.45,1.16-.11,1.6.39a103.26,103.26,0,0,1,1.68,11.2c.73,5.48,1.4,11,2.12,16.45a5.71,5.71,0,0,0,.53,1.89,5.89,5.89,0,0,1,.69,3.78,2.1,2.1,0,0,0,1.87.36q11.79-1.39,23.64-2c4.1-.24,8.22-.5,12.35-.46q12,.14,23.91,0c4.19,0,8.35.27,12.52.48a2.54,2.54,0,0,0,1.73-.32c.2-.55.38-1.09.58-1.64h0v0a2,2,0,0,0,.06-.3,35.53,35.53,0,0,0,.91-8,29.81,29.81,0,0,0,.57-6.18,104.79,104.79,0,0,0,.4-10.64,49.63,49.63,0,0,0-.08-9.9l.2,0a1.9,1.9,0,0,0,.34-1.13c.49-7,.24-13.92.47-20.88q.18-5.42.27-10.85c0-1.77.17-1.91,2-1.92,3,0,6,0,9.05,0,.8,0,1.68.15,2.29-.61a1.08,1.08,0,0,0-.11-.18h.1l3.27-.06a.48.48,0,0,0,.26-.33C157.21,203.84,157.28,201.59,156.65,199.43ZM62.6,210l0,0,0,0Z"/></g><polygon class="cls-6" points="83.18 244.11 270.97 244.11 270.97 237.77 272.32 237 272.32 215.25 83.18 215.24 83.18 244.11"/><rect class="cls-7" x="82.37" y="215.24" width="52.48" height="28.87"/><path class="cls-4" d="M113.73,244.67c-1.88-1.78-4.27-2.52-6.68-3.23-.52-.16-1-.3-1.57-.44a81.66,81.66,0,0,1-7.77-6.34c-2.89-2.64-5.91-5.1-9-7.45-1.82-1.37-3-3-2.71-5.45a22.6,22.6,0,0,0,0-2.47c0-2.54,1.23-3.82,3.79-4,.32,0,.66,0,1,0,.52-.06,1.33.19,1.36-.53A1.54,1.54,0,0,0,90.92,213a34.31,34.31,0,0,0-4.39-.6c-2.09-.1-4.18,0-6.27,0-.87,0-1.66.13-2.06,1-1.74,4-4.81,7.06-7.4,10.46a20.57,20.57,0,0,1-1.67,2c.18-.75.62-1.39,0-2a46.72,46.72,0,0,0-7.54-1.06c-1.7-1.32-3.68-.57-5.47-.79,1-.34,2.22-.5,3.35-.82a1.87,1.87,0,0,0,1.59-2.11c-.14-2.07,1.19-8.68-2.41-9.23a36.51,36.51,0,0,0-5.3-.93h-.14a1.94,1.94,0,0,0,.1-.24,4.14,4.14,0,0,0-2.94-.79c-4.58-.06-9.18-.56-13.71.56-.69.17-1.42.21-1.88.87.82,9.29,1.91,18.55,3.49,27.74,0,.16.08.32.1.48,1.13,6.77.89,6.37,8.24,8.56a20.93,20.93,0,0,0,7.66.84c1.43-.68,3-.43,4.49-.59,5.36-.59,10.55-2,15.83-3,1-.18,1.54-.2,2.11.79,1.78,3.07,4.88,4.66,7.71,6.53a2.71,2.71,0,0,0,1.44.18,41.38,41.38,0,0,0,10.91-1.39,4.34,4.34,0,0,1,2.76,0,7.22,7.22,0,0,0,4.83-.21c2.65-.87,5.26-1.88,8.12-2C113.87,247.23,114.31,246.12,113.73,244.67Z"/><path class="cls-8" d="M133.39,93.55A42.23,42.23,0,0,1,121.22,123a40.11,40.11,0,0,1-28.87,11.89A41.22,41.22,0,0,1,52,92.9,41.22,41.22,0,0,1,93,51.48a41.23,41.23,0,0,1,40.44,42Z"/><path class="cls-9" d="M92.82,136h-.49a1.14,1.14,0,0,1-1.12-1.16,1,1,0,0,1,1.15-1.13,40.78,40.78,0,0,0,28.82-11.57,1.15,1.15,0,0,1,1.62,0,1.14,1.14,0,0,1,0,1.61A43.08,43.08,0,0,1,92.82,136Z"/><path class="cls-10" d="M125.2,78.85l-3.63-2.13a4.17,4.17,0,1,1-.57,1.91Z"/><path class="cls-10" d="M102.74,84.74l-3.57-2.13a4.19,4.19,0,1,1-.57,1.91Z"/><path class="cls-10" d="M111,107.25A14.88,14.88,0,0,0,127.74,100c1-1.85-1.83-3.54-2.73-1.66a11.55,11.55,0,0,1-13,5.73,1.66,1.66,0,0,0-.87,3.19Z"/><path class="cls-11" d="M76.77,81.3a4.47,4.47,0,0,0-2.1-2.73,6.66,6.66,0,0,0-4.89,0,77,77,0,0,0-12,4.67c-4.07,2-8.65,3.27-8.76,8.19,4.17-1.81,3.74,0,6.16,2.94a6,6,0,0,0,4.92,2.4A3.71,3.71,0,0,0,63.56,93a5,5,0,0,0,5,5.08,5.26,5.26,0,0,0,.89-.06,5,5,0,0,0,3.34-6.27,5.66,5.66,0,0,0-.28-.72,3.19,3.19,0,0,0,4.17-1.55,9.09,9.09,0,0,0,.63-4.89A14.48,14.48,0,0,0,76.77,81.3Z"/><path class="cls-12" d="M126,64.28C113.17,51,100.78,39.72,73.25,51.56,53.08,60.24,50.41,75.9,49,91.48Z"/><path class="cls-13" d="M124.76,66.19c-18,6.6-47.5,15.14-47.5,15.14s24-50.83,51.51-46.17C153.63,39.39,139,61,124.76,66.19Z"/><ellipse class="cls-8" cx="56.75" cy="98.83" rx="8.57" ry="10.97" transform="translate(-27.17 21.73) rotate(-17.56)"/><polyline class="cls-8" points="117.92 94.26 126.27 88.18 112.87 75.76"/><path class="cls-10" d="M117.92,95.41a1.17,1.17,0,0,1-.93-.47,1.15,1.15,0,0,1,.25-1.6l7.23-5.27L112.09,76.6A1.14,1.14,0,0,1,112,75a1.12,1.12,0,0,1,1.61-.06l14.42,13.35-9.47,6.91A1.19,1.19,0,0,1,117.92,95.41Z"/><path class="cls-8" d="M60.21,109.84c-4.51,1.42-9.66-2.1-11.49-7.88s.35-11.63,4.85-13"/><path class="cls-10" d="M58.17,111.3c-4.42,0-8.84-3.6-10.54-9a13.81,13.81,0,0,1,.07-8.9,8.8,8.8,0,0,1,5.53-5.57A1.14,1.14,0,0,1,53.92,90a6.56,6.56,0,0,0-4.08,4.2,11.45,11.45,0,0,0,0,7.41c1.63,5.17,6.14,8.39,10,7.14a1.14,1.14,0,0,1,.69,2.18A7.83,7.83,0,0,1,58.17,111.3Z"/><path class="cls-11" d="M94.29,82a10.4,10.4,0,0,1,10-7.45,1.66,1.66,0,0,0,0-3.3,13.64,13.64,0,0,0-13.21,9.88,1.67,1.67,0,0,0,3.2.87Z"/><path class="cls-11" d="M118.19,71a11.9,11.9,0,0,1,3.93-1.39c2.07-.41,1.2-3.6-.88-3.19a14.52,14.52,0,0,0-4.72,1.74c-1.8,1.12-.13,4,1.67,2.73Z"/><path class="cls-9" d="M60.61,214.48a1,1,0,0,1-.34,0,1.26,1.26,0,0,1-.88-1.56c2.3-8.27,1.82-17.39,1.56-22.28-.15-3-.2-3.88.25-4.48a36,36,0,0,0-1.78-4c-.87-1.74.27-4,1.1-5.67.2-.41.48-1,.53-1.15a1.21,1.21,0,0,1,1.26-1.2,1.31,1.31,0,0,1,1.26,1.32,5.32,5.32,0,0,1-.78,2.16c-.42.84-1.4,2.8-1.1,3.41,2.07,4.13,2.45,5.45,1.88,6.38l-.19.3c0,.61,0,1.7.11,2.77.26,5,.75,14.43-1.66,23.1A1.26,1.26,0,0,1,60.61,214.48Zm2-26.43-.26,0A1.09,1.09,0,0,0,62.56,188.05Z"/></g></g></g></svg>