<svg xmlns="http://www.w3.org/2000/svg" xmlns:xlink="http://www.w3.org/1999/xlink" viewBox="0 0 280 270"><defs><style>.cls-1{fill:none;}.cls-2{fill:url(#Dégradé_sans_nom_366);}.cls-3{clip-path:url(#clip-path);}.cls-4{fill:#fff;}.cls-5{fill:#443936;}.cls-6{fill:#6d605c;}.cls-7{fill:#5b504d;}.cls-8{fill:#adadad;}.cls-9{fill:#3a2722;}.cls-10{fill:#b5542a;}.cls-11{fill:#eb5c40;}</style><linearGradient id="Dégradé_sans_nom_366" x1="142.79" y1="21.12" x2="142.79" y2="260.02" gradientUnits="userSpaceOnUse"><stop offset="0" stop-color="#eb7159" stop-opacity="0.3"/><stop offset="1" stop-color="#eb725c"/></linearGradient><clipPath id="clip-path"><path class="cls-1" d="M242.68,258.94H42.9a9.62,9.62,0,0,1-9.59-9.59V49.57C33.31,44.3,37.62,0,42.9,0H242.68c5.27,0,9.59,44.27,9.59,49.54V249.35A9.62,9.62,0,0,1,242.68,258.94Z"/></clipPath></defs><title>hp_offre</title><g id="Calque_2_-_copie_2" data-name="Calque 2 - copie 2"><rect class="cls-2" x="33.31" y="39.98" width="218.96" height="218.96" rx="12"/><g class="cls-3"><path class="cls-4" d="M93.32,35.81a35.16,35.16,0,1,1,56.45,37.53,20.88,20.88,0,0,0-7.48,15.49v4.52c0,10.81-6.17,19.48-13.45,19.25h-2.58c-7.28-.23-13.14-9.29-12.91-20.11V89.91a8.59,8.59,0,0,0-7-8.62,20.11,20.11,0,0,1-10.85-5.37c-5.16-5.16-5.16-12.47-4.64-19.59Z"/><path class="cls-5" d="M196.94,223l-3.26-.35,1.63.18-1.63-.16c0-.21.3-5.34-8.94-6.3-4.86-.5-8.61.34-11.14,2.52-2.23,1.92-3.51,5-3.7,8.8l-3.27-.16c.23-4.76,1.9-8.61,4.84-11.13,3.23-2.78,7.81-3.89,13.6-3.29,4.66.48,8,2,10.05,4.46A7.79,7.79,0,0,1,196.94,223Z"/><path class="cls-6" d="M226.14,220.54l-83.8,4.18-2,60.66s32.39,9.44,90.34-4.51Z"/><path class="cls-7" d="M213.46,253.91s-46.58,5.3-72.16,2.54l.11-3.27s22.78,3.85,72.08-2Z"/><polygon class="cls-8" points="182.58 251.1 182.75 257.4 161.47 257.55 161.32 252.18 182.58 251.1"/><path class="cls-7" d="M213.81,221.15l12.33-.61,4.55,60.33c-6.15,1.48-12,2.69-17.56,3.68Z"/><path class="cls-9" d="M125.36,43.22h-.13a1.66,1.66,0,0,1-1.55-1.79A3.1,3.1,0,0,0,117.5,41a3.68,3.68,0,0,0,0,.47,1.67,1.67,0,0,1-1.56,1.78,1.71,1.71,0,0,1-1.79-1.56,7.06,7.06,0,0,1,0-.92,6.46,6.46,0,1,1,12.88.93A1.69,1.69,0,0,1,125.36,43.22Z"/><path class="cls-9" d="M94.82,43.22h-.13a1.68,1.68,0,0,1-1.55-1.79,6.46,6.46,0,0,1,12.88,0,1.68,1.68,0,0,1-3.35.24,3.1,3.1,0,0,0-6.18,0A1.67,1.67,0,0,1,94.82,43.22Z"/><path class="cls-9" d="M109.14,66.78a9,9,0,0,1-6.42-2.66,1.68,1.68,0,0,1,2.37-2.37,5.74,5.74,0,0,0,8.11,0,1.67,1.67,0,1,1,2.36,2.37A9,9,0,0,1,109.14,66.78Z"/><path class="cls-9" d="M108.65,55a1.65,1.65,0,0,1-.43-.06l-7-1.86a1.67,1.67,0,0,1-1.12-1,1.7,1.7,0,0,1,.1-1.49l7.48-13a1.68,1.68,0,1,1,2.91,1.67l-6.39,11.06,4.9,1.3a1.68,1.68,0,0,1-.43,3.3Z"/><path class="cls-10" d="M102,20.81c.49,2.87,23.41,5.73,40.13,1.45l8.6-2.92s-9.09-9.55-26.77-8.13S102,20.81,102,20.81Z"/><path class="cls-10" d="M122.39,26.11c-9.52,0-17.9-1.32-20.67-3.11a2.91,2.91,0,0,1-1.41-1.9,1.68,1.68,0,0,1,.17-1.06c.2-.37,4.92-9,23.32-10.5s27.72,8.23,28.12,8.65a1.68,1.68,0,0,1-.68,2.74l-8.6,2.92A84.29,84.29,0,0,1,122.39,26.11Zm-18.18-5.55c4.32,1.86,22.64,3.88,37.48.07l5.63-1.91c-3.55-2.54-11.4-6.77-23.25-5.84C111.3,13.91,106,18.48,104.21,20.56Z"/><path class="cls-10" d="M152.35,20c-1.91,2.4-6.89,11.85-4.51,28.09s4.82-.5,6-4.24,6-8.77,8.29-1.88c3.74,11-1.86,17.11-4.72,19.51,0,0,8.87-9.78,2.86-27.23C155.48,20.32,152.35,20,152.35,20Z"/><path class="cls-10" d="M157.39,63.12a1.62,1.62,0,0,1-1.21-.52,1.68,1.68,0,0,1,0-2.29c.28-.3,5.74-6.6,4.3-18.08-.47-1.27-1-2-1.53-2h0c-1,0-2.8,2-3.47,4.13-.21.66-.45,1.74-.73,3-1.43,6.25-2.28,9.45-4.72,9.41-2-.08-2.89-2.12-3.81-8.4-2.26-15.51,2-25.76,4.87-29.37a1.67,1.67,0,0,1,1.5-.62c1.26.14,4.68,1.93,9.29,15.36a39.6,39.6,0,0,1,1.89,7.8c3.86,11.44-1.64,18.23-5.26,21.27A1.66,1.66,0,0,1,157.39,63.12Zm-6.52-9.46h0Zm1.88-31.29c-2.31,4-5.11,12.78-3.25,25.43.24,1.66.47,2.86.67,3.73.48-1.61,1-3.73,1.26-5s.57-2.5.79-3.21c.83-2.68,3.44-6.45,6.64-6.49a3.54,3.54,0,0,1,.46,0c-.19-.69-.41-1.38-.66-2.09C156,26.9,153.86,23.67,152.75,22.37Z"/><path class="cls-4" d="M155.53,44.07c.87-2.84,4.49-6.63,6.27-1.42a12.91,12.91,0,0,1-4.26,15.49"/><path class="cls-11" d="M83.3,267.24V121.53a22.93,22.93,0,0,1,23.44-22.38h37.82A22.91,22.91,0,0,1,168,121.53V268Z"/><rect class="cls-9" x="82.89" y="212.14" width="85.14" height="55.3"/><path class="cls-11" d="M86.6,221.71l-30.9-2.06c2.64-39.68,10.49-67.57,30-106.57l27.7,13.86C95.73,162.26,89,186.18,86.6,221.71Z"/><path class="cls-4" d="M196.17,208.82l-.18,2.63-22.9-1.12.18-2.62c-1-11.68,5.68-11.12,11.93-10.8h.23A11.41,11.41,0,0,1,196.17,208.82Z"/><path class="cls-4" d="M173,216.48l.31-6.21a2.67,2.67,0,0,1,2.79-2.54h0a2.68,2.68,0,0,1,2.53,2.8l-.31,6.21a2.67,2.67,0,0,1-2.79,2.54h0A2.67,2.67,0,0,1,173,216.48Z"/><path class="cls-4" d="M178.16,217.5l.31-6.17a2.65,2.65,0,0,1,2.77-2.52h0a2.66,2.66,0,0,1,2.52,2.78l-.31,6.18a2.65,2.65,0,0,1-2.78,2.51h0A2.64,2.64,0,0,1,178.16,217.5Z"/><path class="cls-4" d="M184.06,217.8l.31-6.17a2.65,2.65,0,0,1,2.77-2.52h0a2.65,2.65,0,0,1,2.51,2.79l-.31,6.17a2.65,2.65,0,0,1-2.77,2.52h0A2.65,2.65,0,0,1,184.06,217.8Z"/><path class="cls-4" d="M189.94,218.1l.31-6.17a2.64,2.64,0,0,1,2.78-2.52h0a2.65,2.65,0,0,1,2.51,2.78l-.31,6.17a2.65,2.65,0,0,1-2.78,2.52h0A2.65,2.65,0,0,1,189.94,218.1Z"/><polygon class="cls-9" points="151.19 117.98 133.44 116.65 133.63 114.08 148.2 115.17 146.61 103.59 149.17 103.24 151.19 117.98"/><path class="cls-9" d="M125.25,218.82h-2.58V123.31a5.86,5.86,0,0,0-5.86-5.85h0a5.84,5.84,0,0,0-2.6.61l-6.33,3.16-9.5-19.63,2.32-1.12,8.36,17.27,4-2a8.36,8.36,0,0,1,3.74-.88h0a8.43,8.43,0,0,1,8.44,8.43Z"/><polygon class="cls-4" points="113.81 98.2 126.36 117.33 141.31 99.39 113.81 98.2"/><path class="cls-11" d="M165.26,111.26s31,53.35,36.14,89.49l-39.57,13.76Z"/></g></g></svg>