<svg id="Contact" xmlns="http://www.w3.org/2000/svg" viewBox="0 0 132 132"><defs><style>.cls-1{fill:#9fc1b6;}.cls-2{fill:#fff;}</style></defs><title>contact</title><g id="restons_en_contact_" data-name="restons en contact !"><circle class="cls-1" cx="66" cy="66" r="65.13"/><path class="cls-2" d="M58.57,57,46.29,44.72,51,40a1.91,1.91,0,0,1,2.67,0l9.56,9.58a1.91,1.91,0,0,1,0,2.68l-4.05,4.05a3.91,3.91,0,0,0-.65.76ZM68.69,77c-2-1.74-4-3.57-5.82-5.43s-3.71-3.82-5.44-5.84a6.06,6.06,0,0,1-1-6L43.87,47.14c-2.94,3-2.57,10.49.65,17.07a47.21,47.21,0,0,0,5,7.85,71.49,71.49,0,0,0,6,6.87,68.9,68.9,0,0,0,6.84,6,47.11,47.11,0,0,0,7.85,5c6.57,3.22,14.06,3.58,17.07.64L74.7,78a6,6,0,0,1-6-1Zm25.82,3.73-9.57-9.58a1.93,1.93,0,0,0-2.68,0l-2.09,2.11-2,1.94a4.35,4.35,0,0,1-.77.65l12.29,12.3c1.58-1.6,3.17-3.17,4.76-4.76a1.85,1.85,0,0,0,0-2.66Zm0,0"/></g></svg>