<svg id="Contact" xmlns="http://www.w3.org/2000/svg" viewBox="0 0 132 132"><defs><style>.cls-1{fill:#9fc1b6;}.cls-2{fill:#fff;}</style></defs><title>contact</title><g id="restons_en_contact_" data-name="restons en contact !"><circle class="cls-1" cx="70.68" cy="66" r="65.13"/><path class="cls-2" d="M49.31,61q1,.72,6,4.21t7.73,5.39l1.26.9,1.59,1.12c.42.29.94.6,1.54,1a9.42,9.42,0,0,0,1.69.8,5,5,0,0,0,1.48.26h.06a5,5,0,0,0,1.48-.26,9.42,9.42,0,0,0,1.69-.8c.6-.36,1.12-.67,1.54-1L77,71.51l1.26-.9L92.09,61a14.12,14.12,0,0,0,3.6-3.63,7.83,7.83,0,0,0,1.44-4.46,4.76,4.76,0,0,0-4.72-4.72H49a4.22,4.22,0,0,0-3.5,1.54,6,6,0,0,0-1.22,3.83,6.89,6.89,0,0,0,1.62,4A14.27,14.27,0,0,0,49.31,61Zm0,0"/><path class="cls-2" d="M94.18,64.17q-9.68,6.56-14.7,10.19c-1.12.82-2,1.47-2.73,1.93A17,17,0,0,1,74,77.71a8.56,8.56,0,0,1-3.25.72h-.06a8.56,8.56,0,0,1-3.25-.72,17,17,0,0,1-2.79-1.42c-.69-.46-1.61-1.11-2.73-1.93q-4-2.92-14.67-10.19a15.41,15.41,0,0,1-3-2.57V85A4.73,4.73,0,0,0,49,89.77H92.41A4.73,4.73,0,0,0,97.13,85V61.6a16,16,0,0,1-2.95,2.57Zm0,0"/></g></svg>