<svg xmlns="http://www.w3.org/2000/svg" xmlns:xlink="http://www.w3.org/1999/xlink" viewBox="0 0 1919.37 495.93"><defs><style>.cls-1{fill:none;}.cls-2{isolation:isolate;}.cls-3{clip-path:url(#clip-path);}.cls-4{fill:#f5f8fd;}.cls-5{fill:#592568;}.cls-6{fill:#bedded;}.cls-7{fill:url(#linear-gradient);}.cls-8{fill:url(#linear-gradient-2);}.cls-9{fill:url(#linear-gradient-3);}.cls-10{fill:url(#linear-gradient-4);}.cls-11{fill:#c5e6ee;}.cls-12{fill:#7885b5;}.cls-13{fill:#46b594;}.cls-14{fill:#494949;opacity:0.2;mix-blend-mode:darken;}.cls-15{fill:#392d87;}.cls-16{fill:#2f9fa8;}.cls-17{fill:#fff;}.cls-18{fill:url(#linear-gradient-5);}.cls-19{opacity:0.73;fill:url(#linear-gradient-6);}.cls-20{fill:#312783;}.cls-21{fill:#1a1a1a;opacity:0.24;}.cls-22{fill:#eb5c40;}.cls-23{fill:#7a4c08;}.cls-24{fill:#e6e8e8;}.cls-25{fill:url(#linear-gradient-7);}.cls-26{fill:#d9dbdb;}.cls-27{fill:#ffb031;}.cls-28{fill:#ff9433;}.cls-29{fill:url(#linear-gradient-8);}.cls-30{fill:url(#linear-gradient-9);}.cls-31{fill:url(#linear-gradient-10);}.cls-32{fill:url(#linear-gradient-11);}.cls-33{fill:url(#linear-gradient-12);}.cls-34{fill:url(#linear-gradient-13);}.cls-35{fill:url(#linear-gradient-14);}.cls-36{fill:url(#linear-gradient-15);}</style><clipPath id="clip-path"><path class="cls-1" d="M1927.86,485.81s-391.36-80-577.12-80S890.57,495.93,693,495.93,444.62,366.61,277.34,366.61-1.5,405.78-1.5,405.78V0H1927.86Z"/></clipPath><linearGradient id="linear-gradient" x1="40.73" y1="341.61" x2="100.07" y2="341.61" gradientTransform="translate(140.81 683.23) rotate(-180)" gradientUnits="userSpaceOnUse"><stop offset="0" stop-color="#a3cce3"/><stop offset="1" stop-color="#a3cce3"/></linearGradient><linearGradient id="linear-gradient-2" x1="90.7" y1="283.06" x2="165.66" y2="283.06" gradientTransform="translate(256.36 566.11) rotate(-180)" xlink:href="#linear-gradient"/><linearGradient id="linear-gradient-3" x1="164.09" y1="228.68" x2="323.37" y2="228.68" gradientTransform="matrix(1, 0, 0, 1, 0, 0)" xlink:href="#linear-gradient"/><linearGradient id="linear-gradient-4" x1="307.75" y1="314.29" x2="407.37" y2="314.29" gradientTransform="translate(715.12 628.57) rotate(-180)" xlink:href="#linear-gradient"/><linearGradient id="linear-gradient-5" x1="1628.72" y1="327.73" x2="1912.38" y2="327.73" gradientTransform="translate(750.32 -1155.98) rotate(45)" xlink:href="#linear-gradient"/><linearGradient id="linear-gradient-6" x1="1853.54" y1="386.65" x2="1886.39" y2="386.65" gradientTransform="matrix(1, 0, 0, 1, 0, 0)" xlink:href="#linear-gradient"/><linearGradient id="linear-gradient-7" x1="1638.83" y1="248.29" x2="1689.43" y2="248.29" gradientTransform="matrix(1, 0, 0, 1, 0, 0)" xlink:href="#linear-gradient"/><linearGradient id="linear-gradient-8" x1="1547.87" y1="368.57" x2="1567.72" y2="368.57" gradientTransform="matrix(1, 0, 0, 1, 0, 0)" xlink:href="#linear-gradient"/><linearGradient id="linear-gradient-9" x1="1861.38" y1="193.25" x2="1876.58" y2="193.25" gradientTransform="matrix(1, 0, 0, 1, 0, 0)" xlink:href="#linear-gradient"/><linearGradient id="linear-gradient-10" x1="1691.52" y1="160.25" x2="1703.81" y2="160.25" gradientTransform="matrix(1, 0, 0, 1, 0, 0)" xlink:href="#linear-gradient"/><linearGradient id="linear-gradient-11" x1="1658.57" y1="134.37" x2="1676.53" y2="134.37" gradientTransform="matrix(1, 0, 0, 1, 0, 0)" xlink:href="#linear-gradient"/><linearGradient id="linear-gradient-12" x1="1574.52" y1="233.08" x2="1583.27" y2="233.08" gradientTransform="matrix(1, 0, 0, 1, 0, 0)" xlink:href="#linear-gradient"/><linearGradient id="linear-gradient-13" x1="1901.37" y1="197.53" x2="1909.93" y2="197.53" gradientTransform="matrix(1, 0, 0, 1, 0, 0)" xlink:href="#linear-gradient"/><linearGradient id="linear-gradient-14" x1="1532.8" y1="338.27" x2="1547.87" y2="338.27" gradientTransform="matrix(1, 0, 0, 1, 0, 0)" xlink:href="#linear-gradient"/><linearGradient id="linear-gradient-15" x1="1838.1" y1="150.12" x2="1850.87" y2="150.12" gradientTransform="matrix(1, 0, 0, 1, 0, 0)" xlink:href="#linear-gradient"/></defs><title>contact</title><g class="cls-2"><g id="Contact"><g id="titre"><g class="cls-3"><g id="illu_fond" data-name="illu fond"><rect class="cls-4" x="-0.63" width="1920" height="549.18"/><path class="cls-5" d="M132.76,331.9c.16-.37.34-.74.52-1.12l-.28.08Z"/><path class="cls-5" d="M133,330.86l.28-.08c.72-1.53,1.54-3.11,2.44-4.73a8,8,0,0,1-.95-2.83Z"/><path class="cls-5" d="M133.28,330.78c1.64-.47,3.28-.91,4.93-1.34a16.7,16.7,0,0,1-2.49-3.39C134.82,327.67,134,329.25,133.28,330.78Z"/><rect class="cls-6" x="198.51" y="145.93" width="165.52" height="285.76"/><rect class="cls-6" x="161.94" y="16.11" width="106.18" height="415.57"/><rect class="cls-6" x="83.87" y="103.77" width="89.01" height="327.92"/><rect class="cls-6" x="-8.8" y="154.34" width="103.85" height="277.35"/><rect class="cls-7" x="40.73" y="288.35" width="59.34" height="106.54" transform="translate(140.81 683.23) rotate(180)"/><rect class="cls-8" x="90.7" y="171.23" width="74.95" height="223.65" transform="translate(256.36 566.11) rotate(180)"/><polygon class="cls-9" points="323.37 394.88 164.09 394.88 164.09 113.45 243.58 62.48 323.37 113.45 323.37 394.88"/><rect class="cls-10" x="307.75" y="233.69" width="99.61" height="161.19" transform="translate(715.12 628.57) rotate(180)"/><rect class="cls-11" x="108.49" y="190.12" width="17.76" height="47.82"/><rect class="cls-11" x="152.9" y="190.12" width="17.76" height="47.82"/><rect class="cls-11" x="108.49" y="280.98" width="17.76" height="47.82"/><rect class="cls-11" x="152.9" y="280.98" width="17.76" height="47.82"/><rect class="cls-11" x="219.16" y="138.2" width="17.76" height="47.82"/><rect class="cls-11" x="263.57" y="138.2" width="17.76" height="47.82"/><rect class="cls-11" x="219.16" y="229.06" width="17.76" height="47.82"/><rect class="cls-11" x="263.57" y="229.06" width="17.76" height="47.82"/><path class="cls-12" d="M286.87,408.19H-200.36C-163.89,388.08-81.59,360,43.25,360S255,385.16,286.87,408.19Z"/><path class="cls-13" d="M138.85,93c61,61,68.7,129.52,62,163.24C193.66,291.94,152,317,109.06,314.58,71,312.46,28,293.13,31.61,231.17S67.36,114.4,88.8,93C109.2,72.56,119.78,73.89,138.85,93Z"/><path class="cls-14" d="M155,110.72c46.16,56.06,51.91,115,45.82,145.47C193.66,291.94,152,317,109.06,314.58,74,312.63,34.84,296.05,31.64,245.06,110.45,325.28,196.83,236.35,155,110.72Z"/><polygon class="cls-15" points="115.83 212.85 122.02 384.96 111.89 384.96 115.83 212.85"/><polygon class="cls-15" points="149.01 261.22 117.52 305.65 116.39 295.53 149.01 261.22"/><polygon class="cls-15" points="116.39 272.06 116.39 279.78 84.33 254.47 116.39 272.06"/><path class="cls-16" d="M45.31,233.94c37.44,37.44,42.2,79.56,38.06,100.27-4.39,22-30,37.32-56.36,35.86-23.38-1.3-49.76-13.17-47.57-51.23s22-71.72,35.13-84.9C27.1,221.42,33.6,222.23,45.31,233.94Z"/><path class="cls-14" d="M55.22,244.85c28.36,34.44,31.89,70.64,28.15,89.36-4.39,22-30,37.32-56.35,35.86-21.54-1.2-45.6-11.38-47.56-42.7C27.87,376.64,80.92,322,55.22,244.85Z"/><polygon class="cls-15" points="31.17 307.58 34.97 384.96 28.75 384.96 31.17 307.58"/><polygon class="cls-15" points="51.55 337.29 32.21 364.59 31.52 358.37 51.55 337.29"/><polygon class="cls-15" points="31.52 343.95 31.52 348.69 11.82 333.15 31.52 343.95"/><path class="cls-17" d="M316.45,154.53c-7.44,1.24-30.93-6.31-26.47-10.05-18.2-6.93-7.19-13.52,6.21-13.52,1.48-10,17.78-19.4,23.16-15.24,4.16,3.21,3.3-14.36,30.2-16.29,14.74-1.05,21.53.95,33.91,15.25,6-6.24,27.93-2.45,30,14.88,2.8-2.4,26.78.8,24.78,19.59-.39,3.73-35.07,16.49-48.27,16.29-11.9-.18-17.26-4-36.7-4.33C338.39,160.84,316.45,154.53,316.45,154.53Z"/><path class="cls-17" d="M148.44,46.47c4.69-2.35,9.39-4.7,12.92-2.94,0,0,5.87-6.46,14.68-.58,5.28-.59,8.22,5.28,8.22,5.28s1.76,1.17,7,1.76,14.1,2.94,10,7-8.76.27-10,2.93c-3.52,7.64-27.59,8.23-28.18,1.77,0,0-10.57,4.11-12.33.58s-1.76-8.22-5.29-7-8.22,3.52-7.63-.59S148.44,46.47,148.44,46.47Z"/><circle class="cls-18" cx="1770.55" cy="327.73" r="141.83" transform="translate(286.84 1347.96) rotate(-45)"/><path class="cls-19" d="M1886.39,361.83v47.68a143.33,143.33,0,0,1-17.6,20.47V361.83h0v-.17c-.08-.35-8.64-7.44-15.22-12.83v-3l8-2.06a15.12,15.12,0,0,1,9.78.76c1.38.6,2.81,1.16,4.25,1.63v6.22c6.58,5.39,10.75,8.91,10.83,9.26v.17Z"/><polygon class="cls-20" points="1441.76 98.84 1483.38 196.49 1513.8 175.68 1531.43 201.29 1534.61 158.08 1571.43 135.65 1441.76 98.84"/><polygon class="cls-12" points="1520.55 171.06 1483.38 196.49 1513.8 175.68 1531.43 201.29 1534.61 158.08 1475.95 123.15 1520.55 171.06"/><polygon class="cls-21" points="1533.83 168.68 1475.95 123.15 1534.61 158.08 1533.83 168.68"/><path class="cls-12" d="M1533.29,214c-.33-1.9-.75-3.8-1.24-5.64l2.85-.76c.52,1.93.95,3.91,1.3,5.9Z"/><path class="cls-12" d="M1498.82,280.29a24.38,24.38,0,0,1-11.86-4l1.63-2.47a21.56,21.56,0,0,0,10.43,3.48Zm12.28-2.4-1.31-2.66a29.57,29.57,0,0,0,8.84-7l2.2,2A32.77,32.77,0,0,1,1511.1,277.89Zm-32.36-11a24.38,24.38,0,0,1-2.55-10.73c0-.3,0-.6,0-.9l0-.64,3,.22,0,.53c0,.27,0,.53,0,.79a21.24,21.24,0,0,0,2.24,9.42Zm114.3-.67v-3c3.85,0,7.81-.17,11.77-.46l.21,2.94C1601,266.05,1597,266.21,1593,266.23Zm-12-.39-1.89-.15c-3.63-.3-6.92-.71-10.06-1.25l.51-2.91c3.05.53,6.25.92,9.8,1.22l1.85.14Zm35.86-1.34-.4-2.93c3.8-.52,7.72-1.17,11.64-1.92l.56,2.9C1624.74,263.31,1620.77,264,1616.92,264.5Zm-59.55-3a56.73,56.73,0,0,1-9.67-4.29q-.71-.39-1.38-.81l1.52-2.53,1.31.77a54.45,54.45,0,0,0,9.18,4.06Zm-29.48-1.18-2.56-1.47a66.69,66.69,0,0,0,4.87-10.53l2.78,1A69.55,69.55,0,0,1,1527.89,260.33ZM1640.4,260l-.7-2.87c3.7-.89,7.54-1.91,11.43-3l.81,2.84C1648,258.07,1644.13,259.1,1640.4,260Zm22.95-6.54-.91-2.81c3.76-1.21,7.5-2.49,11.21-3.81l1,2.79C1670.9,251,1667.14,252.24,1663.35,253.46Zm-126.9-3.89a82,82,0,0,0-8.79-5.79l-1-.52,1.35-2.63,1,.56a83.75,83.75,0,0,1,9.12,6Zm-53.12-4.44-2.07-2.12c2.61-2.54,6.16-4.45,10.88-5.83l1,2.79C1488.79,241.24,1485.55,243,1483.33,245.13Zm32.55-5.77a47.11,47.11,0,0,0-10.24-1.13h-1.2l-.07-3a49.72,49.72,0,0,1,12.15,1.19Zm20.22-1.74-2.91-.52a68.19,68.19,0,0,0,1-11.57l3,0A71.09,71.09,0,0,1,1536.1,237.62Z"/><path class="cls-12" d="M1686,245.46l-1-2.76c1.84-.7,3.67-1.42,5.51-2.13l1.07,2.75Z"/><path class="cls-22" d="M1830.18,303.05a1.43,1.43,0,0,1-.14-2.85,34,34,0,0,0,22.38-11.62,1.43,1.43,0,1,1,2.16,1.88A36.8,36.8,0,0,1,1830.32,303Z"/><path class="cls-23" d="M1801.46,327.74l-102.93,60.7-102.92-60.7a1,1,0,0,1,0-.17c.09-.38,5.77-5.13,14.43-12.16l.24-.21c28.42-23.07,88.24-70.33,88.24-70.33s59.83,47.26,88.25,70.33c8.8,7.14,14.58,12,14.66,12.37A.5.5,0,0,1,1801.46,327.74Z"/><path class="cls-17" d="M1740.86,194.61h-111a17.25,17.25,0,0,0-17.25,17.24V379.76A17.26,17.26,0,0,0,1629.81,397H1769a17.25,17.25,0,0,0,17.25-17.25V240Z"/><path class="cls-24" d="M1740.86,222.7A17.25,17.25,0,0,0,1758.11,240h28.1l-45.35-45.34Z"/><rect class="cls-25" x="1638.83" y="222.99" width="50.6" height="50.6" rx="2.7"/><path class="cls-26" d="M1735.77,287.65h-91.93a5,5,0,0,0-4.95,5h0a5,5,0,0,0,4.95,4.95h91.93a5,5,0,0,0,5-4.95h0A5,5,0,0,0,1735.77,287.65Z"/><path class="cls-26" d="M1735.77,312.31h-91.93a5,5,0,0,0-4.95,4.95h0a5,5,0,0,0,4.95,4.95h91.93a5,5,0,0,0,5-4.95h0A4.94,4.94,0,0,0,1735.77,312.31Z"/><path class="cls-26" d="M1694,336.23h-50.18a5,5,0,0,0-4.95,4.95h0a5,5,0,0,0,4.95,4.95H1694a5,5,0,0,0,5-4.95h0A5,5,0,0,0,1694,336.23Z"/><path class="cls-27" d="M1801.47,327.73v98.75A12.57,12.57,0,0,1,1788.93,439h-180.8a12.55,12.55,0,0,1-12.51-12.54V327.73l102.92,60.69Z"/><path class="cls-28" d="M1798,435.09l-66.25-66.24-33.2,19.57-33.21-19.58-66.25,66.25a12.42,12.42,0,0,0,9.05,3.93h180.8A12.47,12.47,0,0,0,1798,435.09Z"/><path class="cls-22" d="M1822.82,236.46A30,30,0,0,0,1796,264.05a29.69,29.69,0,0,0,5.24,19.16,7.27,7.27,0,0,1,.7,6.92l-2.37,5.69,9.66-2.5a7.35,7.35,0,0,1,4.74.36,29.92,29.92,0,1,0,8.84-57.22Z"/><path class="cls-17" d="M1826.59,281.34l1.64-1.64s-1.31-3.08,4.17-8.27c3.26-3.09,4-6.08,3.72-8.53a8.54,8.54,0,0,0-7.49-7.49c-2.45-.26-5.44.46-8.53,3.72-5.19,5.48-8.27,4.17-8.27,4.17l-1.64,1.65Z"/><path class="cls-17" d="M1813.9,271.3a4.53,4.53,0,0,0,6.33,6.33Z"/><path class="cls-17" d="M1837.27,257.41l-1,1a9.87,9.87,0,0,0-3.16-3.14l1-1a2.23,2.23,0,1,1,3.15,3.15Z"/><path class="cls-21" d="M1825,236.33a25.84,25.84,0,1,1-26.41,42.24,29.31,29.31,0,0,0,2.62,4.64,7.27,7.27,0,0,1,.7,6.92l-2.37,5.69,9.66-2.5a7.35,7.35,0,0,1,4.74.36A29.91,29.91,0,1,0,1825,236.33Z"/><path class="cls-29" d="M1557.8,358.65a9.93,9.93,0,1,0,9.92,9.92A9.92,9.92,0,0,0,1557.8,358.65Zm0,13.94a4,4,0,1,1,4-4A4,4,0,0,1,1557.8,372.59Z"/><path class="cls-30" d="M1869,185.65a7.6,7.6,0,1,0,7.6,7.6A7.6,7.6,0,0,0,1869,185.65Zm0,10.68a3.08,3.08,0,1,1,3.08-3.08A3.08,3.08,0,0,1,1869,196.33Z"/><path class="cls-31" d="M1697.67,154.1a6.15,6.15,0,1,0,6.14,6.15A6.15,6.15,0,0,0,1697.67,154.1Z"/><path class="cls-32" d="M1667.55,125.39a9,9,0,1,0,9,9A9,9,0,0,0,1667.55,125.39Z"/><circle class="cls-33" cx="1578.9" cy="233.08" r="4.37"/><path class="cls-34" d="M1905.65,193.25a4.28,4.28,0,1,0,4.28,4.28A4.28,4.28,0,0,0,1905.65,193.25Z"/><path class="cls-35" d="M1544.1,338.27l3-3a2.66,2.66,0,1,0-3.76-3.77l-3,3-3-3a2.67,2.67,0,0,0-3.77,3.77l3,3-3,3a2.67,2.67,0,0,0,3.77,3.77l3-3,3,3a2.66,2.66,0,1,0,3.76-3.77Z"/><path class="cls-36" d="M1847.68,150.12l2.53-2.53a2.26,2.26,0,0,0-3.19-3.2l-2.53,2.54-2.54-2.54a2.26,2.26,0,0,0-3.19,3.2l2.53,2.53-2.53,2.53a2.26,2.26,0,0,0,3.19,3.19l2.54-2.53,2.53,2.53a2.26,2.26,0,0,0,3.19-3.19Z"/></g></g></g></g></g></svg>