<svg xmlns="http://www.w3.org/2000/svg" viewBox="0 0 120 120"><defs><style>.cls-1{fill:#fff;}</style></defs><title>hp_icone</title><g id="Calque_2_-_copie_2" data-name="Calque 2 - copie 2"><path class="cls-1" d="M94.44,47.55a26.28,26.28,0,0,0-9.72,1.94l-4.13-8V28.72A1.82,1.82,0,0,0,79.38,27l-9.72-3.65a1.81,1.81,0,0,0-1.22,3.4l8.63,3.16V40.26H41.47V36.74h4.38a1.83,1.83,0,0,0,0-3.65H34.55a1.83,1.83,0,0,0,0,3.65h3.28v5l-3.52,7.65a23.47,23.47,0,0,0-8.75-1.7A24.54,24.54,0,1,0,50,74h7.89a1.72,1.72,0,0,0,1.46-.73L78.41,45.72l3,5.72A24,24,0,0,0,69.9,72.09,24.54,24.54,0,1,0,94.44,47.55ZM25.56,93a20.9,20.9,0,1,1,0-41.79,19.83,19.83,0,0,1,7.17,1.34L23.86,71.36v.12a1.1,1.1,0,0,0-.12.61v.12a1.13,1.13,0,0,0,.12.61v.12c0,.12,0,.12.12.24s.12.12.24.24v.12c.12.13.37.25.49.37h.12a1.1,1.1,0,0,0,.61.12H46.21A20.67,20.67,0,0,1,25.56,93Zm2.79-22.71L36,54.11A20.74,20.74,0,0,1,46.33,70.27Zm28.55,0h-7a24.69,24.69,0,0,0-12.4-19.56l3.29-6.93H75.12ZM94.32,93A20.87,20.87,0,0,1,83.14,54.47l9.6,18.47a1.9,1.9,0,0,0,1.58,1,2.27,2.27,0,0,0,.85-.24,1.82,1.82,0,0,0,.73-2.43L86.3,52.77a22.5,22.5,0,0,1,8-1.58,20.9,20.9,0,0,1,0,41.79Zm0,0"/></g></svg>