<svg xmlns="http://www.w3.org/2000/svg" xmlns:xlink="http://www.w3.org/1999/xlink" viewBox="0 0 1920 735"><defs><style>.cls-1{fill:none;}.cls-2{isolation:isolate;}.cls-3{clip-path:url(#clip-path);}.cls-4{fill:#edf6f9;}.cls-5{fill:#bedded;}.cls-6{fill:url(#linear-gradient);}.cls-7{fill:url(#linear-gradient-2);}.cls-8{fill:url(#linear-gradient-3);}.cls-9{fill:url(#linear-gradient-4);}.cls-10{fill:url(#linear-gradient-5);}.cls-11{fill:url(#linear-gradient-6);}.cls-12{fill:url(#linear-gradient-7);}.cls-13{fill:url(#linear-gradient-8);}.cls-14{fill:url(#linear-gradient-9);}.cls-15{fill:url(#linear-gradient-10);}.cls-16{fill:url(#linear-gradient-11);}.cls-17{fill:url(#linear-gradient-12);}.cls-18{fill:url(#linear-gradient-13);}.cls-19{fill:url(#linear-gradient-14);}.cls-20{fill:url(#linear-gradient-15);}.cls-21{fill:#c5e6ee;}.cls-22{fill:url(#linear-gradient-16);}.cls-23{fill:url(#linear-gradient-17);}.cls-24{fill:url(#linear-gradient-18);}.cls-25{fill:url(#linear-gradient-19);}.cls-26{fill:url(#linear-gradient-20);}.cls-27{fill:url(#linear-gradient-21);}.cls-28{fill:url(#linear-gradient-22);}.cls-29{fill:#54619e;}.cls-30{fill:#7885b5;}.cls-31{fill:#392d87;}.cls-32{fill:#46b594;}.cls-33{fill:#494949;opacity:0.2;mix-blend-mode:darken;}.cls-34{fill:#2f9fa8;}</style><clipPath id="clip-path"><rect class="cls-1" width="1920" height="735"/></clipPath><linearGradient id="linear-gradient" x1="551.67" y1="676.25" x2="659.41" y2="676.25" gradientTransform="translate(1211.08 1352.5) rotate(-180)" gradientUnits="userSpaceOnUse"><stop offset="0" stop-color="#a3cce3"/><stop offset="1" stop-color="#a3cce3"/></linearGradient><linearGradient id="linear-gradient-2" x1="659.41" y1="606.76" x2="760.91" y2="606.76" gradientTransform="translate(1420.32 1213.53) rotate(-180)" xlink:href="#linear-gradient"/><linearGradient id="linear-gradient-3" x1="749.98" y1="663.76" x2="803.07" y2="663.76" gradientTransform="translate(1553.05 1327.52) rotate(-180)" xlink:href="#linear-gradient"/><linearGradient id="linear-gradient-4" x1="790.58" y1="640.34" x2="849.92" y2="640.34" gradientTransform="translate(1640.5 1280.67) rotate(-180)" xlink:href="#linear-gradient"/><linearGradient id="linear-gradient-5" x1="840.55" y1="517.26" x2="962.35" y2="517.26" gradientTransform="matrix(1, 0, 0, 1, 0, 0)" xlink:href="#linear-gradient"/><linearGradient id="linear-gradient-6" x1="951.42" y1="612.23" x2="1081.02" y2="612.23" gradientTransform="translate(2032.44 1224.46) rotate(-180)" xlink:href="#linear-gradient"/><linearGradient id="linear-gradient-7" x1="441.42" y1="612.23" x2="571.02" y2="612.23" gradientTransform="translate(1012.44 1224.46) rotate(-180)" xlink:href="#linear-gradient"/><linearGradient id="linear-gradient-8" x1="1068.53" y1="701.24" x2="1127.87" y2="701.24" gradientTransform="translate(2196.4 1402.47) rotate(-180)" xlink:href="#linear-gradient"/><linearGradient id="linear-gradient-9" x1="1118.5" y1="642.68" x2="1193.45" y2="642.68" gradientTransform="translate(2311.95 1285.36) rotate(-180)" xlink:href="#linear-gradient"/><linearGradient id="linear-gradient-10" x1="1191.89" y1="588.31" x2="1351.16" y2="588.31" gradientTransform="matrix(1, 0, 0, 1, 0, 0)" xlink:href="#linear-gradient"/><linearGradient id="linear-gradient-11" x1="1335.55" y1="673.91" x2="1501.07" y2="673.91" gradientTransform="translate(2836.62 1347.82) rotate(-180)" xlink:href="#linear-gradient"/><linearGradient id="linear-gradient-12" x1="1485.45" y1="580.22" x2="1591.64" y2="580.22" gradientTransform="translate(3077.09 1160.44) rotate(-180)" xlink:href="#linear-gradient"/><linearGradient id="linear-gradient-13" x1="1580.71" y1="652.83" x2="1669.71" y2="652.83" gradientTransform="translate(3250.42 1305.66) rotate(-180)" xlink:href="#linear-gradient"/><linearGradient id="linear-gradient-14" x1="340.64" y1="655.73" x2="482.09" y2="655.73" gradientTransform="translate(822.73 1311.47) rotate(-180)" xlink:href="#linear-gradient"/><linearGradient id="linear-gradient-15" x1="247.54" y1="678.11" x2="351.38" y2="678.11" gradientTransform="translate(598.92 1356.23) rotate(-180)" xlink:href="#linear-gradient"/><linearGradient id="linear-gradient-16" x1="-32.47" y1="701.24" x2="26.87" y2="701.24" gradientTransform="translate(-5.6 1402.47) rotate(-180)" xlink:href="#linear-gradient"/><linearGradient id="linear-gradient-17" x1="17.5" y1="642.68" x2="92.45" y2="642.68" gradientTransform="translate(109.95 1285.36) rotate(-180)" xlink:href="#linear-gradient"/><linearGradient id="linear-gradient-18" x1="90.89" y1="588.31" x2="250.16" y2="588.31" gradientTransform="matrix(1, 0, 0, 1, 0, 0)" xlink:href="#linear-gradient"/><linearGradient id="linear-gradient-19" x1="1667.41" y1="606.76" x2="1768.91" y2="606.76" gradientTransform="translate(3436.32 1213.53) rotate(-180)" xlink:href="#linear-gradient"/><linearGradient id="linear-gradient-20" x1="1757.98" y1="663.76" x2="1811.07" y2="663.76" gradientTransform="translate(3569.05 1327.52) rotate(-180)" xlink:href="#linear-gradient"/><linearGradient id="linear-gradient-21" x1="1808.58" y1="640.34" x2="1867.92" y2="640.34" gradientTransform="translate(3676.5 1280.67) rotate(-180)" xlink:href="#linear-gradient"/><linearGradient id="linear-gradient-22" x1="1859.55" y1="517.26" x2="1981.35" y2="517.26" gradientTransform="matrix(1, 0, 0, 1, 0, 0)" xlink:href="#linear-gradient"/></defs><title>hp_illu_bg</title><g class="cls-2"><g id="Calque_2_-_copie_2" data-name="Calque 2 - copie 2"><g class="cls-3"><path class="cls-4" d="M384,576C384,257.88,641.88,0,960,0s576,257.88,576,576"/><rect class="cls-4" y="-147" width="1920" height="838"/><polygon class="cls-5" points="1343.72 735 1453.03 735 1453.03 294.16 1343.72 245.09 1343.72 735"/><rect class="cls-5" x="1257.84" y="471.51" width="107.74" height="263.49"/><rect class="cls-5" x="1156.34" y="332.53" width="101.5" height="402.47"/><rect class="cls-5" x="1186.18" y="219.69" width="41.81" height="420.05"/><rect class="cls-5" x="1203.07" y="75.06" width="8.04" height="420.05"/><rect class="cls-5" x="1114.18" y="446.52" width="53.09" height="288.48"/><rect class="cls-5" x="1067.33" y="399.68" width="59.34" height="335.32"/><polygon class="cls-5" points="954.9 735 1076.7 735 1076.7 153.53 954.9 218.54 954.9 735"/><rect class="cls-5" x="836.23" y="343.46" width="129.61" height="391.54"/><rect class="cls-5" x="789.38" y="521.48" width="59.34" height="213.52"/><rect class="cls-5" x="723.8" y="404.36" width="74.95" height="330.64"/><polygon class="cls-5" points="566.09 735 725.36 735 725.36 346.59 645.88 295.62 566.09 346.59 566.09 735"/><rect class="cls-5" x="200.38" y="521.48" width="59.34" height="213.52"/><rect class="cls-5" x="134.8" y="404.36" width="74.95" height="330.64"/><polygon class="cls-5" points="-22.91 735 136.36 735 136.36 346.59 56.88 295.62 -22.91 346.59 -22.91 735"/><rect class="cls-5" x="416.18" y="466.82" width="165.52" height="268.18"/><rect class="cls-5" x="1773.18" y="466.82" width="165.52" height="268.18"/><rect class="cls-5" x="325.61" y="279.44" width="106.18" height="455.56"/><rect class="cls-5" x="247.54" y="424.66" width="89.01" height="310.34"/><rect class="cls-5" x="1736.61" y="279.44" width="106.18" height="455.56"/><rect class="cls-5" x="1658.54" y="424.66" width="89.01" height="310.34"/><rect class="cls-5" x="1435.16" y="430.47" width="141.45" height="304.53"/><rect class="cls-5" x="1565.87" y="475.24" width="103.85" height="259.76"/><rect class="cls-6" x="551.67" y="617.5" width="107.74" height="117.5" transform="translate(1211.08 1352.5) rotate(180)"/><rect class="cls-7" x="659.41" y="478.53" width="101.5" height="256.47" transform="translate(1420.32 1213.53) rotate(180)"/><rect class="cls-8" x="749.98" y="592.52" width="53.09" height="142.48" transform="translate(1553.05 1327.52) rotate(180)"/><rect class="cls-9" x="790.58" y="545.67" width="59.34" height="189.33" transform="translate(1640.5 1280.67) rotate(180)"/><polygon class="cls-10" points="962.35 735 840.55 735 840.55 299.52 962.35 364.54 962.35 735"/><rect class="cls-11" x="951.42" y="489.46" width="129.61" height="245.54" transform="translate(2032.44 1224.46) rotate(180)"/><rect class="cls-12" x="441.42" y="489.46" width="129.61" height="245.54" transform="translate(1012.44 1224.46) rotate(180)"/><rect class="cls-13" x="1068.53" y="667.47" width="59.34" height="67.53" transform="translate(2196.4 1402.47) rotate(180)"/><rect class="cls-14" x="1118.5" y="550.36" width="74.95" height="184.64" transform="translate(2311.95 1285.36) rotate(180)"/><polygon class="cls-15" points="1351.16 735 1191.89 735 1191.89 492.58 1271.37 441.61 1351.16 492.58 1351.16 735"/><rect class="cls-16" x="1335.55" y="612.82" width="165.52" height="122.18" transform="translate(2836.62 1347.82) rotate(180)"/><rect class="cls-17" x="1485.45" y="425.44" width="106.18" height="309.56" transform="translate(3077.09 1160.44) rotate(180)"/><rect class="cls-18" x="1580.71" y="570.66" width="89.01" height="164.34" transform="translate(3250.42 1305.66) rotate(180)"/><rect class="cls-19" x="340.64" y="576.47" width="141.45" height="158.53" transform="translate(822.73 1311.47) rotate(180)"/><rect class="cls-20" x="247.54" y="621.23" width="103.85" height="113.77" transform="translate(598.92 1356.23) rotate(180)"/><rect class="cls-21" x="865.76" y="377.28" width="17.76" height="47.82"/><rect class="cls-21" x="910.16" y="377.28" width="17.76" height="47.82"/><rect class="cls-21" x="865.76" y="468.14" width="17.76" height="47.82"/><rect class="cls-21" x="910.16" y="468.14" width="17.76" height="47.82"/><rect class="cls-21" x="865.76" y="559" width="17.76" height="47.82"/><rect class="cls-21" x="910.16" y="559" width="17.76" height="47.82"/><rect class="cls-21" x="865.76" y="649.86" width="17.76" height="47.82"/><rect class="cls-21" x="910.16" y="649.86" width="17.76" height="47.82"/><rect class="cls-21" x="1136.29" y="569.25" width="17.76" height="47.82"/><rect class="cls-21" x="1180.69" y="569.25" width="17.76" height="47.82"/><rect class="cls-21" x="1136.29" y="660.1" width="17.76" height="47.82"/><rect class="cls-21" x="1180.69" y="660.1" width="17.76" height="47.82"/><rect class="cls-21" x="1246.96" y="517.33" width="17.76" height="47.82"/><rect class="cls-21" x="1291.36" y="517.33" width="17.76" height="47.82"/><rect class="cls-21" x="1246.96" y="608.18" width="17.76" height="47.82"/><rect class="cls-21" x="1291.36" y="608.18" width="17.76" height="47.82"/><rect class="cls-22" x="-32.47" y="667.47" width="59.34" height="67.53" transform="translate(-5.6 1402.47) rotate(180)"/><rect class="cls-23" x="17.5" y="550.36" width="74.95" height="184.64" transform="translate(109.95 1285.36) rotate(180)"/><polygon class="cls-24" points="250.16 735 90.89 735 90.89 492.58 170.37 441.61 250.16 492.58 250.16 735"/><rect class="cls-21" x="145.96" y="517.33" width="17.76" height="47.82"/><rect class="cls-21" x="190.36" y="517.33" width="17.76" height="47.82"/><rect class="cls-21" x="145.96" y="608.18" width="17.76" height="47.82"/><rect class="cls-21" x="190.36" y="608.18" width="17.76" height="47.82"/><rect class="cls-25" x="1667.41" y="478.53" width="101.5" height="256.47" transform="translate(3436.32 1213.53) rotate(180)"/><rect class="cls-26" x="1757.98" y="592.52" width="53.09" height="142.48" transform="translate(3569.05 1327.52) rotate(180)"/><rect class="cls-27" x="1808.58" y="545.67" width="59.34" height="189.33" transform="translate(3676.5 1280.67) rotate(180)"/><polygon class="cls-28" points="1981.35 735 1859.55 735 1859.55 299.52 1981.35 364.54 1981.35 735"/><rect class="cls-21" x="1690.68" y="499.56" width="17.76" height="47.82"/><rect class="cls-21" x="1735.08" y="499.56" width="17.76" height="47.82"/><rect class="cls-21" x="1690.68" y="590.42" width="17.76" height="47.82"/><rect class="cls-21" x="1735.08" y="590.42" width="17.76" height="47.82"/><path class="cls-29" d="M742.68,712H-24.8c57.45-30,187.09-71.73,383.74-71.73S692.41,677.7,742.68,712Z"/><path class="cls-29" d="M1819.05,712.23H1051.58c57.44-30,187.08-71.73,383.73-71.73S1768.79,677.93,1819.05,712.23Z"/><path class="cls-30" d="M1377.27,712.23H890c36.47-19,118.77-45.53,243.61-45.53S1345.36,690.46,1377.27,712.23Z"/><rect class="cls-31" x="1386.36" y="491.58" width="181.64" height="223.76"/><rect class="cls-31" x="1413.12" y="481.93" width="128.11" height="9.65"/><rect class="cls-5" x="1406.03" y="510.89" width="66.98" height="42.12"/><rect class="cls-5" x="1406.03" y="563.54" width="66.98" height="42.12"/><rect class="cls-5" x="1406.03" y="616.2" width="66.98" height="42.12"/><rect class="cls-5" x="1481.79" y="510.89" width="66.98" height="42.12"/><rect class="cls-5" x="1481.79" y="563.54" width="66.98" height="42.12"/><rect class="cls-5" x="1481.79" y="616.2" width="66.98" height="42.12"/><rect class="cls-31" x="174.36" y="491.58" width="181.64" height="223.76"/><rect class="cls-31" x="201.12" y="481.93" width="128.11" height="9.65"/><rect class="cls-5" x="194.03" y="510.89" width="66.98" height="42.12"/><rect class="cls-5" x="194.03" y="563.54" width="66.98" height="42.12"/><rect class="cls-5" x="194.03" y="616.2" width="66.98" height="42.12"/><rect class="cls-5" x="269.79" y="510.89" width="66.98" height="42.12"/><rect class="cls-5" x="269.79" y="563.54" width="66.98" height="42.12"/><rect class="cls-5" x="269.79" y="616.2" width="66.98" height="42.12"/><path class="cls-32" d="M133.91,319.1c-33.27,88.74-37.5,188.56-33.82,237.66,3.9,52,26.67,88.47,50.09,85,20.78-3.08,44.23-31.23,42.28-121.43s-19.52-170-31.22-201.23C150.1,289.41,144.32,291.35,133.91,319.1Z"/><path class="cls-33" d="M125.1,345c-25.2,81.62-28.34,167.43-25,211.8,3.9,52,26.67,88.47,50.09,85,19.14-2.84,40.52-27,42.26-101.21C149.42,657.34,102.26,527.87,125.1,345Z"/><polygon class="cls-31" points="147.06 540.1 140.88 712.21 151 712.21 147.06 540.1"/><polygon class="cls-31" points="129.25 607.97 145.38 632.9 146.5 622.78 129.25 607.97"/><polygon class="cls-31" points="146.5 599.31 146.5 607.03 164.79 583.63 146.5 599.31"/><path class="cls-32" d="M1819.77,319.1c-33.28,88.74-37.51,188.56-33.83,237.66,3.91,52,26.68,88.47,50.09,85,20.79-3.08,44.24-31.23,42.29-121.43s-19.52-170-31.23-201.23C1836,289.41,1830.18,291.35,1819.77,319.1Z"/><path class="cls-33" d="M1811,345c-25.2,81.62-28.34,167.43-25,211.8,3.91,52,26.67,88.47,50.09,85,19.14-2.84,40.53-27,42.27-101.21C1835.28,657.34,1788.12,527.87,1811,345Z"/><polygon class="cls-31" points="1832.92 540.1 1826.73 712.21 1836.86 712.21 1832.92 540.1"/><polygon class="cls-31" points="1815.1 607.97 1831.23 632.9 1832.36 622.78 1815.1 607.97"/><polygon class="cls-31" points="1832.36 599.31 1832.36 607.03 1850.64 583.63 1832.36 599.31"/><path class="cls-32" d="M771.4,540.52c-14.58,38.86-16.43,82.59-14.82,104.09,1.71,22.79,11.68,38.75,21.94,37.23,9.1-1.35,19.38-13.68,18.52-53.19s-8.55-74.46-13.68-88.13C778.49,527.51,776,528.36,771.4,540.52Z"/><path class="cls-33" d="M767.54,551.84c-11,35.75-12.42,73.33-11,92.77,1.71,22.79,11.68,38.75,21.94,37.23C786.9,680.6,796.27,670,797,637.51,778.19,688.66,757.53,632,767.54,551.84Z"/><polygon class="cls-31" points="777.16 637.31 774.45 712.7 778.88 712.7 777.16 637.31"/><polygon class="cls-31" points="769.35 667.04 776.42 677.96 776.91 673.53 769.35 667.04"/><polygon class="cls-31" points="776.91 663.25 776.91 666.63 784.92 656.38 776.91 663.25"/><path class="cls-32" d="M1242.24,420.21c-61,61-68.7,129.51-62,163.24,7.15,35.74,48.86,60.76,91.75,58.38,38.07-2.11,81-21.45,77.45-83.41s-35.75-116.77-57.19-138.21C1271.89,399.81,1261.31,401.14,1242.24,420.21Z"/><path class="cls-33" d="M1226.1,438c-46.16,56.06-51.91,115-45.82,145.48,7.15,35.74,48.85,60.76,91.75,58.38,35.06-2,74.23-18.52,77.42-69.52C1270.64,652.53,1184.26,563.6,1226.1,438Z"/><polygon class="cls-31" points="1265.26 540.1 1259.08 712.21 1269.2 712.21 1265.26 540.1"/><polygon class="cls-31" points="1232.08 588.47 1263.58 632.9 1264.7 622.78 1232.08 588.47"/><polygon class="cls-31" points="1264.7 599.31 1264.7 607.03 1296.76 581.72 1264.7 599.31"/><path class="cls-34" d="M75,561.19c-37.44,37.44-42.2,79.56-38.05,100.27,4.39,22,30,37.32,56.35,35.86,23.38-1.3,49.77-13.17,47.57-51.23s-21.95-71.72-35.13-84.9C93.16,548.67,86.66,549.48,75,561.19Z"/><path class="cls-33" d="M65,572.11c-28.35,34.43-31.89,70.63-28.14,89.35,4.39,22,30,37.32,56.35,35.86,21.53-1.2,45.59-11.38,47.55-42.7C92.4,703.89,39.34,649.27,65,572.11Z"/><polygon class="cls-31" points="89.09 634.84 85.29 712.21 91.51 712.21 89.09 634.84"/><polygon class="cls-31" points="68.71 664.54 88.06 691.84 88.75 685.62 68.71 664.54"/><polygon class="cls-31" points="88.75 671.21 88.75 675.95 108.44 660.4 88.75 671.21"/><path class="cls-34" d="M1335.78,561.19c-37.44,37.44-42.2,79.56-38.06,100.27,4.39,22,30,37.32,56.36,35.86,23.38-1.3,49.76-13.17,47.57-51.23s-22-71.72-35.13-84.9C1354,548.67,1347.49,549.48,1335.78,561.19Z"/><path class="cls-33" d="M1325.87,572.11c-28.36,34.43-31.89,70.63-28.15,89.35,4.39,22,30,37.32,56.36,35.86,21.53-1.2,45.59-11.38,47.55-42.7C1353.22,703.89,1300.17,649.27,1325.87,572.11Z"/><polygon class="cls-31" points="1349.92 634.84 1346.12 712.21 1352.34 712.21 1349.92 634.84"/><polygon class="cls-31" points="1329.54 664.54 1348.88 691.84 1349.57 685.62 1329.54 664.54"/><polygon class="cls-31" points="1349.57 671.21 1349.57 675.95 1369.27 660.4 1349.57 671.21"/><path class="cls-30" d="M1926.81,735.81H-7.58A11.85,11.85,0,0,1-19.43,724h0A11.85,11.85,0,0,1-7.58,712.12H1926.81A11.84,11.84,0,0,1,1938.65,724h0A11.84,11.84,0,0,1,1926.81,735.81Z"/></g></g></g></svg>