<svg xmlns="http://www.w3.org/2000/svg" viewBox="0 0 130 130"><defs><style>.cls-1{fill:#46b594;}.cls-2{fill:#fbbc43;}.cls-3{fill:#a4d7d8;}</style></defs><title>hp_icones</title><g id="Calque_2_-_copie_2" data-name="Calque 2 - copie 2"><path class="cls-1" d="M95.89,69.25C95,64.11,91,66.44,89.81,71.16c-1.33,5.3-2.07,13.19-4.74,16.57s-6.74,6.17-6.67,4.83,5.55-8,6.75-10.08-2-3.89-3.59-2S68.72,92.8,67.93,97.41c-.92,5.34-.76,13.81-.58,18.32h12a35.7,35.7,0,0,1,2-9.36c2-5.59,6.8-5.07,11-12.86C96,87,96.32,71.63,95.89,69.25Z"/><path class="cls-1" d="M32.63,69.25c.92-5.14,4.9-2.81,6.09,1.91,1.33,5.3,2.07,13.19,4.74,16.57s6.74,6.17,6.67,4.83-5.55-8-6.75-10.08,2-3.89,3.58-2S59.8,92.8,60.6,97.41c.92,5.34.75,13.81.58,18.32h-12a36.54,36.54,0,0,0-2-9.36c-2-5.59-6.8-5.07-11-12.86C32.55,87,32.21,71.63,32.63,69.25Z"/><path class="cls-2" d="M87.11,42.24c-3.64-6-10.87-2.54-14.71,1.09a40.36,40.36,0,0,0-4.62,5.19A35.21,35.21,0,0,0,64.9,52.3C63.09,46.53,59.83,39.8,55,36.38c-5.65-4-10.13,1.4-10.39,6.92-.39,8.06,3.89,17.05,7.44,24C54.85,72.81,58,78.85,65,78c8-.93,15.11-8.7,19.43-14.92S91.35,49.19,87.11,42.24Zm-23.92,13c-.36.7-.69,1.42-1,2.14a25.42,25.42,0,0,0-1.73-6.78c.92,1.57,1.81,3.14,2.71,4.62ZM50.33,48.36c-.85-3.43-1.23-9.25,2-7.74a2.46,2.46,0,0,0-1.84,2.15,28.32,28.32,0,0,0,1.22,10.34C51.17,51.54,50.72,50,50.33,48.36Zm33.43,2.31c-.27,3-1.86,5.9-3.39,8.48a33.52,33.52,0,0,1-11.84,12,12.3,12.3,0,0,0,1.22-1.67c6.72-5.11,11.44-13.26,13.88-21.24A11,11,0,0,1,83.76,50.67Z"/><path class="cls-3" d="M65.57,52.25a.89.89,0,0,1-.46-.19,1.17,1.17,0,0,1-.24-.33l0-.07-.07-.14-.15-.28-.29-.55-.6-1.09c-.4-.73-.83-1.45-1.26-2.16a46.11,46.11,0,0,0-2.75-4.12c-1.92-2.62-4.22-5.1-6.9-6.35a6.28,6.28,0,0,0-4.11-.51,9.91,9.91,0,0,0-1,.31c-.32.17-.66.32-1,.5s-.65.41-.93.64a7.36,7.36,0,0,0-.76.72,8.4,8.4,0,0,0-1.73,4.09,17.23,17.23,0,0,0,0,4.81,19.4,19.4,0,0,0,1.18,4.76c.55,1.55,1.28,3,2,4.52s1.38,3,2.09,4.44,1.37,3,2.11,4.44a36.68,36.68,0,0,0,5.66,7.92,20.72,20.72,0,0,0,3.56,3.09,10,10,0,0,0,4,1.71,7.86,7.86,0,0,0,4.3-.76,16.3,16.3,0,0,0,4-2.62,17.79,17.79,0,0,0,1.68-1.79c.54-.62,1-1.28,1.52-1.94,1-1.32,2-2.57,3-3.88a53.19,53.19,0,0,0,5.47-8.2,36.83,36.83,0,0,0,3.66-9.1A17,17,0,0,0,88,45.39a7.89,7.89,0,0,0-1.29-4.07l-.62-.73c-.26-.19-.49-.37-.73-.58a10.06,10.06,0,0,0-1.78-1,6.37,6.37,0,0,0-1.86-.43,6.29,6.29,0,0,0-2,.22,11.76,11.76,0,0,0-3.92,2A27.23,27.23,0,0,0,72.34,44c-1.12,1.18-2.17,2.45-3.19,3.76-.52.65-1,1.32-1.49,2l-.71,1-.35.51-.17.26-.09.13,0,.06a.88.88,0,0,1-.24.29A.83.83,0,0,1,65.57,52.25Zm.06-1.49a.62.62,0,0,0-.46.11c-.14.08-.24.29-.21.22L65,51l.06-.15.13-.3.27-.59c.18-.4.38-.78.57-1.16.4-.77.81-1.53,1.25-2.28a38.75,38.75,0,0,1,2.92-4.34,26.51,26.51,0,0,1,3.7-3.88,14.2,14.2,0,0,1,4.93-2.84,9.92,9.92,0,0,1,3-.45,8.21,8.21,0,0,1,1.57.18c.26,0,.53.1.78.17l.73.27a10.53,10.53,0,0,1,1.39.68c.43.26.81.58,1.22.87a13.53,13.53,0,0,1,1.12,1.15c.3.44.6.88.86,1.33a11.64,11.64,0,0,1,1.08,5.68A30,30,0,0,1,90,50.68c-.41,1.72-.92,3.39-1.49,5s-1.25,3.25-2,4.81a59.21,59.21,0,0,1-5.27,9,24.85,24.85,0,0,1-3.47,3.92c-1.32,1.18-2.76,2.2-4.14,3.27a33.21,33.21,0,0,1-4.45,2.93,10.91,10.91,0,0,1-5.47,1.45,11.42,11.42,0,0,1-5.42-1.84A23.74,23.74,0,0,1,54,75.82a53.56,53.56,0,0,1-6.46-8.31A32.7,32.7,0,0,1,43,58.1a65.27,65.27,0,0,1-1.76-10.35,23.11,23.11,0,0,1,0-5.32,10.7,10.7,0,0,1,2-5.2,10.36,10.36,0,0,1,1-1.08c.37-.31.75-.56,1.13-.85s.83-.48,1.25-.71a10.79,10.79,0,0,1,1.38-.5,8.33,8.33,0,0,1,5.78.52,14.45,14.45,0,0,1,4.43,3.25A30,30,0,0,1,61.63,42a49.44,49.44,0,0,1,2.6,4.5c.4.76.75,1.55,1.1,2.34l.5,1.19.23.6.11.31.06.15,0,.08a.8.8,0,0,0-.21-.26A.66.66,0,0,0,65.63,50.76Z"/><path class="cls-1" d="M108,30.64c2.15-1.26,4.81-3,5.94-5.3a2.55,2.55,0,0,0-.48-3c-2.34-2.39-5.35,2.39-7,3.72s-5.89,3.63-6,6.22a1.1,1.1,0,0,0,.85,1.06C103.5,33.86,106.29,31.66,108,30.64Z"/><path class="cls-1" d="M94,28.38c1.32-1.74,2.49-3.65,3.75-5.45a32,32,0,0,1,2.43-3c.77-.85,1.77-1.6,2-2.8s-.71-3-2.26-2.8c-2.81.34-4.45,3.91-5.68,6.15-1.13,2-2.52,5.25-1.67,7.6A.86.86,0,0,0,94,28.38Z"/><path class="cls-1" d="M40.22,27.48c-1.44-3-3.63-5.95-3.79-9.38-.12-2.55-3.93-3.27-4.55-.61-1,4.23,3.68,10,7.52,11.06A.74.74,0,0,0,40.22,27.48Z"/></g></svg>