<svg xmlns="http://www.w3.org/2000/svg" xmlns:xlink="http://www.w3.org/1999/xlink" viewBox="0 0 1929.37 495.93"><defs><style>.cls-1{fill:none;}.cls-2{clip-path:url(#clip-path);}.cls-3{fill:#eaf4f3;}.cls-4{fill:#2f9fa8;}.cls-5{fill:#c7eae7;}.cls-21,.cls-6{fill:#a9df90;}.cls-7{fill:#216868;}.cls-8{fill:#46b594;}.cls-20,.cls-9{fill:#fff;}.cls-10{fill:#2f2f30;}.cls-11{fill:#b2b2b2;}.cls-12{fill:#2b2b2a;}.cls-13{fill:#1d1d1b;}.cls-14{fill:#9d9d9c;}.cls-15{fill:#392d87;}.cls-16{fill:#312783;}.cls-17{fill:#706f6f;}.cls-18{fill:#288481;}.cls-19{opacity:0.15;}.cls-20,.cls-21,.cls-22{fill-rule:evenodd;}.cls-22{fill:#e8e7e1;}.cls-23{fill:#dec4c4;}.cls-24{fill:#683c11;}</style><clipPath id="clip-path"><path class="cls-1" d="M1928.81,485.81s-391.36-80-577.12-80S891.52,495.93,694,495.93,445.57,366.61,278.29,366.61-.55,405.78-.55,405.78V0H1928.81Z"/></clipPath></defs><title>nos_offres</title><g id="Nos_offres_3" data-name="Nos offres 3"><g id="title-2" data-name="title"><g class="cls-2"><rect class="cls-3" x="0.45" width="1920" height="545.89"/><g id="illustrations"><rect class="cls-4" x="1925.54" y="172.94" width="36.9" height="141.99"/><polygon class="cls-4" points="1855.63 314.93 1931.37 314.93 1931.37 19.87 1855.63 60.3 1855.63 314.93"/><rect class="cls-4" x="1781.83" y="137.99" width="80.6" height="176.95"/><rect class="cls-5" x="1904.64" y="68.23" width="11.05" height="29.74" transform="translate(3820.33 166.19) rotate(-180)"/><rect class="cls-5" x="1877.03" y="68.23" width="11.05" height="29.74" transform="translate(3765.11 166.19) rotate(-180)"/><rect class="cls-5" x="1904.64" y="124.73" width="11.05" height="29.74" transform="translate(3820.33 279.19) rotate(-180)"/><rect class="cls-5" x="1877.03" y="124.73" width="11.05" height="29.74" transform="translate(3765.11 279.19) rotate(-180)"/><rect class="cls-5" x="1904.64" y="181.23" width="11.05" height="29.74" transform="translate(3820.33 392.19) rotate(-180)"/><rect class="cls-5" x="1877.03" y="181.23" width="11.05" height="29.74" transform="translate(3765.11 392.19) rotate(-180)"/><rect class="cls-5" x="1904.64" y="237.73" width="11.05" height="29.74" transform="translate(3820.33 505.19) rotate(-180)"/><rect class="cls-5" x="1877.03" y="237.73" width="11.05" height="29.74" transform="translate(3765.11 505.19) rotate(-180)"/><rect class="cls-5" x="1830.73" y="159.56" width="11.05" height="29.74" transform="translate(3672.5 348.86) rotate(-180)"/><rect class="cls-5" x="1803.11" y="159.56" width="11.05" height="29.74" transform="translate(3617.27 348.86) rotate(-180)"/><rect class="cls-5" x="1830.73" y="216.06" width="11.05" height="29.74" transform="translate(3672.5 461.86) rotate(-180)"/><rect class="cls-5" x="1803.11" y="216.06" width="11.05" height="29.74" transform="translate(3617.27 461.86) rotate(-180)"/><rect class="cls-4" x="140.98" y="239.24" width="50.99" height="91.56"/><rect class="cls-4" x="84.62" y="138.59" width="64.41" height="192.2"/><polygon class="cls-4" points="-50.92 330.79 85.96 330.79 85.96 88.94 17.65 45.13 -50.92 88.94 -50.92 330.79"/><rect class="cls-5" x="118.48" y="154.82" width="15.26" height="41.1" transform="translate(252.23 350.74) rotate(-180)"/><rect class="cls-5" x="80.32" y="154.82" width="15.26" height="41.1" transform="translate(175.9 350.74) rotate(-180)"/><rect class="cls-5" x="118.48" y="232.9" width="15.26" height="41.1" transform="translate(252.23 506.91) rotate(-180)"/><rect class="cls-5" x="80.32" y="232.9" width="15.26" height="41.1" transform="translate(175.9 506.91) rotate(-180)"/><rect class="cls-5" x="23.37" y="110.2" width="15.26" height="41.1" transform="translate(62.01 261.5) rotate(-180)"/><rect class="cls-5" x="-14.79" y="110.2" width="15.26" height="41.1" transform="translate(-14.31 261.5) rotate(-180)"/><rect class="cls-5" x="23.37" y="188.29" width="15.26" height="41.1" transform="translate(62.01 417.67) rotate(-180)"/><rect class="cls-5" x="-14.79" y="188.29" width="15.26" height="41.1" transform="translate(-14.31 417.67) rotate(-180)"/><path class="cls-6" d="M1833,259s1.25-6.43-2.42-7.66-5.68,7.66-5.68,7.66,1.09-10.38-2.93-12.19-5.41,15-5.41,15-1.14-7.32-4-8-2.44,16-2.44,16l10.65,8.17,12.47-13.53Z"/><path class="cls-7" d="M1837,295.75a30,30,0,0,0-38.38-28.88A50.11,50.11,0,0,0,1715.06,299a40.6,40.6,0,0,0-46,15.17,47.47,47.47,0,1,0,25.89,63.32,41.09,41.09,0,0,0,7.32.67,40.61,40.61,0,0,0,39.18-29.93,50.14,50.14,0,0,0,68.74-22.62A30.06,30.06,0,0,0,1837,295.75Z"/><path class="cls-8" d="M1928.81,214.75s-53.12,18-90.33,40.73-112.89,98.64-265.14,98.64c-166.93,0-117.31,141.81-53.36,141.81h408.83Z"/><path class="cls-9" d="M1844.11,252.14h0s31.12,8,33.53,29.86-31.73,38.6-54,47c-55.3,20.83-101.18,66-97.27,129.52l100.44,13.76s-39.73-67.73-12.11-91.7c23.18-20.1,86.1-25.63,114.15-53.29V214.75S1880.82,231,1844.11,252.14Z"/><path class="cls-7" d="M1836.34,282.66a15.8,15.8,0,0,1,11.39,4.84,11.09,11.09,0,0,1,17.52,9.05,11.5,11.5,0,0,1-.18,1.95H1820.5A15.84,15.84,0,0,1,1836.34,282.66Z"/><path class="cls-7" d="M1833.32,295.74a11,11,0,0,0-4.33.88,15.83,15.83,0,0,0-29.33,8.27h44.58A11.1,11.1,0,0,0,1833.32,295.74Z"/><ellipse class="cls-7" cx="1769.91" cy="331.71" rx="6.38" ry="1.3"/><ellipse class="cls-7" cx="1758.87" cy="338.15" rx="6.38" ry="1.3"/><ellipse class="cls-7" cx="1876.64" cy="366.34" rx="6.38" ry="1.3"/><path class="cls-7" d="M1916.64,359c0,.71-2.85,1.29-6.38,1.29s-6.38-.58-6.38-1.29,2.85-1.3,6.38-1.3S1916.64,358.24,1916.64,359Z"/><ellipse class="cls-7" cx="1919.45" cy="352.83" rx="6.38" ry="1.3"/><path class="cls-10" d="M1554.74,405.88a1.59,1.59,0,0,0,.43-3.12l-12.26-3.49a1.59,1.59,0,0,0-.87,3.06l12.26,3.49A1.67,1.67,0,0,0,1554.74,405.88Z"/><polygon class="cls-11" points="1566.31 373.46 1590.12 299.3 1593.79 300.57 1569.97 374.73 1566.31 373.46"/><path class="cls-12" d="M1488.07,402.21a5.52,5.52,0,0,1,2.29,0c1.15.29,1.66,1.34,2,3.63.19.62-.6,1.49-1.53,1.82a34.63,34.63,0,0,1-14.91,1.72,48.18,48.18,0,0,1-14.56-4,41.48,41.48,0,0,1-21.93-22.77,43.14,43.14,0,0,1,26.91-56.86,42.14,42.14,0,0,1,32.91,3A43.26,43.26,0,0,1,1520,354a37.85,37.85,0,0,1,1.45,14.43,51.86,51.86,0,0,1-3.3,14,46.17,46.17,0,0,1-7.79,13.76,26.15,26.15,0,0,1-13.24,8.6c-.86,1.49-4.28,2.4-4.78.68v-.22a.81.81,0,0,1,0-.22l-.35-1.41c-.17-.72.57-1.7,1.38-2.15a51.45,51.45,0,0,0,10.09-7.17,38.33,38.33,0,0,0,7.48-9.6,39.61,39.61,0,0,0,4.59-15,40.33,40.33,0,0,0-1.72-15.59,34.81,34.81,0,0,0-21.35-22.36,36.6,36.6,0,0,0-31.28,2.81,37.16,37.16,0,0,0-18,26.36,36.31,36.31,0,0,0,9.28,30.33A37.86,37.86,0,0,0,1484.25,403C1485.82,402.62,1487.09,402.52,1488.07,402.21Zm-45.83-50.33a37.06,37.06,0,0,0-2.71,15.92,40.37,40.37,0,0,1,2.71-15.87Z"/><path class="cls-11" d="M1525.56,367.53a46.83,46.83,0,0,0-46.74-46.82h-.18c-.73,0-7.21.17-10.36,1.74l1.34,2.69c2.16-1.07,7.28-1.39,9.07-1.42a43.85,43.85,0,0,1,43.86,43.81Z"/><path class="cls-11" d="M1677.49,359.85l3-.54A46.82,46.82,0,0,0,1626,321.72l.44,3A43.82,43.82,0,0,1,1677.49,359.85Z"/><path class="cls-11" d="M1590.2,366.29a43.39,43.39,0,0,1,38.12-42l-.35-3a46.42,46.42,0,0,0-40.78,44.91Z"/><path class="cls-12" d="M1602.81,345.31a5.53,5.53,0,0,1-1.72,1.58c-1.06.53-2.2.09-3.92-1.37a2.11,2.11,0,0,1,0-2.38,34.75,34.75,0,0,1,10-11.16,48.38,48.38,0,0,1,13.55-6.69,41.58,41.58,0,0,1,31.54,2.39A43.16,43.16,0,0,1,1670.05,388a42.14,42.14,0,0,1-26.43,19.73,43.27,43.27,0,0,1-32.29-5,37.84,37.84,0,0,1-10.68-9.8,51.31,51.31,0,0,1-6.88-12.61,45.93,45.93,0,0,1-3.35-15.47,26.09,26.09,0,0,1,4.11-15.27c-.33-1.67,1.6-4.61,3.11-3.68l.19.12.17.15,1.15.88a2.43,2.43,0,0,1,.4,2.53,51.3,51.3,0,0,0-2.75,12,38.42,38.42,0,0,0,.8,12.14,39.8,39.8,0,0,0,6.54,14.2,40.56,40.56,0,0,0,11.64,10.5,34.77,34.77,0,0,0,30.81,2.46A36.59,36.59,0,0,0,1668.07,378a37.25,37.25,0,0,0-4.14-31.62A36.38,36.38,0,0,0,1636.79,330a37.83,37.83,0,0,0-31.48,12.4C1604.31,343.61,1603.43,344.48,1602.81,345.31Zm67.81,7.15a37,37,0,0,0-8.57-13.67,40.34,40.34,0,0,1,8.6,13.66Z"/><path class="cls-13" d="M1603.38,322.67a5.17,5.17,0,0,0,1.59-.25l13.27-4.18H1657a5.3,5.3,0,0,0,0-10.59h-40.33l-14.83,4.67a5.3,5.3,0,0,0,1.59,10.35Z"/><path class="cls-14" d="M1577,384.4l53.31-9.71c.53-.1,1.11-.18,1.71-.25,3.21-.43,8.06-1.07,8.06-6.21,0-5.32-4.78-5.73-8.63-6.05l-1.7-.16c-4.39-.48-21.77.12-22.51.15l.08,2.11c.18,0,18-.62,22.2-.16.58.07,1.17.12,1.76.17,4.65.39,6.69.88,6.69,3.94s-2.47,3.61-6.22,4.11c-.64.08-1.26.16-1.82.27l-53.31,9.71Z"/><rect class="cls-10" x="1615.18" y="334.74" width="60.53" height="3.18" transform="translate(656.06 1693.43) rotate(-65.46)"/><path class="cls-10" d="M1599.53,338a1.59,1.59,0,0,0,1.49-1l4.52-12.24,8.87-3.67h37.88a1.59,1.59,0,1,0,0-3.18h-38.51L1603,322.32l-5,13.55a1.58,1.58,0,0,0,.94,2A1.52,1.52,0,0,0,1599.53,338Z"/><path class="cls-13" d="M1486.92,301.19a25.44,25.44,0,0,1-4.27-26.64,22.44,22.44,0,0,1,3.27-5.15c.17-3.71,1.28-6.42,3.33-8.08,4.76-3.87,12.63-.49,13-.34l3.45,1.52h-3.76c-5.46,0-10.82,3.32-14.43,7.5a34.55,34.55,0,0,0,.88,7.77c5.09,24.11,29.34,33.73,29.58,33.82l4,1.53h-4.25C1508.23,313.12,1493.3,308.22,1486.92,301.19Zm-2.82-26a23.82,23.82,0,0,0,4,24.95c5.09,5.61,16.58,10,25.46,11.12-7.25-3.85-22.75-14.13-26.77-33.16a41,41,0,0,1-.87-6.13A20.16,20.16,0,0,0,1484.1,275.19Zm6.14-12.64a7.77,7.77,0,0,0-2.55,4.92,23.12,23.12,0,0,1,10.42-6.08C1495.67,260.89,1492.46,260.74,1490.24,262.55Z"/><path class="cls-15" d="M1507.33,304.2a6.15,6.15,0,0,1,.17-1.14l.5-1.56a40.71,40.71,0,0,1,2-4.89,4.43,4.43,0,0,1,1.21-1.41,1.72,1.72,0,0,1,1.34-.43,22.21,22.21,0,0,1,9.1,5.16c2.51,2.29,4.79,4.71,7.15,7a60.77,60.77,0,0,1,12.46,16.51,50.44,50.44,0,0,1,2.4,5l1.11,2.53,1,2.58,1.82,5,1.6,4.54a63.55,63.55,0,0,0,8.73,16.3l1.34,1.72c.45.53.93,1,1.4,1.55a17.77,17.77,0,0,0,1.42,1.46l.66.65.14.19a4.66,4.66,0,0,0,.77.83,4.57,4.57,0,0,0,.57.41l.32.19c.12,0,.28.1.28,0a9.68,9.68,0,0,0,.67-1,9.87,9.87,0,0,0,1.08-2.44q1.79-4.7,3.34-9.48c1.8-5.58,5.33-10.67,6.65-16.38,1.45-6.14-.46-13.74,4.89-18.57-1.64-1.4-.47-3.18,3-2.1l.43.14.43.15,2.73.93c1.38.48,2.5,1.53,2.5,2.2.55,6.05-1.17,11.61-2.39,17.2a93.8,93.8,0,0,1-7.26,21.11c-.81,1.68-1.6,3.35-2.35,5l-1.12,2.54-.54,1.28-.25.63-.38,1-1.6,4.38-.4,1.08a3.24,3.24,0,0,1-.43,1l-1,1.58-2,3.16c-1.34-.08-2.63-.32-3.92-.51a26.4,26.4,0,0,1-7.77-3.15c-1.2-.81-2.77-1.81-3.59-2.53s-1.62-1.37-2.39-2.1a58.37,58.37,0,0,1-7.78-9.33,105.19,105.19,0,0,1-10.31-21.2,72.75,72.75,0,0,0-10-18.73,95.77,95.77,0,0,0-7.28-8.44,57.3,57.3,0,0,0-8.11-6.88C1508.12,305.93,1507.28,305.52,1507.33,304.2Zm34.1,34.92q-1-2.37-2-4.73l3.75,9.46C1542.63,342.25,1542.08,340.7,1541.43,339.12Z"/><path class="cls-15" d="M1543,341.27a1.65,1.65,0,0,1,1-.21c1.19.93,1.39,2.41,2.43,3.44s2,2,3,2.89a16,16,0,0,0,7.79,4,29.48,29.48,0,0,0,9.37,1.34,13.37,13.37,0,0,0,4.18-.33c1.45-.65,2.15-2.59,4-2.09-.2-.73.23-.74,1,.36l.11.13.1.14.62.88a1.45,1.45,0,0,1,.31,1.17,8.07,8.07,0,0,1-3.92,3,11.6,11.6,0,0,1-6.16,1.14c-2.06-.21-4.09-.42-6-.72s-3.8-.59-5.75-1a21,21,0,0,1-5.76-2.25,24.36,24.36,0,0,1-4.93-3.89,20.66,20.66,0,0,1-3.85-5.33C1540,342.89,1539.9,342.76,1543,341.27Zm6.6,9.18a13.73,13.73,0,0,0,2.14,1.22Z"/><path class="cls-11" d="M1502,278.87l-1-.4.39-1,.84-2.05.4-1,.05.06,1,.39a27.29,27.29,0,0,1,7.1,3.8,12.17,12.17,0,0,1,4.28,8.6,34.53,34.53,0,0,1-1.71,7.43l-2.89,8.05-.36,1-1-.36-2.08-.74-1-.36.36-1,2.87-8a33.11,33.11,0,0,0,1.45-6A7.93,7.93,0,0,0,1508,282,24.25,24.25,0,0,0,1502,278.87Z"/><path class="cls-16" d="M1499.88,314l1,.41a1.17,1.17,0,0,1-.14-1.05l6.39-18.69v-.1l2.27-5.16a1.22,1.22,0,0,1,1.53-.65l5,1.82a1.22,1.22,0,0,1,.74,1.55l-6.88,20.13v.14l-1.72,3.7a1.22,1.22,0,0,1-1.56.65h0l1.5.63-1.22,3-8.09-3.36Z"/><path class="cls-15" d="M1477.89,366.51a1.54,1.54,0,0,1-.6-.91c.63-1.94,2.16-3.25,3.08-5.16s1.9-3.82,3-5.64c2.32-4,4.83-8.05,6.88-12s4.45-7.84,6.17-12a50,50,0,0,0,2.67-5.2c.51-2.06-.23-4.65,1.72-6.24-.64-.5-.21-1.08,1.08-.68h.31l1,.34c.52.17,1,.53,1,.77a16.46,16.46,0,0,1-.86,5.95,25.85,25.85,0,0,1-2.93,7.16c-2.68,4.38-4.67,8.95-7,13.58s-4.92,9-7.33,13.64a61.92,61.92,0,0,1-4.38,7.13C1480.76,368.42,1480.61,368.56,1477.89,366.51Zm10.61-16.09a30.69,30.69,0,0,0-1.69,3c.64-1,1.16-2,1.72-3Z"/><path class="cls-15" d="M1586.56,326.07c.31-.36.81-.59,1-.48,2.25,1,3.73,3,5.91,4.45a63.13,63.13,0,0,1,6.35,4.63c4.35,3.61,8.71,7.49,12.94,11.07s8.1,7.57,12.37,11.11c1.86,1.58,3.18,3.52,5.29,5s5.23,2.06,6.35,4.74c.72-.32,1.25.35.4,1.4l-.11.14-.12.12-.7.82a1.34,1.34,0,0,1-1.16.53A25.06,25.06,0,0,1,1629,366a43.21,43.21,0,0,1-7-6,131.76,131.76,0,0,0-13.65-12.21c-4.82-3.92-9.49-7.93-14.51-11.57-2.75-2-5.37-4-7.91-6.19C1584.48,328.8,1584.24,328.6,1586.56,326.07Zm14.62,12.71,3.25,2.64A37.44,37.44,0,0,0,1601.18,338.78Z"/><path class="cls-15" d="M1570.54,372.1c0-.46.19-1.05.43-1.05,2.41-.77,4.83-.41,7.44-.88s5.27-.82,7.9-1c5.71-.43,11.6-.6,17.19-.94s11.23-.14,16.84-.54c2.46-.13,4.81.38,7.41,0s5.28-2.13,8-1c.29-.76,1.17-.6,1.27.74v1.43a1.33,1.33,0,0,1-.48,1.18,25.76,25.76,0,0,1-7.09,1.64,44.13,44.13,0,0,1-9.33.5,133.46,133.46,0,0,0-18.54.63c-6.28.54-12.5.88-18.74,1.72-3.37.45-6.69.81-10.13,1C1570.83,375.64,1570.49,375.66,1570.54,372.1Zm19.5-.79,4.25-.34A37.65,37.65,0,0,0,1590,371.31Z"/><path class="cls-13" d="M1496.19,274.76l4.16-10.15a3.11,3.11,0,0,1,2.9-1.94v0a3.24,3.24,0,0,1,1.19.24l1.34.55a3.14,3.14,0,0,1,1.74,1.8,5.4,5.4,0,0,1,1.34-.27l0-.08a4.1,4.1,0,0,1,1.51.29,4.35,4.35,0,0,1,2.55,2.87,6.18,6.18,0,0,1-.21,4.09,5.61,5.61,0,0,1-5,3.77,4.1,4.1,0,0,1-1.51-.29,5.15,5.15,0,0,1-1.55-1.2l-1.34,3.26a3.13,3.13,0,0,1-4.08,1.73h0l-1.34-.55A3.14,3.14,0,0,1,1496.19,274.76Z"/><path class="cls-13" d="M1506.74,270l.61-1.22a2.81,2.81,0,0,1,2.51-1.57,2.75,2.75,0,0,1,1.23.29l12.8,6.35a2.81,2.81,0,0,1,1.27,3.75l-.6,1.22a2.81,2.81,0,0,1-3.75,1.27L1508,273.73A2.81,2.81,0,0,1,1506.74,270Z"/><path class="cls-13" d="M1572.53,294.81a4.1,4.1,0,0,1,1.36-2,8.3,8.3,0,0,1,1.72-1,15,15,0,0,1,3.27-1c1.83-.34,2.55-.34,2.74.64a.86.86,0,0,1,.66-.72c3-.62,6-.23,8.39-.81a23.21,23.21,0,0,0,4.78-1.89,15.63,15.63,0,0,1,6-1.72,8.15,8.15,0,0,1,6.39,2.21,5.89,5.89,0,0,1,1.53,3.27,7.61,7.61,0,0,1-.36,3.35,11.82,11.82,0,0,1-3.52,5.16,14.88,14.88,0,0,1-5.26,3,12.44,12.44,0,0,1-6.26.41,14.45,14.45,0,0,1-5.51-2.72,8.81,8.81,0,0,0-4.47-2c-1.65,0-3.59.47-5.62.59a8.52,8.52,0,0,1-3.68-.43,3.71,3.71,0,0,1-1.84-1.72A3.47,3.47,0,0,1,1572.53,294.81Z"/><path class="cls-10" d="M1638.43,353.52a1.54,1.54,0,0,0,1.19-.55,1.59,1.59,0,0,0-.15-2.24l-36.75-32a1.59,1.59,0,0,0-2.09,2.4l36.75,32A1.59,1.59,0,0,0,1638.43,353.52Z"/><path class="cls-13" d="M1589.71,368.68c-12.17,1.91-11.45,18.62-11.45,18.62s-6,.72-9.54,1-14.33.73-15.27-12.65,12.89-14.81,12.89-14.81,33.9-1,42.49-1a20,20,0,0,1,10.54,2.65.91.91,0,0,1,.41.62,1,1,0,0,1-.77,1.1C1613.56,365,1599.39,367.13,1589.71,368.68Z"/><path class="cls-10" d="M1548.84,402.7a1.58,1.58,0,0,0,1.37-.79l15.29-26.26a1.59,1.59,0,0,0-2.75-1.6l-15.29,26.26a1.59,1.59,0,0,0,.58,2.17A1.53,1.53,0,0,0,1548.84,402.7Z"/><path class="cls-17" d="M1555.55,375.33a10.8,10.8,0,1,1,10.79,10.8A10.81,10.81,0,0,1,1555.55,375.33Zm1.06,0a9.74,9.74,0,1,0,9.73-9.73A9.75,9.75,0,0,0,1556.61,375.33Z"/><path class="cls-9" d="M1530.18,320.26h0a1.5,1.5,0,1,1,.47-2.07A1.49,1.49,0,0,1,1530.18,320.26Zm1.49-2.73a2.7,2.7,0,1,0-.84,3.73,2.69,2.69,0,0,0,.84-3.73Z"/><path class="cls-9" d="M1531.21,323.25a5,5,0,0,1-.27-2.34,5.94,5.94,0,0,1,3.09-4.32l.52-.32,1.13,1.72-1,.65-.46-.74a4.28,4.28,0,0,0-1.93,4.42l5.52-1,1,1.62-1,.65-.58-.92-5.73,1.05Z"/><path class="cls-9" d="M1531.88,324.19a2.7,2.7,0,1,0,4.54,1,2.69,2.69,0,0,0-3.38-1.76.83.83,0,0,1,.31.28l.51.8a1.53,1.53,0,0,1,.66.16,1.5,1.5,0,1,1-2,.69l-.52-.81A.93.93,0,0,1,1531.88,324.19Z"/><path class="cls-9" d="M1532.24,324.43a.49.49,0,0,1,.83-.51l1.08,1.72a.48.48,0,0,1-.15.67.49.49,0,0,1-.67-.16l-1.09-1.72Z"/><path class="cls-7" d="M1727.7,416.37a36.43,36.43,0,0,0-11.34-3.44,42,42,0,0,0-60.08-8.52,53.24,53.24,0,1,0,5.82,69.88c.52.29,1.05.57,1.59.83a41.78,41.78,0,0,0,26.57,3.55,37.12,37.12,0,0,0,5.21,3.14,36.47,36.47,0,1,0,32.23-65.44Z"/><path class="cls-8" d="M1.76,545.89V319.17c22.26-2.9,70.58-7.4,149-5.8,13.92.29,18.12.81,55.92,3.84,104.31,8.39,202.81,49,250.46,75.52q2.37,1.32,4.69,2.68a110.16,110.16,0,0,1,54.23,95.1v55.38Z"/><path class="cls-18" d="M211.05,416.12c0-18.44-18.4-34.16-44.28-40.34,6.15-15.12,3.88-27.53-7.47-31.22-8.66-2.81-20.85,0-33.29,6.79,6.82-25.64,1.11-46.32-15.3-49.2-9.63-1.69-21.17,3.06-32.15,12.14-10.89-16.9-27.64-27.73-46.44-27.73-32.82,0-59.42,33-59.42,73.7q0,2.36.12,4.68c-9,8.63-14.25,19.31-14.25,30.87,0,10.74,4.57,20.72,12.39,29h238.7A28.12,28.12,0,0,0,211.05,416.12Z"/><path class="cls-7" d="M148.87,393.8c6.16-15.12,3.88-27.53-7.46-31.22-8.66-2.81-20.86,0-33.29,6.79,6.82-25.64,1.1-46.32-15.31-49.2-9.63-1.69-21.16,3.06-32.14,12.14C49.78,315.41,33,304.58,14.22,304.58a50.26,50.26,0,0,0-27.77,8.54c-8.59,12.78-13.75,29.21-13.75,47.14q0,2.36.12,4.68c-9,8.63-14.25,19.31-14.25,30.87,0,10.74,4.57,20.72,12.39,29H191.54C186.53,410.53,170.26,398.9,148.87,393.8Z"/><g id="Calque_2" data-name="Calque 2"><path class="cls-13" d="M269.83,346.22l3.28,3.35a71.58,71.58,0,0,0,21-.63c1.28-8.93-28.9-14.15-28.9-14.15l-2.72,13.46,6.85.85Z"/><path class="cls-13" d="M232.81,344.69l.08,4.27a41.17,41.17,0,0,0,17,3.91c7.69-9.19-12.2-21.32-12.2-21.32l-12.22,13.69,4.77,2.4Z"/><path class="cls-7" d="M282.48,336.54l-19.34,8.83-2.6-66.82L254.86,230l0,.53L247.2,341.32H226.75v-.95h0l6.54-111.44s1-14.22,1.49-18.69,1.1-5.32,1.1-5.32,35.46-.53,36.86-.53,3.05,4.21,3.66,7.57,4.37,63.93,4.37,63.93Z"/><path class="cls-19" d="M282.48,336.54l-19.34,8.83-2.6-66.82L254.86,230l0,.53L247.2,341.32H234.33l-7.56-.95h0l2-1.42c1.51-11.38,3.3-16.21,4.26-27.71l2.53-66.72c-.74-5.51.36-31.4,3.44-39.56,5,2.4,25.44.44,31.87.12,5.15-.25,5.75,6.45-.05,11.42s-11.66,8.08-13.41,14.14l6.84,47.69,2.15,41.44c.33,9.19,7.28,16.53,15.88,16.78Z"/><g id="kcO2D6"><path class="cls-20" d="M297.27,176.47a6.64,6.64,0,0,0,.19,1.88,2.17,2.17,0,0,0,2.91,1.37,1,1,0,0,1,.79-.08,7.65,7.65,0,0,0,2.28.31,2,2,0,0,0,2.07-1.08,2.09,2.09,0,0,0-.09-2.35,10.26,10.26,0,0,0-3.88-3.37c-2.44-1-4.25.18-4.27,2.82Z"/><path class="cls-20" d="M307.42,184.37a.93.93,0,0,1-1.05.16,1.54,1.54,0,0,0-1.06-.07,12.17,12.17,0,0,1-3.93.35c-3.45-.32-6.58,1.11-9.87,1.66a34.15,34.15,0,0,1-5.35.3c-.41,0-.58-.26-.78-.51-.21-.42,0-.9-.16-1.33h0c0-3.25,0-6.49-.05-9.74-.06-1.94-.32-3.88-.5-5.82a1.09,1.09,0,0,1-.13.17v0a.49.49,0,0,0,0-.11,1.5,1.5,0,0,0-1.59.12,12.75,12.75,0,0,1-3,.13c-1.1,0-2.2,0-3.31,0-.54,0-.7.17-.71.71,0,3.47-.09,6.94-.15,10.41,0,2-.1,4.08-.16,6.11a.56.56,0,0,0,.29-.31c0-.17,0-.35,0-.52a.75.75,0,0,1,0-.57c0,.19,0,.38,0,.57a.94.94,0,0,1,0,.52c0,.44.1.89.17,1.33a7.92,7.92,0,0,0,2.77,4.4c1.66,1.27,3.55,1,5.39.61,2.26-.52,4.49-1.11,6.71-1.76a44.19,44.19,0,0,1,6.35-1,.68.68,0,0,1,.4,0,14,14,0,0,0,4,1,6.8,6.8,0,0,0,4.8-.74,9.31,9.31,0,0,0,4-3.44,6.36,6.36,0,0,0,.15-1.14A2.06,2.06,0,0,0,307.42,184.37Z"/><path class="cls-21" d="M284.22,166.06q-.37-4.77-1.16-9.5c-.6-3.64-4.23-8.36-5.13-11.55a18.51,18.51,0,0,0-7.86-10.58,22.63,22.63,0,0,0-8.25-3.44,21.27,21.27,0,0,0-3.06-.62l-.45-.07a18.29,18.29,0,0,0-12.63,0l-.15.05-.24.11-.47.21c-1.4.55-2.89.77-4.32,1.19a25.81,25.81,0,0,0-8.1,4A17,17,0,0,0,225.53,148c-.61,4.88-3.35,11.88-2.78,17.3.16,1.56.19,3.13.35,4.7,0,.37-.6.74,0,1.08a25.5,25.5,0,0,1,8.84-.33,1.93,1.93,0,0,1,.47.13,6.11,6.11,0,0,0,2.29.59c.88.21,1.38.59,1.34,1.54a30.59,30.59,0,0,1,.07,3.71,1.51,1.51,0,0,0,.3,1.16,16.53,16.53,0,0,0,3.83.6.42.42,0,0,0,.18-.11.72.72,0,0,0,.65.11c.67-.33,1-1,1.47-1.54a15,15,0,0,0,2.37-3.47,1.18,1.18,0,0,1,1.2-.7,27.75,27.75,0,0,1,4.37.19,2.81,2.81,0,0,1,.49.09c.24.08.51.18.51.47s-.34.28-.57.3c-1.79.17-2.24.79-2.39,2.59a4.17,4.17,0,0,0,2.14,4.3,6.44,6.44,0,0,1,.65.52c2.11,1.6,4,3.49,6.06,5.11.36.28.64.72,1.18.62.21.34.59.35.91.45a6.55,6.55,0,0,1,3,1.56c.21.57-.14.8-.59.85a22.05,22.05,0,0,0-4.15,1.09,3.53,3.53,0,0,1-2.11.07,2.44,2.44,0,0,0-1.39,0,27.43,27.43,0,0,1-4.23.69,3.89,3.89,0,0,1-3.09-.76,9.49,9.49,0,0,1-2.74-2.58.89.89,0,0,0-1.14-.38c-1.69.41-3.41.65-5.1,1a28.54,28.54,0,0,1-4.33.59c-.3,0-.69-.07-.77.39h0c.23.23.58-.06.8.19a53.29,53.29,0,0,1,.85,5.62c.36,2.75.7,5.5,1.06,8.25a2.6,2.6,0,0,0,.27.95,3,3,0,0,1,.34,1.89,1.06,1.06,0,0,0,.94.18c3.94-.47,7.89-.8,11.85-1,2.06-.12,4.12-.25,6.19-.22,4,0,8,0,12,0,2.09,0,4.18.14,6.27.24a1.31,1.31,0,0,0,.87-.16c.1-.28.19-.55.29-.82h0a.5.5,0,0,0,0-.16,17.76,17.76,0,0,0,.46-4,15.25,15.25,0,0,0,.28-3.09,50.07,50.07,0,0,0,.2-5.34,24.19,24.19,0,0,0,0-5l.1,0a.89.89,0,0,0,.17-.57c.25-3.49.13-7,.24-10.47.06-1.81.1-3.62.13-5.44,0-.89.09-1,1-1h4.54c.4,0,.84.07,1.15-.31a.9.9,0,0,1-.05-.09h.05l1.63,0a.21.21,0,0,0,.13-.17A28.93,28.93,0,0,0,284.22,166.06Zm-47.16,5.28h0s0,0,0,0Z"/></g><polygon class="cls-22" points="247.38 188.47 341.54 188.47 341.54 185.29 342.22 184.9 342.22 174 247.38 173.99 247.38 188.47"/><rect class="cls-23" x="246.97" y="173.99" width="26.32" height="14.48"/><path class="cls-20" d="M262.7,188.75a8,8,0,0,0-3.35-1.62l-.79-.22a41.27,41.27,0,0,1-3.9-3.18c-1.45-1.32-3-2.56-4.53-3.74a2.85,2.85,0,0,1-1.36-2.73,10.26,10.26,0,0,0,0-1.24,1.8,1.8,0,0,1,1.9-2c.16,0,.33,0,.49,0s.67.1.69-.26a.79.79,0,0,0-.6-.88,18.33,18.33,0,0,0-2.21-.3c-1-.05-2.09,0-3.14,0-.43,0-.83.06-1,.52-.87,2-2.41,3.54-3.71,5.25a10.9,10.9,0,0,1-.84,1c.09-.38.31-.7,0-1a22.93,22.93,0,0,0-3.78-.53c-.85-.66-1.85-.29-2.74-.4.52-.17,1.11-.25,1.68-.41a.93.93,0,0,0,.79-1.06c-.07-1,.6-4.35-1.2-4.62a17.23,17.23,0,0,0-2.66-.47h-.07a1,1,0,0,1,0-.12,2.09,2.09,0,0,0-1.48-.4,26.81,26.81,0,0,0-6.87.28c-.35.09-.72.11-.94.44.41,4.66.95,9.3,1.75,13.91,0,.08,0,.16,0,.24.56,3.4.44,3.19,4.13,4.29a10.31,10.31,0,0,0,3.84.42,6.57,6.57,0,0,1,2.25-.29c2.69-.3,5.29-1,7.94-1.51.49-.09.77-.1,1.06.4.89,1.54,2.45,2.34,3.86,3.27a1.35,1.35,0,0,0,.73.09,20.67,20.67,0,0,0,5.47-.69,2.11,2.11,0,0,1,1.38,0,3.66,3.66,0,0,0,2.42-.11,15.35,15.35,0,0,1,4.07-1C262.76,190,263,189.48,262.7,188.75Z"/><path class="cls-9" d="M272.55,113a21.13,21.13,0,0,1-6.1,14.77,20.1,20.1,0,0,1-14.48,6,20.92,20.92,0,1,1,20.58-20.76Z"/><path class="cls-7" d="M252.21,134.28H252a.58.58,0,0,1-.57-.58.53.53,0,0,1,.58-.57,20.44,20.44,0,0,0,14.45-5.8.57.57,0,0,1,.8.82A21.6,21.6,0,0,1,252.21,134.28Z"/><path class="cls-13" d="M268.45,105.6l-1.82-1.07a2.09,2.09,0,1,1-.29,1Z"/><path class="cls-13" d="M257.19,108.55l-1.8-1.06a2.11,2.11,0,1,1-.28,1Z"/><path class="cls-13" d="M261.33,119.84a7.45,7.45,0,0,0,8.39-3.64c.51-.93-.92-1.78-1.37-.83a5.78,5.78,0,0,1-6.52,2.87.84.84,0,0,0-1,.69.83.83,0,0,0,.52.91Z"/><path class="cls-24" d="M244.16,106.83a2.23,2.23,0,0,0-1-1.37,3.34,3.34,0,0,0-2.45,0,39.27,39.27,0,0,0-6,2.34c-2,1-4.34,1.64-4.39,4.11,2.09-.91,1.87,0,3.09,1.47a3,3,0,0,0,2.46,1.21,1.86,1.86,0,0,0,1.74-1.88,2.51,2.51,0,0,0,2.48,2.55,2.27,2.27,0,0,0,.45,0,2.51,2.51,0,0,0,1.67-3.14,1.92,1.92,0,0,0-.14-.36,1.6,1.6,0,0,0,2.09-.78,4.57,4.57,0,0,0,.32-2.45A7.17,7.17,0,0,0,244.16,106.83Z"/><path class="cls-7" d="M268.86,98.29C262.41,91.64,256.2,86,242.4,91.92c-10.12,4.35-11.46,12.2-12.18,20Z"/><path class="cls-6" d="M268.23,99.25c-9,3.31-23.82,7.59-23.82,7.59s12-25.49,25.83-23.15C282.7,85.81,275.37,96.62,268.23,99.25Z"/><ellipse class="cls-9" cx="234.13" cy="115.62" rx="4.3" ry="5.5" transform="translate(-23.97 76.02) rotate(-17.56)"/><polyline class="cls-9" points="264.79 113.33 268.98 110.28 262.26 104.05"/><path class="cls-13" d="M264.8,113.9a.58.58,0,0,1-.47-.23.57.57,0,0,1,.13-.8l3.62-2.65-6.21-5.75a.58.58,0,0,1,0-.81.57.57,0,0,1,.81,0l7.23,6.7-4.75,3.46A.59.59,0,0,1,264.8,113.9Z"/><path class="cls-9" d="M235.86,121.14c-2.26.71-4.85-1-5.76-4s.17-5.83,2.43-6.54"/><path class="cls-13" d="M234.83,121.87c-2.21,0-4.43-1.81-5.28-4.51a6.87,6.87,0,0,1,0-4.46,4.39,4.39,0,0,1,2.77-2.8.57.57,0,1,1,.34,1.09,3.3,3.3,0,0,0-2,2.11,5.74,5.74,0,0,0,0,3.71c.82,2.6,3.08,4.21,5,3.59a.57.57,0,0,1,.35,1.09A4.16,4.16,0,0,1,234.83,121.87Z"/><path class="cls-24" d="M253,107.2a5.21,5.21,0,0,1,5-3.74.83.83,0,0,0,0-1.65,6.85,6.85,0,0,0-6.63,5,.84.84,0,0,0,.7,1A.85.85,0,0,0,253,107.2Z"/><path class="cls-24" d="M264.93,101.64a6,6,0,0,1,2-.69c1-.21.6-1.81-.44-1.6a7.15,7.15,0,0,0-2.36.87c-.91.56-.07,2,.83,1.37Z"/><path class="cls-7" d="M236.06,173.61l-.17,0a.63.63,0,0,1-.44-.78,35.86,35.86,0,0,0,.78-11.18c-.08-1.5-.1-1.95.12-2.24a15.42,15.42,0,0,0-.89-2c-.43-.87.14-2,.55-2.85a3.77,3.77,0,0,0,.27-.57.6.6,0,0,1,.63-.6.65.65,0,0,1,.63.66,2.58,2.58,0,0,1-.39,1.08c-.21.42-.7,1.41-.55,1.71,1,2.08,1.23,2.74.94,3.2l-.09.15c0,.31,0,.86.05,1.39a36.89,36.89,0,0,1-.83,11.58A.62.62,0,0,1,236.06,173.61Zm1-13.25h0Z"/></g></g></g></g></g></svg>