<svg xmlns="http://www.w3.org/2000/svg" xmlns:xlink="http://www.w3.org/1999/xlink" viewBox="0 0 1929.37 495.93"><defs><style>.cls-1{fill:none;}.cls-2{isolation:isolate;}.cls-3{clip-path:url(#clip-path);}.cls-4{fill:#fbbc43;}.cls-5{clip-path:url(#clip-path-2);}.cls-6{fill:#f5f8fd;}.cls-7{fill:#bedded;}.cls-8{fill:url(#linear-gradient);}.cls-9{fill:url(#linear-gradient-2);}.cls-10{fill:url(#linear-gradient-3);}.cls-11{fill:url(#linear-gradient-4);}.cls-12{fill:url(#linear-gradient-5);}.cls-13{fill:url(#linear-gradient-6);}.cls-14{fill:#c5e6ee;}.cls-15{fill:#7885b5;}.cls-16{fill:#e5e5e5;}.cls-17{fill:#fff;}.cls-18{fill:#592568;}.cls-19{fill:url(#linear-gradient-7);}.cls-20{fill:url(#linear-gradient-8);}.cls-21{fill:url(#linear-gradient-9);}.cls-22{fill:url(#linear-gradient-10);}.cls-23{fill:#46b594;}.cls-24{fill:#494949;opacity:0.2;mix-blend-mode:darken;}.cls-25{fill:#392d87;}.cls-26{fill:#2f9fa8;}</style><clipPath id="clip-path"><rect class="cls-1" x="1410.52" y="-802.16" width="553.88" height="588" transform="translate(3374.91 -1016.32) rotate(-180)"/></clipPath><clipPath id="clip-path-2"><path class="cls-1" d="M1929.37,485.81s-391.36-80-577.13-80S892.08,495.93,694.5,495.93,446.13,366.61,278.84,366.61,0,405.78,0,405.78V0H1929.37Z"/></clipPath><linearGradient id="linear-gradient" x1="1893.69" y1="226.2" x2="1983.17" y2="226.2" gradientTransform="translate(3876.87 452.39) rotate(-180)" gradientUnits="userSpaceOnUse"><stop offset="0" stop-color="#a3cce3"/><stop offset="1" stop-color="#a3cce3"/></linearGradient><linearGradient id="linear-gradient-2" x1="1824.11" y1="256.23" x2="1921.77" y2="256.23" gradientTransform="translate(3745.89 512.47) rotate(-180)" xlink:href="#linear-gradient"/><linearGradient id="linear-gradient-3" x1="1759.83" y1="271.69" x2="1831.53" y2="271.69" gradientTransform="translate(3591.36 543.37) rotate(-180)" xlink:href="#linear-gradient"/><linearGradient id="linear-gradient-4" x1="1566.51" y1="287.65" x2="1607.48" y2="287.65" gradientTransform="translate(3173.98 575.3) rotate(-180)" xlink:href="#linear-gradient"/><linearGradient id="linear-gradient-5" x1="1601.01" y1="247.22" x2="1652.76" y2="247.22" gradientTransform="translate(3253.76 494.44) rotate(-180)" xlink:href="#linear-gradient"/><linearGradient id="linear-gradient-6" x1="1651.68" y1="209.68" x2="1761.65" y2="209.68" gradientTransform="matrix(1, 0, 0, 1, 0, 0)" xlink:href="#linear-gradient"/><linearGradient id="linear-gradient-7" x1="42.24" y1="341.61" x2="101.58" y2="341.61" gradientTransform="translate(143.81 683.23) rotate(-180)" xlink:href="#linear-gradient"/><linearGradient id="linear-gradient-8" x1="92.21" y1="283.06" x2="167.16" y2="283.06" gradientTransform="translate(259.37 566.11) rotate(-180)" xlink:href="#linear-gradient"/><linearGradient id="linear-gradient-9" x1="165.6" y1="228.68" x2="324.87" y2="228.68" gradientTransform="matrix(1, 0, 0, 1, 0, 0)" xlink:href="#linear-gradient"/><linearGradient id="linear-gradient-10" x1="309.26" y1="314.29" x2="408.87" y2="314.29" gradientTransform="translate(718.13 628.57) rotate(-180)" xlink:href="#linear-gradient"/></defs><title>nos_velos</title><g class="cls-2"><g id="Nos_vélos" data-name="Nos vélos"><g id="des_velos_adaptés" data-name="des velos adaptés"><g class="cls-3"><path class="cls-4" d="M2264.92-1182.37l-436.08-99L691.39-1061.54l-183,192.88L536.59-614l53,325.29L625.77-94s29.54,297.18,155.49,254.65c187.3-63.25,215.1,43.28,328.35,17.56,83.83-19,92.57-100.47,167.36-148.43,78.49-50.32,168.3-24.59,209.15-65.22,71.8-71.44-7.32-180.37-24.66-217-33.9-71.64-26.82-96.49-19.71-115.82,10-27.27,42-48.77,97.61-46.67,49.91,1.89,160.57,25.44,227.15-16.38,58.18-36.54,61.94-103.75,27-226-37.78-132.43,105.12-151,105.12-151L1991.53-886l75.53-23.81"/></g></g><g id="titre-6" data-name="titre"><g class="cls-5"><g id="illu_fond" data-name="illu fond"><rect class="cls-6" x="0.87" width="1920" height="549.18"/><rect class="cls-7" x="1899.25" y="160.63" width="40.97" height="159.56"/><rect class="cls-7" x="1853.96" y="79.77" width="51.75" height="240.42"/><polygon class="cls-7" points="1745.08 320.19 1855.04 320.19 1855.04 39.88 1800.16 4.69 1745.08 39.88 1745.08 320.19"/><rect class="cls-8" x="1893.69" y="127.97" width="89.48" height="196.46" transform="translate(3876.87 452.39) rotate(180)"/><rect class="cls-9" x="1824.11" y="188.04" width="97.66" height="136.39" transform="translate(3745.89 512.47) rotate(180)"/><rect class="cls-10" x="1759.83" y="218.94" width="71.7" height="105.48" transform="translate(3591.36 543.37) rotate(180)"/><rect class="cls-11" x="1566.51" y="250.87" width="40.97" height="73.56" transform="translate(3173.98 575.3) rotate(180)"/><rect class="cls-12" x="1601.01" y="170.01" width="51.75" height="154.41" transform="translate(3253.76 494.44) rotate(180)"/><polygon class="cls-13" points="1761.65 324.43 1651.68 324.43 1651.68 130.12 1706.56 94.93 1761.65 130.12 1761.65 324.43"/><rect class="cls-14" x="1689.7" y="147.21" width="12.26" height="33.02"/><rect class="cls-14" x="1720.36" y="147.21" width="12.26" height="33.02"/><rect class="cls-14" x="1689.7" y="209.94" width="12.26" height="33.02"/><rect class="cls-14" x="1720.36" y="209.94" width="12.26" height="33.02"/><path class="cls-15" d="M1521.34,309.5c13.42-12.13,45.17-31,111.1-28.26,47.56,2,116.21,17.37,163.34,10.78,46.33-6.48,91.37-10.75,136-12.17,71.08-2.25,115.54,224.77,6.61,225-84.8.2-170.17-1-259.75-1.47-44.71-.22-365.06-23.26-319.25-32.26C1398,463.57,1461.24,363.82,1521.34,309.5Z"/><path class="cls-16" d="M1871,440.39c-23.45-.14-48.51-7.14-69.22-17.67-8.84-4.5-16.63-10.69-25.35-15.41-27.19-14.69-60.4-13.66-91.52-11.16s-63.57,5.9-92.68-4.94c-11.87-4.43-22.68-11.07-34.25-16.17a143.36,143.36,0,0,0-81.11-10c-4.59-7.4-.93-16.88,3.91-24.1,23.79-35.45,77.08-49.66,117.06-31.21,17.71,8.18,32.29,21.56,49.92,29.89,24.56,11.62,52.91,12.55,80.17,15.31s57.79,4.44,77.37,22.71c8.22,7.66,24.88,20.25,35.35,24.47,21.94,8.82,31.87,9,55.46,9.18,5.73.05,18.16-.2,35.73-.67,13.53-.36,17.94,30.25,0,30.14Z"/><path class="cls-17" d="M1581.6,346.39c-23.13-8.9-48.8-19.05-73.85-12.59-1.52.39-1.25,2.87.37,2.78,25.23-1.47,48.69,6.87,71.73,16.13C1583.74,354.27,1585.51,347.9,1581.6,346.39Z"/><path class="cls-17" d="M1703,371.16a271.52,271.52,0,0,0-37-4.13c-12.66-.71-25.42-1.71-37.57-5.6-2-.62-2.62,2.26-.82,3,11.48,4.7,23.58,6.61,35.84,7.94,12.59,1.37,25.5,1.81,37.77,5.16C1705.42,378.66,1707.17,372,1703,371.16Z"/><path class="cls-17" d="M1761.15,381.31c-.81-.31-1.4,1.06-.6,1.42a148.24,148.24,0,0,1,46.35,32.68c2.47,2.55,6.49-1.5,3.89-3.88A154.15,154.15,0,0,0,1761.15,381.31Z"/><path class="cls-17" d="M1907.87,429.09c-7.66.42-15.62-.54-23.26-1.09s-15.45-1.09-23.18-1.65c-1-.08-1.3,1.66-.25,1.85,7.34,1.32,14.64,2.39,22.06,3.14,8,.8,16.15.81,24.06,1.94C1910.49,433.74,1910.85,428.92,1907.87,429.09Z"/><path class="cls-18" d="M134.26,331.9c.17-.37.35-.74.52-1.12l-.28.08Z"/><path class="cls-18" d="M134.5,330.86l.28-.08q1.08-2.29,2.45-4.73a7.86,7.86,0,0,1-1-2.83Z"/><path class="cls-18" d="M134.78,330.78c1.64-.47,3.29-.91,4.93-1.34a17,17,0,0,1-2.48-3.39Q135.87,328.48,134.78,330.78Z"/><rect class="cls-7" x="200.01" y="145.93" width="165.52" height="285.76"/><rect class="cls-7" x="163.45" y="16.11" width="106.18" height="415.57"/><rect class="cls-7" x="85.37" y="103.77" width="89.01" height="327.92"/><rect class="cls-7" x="-7.3" y="154.34" width="103.85" height="277.35"/><rect class="cls-19" x="42.24" y="288.35" width="59.34" height="106.54" transform="translate(143.81 683.23) rotate(180)"/><rect class="cls-20" x="92.21" y="171.23" width="74.95" height="223.65" transform="translate(259.37 566.11) rotate(180)"/><polygon class="cls-21" points="324.87 394.88 165.6 394.88 165.6 113.45 245.08 62.48 324.87 113.45 324.87 394.88"/><rect class="cls-22" x="309.26" y="233.69" width="99.61" height="161.19" transform="translate(718.13 628.57) rotate(180)"/><rect class="cls-14" x="110" y="190.12" width="17.76" height="47.82"/><rect class="cls-14" x="154.4" y="190.12" width="17.76" height="47.82"/><rect class="cls-14" x="110" y="280.98" width="17.76" height="47.82"/><rect class="cls-14" x="154.4" y="280.98" width="17.76" height="47.82"/><rect class="cls-14" x="220.66" y="138.2" width="17.76" height="47.82"/><rect class="cls-14" x="265.07" y="138.2" width="17.76" height="47.82"/><rect class="cls-14" x="220.66" y="229.06" width="17.76" height="47.82"/><rect class="cls-14" x="265.07" y="229.06" width="17.76" height="47.82"/><path class="cls-15" d="M288.37,408.19H-198.86C-162.39,388.08-80.09,360,44.76,360S256.46,385.16,288.37,408.19Z"/><path class="cls-23" d="M140.35,93c61,61,68.71,129.52,62,163.24-7.15,35.75-48.85,60.77-91.75,58.39-38.07-2.12-81-21.45-77.45-83.41S68.86,114.4,90.31,93C110.7,72.56,121.29,73.89,140.35,93Z"/><path class="cls-24" d="M156.49,110.72c46.16,56.06,51.92,115,45.82,145.47-7.15,35.75-48.85,60.77-91.74,58.39-35.06-1.95-74.23-18.53-77.42-69.52C112,325.28,198.33,236.35,156.49,110.72Z"/><polygon class="cls-25" points="117.33 212.85 123.52 384.96 113.4 384.96 117.33 212.85"/><polygon class="cls-25" points="150.52 261.22 119.02 305.65 117.89 295.53 150.52 261.22"/><polygon class="cls-25" points="117.89 272.06 117.89 279.78 85.83 254.47 117.89 272.06"/><path class="cls-26" d="M46.81,233.94C84.25,271.38,89,313.5,84.87,334.21c-4.39,22-30,37.32-56.35,35.86C5.13,368.77-21.25,356.9-19,318.84s22-71.72,35.13-84.9C28.6,221.42,35.11,222.23,46.81,233.94Z"/><path class="cls-24" d="M56.73,244.85c28.35,34.44,31.89,70.64,28.14,89.36-4.39,22-30,37.32-56.35,35.86C7,368.87-17.07,358.69-19,327.37,29.37,376.64,82.43,322,56.73,244.85Z"/><polygon class="cls-25" points="32.68 307.58 36.48 384.96 30.26 384.96 32.68 307.58"/><polygon class="cls-25" points="53.06 337.29 33.71 364.59 33.02 358.37 53.06 337.29"/><polygon class="cls-25" points="33.02 343.95 33.02 348.69 13.33 333.15 33.02 343.95"/><path class="cls-17" d="M318,154.53c-7.44,1.24-30.94-6.31-26.47-10.05-18.2-6.93-7.19-13.52,6.2-13.52,1.49-10,17.79-19.4,23.16-15.24,4.16,3.21,3.3-14.36,30.2-16.29,14.74-1.05,21.54.95,33.92,15.25,5.95-6.24,27.92-2.45,30,14.88,2.8-2.4,26.79.8,24.79,19.59-.4,3.73-35.08,16.49-48.27,16.29-11.91-.18-17.27-4-36.71-4.33C339.89,160.84,318,154.53,318,154.53Z"/><path class="cls-17" d="M149.94,46.47c4.7-2.35,9.4-4.7,12.92-2.94,0,0,5.87-6.46,14.68-.58,5.29-.59,8.22,5.28,8.22,5.28s1.76,1.17,7.05,1.76,14.09,2.94,10,7-8.75.27-10,2.93c-3.53,7.64-27.6,8.23-28.19,1.77,0,0-10.57,4.11-12.33.58s-1.76-8.22-5.28-7-8.22,3.52-7.64-.59S149.94,46.47,149.94,46.47Z"/></g></g></g></g></g></svg>