<svg xmlns="http://www.w3.org/2000/svg" viewBox="0 0 144 86"><defs><style>.cls-1{fill:#fff;}.cls-2{fill:#232323;stroke:#fff;stroke-linecap:round;stroke-linejoin:round;}.cls-3{fill:none;}.cls-4{fill:#216868;}.cls-5{fill:#a9df90;}</style></defs><title>nos_offres_foodtech</title><g id="Calque_116" data-name="Calque 116"><circle class="cls-1" cx="72" cy="43" r="42.99"/></g><g id="Nos_offres_3" data-name="Nos offres 3"><g id="bloc_1-3" data-name="bloc 1"><path class="cls-2" d="M105.6,61.37h0"/><path class="cls-3" d="M87.88,25.92l-.12-.05"/><path class="cls-4" d="M104.3,61.26a1.19,1.19,0,0,1-.09.45,71.16,71.16,0,0,0-9.66-1.17c-4.13-.33-12.59-.92-22.81-1H71.6c-10.22.1-18.68.69-22.81,1a69.1,69.1,0,0,0-9.66,1.17,1,1,0,0,1-.08-.45c0-.21,0-1.08,0-2.19,0-2,0-4.73-.05-5.63,0,3.62,2.28,4.08,2.38,4.1h60.5a2.67,2.67,0,0,0,1.22-.7,4.42,4.42,0,0,0,1.15-3.07C104.27,55.59,104.22,60.71,104.3,61.26Z"/><path class="cls-4" d="M103.89,62.94c-.45.76-1.07,1.93-1.28,2.32a15.06,15.06,0,0,1-3.15.25c-1.14,0-2.14-.06-2.37-.07a16.67,16.67,0,0,0-3-.77,72.88,72.88,0,0,0-8.14-1c-5.74-.43-11.76-.53-14.09-.56h-.14c-4.62.05-16.06.29-22.53,1.51a17.15,17.15,0,0,0-3,.77c-.23,0-1.23.07-2.38.07a15.15,15.15,0,0,1-3.14-.25c-.2-.38-.82-1.54-1.28-2.32,2.32-.56,15.93-1.94,32.16-2.11h.12C88,61,101.57,62.38,103.89,62.94Z"/><path class="cls-4" d="M101.71,56.25H41.62c-.26-.09-1.54-.69-1.22-3.77.06-.62.17-1.58.4-2.81a.51.51,0,0,0,0-.13h0v0c.21-.79,2.27-8.32,3.36-10.56.11-.19.23-.38.35-.56a.33.33,0,0,1,.06-.1.52.52,0,0,1,.9.16l0,.18,1,12.12c0,1.7.94,3.09,2.1,3.09h1.89c1.16,0,2.1-1.39,2.1-3.09V30.82h0a1.18,1.18,0,0,1,.5-.94l0,0a25,25,0,0,1,3-1.63h0c.15,0,.68-.16.72.42L58.44,51c0,1.56.84,2.83,1.88,2.83H62c1,0,1.87-1.27,1.87-2.83V27.61c0-.19,0-2,1.63-2.21a52.94,52.94,0,0,1,6.16-.59,47.8,47.8,0,0,1,6,.56l.07,0a2.19,2.19,0,0,1,1.7,2.24V51c0,1.56.84,2.83,1.87,2.83H83c1,0,1.87-1.27,1.87-2.83l1.6-22.25a.55.55,0,0,1,.81-.48,25.7,25.7,0,0,1,3,1.66,1.17,1.17,0,0,1,.41.83v20c0,1.7.94,3.09,2.09,3.09h1.9c1.16,0,2.1-1.39,2.1-3.09l1-11.74v0c.06-.25.34-1.45.88-.79l.4.62v0c1.33,2.64,3.45,11.16,3.65,12,0,0,0,0,0,0h0q.13.81.21,1.65C103.25,55.59,102,56.17,101.71,56.25Z"/><polygon class="cls-5" points="60.7 18.1 63.18 19.41 62.71 16.64 64.72 14.68 61.94 14.28 60.7 11.76 59.46 14.28 56.68 14.68 58.69 16.64 58.21 19.41 60.7 18.1"/><polygon class="cls-5" points="71.97 16.91 75.69 18.87 74.98 14.72 77.99 11.78 73.83 11.18 71.97 7.41 70.1 11.18 65.94 11.78 68.95 14.72 68.24 18.87 71.97 16.91"/><polygon class="cls-5" points="82.7 18.1 85.19 19.41 84.71 16.64 86.72 14.68 83.94 14.28 82.7 11.76 81.46 14.28 78.69 14.68 80.69 16.64 80.22 19.41 82.7 18.1"/></g></g></svg>