<svg xmlns="http://www.w3.org/2000/svg" xmlns:xlink="http://www.w3.org/1999/xlink" viewBox="0 0 1929.37 495.93"><defs><style>.cls-1{fill:none;}.cls-2{clip-path:url(#clip-path);}.cls-3{fill:#f3edf4;}.cls-4{fill:#a494b2;}.cls-5{fill:#65007f;}.cls-6{fill:#c44833;}.cls-7{fill:#b075c6;}.cls-8{fill:#e0d7ff;}.cls-9{fill:#2f2f30;}.cls-10{fill:#b2b2b2;}.cls-11{fill:#2b2b2a;}.cls-12{fill:#1d1d1b;}.cls-13{fill:#9d9d9c;}.cls-14{fill:#392d87;}.cls-15{fill:#312783;}.cls-16{fill:#706f6f;}.cls-17{fill:#fff;}.cls-18{fill:#f9cee3;}.cls-19{fill:#ed6843;}.cls-20{fill:#262626;}.cls-21{fill:#e4f9f8;}.cls-22{fill:#d0f4f3;}.cls-23{fill:#bababa;}.cls-24{fill:#a583b5;}.cls-25{fill:#826991;}.cls-26{fill:#44254f;}.cls-27{fill:#28193a;}.cls-28{fill:#8b7e9e;}.cls-29{fill:#efefef;}.cls-30{fill:#cfd1d3;}.cls-31{fill:#d7dadd;}.cls-32{fill:#c3c7c9;}.cls-33{fill:#e8e9ea;}.cls-34{fill:#b7a5db;}.cls-35{fill:#d9e1e2;}.cls-36{fill:#e84f40;}.cls-37{fill:#511066;}.cls-38{fill:#e9e2ed;}.cls-39{fill:#c94039;}.cls-40{fill:#1f2f35;}.cls-41{fill:#a19ea0;}.cls-42{fill:#898989;}.cls-43{fill:#3c5665;}.cls-44{fill:#314854;}.cls-45{fill:#182428;}</style><clipPath id="clip-path"><path class="cls-1" d="M1925.84,485.81s-391.36-80-577.13-80S888.55,495.93,691,495.93,442.59,366.61,275.31,366.61-3.53,405.78-3.53,405.78V0H1925.84Z"/></clipPath></defs><title>nos_offres</title><g id="Nos_offres_5" data-name="Nos offres 5"><g id="titre-5" data-name="titre"><g class="cls-2"><rect class="cls-3" x="0.31" width="1920" height="545.89" transform="translate(1920.61 545.89) rotate(-180)"/><g id="illustrations"><path class="cls-4" d="M-6,509.56V282.85c22.4-2.91,71-7.41,149.89-5.8,14,.28,18.22.8,56.24,3.84C305,289.27,404.11,329.84,452,356.4q2.38,1.32,4.71,2.68a110,110,0,0,1,54.56,95.1v55.38Z"/><polygon class="cls-5" points="194.47 275.58 -26.79 275.58 -26.79 105.42 82.79 17.97 193.95 103.84 194.47 275.58"/><polygon class="cls-6" points="-32.56 116.21 -41.43 105.09 81.66 6.86 206.52 103.21 197.83 114.47 81.81 24.94 -32.56 116.21"/><polygon class="cls-7" points="246.11 292.97 104.53 292.64 104.53 120.8 176.52 67.16 245.72 120.8 246.11 292.97"/><rect class="cls-8" x="26.59" y="123.01" width="32.89" height="29.69"/><rect class="cls-8" x="26.59" y="165.65" width="32.89" height="29.69"/><rect class="cls-8" x="145.16" y="143.15" width="56.9" height="54.4"/><rect class="cls-6" x="140.82" y="197.55" width="65.59" height="7.9"/><rect class="cls-6" x="-8.76" y="270.05" width="43.33" height="5.4"/><polygon class="cls-6" points="94.28 133.67 85.41 122.55 171.58 53.78 258.99 121.22 250.3 132.49 171.73 71.86 94.28 133.67"/><path class="cls-9" d="M276.89,369.1a1.59,1.59,0,0,1-.32-3.13l12.38-3a1.59,1.59,0,0,1,.76,3.09l-12.38,3A1.34,1.34,0,0,1,276.89,369.1Z"/><polygon class="cls-10" points="266.51 336.28 245.43 261.29 241.73 262.43 262.81 337.42 266.51 336.28"/><path class="cls-11" d="M347.44,368.76a37.84,37.84,0,0,0,32.16-10.54,36.31,36.31,0,0,0,10.39-30,37.21,37.21,0,0,0-17-27,36.6,36.6,0,0,0-31.15-3.95,34.82,34.82,0,0,0-22.17,21.55,40.8,40.8,0,0,0-2.29,15.53,40.08,40.08,0,0,0,4,15.12,38.49,38.49,0,0,0,7.13,9.86,50.93,50.93,0,0,0,9.82,7.53c.79.48,1.5,1.49,1.3,2.2l-.4,1.4a.81.81,0,0,1,0,.22v.23c-.57,1.7-4,.66-4.76-.87A26.09,26.09,0,0,1,321.62,361a46,46,0,0,1-7.28-14,51.6,51.6,0,0,1-2.79-14.07,38.11,38.11,0,0,1,2-14.37A43.31,43.31,0,0,1,335.16,294a42.17,42.17,0,0,1,33-1.75A43.14,43.14,0,0,1,393,350,41.45,41.45,0,0,1,370.22,372a48.15,48.15,0,0,1-14.7,3.51,34.49,34.49,0,0,1-14.84-2.27c-.91-.36-1.67-1.26-1.46-1.87.43-2.28,1-3.31,2.14-3.56a5.53,5.53,0,0,1,2.29.09C344.62,368.22,345.88,368.37,347.44,368.76Zm43.85-49.45a40.42,40.42,0,0,1,2.13,16,37.13,37.13,0,0,0-2.13-16Z"/><path class="cls-10" d="M307.45,331.85a46.85,46.85,0,0,1,48.43-45.08h.18c.73,0,7.19.44,10.29,2.12l-1.44,2.64c-2.12-1.15-7.22-1.66-9-1.75A43.83,43.83,0,0,0,310.46,332Z"/><path class="cls-10" d="M155.9,318.61,153,318a46.81,46.81,0,0,1,55.78-35.57l-.54,3A43.84,43.84,0,0,0,155.9,318.61Z"/><path class="cls-10" d="M242.9,328.23a43.4,43.4,0,0,0-36.55-43.36l.46-3a46.41,46.41,0,0,1,39.1,46.38Z"/><path class="cls-11" d="M228.68,303.76a37.82,37.82,0,0,0-31-13.54A36.33,36.33,0,0,0,170,305.67a37.25,37.25,0,0,0-5.3,31.45,36.63,36.63,0,0,0,20.63,23.69,34.81,34.81,0,0,0,30.88-1.33,40.59,40.59,0,0,0,12-10.07,39.72,39.72,0,0,0,7-14,38.29,38.29,0,0,0,1.25-12.1,51,51,0,0,0-2.31-12.13,2.43,2.43,0,0,1,.49-2.52l1.18-.83.18-.15.2-.11c1.54-.87,3.36,2.14,3,3.79a26.09,26.09,0,0,1,3.55,15.41,46.1,46.1,0,0,1-3.92,15.34,51.75,51.75,0,0,1-7.34,12.35,37.9,37.9,0,0,1-11,9.4,43.27,43.27,0,0,1-32.45,3.8A42.14,42.14,0,0,1,162.31,347a43.15,43.15,0,0,1,20-59.65,41.51,41.51,0,0,1,31.6-1.23,48.1,48.1,0,0,1,13.3,7.18,34.66,34.66,0,0,1,9.59,11.52,2.08,2.08,0,0,1-.09,2.37c-1.77,1.4-2.92,1.81-4,1.23a5.3,5.3,0,0,1-1.66-1.64C230.48,306,229.63,305.05,228.68,303.76ZM163,311.46a40.29,40.29,0,0,1,9.1-13.33,36.91,36.91,0,0,0-9.06,13.34Z"/><path class="cls-12" d="M231.33,284.16a5.45,5.45,0,0,1-1.58-.3l-13.11-4.66L178,277.78a5.3,5.3,0,0,1,.39-10.59l40.3,1.48,14.65,5.21a5.3,5.3,0,0,1-2,10.28Z"/><path class="cls-13" d="M255.46,346.83l-52.91-11.67c-.54-.12-1.11-.21-1.71-.31-3.19-.54-8-1.36-7.83-6.5.2-5.32,5-5.55,8.85-5.73.57,0,1.14-.05,1.71-.1,4.4-.32,21.74.92,22.48,1l-.15,2.11c-.18,0-17.92-1.29-22.18-1-.58.05-1.17.07-1.76.1-4.66.23-6.72.64-6.83,3.7s2.33,3.7,6.06,4.33c.63.11,1.25.21,1.81.34l52.91,11.66Z"/><rect class="cls-9" x="187.2" y="266.01" width="3.18" height="60.53" transform="translate(-98.8 94.5) rotate(-22.44)"/><path class="cls-9" d="M234.62,299.64a1.62,1.62,0,0,1-1.46-1.1l-4.07-12.4-8.72-4-37.85-1.39a1.59,1.59,0,0,1,.11-3.18L221.11,279l10.57,4.84,4.51,13.72a1.6,1.6,0,0,1-1,2A1.75,1.75,0,0,1,234.62,299.64Z"/><path class="cls-12" d="M317.36,277.76l-4.25-.15,4-1.39c.25-.08,24.83-8.8,30.8-32.7a35.18,35.18,0,0,0,1.17-7.74c-3.46-4.31-8.7-7.83-14.15-8l-3.76-.14,3.5-1.38c.34-.14,8.33-3.23,12.95.81,2,1.73,3,4.48,3,8.2a22.48,22.48,0,0,1,3.07,5.27A25.42,25.42,0,0,1,348.49,267C341.86,273.76,326.77,278.11,317.36,277.76Zm33.2-40a41.37,41.37,0,0,1-1.09,6.1c-4.71,18.86-20.58,28.57-28,32.16,8.92-.79,20.57-4.76,25.86-10.19a23.8,23.8,0,0,0,4.92-24.78A20.27,20.27,0,0,0,350.56,237.8Zm-11.78-11A23.14,23.14,0,0,1,349,233.25a7.83,7.83,0,0,0-2.36-5C344.45,226.35,341.23,226.37,338.78,226.78Z"/><path class="cls-14" d="M325.55,271.94a57.64,57.64,0,0,0-8.36,6.58,96.07,96.07,0,0,0-7.58,8.17A72.88,72.88,0,0,0,298.94,305a105.18,105.18,0,0,1-11.08,20.81,58.56,58.56,0,0,1-8.11,9.05c-.8.69-1.62,1.32-2.47,2a43.15,43.15,0,0,1-3.68,2.39,26.12,26.12,0,0,1-7.89,2.86c-1.29.14-2.59.34-3.93.37L260,339.29l-.94-1.62a3.35,3.35,0,0,1-.39-1l-.36-1.09-1.43-4.44-.34-1.05-.24-.64-.48-1.29-1-2.59c-.69-1.71-1.42-3.42-2.17-5.12a93.84,93.84,0,0,1-6.48-21.37c-1-5.63-2.53-11.24-1.75-17.27,0-.67,1.18-1.68,2.57-2.11l2.77-.82.43-.14.43-.13c3.48-.95,4.58.88,2.9,2.21,5.17,5,3,12.55,4.2,18.74,1.11,5.75,4.45,11,6.05,16.62.91,3.21,1.92,6.42,3,9.59a9.67,9.67,0,0,0,1,2.48,10.76,10.76,0,0,0,.63,1c0,.1.16,0,.28,0l.33-.18a4.52,4.52,0,0,0,.58-.39,4.71,4.71,0,0,0,.81-.8l.14-.18.68-.63a17.89,17.89,0,0,0,1.48-1.41c.48-.51,1-1,1.45-1.49l1.4-1.67a63.78,63.78,0,0,0,9.33-16l1.76-4.48,2-5,1.05-2.54,1.21-2.49a52.21,52.21,0,0,1,2.58-4.93,60.68,60.68,0,0,1,13.06-16c2.44-2.18,4.81-4.52,7.4-6.71a22.11,22.11,0,0,1,9.28-4.82,1.7,1.7,0,0,1,1.33.48,4.4,4.4,0,0,1,1.15,1.45,39.6,39.6,0,0,1,1.81,4.95l.44,1.58a5.54,5.54,0,0,1,.13,1.14C328,270.55,327.14,270.93,325.55,271.94Zm-34.79,35.6,4.1-9.32c-.76,1.54-1.51,3.1-2.22,4.65S291.32,306,290.76,307.54Z"/><path class="cls-14" d="M293.37,307.72a21,21,0,0,1-4,5.19,24.66,24.66,0,0,1-5.08,3.7,21.17,21.17,0,0,1-5.83,2c-2,.37-3.83.58-5.78.82s-4,.37-6.06.5a11.69,11.69,0,0,1-6.11-1.36,8.13,8.13,0,0,1-3.81-3.19,1.42,1.42,0,0,1,.36-1.15l.65-.86.1-.13.11-.13c.8-1.08,1.23-1,1-.33,1.84-.43,2.47,1.54,3.89,2.24a13.58,13.58,0,0,0,4.16.48,29.66,29.66,0,0,0,9.42-1,16,16,0,0,0,7.93-3.71c1-.84,2.06-1.78,3.13-2.77s1.33-2.47,2.55-3.35a1.64,1.64,0,0,1,1,.24C294,306.57,293.94,306.69,293.37,307.72ZM281.89,315a15,15,0,0,0,2.17-1.14Z"/><path class="cls-10" d="M334.3,244.11l1-.36-.36-1-.77-2.08-.36-1-.05.05-1,.36a27.1,27.1,0,0,0-7.23,3.53,12.22,12.22,0,0,0-4.6,8.44,34.61,34.61,0,0,0,1.45,7.48L325,267.7l.32,1,1-.32,2.11-.67,1-.32-.32-1-2.58-8.08a32.38,32.38,0,0,1-1.23-6,8,8,0,0,1,2.88-5.27A24.14,24.14,0,0,1,334.3,244.11Z"/><path class="cls-15" d="M335.07,279.33l-1,.37a1.2,1.2,0,0,0,.19-1l-5.71-18.91v-.11l-2.08-5.24a1.21,1.21,0,0,0-1.5-.7l-5,1.63a1.23,1.23,0,0,0-.79,1.52l6.13,20.38v.14l1.58,3.75a1.21,1.21,0,0,0,1.54.71h0l-1.52.57,1.11,3,8.2-3.06Z"/><path class="cls-14" d="M351.34,333.11a60.08,60.08,0,0,1-4.12-7.29c-2.24-4.68-4.67-9.19-6.82-13.9s-4-9.35-6.5-13.83a25.73,25.73,0,0,1-2.65-7.26,16.08,16.08,0,0,1-.65-6c0-.24.46-.59,1-.74l1-.31h.31c1.3-.34,1.71.26,1.06.73,1.88,1.65,1.05,4.22,1.49,6.3a48.89,48.89,0,0,0,2.47,5.29c1.57,4.26,3.83,8.19,5.73,12.25s4.26,8.18,6.43,12.29c1,1.86,1.93,3.8,2.77,5.74s2.32,3.3,2.88,5.27a1.52,1.52,0,0,1-.63.89C352.34,334.52,352.19,334.38,351.34,333.11Zm-6.26-17c.53,1,1,2.07,1.61,3.09a32,32,0,0,0-1.57-3.09Z"/><path class="cls-14" d="M248.55,292.12c-2.62,2.07-5.31,4-8.13,5.9-5.15,3.46-10,7.29-14.93,11a131.27,131.27,0,0,0-14.09,11.7,43.5,43.5,0,0,1-7.21,5.76,25.28,25.28,0,0,1-6.3,3.41,1.33,1.33,0,0,1-1.14-.57l-.67-.85-.12-.13-.09-.14c-.82-1.08-.27-1.73.44-1.38,1.22-2.63,4.35-3.09,6.52-4.51s3.56-3.31,5.47-4.82c4.4-3.38,8.41-7.23,12.77-10.65s8.86-7.14,13.34-10.59a66.84,66.84,0,0,1,6.51-4.39c2.24-1.36,3.79-3.3,6.08-4.23.22-.1.71.15,1,.52C250.24,290.79,250,291,248.55,292.12Zm-19,10.75,3.35-2.53A39.19,39.19,0,0,0,229.59,302.87Z"/><path class="cls-14" d="M260.06,338.12c-3.43-.31-6.73-.79-10.08-1.36-6.21-1.07-12.42-1.65-18.67-2.41a134.71,134.71,0,0,0-18.5-1.31,43.43,43.43,0,0,1-9.31-.85,25.52,25.52,0,0,1-7-1.89,1.33,1.33,0,0,1-.44-1.2l0-1.08v-.35c.16-1.33,1-1.46,1.3-.69,2.74-1.07,5.36.78,7.94,1.26s4.95,0,7.41.27c5.58.6,11.23.6,16.8,1.15s11.46.93,17.15,1.57c2.62.3,5.25.76,7.85,1.32s5,.29,7.41,1.15c.24,0,.4.6.39,1.07C262.26,338.32,261.92,338.29,260.06,338.12Zm-21.41-5.36,4.23.5A40,40,0,0,0,238.65,332.76Z"/><path class="cls-12" d="M340.21,240.21l-3.79-10.29a3.15,3.15,0,0,0-2.83-2h0a3,3,0,0,0-1.19.19l-1.37.51a3.14,3.14,0,0,0-1.8,1.72,5.74,5.74,0,0,0-1.33-.31l0-.08a4.16,4.16,0,0,0-1.52.23,4.41,4.41,0,0,0-2.65,2.78,6.2,6.2,0,0,0,.06,4.1,5.61,5.61,0,0,0,4.81,3.94,3.94,3.94,0,0,0,1.52-.24,5,5,0,0,0,1.59-1.14l1.22,3.31a3.13,3.13,0,0,0,4,1.88h0l1.36-.5A3.16,3.16,0,0,0,340.21,240.21Z"/><path class="cls-12" d="M329.83,235.05l-.55-1.24a2.84,2.84,0,0,0-2.46-1.66,2.81,2.81,0,0,0-1.24.25l-13,5.87a2.8,2.8,0,0,0-1.41,3.7l.56,1.24a2.8,2.8,0,0,0,3.7,1.41l13-5.87A2.8,2.8,0,0,0,329.83,235.05Z"/><path class="cls-12" d="M263.18,257.45a4.14,4.14,0,0,0-1.29-2.08,7.73,7.73,0,0,0-1.68-1.07,14.22,14.22,0,0,0-3.22-1.15c-1.82-.41-2.55-.44-2.76.54a.88.88,0,0,0-.64-.75c-3-.73-5.94-.45-8.36-1.12a23.21,23.21,0,0,1-4.71-2.06,15.58,15.58,0,0,0-5.93-1.94,8.14,8.14,0,0,0-6.47,2,5.82,5.82,0,0,0-1.65,3.21,7.79,7.79,0,0,0,.23,3.36,11.88,11.88,0,0,0,3.34,5.29,14.77,14.77,0,0,0,5.14,3.23,12.29,12.29,0,0,0,6.24.64A14.41,14.41,0,0,0,247,263a8.73,8.73,0,0,1,4.54-1.86c1.65.07,3.58.59,5.6.79a8.58,8.58,0,0,0,3.7-.3,3.78,3.78,0,0,0,1.9-1.65A3.5,3.5,0,0,0,263.18,257.45Z"/><path class="cls-9" d="M195.18,313.71a1.59,1.59,0,0,1-.94-2.83l37.89-30.61a1.59,1.59,0,1,1,2,2.47l-37.89,30.62A1.63,1.63,0,0,1,195.18,313.71Z"/><path class="cls-12" d="M243.3,330.64c12.1,2.36,10.76,19,10.76,19s5.94.94,9.51,1.32,14.28,1.24,15.72-12.09-12.35-15.27-12.35-15.27-33.83-2.2-42.42-2.52a20,20,0,0,0-10.63,2.26,1,1,0,0,0-.43.61.94.94,0,0,0,.73,1.12C219.6,326.11,233.69,328.74,243.3,330.64Z"/><path class="cls-9" d="M282.9,366.14a1.58,1.58,0,0,1-1.34-.84l-14.32-26.8a1.59,1.59,0,0,1,2.81-1.5l14.31,26.8a1.58,1.58,0,0,1-.65,2.15A1.56,1.56,0,0,1,282.9,366.14Z"/><path class="cls-16" d="M266,348.94a10.8,10.8,0,1,1,11.18-10.39A10.81,10.81,0,0,1,266,348.94Zm.75-20.52a9.74,9.74,0,1,0,9.37,10.09A9.75,9.75,0,0,0,266.77,328.42Z"/><path class="cls-17" d="M304.18,282.36a1.5,1.5,0,1,1,.39,2.08h0A1.5,1.5,0,0,1,304.18,282.36Zm-1-.69a2.7,2.7,0,1,0,3.76-.71,2.7,2.7,0,0,0-3.76.71Z"/><path class="cls-17" d="M303.43,287.39a5.17,5.17,0,0,0,.36-2.33,6,6,0,0,0-2.94-4.43l-.5-.34-1.2,1.68,1,.69.49-.73a4.3,4.3,0,0,1,1.76,4.49l-5.48-1.21-1.09,1.57,1,.69.62-.9,5.68,1.26Z"/><path class="cls-17" d="M302.72,288.31a2.69,2.69,0,1,1-1.12-.77.76.76,0,0,0-.32.27l-.55.79a1.52,1.52,0,0,0-.66.12,1.5,1.5,0,1,0,2,.77l.55-.79A.79.79,0,0,0,302.72,288.31Z"/><path class="cls-17" d="M302.35,288.54a.49.49,0,1,0-.8-.55l-1.15,1.68a.48.48,0,0,0,.13.67.48.48,0,0,0,.68-.13l1.14-1.67Z"/><path class="cls-18" d="M310.93,230.26h0Z"/><path class="cls-19" d="M206.29,379.79c0-18.43-18.4-34.16-44.29-40.34,6.15-15.12,3.88-27.52-7.46-31.21-8.66-2.82-20.86,0-33.3,6.78,6.83-25.64,1.11-46.31-15.3-49.2-9.63-1.69-21.16,3.06-32.14,12.15-10.89-16.9-27.65-27.73-46.45-27.73-32.81,0-59.42,33-59.42,73.7,0,1.57,0,3.13.13,4.67-9,8.63-14.25,19.31-14.25,30.87,0,10.74,4.57,20.72,12.39,29H204.9A28.07,28.07,0,0,0,206.29,379.79Z"/><path class="cls-6" d="M144.11,357.47c6.15-15.12,3.88-27.52-7.47-31.21-8.66-2.82-20.85,0-33.29,6.78,6.83-25.64,1.11-46.31-15.3-49.2C78.42,282.15,66.89,286.9,55.9,296,45,279.08,28.26,268.25,9.46,268.25a50.34,50.34,0,0,0-27.78,8.54C-26.9,289.57-32.07,306-32.07,323.94c0,1.57,0,3.13.13,4.67-9,8.63-14.25,19.31-14.25,30.87,0,10.74,4.57,20.72,12.39,29H186.77C181.76,374.2,165.49,362.57,144.11,357.47Z"/><path class="cls-20" d="M1778.68,191.32h99a2,2,0,0,1,2,2v65.84a0,0,0,0,1,0,0h-103a0,0,0,0,1,0,0V193.32A2,2,0,0,1,1778.68,191.32Z"/><rect class="cls-21" x="1780.36" y="196.43" width="95.69" height="56.66"/><polygon class="cls-22" points="1876.04 196.43 1780.36 253.09 1876.04 253.09 1876.04 196.43"/><path class="cls-17" d="M1769.26,257.22h117.87a.61.61,0,0,1,.61.61v4.79a1.66,1.66,0,0,1-1.66,1.66H1770.32a1.66,1.66,0,0,1-1.66-1.66v-4.79A.61.61,0,0,1,1769.26,257.22Z"/><rect class="cls-23" x="1816.37" y="260.75" width="23.66" height="1.93"/><rect class="cls-23" x="1842" y="260.75" width="8.84" height="1.93"/><rect class="cls-23" x="1805.56" y="260.75" width="8.84" height="1.93" transform="translate(3619.96 523.42) rotate(180)"/><rect class="cls-24" x="1668.95" y="264.3" width="363.76" height="16.13"/><polygon class="cls-25" points="1837.02 264.3 1668.95 264.3 1668.95 280.43 1828.05 280.43 1837.02 264.3"/><rect class="cls-26" x="1668.95" y="280.43" width="363.76" height="204.88"/><polygon class="cls-27" points="2032.72 314.31 2032.72 280.43 1668.95 280.43 1668.95 485.32 1731.33 485.32 1731.33 314.31 2032.72 314.31"/><rect class="cls-7" x="1454.39" y="256.24" width="235.54" height="16.13"/><path class="cls-28" d="M1644.36,369h112.45a21.35,21.35,0,0,0,17.62-9.25c14.32-20.84,46.53-77.05,54.49-170a10.64,10.64,0,0,0-13.57-11.14c-7.23,2.2-15.94,7.23-23,18.41-12.1,19-7.94,109.69-116.5,126.14C1642.79,328.1,1644.36,369,1644.36,369Z"/><rect class="cls-29" x="1652.94" y="368.95" width="108.25" height="9.39"/><rect class="cls-30" x="1652.94" y="368.54" width="108.25" height="2.35"/><rect class="cls-31" x="1694.91" y="378.34" width="24.31" height="26.84"/><rect class="cls-32" x="1694.91" y="378.34" width="24.31" height="4.54"/><rect class="cls-29" x="1694.91" y="444.15" width="24.31" height="7.94"/><rect class="cls-30" x="1694.91" y="444.15" width="24.31" height="2.16"/><rect class="cls-17" x="1700.21" y="405.18" width="13.71" height="38.97"/><rect class="cls-33" x="1700.21" y="405.18" width="13.71" height="2.78"/><path class="cls-17" d="M1719.22,452.09h-24.31a212.22,212.22,0,0,0-52.07,9v9c30.31-9.38,98.15-9.38,128.46,0v-9A212.24,212.24,0,0,0,1719.22,452.09Z"/><rect class="cls-31" x="1771.3" y="465.48" width="3.39" height="8.67"/><rect class="cls-31" x="1639.45" y="465.48" width="3.39" height="8.67" transform="translate(3282.29 939.64) rotate(180)"/><path class="cls-20" d="M1780.44,477.58a7.45,7.45,0,1,1-7.45-7.45A7.45,7.45,0,0,1,1780.44,477.58Z"/><path class="cls-20" d="M1633.7,477.58a7.45,7.45,0,1,0,7.44-7.45A7.44,7.44,0,0,0,1633.7,477.58Z"/><path class="cls-34" d="M1815.35,178.55c-7.23,2.2-15.13,7.79-23,18.41-8.9,11.93-6.93,42.18-28.53,75A117.06,117.06,0,0,1,1753,285.82c-9.65,10.67-16.37,14.35-16.37,14.35s34-10.66,62.37-84.42c6.83-17.74,6.54-31,22-37.29A10.3,10.3,0,0,0,1815.35,178.55Z"/><rect class="cls-5" x="1475.36" y="272.37" width="193.59" height="212.95"/><path class="cls-17" d="M1484.45,249.93l27-59.66-5.74-2.61-27,59.53a14,14,0,0,0-1.24,5.74h0a3.31,3.31,0,0,0,3.3,3.31h65v-6.31Z"/><rect class="cls-20" x="1513.17" y="112.7" width="4.21" height="131.96" transform="translate(-5.31 304.41) rotate(-11.45)"/><path class="cls-17" d="M1501.06,119.1c-4.22,6.29-3.18,32,2.88,61.88s15.1,54,21.43,58.12Z"/><path class="cls-28" d="M1591.8,191.32a51.59,51.59,0,0,0-12.27,14.41,51.6,51.6,0,0,0-5.67-18.07,51.6,51.6,0,0,0-5.67,18.07,51.59,51.59,0,0,0-12.27-14.41,47.16,47.16,0,0,0,17.94,42.26,47.16,47.16,0,0,0,17.94-42.26Z"/><path class="cls-29" d="M1558.1,222h31.52a0,0,0,0,1,0,0v29.87a4.39,4.39,0,0,1-4.39,4.39h-22.74a4.39,4.39,0,0,1-4.39-4.39V222A0,0,0,0,1,1558.1,222Z"/><path class="cls-35" d="M1558.49,247.55a11.48,11.48,0,0,0,11.11,8.69h8.51a11.51,11.51,0,0,0,11.51-11.51V222C1578.5,240.36,1564.36,246,1558.49,247.55Z"/><rect class="cls-36" x="1703.78" y="202.57" width="3.15" height="45.54" transform="matrix(1, -0.09, 0.09, 1, -13.49, 157.74)"/><rect class="cls-37" x="1708.45" y="205.21" width="3.15" height="45.54" transform="translate(-1.84 14.22) rotate(-0.48)"/><rect class="cls-28" x="1711.02" y="207.06" width="3.15" height="45.54" transform="translate(71.95 -312.48) rotate(10.65)"/><rect class="cls-5" x="1701.69" y="208.79" width="3.15" height="45.54" transform="translate(3419.99 144.39) rotate(169.35)"/><polygon class="cls-17" points="1719.57 264.27 1698.28 264.27 1695.13 223.26 1722.73 223.26 1719.57 264.27"/><path class="cls-29" d="M1913.72,256.24h-6.48a8.07,8.07,0,0,0-8.07,8.06h22.61A8.06,8.06,0,0,0,1913.72,256.24Z"/><rect class="cls-37" x="1475.36" y="272" width="193.59" height="13.82"/></g><polygon class="cls-38" points="1856.84 113.05 1868.19 35.51 1913.91 107.25 1913.55 113.05 1856.84 113.05"/><polygon class="cls-38" points="1929.84 49.69 1949.14 81.23 1949.14 113.05 1919.02 113.05 1913.73 79.29 1929.84 49.69"/><rect class="cls-24" x="1724.9" y="107.25" width="224.25" height="11.59"/><rect class="cls-36" x="1750.15" y="33.97" width="23.71" height="73.36"/><path class="cls-39" d="M1773.86,34c0,51.8-23.71,73.36-23.71,73.36h23.71Z"/><rect class="cls-17" x="1755.26" y="39.52" width="13.48" height="41.71"/><path class="cls-40" d="M1767.08,94.18A5.08,5.08,0,1,1,1762,89.1,5.07,5.07,0,0,1,1767.08,94.18Z"/><rect class="cls-34" x="1773.86" y="33.97" width="23.71" height="73.36"/><path class="cls-28" d="M1797.57,34c0,51.8-23.71,73.36-23.71,73.36h23.71Z"/><rect class="cls-17" x="1778.97" y="39.52" width="13.48" height="41.71"/><path class="cls-40" d="M1790.79,94.18a5.08,5.08,0,1,1-5.08-5.08A5.07,5.07,0,0,1,1790.79,94.18Z"/><rect class="cls-41" x="1797.57" y="33.97" width="23.71" height="73.36"/><path class="cls-42" d="M1821.28,34c0,51.8-23.71,73.36-23.71,73.36h23.71Z"/><rect class="cls-17" x="1802.68" y="39.52" width="13.48" height="41.71"/><path class="cls-40" d="M1814.5,94.18a5.08,5.08,0,1,1-5.08-5.08A5.07,5.07,0,0,1,1814.5,94.18Z"/><rect class="cls-5" x="1821.28" y="33.97" width="23.71" height="73.36"/><path class="cls-37" d="M1845,34c0,51.8-23.71,73.36-23.71,73.36H1845Z"/><rect class="cls-17" x="1826.39" y="39.52" width="13.48" height="41.71"/><path class="cls-40" d="M1838.21,94.18a5.08,5.08,0,1,1-5.08-5.08A5.07,5.07,0,0,1,1838.21,94.18Z"/><rect class="cls-43" x="1844.99" y="33.97" width="23.71" height="73.36"/><path class="cls-44" d="M1868.69,34c0,51.8-23.7,73.36-23.7,73.36h23.7Z"/><rect class="cls-17" x="1850.1" y="39.52" width="13.48" height="41.71"/><path class="cls-40" d="M1861.92,94.18a5.08,5.08,0,1,1-5.08-5.08A5.08,5.08,0,0,1,1861.92,94.18Z"/><path class="cls-28" d="M1929.66,49.69a45.88,45.88,0,0,0-10.9,12.8,45.68,45.68,0,0,0-5-16,45.92,45.92,0,0,0-5,16,45.7,45.7,0,0,0-10.9-12.8,45.14,45.14,0,0,0,3.1,20.83,45.1,45.1,0,0,0,12.83,16.7,45.07,45.07,0,0,0,12.84-16.7A45.05,45.05,0,0,0,1929.66,49.69Z"/><polygon class="cls-40" points="1924.11 107.33 1903.35 107.33 1899.74 76.92 1927.72 76.92 1924.11 107.33"/><path class="cls-45" d="M1927.72,76.92c-4.31,8.65-24.37,30.41-24.37,30.41h20.76Z"/></g></g></g></svg>