<svg xmlns="http://www.w3.org/2000/svg" viewBox="0 0 144 86"><defs><style>.cls-1{fill:#fff;}.cls-2{fill:#232323;stroke:#fff;stroke-linecap:round;stroke-linejoin:round;}.cls-3{fill:none;}.cls-4{fill:#fcc670;}.cls-5{fill:#eb5c40;}</style></defs><title>nos_offres_livreur</title><g id="Nos_offres_1" data-name="Nos offres 1"><g id="bloc_1-5" data-name="bloc 1"><circle class="cls-1" cx="72" cy="43" r="42.99"/></g></g><g id="Calque_116" data-name="Calque 116"><path class="cls-2" d="M105.6,64.18h0"/><path class="cls-3" d="M87.88,28.73l-.12-.06"/><path class="cls-4" d="M104.3,64.07a1.11,1.11,0,0,1-.09.44,72.1,72.1,0,0,0-9.66-1.16c-4.13-.34-12.59-.92-22.81-1H71.6c-10.22.1-18.68.68-22.81,1a70,70,0,0,0-9.66,1.16,1,1,0,0,1-.08-.44c0-.21,0-1.08,0-2.19,0-2,0-4.73-.05-5.63,0,3.62,2.28,4.07,2.38,4.09l.12,0H101.8l.12,0a2.6,2.6,0,0,0,1.22-.69,4.46,4.46,0,0,0,1.15-3.07C104.27,58.39,104.22,63.52,104.3,64.07Z"/><path class="cls-4" d="M103.89,65.74c-.45.77-1.07,1.93-1.28,2.33a15.2,15.2,0,0,1-3.15.24c-1.14,0-2.14,0-2.37-.07a17.58,17.58,0,0,0-3-.77,75.35,75.35,0,0,0-8.14-1C80.24,66.1,74.22,66,71.89,66h-.14c-4.62,0-16.06.29-22.53,1.5a18.11,18.11,0,0,0-3,.77c-.23,0-1.23.07-2.38.07a15.29,15.29,0,0,1-3.14-.24c-.2-.39-.82-1.54-1.28-2.33,2.32-.56,15.93-1.94,32.16-2.11h.12C88,63.8,101.57,65.18,103.89,65.74Z"/><path class="cls-4" d="M101.71,59.05H41.62c-.26-.09-1.54-.68-1.22-3.77.06-.62.17-1.58.4-2.8a.69.69,0,0,0,0-.13h0v0C41,51.52,43.1,44,44.19,41.74c.11-.19.23-.37.35-.56l.06-.1a.52.52,0,0,1,.42-.2.49.49,0,0,1,.48.37l0,.18,1,12.11c0,1.71.94,3.09,2.1,3.09h1.89c1.16,0,2.1-1.38,2.1-3.09V33.63h0a1.19,1.19,0,0,1,.5-.94l0,0a28.18,28.18,0,0,1,3-1.63h0c.15-.05.68-.16.72.41l1.6,22.36c0,1.57.84,2.83,1.88,2.83H62c1,0,1.87-1.26,1.87-2.83V30.43h0c0-.19,0-2,1.63-2.22a54.86,54.86,0,0,1,6.16-.58,44.3,44.3,0,0,1,6,.56h.07a2.19,2.19,0,0,1,1.7,2.24V53.81c0,1.56.84,2.82,1.87,2.82H83c1,0,1.87-1.26,1.87-2.82l1.6-22.26a.56.56,0,0,1,.81-.48,27.23,27.23,0,0,1,3,1.66,1.19,1.19,0,0,1,.41.84v20c0,1.71.94,3.09,2.09,3.09h1.9c1.16,0,2.1-1.38,2.1-3.09l1-11.73v-.05c.06-.25.34-1.45.88-.78l.4.62h0c1.33,2.65,3.45,11.16,3.65,12,0,0,0,0,0,0h0c.09.54.16,1.09.21,1.64C103.25,58.39,102,59,101.71,59.05Z"/><polygon class="cls-5" points="60.7 20.91 63.18 22.21 62.71 19.45 64.72 17.49 61.94 17.09 60.7 14.57 59.46 17.09 56.68 17.49 58.69 19.45 58.21 22.21 60.7 20.91"/><polygon class="cls-5" points="71.97 19.72 75.69 21.67 74.98 17.53 77.99 14.59 73.83 13.98 71.97 10.21 70.1 13.98 65.94 14.59 68.95 17.53 68.24 21.67 71.97 19.72"/><polygon class="cls-5" points="82.7 20.91 85.19 22.21 84.71 19.45 86.72 17.49 83.94 17.09 82.7 14.57 81.46 17.09 78.69 17.49 80.69 19.45 80.22 22.21 82.7 20.91"/></g></svg>