<svg xmlns="http://www.w3.org/2000/svg" xmlns:xlink="http://www.w3.org/1999/xlink" viewBox="0 0 401.71 440"><defs><style>.cls-1{fill:none;}.cls-2{clip-path:url(#clip-path);}.cls-3{fill:#bedded;}.cls-4{fill:url(#linear-gradient);}.cls-5{fill:url(#linear-gradient-2);}.cls-6{fill:url(#linear-gradient-3);}.cls-7{fill:url(#linear-gradient-4);}.cls-8{fill:#c5e6ee;}.cls-9{fill:#7885b5;}.cls-10{fill:#e5e5e5;}.cls-11{fill:#fff;}</style><clipPath id="clip-path"><rect class="cls-1" width="401.71" height="440"/></clipPath><linearGradient id="linear-gradient" x1="384.1" y1="271.69" x2="455.8" y2="271.69" gradientTransform="translate(839.9 543.37) rotate(-180)" gradientUnits="userSpaceOnUse"><stop offset="0" stop-color="#a3cce3"/><stop offset="1" stop-color="#a3cce3"/></linearGradient><linearGradient id="linear-gradient-2" x1="190.78" y1="287.65" x2="231.74" y2="287.65" gradientTransform="translate(422.52 575.3) rotate(-180)" xlink:href="#linear-gradient"/><linearGradient id="linear-gradient-3" x1="225.28" y1="247.22" x2="277.03" y2="247.22" gradientTransform="translate(502.3 494.44) rotate(-180)" xlink:href="#linear-gradient"/><linearGradient id="linear-gradient-4" x1="275.95" y1="209.68" x2="385.91" y2="209.68" gradientTransform="matrix(1, 0, 0, 1, 0, 0)" xlink:href="#linear-gradient"/></defs><title>nos_velos</title><g id="Nos_vélos_mobile" data-name="Nos vélos mobile"><g id="titre-7" data-name="titre"><g class="cls-2"><g id="illu_fond" data-name="illu fond"><polygon class="cls-3" points="369.34 320.19 479.31 320.19 479.31 39.88 424.43 4.69 369.34 39.88 369.34 320.19"/><rect class="cls-4" x="384.1" y="218.94" width="71.7" height="105.48" transform="translate(839.9 543.37) rotate(180)"/><rect class="cls-5" x="190.78" y="250.87" width="40.97" height="73.56" transform="translate(422.52 575.3) rotate(180)"/><rect class="cls-6" x="225.28" y="170.01" width="51.75" height="154.41" transform="translate(502.3 494.44) rotate(180)"/><polygon class="cls-7" points="385.91 324.43 275.95 324.43 275.95 130.12 330.82 94.93 385.91 130.12 385.91 324.43"/><rect class="cls-8" x="313.97" y="147.21" width="12.26" height="33.02"/><rect class="cls-8" x="344.63" y="147.21" width="12.26" height="33.02"/><rect class="cls-8" x="313.97" y="209.94" width="12.26" height="33.02"/><rect class="cls-8" x="344.63" y="209.94" width="12.26" height="33.02"/><path class="cls-9" d="M145.6,309.5c13.43-12.13,45.18-31,111.11-28.26,47.56,2,116.21,17.37,163.34,10.78,46.33-6.48,91.36-10.75,136-12.17,71.07-2.25,115.54,224.77,6.61,225-84.8.2-170.17-1-259.76-1.47-44.7-.22-365.06-23.26-319.24-32.26C22.22,463.57,85.51,363.82,145.6,309.5Z"/><path class="cls-10" d="M495.23,440.39c-23.45-.14-48.51-7.14-69.22-17.67-8.85-4.5-16.63-10.69-25.35-15.41-27.19-14.69-60.4-13.66-91.52-11.16s-63.57,5.9-92.69-4.94c-11.87-4.43-22.67-11.07-34.24-16.17a143.37,143.37,0,0,0-81.11-10c-4.59-7.4-.93-16.88,3.91-24.1,23.79-35.45,77.08-49.66,117.06-31.21,17.71,8.18,32.29,21.56,49.91,29.89,24.57,11.62,52.92,12.55,80.18,15.31s57.79,4.44,77.37,22.71c8.22,7.66,24.87,20.25,35.35,24.47,21.94,8.82,31.87,9,55.46,9.18,5.73.05,18.16-.2,35.73-.67,13.52-.36,17.94,30.25,0,30.14Z"/><path class="cls-11" d="M205.86,346.39c-23.12-8.9-48.8-19.05-73.85-12.59-1.51.39-1.24,2.87.38,2.78,25.23-1.47,48.69,6.87,71.73,16.13C208,354.27,209.78,347.9,205.86,346.39Z"/><path class="cls-11" d="M327.31,371.16a271.7,271.7,0,0,0-37-4.13c-12.66-.71-25.43-1.71-37.57-5.6-1.95-.62-2.62,2.26-.82,3,11.48,4.7,23.58,6.61,35.84,7.94,12.59,1.37,25.5,1.81,37.77,5.16C329.69,378.66,331.44,372,327.31,371.16Z"/><path class="cls-11" d="M385.42,381.31c-.82-.31-1.4,1.06-.6,1.42a148.36,148.36,0,0,1,46.35,32.68c2.47,2.55,6.49-1.5,3.88-3.88A154.1,154.1,0,0,0,385.42,381.31Z"/></g></g></g></g></svg>