<svg xmlns="http://www.w3.org/2000/svg" viewBox="0 0 144 86"><defs><style>.cls-1{fill:#fff;}.cls-2{fill:#232323;stroke:#fff;stroke-linecap:round;stroke-linejoin:round;}.cls-3{fill:none;}.cls-4{fill:#392d87;}.cls-5{fill:#469fb7;}</style></defs><title>nos_offres_restauration</title><g id="Nos_offres_1" data-name="Nos offres 1"><g id="bloc_1-5" data-name="bloc 1"><circle class="cls-1" cx="72" cy="43" r="42.99"/><path class="cls-2" d="M105.6,61.83h0"/><path class="cls-3" d="M87.88,30.31l-.12,0"/><path class="cls-4" d="M104.3,61.73a.9.9,0,0,1-.09.39,81.9,81.9,0,0,0-9.66-1c-4.13-.3-12.59-.82-22.81-.91H71.6c-10.22.09-18.68.61-22.81.91a79.19,79.19,0,0,0-9.66,1,.76.76,0,0,1-.08-.39c0-.18,0-1,0-1.95,0-1.77,0-4.2-.05-5,0,3.22,2.28,3.62,2.38,3.64h60.5a2.76,2.76,0,0,0,1.22-.62,3.73,3.73,0,0,0,1.15-2.73C104.27,56.69,104.22,61.24,104.3,61.73Z"/><path class="cls-4" d="M103.89,63.22c-.45.68-1.07,1.72-1.28,2.06a16.27,16.27,0,0,1-3.15.22c-1.14,0-2.14,0-2.37-.06a18.79,18.79,0,0,0-3-.68c-2-.35-4.7-.62-8.14-.85-5.74-.38-11.76-.47-14.09-.49h-.14c-4.62,0-16.06.26-22.53,1.34a19.35,19.35,0,0,0-3,.68c-.23,0-1.23.06-2.38.06a16.37,16.37,0,0,1-3.14-.22c-.2-.34-.82-1.36-1.28-2.06,2.32-.5,15.93-1.73,32.16-1.88h.12C88,61.49,101.57,62.72,103.89,63.22Z"/><path class="cls-4" d="M101.71,57.27H41.62c-.26-.08-1.54-.61-1.22-3.35a25.09,25.09,0,0,1,.4-2.49.6.6,0,0,0,0-.12h0v0a83.85,83.85,0,0,1,3.36-9.39c.11-.17.23-.33.35-.5a.24.24,0,0,1,.06-.08.53.53,0,0,1,.42-.18.49.49,0,0,1,.48.32l0,.16,1,10.77c0,1.52.94,2.75,2.1,2.75h1.89c1.16,0,2.1-1.23,2.1-2.75V34.67h0a1,1,0,0,1,.5-.83l0,0a27.67,27.67,0,0,1,3-1.45h0c.15,0,.68-.13.72.38l1.6,19.87c0,1.39.84,2.52,1.88,2.52H62c1,0,1.87-1.13,1.87-2.52V31.81a1.91,1.91,0,0,1,1.63-2c2.23-.29,4.88-.51,6.16-.52a51.92,51.92,0,0,1,6,.5l.07,0a2,2,0,0,1,1.7,2V52.61c0,1.38.84,2.51,1.87,2.51H83c1,0,1.87-1.13,1.87-2.51l1.6-19.79a.55.55,0,0,1,.81-.43,30.49,30.49,0,0,1,3,1.48,1,1,0,0,1,.41.75V52.37c0,1.52.94,2.75,2.09,2.75h1.9c1.16,0,2.1-1.23,2.1-2.75l1-10.43v0c.06-.22.34-1.29.88-.7l.4.55v0c1.33,2.35,3.45,9.92,3.65,10.65,0,0,0,0,0,0h0c.09.48.16,1,.21,1.46C103.25,56.69,102,57.2,101.71,57.27Z"/><polygon class="cls-5" points="60.7 23.36 63.18 24.52 62.71 22.06 64.72 20.32 61.94 19.96 60.7 17.72 59.46 19.96 56.68 20.32 58.69 22.06 58.21 24.52 60.7 23.36"/><polygon class="cls-5" points="71.97 22.3 75.69 24.04 74.98 20.35 77.99 17.74 73.83 17.2 71.97 13.85 70.1 17.2 65.94 17.74 68.95 20.35 68.24 24.04 71.97 22.3"/><polygon class="cls-5" points="82.7 23.36 85.19 24.52 84.71 22.06 86.72 20.32 83.94 19.96 82.7 17.72 81.46 19.96 78.69 20.32 80.69 22.06 80.22 24.52 82.7 23.36"/></g></g></svg>