<svg xmlns="http://www.w3.org/2000/svg" xmlns:xlink="http://www.w3.org/1999/xlink" viewBox="0 0 562.42 588"><defs><style>.cls-1{fill:none;}.cls-2{fill:#eb5c40;}.cls-3{clip-path:url(#clip-path);}.cls-4{fill:#fbbc43;}</style><clipPath id="clip-path"><rect class="cls-1" width="553.88" height="588" transform="translate(553.88 588) rotate(-180)"/></clipPath></defs><title>nos_velos</title><g id="Nos_vélos" data-name="Nos vélos"><g id="des_velos_adaptés" data-name="des velos adaptés"><rect class="cls-2" width="562.42" height="588" transform="translate(562.42 588) rotate(-180)"/><g class="cls-3"><path class="cls-4" d="M854.41-380.21l-436.08-99L-719.13-259.38l-183,192.88,28.21,254.65,53,325.29,36.19,194.68s29.55,297.19,155.49,254.66c187.3-63.25,215.11,43.28,328.35,17.56,83.83-19,92.57-100.47,167.37-148.43C-55,781.59,34.76,807.32,75.6,766.68c71.8-71.43-7.32-180.37-24.65-217C17,478.05,24.13,453.2,31.23,433.86c10-27.26,42-48.76,97.62-46.66,49.91,1.88,160.56,25.44,227.15-16.38,58.17-36.54,61.94-103.75,27-226-37.79-132.43,105.12-151,105.12-151L581-83.87l75.53-23.81"/></g></g></g></svg>