<svg xmlns="http://www.w3.org/2000/svg" viewBox="0 0 144 86"><defs><style>.cls-1{fill:#fff;}.cls-2{fill:#e8bc95;}.cls-3{fill:#3a2722;}</style></defs><title>nos_offres_immobilier</title><g id="Calque_116" data-name="Calque 116"><circle class="cls-1" cx="72" cy="43" r="42.99"/></g><g id="Nos_offres_4" data-name="Nos offres 4"><g id="bloc_2-2" data-name="bloc 2"><rect class="cls-1" x="40.22" y="21.43" width="64.78" height="43.92" rx="1.49" transform="translate(-0.09 0.15) rotate(-0.12)"/><rect class="cls-1" x="39.01" y="20.65" width="64.78" height="43.92" rx="1.49" transform="translate(-0.09 0.15) rotate(-0.12)"/><path class="cls-2" d="M40.69,64.63l9.3,0L49.9,23.73,39,23.75,39.06,63A1.62,1.62,0,0,0,40.69,64.63Z"/><rect class="cls-2" x="53.04" y="49.14" width="18.26" height="1.59" rx="0.79" transform="translate(-0.1 0.13) rotate(-0.12)"/><rect class="cls-2" x="74.63" y="39.13" width="23.11" height="1.59" rx="0.79" transform="matrix(1, 0, 0, 1, -0.08, 0.18)"/><rect class="cls-2" x="74.63" y="35.52" width="23.11" height="1.59" rx="0.79" transform="translate(-0.07 0.18) rotate(-0.12)"/><rect class="cls-2" x="53.05" y="52.43" width="18.26" height="1.59" rx="0.79" transform="translate(-0.11 0.13) rotate(-0.12)"/><rect class="cls-2" x="53.06" y="55.71" width="18.26" height="1.59" rx="0.79" transform="translate(-0.12 0.13) rotate(-0.12)"/><rect class="cls-2" x="74.41" y="45.83" width="23.89" height="11.67" rx="1.53" transform="translate(-0.11 0.18) rotate(-0.12)"/><path class="cls-3" d="M103.76,23.62h0V22.21a2,2,0,0,0,0-.35,1.5,1.5,0,0,0-1.48-1.28h-.11l-61.53.13h-.15A1.49,1.49,0,0,0,39,22.21l.08,40.93a1.49,1.49,0,0,0,1.5,1.49h0l61.79-.12a1.49,1.49,0,0,0,1.49-1.5Zm-57.3-1.95a.52.52,0,1,1-.53.52A.52.52,0,0,1,46.46,21.67Zm-2.22,0a.53.53,0,0,1,0,1,.52.52,0,0,1-.52-.52A.52.52,0,0,1,44.24,21.67Zm-2.22,0a.52.52,0,1,1-.52.52A.52.52,0,0,1,42,21.68ZM40.71,63l-.08-39.24,61.48-.13.08,39.24Z"/><path class="cls-2" d="M67.37,27.9v.83a2.21,2.21,0,0,1,2.21,2.21l0,10.71a2.22,2.22,0,0,1-2.21,2.22l-12.06,0a2.23,2.23,0,0,1-2.22-2.21L53.1,31a2.23,2.23,0,0,1,2.21-2.22l12.06,0V27.9m0,0h0l-12.06,0a3,3,0,0,0-3,3l0,10.72a3,3,0,0,0,3,3h0l12.06,0a3,3,0,0,0,3-3.05l0-10.72a3,3,0,0,0-3-3Z"/></g></g></svg>