<svg xmlns="http://www.w3.org/2000/svg" xmlns:xlink="http://www.w3.org/1999/xlink" viewBox="0 0 1929.37 495.93"><defs><style>.cls-1{fill:none;}.cls-2{clip-path:url(#clip-path);}.cls-3{fill:#f7f5f5;}.cls-4{fill:#c44833;}.cls-5{fill:#e8d6c8;}.cls-6{fill:#3a2722;}.cls-7{fill:#eb5c40;}.cls-8{fill:#fcc670;}.cls-9{fill:#fff;}.cls-10{fill:#2f2f30;}.cls-11{fill:#b2b2b2;}.cls-12{fill:#2b2b2a;}.cls-13{fill:#1d1d1b;}.cls-14{fill:#9d9d9c;}.cls-15{fill:#392d87;}.cls-16{fill:#312783;}.cls-17{fill:#706f6f;}.cls-18{fill:#f9cee3;}.cls-19{fill:#e5ac67;}.cls-20{fill:#e8bc95;}.cls-21{fill:#f7eddc;}.cls-22{fill:#443936;}.cls-23{fill:#6d605c;}.cls-24{fill:#5b504d;}.cls-25{fill:#adadad;}.cls-26{opacity:0.15;}.cls-27{fill:#b5542a;}.cls-28{fill:#ed6843;}</style><clipPath id="clip-path"><path class="cls-1" d="M1927.06,485.81s-391.36-80-577.12-80S889.77,495.93,692.2,495.93,443.82,366.61,276.54,366.61-2.31,405.78-2.31,405.78V0H1927.06Z"/></clipPath></defs><title>nos_offres</title><g id="Nos_offres_4" data-name="Nos offres 4"><g id="title"><g class="cls-2"><rect class="cls-3" x="1.53" width="1920" height="545.89" transform="translate(1923.06 545.89) rotate(-180)"/><g id="illustrations"><rect class="cls-4" x="-122.27" y="152.94" width="128.27" height="141.99" transform="translate(-116.27 447.88) rotate(180)"/><polygon class="cls-4" points="75.92 294.93 0.18 294.93 0.18 -0.13 75.92 40.3 75.92 294.93"/><rect class="cls-4" x="69.12" y="117.99" width="80.6" height="176.95" transform="translate(218.84 412.92) rotate(180)"/><rect class="cls-5" x="15.86" y="48.23" width="11.05" height="29.74"/><rect class="cls-5" x="43.47" y="48.23" width="11.05" height="29.74"/><rect class="cls-5" x="15.86" y="104.73" width="11.05" height="29.74"/><rect class="cls-5" x="43.47" y="104.73" width="11.05" height="29.74"/><rect class="cls-5" x="15.86" y="161.23" width="11.05" height="29.74"/><rect class="cls-5" x="43.47" y="161.23" width="11.05" height="29.74"/><rect class="cls-5" x="15.86" y="217.73" width="11.05" height="29.74"/><rect class="cls-5" x="43.47" y="217.73" width="11.05" height="29.74"/><rect class="cls-5" x="89.77" y="139.56" width="11.05" height="29.74"/><rect class="cls-5" x="117.39" y="139.56" width="11.05" height="29.74"/><rect class="cls-5" x="89.77" y="196.06" width="11.05" height="29.74"/><rect class="cls-5" x="117.39" y="196.06" width="11.05" height="29.74"/><path class="cls-6" d="M84.69,255.84s-2-6.24,1.51-7.9,6.53,7,6.53,7-2.29-10.19,1.49-12.46,7.12,14.3,7.12,14.3.28-7.4,3.09-8.4S108.72,264,108.72,264l-9.63,9.36-14-12Z"/><path class="cls-7" d="M85,292.78a30,30,0,0,1,34.75-33.16,50.12,50.12,0,0,1,86.72,22.19,40.61,40.61,0,0,1,47.5,9.7,47.47,47.47,0,1,1-18.34,65.9,40.14,40.14,0,0,1-7.18,1.52,40.61,40.61,0,0,1-42.41-25.15,50.13,50.13,0,0,1-70.9-14.45A30.05,30.05,0,0,1,85,292.78Z"/><path class="cls-8" d="M-15.63,223.05S39.23,234.71,78.84,253s123.62,84.81,274.83,67c165.79-19.47,133.05,127.15,69.53,134.61l-406,47.68Z"/><path class="cls-9" d="M72.85,250.3h0s-30,11.61-29.82,33.57,36,34.63,59.15,40.37c57.36,14.25,108.2,53.76,111.72,117.3l-98.15,25.38s31.56-71.91,1.33-92.49C91.71,357.17,28.58,359-2.51,334.82L-15.63,223.05S33.93,233.59,72.85,250.3Z"/><path class="cls-7" d="M84.13,279.7a15.81,15.81,0,0,0-10.75,6.15,11,11,0,0,0-6.62-1.3A11.11,11.11,0,0,0,57,296.87a11.77,11.77,0,0,0,.41,1.91l44.27-5.19h0A15.84,15.84,0,0,0,84.13,279.7Z"/><path class="cls-7" d="M88.66,292.35a11.14,11.14,0,0,1,4.4.36,15.83,15.83,0,0,1,30.09,4.8l-44.27,5.2A11.09,11.09,0,0,1,88.66,292.35Z"/><ellipse class="cls-7" cx="155.83" cy="320.67" rx="6.38" ry="1.3" transform="translate(-36.34 20.36) rotate(-6.7)"/><ellipse class="cls-7" cx="167.54" cy="325.78" rx="6.38" ry="1.3" transform="translate(-36.85 21.76) rotate(-6.7)"/><ellipse class="cls-7" cx="53.87" cy="367.52" rx="6.38" ry="1.3" transform="translate(-42.5 8.79) rotate(-6.7)"/><path class="cls-7" d="M13.27,364.85c.09.71,3,.95,6.49.54s6.28-1.32,6.19-2-3-1-6.49-.54S13.19,364.14,13.27,364.85Z"/><ellipse class="cls-7" cx="9.77" cy="359.09" rx="6.38" ry="1.3" transform="translate(-41.81 3.59) rotate(-6.7)"/><path class="cls-10" d="M283.8,369a1.59,1.59,0,0,1-.13-3.15l12.54-2.29a1.59,1.59,0,1,1,.57,3.13L284.24,369A1.64,1.64,0,0,1,283.8,369Z"/><polygon class="cls-11" points="275.43 335.65 258.91 259.52 255.14 260.44 271.66 336.56 275.43 335.65"/><path class="cls-12" d="M354.24,373A37.79,37.79,0,0,0,387,364.37a36.27,36.27,0,0,0,12.18-29.29,37.18,37.18,0,0,0-15.31-28A36.58,36.58,0,0,0,353,301.29a34.8,34.8,0,0,0-23.42,20.18,40.51,40.51,0,0,0-3.22,15.35,39.65,39.65,0,0,0,3.12,15.34A38.45,38.45,0,0,0,336,362.43a51.69,51.69,0,0,0,9.35,8.12c.76.52,1.41,1.57,1.16,2.27l-.47,1.37a.83.83,0,0,1,0,.22l0,.22c-.66,1.67-4,.43-4.69-1.14a26.15,26.15,0,0,1-12.34-9.84,46,46,0,0,1-6.42-14.45A51.41,51.41,0,0,1,320.58,335a38.13,38.13,0,0,1,2.84-14.22,43.29,43.29,0,0,1,23.08-23.2,42.12,42.12,0,0,1,33,.25,43.35,43.35,0,0,1,25.91,42.26A42.89,42.89,0,0,1,400.81,357a41.48,41.48,0,0,1-24,20.54,48.12,48.12,0,0,1-14.89,2.61A34.7,34.7,0,0,1,347.23,377c-.9-.41-1.6-1.36-1.35-2,.56-2.24,1.18-3.24,2.35-3.42a5.66,5.66,0,0,1,2.28.22C351.46,372.25,352.71,372.47,354.24,373ZM401,326.24a40.32,40.32,0,0,1,1.17,16.06A37,37,0,0,0,401,326.19Z"/><path class="cls-11" d="M316.55,333.69a46.83,46.83,0,0,1,51.06-42.06h.19c.72.09,7.15.87,10.14,2.74l-1.6,2.55c-2-1.28-7.11-2.09-8.89-2.3A43.85,43.85,0,0,0,319.55,334Z"/><path class="cls-11" d="M166.08,311.33l-2.89-.82A46.82,46.82,0,0,1,221,278.37l-.72,2.92A43.84,43.84,0,0,0,166.08,311.33Z"/><path class="cls-11" d="M252.34,326.19a43.38,43.38,0,0,0-33.87-45.48l.64-2.94a46.41,46.41,0,0,1,36.23,48.65Z"/><path class="cls-12" d="M239.62,300.91a37.8,37.8,0,0,0-30.13-15.39,36.31,36.31,0,0,0-28.6,13.75,37.2,37.2,0,0,0-7.19,31.07,36.59,36.59,0,0,0,19.15,24.89,34.79,34.79,0,0,0,30.91.54,40.63,40.63,0,0,0,12.61-9.33,39.8,39.8,0,0,0,7.88-13.5,38.55,38.55,0,0,0,2-12,51.62,51.62,0,0,0-1.57-12.25,2.43,2.43,0,0,1,.63-2.48l1.24-.76.18-.14.2-.1c1.6-.78,3.23,2.34,2.74,4a26,26,0,0,1,2.61,15.59,46.07,46.07,0,0,1-4.83,15.08,51.89,51.89,0,0,1-8.07,11.88,38,38,0,0,1-11.58,8.72,43.25,43.25,0,0,1-32.62,1.83,42.11,42.11,0,0,1-24.4-22.19,43.13,43.13,0,0,1,23.55-58.33,41.44,41.44,0,0,1,31.62.68,47.87,47.87,0,0,1,12.83,8,34.49,34.49,0,0,1,8.88,12.07,2.1,2.1,0,0,1-.23,2.37c-1.85,1.28-3,1.62-4,1a5.42,5.42,0,0,1-1.56-1.74C241.28,303.21,240.5,302.25,239.62,300.91Zm-66,3.71a40.3,40.3,0,0,1,9.88-12.75,37.08,37.08,0,0,0-9.85,12.77Z"/><path class="cls-13" d="M243.45,281.5a5.2,5.2,0,0,1-1.56-.4l-12.8-5.44-38.52-3.75a5.29,5.29,0,0,1,1-10.54l40.14,3.91L246,271.35a5.3,5.3,0,0,1-2.59,10.15Z"/><path class="cls-14" d="M263.75,345.51l-52.11-14.84c-.52-.15-1.09-.28-1.68-.42-3.16-.73-7.92-1.83-7.42-6.95.51-5.3,5.31-5.24,9.17-5.19.57,0,1.15,0,1.71,0,4.42-.06,21.65,2.23,22.39,2.33l-.28,2.1c-.18,0-17.81-2.37-22.08-2.32h-1.77c-4.66-.06-6.74.23-7,3.27s2.1,3.84,5.79,4.69c.63.15,1.23.29,1.79.45l52.11,14.83Z"/><rect class="cls-10" x="198.67" y="260.77" width="3.18" height="60.53" transform="translate(-83.77 80.96) rotate(-18.98)"/><path class="cls-10" d="M245.8,297.15a1.61,1.61,0,0,1-1.39-1.18l-3.31-12.63-8.47-4.51-37.7-3.67a1.59,1.59,0,1,1,.31-3.17l38.32,3.74,10.26,5.46,3.67,14a1.59,1.59,0,0,1-1.14,1.94A1.71,1.71,0,0,1,245.8,297.15Z"/><path class="cls-13" d="M329.71,280.31l-4.23-.41,4.09-1.14c.26-.07,25.32-7.29,32.72-30.79a34.82,34.82,0,0,0,1.63-7.65c-3.19-4.51-8.2-8.34-13.63-8.87l-3.75-.36,3.58-1.18c.34-.11,8.5-2.72,12.87,1.59,1.87,1.86,2.72,4.66,2.53,8.37a22.34,22.34,0,0,1,2.75,5.45,25.41,25.41,0,0,1-6.83,26.09C354.41,277.8,339.08,281.22,329.71,280.31Zm35.55-37.88a40.62,40.62,0,0,1-1.46,6C358,267,341.54,275.72,333.94,278.85c8.95-.24,20.82-3.5,26.43-8.6a23.85,23.85,0,0,0,6.4-24.45A21.18,21.18,0,0,0,365.26,242.43Zm-11.09-11.72a23.16,23.16,0,0,1,9.77,7.07,7.77,7.77,0,0,0-2.06-5.15C359.85,230.62,356.64,230.45,354.17,230.71Z"/><path class="cls-15" d="M338.24,275a57.72,57.72,0,0,0-8.74,6.06,94.58,94.58,0,0,0-8.06,7.7,72.49,72.49,0,0,0-11.76,17.67,105.11,105.11,0,0,1-12.32,20.1,58.62,58.62,0,0,1-8.64,8.54c-.84.64-1.69,1.22-2.58,1.85s-2.55,1.48-3.83,2.17a26,26,0,0,1-8,2.38c-1.3.06-2.61.18-3.95.13l-1.63-3.33-.84-1.67a3.67,3.67,0,0,1-.33-1l-.29-1.12L266.06,330l-.27-1.06-.2-.66-.4-1.32-.87-2.64q-.88-2.62-1.86-5.24a93.79,93.79,0,0,1-5.17-21.72c-.68-5.68-1.85-11.38-.72-17.35.07-.67,1.28-1.6,2.7-1.95l2.81-.66.44-.11.44-.1c3.53-.74,4.52,1.15,2.76,2.38,4.86,5.33,2.22,12.71,3.06,19,.77,5.81,3.78,11.22,5,16.95q1.08,4.9,2.4,9.76a11.22,11.22,0,0,0,1.41,3.59c0,.1.16,0,.28,0l.34-.16a4.54,4.54,0,0,0,.6-.36,4.31,4.31,0,0,0,.85-.74l.16-.18.71-.59a16.26,16.26,0,0,0,1.57-1.31c.51-.49,1-.92,1.53-1.41l1.5-1.58a63.62,63.62,0,0,0,10.28-15.38l2-4.36,2.3-4.82,1.21-2.47,1.36-2.41a50.14,50.14,0,0,1,2.86-4.77,60.79,60.79,0,0,1,14-15.22c2.56-2,5.07-4.22,7.79-6.25a22.12,22.12,0,0,1,9.56-4.26,1.75,1.75,0,0,1,1.29.56,4.35,4.35,0,0,1,1.06,1.52,39,39,0,0,1,1.51,5.05l.35,1.61a6.29,6.29,0,0,1,.06,1.15C340.76,273.75,339.88,274.08,338.24,275Zm-36.87,33.43,4.64-9.05c-.85,1.49-1.69,3-2.49,4.51S302,306.88,301.37,308.42Z"/><path class="cls-15" d="M304,308.76a20.69,20.69,0,0,1-4.35,4.93,23.93,23.93,0,0,1-5.29,3.39,21.31,21.31,0,0,1-5.95,1.69c-2,.25-3.85.35-5.82.47s-4,.13-6.07.13a11.62,11.62,0,0,1-6-1.72,8.15,8.15,0,0,1-3.61-3.41,1.45,1.45,0,0,1,.42-1.14l.7-.81.12-.13.12-.12c.86-1,1.28-1,1-.27,1.86-.32,2.37,1.68,3.75,2.47a13.48,13.48,0,0,0,4.12.73,29.46,29.46,0,0,0,9.46-.42,15.94,15.94,0,0,0,8.14-3.22c1.06-.78,2.17-1.65,3.29-2.58s1.48-2.38,2.75-3.19a1.62,1.62,0,0,1,1,.31C304.69,307.66,304.59,307.77,304,308.76Zm-11.91,6.62a15.51,15.51,0,0,0,2.24-1Z"/><path class="cls-11" d="M348.65,247.74l1-.3-.3-1-.64-2.12-.3-1-.06.05-1,.3a27.43,27.43,0,0,0-7.44,3.09,12.21,12.21,0,0,0-5.09,8.14,34.36,34.36,0,0,0,1,7.56l2.09,8.29.27,1,1-.26,2.15-.54,1-.26-.26-1L340,261.45a32,32,0,0,1-.86-6.08,7.88,7.88,0,0,1,3.19-5.08A23.75,23.75,0,0,1,348.65,247.74Z"/><path class="cls-16" d="M347.3,282.94l-1,.31a1.21,1.21,0,0,0,.24-1L342,263v-.1l-1.76-5.36a1.23,1.23,0,0,0-1.46-.8l-5.13,1.34a1.21,1.21,0,0,0-.88,1.46l4.89,20.71v.14l1.35,3.85a1.23,1.23,0,0,0,1.5.8h0l-1.56.48.93,3.08,8.37-2.56Z"/><path class="cls-15" d="M360.29,337.6a60.06,60.06,0,0,1-3.67-7.52c-1.95-4.81-4.11-9.46-6-14.29s-3.41-9.57-5.65-14.19a25.67,25.67,0,0,1-2.22-7.41,16.15,16.15,0,0,1-.28-6c0-.24.49-.56,1-.68l1.06-.24h.15l.16,0c1.32-.27,1.69.35,1,.79,1.78,1.76.79,4.27,1.1,6.38a49.66,49.66,0,0,0,2.15,5.42c1.31,4.35,3.33,8.41,5,12.58s3.76,8.42,5.68,12.65c.89,1.92,1.69,3.91,2.42,5.9s2.11,3.44,2.56,5.43a1.56,1.56,0,0,1-.69.85C361.2,339.07,361.06,338.92,360.29,337.6Zm-5.22-17.35c.47,1.05.88,2.13,1.42,3.18a34.39,34.39,0,0,0-1.39-3.18Z"/><path class="cls-15" d="M260.16,290.49c-2.74,1.91-5.54,3.71-8.47,5.39-5.35,3.14-10.39,6.68-15.57,10.11a131.38,131.38,0,0,0-14.77,10.83,42.25,42.25,0,0,1-7.55,5.31,24.79,24.79,0,0,1-6.49,3,1.31,1.31,0,0,1-1.1-.64l-.62-.89-.11-.13-.09-.15c-.75-1.13-.16-1.74.53-1.35,1.37-2.56,4.53-2.82,6.78-4.1s3.75-3.09,5.75-4.49c4.59-3.11,8.83-6.71,13.38-9.86s9.29-6.59,14-9.76a60.53,60.53,0,0,1,6.76-4c2.31-1.23,4-3.07,6.32-3.86.23-.08.7.19,1,.58C261.92,289.26,261.66,289.44,260.16,290.49Zm-19.57,9.58,3.49-2.32A37.06,37.06,0,0,0,240.59,300.07Z"/><path class="cls-15" d="M268.88,337.1c-3.41-.52-6.68-1.2-10-2-6.13-1.45-12.29-2.39-18.49-3.53A133.84,133.84,0,0,0,222,329.17a44.38,44.38,0,0,1-9.25-1.4,25.78,25.78,0,0,1-6.89-2.31,1.34,1.34,0,0,1-.37-1.23l.11-1.08,0-.17v-.17c.23-1.33,1.12-1.4,1.34-.62,2.8-.9,5.3,1.11,7.85,1.74s4.94.34,7.37.71c5.55.94,11.18,1.28,16.71,2.17s11.38,1.62,17,2.6c2.6.46,5.2,1.08,7.76,1.8s5,.59,7.32,1.59c.24,0,.37.62.33,1.09C271.05,337.43,270.71,337.38,268.88,337.1Zm-21.06-6.65,4.2.76A40.2,40.2,0,0,0,247.82,330.45Z"/><path class="cls-13" d="M354.78,244.21l-3.16-10.5a3.12,3.12,0,0,0-2.7-2.22v0a3.26,3.26,0,0,0-1.2.13l-1.39.41a3.14,3.14,0,0,0-1.9,1.62,5.35,5.35,0,0,0-1.31-.39l0-.08a4,4,0,0,0-1.53.14,4.35,4.35,0,0,0-2.81,2.61,6.12,6.12,0,0,0-.19,4.09,5.59,5.59,0,0,0,4.56,4.23,4.21,4.21,0,0,0,1.54-.14,5.22,5.22,0,0,0,1.65-1.05l1,3.38a3.13,3.13,0,0,0,3.89,2.12h0l1.39-.42A3.14,3.14,0,0,0,354.78,244.21Z"/><path class="cls-13" d="M344.74,238.42l-.48-1.27a2.79,2.79,0,0,0-3.61-1.63L327.3,240.6a2.81,2.81,0,0,0-1.63,3.6l.48,1.28a2.81,2.81,0,0,0,3.61,1.63L343.11,242A2.81,2.81,0,0,0,344.74,238.42Z"/><path class="cls-13" d="M276.85,256.76a4,4,0,0,0-1.15-2.15,7.77,7.77,0,0,0-1.62-1.17,14.88,14.88,0,0,0-3.15-1.35c-1.79-.52-2.51-.59-2.78.38a.88.88,0,0,0-.6-.79c-2.92-.91-5.9-.8-8.27-1.62a23.31,23.31,0,0,1-4.58-2.35,15.77,15.77,0,0,0-5.8-2.29,8.14,8.14,0,0,0-6.58,1.59,5.79,5.79,0,0,0-1.84,3.1,7.66,7.66,0,0,0,0,3.37,11.81,11.81,0,0,0,3,5.48,14.85,14.85,0,0,0,4.94,3.54,12.29,12.29,0,0,0,6.19,1,14.64,14.64,0,0,0,5.74-2.17,8.83,8.83,0,0,1,4.65-1.59c1.64.18,3.53.81,5.54,1.13a8.4,8.4,0,0,0,3.7-.08,3.68,3.68,0,0,0,2-1.53A3.4,3.4,0,0,0,276.85,256.76Z"/><path class="cls-10" d="M205.58,308.81a1.57,1.57,0,0,1-1.14-.65,1.6,1.6,0,0,1,.37-2.22l39.67-28.27a1.59,1.59,0,0,1,1.85,2.59l-39.67,28.27A1.58,1.58,0,0,1,205.58,308.81Z"/><path class="cls-13" d="M252.6,328.62c11.93,3.08,9.59,19.65,9.59,19.65s5.87,1.29,9.41,1.88S285.78,352.26,288,339s-11.4-16-11.4-16S243,318.81,234.42,318a20.06,20.06,0,0,0-10.75,1.62.92.92,0,0,0-.46.58.94.94,0,0,0,.66,1.16C229.21,322.67,243.11,326.14,252.6,328.62Z"/><path class="cls-10" d="M290,366.44a1.57,1.57,0,0,1-1.29-.92L276,337.91a1.59,1.59,0,1,1,2.89-1.33l12.67,27.62a1.58,1.58,0,0,1-1.6,2.24Z"/><path class="cls-17" d="M274.16,348.26a10.8,10.8,0,1,1,11.8-9.7A10.82,10.82,0,0,1,274.16,348.26Zm2-20.44a9.74,9.74,0,1,0,8.75,10.63A9.75,9.75,0,0,0,276.15,327.82Z"/><path class="cls-9" d="M316.28,284.1a1.49,1.49,0,1,1,.26,2.1h0A1.5,1.5,0,0,1,316.28,284.1Zm-1-.75a2.7,2.7,0,1,0,3.8-.48,2.69,2.69,0,0,0-3.8.48Z"/><path class="cls-9" d="M315.22,289.07a4.92,4.92,0,0,0,.5-2.3,5.93,5.93,0,0,0-2.66-4.59l-.48-.38-1.3,1.6,1,.75.53-.69a4.3,4.3,0,0,1,1.49,4.59l-5.4-1.55L307.69,288l1,.75.67-.86,5.6,1.59Z"/><path class="cls-9" d="M314.46,290a2.69,2.69,0,1,1-1.07-.83.76.76,0,0,0-.34.24l-.59.76a1.49,1.49,0,0,0-1.55,2,1.49,1.49,0,0,0,2.8-1l.6-.76A.75.75,0,0,0,314.46,290Z"/><path class="cls-9" d="M314.08,290.16a.5.5,0,0,0-.09-.69.49.49,0,0,0-.68.09l-1.25,1.61a.49.49,0,0,0,.09.68.5.5,0,0,0,.69-.09l1.24-1.6Z"/><path class="cls-18" d="M326.15,232.5l.19,0Z"/><path class="cls-8" d="M1923.24,545.89V319.17c-22.4-2.9-71-7.4-149.89-5.8-14,.29-18.22.81-56.24,3.84-104.93,8.39-204,49-251.94,75.52q-2.37,1.32-4.71,2.68a110,110,0,0,0-54.55,95.1v55.38Z"/><polygon class="cls-19" points="1722.74 311.91 1944 311.91 1944 141.75 1834.42 54.3 1723.27 140.17 1722.74 311.91"/><polygon class="cls-4" points="1949.77 152.54 1958.65 141.42 1835.55 43.18 1710.69 139.53 1719.38 150.79 1835.4 61.26 1949.77 152.54"/><polygon class="cls-20" points="1671.1 329.3 1812.68 328.97 1812.68 157.13 1740.69 103.49 1671.49 157.13 1671.1 329.3"/><rect class="cls-21" x="1857.74" y="159.34" width="32.89" height="29.69" transform="translate(3748.37 348.37) rotate(-180)"/><rect class="cls-21" x="1857.74" y="201.97" width="32.89" height="29.69" transform="translate(3748.37 433.64) rotate(-180)"/><rect class="cls-21" x="1715.15" y="179.48" width="56.9" height="54.4" transform="translate(3487.2 413.36) rotate(-180)"/><rect class="cls-4" x="1710.81" y="233.88" width="65.59" height="7.9" transform="translate(3487.2 475.66) rotate(-180)"/><rect class="cls-4" x="1882.64" y="306.38" width="43.33" height="5.4" transform="translate(3808.61 618.15) rotate(-180)"/><polygon class="cls-4" points="1822.93 170 1831.8 158.88 1745.63 90.11 1658.22 157.55 1666.91 168.81 1745.48 108.19 1822.93 170"/><path class="cls-9" d="M1710.92,329.3c10,56.85-140.93,65.5-236.2,58.1-16.09,8.41-30.19,15.52-46.61,36.56,26.85,4.64,133.49,3.76,183.88.85,44.22-2.55,147.94-23.64,143.35-95.51"/><g id="Calque_2" data-name="Calque 2"><path class="cls-9" d="M1555.75,158.21a20,20,0,1,1,32.17,21.39,11.88,11.88,0,0,0-4.26,8.82V191c0,6.16-3.52,11.11-7.67,11h-1.47c-4.15-.13-7.49-5.29-7.36-11.46V189a4.89,4.89,0,0,0-4-4.91,11.45,11.45,0,0,1-6.18-3.06c-2.94-2.94-2.94-7.11-2.65-11.17Z"/><path class="cls-22" d="M1614.8,264.88l-1.85-.2.93.1-.93-.09c0-.12.17-3-5.1-3.59-2.77-.29-4.91.19-6.35,1.43a6.83,6.83,0,0,0-2.1,5l-1.87-.09a8.62,8.62,0,0,1,2.76-6.35c1.84-1.58,4.45-2.21,7.75-1.87,2.66.27,4.58,1.13,5.73,2.54A4.44,4.44,0,0,1,1614.8,264.88Z"/><path class="cls-23" d="M1631.45,263.49l-47.76,2.38-1.13,34.58s18.45,5.38,51.48-2.57Z"/><path class="cls-24" d="M1624.22,282.51s-26.55,3-41.12,1.45l.06-1.87s13,2.2,41.08-1.14Z"/><polygon class="cls-25" points="1606.62 280.91 1606.72 284.5 1594.59 284.58 1594.51 281.52 1606.62 280.91"/><path class="cls-24" d="M1624.42,263.84l7-.35,2.59,34.39c-3.5.84-6.83,1.52-10,2.09Z"/><path class="cls-13" d="M1587.19,400.54l3.28,3.35a71.23,71.23,0,0,0,21-.63c1.28-8.93-28.9-14.14-28.9-14.14l-2.72,13.46,6.84.85Z"/><path class="cls-13" d="M1550.17,399l.08,4.27a41.33,41.33,0,0,0,17,3.92c7.69-9.2-12.21-21.33-12.21-21.33l-12.21,13.69,4.76,2.4Z"/><path class="cls-6" d="M1599.83,390.86l-19.33,8.83-2.6-66.82-5.68-48.51,0,.54-7.63,110.74h-20.44v-.95h0l6.54-111.44s1-14.22,1.49-18.69,1.09-5.32,1.09-5.32,35.47-.53,36.87-.53,3.05,4.21,3.66,7.57,4.37,63.93,4.37,63.93Z"/><path class="cls-26" d="M1599.83,390.86l-19.33,8.83-2.6-66.82-5.68-48.51,0,.54-7.63,110.74h-12.86l-7.56-.95h0l2-1.41c1.51-11.39,3.3-16.22,4.26-27.71l2.53-66.73c-.74-5.51.36-31.4,3.43-39.55,5,2.39,25.44.43,31.88.11,5.15-.25,5.75,6.45,0,11.42s-11.66,8.09-13.41,14.14l6.84,47.7,2.15,41.44c.33,9.19,7.28,16.52,15.88,16.77Z"/><path class="cls-6" d="M1574,162.43h-.07a1,1,0,0,1-.89-1,1.72,1.72,0,0,0-.42-1.28,1.78,1.78,0,0,0-1.21-.61,1.74,1.74,0,0,0-1.89,1.63,1.22,1.22,0,0,0,0,.27,1,1,0,0,1-.89,1,1,1,0,0,1-1-.89,4.69,4.69,0,0,1,0-.53,3.68,3.68,0,1,1,7.34.53A1,1,0,0,1,1574,162.43Z"/><path class="cls-6" d="M1556.6,162.43h-.07a1,1,0,0,1-.88-1,3.68,3.68,0,0,1,7.34,0,1,1,0,0,1-.89,1,1,1,0,0,1-1-.89,1.76,1.76,0,0,0-3.52,0A1,1,0,0,1,1556.6,162.43Z"/><path class="cls-6" d="M1564.77,175.86a5.14,5.14,0,0,1-3.67-1.52,1,1,0,0,1,1.36-1.35,3.27,3.27,0,0,0,4.62,0,.94.94,0,0,1,1.35,0,1,1,0,0,1,0,1.35A5.16,5.16,0,0,1,1564.77,175.86Z"/><path class="cls-6" d="M1564.49,169.14l-.25,0-4-1.06a1,1,0,0,1-.64-.56,1,1,0,0,1,.06-.84l4.26-7.39a1,1,0,0,1,1.66,1l-3.64,6.3,2.79.74a1,1,0,0,1-.24,1.88Z"/><path class="cls-27" d="M1560.68,149.66c.28,1.63,13.34,3.27,22.87.83l4.9-1.67s-5.18-5.44-15.25-4.63S1560.68,149.66,1560.68,149.66Z"/><path class="cls-27" d="M1572.31,152.68c-5.42,0-10.19-.75-11.77-1.77a1.65,1.65,0,0,1-.8-1.09.89.89,0,0,1,.09-.6c.11-.21,2.81-5.14,13.29-6s15.8,4.69,16,4.92a1,1,0,0,1,.24.89,1,1,0,0,1-.62.68l-4.9,1.66A48,48,0,0,1,1572.31,152.68ZM1562,149.52c2.46,1.06,12.9,2.21,21.36,0l3.2-1.09a19.83,19.83,0,0,0-13.25-3.33C1566,145.73,1563,148.33,1562,149.52Z"/><path class="cls-27" d="M1589.39,149.18c-1.09,1.36-3.92,6.75-2.57,16s2.75-.28,3.41-2.41,3.4-5,4.72-1.07c2.14,6.28-1.06,9.75-2.69,11.12,0,0,5.06-5.58,1.63-15.52C1591.17,149.38,1589.39,149.18,1589.39,149.18Z"/><path class="cls-27" d="M1592.26,173.77a1,1,0,0,1-.71-1.6c.16-.17,3.27-3.76,2.45-10.3-.26-.73-.59-1.17-.87-1.17h0c-.56,0-1.6,1.12-2,2.35-.12.38-.26,1-.42,1.69-.81,3.57-1.3,5.39-2.69,5.37-1.12-.05-1.64-1.21-2.17-4.79-1.29-8.84,1.14-14.68,2.77-16.74a1,1,0,0,1,.86-.35c.72.08,2.67,1.1,5.3,8.76a23,23,0,0,1,1.07,4.44c2.2,6.52-.93,10.39-3,12.12A1,1,0,0,1,1592.26,173.77Zm-3.71-5.39h0Zm1.07-17.83c-1.32,2.26-2.91,7.28-1.85,14.49.13,1,.26,1.63.38,2.13.27-.92.55-2.13.72-2.85s.32-1.43.45-1.83c.47-1.53,2-3.68,3.78-3.7h.27c-.12-.39-.24-.79-.38-1.19C1591.45,153.13,1590.25,151.29,1589.62,150.55Z"/><path class="cls-9" d="M1591.2,162.92c.5-1.62,2.56-3.78,3.58-.81a7.36,7.36,0,0,1-2.43,8.82"/><path class="cls-7" d="M1550,262.3V207.06a13.06,13.06,0,0,1,13.36-12.75H1585a13.06,13.06,0,0,1,13.36,12.75v55.66Z"/><polygon class="cls-6" points="1550.25 290.22 1595.57 290.22 1598.33 262.51 1549.81 262.51 1550.25 290.22"/><path class="cls-7" d="M1552.92,270.8l-17.61-1.18c1.51-22.61,5-45.14,16.09-67.37l15.79,7.89C1557.12,230.28,1554.27,250.55,1552.92,270.8Z"/><path class="cls-9" d="M1614.37,256.81l-.11,1.5-13-.64.11-1.49c-.57-6.66,3.23-6.34,6.79-6.16h.14A6.51,6.51,0,0,1,1614.37,256.81Z"/><path class="cls-9" d="M1601.15,261.18l.17-3.54a1.52,1.52,0,0,1,1.59-1.45h0a1.52,1.52,0,0,1,1.44,1.6l-.17,3.54a1.53,1.53,0,0,1-1.59,1.44h0A1.51,1.51,0,0,1,1601.15,261.18Z"/><path class="cls-9" d="M1604.1,261.76l.18-3.52a1.5,1.5,0,0,1,1.58-1.43h0a1.51,1.51,0,0,1,1.43,1.58l-.17,3.52a1.53,1.53,0,0,1-1.59,1.44h0A1.52,1.52,0,0,1,1604.1,261.76Z"/><path class="cls-9" d="M1607.46,261.93l.18-3.52a1.51,1.51,0,0,1,1.58-1.43h0a1.51,1.51,0,0,1,1.43,1.59l-.17,3.51a1.52,1.52,0,0,1-1.59,1.44h0A1.51,1.51,0,0,1,1607.46,261.93Z"/><path class="cls-9" d="M1610.82,262.1l.17-3.52a1.5,1.5,0,0,1,1.58-1.43h0a1.51,1.51,0,0,1,1.44,1.58l-.18,3.52a1.52,1.52,0,0,1-1.58,1.44h0A1.52,1.52,0,0,1,1610.82,262.1Z"/><polygon class="cls-6" points="1588.73 205.04 1578.61 204.28 1578.72 202.81 1587.03 203.44 1586.12 196.84 1587.58 196.64 1588.73 205.04"/><path class="cls-6" d="M1574,262.51h-1.47V208.08a3.35,3.35,0,0,0-3.34-3.34h0a3.32,3.32,0,0,0-1.48.35l-3.6,1.8-5.42-11.19,1.33-.64,4.76,9.85,2.28-1.14a4.9,4.9,0,0,1,2.13-.5h0a4.81,4.81,0,0,1,4.81,4.81Z"/><polygon class="cls-9" points="1567.43 193.76 1574.58 204.67 1583.1 194.44 1567.43 193.76"/><path class="cls-7" d="M1596.75,201.21s17.65,30.41,20.59,51l-22.55,7.84Z"/></g><path class="cls-28" d="M1710.92,416.12c0-18.44,18.41-34.16,44.29-40.34-6.15-15.12-3.88-27.53,7.47-31.22,8.65-2.81,20.85,0,33.29,6.79-6.83-25.64-1.11-46.32,15.3-49.2,9.63-1.69,21.16,3.06,32.15,12.14,10.89-16.9,27.64-27.73,46.44-27.73,32.82,0,59.42,33,59.42,73.7,0,1.57,0,3.13-.12,4.68,8.95,8.63,14.25,19.31,14.25,30.87,0,10.74-4.57,20.72-12.4,29H1712.32A27.83,27.83,0,0,1,1710.92,416.12Z"/><path class="cls-4" d="M1773.1,393.8c-6.15-15.12-3.87-27.53,7.47-31.22,8.66-2.81,20.86,0,33.29,6.79-6.82-25.64-1.1-46.32,15.31-49.2,9.62-1.69,21.16,3.06,32.14,12.14,10.89-16.9,27.65-27.73,46.44-27.73a50.26,50.26,0,0,1,27.78,8.54c8.58,12.78,13.75,29.21,13.75,47.14,0,1.57,0,3.13-.12,4.68,8.95,8.63,14.25,19.31,14.25,30.87,0,10.74-4.57,20.72-12.4,29H1730.44C1735.45,410.53,1751.72,398.9,1773.1,393.8Z"/></g></g></g></g></svg>