<svg xmlns="http://www.w3.org/2000/svg" viewBox="0 0 453.66 452"><defs><style>.cls-1{fill:#fcc670;}.cls-2{fill:#e5ac67;}.cls-3{fill:#c44833;}.cls-4{fill:#e8bc95;}.cls-5{fill:#f7eddc;}.cls-6{fill:#fff;}.cls-7{fill:#443936;}.cls-8{fill:#6d605c;}.cls-9{fill:#5b504d;}.cls-10{fill:#adadad;}.cls-11{fill:#1d1d1b;}.cls-12{fill:#3a2722;}.cls-13{opacity:0.15;}.cls-14{fill:#b5542a;}.cls-15{fill:#eb5c40;}.cls-16{fill:#ed6843;}</style></defs><title>nos_offres_immobilier_illu_bg</title><g id="Nos_offres_4" data-name="Nos offres 4"><g id="title"><g id="illustrations"><path class="cls-1" d="M528.82,543.63V316.92c-22.4-2.91-71-7.4-149.89-5.8-14,.28-18.22.8-56.24,3.84-104.93,8.38-204,49-251.94,75.52q-2.37,1.32-4.71,2.67a110,110,0,0,0-54.56,95.11v55.37Z"/><polygon class="cls-2" points="328.32 309.65 549.58 309.65 549.58 139.49 440 52.04 328.85 137.91 328.32 309.65"/><polygon class="cls-3" points="555.35 150.29 564.23 139.17 441.13 40.93 316.27 137.28 324.96 148.54 440.98 59.01 555.35 150.29"/><polygon class="cls-4" points="276.68 327.04 418.26 326.71 418.26 154.88 346.27 101.24 277.07 154.88 276.68 327.04"/><rect class="cls-5" x="320.73" y="177.22" width="56.9" height="54.4" transform="translate(698.36 408.85) rotate(-180)"/><rect class="cls-3" x="316.39" y="231.62" width="65.59" height="7.9" transform="translate(698.36 471.15) rotate(-180)"/><polygon class="cls-3" points="428.51 167.74 437.38 156.62 351.21 87.85 263.8 155.3 272.49 166.56 351.06 105.93 428.51 167.74"/><path class="cls-6" d="M316.5,327c10,56.86-140.93,65.51-236.2,58.11-16.09,8.4-30.2,15.51-46.61,36.55,26.85,4.64,133.49,3.77,183.88.86C261.79,420,365.51,398.92,360.92,327"/><g id="Calque_2" data-name="Calque 2"><path class="cls-6" d="M161.33,156a20,20,0,1,1,32.17,21.39,11.94,11.94,0,0,0-4.27,8.83v2.58c0,6.16-3.51,11.1-7.66,11H180.1c-4.15-.13-7.49-5.3-7.36-11.46v-1.47a4.89,4.89,0,0,0-4-4.91,11.48,11.48,0,0,1-6.18-3.06c-2.94-2.95-2.94-7.11-2.65-11.17Z"/><path class="cls-7" d="M220.38,262.62l-1.85-.2.92.1-.93-.08c0-.13.18-3.05-5.09-3.6-2.77-.28-4.91.2-6.35,1.44a6.8,6.8,0,0,0-2.1,5l-1.87-.09a8.6,8.6,0,0,1,2.76-6.34c1.84-1.59,4.45-2.22,7.75-1.87,2.66.27,4.58,1.13,5.72,2.54A4.39,4.39,0,0,1,220.38,262.62Z"/><path class="cls-8" d="M237,261.24l-47.75,2.38-1.14,34.57s18.46,5.38,51.49-2.57Z"/><path class="cls-9" d="M229.8,280.25s-26.55,3-41.13,1.45l.07-1.86s13,2.2,41.07-1.15Z"/><polygon class="cls-10" points="212.2 278.66 212.3 282.24 200.17 282.33 200.09 279.27 212.2 278.66"/><path class="cls-9" d="M230,261.59l7-.35,2.6,34.38c-3.51.85-6.84,1.53-10,2.1Z"/><path class="cls-11" d="M192.77,398.29l3.28,3.35a71.59,71.59,0,0,0,21-.63c1.28-8.93-28.9-14.15-28.9-14.15l-2.73,13.46,6.85.85Z"/><path class="cls-11" d="M155.75,396.76l.08,4.27a41.1,41.1,0,0,0,17,3.91c7.69-9.19-12.21-21.32-12.21-21.32l-12.21,13.69,4.76,2.4Z"/><path class="cls-12" d="M205.41,388.61l-19.34,8.83-2.59-66.82-5.68-48.51,0,.53-7.63,110.75H149.68l0-.95h0L156.24,281s1-14.22,1.49-18.69,1.09-5.32,1.09-5.32,35.47-.53,36.87-.53,3.05,4.2,3.66,7.57S203.72,328,203.72,328Z"/><path class="cls-13" d="M205.41,388.61l-19.34,8.83-2.59-66.82-5.68-48.51,0,.53-7.63,110.75H157.27l-7.56-.95h0l2-1.42c1.51-11.38,3.3-16.21,4.26-27.71l2.52-66.72c-.74-5.51.36-31.41,3.44-39.56,5,2.4,25.44.43,31.88.12,5.15-.25,5.75,6.44,0,11.42s-11.66,8.08-13.41,14.14l6.84,47.69,2.15,41.44c.33,9.19,7.28,16.53,15.88,16.78Z"/><path class="cls-12" d="M179.59,160.18h-.08a1,1,0,0,1-.88-1,1.76,1.76,0,1,0-3.52-.26,1.22,1.22,0,0,0,0,.27,1,1,0,0,1-.89,1,1,1,0,0,1-1-.89,4.51,4.51,0,0,1,0-.52,3.67,3.67,0,0,1,6.45-2.14,3.62,3.62,0,0,1,.89,2.67A1,1,0,0,1,179.59,160.18Z"/><path class="cls-12" d="M162.18,160.18h-.07a1,1,0,0,1-.88-1,3.67,3.67,0,0,1,7.33,0,1,1,0,0,1-1.9.14,1.76,1.76,0,0,0-3.52,0A1,1,0,0,1,162.18,160.18Z"/><path class="cls-12" d="M170.35,173.61a5.18,5.18,0,0,1-3.67-1.52,1,1,0,0,1,1.36-1.35,3.28,3.28,0,0,0,4.62,0,1,1,0,0,1,1.35,1.35A5.17,5.17,0,0,1,170.35,173.61Z"/><path class="cls-12" d="M170.07,166.89a.73.73,0,0,1-.25,0l-4-1.06a1,1,0,0,1-.64-.55,1,1,0,0,1,.06-.85L169.5,157a1,1,0,0,1,1.66,1l-3.64,6.31,2.79.74a.94.94,0,0,1,.68,1.16A1,1,0,0,1,170.07,166.89Z"/><path class="cls-14" d="M166.26,147.41c.28,1.63,13.34,3.26,22.87.82l4.9-1.66s-5.18-5.44-15.25-4.63S166.26,147.41,166.26,147.41Z"/><path class="cls-14" d="M177.89,150.43c-5.42,0-10.2-.76-11.77-1.78a1.68,1.68,0,0,1-.81-1.08,1,1,0,0,1,.1-.61c.11-.2,2.8-5.14,13.29-6s15.8,4.69,16,4.93a.95.95,0,0,1-.38,1.56l-4.9,1.67A48.47,48.47,0,0,1,177.89,150.43Zm-10.35-3.17c2.46,1.06,12.9,2.21,21.35,0l3.21-1.09a19.9,19.9,0,0,0-13.25-3.32C171.58,143.47,168.55,146.08,167.54,147.26Z"/><path class="cls-14" d="M195,146.92c-1.09,1.37-3.93,6.75-2.57,16s2.75-.28,3.41-2.42,3.4-5,4.72-1.07c2.14,6.28-1.06,9.75-2.69,11.12,0,0,5.06-5.57,1.63-15.52C196.75,147.13,195,146.92,195,146.92Z"/><path class="cls-14" d="M197.84,171.52a1,1,0,0,1-.71-1.6c.16-.18,3.27-3.76,2.45-10.31-.26-.72-.59-1.16-.87-1.16h0c-.56,0-1.6,1.11-2,2.35-.11.38-.25,1-.41,1.69-.82,3.56-1.3,5.39-2.69,5.36-1.12,0-1.64-1.2-2.17-4.78-1.29-8.85,1.14-14.69,2.77-16.74a1,1,0,0,1,.86-.36c.72.08,2.66,1.1,5.3,8.76a23.3,23.3,0,0,1,1.07,4.44c2.2,6.52-.93,10.39-3,12.12A1,1,0,0,1,197.84,171.52Zm-3.71-5.39h0Zm1.07-17.83c-1.32,2.26-2.91,7.28-1.86,14.49.14,1,.27,1.63.39,2.12.27-.92.55-2.12.71-2.85s.33-1.42.46-1.83c.47-1.52,2-3.67,3.78-3.7l.27,0c-.12-.39-.24-.79-.38-1.2C197,150.88,195.83,149,195.2,148.3Z"/><path class="cls-6" d="M196.78,160.66c.5-1.62,2.56-3.78,3.58-.81a7.37,7.37,0,0,1-2.43,8.83"/><path class="cls-15" d="M155.62,260V204.81A13.06,13.06,0,0,1,169,192.06h21.55a13.06,13.06,0,0,1,13.36,12.75v55.66Z"/><polygon class="cls-12" points="155.83 287.96 201.15 287.96 203.91 260.26 155.38 260.26 155.83 287.96"/><path class="cls-15" d="M158.5,268.54l-17.61-1.17c1.51-22.61,5-45.15,16.09-67.38l15.79,7.9C162.7,228,159.85,248.29,158.5,268.54Z"/><path class="cls-6" d="M220,254.56l-.11,1.5-13.05-.64.1-1.5c-.56-6.65,3.24-6.33,6.8-6.15h.13A6.5,6.5,0,0,1,220,254.56Z"/><path class="cls-6" d="M206.72,258.92l.18-3.54a1.51,1.51,0,0,1,1.59-1.44h0a1.51,1.51,0,0,1,1.44,1.59l-.17,3.54a1.53,1.53,0,0,1-1.59,1.45h0A1.53,1.53,0,0,1,206.72,258.92Z"/><path class="cls-6" d="M209.68,259.51l.18-3.52a1.51,1.51,0,0,1,1.58-1.44h0a1.51,1.51,0,0,1,1.43,1.59l-.18,3.52a1.51,1.51,0,0,1-1.58,1.43h0A1.51,1.51,0,0,1,209.68,259.51Z"/><path class="cls-6" d="M213,259.68l.18-3.52a1.52,1.52,0,0,1,1.58-1.44h0a1.52,1.52,0,0,1,1.43,1.59l-.17,3.52a1.51,1.51,0,0,1-1.59,1.43h0A1.51,1.51,0,0,1,213,259.68Z"/><path class="cls-6" d="M216.4,259.84l.17-3.51a1.51,1.51,0,0,1,1.58-1.44h0a1.5,1.5,0,0,1,1.43,1.59l-.17,3.52a1.51,1.51,0,0,1-1.58,1.43h0A1.5,1.5,0,0,1,216.4,259.84Z"/><polygon class="cls-12" points="194.31 202.79 184.19 202.03 184.3 200.56 192.6 201.18 191.7 194.58 193.16 194.38 194.31 202.79"/><path class="cls-12" d="M179.53,260.26h-1.48V205.83a3.33,3.33,0,0,0-3.33-3.34h0a3.32,3.32,0,0,0-1.48.35l-3.6,1.8-5.42-11.19,1.33-.64,4.76,9.85,2.28-1.14a4.73,4.73,0,0,1,2.13-.5h0a4.78,4.78,0,0,1,3.4,1.4,4.84,4.84,0,0,1,1.42,3.41Z"/><polygon class="cls-6" points="173.01 191.51 180.16 202.41 188.68 192.19 173.01 191.51"/><path class="cls-15" d="M202.33,199s17.65,30.41,20.59,51l-22.55,7.84Z"/></g><path class="cls-16" d="M316.5,413.86c0-18.43,18.41-34.16,44.29-40.34-6.15-15.11-3.88-27.52,7.47-31.21,8.65-2.81,20.85,0,33.29,6.79-6.83-25.65-1.11-46.32,15.3-49.2C426.48,298.21,438,303,449,312c10.88-16.9,27.64-27.73,46.44-27.73,32.81,0,59.42,33,59.42,73.7,0,1.57-.05,3.13-.12,4.68,9,8.62,14.24,19.3,14.24,30.87,0,10.74-4.56,20.71-12.39,29H317.9A27.85,27.85,0,0,1,316.5,413.86Z"/><path class="cls-3" d="M378.68,391.54c-6.15-15.11-3.88-27.52,7.47-31.21,8.66-2.82,20.85,0,33.29,6.78-6.82-25.64-1.11-46.31,15.3-49.19,9.63-1.7,21.17,3.05,32.15,12.14,10.89-16.9,27.64-27.73,46.44-27.73a50.26,50.26,0,0,1,27.78,8.54c8.58,12.77,13.75,29.21,13.75,47.14,0,1.57-.05,3.13-.12,4.68,9,8.62,14.24,19.3,14.24,30.87,0,10.74-4.56,20.71-12.39,29H336C341,408.27,357.3,396.65,378.68,391.54Z"/></g></g></g></svg>