<svg xmlns="http://www.w3.org/2000/svg" viewBox="0 0 329.73 452"><defs><style>.cls-1{fill:#262626;}.cls-2{fill:#e4f9f8;}.cls-3{fill:#d0f4f3;}.cls-4{fill:#fff;}.cls-5{fill:#bababa;}.cls-6{fill:#a583b5;}.cls-7{fill:#826991;}.cls-8{fill:#44254f;}.cls-9{fill:#28193a;}.cls-10{fill:#b075c6;}.cls-11{fill:#8b7e9e;}.cls-12{fill:#efefef;}.cls-13{fill:#cfd1d3;}.cls-14{fill:#d7dadd;}.cls-15{fill:#c3c7c9;}.cls-16{fill:#e8e9ea;}.cls-17{fill:#b7a5db;}.cls-18{fill:#65007f;}.cls-19{fill:#d9e1e2;}.cls-20{fill:#e84f40;}.cls-21{fill:#511066;}.cls-22{fill:#c94039;}.cls-23{fill:#1f2f35;}.cls-24{fill:#a19ea0;}.cls-25{fill:#898989;}</style></defs><title>nos_offres_entreprise_illu_bg</title><g id="Nos_offres_5" data-name="Nos offres 5"><g id="titre-5" data-name="titre"><g id="illustrations"><path class="cls-1" d="M302.06,202.35H389.7a2,2,0,0,1,2,2v58.34a0,0,0,0,1,0,0H300.06a0,0,0,0,1,0,0V204.36A2,2,0,0,1,302.06,202.35Z"/><rect class="cls-2" x="303.33" y="206.9" width="85.1" height="50.39"/><polygon class="cls-3" points="388.43 206.9 303.33 257.29 388.43 257.29 388.43 206.9"/><path class="cls-4" d="M293.53,261h104.7a.61.61,0,0,1,.61.61v4a1.66,1.66,0,0,1-1.66,1.66H294.59a1.66,1.66,0,0,1-1.66-1.66v-4a.61.61,0,0,1,.61-.61Z"/><rect class="cls-5" x="325.75" y="264.1" width="7.86" height="1.71" transform="translate(659.36 529.92) rotate(180)"/><rect class="cls-6" x="204.26" y="267.26" width="323.52" height="14.35"/><polygon class="cls-7" points="353.73 267.26 204.25 267.26 204.25 281.61 345.74 281.61 353.73 267.26"/><rect class="cls-8" x="204.26" y="281.61" width="323.52" height="182.22"/><polygon class="cls-9" points="527.77 311.74 527.77 281.61 204.25 281.61 204.25 463.83 259.73 463.83 259.73 311.74 527.77 311.74"/><rect class="cls-10" x="13.43" y="260.09" width="209.48" height="14.35"/><path class="cls-11" d="M182.38,360.34h100a19,19,0,0,0,15.67-8.23c12.74-18.54,41.38-68.53,48.46-151.2A9.46,9.46,0,0,0,334.45,191C328,193,320.28,197.43,314,207.37c-10.75,16.9-7.06,97.56-103.61,112.19C181,324,182.38,360.34,182.38,360.34Z"/><rect class="cls-12" x="190.02" y="360.34" width="96.27" height="8.35"/><rect class="cls-13" x="190.02" y="359.97" width="96.27" height="2.09"/><rect class="cls-14" x="227.34" y="368.69" width="21.62" height="23.87"/><rect class="cls-15" x="227.34" y="368.69" width="21.62" height="4.03"/><rect class="cls-12" x="227.34" y="427.22" width="21.62" height="7.06"/><rect class="cls-13" x="227.34" y="427.22" width="21.62" height="1.92"/><rect class="cls-4" x="232.06" y="392.56" width="12.19" height="34.66"/><rect class="cls-16" x="232.06" y="392.56" width="12.19" height="2.47"/><path class="cls-4" d="M249,434.28H227.34a188.77,188.77,0,0,0-46.31,8v8c27-8.34,87.29-8.34,114.24,0v-8A188.77,188.77,0,0,0,249,434.28Z"/><rect class="cls-14" x="295.27" y="446.19" width="3.02" height="7.72"/><rect class="cls-14" x="178.01" y="446.19" width="3.02" height="7.72" transform="translate(359.04 900.09) rotate(180)"/><path class="cls-1" d="M303.4,456.94a6.62,6.62,0,1,1-6.62-6.62A6.62,6.62,0,0,1,303.4,456.94Z"/><path class="cls-1" d="M172.9,456.94a6.62,6.62,0,1,0,6.62-6.62A6.62,6.62,0,0,0,172.9,456.94Z"/><path class="cls-17" d="M334.45,191C328,193,321,197.92,314,207.37c-7.91,10.61-6.16,37.52-25.37,66.74A103.11,103.11,0,0,1,279,286.4c-8.58,9.49-14.56,12.77-14.56,12.77s30.21-9.48,55.47-75.09c6.08-15.77,5.82-27.56,19.56-33.16A9.21,9.21,0,0,0,334.45,191Z"/><rect class="cls-18" x="32.08" y="274.44" width="172.17" height="189.39"/><path class="cls-4" d="M40.16,254.48l24-53.06-5.11-2.31L35.11,252A12.37,12.37,0,0,0,34,257.15h0a2.94,2.94,0,0,0,2.94,2.94H94.79v-5.61Z"/><rect class="cls-1" x="65.71" y="132.44" width="3.74" height="117.36" transform="translate(-36.6 17.22) rotate(-11.45)"/><path class="cls-4" d="M54.94,138.12c-3.75,5.6-2.83,28.42,2.56,55s13.43,48,19.06,51.69Z"/><path class="cls-11" d="M135.64,202.35a45.85,45.85,0,0,0-10.92,12.82,45.92,45.92,0,0,0-5-16.06,45.92,45.92,0,0,0-5,16.06,45.85,45.85,0,0,0-10.92-12.82,42,42,0,0,0,16,37.59,42,42,0,0,0,16-37.59Z"/><path class="cls-12" d="M105.67,229.63h28a0,0,0,0,1,0,0V255.7a4.39,4.39,0,0,1-4.39,4.39H110.05a4.39,4.39,0,0,1-4.39-4.39V229.63A0,0,0,0,1,105.67,229.63Z"/><path class="cls-19" d="M106,252.36a10.21,10.21,0,0,0,9.89,7.73h7.57a10.23,10.23,0,0,0,10.23-10.23V229.63C123.81,246,111.24,250.94,106,252.36Z"/><rect class="cls-20" x="235.23" y="212.36" width="2.81" height="40.5" transform="translate(-20.38 22.74) rotate(-5.28)"/><rect class="cls-21" x="239.38" y="214.71" width="2.81" height="40.5" transform="translate(-1.94 2.01) rotate(-0.48)"/><rect class="cls-11" x="241.66" y="216.36" width="2.81" height="40.5" transform="matrix(0.98, 0.18, -0.18, 0.98, 47.9, -40.84)"/><rect class="cls-18" x="233.37" y="217.89" width="2.81" height="40.5" transform="translate(509.5 428.8) rotate(169.35)"/><polygon class="cls-4" points="249.27 267.24 230.34 267.24 227.53 230.77 252.08 230.77 249.27 267.24"/><rect class="cls-21" x="32.08" y="274.11" width="172.17" height="12.29"/></g><rect class="cls-6" x="254.01" y="127.59" width="199.44" height="10.31"/><rect class="cls-20" x="276.47" y="62.42" width="21.09" height="65.24"/><path class="cls-22" d="M297.55,62.42c0,46.06-21.08,65.24-21.08,65.24h21.08Z"/><rect class="cls-4" x="281.02" y="67.35" width="11.99" height="37.1"/><path class="cls-23" d="M291.53,116a4.52,4.52,0,1,1-4.52-4.51A4.52,4.52,0,0,1,291.53,116Z"/><rect class="cls-17" x="297.55" y="62.42" width="21.09" height="65.24"/><path class="cls-11" d="M318.64,62.42c0,46.06-21.09,65.24-21.09,65.24h21.09Z"/><rect class="cls-4" x="302.1" y="67.35" width="11.99" height="37.1"/><path class="cls-23" d="M312.61,116a4.52,4.52,0,1,1-4.51-4.51A4.51,4.51,0,0,1,312.61,116Z"/><rect class="cls-24" x="318.64" y="62.42" width="21.09" height="65.24"/><path class="cls-25" d="M339.72,62.42c0,46.06-21.08,65.24-21.08,65.24h21.08Z"/><rect class="cls-4" x="323.19" y="67.35" width="11.99" height="37.1"/><path class="cls-23" d="M333.7,116a4.52,4.52,0,1,1-4.52-4.51A4.52,4.52,0,0,1,333.7,116Z"/></g></g></svg>