<svg xmlns="http://www.w3.org/2000/svg" viewBox="0 0 453.66 452"><defs><style>.cls-1{fill:#e5ab55;}.cls-2{fill:#edd2c8;}.cls-10,.cls-3{fill:#fcc670;}.cls-4{fill:#ed6843;}.cls-5{fill:#c44833;}.cls-6{fill:#1d1d1b;}.cls-7{fill:#eb5c40;}.cls-8{opacity:0.15;}.cls-13,.cls-9{fill:#fff;}.cls-10,.cls-11,.cls-9{fill-rule:evenodd;}.cls-11{fill:#e8e7e1;}.cls-12{fill:#dec4c4;}.cls-14{fill:#683c11;}.cls-15{fill:#fbbc43;}</style></defs><title>nos_offres_livreur_illu_bg</title><g id="Nos_offres_2" data-name="Nos offres 2"><g id="title-3" data-name="title"><g id="illustrations"><rect class="cls-1" x="244.1" y="245.54" width="50.99" height="91.56" transform="translate(539.19 582.64) rotate(180)"/><rect class="cls-1" x="287.04" y="144.89" width="64.41" height="192.2" transform="translate(638.49 481.99) rotate(-180)"/><polygon class="cls-1" points="486.99 337.1 350.11 337.1 350.11 95.24 418.42 51.44 486.99 95.24 486.99 337.1"/><rect class="cls-2" x="302.33" y="161.12" width="15.26" height="41.1"/><rect class="cls-2" x="340.49" y="161.12" width="15.26" height="41.1"/><rect class="cls-2" x="302.33" y="239.21" width="15.26" height="41.1"/><rect class="cls-2" x="340.49" y="239.21" width="15.26" height="41.1"/><rect class="cls-2" x="397.43" y="116.51" width="15.26" height="41.1"/><rect class="cls-2" x="435.6" y="116.51" width="15.26" height="41.1"/><rect class="cls-2" x="397.43" y="194.59" width="15.26" height="41.1"/><rect class="cls-2" x="435.6" y="194.59" width="15.26" height="41.1"/><path class="cls-3" d="M514.32,552.19V325.48c-22.27-2.91-70.59-7.41-149-5.8-13.91.28-18.12.8-55.91,3.84-104.32,8.38-202.82,49-250.47,75.51q-2.37,1.32-4.68,2.68A110.15,110.15,0,0,0,0,496.81v55.38Z"/><path class="cls-4" d="M305,422.42c0-18.44,18.4-34.16,44.29-40.34-6.16-15.12-3.88-27.52,7.46-31.21,8.66-2.82,20.86,0,33.29,6.78-6.82-25.64-1.1-46.31,15.31-49.2,9.62-1.69,21.16,3.06,32.14,12.15,10.89-16.9,27.65-27.73,46.44-27.73,32.82,0,59.42,33,59.42,73.7,0,1.57,0,3.13-.12,4.67,9,8.63,14.25,19.31,14.25,30.87,0,10.74-4.57,20.72-12.39,29H306.41A28.07,28.07,0,0,1,305,422.42Z"/><path class="cls-5" d="M367.2,400.1c-6.15-15.12-3.88-27.52,7.47-31.21,8.65-2.82,20.85,0,33.29,6.78-6.83-25.64-1.11-46.31,15.3-49.2,9.63-1.69,21.16,3.06,32.15,12.15,10.88-16.91,27.64-27.74,46.44-27.74a50.29,50.29,0,0,1,27.78,8.54c8.58,12.78,13.74,29.21,13.74,47.15,0,1.57,0,3.13-.12,4.67,9,8.63,14.25,19.31,14.25,30.87,0,10.74-4.57,20.72-12.39,29H324.53C329.55,416.83,345.81,405.2,367.2,400.1Z"/><g id="Calque_2" data-name="Calque 2"><path class="cls-6" d="M246.24,352.52,243,355.87a71.23,71.23,0,0,1-21-.63c-1.28-8.93,28.9-14.14,28.9-14.14l2.72,13.45-6.84.86Z"/><path class="cls-6" d="M283.26,351l-.08,4.27a41.29,41.29,0,0,1-17,3.92c-7.69-9.2,12.21-21.33,12.21-21.33l12.21,13.69-4.76,2.4Z"/><path class="cls-7" d="M233.6,342.84l19.33,8.83,2.6-66.82,5.68-48.51,0,.54,7.63,110.74h20.44v-.95h0l-6.54-111.44s-1-14.22-1.49-18.69-1.09-5.32-1.09-5.32-35.47-.53-36.87-.53-3,4.21-3.66,7.57-4.37,63.93-4.37,63.93Z"/><path class="cls-8" d="M233.6,342.84l19.33,8.83,2.6-66.82,5.68-48.51,0,.54,7.63,110.74h12.86l7.56-.95h0l-2-1.41C285.75,333.86,284,329,283,317.54l-2.53-66.73c.74-5.51-.35-31.4-3.43-39.55-5,2.39-25.44.43-31.88.11-5.15-.25-5.75,6.45.05,11.42s11.66,8.09,13.41,14.14l-6.84,47.7-2.15,41.44c-.33,9.18-7.28,16.52-15.88,16.77Z"/><g id="kcO2D6"><path class="cls-9" d="M218.8,182.77a6.64,6.64,0,0,1-.19,1.88A2.16,2.16,0,0,1,215.7,186a1,1,0,0,0-.79-.08,7.61,7.61,0,0,1-2.28.31,2,2,0,0,1-2.07-1.08,2.1,2.1,0,0,1,.09-2.35,10.29,10.29,0,0,1,3.89-3.37c2.43-1,4.24.18,4.26,2.82Z"/><path class="cls-9" d="M208.65,190.67a.93.93,0,0,0,1,.16,1.61,1.61,0,0,1,1.06-.07,12.49,12.49,0,0,0,3.93.36c3.46-.33,6.58,1.1,9.87,1.65a34.15,34.15,0,0,0,5.35.3c.41,0,.58-.26.79-.51.21-.42,0-.9.15-1.32h0c0-3.24,0-6.49,0-9.74.06-1.94.33-3.87.5-5.81a1.83,1.83,0,0,0,.13.16v0a.24.24,0,0,1,0-.1,1.5,1.5,0,0,1,1.59.11,12.12,12.12,0,0,0,3,.13c1.1,0,2.21,0,3.31,0,.54,0,.7.16.71.7,0,3.47.09,6.94.15,10.42,0,2,.11,4.07.16,6.11a.62.62,0,0,1-.29-.32,4.55,4.55,0,0,0,0-.52.75.75,0,0,0,0-.57c0,.19,0,.38,0,.57a1,1,0,0,0,0,.52c0,.45-.1.89-.17,1.34a7.93,7.93,0,0,1-2.77,4.39c-1.66,1.27-3.55,1-5.39.61-2.26-.51-4.49-1.11-6.71-1.76a45.63,45.63,0,0,0-6.35-1,.68.68,0,0,0-.4,0,14,14,0,0,1-4,1.05,6.85,6.85,0,0,1-4.8-.73,9.31,9.31,0,0,1-4-3.45,5,5,0,0,1-.15-1.14A2,2,0,0,1,208.65,190.67Z"/><path class="cls-10" d="M231.39,175.68a.23.23,0,0,0,.13.16l1.64,0h.05a.41.41,0,0,0-.05.09c.3.38.74.31,1.14.31h4.54c.93,0,1,.07,1,1,0,1.82.07,3.63.13,5.44.12,3.49,0,7,.24,10.47a1,1,0,0,0,.17.57l.1,0a24.91,24.91,0,0,0,0,5,52.73,52.73,0,0,0,.2,5.34,15.41,15.41,0,0,0,.28,3.1,18.5,18.5,0,0,0,.46,4,.49.49,0,0,0,0,.15h0c.1.27.19.55.29.82a1.26,1.26,0,0,0,.87.16c2.09-.1,4.18-.26,6.28-.24q6,.06,12,0c2.07,0,4.13.11,6.19.22q5.94.34,11.85,1a1.06,1.06,0,0,0,.94-.19,2.92,2.92,0,0,1,.35-1.89,2.73,2.73,0,0,0,.26-1c.36-2.75.7-5.5,1.07-8.25a53.07,53.07,0,0,1,.84-5.61c.22-.25.58,0,.8-.2l0,0c-.08-.47-.47-.37-.77-.4a28.54,28.54,0,0,1-4.33-.59c-1.69-.39-3.41-.63-5.1-1a.89.89,0,0,0-1.14.38,9.66,9.66,0,0,1-2.74,2.59,3.92,3.92,0,0,1-3.09.75,27.43,27.43,0,0,1-4.23-.69,2.53,2.53,0,0,0-1.39,0,3.53,3.53,0,0,1-2.11-.07,22.05,22.05,0,0,0-4.15-1.09c-.44,0-.8-.28-.58-.84a6.39,6.39,0,0,1,3-1.57c.32-.1.7-.11.91-.45.54.1.82-.34,1.18-.62,2.1-1.61,3.95-3.51,6.06-5.11a6.44,6.44,0,0,1,.65-.52,4.14,4.14,0,0,0,2.14-4.29c-.15-1.81-.59-2.43-2.39-2.59-.22,0-.56.07-.56-.31s.27-.38.51-.46a2.56,2.56,0,0,1,.48-.1,27.75,27.75,0,0,1,4.37-.19,1.18,1.18,0,0,1,1.2.7,15.62,15.62,0,0,0,2.37,3.48,5.26,5.26,0,0,0,1.47,1.54.73.73,0,0,0,.65-.12.42.42,0,0,0,.18.11,16.53,16.53,0,0,0,3.83-.6,1.51,1.51,0,0,0,.3-1.16,30.59,30.59,0,0,1,.07-3.71c0-.94.46-1.33,1.34-1.54a5.84,5.84,0,0,0,2.29-.59,2.75,2.75,0,0,1,.47-.13,25.57,25.57,0,0,1,8.85.33c.62-.34,0-.71,0-1.08.16-1.56.19-3.14.35-4.7.57-5.41-2.17-12.41-2.78-17.3a16.89,16.89,0,0,0-6.87-12.11,25.89,25.89,0,0,0-8.09-4c-1.44-.42-2.93-.64-4.33-1.19l-.46-.2-.25-.12a.42.42,0,0,0-.15,0,18.18,18.18,0,0,0-12.62,0l-.46.07a21.27,21.27,0,0,0-3.06.62,22.63,22.63,0,0,0-8.25,3.44,18.51,18.51,0,0,0-7.86,10.58c-.9,3.2-4.53,7.91-5.13,11.55-.52,3.15-.9,6.32-1.16,9.51A28.33,28.33,0,0,0,231.39,175.68ZM279,177.61l0,0h0Z"/></g><polygon class="cls-11" points="268.7 194.77 174.53 194.77 174.53 191.59 173.85 191.2 173.85 180.3 268.7 180.3 268.7 194.77"/><rect class="cls-12" x="242.79" y="180.3" width="26.32" height="14.48"/><path class="cls-9" d="M253.37,195.05a8,8,0,0,1,3.35-1.62l.79-.22a39.77,39.77,0,0,0,3.9-3.18q2.18-2,4.53-3.73a2.87,2.87,0,0,0,1.36-2.74,10.23,10.23,0,0,1,0-1.24,1.8,1.8,0,0,0-1.9-2c-.16,0-.33,0-.49,0s-.67.1-.68-.26a.76.76,0,0,1,.59-.87,18.36,18.36,0,0,1,2.21-.31c1,0,2.09,0,3.14,0,.44,0,.83.07,1,.52.87,2,2.41,3.55,3.71,5.25a9.73,9.73,0,0,0,.84,1c-.09-.37-.31-.7,0-1a24.05,24.05,0,0,1,3.78-.53c.86-.66,1.85-.29,2.74-.4-.52-.17-1.11-.25-1.68-.41a.93.93,0,0,1-.79-1.06c.07-1-.6-4.35,1.2-4.62a17.45,17.45,0,0,1,2.66-.47h.08a.67.67,0,0,1-.06-.12,2.11,2.11,0,0,1,1.48-.4,26.81,26.81,0,0,1,6.87.29c.35.08.72.1.95.43-.42,4.66-1,9.3-1.76,13.91a2,2,0,0,1-.05.24c-.56,3.4-.44,3.2-4.13,4.29a10.5,10.5,0,0,1-3.84.43,6.34,6.34,0,0,0-2.25-.3c-2.69-.3-5.29-1-7.94-1.5-.49-.1-.77-.1-1.06.39-.89,1.54-2.44,2.34-3.86,3.28a1.41,1.41,0,0,1-.72.09,21,21,0,0,1-5.47-.7,2.14,2.14,0,0,0-1.39,0,3.6,3.6,0,0,1-2.42-.11,15.35,15.35,0,0,0-4.07-1C253.31,196.34,253.08,195.78,253.37,195.05Z"/><path class="cls-13" d="M243.52,119.28a21.21,21.21,0,0,0,6.1,14.76,20.06,20.06,0,0,0,14.48,6,20.92,20.92,0,1,0-20.58-20.76Z"/><path class="cls-7" d="M263.86,140.58h.25a.58.58,0,0,0,.56-.58.52.52,0,0,0-.58-.57,20.45,20.45,0,0,1-14.45-5.8.57.57,0,1,0-.8.82A21.6,21.6,0,0,0,263.86,140.58Z"/><path class="cls-6" d="M247.62,111.9l1.82-1.07a2.09,2.09,0,1,0,.29,1Z"/><path class="cls-6" d="M258.89,114.86l1.79-1.07a2.12,2.12,0,1,0,.28,1Z"/><path class="cls-6" d="M254.74,126.14a7.45,7.45,0,0,1-8.39-3.64c-.5-.93.92-1.77,1.37-.83a5.79,5.79,0,0,0,6.53,2.87.83.83,0,0,1,.95.69.82.82,0,0,1-.52.91Z"/><path class="cls-14" d="M271.91,113.13a2.23,2.23,0,0,1,1-1.37,3.34,3.34,0,0,1,2.45,0,39.91,39.91,0,0,1,6,2.34c2,1,4.34,1.65,4.4,4.11-2.1-.9-1.88,0-3.1,1.48a3,3,0,0,1-2.46,1.2,1.87,1.87,0,0,1-1.74-1.87,2.51,2.51,0,0,1-2.48,2.55,2.12,2.12,0,0,1-.44,0,2.52,2.52,0,0,1-1.68-3.14c0-.12.09-.24.14-.36a1.6,1.6,0,0,1-2.09-.78,4.57,4.57,0,0,1-.32-2.45A7.33,7.33,0,0,1,271.91,113.13Z"/><path class="cls-4" d="M247.21,104.59c6.45-6.65,12.66-12.31,26.47-6.37,10.11,4.35,11.45,12.2,12.17,20Z"/><path class="cls-15" d="M247.84,105.55c9,3.31,23.82,7.6,23.82,7.6s-12-25.49-25.83-23.16C233.37,92.12,240.7,102.92,247.84,105.55Z"/><ellipse class="cls-13" cx="281.95" cy="121.92" rx="5.5" ry="4.3" transform="translate(80.64 353.94) rotate(-72.44)"/><polyline class="cls-13" points="251.28 119.63 247.09 116.58 253.81 110.35"/><path class="cls-6" d="M251.28,120.2a.58.58,0,0,0,.46-.23.56.56,0,0,0-.13-.8L248,116.53l6.21-5.75a.58.58,0,0,0,0-.81.56.56,0,0,0-.81,0l-7.23,6.69,4.75,3.46A.53.53,0,0,0,251.28,120.2Z"/><path class="cls-13" d="M280.22,127.44c2.25.72,4.84-1,5.76-4s-.18-5.83-2.44-6.54"/><path class="cls-6" d="M281.24,128.17c2.21,0,4.43-1.8,5.28-4.51a6.94,6.94,0,0,0,0-4.46,4.42,4.42,0,0,0-2.78-2.8.58.58,0,0,0-.34,1.1,3.24,3.24,0,0,1,2,2.1,5.7,5.7,0,0,1,0,3.72c-.82,2.59-3.08,4.2-5,3.58a.57.57,0,0,0-.72.37.58.58,0,0,0,.37.72A4.16,4.16,0,0,0,281.24,128.17Z"/><path class="cls-14" d="M263.13,113.5a5.22,5.22,0,0,0-5-3.73.84.84,0,0,1,0-1.66,6.85,6.85,0,0,1,6.62,5,.84.84,0,0,1-.69,1A.83.83,0,0,1,263.13,113.5Z"/><path class="cls-14" d="M251.14,108a5.81,5.81,0,0,0-2-.7c-1-.21-.6-1.81.44-1.6a7.28,7.28,0,0,1,2.37.87c.9.56.06,2-.84,1.37Z"/><path class="cls-7" d="M279.4,179.45a36.92,36.92,0,0,1-.83-11.58c0-.54.06-1.09.05-1.39l-.09-.15c-.29-.47-.1-1.13.94-3.21.15-.3-.34-1.28-.55-1.7a2.66,2.66,0,0,1-.39-1.09.65.65,0,0,1,.63-.66.6.6,0,0,1,.63.6c0,.09.17.37.27.58.41.83,1,2,.55,2.84a16.91,16.91,0,0,0-.89,2c.22.3.2.74.12,2.24a35.83,35.83,0,0,0,.78,11.18.62.62,0,0,1-.44.78.5.5,0,0,1-.17,0A.63.63,0,0,1,279.4,179.45Zm-.24-12.77-.13,0Z"/></g></g></g></g></svg>