<svg xmlns="http://www.w3.org/2000/svg" viewBox="0 0 144 86"><defs><style>.cls-1{fill:#fff;}.cls-2{fill:#392d87;}.cls-3{fill:#469fb7;}</style></defs><title>nos_offres_restauration</title><g id="Nos_offres_1" data-name="Nos offres 1"><g id="bloc_1-5" data-name="bloc 1"><circle class="cls-1" cx="72" cy="43.68" r="42.99"/><path class="cls-2" d="M22.58,28.29V36c-2.23,0-4-.69-4-2.31v-3.1C18.56,29,20.35,28.33,22.58,28.29Z"/><rect class="cls-2" x="24.56" y="28.28" width="1.16" height="7.72"/><rect class="cls-2" x="27.15" y="28.28" width="13.93" height="7.72"/><path class="cls-2" d="M30.06,37.09h10c.55,0,.78.39.52.87l-.29.51a1.9,1.9,0,0,1-1.49.88H29.53a1.68,1.68,0,0,0-1.41.91l-.17.38a2.47,2.47,0,0,1-1.38,1.18l-5.88,1.61c-.53.15-.82-.16-.64-.68l.19-.54A2.17,2.17,0,0,1,21.53,41l3.23-1a2.81,2.81,0,0,0,1.44-1.17l.48-.88a1.83,1.83,0,0,1,1.47-.88Z"/><rect class="cls-2" x="41.08" y="27.62" width="2.04" height="9.04"/><path class="cls-2" d="M121.42,28.27V36c2.23,0,4-.69,4-2.31v-3.1C125.44,29,123.65,28.31,121.42,28.27Z"/><rect class="cls-2" x="118.28" y="28.26" width="1.16" height="7.72"/><rect class="cls-2" x="102.92" y="28.26" width="13.93" height="7.72"/><path class="cls-2" d="M113.94,37.07h-10c-.55,0-.78.39-.52.87l.29.51a1.9,1.9,0,0,0,1.49.88h9.29a1.68,1.68,0,0,1,1.41.91l.17.38a2.47,2.47,0,0,0,1.38,1.18l5.88,1.61c.53.15.82-.16.64-.68l-.19-.54A2.17,2.17,0,0,0,122.47,41l-3.23-1a2.81,2.81,0,0,1-1.44-1.17l-.48-.88a1.83,1.83,0,0,0-1.47-.88Z"/><rect class="cls-2" x="100.88" y="27.6" width="2.04" height="9.04"/><path class="cls-2" d="M105.72,30.14H98.28a13.83,13.83,0,0,0-9.19,4.11l-3.75,4.18a9.64,9.64,0,0,1-3.91,2.36,4.05,4.05,0,0,1,.12.5H75.38a3.24,3.24,0,0,0-2.64-1.35h0a3.3,3.3,0,0,0-2.65,1.35H63.92l0-.14a10,10,0,0,1-5.29-2.7l-3.75-4.19a13.87,13.87,0,0,0-9.19-4.1H38.28a2,2,0,0,0,0,4h7.44A9.89,9.89,0,0,1,52,36.91l3.75,4.18a14,14,0,0,0,8.22,4.06c0-.2-.07-.4-.1-.59h5.95A3,3,0,0,0,70,45a3.31,3.31,0,0,0,2.72,1.44h0a3.23,3.23,0,0,0,2.59-1.29,3.5,3.5,0,0,0,.37-.62h5.94c0,.1,0,.2,0,.3q.51-.13,1-.3h.6a1.64,1.64,0,0,0,1.41-.83,12.22,12.22,0,0,0,3.67-2.66l3.75-4.18a9.89,9.89,0,0,1,6.23-2.79h7.44a2,2,0,1,0,0-4Z"/><path class="cls-3" d="M85.59,52.67H82.78L73.59,37.76a.87.87,0,0,0,.25-.62.92.92,0,1,0-1.58.62L63.08,52.67H60.27a1.59,1.59,0,0,0-1.59,1.58V67.91a1.59,1.59,0,0,0,1.59,1.59H85.59a1.59,1.59,0,0,0,1.58-1.59V54.25A1.58,1.58,0,0,0,85.59,52.67Zm-24,3.74a1.37,1.37,0,0,1,0-2.74,1.42,1.42,0,0,1,.76.23l-.19.31a.24.24,0,0,0,.08.33.27.27,0,0,0,.12,0,.26.26,0,0,0,.21-.11l.13-.22a1.39,1.39,0,0,1,.26.8A1.37,1.37,0,0,1,61.56,56.41Zm12.3,4.42c.29,0,.46.08.52.25a1,1,0,0,1,0,.32,1,1,0,0,1,0,.33.21.21,0,0,1-.12.16.87.87,0,0,1-.41.08H71.62v.63h2.24l.28,0a.35.35,0,0,1,.19.15.65.65,0,0,1,.09.37,1.08,1.08,0,0,1,0,.35.23.23,0,0,1-.12.17.89.89,0,0,1-.41.07H71.78a1.14,1.14,0,0,0,.42.66,1.18,1.18,0,0,0,.59.15h1.3a1.52,1.52,0,0,1,.62.1A.55.55,0,0,1,75,65a2,2,0,0,1,.06.53A1.88,1.88,0,0,1,75,66a.47.47,0,0,1-.2.28,1.3,1.3,0,0,1-.62.13H72.78a2.7,2.7,0,0,1-1.14-.23,2.84,2.84,0,0,1-.79-.51,3,3,0,0,1-.56-.78,4.36,4.36,0,0,1-.41-1.17h-.44a1,1,0,0,1-.39,0,.48.48,0,0,1-.18-.45.9.9,0,0,1,.09-.47.33.33,0,0,1,.2-.15l.27,0h.32c0-.09,0-.23,0-.43V62h-.3a1.18,1.18,0,0,1-.39,0,.49.49,0,0,1-.18-.45A.88.88,0,0,1,69,61a.4.4,0,0,1,.2-.16h.7a4,4,0,0,1,.49-1.36,2.43,2.43,0,0,1,.79-.83,3.12,3.12,0,0,1,1.65-.49h1.69a.77.77,0,0,1,.28.11.44.44,0,0,1,.21.29,2,2,0,0,1,0,.54,1.88,1.88,0,0,1-.06.53.46.46,0,0,1-.23.29,1,1,0,0,1-.28.1H72.78a1,1,0,0,0-1,.8ZM63.64,52.67l9-14.65a1.14,1.14,0,0,0,.52,0l9,14.65ZM84.3,56.41A1.37,1.37,0,0,1,82.93,55a1.32,1.32,0,0,1,.26-.8l.13.22a.23.23,0,0,0,.2.11.31.31,0,0,0,.13,0,.24.24,0,0,0,.07-.33l-.18-.31a1.39,1.39,0,0,1,.76-.23,1.37,1.37,0,1,1,0,2.74Z"/></g></g></svg>