<svg xmlns="http://www.w3.org/2000/svg" viewBox="0 0 144 86"><defs><style>.cls-1{isolation:isolate;}.cls-2{fill:#fff;}.cls-3{fill:#766dad;}.cls-4,.cls-7{fill:#392d87;}.cls-5{fill:#8e84cf;}.cls-6{fill:#675bb0;}.cls-7{opacity:0.65;mix-blend-mode:multiply;}.cls-8{fill:#aaa0eb;}.cls-9{fill:#62b5cc;}.cls-10{fill:#469fb7;}.cls-11{fill:#387e91;}.cls-12{fill:#398194;}</style></defs><title>nos_offres_restauration</title><g class="cls-1"><g id="Nos_offres_1" data-name="Nos offres 1"><g id="bloc_1-5" data-name="bloc 1"><circle class="cls-2" cx="72" cy="43.89" r="42.99"/><path class="cls-3" d="M89,51.29c-1.23-.07-2.68.77-4.12,1.68-4.53,2.86-8,9.14-13.82,9.09-2.65,0-6.89-1.88-11.21-3.49l-.46,4.54a58,58,0,0,1,6.26,1.81,78.39,78.39,0,0,0,10.82,3c2.91-1.82,7.1-5.76,13.62-13C91.1,53.82,90.48,51.38,89,51.29Z"/><path class="cls-4" d="M69.82,63.49a79.83,79.83,0,0,0,10.82,3c2.91-1.83,7.1-5.76,13.63-13,1-1.07.34-3.52-1.1-3.6-1.23-.07-2.68.76-4.11,1.67-4.54,2.87-8,9.15-13.83,9.09S55.91,51.7,50.72,55.94l0-.06L50.3,59.6C56.92,60.3,63.51,61.23,69.82,63.49Z"/><path class="cls-5" d="M74.86,62.42a78.39,78.39,0,0,0,10.82,3c2.91-1.82,7.34-5.48,13.87-12.73a1.75,1.75,0,0,0-1.17-2.91,9.81,9.81,0,0,0-4.29.69c-4,1.62-8,9.15-13.82,9.1S61,50.63,55.76,54.87l0-.06-.37,3.72C62,59.23,68.55,60.16,74.86,62.42Z"/><path class="cls-6" d="M24.52,67.11A12.8,12.8,0,0,0,36.11,78.23s9.43-10.14,11.53-11c5.75-2.38,14.8.67,17.26.87,4,.32,13,.5,17.61,1.28a2,2,0,0,0,1.6-.4,86.35,86.35,0,0,1,8.45-6C95,61.56,97,58.49,100,55.19a1.74,1.74,0,0,0-1.17-2.91,9.83,9.83,0,0,0-4.29.69c-4,1.62-8,9.15-13.82,9.09S61.39,53.14,56.2,57.38c0,0-6.21-7.71-11.62-4.45S32.82,62.55,24.52,67.11Z"/><path class="cls-7" d="M64.94,57.05l-7.26-4.38C44.7,48.19,45.87,53.88,44,55l8.74,5s6.46-2.89,23.11,1C75.87,61,65.4,57.09,64.94,57.05Z"/><path class="cls-6" d="M81.19,55.72a.71.71,0,0,0-.55-.95c-3.59-.33-17.14-1.69-25.11-4.44-13-4.48-12,3.42-13.89,4.58L52.76,60S54.5,54.56,73,59.91C73,59.91,80,60.51,81.19,55.72Z"/><path class="cls-8" d="M75.83,54.48s-2.22,1-1,2.28c.61.69,1.67,1.12,3.61.73a2.79,2.79,0,0,0,2.33-1.94.52.52,0,0,0-.47-.62Z"/><path class="cls-8" d="M99.25,53.5c-1.31-.19-3.59.66-3.53,3.79,0,.73,1.06,1,1.79.46s1.47-1.42,2.36-2.33A1.09,1.09,0,0,0,99.25,53.5Z"/><path class="cls-9" d="M97.46,32.27A33.75,33.75,0,0,0,90.91,38c-4.5,5.34-10.41,9.17-14.45,9.69-5.57.72-12.94-1.7-21-11.48a60.42,60.42,0,0,0,10.45-6.6C78.92,18.84,85.12,33.15,97.46,32.27Z"/><path class="cls-10" d="M97.46,32.27A33.75,33.75,0,0,0,90.91,38c-4.5,5.34-10.41,9.17-14.45,9.69-5.57.72-12.94-1.7-21-11.48C55.45,36.18,63.76,42.57,97.46,32.27Z"/><path class="cls-11" d="M71,38.92c6.5.06,13.13-1.14,17.94-5.06,0,0-6,3.41-16.81,3.73,2.46-3.6,11.1-4.87,11.1-4.87-.41,0-9.83.72-12.21,4.89a58,58,0,0,1-6.64-.33c1.47-4,9.49-6.86,9.49-6.86-.38.1-9,2.44-10.48,6.75a70.11,70.11,0,0,1-15-3.6s-1.72.58-.07,1.14A81.23,81.23,0,0,0,61,38c4.09,7.14,12.76,7.55,12.85,7.55s-7.73-1-11.66-7.36a63.43,63.43,0,0,0,7.37.73,15.83,15.83,0,0,0,12.29,3.58A18,18,0,0,1,71,38.92Z"/><path class="cls-12" d="M71,38.92a33.4,33.4,0,0,0,13.12-2.21C76.32,40,61,38,61,38c4.09,7.14,12.76,7.55,12.85,7.55s-7.73-1-11.66-7.36a63.43,63.43,0,0,0,7.37.73,15.83,15.83,0,0,0,12.29,3.58A18,18,0,0,1,71,38.92Z"/></g></g></g></svg>