<svg xmlns="http://www.w3.org/2000/svg" viewBox="0 0 144 86"><defs><style>.cls-1{fill:#fff;}.cls-2{fill:#fcc670;}.cls-3{fill:#eb5c40;}</style></defs><title>nos_offres_livreur</title><g id="Nos_offres_1" data-name="Nos offres 1"><g id="bloc_1-5" data-name="bloc 1"><circle class="cls-1" cx="72" cy="43" r="42.99"/></g></g><g id="Calque_116" data-name="Calque 116"><path class="cls-2" d="M22.58,24.74v7.71c-2.23,0-4-.69-4-2.31V27C18.56,25.42,20.35,24.78,22.58,24.74Z"/><rect class="cls-2" x="24.56" y="24.73" width="1.16" height="7.72"/><rect class="cls-2" x="27.15" y="24.73" width="13.93" height="7.72"/><path class="cls-2" d="M30.06,33.54h10c.55,0,.78.39.52.87l-.29.51a1.89,1.89,0,0,1-1.49.87H29.53a1.67,1.67,0,0,0-1.41.92l-.17.38a2.42,2.42,0,0,1-1.38,1.17l-5.88,1.62c-.53.15-.82-.16-.64-.68l.19-.54a2.17,2.17,0,0,1,1.29-1.23l3.23-1A2.86,2.86,0,0,0,26.2,35.3l.48-.88a1.83,1.83,0,0,1,1.47-.88Z"/><rect class="cls-2" x="41.08" y="24.07" width="2.04" height="9.04"/><path class="cls-2" d="M121.42,24.72v7.71c2.23,0,4-.69,4-2.31V27C125.44,25.4,123.65,24.75,121.42,24.72Z"/><rect class="cls-2" x="118.28" y="24.71" width="1.16" height="7.72"/><rect class="cls-2" x="102.92" y="24.71" width="13.93" height="7.72"/><path class="cls-2" d="M113.94,33.52h-10c-.55,0-.78.39-.52.87l.29.51a1.89,1.89,0,0,0,1.49.87h9.29a1.67,1.67,0,0,1,1.41.92l.17.38a2.42,2.42,0,0,0,1.38,1.17l5.88,1.62c.53.15.82-.16.64-.68l-.19-.54a2.17,2.17,0,0,0-1.29-1.23l-3.23-1a2.79,2.79,0,0,1-1.44-1.16l-.48-.89a1.84,1.84,0,0,0-1.47-.87Z"/><rect class="cls-2" x="100.88" y="24.05" width="2.04" height="9.04"/><path class="cls-2" d="M105.72,26.59H98.28a13.83,13.83,0,0,0-9.19,4.11l-3.75,4.18a9.64,9.64,0,0,1-3.91,2.36,4.05,4.05,0,0,1,.12.5H75.38a3.24,3.24,0,0,0-2.64-1.35h0a3.27,3.27,0,0,0-2.65,1.35H63.92l0-.14a10,10,0,0,1-5.29-2.7l-3.75-4.19a13.87,13.87,0,0,0-9.19-4.1H38.28a2,2,0,0,0,0,4h7.44A9.89,9.89,0,0,1,52,33.36l3.75,4.18a14.09,14.09,0,0,0,8.22,4.06c0-.2-.07-.4-.1-.59h5.95a3,3,0,0,0,.25.47,3.31,3.31,0,0,0,2.72,1.44h0a3.23,3.23,0,0,0,2.59-1.29A3.5,3.5,0,0,0,75.7,41h5.94a2.54,2.54,0,0,1,0,.29c.34-.08.68-.18,1-.29h.6a1.64,1.64,0,0,0,1.41-.83,12.22,12.22,0,0,0,3.67-2.66l3.75-4.18a9.89,9.89,0,0,1,6.23-2.79h7.44a2,2,0,1,0,0-4Z"/><path class="cls-3" d="M85.59,49.12H82.78L73.59,34.21a.87.87,0,0,0,.25-.62.92.92,0,1,0-1.58.62L63.08,49.12H60.27a1.59,1.59,0,0,0-1.59,1.58V64.36A1.6,1.6,0,0,0,60.27,66H85.59a1.59,1.59,0,0,0,1.58-1.59V50.7A1.58,1.58,0,0,0,85.59,49.12Zm-24,3.74a1.37,1.37,0,0,1,0-2.74,1.42,1.42,0,0,1,.76.23l-.19.31a.23.23,0,0,0,.08.32.19.19,0,0,0,.12,0,.26.26,0,0,0,.21-.11l.13-.22a1.39,1.39,0,0,1,.26.8A1.37,1.37,0,0,1,61.56,52.86Zm12.3,4.42c.29,0,.46.08.52.24a1.06,1.06,0,0,1,0,.33,1,1,0,0,1,0,.33.23.23,0,0,1-.12.16.87.87,0,0,1-.41.08H71.62v.63h2.24l.28,0a.35.35,0,0,1,.19.15.65.65,0,0,1,.09.37,1.08,1.08,0,0,1,0,.35.25.25,0,0,1-.12.17.89.89,0,0,1-.41.07H71.78a1.14,1.14,0,0,0,.42.66,1.18,1.18,0,0,0,.59.15h1.3a1.52,1.52,0,0,1,.62.1.52.52,0,0,1,.25.31,1.93,1.93,0,0,1,.06.53,1.88,1.88,0,0,1-.06.53.47.47,0,0,1-.2.28,1.31,1.31,0,0,1-.62.12H72.78a2.7,2.7,0,0,1-1.14-.22,2.84,2.84,0,0,1-.79-.51,3.21,3.21,0,0,1-.56-.78,4.36,4.36,0,0,1-.41-1.17h-.44a1,1,0,0,1-.39,0,.48.48,0,0,1-.18-.45.9.9,0,0,1,.09-.47.33.33,0,0,1,.2-.15l.27,0h.32c0-.09,0-.23,0-.43v-.19h-.3a.93.93,0,0,1-.39-.06.47.47,0,0,1-.18-.44.92.92,0,0,1,.09-.48.33.33,0,0,1,.2-.15h.7a4,4,0,0,1,.49-1.36,2.43,2.43,0,0,1,.79-.83,3.12,3.12,0,0,1,1.65-.49h1.69a.77.77,0,0,1,.28.11A.44.44,0,0,1,75,55a1.94,1.94,0,0,1,0,.53,1.91,1.91,0,0,1-.06.54.46.46,0,0,1-.23.29.9.9,0,0,1-.28.09,1.84,1.84,0,0,1-.37,0h-1.3a1,1,0,0,0-1,.8ZM63.64,49.12l9-14.66a.87.87,0,0,0,.52,0l9,14.66ZM84.3,52.86a1.37,1.37,0,0,1-1.37-1.37,1.32,1.32,0,0,1,.26-.8l.13.22a.23.23,0,0,0,.2.11.22.22,0,0,0,.13,0,.23.23,0,0,0,.07-.32l-.18-.31a1.39,1.39,0,0,1,.76-.23,1.37,1.37,0,1,1,0,2.74Z"/></g></svg>