<svg xmlns="http://www.w3.org/2000/svg" viewBox="0 0 144 86"><defs><style>.cls-1{fill:#fff;}.cls-2{fill:#e2907d;}.cls-3{fill:#eb5c40;}.cls-4{fill:#bf493a;}.cls-5{fill:#f2b5a5;opacity:0.46;}.cls-6{fill:#fcc670;}</style></defs><title>nos_offres_livreur</title><g id="Nos_offres_1" data-name="Nos offres 1"><g id="bloc_1-5" data-name="bloc 1"><circle class="cls-1" cx="72" cy="43" r="42.99"/></g></g><g id="Calque_116" data-name="Calque 116"><path class="cls-2" d="M143.84,60.72a16,16,0,0,1-9.51-1.28c-.37-.16-.75-.34-1.12-.53-4-2-7.44-3.12-11.31-1.89A17.67,17.67,0,0,0,116,60.51a10.06,10.06,0,0,1-4.43,2.21C106,63.9,99.81,60.58,91.71,61.5c-3,.33-7.49,3.23-9.93,2.23C84.48,53,69.51,34.79,74.07,30.8c0,0,.75-.31,2.09-.72l.27-.09a50.71,50.71,0,0,1,5.28-1.27A49.41,49.41,0,0,1,94.62,28a37.61,37.61,0,0,1,20.49,7.82c18.21,14.25,10.76,8.73,16.76,15.42.32.36.64.7.95,1a45.27,45.27,0,0,0,8.91,7.28C143,60.34,143.84,60.72,143.84,60.72Z"/><path class="cls-3" d="M134.33,59.44c-.37-.16-.75-.34-1.12-.53-4-2-7.44-3.12-11.31-1.89A17.67,17.67,0,0,0,116,60.51a10.06,10.06,0,0,1-4.43,2.21C106,63.9,99.81,60.58,91.71,61.5c-3,.33-11.19,4.58-9.85,1.34,5.61-13.56-11.68-29.43-5.34-31.42a1,1,0,0,1,.24-.05s0,0,.08,0l.24,0c4.91-.63,12.35-.6,22.52,2.44C111.58,37.33,125.92,48.38,134.33,59.44Z"/><path class="cls-4" d="M111.53,62.72C106,63.9,99.81,60.58,91.71,61.5c-3,.33-11,4.54-9.85,1.34a21.39,21.39,0,0,0-1.44-16.63c-6.83-12.07,4.75-7.27,10-2.63C94.37,47.14,103.32,57.39,111.53,62.72Z"/><path class="cls-5" d="M132.82,52.26c-2.48-1.72-5.47-3.9-9.38-6.75C108.92,35,99,29.49,93.47,29.44c-4.58,0-6.17-.3-6.42-.6A51.18,51.18,0,0,1,94.62,28a37.61,37.61,0,0,1,20.49,7.82c18.21,14.25,10.76,8.73,16.76,15.42C132.19,51.59,132.51,51.93,132.82,52.26Z"/><path class="cls-6" d="M77.76,54A16.26,16.26,0,1,1,94,70.21,16.28,16.28,0,0,1,77.76,54Zm2.58,0A13.68,13.68,0,1,0,94,40.27,13.69,13.69,0,0,0,80.34,54Z"/><path class="cls-6" d="M24.13,54A16.26,16.26,0,1,1,40.38,70.21,16.27,16.27,0,0,1,24.13,54Zm2.57,0A13.69,13.69,0,1,0,40.38,40.27,13.7,13.7,0,0,0,26.7,54Z"/><circle class="cls-6" cx="94.02" cy="53.96" r="3.21"/><path class="cls-6" d="M94,52A1.93,1.93,0,1,1,92.09,54,1.93,1.93,0,0,1,94,52m0-1.29A3.22,3.22,0,1,0,97.23,54,3.21,3.21,0,0,0,94,50.74Z"/><circle class="cls-6" cx="40.38" cy="53.96" r="3.21"/><path class="cls-6" d="M40.38,52A1.93,1.93,0,1,1,38.46,54,1.92,1.92,0,0,1,40.38,52m0-1.29A3.22,3.22,0,1,0,43.6,54a3.22,3.22,0,0,0-3.22-3.22Z"/><path class="cls-6" d="M65.23,54.72,48.56,31.92a1.28,1.28,0,0,1,1-2h26a1.27,1.27,0,0,1,1,.48L94.91,53.15a1.28,1.28,0,0,1-1,2.09H66.27A1.28,1.28,0,0,1,65.23,54.72ZM75,32.45H52.13L66.92,52.67H91.23Z"/><rect class="cls-6" x="57.06" y="38.95" width="29.65" height="2.57" transform="translate(7.42 91.52) rotate(-67.74)"/><circle class="cls-6" cx="66.27" cy="53.96" r="3.86"/><path class="cls-6" d="M61.77,54a4.5,4.5,0,1,1,4.5,4.5A4.5,4.5,0,0,1,61.77,54Zm1.28,0a3.22,3.22,0,1,0,3.22-3.22A3.22,3.22,0,0,0,63.05,54Z"/><path class="cls-6" d="M73.44,24.88h7.67v3.26l-7.83-2A.64.64,0,0,1,73.44,24.88Z"/><path class="cls-6" d="M80.79,29.39l-7.83-2a1.93,1.93,0,0,1,.48-3.8h7.67a1.29,1.29,0,0,1,1.29,1.29v3.26a1.3,1.3,0,0,1-.5,1,1.28,1.28,0,0,1-.79.27A1.17,1.17,0,0,1,80.79,29.39Zm-2.23-3.22,1.26.32v-.32Zm-5.13,0h0Z"/><line class="cls-6" x1="66.27" y1="53.96" x2="66.27" y2="61.59"/><path class="cls-6" d="M66.27,62.23a.64.64,0,0,0,.64-.64V54a.65.65,0,1,0-1.29,0v7.63A.64.64,0,0,0,66.27,62.23Z"/><path class="cls-6" d="M66.27,62.88H70a1.29,1.29,0,0,0,0-2.57H66.27a1.29,1.29,0,1,0,0,2.57Z"/><circle class="cls-6" cx="94.02" cy="53.96" r="1.29"/><path class="cls-6" d="M40.38,55.24a1.29,1.29,0,0,0,1.2-.8l12-29.74a1.31,1.31,0,0,0-.12-1.2,1.3,1.3,0,0,0-1.07-.56H50.06a2,2,0,0,1,0-3.93h2.3a1.29,1.29,0,0,0,0-2.57h-2.3a4.54,4.54,0,0,0,0,9.07h.42l-11.28,28a1.3,1.3,0,0,0,.71,1.67A1.36,1.36,0,0,0,40.38,55.24Z"/><circle class="cls-6" cx="40.38" cy="53.96" r="1.29"/><path class="cls-6" d="M52.37,19.64H59a1.93,1.93,0,1,0,0-3.85h-6.6a1.93,1.93,0,1,0,0,3.85Z"/><path class="cls-3" d="M87.87,26.82C87.09,28.05,86.46,29,86.46,29s-2.1.76-3.42,1.14-7.84,1.33-7.84,1.33a90,90,0,0,1,5.26-8,6.56,6.56,0,0,1,3.62-1.56h0c2.69-.52,5.88-.53,6.63-.72S89.38,24.43,87.87,26.82Z"/><path class="cls-3" d="M73.81,31.46l-1.47-.28-3.09-.6s-8.37-3.91-7.91-4.9c.34-.75,2.12-3.25,4-3.55a2.21,2.21,0,0,1,1.82.51,34.14,34.14,0,0,1,4.94,6.19h0l1.1,1.69Z"/><path class="cls-4" d="M73.44,30.09a1.93,1.93,0,0,1-.22.43,1.73,1.73,0,0,1-.88.66l-3.09-.6s-8.37-3.91-7.91-4.9c.34-.75,2.12-3.25,4-3.55a3.74,3.74,0,0,0-1.26,2.46c.12,1.3,5.91,4.24,8,4.24h0a1.56,1.56,0,0,0,.46-.06S73.8,29,73.44,30.09Z"/><path class="cls-3" d="M73.84,31.3a25.61,25.61,0,0,1-5.53,1.37,3.93,3.93,0,0,1-1,.07c-.61-.15-1.07-.76-.39-2.35.32-.73,4.68-.65,6.33-.51a2.27,2.27,0,0,1,.63.11A1.23,1.23,0,0,1,73.84,31.3Z"/><path class="cls-4" d="M73.28,29.88a3.67,3.67,0,0,1-.29.59c-3.43,1-4.32,1.06-4.62,1.65a1,1,0,0,0-.06.55,3.93,3.93,0,0,1-1,.07c-.61-.15-1.07-.76-.39-2.35C67.27,29.66,71.63,29.74,73.28,29.88Z"/><path class="cls-3" d="M79,37.72c-.84-.13-3.08-3.75-4.3-6a9.69,9.69,0,0,1-.82-1.82c0-.71.39-1.61.88-1.21,0,0,6.07,4.81,6.68,6.37a.53.53,0,0,1,0,.12A2.36,2.36,0,0,1,79,37.72Z"/><path class="cls-4" d="M79,37.72c-.84-.13-3.08-3.75-4.3-6,0-.41,0-.7.18-.79.55-.36,1.85.58,1.85.58,1.51,2.29,1.33,4.37,3,4A12.17,12.17,0,0,0,81.46,35a.53.53,0,0,1,0,.12A2.36,2.36,0,0,1,79,37.72Z"/><path class="cls-4" d="M87.87,26.82C87.09,28.05,86.46,29,86.46,29s-2.1.76-3.42,1.14-7.84,1.33-7.84,1.33a90,90,0,0,1,5.26-8,6.56,6.56,0,0,1,3.62-1.56c-2.91,3.95-4.1,6.66-.12,5.66A24.06,24.06,0,0,1,87.87,26.82Z"/><path class="cls-3" d="M75.93,32.3c-1.3.18-3.34-.47-3.8-1.12-.26-.35-.09-1.31.11-2.09.16-.63.35-1.15.35-1.15a24.75,24.75,0,0,1,3.4,0l.3,0a.72.72,0,0,1,.46.39C77.33,29.37,77,32.15,75.93,32.3Z"/><path class="cls-4" d="M75.93,32.3c-1.3.18-3.34-.47-3.8-1.12-.26-.35-.09-1.31.11-2.09a3.44,3.44,0,0,0,.9,1.25c.93.71,2.62,0,2.85-2.44l.3,0a.72.72,0,0,1,.46.39C77.33,29.37,77,32.15,75.93,32.3Z"/></g></svg>