<svg xmlns="http://www.w3.org/2000/svg" xmlns:xlink="http://www.w3.org/1999/xlink" viewBox="0 0 380.76 444.25"><defs><style>.cls-1,.cls-10,.cls-25,.cls-26,.cls-8{fill:none;}.cls-2{isolation:isolate;}.cls-3{clip-path:url(#clip-path);}.cls-4{fill:#bedded;}.cls-14,.cls-20,.cls-5{fill:#1a1a1a;}.cls-5{opacity:0.11;}.cls-6{fill:#fff;}.cls-7{fill:#e2cdc3;}.cls-8{stroke:#000;stroke-linejoin:round;stroke-width:1.3px;}.cls-25,.cls-26,.cls-8{stroke-linecap:round;}.cls-9{fill:#683c11;}.cls-10{stroke:#312783;stroke-width:1.5px;}.cls-10,.cls-25,.cls-26{stroke-miterlimit:10;}.cls-11{fill:url(#linear-gradient);}.cls-12{fill:url(#linear-gradient-2);}.cls-13{fill:#54619e;}.cls-14{opacity:0.17;}.cls-15{fill:#312783;}.cls-16{fill:#2f9fa8;}.cls-17{fill:#494949;opacity:0.2;mix-blend-mode:darken;}.cls-18{fill:#46b594;}.cls-19{fill:#7885b5;}.cls-20{opacity:0.24;}.cls-21{fill:#233142;}.cls-22{fill:#f9cee3;}.cls-23{fill:#fbbc43;}.cls-24{fill:#eb5c40;}.cls-25{stroke:#eb5c40;}.cls-26{stroke:#1a1a1a;}.cls-27{fill:#efe2d8;}</style><clipPath id="clip-path"><rect class="cls-1" x="-609.48" y="5.2" width="990.24" height="440.55"/></clipPath><linearGradient id="linear-gradient" x1="29.68" y1="428.91" x2="481.52" y2="428.91" gradientUnits="userSpaceOnUse"><stop offset="0" stop-color="#a3cce3"/><stop offset="1" stop-color="#a3cce3"/></linearGradient><linearGradient id="linear-gradient-2" x1="61.31" y1="326.45" x2="103.44" y2="326.45" xlink:href="#linear-gradient"/></defs><title>notre_societe</title><g class="cls-2"><g id="Notre_société_mobile" data-name="Notre société mobile"><g id="titre-4" data-name="titre"><g class="cls-3"><g id="illustrations"><path class="cls-4" d="M336.45,240.68a9.78,9.78,0,0,0-2-.17l-25.28,1.28h-.6a15.88,15.88,0,0,0-4.89.88c-6,1.55-14.17,4.76-15.45,6.78-1.79,2.81-9.19,14.56-12.77,20.17s-7.66,12-6.89,18.9,14.3,28.6,14.3,28.6l3.06-.26,8.94-1s-8.94-24.77-9.45-26.56.25-3.31,1.28-5.61,12.25-13.54,12.25-13.54.51,11.24,1.53,15.58,8.18,32.43,8.18,32.43l34.72,1.53,3.75-35.31,1.1-10.4.52-29.36C346.13,242,339.73,241,336.45,240.68Z"/><path class="cls-5" d="M343.37,319.67l3.75-35.31,1.1-10.4-5.28-7s-1.35,35.4-6.72,49.87h0Z"/><path class="cls-5" d="M285.41,289.28c-.51-1.78.25-3.31,1.28-5.61s12.25-13.54,12.25-13.54l-.26-6.38s-11.74,14.47-13.27,17.2S285.41,289.28,285.41,289.28Z"/><path class="cls-6" d="M336.22,316.86a55.3,55.3,0,0,1-5.87,2.3,9.48,9.48,0,0,0-2.55,1L325,332.69s3.57-2.8,5.87-3.06,8.43-.26,12.26-6.89C343.12,322.74,339.54,316.86,336.22,316.86Z"/><path class="cls-4" d="M349.24,244.6c3.72,3.57,25.5,39.58,25.5,39.58s3.71,5.87.79,9.19-32.14,29.37-32.14,29.37-3.18-4.6-5.57-5.11l-1.6-.77s21.25-26,24.44-28.09l-13.33-15.83-1-19.4,2.92-8.94"/><path class="cls-7" d="M300.2,204.84a20.19,20.19,0,1,1,32.41,21.55,12,12,0,0,0-4.3,8.89v2.6c0,6.21-8.26,14.62-8.26,14.62h0s-8.85-5.64-8.35-15.11v-1.48a4.93,4.93,0,0,0-4-4.95,11.53,11.53,0,0,1-6.23-3.09c-3-3-3-7.15-2.67-11.24Z"/><path class="cls-8" d="M318.59,208.13a2.74,2.74,0,1,0-5.46-.4,2.67,2.67,0,0,0,0,.4"/><path class="cls-8" d="M306.53,208.13a2.74,2.74,0,0,0-5.47,0"/><path class="cls-8" d="M306.28,220.42a4.25,4.25,0,0,0,6,0h0"/><polyline class="cls-8" points="309 214.89 304.98 213.82 309.27 206.39"/><path class="cls-9" d="M333.61,195.5a.48.48,0,0,0-.12-.44c-.22-.23-5.49-5.64-15.75-4.81s-12.89,5.56-13,5.76a.48.48,0,0,0-.05.31,1.19,1.19,0,0,0,.59.76c1.42.92,6.23,1.7,11.76,1.7a46.88,46.88,0,0,0,11.31-1.27l4.94-1.67A.48.48,0,0,0,333.61,195.5Z"/><path class="cls-9" d="M340.15,208.21a23.3,23.3,0,0,0-1.07-4.44c-2.7-7.86-4.58-8.46-4.93-8.5a.48.48,0,0,0-.43.18c-.17.22-4.29,5.54-2.69,16.49.53,3.63,1.05,4.38,1.72,4.4,1,0,1.43-1.58,2.21-5,.17-.73.32-1.36.43-1.74.39-1.25,1.55-2.7,2.46-2.71h0c.65,0,1.08.79,1.34,1.5.87,6.94-2.53,10.83-2.57,10.87a.48.48,0,0,0,0,.65.47.47,0,0,0,.34.14.45.45,0,0,0,.31-.11C339.28,218.26,342.29,214.52,340.15,208.21Z"/><polyline class="cls-10" points="331.53 243.66 332.57 251.21 323.29 250.52"/><path class="cls-10" d="M317.79,309.91V255.08a4.09,4.09,0,0,0-5.92-3.67l-3,1.48-5.13-10.6"/><ellipse class="cls-11" cx="255.6" cy="428.91" rx="225.92" ry="85.92"/><path class="cls-12" d="M103.44,326.45c0,1.85-9.43,3.35-21.07,3.35s-21.06-1.5-21.06-3.35,9.43-3.34,21.06-3.34S103.44,324.61,103.44,326.45Z"/><path class="cls-13" d="M103.44,326.45c0,1.85-9.43,3.35-21.07,3.35s-21.06-1.5-21.06-3.35l4.62,47,1.25,12.68c0,1.33,6.8,2.41,15.19,2.41s15.19-1.08,15.19-2.41l2.65-26.9Z"/><path class="cls-14" d="M100.21,359.27l-2.65,26.9c0,1.33-6.8,2.41-15.19,2.41s-15.19-1.08-15.19-2.41l-1.25-12.68S81.64,377.64,98,362.83Z"/><path class="cls-15" d="M94.54,326.45c0,1.07-5.45,1.94-12.17,1.94s-12.17-.87-12.17-1.94,5.45-1.93,12.17-1.93S94.54,325.39,94.54,326.45Z"/><path class="cls-16" d="M81.48,266.85s-25.79-56.94-2.56-99.33C78.92,167.52,111.86,215.78,81.48,266.85Z"/><path class="cls-17" d="M78.16,186.16c.53,6.72.87,13.45,1.2,20.17s.57,13.45.82,20.17l.57,20.18.31,10.08c0,3.37.24,6.72.42,10.09a191.06,191.06,0,0,1-2.29-20.1c-.52-6.72-.8-13.45-1-20.18s-.36-13.46-.34-20.2S77.85,192.9,78.16,186.16Z"/><path class="cls-18" d="M48.54,217.57s-1.79,55.15,33.7,71.75C82.24,289.32,90.16,228,48.54,217.57Z"/><path class="cls-17" d="M51.86,223.19c1.38,2.59,2.66,5.22,4,7.83l3.88,7.88,7.7,15.78,7.68,15.77c1.27,2.63,2.62,5.23,4,7.82l2,3.89L83.27,286c-1.82-2.31-3.43-4.77-5-7.23s-3-5-4.48-7.59c-2.9-5.1-5.56-10.34-8.13-15.61s-5-10.61-7.28-16S53.81,228.72,51.86,223.19Z"/><path class="cls-18" d="M108.54,216.29s-35.23,25.79-26,71.24C82.5,287.53,121.57,266.85,108.54,216.29Z"/><path class="cls-17" d="M103.18,234.42A110.11,110.11,0,0,1,100,247.58c-1.25,4.34-2.78,8.59-4.43,12.8S92.1,268.72,90,272.74a112.74,112.74,0,0,1-6.75,11.73c.83-2.11,1.84-4.11,2.67-6.21s1.82-4.1,2.66-6.18c1.72-4.14,3.45-8.27,5.08-12.45s3.24-8.36,4.84-12.55Z"/><path class="cls-16" d="M82,301.58S73.56,272.72,118,260C118,260,116.2,305.66,82,301.58Z"/><path class="cls-17" d="M110.59,270.17a62.28,62.28,0,0,1-4.68,8.61,73.43,73.43,0,0,1-5.83,7.9,52.25,52.25,0,0,1-7,6.94,26.9,26.9,0,0,1-8.53,4.89A47.42,47.42,0,0,0,92,292.43c2.29-2.22,4.43-4.62,6.5-7.07s4.09-5,6.09-7.5Z"/><path class="cls-16" d="M49.31,258.93s-2,36.52,35.57,42.65C84.88,301.58,90.72,265.57,49.31,258.93Z"/><path class="cls-17" d="M57,269.15c3.53,4.63,6.77,9.37,10.21,14,1.68,2.31,3.47,4.54,5.31,6.7a33,33,0,0,0,6.19,5.9,20.31,20.31,0,0,1-7.34-4.79,49.66,49.66,0,0,1-5.8-6.59A67.76,67.76,0,0,1,57,269.15Z"/><path class="cls-18" d="M82.24,317.92s-12-29.37,34.73-40.6C117,277.32,111.35,317.66,82.24,317.92Z"/><path class="cls-17" d="M87.1,312.3c4.24-4.28,8.48-8.43,12.56-12.74,2.07-2.13,4.06-4.34,6-6.54s3.9-4.49,5.9-6.76A49.26,49.26,0,0,1,107,294a67.68,67.68,0,0,1-5.81,7A64.94,64.94,0,0,1,87.1,312.3Z"/><path class="cls-18" d="M82.24,317.92s13.85-20.3-24.51-36.52C57.73,281.4,52.62,317.41,82.24,317.92Z"/><path class="cls-17" d="M64.37,294.43c3,4.05,5.66,8.22,8.44,12.29,1.38,2,2.81,4,4.28,6a23.09,23.09,0,0,0,5.15,5.2c-2.49-.61-4.58-2.38-6.35-4.15a45.59,45.59,0,0,1-4.77-5.9A56.45,56.45,0,0,1,64.37,294.43Z"/><path class="cls-16" d="M82.37,326.45S74.58,310.51,97.82,308C97.82,308,99.61,325.8,82.37,326.45Z"/><path class="cls-17" d="M84.54,324.05A68.18,68.18,0,0,1,89.6,318l2.63-2.83c.9-1,1.76-1.91,2.78-2.86a15.52,15.52,0,0,1-3.9,7.07A17.9,17.9,0,0,1,84.54,324.05Z"/><path class="cls-16" d="M82.37,326.45s5.24-14.66-15.45-18.74C66.92,307.71,64.88,326.05,82.37,326.45Z"/><path class="cls-17" d="M73.05,314.6a40.77,40.77,0,0,0,4.15,5.45,23.48,23.48,0,0,0,2.4,2.27c.86.75,1.8,1.39,2.77,2.2a8.16,8.16,0,0,1-3.62-.85,10,10,0,0,1-3-2.23,10.33,10.33,0,0,1-2-3.17A7.84,7.84,0,0,1,73.05,314.6Z"/><path class="cls-19" d="M252.72,371.51l-4.59,51.07a6.36,6.36,0,0,0,4.59,0l9.2-48.52Z"/><ellipse class="cls-13" cx="303.72" cy="348.27" rx="69.02" ry="38.05"/><ellipse class="cls-20" cx="312.24" cy="351.89" rx="52.46" ry="27.84"/><path class="cls-21" d="M275.19,339.35v2a3.07,3.07,0,0,0,3.07,3.06h44.43a3.45,3.45,0,0,0,2.82-1.46l11.64-16.41a2.59,2.59,0,0,0-2.12-4.09H285.45Z"/><path class="cls-21" d="M270.55,307.23l9,33.8H322.6l9-34.19a4.34,4.34,0,0,0-4.26-5.21H274.86A4.46,4.46,0,0,0,270.55,307.23Z"/><polygon class="cls-22" points="214.68 366.65 216.98 374.06 223.56 369.57 219.27 363.34 214.68 366.65"/><polygon class="cls-22" points="208.29 386.57 211 396.94 201.91 398.32 201.66 390.4 208.29 386.57"/><path class="cls-22" d="M193,261.71s1.28-1.28.51-4.85-.51-10,.51-11.75a2.22,2.22,0,0,1,2.56-1.28s-1,6.9,0,6.9,6.89-6.64,9.19-7.15,5.36-1.79,6.13-1.53,2.55,2,2.55,2.8-4.08,4.6-5.1,6.13-7.15,10.22-11.24,12.51Z"/><path class="cls-19" d="M110.24,364.87l-9.7,50.05s2.55,1.53,4.08,1l14.81-48.52Z"/><path class="cls-19" d="M139.35,373l8.17,51.58s2.55.77,3.58-.77l-2-52.6Z"/><path class="cls-19" d="M125.82,342.4,134,394s2.55.76,3.57-.77l-2-52.6Z"/><path class="cls-19" d="M176.12,347.76l8.17,51.58s2.55.77,3.58-.77L185.82,346Z"/><path class="cls-13" d="M115.86,282.14s-15.83,4.08-22.47,8.17-10.73,13.79-6.13,24.51,23.24,60.56,32.17,64.86c13.79,6.64,49-1,68.95-15.32l-6.64-24.52-38.82-29.62Z"/><path class="cls-20" d="M115.86,282.14l27.06,28.08,38.82,29.62,3,11.1s-16.2,6.52-28.11,8.31-27.24,4.88-34.52-10.33-29.23-52.23-1.91-58.87Z"/><path class="cls-23" d="M133,346.74s-4.86,1.79-7.15-2.81-5.37-36-5.62-40.09.51-12.77-2.81-16.34-5.87-4.09-5.87-4.09-15.58,4.34-18.13,6.9c0,0,6.64-12,11.23-15.58s20.69-8.17,22-8.68a10.19,10.19,0,0,0,10.47,4.08c7.15-1.27,7.92-5.87,7.92-5.87a11.57,11.57,0,0,1,6.38-.51c3.32.77,24.51,16.34,25.54,15.83s16.34-19.15,16.34-19.15,2.81,2.55,4.85,3.06c0,0-7.33,19.4-12.6,28.77-1.76,3.12-3.3,5.13-4.25,4.94-3.83-.77-23.5-10.72-23.5-10.72s1,14.83,1.86,23.23a50.84,50.84,0,0,0,.7,5.37c.76,2.8-10,16.08-12.26,17.61S133,346.74,133,346.74Z"/><path class="cls-24" d="M181.48,322.22s11.75-3.31,12.51-.25c.18.72,1.14,4.58,2.52,10.09,4.47,17.93,13.36,53.39,14.34,55.53,0,0-8.43,4.86-8.94,6.9,0,0-2.81-1.53-3.83-3.58-.52-1-5.07-10.87-9.48-20.92-4.2-9.57-8.28-19.36-8.65-22,0,0-17.87,2.56-24.77,1.79L162.59,337Z"/><path class="cls-20" d="M196.51,332.06c-1.38-5.51-2.34-9.37-2.52-10.09-.76-3.06-12.51.25-12.51.25L162.59,337l-7.41,12.77c6.9.77,24.77-1.79,24.77-1.79.37,2.62,4.45,12.41,8.65,22,0,0-5.59-26.57-2.27-31.93s10.18-6,10.18-6"/><path class="cls-24" d="M139.09,331.42s-6.38,8.17-6.63,12,1.27,9.45,5.87,11,16.09-2,22.21-6.39,21.2-22.72,25.54-23.74,7.66-1.28,8.68,1.53l6.89,26.81s8.94,13.28,13,16.34c0,0,4.34-3.57,6.38-4.34,0,0-20.17-50.05-21.19-53.37s-3.07-8.17-8.17-7.91-29.88,10-33.2,11.23S144,325.29,139.09,331.42Z"/><path class="cls-21" d="M200.78,399.45s-3.12,12.21-.85,14,11,1,11.9.94.83-2.74,2.31-2.26,4.55,2.34,6.73,2.59,15.58-1.76,18.58-3.1,3.13-3.85,2.34-4.55-5,.86-8-.67-19-8.35-22.78-9.42l-10,1.49Z"/><path class="cls-21" d="M216.4,376s2.7,11.18,5.28,11.62,9.29-3.85,10-4.33-.5-2.56.9-2.81,4.67-.06,6.53-.78,11.82-8.08,13.66-10.44.88-4.45-.06-4.67-3.7,2.84-6.74,2.88-18.9,1.39-22.4,2.14L216.15,375Z"/><g id="_Groupe_" data-name=" Groupe "><path class="cls-22" d="M162.89,244.54l-3.72-11.93a19.46,19.46,0,1,0-33.81,16,11.55,11.55,0,0,1,2.86,9l-.33,2.44c-.8,5.92,1.83,11.13,5.83,11.59l1.41.16c4,.45,7.92-4,8.72-10l.19-1.38a4.74,4.74,0,0,1,4.41-4.14,11.11,11.11,0,0,0,6.35-2.06c3.22-2.47,3.82-6.41,4.1-10.34Z"/><path class="cls-8" d="M154.31,234.58a1.7,1.7,0,1,1-3.4.07,1.28,1.28,0,0,1,0-.19"/><path class="cls-8" d="M154.26,247.93a4.1,4.1,0,0,1-5.74-.77"/></g><path class="cls-9" d="M126.87,243.13a11,11,0,0,1-2.42-5.82c-.06-2.14,1.44-4.44,3.51-4.57a4.38,4.38,0,0,1,3.89,2.59,13,13,0,0,1,1,4.84c2.95.24,5.5.8,3.4-12.62A19.8,19.8,0,0,0,152.82,222a19.66,19.66,0,0,0-34.91,8.48A20,20,0,0,0,122,246.33c1,1.25,3.58,4.25,5.53,3.48C130.46,248.73,127.9,244.61,126.87,243.13Z"/><path class="cls-25" d="M157.73,286.48l20.66,9.75c2.84,1,3.77,2.06,6.35-2.72"/><line class="cls-25" x1="122.29" y1="324.07" x2="125.82" y2="345.33"/><path class="cls-26" d="M172,337c6.16-6.32,9.87-10.93,13.29-12.4s8.76-1.71,9.51,1.2l1.5,5.82"/><path class="cls-26" d="M179.64,348.36c.65,2.52,7.19,17.55,7.19,17.55"/><path class="cls-19" d="M343.29,434.85l-2.39,56s2.39,1.44,4.09,0l7.15-56.39Z"/><path class="cls-19" d="M375.29,432.79l14,49.71s3.75.68,4.43-1.7l-10.9-53.12Z"/><path class="cls-19" d="M343,412.15l14,49.7s3.74.69,4.42-1.7L350.44,407Z"/><path class="cls-27" d="M312,374.57s-5.87-2-10.21,0a11.34,11.34,0,0,0-6.13,8.94c0,2,30.64,67.92,30.64,67.92l5.88-2.81L326,412.36Z"/><path class="cls-27" d="M303.54,383.51s-5.87-1.28-9.19-1-6.64,2.55-7.66,4.85a20.85,20.85,0,0,0-1,10.72c.77,3.32,18.39,41.88,18.64,46.73a24.57,24.57,0,0,1-3.06,13c-2,3.83-4.85,10-5.87,10.47a4,4,0,0,0-1.53,2.05l5.36,1.27,4.85-1.27,5.87-12.77,5.36-6.9a21.44,21.44,0,0,1-2.8-6.89c-.77-3.83-2.05-28.85-2.3-31.15S303.54,383.51,303.54,383.51Z"/><path class="cls-19" d="M306.41,416l-20.36,63.52s2,2.12,4,.84l23.84-59.86Z"/><path class="cls-21" d="M363.55,377.89s-25.27-1.81-40.45-2.76c-6.13-.39-10.62-.63-11.14-.56-1.78.26-8.93,3.58-14.29,9.19s-.26,13-.26,13l18.13,18.64,30.13,7.66,18.64-6.39,4.6-17.1Z"/><path class="cls-27" d="M315.54,326.05s-1.36,7-.51,8.35,8.85,8.17,10.55,10.72,4.77,7.66,4.94,8.17,6-2.72,6-2.72-1-4.09-.34-6.3,1.87-8,1.7-9.36S315.54,326.05,315.54,326.05Z"/><rect class="cls-21" x="316.99" y="310.05" width="17.36" height="31.66" rx="1.78" transform="translate(-134.68 307.43) rotate(-42.72)"/><rect class="cls-4" x="318.53" y="314.09" width="12.77" height="21.96" transform="translate(-134.33 306.7) rotate(-42.72)"/><path class="cls-27" d="M319.8,332.18a5.74,5.74,0,0,0,2.38-1.36c1-1,5.62-5.11,6.47-5.11a2.19,2.19,0,0,1,1.87,1.71c0,.68-2.55,4.42-3.4,5.95s-2.22,3.92-2.05,4.43a12.2,12.2,0,0,1,.17,2.21l-5.44-5.61Z"/><path class="cls-15" d="M387.55,325.54S377,327.25,370.18,333s-20.76,34.05-20.76,34.05L337.16,348s-5.79,1.71-7.83,3.75c0,0,5.11,24.85,7.49,32s9.87,9.2,12.6,9.2,17.7-16.69,17.7-16.69l24.17-29.62Z"/><path class="cls-13" d="M410.7,333s-29.62,7.49-33.71,8.86-11.23,1.7-13.27,18-2.73,32-2.73,32,1.36,28.94-21.11,24.52-42.47-19.66-42.47-19.66a11.69,11.69,0,0,0-.77,14.21c5.11,7.83,20.43,24.51,51.41,26.9S399.8,427,408,397s12.25-51.75,12.25-51.75S426,330.65,410.7,333Z"/><path class="cls-20" d="M363.72,359.93c-2.05,16.34-2.73,32-2.73,32s1.36,28.94-21.11,24.52-42.47-19.66-42.47-19.66,12.76,22.63,45.06,25.48S363.72,359.93,363.72,359.93Z"/><path class="cls-27" d="M384.14,285.37s-7.49,13.62-7.49,18,8.86,14.64,8.86,14.64l4.76-10.55Z"/></g></g></g></g></g></svg>