<svg xmlns="http://www.w3.org/2000/svg" viewBox="0 0 240 220"><defs><style>.cls-1{isolation:isolate;}.cls-2{fill:#d74033;}.cls-10,.cls-12,.cls-14,.cls-15,.cls-18,.cls-19,.cls-2,.cls-20,.cls-22,.cls-23,.cls-26,.cls-3,.cls-4,.cls-5,.cls-7,.cls-8{fill-rule:evenodd;}.cls-3{fill:#363863;}.cls-4{fill:#fdc333;}.cls-5{fill:#5f7fa9;}.cls-10,.cls-14,.cls-24,.cls-5{opacity:0.39;mix-blend-mode:multiply;}.cls-15,.cls-6{fill:#231f20;}.cls-11,.cls-7{fill:#10110e;}.cls-8,.cls-9{fill:#fff;}.cls-10{fill:#3d418b;}.cls-12,.cls-16{fill:#3a5e8a;}.cls-13{fill:#4a4367;}.cls-14,.cls-23,.cls-24{fill:#958fb4;}.cls-17{fill:#b5b1c4;}.cls-18{fill:#3a3c56;}.cls-19,.cls-21{fill:#363555;}.cls-20{fill:#484c6a;}.cls-22{fill:none;stroke:#25368f;stroke-miterlimit:10;}.cls-25,.cls-26{fill:#fbbc43;}</style></defs><title>notre_societe</title><g class="cls-1"><g id="Notre_société_mobile" data-name="Notre société mobile"><g id="notre_histoire-2" data-name="notre histoire"><path class="cls-2" d="M98.88,80.35l-2.8-4.51S88.45,78,87,83.52Z"/><path class="cls-3" d="M171.69,103.12a1.47,1.47,0,0,1-.45-.14l-2.75-1.93-2.17-1.52-.09.52-.16.93-1.45-.21-6.71,5.91,1.69-12.42.27-1.74.06-.39a1.7,1.7,0,0,1,1-1.33l.28-.1a1.75,1.75,0,0,1,.33,0l4-.25a1.61,1.61,0,0,0,.82-.25l2.27-1.39a1.76,1.76,0,0,1,1.91,0l1.7,1.16c1.32,1.53,2.54,1.91,2.73,3.74a5.61,5.61,0,0,1,0,1.14c-.14,1.47-.61,3.38-.72,4.23a16.82,16.82,0,0,1-.54,2.64,1.49,1.49,0,0,1-.09.3A1.73,1.73,0,0,1,171.69,103.12Z"/><path class="cls-4" d="M171.69,103.12a1.47,1.47,0,0,1-.45-.14l-2.75-1.93c1.5.12,4.36,1,4.08-1.46-.38-3.28-2.36-5.73-.78-6.32,1-.37,2,.25,3.19,1.57-.14,1.47-.61,3.38-.72,4.23a16.82,16.82,0,0,1-.54,2.64A1.74,1.74,0,0,1,171.69,103.12Z"/><path class="cls-5" d="M171.69,103.12a1.47,1.47,0,0,1-.45-.14l-2.75-1.93-2.17-1.52-.09.52-.16.93-1.45-.21-6.71,5.91,1.69-12.42.27-1.74.06-.39a1.7,1.7,0,0,1,1-1.33l.28-.1A149.09,149.09,0,0,1,173.63,102,1.73,1.73,0,0,1,171.69,103.12Z"/><ellipse class="cls-6" cx="152.37" cy="144.88" rx="8.33" ry="8.34" transform="translate(-53.12 189.38) rotate(-55.78)"/><path class="cls-7" d="M160.05,133.58a13.66,13.66,0,1,0,3.63,19A13.67,13.67,0,0,0,160.05,133.58Z"/><path class="cls-8" d="M158.14,136.39a10.27,10.27,0,1,0,2.73,14.27A10.28,10.28,0,0,0,158.14,136.39Z"/><path class="cls-7" d="M157.11,137.9a8.44,8.44,0,1,0,2.25,11.73A8.44,8.44,0,0,0,157.11,137.9Z"/><ellipse class="cls-9" cx="152.37" cy="144.88" rx="7.32" ry="7.33" transform="translate(-53.12 189.39) rotate(-55.78)"/><path class="cls-7" d="M158.61,147.76l-1.35-.77a1.13,1.13,0,0,1,.44-2.11l1.54-.16a1.13,1.13,0,0,0,1-1.34h0a1.13,1.13,0,0,0-1.41-.88l-1.5.41a1.13,1.13,0,0,1-1.18-1.8l1-1.21a1.13,1.13,0,0,0-.25-1.64h0a1.13,1.13,0,0,0-1.62.37l-.77,1.36a1.13,1.13,0,0,1-2.11-.44l-.16-1.55a1.14,1.14,0,0,0-1.34-1h0a1.14,1.14,0,0,0-.88,1.41l.41,1.5a1.14,1.14,0,0,1-1.8,1.19l-1.21-1a1.13,1.13,0,0,0-1.64.24h0a1.13,1.13,0,0,0,.37,1.62l1.36.77a1.13,1.13,0,0,1-.44,2.11l-1.55.17a1.13,1.13,0,0,0-1,1.33h0a1.13,1.13,0,0,0,1.41.88l1.5-.41a1.13,1.13,0,0,1,1.18,1.8l-1,1.21a1.14,1.14,0,0,0,.24,1.65h0a1.13,1.13,0,0,0,1.62-.38l.77-1.35a1.13,1.13,0,0,1,2.11.44l.17,1.54a1.12,1.12,0,0,0,1.33,1h0a1.12,1.12,0,0,0,.88-1.41l-.41-1.5a1.13,1.13,0,0,1,1.8-1.18l1.21,1a1.14,1.14,0,0,0,1.65-.25h0A1.14,1.14,0,0,0,158.61,147.76Z"/><path class="cls-7" d="M154.24,142.13a3.33,3.33,0,1,0,.89,4.62A3.33,3.33,0,0,0,154.24,142.13Z"/><path class="cls-10" d="M160.05,133.58a13.67,13.67,0,0,0-18,2.34l21.09,17.44q.3-.37.57-.78A13.67,13.67,0,0,0,160.05,133.58Z"/><ellipse class="cls-6" cx="91.17" cy="103.24" rx="8.33" ry="8.34" transform="translate(-45.46 120.63) rotate(-55.8)"/><path class="cls-7" d="M98.86,92a13.66,13.66,0,1,0,3.63,19A13.69,13.69,0,0,0,98.86,92Z"/><path class="cls-8" d="M97,94.76A10.26,10.26,0,1,0,99.68,109,10.27,10.27,0,0,0,97,94.76Z"/><path class="cls-7" d="M95.92,96.27A8.44,8.44,0,1,0,98.16,108,8.45,8.45,0,0,0,95.92,96.27Z"/><ellipse class="cls-9" cx="91.17" cy="103.24" rx="7.32" ry="7.33" transform="translate(-45.47 120.56) rotate(-55.78)"/><path class="cls-7" d="M97.42,106.13l-1.36-.77a1.13,1.13,0,0,1,.44-2.11l1.55-.17a1.13,1.13,0,0,0,1-1.33h0a1.13,1.13,0,0,0-1.41-.88l-1.5.41a1.14,1.14,0,0,1-1.19-1.8l1-1.21a1.15,1.15,0,0,0-.24-1.65h0a1.14,1.14,0,0,0-1.62.38l-.77,1.35a1.13,1.13,0,0,1-2.11-.43L91,96.37a1.13,1.13,0,0,0-1.33-1h0a1.12,1.12,0,0,0-.88,1.41l.41,1.5a1.13,1.13,0,0,1-1.8,1.18l-1.21-1a1.13,1.13,0,0,0-1.65.24h0a1.13,1.13,0,0,0,.38,1.62l1.35.77a1.13,1.13,0,0,1-.44,2.11l-1.54.17a1.12,1.12,0,0,0-1,1.33h0a1.12,1.12,0,0,0,1.41.88l1.5-.41A1.13,1.13,0,0,1,87.4,107l-1,1.21a1.13,1.13,0,0,0,.25,1.64h0a1.13,1.13,0,0,0,1.62-.37l.77-1.35a1.12,1.12,0,0,1,2.1.43l.17,1.55a1.13,1.13,0,0,0,1.34,1h0a1.13,1.13,0,0,0,.88-1.41l-.42-1.5a1.13,1.13,0,0,1,1.8-1.18l1.22,1a1.13,1.13,0,0,0,1.64-.24h0A1.13,1.13,0,0,0,97.42,106.13Z"/><path class="cls-7" d="M93,100.49a3.33,3.33,0,1,0,.89,4.63A3.34,3.34,0,0,0,93,100.49Z"/><path class="cls-10" d="M98.86,92a13.7,13.7,0,0,0-18,2.33l21.1,17.44c.19-.25.39-.51.57-.78A13.67,13.67,0,0,0,98.86,92Z"/><rect class="cls-11" x="155" y="136.05" width="3.11" height="9.18" transform="translate(297.04 297.33) rotate(-173.82)"/><rect class="cls-11" x="152.76" y="133" width="1.34" height="13.46" transform="translate(290.92 295.17) rotate(-173.82)"/><rect class="cls-11" x="155.52" y="123.13" width="4.45" height="12.99" transform="translate(300.6 275.48) rotate(-173.82)"/><path class="cls-12" d="M151.87,146.8a1.66,1.66,0,0,0,2.26.67l1.24-.67,3.7-2a1.68,1.68,0,0,0,.68-2.27,1.56,1.56,0,0,0-.53-.58,1.67,1.67,0,0,0-1.74-.09l-3.32,1.8-1.62.87A1.66,1.66,0,0,0,151.87,146.8Z"/><path class="cls-10" d="M154.16,143.66c.41,1.05.81,2.09,1.21,3.14l3.7-2a1.68,1.68,0,0,0,.68-2.27,1.56,1.56,0,0,0-.53-.58,1.67,1.67,0,0,0-1.74-.09Z"/><path class="cls-13" d="M169.53,137.74s-7.84-4.14-13.55-3.88a8.21,8.21,0,0,0-1.9.28c-5.67,1.57-10-1.54-13.54-3.8a15.65,15.65,0,0,1,7.3-7.4c6.28-2.75,12.06-1,17.54,3.7.31.27.61.55.88.83A12.17,12.17,0,0,1,169.53,137.74Z"/><path class="cls-14" d="M166.26,127.47c-2.68,1.72-6.42,4-10.28,6.39a8.21,8.21,0,0,0-1.9.28c-5.67,1.57-10-1.54-13.54-3.8a15.65,15.65,0,0,1,7.3-7.4c6.28-2.75,12.06-1,17.54,3.7C165.69,126.91,166,127.19,166.26,127.47Z"/><path class="cls-15" d="M105.84,111.29a2.48,2.48,0,1,0,.66,3.45A2.49,2.49,0,0,0,105.84,111.29Z"/><path class="cls-7" d="M107.24,109.22a5,5,0,1,0,1.32,6.93A5,5,0,0,0,107.24,109.22Z"/><path class="cls-8" d="M106.16,110.81a3.06,3.06,0,1,0,.82,4.26A3.07,3.07,0,0,0,106.16,110.81Z"/><path class="cls-12" d="M105.67,111.54a2.18,2.18,0,1,0,.58,3A2.19,2.19,0,0,0,105.67,111.54Z"/><path class="cls-7" d="M105,112.52a1,1,0,1,0,.26,1.38A1,1,0,0,0,105,112.52Z"/><path class="cls-12" d="M154.54,126.28c-6.21,7.22-19,6.46-19,6.46l-34.26-23.31s1.43.06,2.28-4.71-.35-7.44,9.2-6.47a38.4,38.4,0,0,1,9.74,2.19c4,1.53,7.88,4.82,5.71,6a10.07,10.07,0,0,0-1.93,1.47c-2.64,2.51-4.46,6.43-3.44,7.13l10.72,7.29c1.87,1.27,4.49,1.33,7.25.73a28.15,28.15,0,0,0,6.22-2.26c4.39-2.18,7.54-8.19,10.29-15.48.11-.28.2-.55.3-.83,2.72-7.5,8.61-3.55,8.61-3.55l-4.72,9A32.22,32.22,0,0,1,154.54,126.28Z"/><path class="cls-11" d="M105.36,120.84l-11.28-7.68,1.37-2,11.07,7.53c.77.29,7.45,3.21,10.13-.73l2,1.37c-3.19,4.7-10.73,2.61-13.19,1.57Z"/><path class="cls-16" d="M81.84,93h0a5.62,5.62,0,0,0-1,9.21l14.31,12.31a2.89,2.89,0,0,0,4.27-.56h0a2.88,2.88,0,0,0,0-3.17L89.4,95A5.75,5.75,0,0,0,81.84,93Z"/><path class="cls-17" d="M82.65,95h0a3.81,3.81,0,0,0-.69,6.26l9.73,8.38a2,2,0,0,0,2.9-.39h0a2,2,0,0,0,0-2.15L87.79,96.33A3.92,3.92,0,0,0,82.65,95Z"/><path class="cls-7" d="M118.72,121.35c-5.42-.76-12.58-4.76-16.37-8.7a6,6,0,0,1-2-3.93c0-1.69,1.24-3.17,1.32-4.85,0-.72-.15-1.44-.16-2.16a2.13,2.13,0,0,1,.86-1.88,2.68,2.68,0,0,1,1.66-.15,50.44,50.44,0,0,1,9.47,2.19c1.65.56,10,3.59,10.53,5.39.41,1.32-3.42,4.58-4.12,6A13.08,13.08,0,0,0,118.72,121.35Z"/><path class="cls-18" d="M134.83,96.57l4.08,3.19a67.06,67.06,0,0,0-11.46,7.65c-5.39,4.58-11.2,1.37-14-2.54S102.11,89.75,99.11,89s-16.56-.55-16.56-.55S93.29,71.9,108.9,78.11C122.48,83.52,134.83,96.57,134.83,96.57Z"/><path class="cls-19" d="M166.26,101c-1-1.55-3.15-1.15-5,4.13-1.71,4.84-5,16.86-9,19.82s-11.72,4.93-16,3.26c-3.74-1.47-28.8-17.5-29.56-18-.25-.17-2.67-.59-1.89.43s5.23,4.06,6.5,7.26,16.26,13.52,20.3,15.53,9.07,3.84,14.72.05,12.49-8.23,16.72-8.3S167.18,102.34,166.26,101Z"/><path class="cls-12" d="M137.14,100.28,108.42,80.74c-4.1-2.79-2.34-6.6-2.77-10.34,0-.24,0-.46-.06-.68-.25-3.62,10.09,6.13,14,8.76s13.93,7,19,11.46c2.8,2.46,3,6,2.56,8.6v0A2.56,2.56,0,0,1,137.14,100.28Z"/><path class="cls-14" d="M137.14,100.28,108.42,80.74c-4.1-2.79-2.34-6.6-2.77-10.34,3.36,4,7.15,8.42,9.14,10.11,3,2.58,19.29,13.39,26.34,18v0A2.56,2.56,0,0,1,137.14,100.28Z"/><path class="cls-20" d="M113.29,110.2c-11.83-8.49-30.74-21.78-30.74-21.78s.44-.41,1.26-1c4.23-3.19,18.56-11.9,33.63,2.52,4.56,4.36,4,9.08,2,12.86A25.86,25.86,0,0,1,113.29,110.2Z"/><path class="cls-21" d="M85.4,101l-3.06-2.85a.34.34,0,0,0-.47,0h0a.32.32,0,0,0,0,.47l3,2.85a.34.34,0,0,0,.48,0h0A.34.34,0,0,0,85.4,101Z"/><path class="cls-21" d="M86.31,100l-3.06-2.84a.33.33,0,0,0-.47,0h0a.33.33,0,0,0,0,.47l3,2.85a.34.34,0,0,0,.48,0h0A.34.34,0,0,0,86.31,100Z"/><path class="cls-21" d="M87.22,99.05l-3-2.85a.34.34,0,0,0-.48,0h0a.34.34,0,0,0,0,.48l3.06,2.85a.34.34,0,0,0,.47,0h0A.33.33,0,0,0,87.22,99.05Z"/><path class="cls-7" d="M164.62,90.34a1.67,1.67,0,0,0-2-1.3l-3.24.58a1.68,1.68,0,0,0,.69,3.28l3.23-.58A1.68,1.68,0,0,0,164.62,90.34Z"/><path class="cls-22" d="M165.59,79.75s2.49,1.41,2.14,3.63-1.61,8.91-1.61,8.91"/><rect class="cls-16" x="165.06" y="92.03" width="2.46" height="1.12" transform="translate(80.88 -77.5) rotate(34.23)"/><polygon class="cls-8" points="165.86 75.37 166.74 75.97 163.19 81.86 162 81.04 165.86 75.37"/><polygon class="cls-12" points="166.74 75.97 167.57 78.41 164.58 82.8 162.88 81.64 166.74 75.97"/><path class="cls-14" d="M113.29,110.2c-11.83-8.49-30.74-21.78-30.74-21.78s.44-.41,1.26-1a156.92,156.92,0,0,1,21.89,7.13,57.5,57.5,0,0,1,13.75,8.25A25.86,25.86,0,0,1,113.29,110.2Z"/><path class="cls-23" d="M90.08,87.77s15.51-7.28,27.52,7.08C117.6,94.85,104.3,84.86,90.08,87.77Z"/><path class="cls-11" d="M89.09,104.06a.65.65,0,1,1-.17-.9A.65.65,0,0,1,89.09,104.06Z"/><circle class="cls-11" cx="92.67" cy="107.97" r="0.64"/><path class="cls-24" d="M153.34,117.4c-7.8,10.57-17.52,7.26-17.52,7.26l-21-14.26,7.67-10c4,1.53,7.88,4.82,5.71,6a10.07,10.07,0,0,0-1.93,1.47c-2.64,2.51-4.46,6.43-3.44,7.13l10.72,7.29c1.87,1.27,4.49,1.33,7.25.73a28.15,28.15,0,0,0,6.22-2.26c4.39-2.18,7.54-8.19,10.29-15.48C157.28,108.83,157.25,112.12,153.34,117.4Z"/><polygon class="cls-25" points="56.45 121.88 62.47 124.11 56.43 131.21 70.25 122.02 64.23 119.8 70.26 112.7 56.45 121.88"/><polygon class="cls-25" points="52.82 96.55 55.23 102.5 45.92 102.82 62.01 106.85 59.6 100.9 68.91 100.59 52.82 96.55"/><path class="cls-26" d="M193.82,68.12l-5.19-6.25a1.15,1.15,0,0,0-1.95.29,5.3,5.3,0,0,1-1.58,2.11,16.25,16.25,0,0,1-3.47,2,17.37,17.37,0,0,0-4,2.28,7.6,7.6,0,0,0-2.24,3,1.17,1.17,0,0,0,.18,1.18l5.19,6.26a1.16,1.16,0,0,0,1.06.4,1.14,1.14,0,0,0,.56-.25,1.06,1.06,0,0,0,.33-.45,5.44,5.44,0,0,1,1.58-2.11,16.09,16.09,0,0,1,3.48-2,17.52,17.52,0,0,0,4-2.28,7.6,7.6,0,0,0,2.24-3,1.17,1.17,0,0,0-.18-1.18ZM181.67,78.2l-5.19-6.26c2.12-5.11,9.15-4.22,11.26-9.34,1.72,2.07,3.48,4.18,5.19,6.26-2.11,5.11-9.15,4.23-11.26,9.34Zm0,0"/><path class="cls-26" d="M183.64,73.87h0a10.65,10.65,0,0,0-1.11.79,8.86,8.86,0,0,0-.93.9l-.44.5a.29.29,0,0,0,.41.4s0,0,.05,0l.41-.47a8.47,8.47,0,0,1,.86-.83,10.85,10.85,0,0,1,1.06-.76h0s0,0,0,0a.29.29,0,0,0,0-.41.29.29,0,0,0-.38,0Zm0,0"/><path class="cls-26" d="M186.51,65.79a9.26,9.26,0,0,1-1,.73l-.07,0a.31.31,0,0,0,0,.42.31.31,0,0,0,.4,0h0a10.78,10.78,0,0,0,1.12-.79,7.13,7.13,0,0,0,.92-.9l.44-.5a.28.28,0,0,0,0-.39.29.29,0,0,0-.4,0l-.06.07-.43.48a8.57,8.57,0,0,1-.86.84Zm0,0"/><path class="cls-25" d="M184.34,70.85l.12.17,1.12-.75.14-.08s.08,0,.15,0a.38.38,0,0,1,.17.15,1.2,1.2,0,0,1,.1.19.19.19,0,0,1,0,.13.59.59,0,0,1-.18.17l-1,.69a.69.69,0,0,0,.43.19.73.73,0,0,0,.34-.12l.65-.44a.92.92,0,0,1,.34-.15.28.28,0,0,1,.23.07.86.86,0,0,1,.21.24,1.15,1.15,0,0,1,.15.29.27.27,0,0,1,0,.2.86.86,0,0,1-.27.27l-.68.46a1.83,1.83,0,0,1-.64.27,2.13,2.13,0,0,1-.56,0,1.81,1.81,0,0,1-.55-.21,2.58,2.58,0,0,1-.59-.44l-.22.15a.93.93,0,0,1-.21.1.31.31,0,0,1-.25-.16.65.65,0,0,1-.11-.27c0-.07,0-.12,0-.14l.13-.1.16-.11-.15-.21-.06-.1-.15.1a.71.71,0,0,1-.21.11.3.3,0,0,1-.25-.17.58.58,0,0,1-.11-.26c0-.07,0-.12,0-.14l.13-.1.22-.15a2.35,2.35,0,0,1-.21-.84,1.45,1.45,0,0,1,.12-.68,1.76,1.76,0,0,1,.65-.79l.67-.45.18-.11a.47.47,0,0,1,.17,0,.3.3,0,0,1,.21.07,2.08,2.08,0,0,1,.21.25,1.07,1.07,0,0,1,.14.29.28.28,0,0,1,0,.22l-.11.14a1.06,1.06,0,0,1-.18.13l-.65.44a.59.59,0,0,0-.22.72l1-.69c.14-.09.25-.11.34,0a.69.69,0,0,1,.13.15,1,1,0,0,1,.09.17.16.16,0,0,1,0,.12.51.51,0,0,1-.18.18l-1.11.74Z"/><path class="cls-25" d="M188.94,91a.55.55,0,0,1,.4-.08,2.4,2.4,0,0,1,.59.26.9.9,0,0,1,.45.49.8.8,0,0,1-.13.62l-.08.14a2.34,2.34,0,0,1-.19.3,1.11,1.11,0,0,1-.22.19c-.19.12-.46.07-.81-.13s-.55-.39-.6-.57a1.08,1.08,0,0,1,.21-.76A1.23,1.23,0,0,1,188.94,91Zm1.75-.34a2.88,2.88,0,0,1-.47-.21,2.09,2.09,0,0,1-.42-.3.44.44,0,0,1-.14-.29.6.6,0,0,1,0-.25,1.77,1.77,0,0,1,.14-.28l1.59-2.76.17-.27a.76.76,0,0,1,.21-.16.48.48,0,0,1,.32,0,1.84,1.84,0,0,1,.48.21,1.89,1.89,0,0,1,.41.3.46.46,0,0,1,.14.3,1,1,0,0,1,0,.26c0,.06-.08.16-.15.28l-1.59,2.76a2.36,2.36,0,0,1-.17.26.46.46,0,0,1-.2.15A.42.42,0,0,1,190.69,90.69Z"/></g></g></g></svg>