<svg xmlns="http://www.w3.org/2000/svg" viewBox="0 0 64 64"><defs><style>.cls-1{fill:#bedded;}.cls-2{fill:#fff;}</style></defs><title>notre_societe</title><g id="Notre_société" data-name="Notre société"><g id="la_team_vely_velo" data-name="la team vely velo"><circle class="cls-1" cx="32" cy="32" r="31.6"/><path class="cls-2" d="M48.06,34.57V45.8H41.55V35.32c0-2.63-.94-4.43-3.3-4.43a3.56,3.56,0,0,0-3.34,2.38,4.5,4.5,0,0,0-.22,1.59V45.8H28.18s.08-17.75,0-19.59h6.51V29l0,.06h0V29a6.46,6.46,0,0,1,5.87-3.24c4.29,0,7.5,2.8,7.5,8.82ZM21.36,16.76a3.4,3.4,0,1,0-.08,6.78h0a3.4,3.4,0,1,0,0-6.78Zm-3.3,29h6.52V26.21H18.06Zm0,0"/></g></g></svg>