<svg xmlns="http://www.w3.org/2000/svg" xmlns:xlink="http://www.w3.org/1999/xlink" viewBox="0 0 1929.37 495.93"><defs><style>.cls-1,.cls-11,.cls-26,.cls-27,.cls-9{fill:none;}.cls-2{isolation:isolate;}.cls-3{clip-path:url(#clip-path);}.cls-4{fill:#f5f8fd;}.cls-5{fill:#bedded;}.cls-15,.cls-21,.cls-6{fill:#1a1a1a;}.cls-6{opacity:0.11;}.cls-7{fill:#fff;}.cls-8{fill:#e2cdc3;}.cls-9{stroke:#000;stroke-linejoin:round;stroke-width:1.3px;}.cls-26,.cls-27,.cls-9{stroke-linecap:round;}.cls-10{fill:#683c11;}.cls-11{stroke:#312783;stroke-width:1.5px;}.cls-11,.cls-26,.cls-27{stroke-miterlimit:10;}.cls-12{fill:url(#linear-gradient);}.cls-13{fill:url(#linear-gradient-2);}.cls-14{fill:#54619e;}.cls-15{opacity:0.17;}.cls-16{fill:#312783;}.cls-17{fill:#2f9fa8;}.cls-18{fill:#494949;opacity:0.2;mix-blend-mode:darken;}.cls-19{fill:#46b594;}.cls-20{fill:#7885b5;}.cls-21{opacity:0.24;}.cls-22{fill:#233142;}.cls-23{fill:#f9cee3;}.cls-24{fill:#fbbc43;}.cls-25{fill:#eb5c40;}.cls-26{stroke:#eb5c40;}.cls-27{stroke:#1a1a1a;}.cls-28{fill:#efe2d8;}.cls-29{fill:url(#linear-gradient-3);}.cls-30{fill:#eac1ff;opacity:0.46;mix-blend-mode:multiply;}.cls-31{fill:#2f2f30;}.cls-32{fill:#b2b2b2;}.cls-33{fill:#2b2b2a;}.cls-34{fill:#1d1d1b;}.cls-35{fill:#9d9d9c;}.cls-36{fill:#392d87;}.cls-37{fill:#706f6f;}</style><clipPath id="clip-path"><path class="cls-1" d="M1929.37,485.81s-391.36-80-577.13-80S892.08,495.93,694.5,495.93,446.13,366.61,278.84,366.61,0,405.78,0,405.78V0H1929.37Z"/></clipPath><linearGradient id="linear-gradient" x1="1409.09" y1="397.25" x2="2027.4" y2="397.25" gradientUnits="userSpaceOnUse"><stop offset="0" stop-color="#a3cce3"/><stop offset="1" stop-color="#a3cce3"/></linearGradient><linearGradient id="linear-gradient-2" x1="1452.37" y1="257.05" x2="1510.02" y2="257.05" xlink:href="#linear-gradient"/><linearGradient id="linear-gradient-3" x1="-35.45" y1="272.39" x2="352.3" y2="272.39" xlink:href="#linear-gradient"/></defs><title>notre_societe</title><g class="cls-2"><g id="Notre_société" data-name="Notre société"><g id="titre-3" data-name="titre"><g class="cls-3"><rect class="cls-4" x="1" width="1920" height="545.89"/><g id="illustrations"><path class="cls-5" d="M1828.88,139.67a13.16,13.16,0,0,0-2.75-.22l-34.59,1.74h-.83a21.43,21.43,0,0,0-6.69,1.21c-8.2,2.12-19.38,6.51-21.14,9.28-2.44,3.84-12.58,19.91-17.47,27.6s-10.48,16.42-9.43,25.86,19.57,39.14,19.57,39.14l4.19-.35,12.23-1.4s-12.23-33.9-12.93-36.34.35-4.54,1.75-7.69S1777.56,180,1777.56,180s.7,15.38,2.1,21.32,11.18,44.37,11.18,44.37l47.52,2.1,5.13-48.32,1.51-14.23.7-40.18C1842.13,141.47,1833.37,140.14,1828.88,139.67Z"/><path class="cls-6" d="M1838.36,247.77l5.13-48.32,1.51-14.23-7.23-9.55s-1.85,48.45-9.19,68.26h0Z"/><path class="cls-6" d="M1759,206.19c-.7-2.45.35-4.54,1.75-7.69S1777.56,180,1777.56,180l-.35-8.73s-16.08,19.8-18.17,23.53S1759,206.19,1759,206.19Z"/><path class="cls-7" d="M1828.58,243.93a78.15,78.15,0,0,1-8,3.14,12.88,12.88,0,0,0-3.5,1.4l-3.84,17.12s4.89-3.84,8-4.19,11.53-.35,16.77-9.44C1838,252,1833.12,243.93,1828.58,243.93Z"/><path class="cls-5" d="M1846.39,145c5.08,4.89,34.89,54.16,34.89,54.16s5.09,8,1.09,12.58-44,40.18-44,40.18-4.36-6.29-7.63-7l-2.18-1s29.07-35.65,33.44-38.44l-18.25-21.66-1.38-26.56,4-12.23"/><path class="cls-8" d="M1779.28,90.64a27.62,27.62,0,1,1,44.35,29.48,16.43,16.43,0,0,0-5.88,12.17v3.55c0,8.5-11.3,20-11.3,20h0s-12.12-7.72-11.43-20.68v-2a6.74,6.74,0,0,0-5.49-6.77,15.79,15.79,0,0,1-8.52-4.22c-4.06-4.06-4.06-9.79-3.65-15.39Z"/><path class="cls-9" d="M1804.45,95.14a3.75,3.75,0,1,0-7.48-.55,2.53,2.53,0,0,0,0,.55"/><path class="cls-9" d="M1787.94,95.14a3.75,3.75,0,0,0-7.48,0"/><path class="cls-9" d="M1787.6,112a5.82,5.82,0,0,0,8.23,0h0"/><polyline class="cls-9" points="1791.33 104.39 1785.81 102.93 1791.69 92.75"/><path class="cls-10" d="M1825,77.85a.66.66,0,0,0-.16-.6c-.3-.31-7.51-7.72-21.56-6.59s-17.63,7.62-17.78,7.89a.65.65,0,0,0-.06.41,1.57,1.57,0,0,0,.81,1.05c1.94,1.26,8.52,2.33,16.08,2.33a64.5,64.5,0,0,0,15.49-1.73l6.75-2.3A.66.66,0,0,0,1825,77.85Z"/><path class="cls-10" d="M1833.94,95.24a30.53,30.53,0,0,0-1.46-6.07c-3.69-10.75-6.27-11.58-6.74-11.63a.63.63,0,0,0-.59.24c-.24.3-5.87,7.59-3.68,22.56.73,5,1.44,6,2.36,6,1.31,0,2-2.16,3-6.88.23-1,.43-1.86.59-2.37.53-1.71,2.11-3.7,3.36-3.72h0c.89,0,1.48,1.08,1.84,2.07,1.2,9.49-3.46,14.8-3.51,14.87a.64.64,0,0,0,0,.88.64.64,0,0,0,.88,0C1832.75,109,1836.88,103.88,1833.94,95.24Z"/><polyline class="cls-11" points="1822.15 143.75 1823.57 154.09 1810.88 153.14"/><path class="cls-11" d="M1803.36,234.41v-75a5.62,5.62,0,0,0-5.63-5.61,5.68,5.68,0,0,0-2.49.58l-4,2-7-14.5"/><ellipse class="cls-12" cx="1718.24" cy="397.25" rx="309.16" ry="117.57"/><path class="cls-13" d="M1510,257.05c0,2.53-12.9,4.58-28.82,4.58s-28.83-2.05-28.83-4.58,12.9-4.58,28.83-4.58S1510,254.52,1510,257.05Z"/><path class="cls-14" d="M1510,257.05c0,2.53-12.9,4.58-28.82,4.58s-28.83-2.05-28.83-4.58l6.33,64.37,1.7,17.34c0,1.83,9.31,3.31,20.8,3.31s20.79-1.48,20.79-3.31l3.62-36.8Z"/><path class="cls-15" d="M1505.61,302l-3.62,36.8c0,1.83-9.31,3.31-20.79,3.31s-20.8-1.48-20.8-3.31l-1.7-17.34s21.49,5.67,43.86-14.59Z"/><path class="cls-16" d="M1497.85,257.05c0,1.46-7.46,2.65-16.65,2.65s-16.66-1.19-16.66-2.65,7.46-2.64,16.66-2.64S1497.85,255.59,1497.85,257.05Z"/><path class="cls-17" d="M1480,175.49s-35.29-77.93-3.49-135.93C1476.48,39.56,1521.55,105.6,1480,175.49Z"/><path class="cls-18" d="M1475.43,65.07c.73,9.2,1.2,18.4,1.65,27.6s.78,18.4,1.11,27.6l.79,27.61.42,13.8c.07,4.61.33,9.19.57,13.81a262.06,262.06,0,0,1-3.13-27.5c-.71-9.2-1.09-18.41-1.44-27.62s-.49-18.43-.46-27.65S1475,74.29,1475.43,65.07Z"/><path class="cls-19" d="M1434.9,108.05s-2.45,75.47,46.12,98.19C1481,206.24,1491.85,122.37,1434.9,108.05Z"/><path class="cls-18" d="M1439.44,115.73c1.89,3.55,3.64,7.16,5.49,10.72l5.32,10.78,10.52,21.6,10.52,21.58c1.73,3.61,3.58,7.15,5.41,10.71l2.79,5.32,2.93,5.25c-2.48-3.16-4.69-6.53-6.91-9.89s-4.15-6.88-6.13-10.38c-4-7-7.61-14.16-11.12-21.37s-6.85-14.52-10-21.92S1442.12,123.31,1439.44,115.73Z"/><path class="cls-19" d="M1517,106.3s-48.22,35.29-35.64,97.49C1481.37,203.79,1534.83,175.49,1517,106.3Z"/><path class="cls-18" d="M1509.67,131.11a148.5,148.5,0,0,1-4.35,18c-1.72,5.94-3.81,11.76-6.06,17.51s-4.75,11.42-7.59,16.91a155,155,0,0,1-9.25,16.06c1.14-2.89,2.52-5.63,3.65-8.5s2.49-5.61,3.65-8.46c2.36-5.67,4.73-11.32,6.94-17s4.44-11.43,6.64-17.16Z"/><path class="cls-17" d="M1480.67,223s-11.53-39.49,49.27-57C1529.94,166.05,1527.49,228.6,1480.67,223Z"/><path class="cls-18" d="M1519.81,180a84.92,84.92,0,0,1-6.41,11.78,99.74,99.74,0,0,1-8,10.82,72.28,72.28,0,0,1-9.59,9.49,37.29,37.29,0,0,1-11.67,6.7,65.08,65.08,0,0,0,10.22-8.33c3.15-3,6.07-6.32,8.91-9.67s5.59-6.79,8.33-10.27Z"/><path class="cls-17" d="M1436,164.65s-2.67,50,48.68,58.36C1484.63,223,1492.62,173.74,1436,164.65Z"/><path class="cls-18" d="M1446.43,178.63c4.83,6.35,9.25,12.83,14,19.09,2.3,3.17,4.75,6.21,7.27,9.18s5.15,5.85,8.47,8.07c-3.84-1.26-7.14-3.82-10.05-6.56a69.21,69.21,0,0,1-7.93-9A92.17,92.17,0,0,1,1446.43,178.63Z"/><path class="cls-19" d="M1481,245.37s-16.42-40.18,47.52-55.56C1528.54,189.81,1520.86,245,1481,245.37Z"/><path class="cls-18" d="M1487.66,237.68c5.81-5.86,11.61-11.53,17.2-17.44,2.83-2.91,5.55-5.92,8.27-9s5.34-6.13,8.07-9.25a65.66,65.66,0,0,1-6.37,10.62,90.4,90.4,0,0,1-7.95,9.51A88.34,88.34,0,0,1,1487.66,237.68Z"/><path class="cls-19" d="M1481,245.37s18.94-27.78-33.54-50C1447.48,195.4,1440.49,244.67,1481,245.37Z"/><path class="cls-18" d="M1456.56,213.22c4.11,5.55,7.75,11.25,11.55,16.83q2.84,4.2,5.86,8.2a30.93,30.93,0,0,0,7,7.12c-3.42-.84-6.27-3.25-8.69-5.68a61.46,61.46,0,0,1-6.53-8.07A77.23,77.23,0,0,1,1456.56,213.22Z"/><path class="cls-17" d="M1481.2,257.05s-10.66-21.81,21.14-25.31C1502.34,231.74,1504.78,256.15,1481.2,257.05Z"/><path class="cls-18" d="M1484.17,253.76a90.76,90.76,0,0,1,6.92-8.28l3.6-3.89c1.22-1.29,2.41-2.61,3.8-3.91a21.17,21.17,0,0,1-5.34,9.68A24.36,24.36,0,0,1,1484.17,253.76Z"/><path class="cls-17" d="M1481.2,257.05s7.16-20.06-21.14-25.66C1460.06,231.39,1457.26,256.5,1481.2,257.05Z"/><path class="cls-18" d="M1468.44,240.83a54.13,54.13,0,0,0,5.68,7.45,32.47,32.47,0,0,0,3.29,3.12c1.16,1,2.46,1.89,3.79,3a11.26,11.26,0,0,1-5-1.17,13.43,13.43,0,0,1-4.16-3.06,14.19,14.19,0,0,1-2.78-4.33A10.69,10.69,0,0,1,1468.44,240.83Z"/><path class="cls-20" d="M1714.31,318.7,1708,388.59s3.5,1.4,6.29,0l12.58-66.39Z"/><ellipse class="cls-14" cx="1784.1" cy="286.9" rx="94.45" ry="52.07"/><ellipse class="cls-21" cx="1795.76" cy="291.85" rx="71.78" ry="38.1"/><path class="cls-22" d="M1745.06,274.7v2.77a4.19,4.19,0,0,0,4.2,4.19h60.8a4.74,4.74,0,0,0,3.86-2l15.92-22.45a3.55,3.55,0,0,0-2.89-5.61h-67.86Z"/><path class="cls-22" d="M1738.71,230.75,1751,277h58.94l12.31-46.77a6,6,0,0,0-5.83-7.13H1744.6A6.09,6.09,0,0,0,1738.71,230.75Z"/><polygon class="cls-23" points="1662.25 312.06 1665.39 322.2 1674.41 316.05 1668.54 307.52 1662.25 312.06"/><polygon class="cls-23" points="1653.51 339.32 1657.21 353.51 1644.78 355.39 1644.43 344.56 1653.51 339.32"/><path class="cls-23" d="M1632.55,168.45s1.74-1.75.7-6.64-.7-13.63.69-16.07a3,3,0,0,1,3.5-1.75s-1.4,9.43,0,9.43,9.43-9.08,12.58-9.78,7.34-2.45,8.38-2.1,3.5,2.8,3.5,3.85-5.59,6.29-7,8.38-9.78,14-15.37,17.13Z"/><path class="cls-20" d="M1519.33,309.62l-13.28,68.49s3.5,2.09,5.59,1.39l20.27-66.39Z"/><path class="cls-20" d="M1559.17,320.8l11.18,70.58s3.49,1.05,4.89-1l-2.79-72Z"/><path class="cls-20" d="M1540.65,278.87l11.18,70.58s3.49,1.05,4.89-1.05l-2.79-72Z"/><path class="cls-20" d="M1609.48,286.21l11.19,70.58s3.49,1,4.89-1.05l-2.8-72Z"/><path class="cls-14" d="M1527,196.4s-21.66,5.59-30.75,11.19-14.68,18.86-8.39,33.54,31.81,82.87,44,88.76c18.87,9.08,67.09-1.4,94.35-21l-9.09-33.55-53.11-40.53Z"/><path class="cls-21" d="M1527,196.4l37,38.44,53.11,40.53,4.11,15.19s-22.17,8.92-38.47,11.37-37.28,6.68-47.23-14.13-40-71.48-2.62-80.56Z"/><path class="cls-24" d="M1550.43,284.81s-6.64,2.45-9.78-3.84-7.34-49.27-7.69-54.86.7-17.48-3.84-22.37-8-5.59-8-5.59-21.32,5.94-24.81,9.44c0,0,9.09-16.43,15.37-21.32s28.31-11.18,30.06-11.88A13.93,13.93,0,0,0,1556,180c9.79-1.75,10.83-8,10.83-8a16,16,0,0,1,8.74-.7c4.54,1,33.55,22.37,34.94,21.67s22.37-26.21,22.37-26.21,3.84,3.5,6.64,4.2c0,0-10,26.53-17.25,39.36-2.41,4.27-4.51,7-5.82,6.76-5.24-1.05-32.14-14.68-32.14-14.68s1.4,20.31,2.54,31.79a70.3,70.3,0,0,0,1,7.35c1,3.84-13.63,22-16.77,24.11S1550.43,284.81,1550.43,284.81Z"/><path class="cls-25" d="M1616.82,251.26s16.08-4.54,17.12-.35c.25,1,1.56,6.27,3.44,13.82,6.12,24.53,18.29,73,19.63,76,0,0-11.53,6.64-12.23,9.43,0,0-3.85-2.09-5.24-4.89-.72-1.43-6.94-14.87-13-28.63-5.75-13.1-11.33-26.49-11.84-30.07,0,0-24.46,3.49-33.9,2.44L1591,271.53Z"/><path class="cls-21" d="M1637.38,264.73c-1.88-7.55-3.19-12.83-3.44-13.82-1-4.19-17.12.35-17.12.35L1591,271.53,1580.83,289c9.44,1.05,33.9-2.44,33.9-2.44.51,3.58,6.09,17,11.84,30.07,0,0-7.65-36.36-3.11-43.7s13.92-8.2,13.92-8.2"/><path class="cls-25" d="M1558.82,263.84s-8.74,11.19-9.09,16.43,1.75,12.93,8,15,22-2.79,30.4-8.73,29-31.1,34.94-32.5,10.49-1.75,11.88,2.1l9.44,36.69s12.23,18.17,17.82,22.36c0,0,5.94-4.89,8.73-5.94,0,0-27.6-68.49-29-73s-4.19-11.18-11.18-10.83-40.88,13.62-45.43,15.37S1565.46,255.46,1558.82,263.84Z"/><path class="cls-22" d="M1643.23,357s-4.27,16.71-1.16,19.09,15,1.43,16.28,1.29,1.14-3.75,3.17-3.1,6.22,3.21,9.2,3.56,21.33-2.41,25.42-4.25,4.29-5.27,3.21-6.22-6.91,1.17-11-.92-26-11.42-31.17-12.89l-13.66,2Z"/><path class="cls-22" d="M1664.6,324.8s3.7,15.3,7.23,15.89,12.72-5.26,13.67-5.91-.68-3.51,1.23-3.86,6.39-.07,8.94-1.06,16.17-11.06,18.69-14.29,1.2-6.09-.08-6.39-5.07,3.89-9.22,3.94-25.87,1.91-30.65,2.93l-10.14,7.47Z"/><g id="_Groupe_" data-name=" Groupe "><path class="cls-23" d="M1591.38,145l-5.09-16.32a26.62,26.62,0,1,0-46.27,22,15.76,15.76,0,0,1,3.91,12.35l-.45,3.34c-1.09,8.11,2.5,15.24,8,15.86l1.94.22c5.48.62,10.84-5.51,11.92-13.67l.26-1.88a6.51,6.51,0,0,1,6-5.68,15.14,15.14,0,0,0,8.69-2.82c4.41-3.37,5.23-8.76,5.61-14.14Z"/><path class="cls-9" d="M1579.64,131.33a2.33,2.33,0,1,1-4.66.09c0-.08,0-.17,0-.25"/><path class="cls-9" d="M1579.57,149.59a5.6,5.6,0,0,1-7.85-1.05"/></g><path class="cls-10" d="M1542.09,143a15,15,0,0,1-3.31-8c-.09-2.93,2-6.07,4.8-6.25a6,6,0,0,1,5.32,3.55,17.48,17.48,0,0,1,1.39,6.62c4,.33,7.54,1.09,4.67-17.27a27.08,27.08,0,0,0,22.64-7.56,26.9,26.9,0,0,0-47.77,11.6,27.39,27.39,0,0,0,5.64,21.66c1.38,1.7,4.89,5.81,7.56,4.76C1547,150.69,1543.5,145.05,1542.09,143Z"/><path class="cls-26" d="M1584.33,202.34l28.26,13.36c3.88,1.32,5.15,2.81,8.69-3.73"/><line class="cls-26" x1="1535.82" y1="253.79" x2="1540.65" y2="282.88"/><path class="cls-27" d="M1603.79,271.49c8.43-8.66,13.51-15,18.19-17s12-2.34,13,1.65l2,8"/><path class="cls-27" d="M1614.31,287c.88,3.45,9.83,24,9.83,24"/><path class="cls-20" d="M1838.24,405.39,1835,482.06s3.26,2,5.59,0l9.79-77.16Z"/><path class="cls-20" d="M1882,402.57l19.1,68s5.13.93,6.06-2.33l-14.91-72.68Z"/><path class="cls-20" d="M1837.78,374.32l19.1,68s5.12.93,6.06-2.33L1848,367.33Z"/><path class="cls-28" d="M1795.38,322.9s-8-2.8-14,0-8.38,9.43-8.38,12.23S1815,428.07,1815,428.07l8-3.84-8.39-49.62Z"/><path class="cls-28" d="M1783.85,335.13s-8-1.75-12.58-1.4-9.09,3.49-10.48,6.64-2.45,10.13-1.4,14.67,25.16,57.31,25.51,63.95a33.6,33.6,0,0,1-4.2,17.82c-2.79,5.24-6.63,13.63-8,14.33a5.46,5.46,0,0,0-2.1,2.79l7.34,1.75,6.64-1.75,8-17.47,7.34-9.43a29.65,29.65,0,0,1-3.84-9.44c-1-5.24-2.8-39.48-3.15-42.63S1783.85,335.13,1783.85,335.13Z"/><path class="cls-22" d="M1801.32,425.63s-1.75-1.4-5.59,0-5.94,7.34-7.69,11.88-6.29,14.68-8,15-7.34-1.39-7.34-1.39l.35-1.4s-4.55.7-5.94,1.05-5.94,2.09,1.39,7,10.49,4.54,14.33,4.19,5.94-.35,7-2.45,5.24-12.93,5.24-12.93l.7,15.38s3.14.35,4.89-.7c0,0,2.45-21.31,3.15-24.11S1806.91,427.38,1801.32,425.63Z"/><path class="cls-20" d="M1787.78,379.65l-27.87,86.91s2.72,2.91,5.47,1.16L1798,385.8Z"/><path class="cls-22" d="M1818.79,421.44a9,9,0,0,0-8,7.68c-.59,3.07.78,8.1,2.68,13,2.63,6.8,6.29,13.32,7.1,13.93,1.4,1.05,9.08-.7,11.88-4.19,0,0-1-7.78-2-14.28-.5-3.05-1-5.83-1.46-7.39C1827.53,425.28,1825.43,420,1818.79,421.44Z"/><path class="cls-22" d="M1816.7,433.67l9.78,26.9a5.32,5.32,0,0,0,4.19-1.4l-6.29-28.3S1816.7,432.27,1816.7,433.67Z"/><path class="cls-22" d="M1866,327.44s-34.56-2.48-55.34-3.78c-8.39-.53-14.54-.86-15.24-.76-2.45.35-12.23,4.89-19.57,12.58s-.35,17.82-.35,17.82l24.81,25.51,41.23,10.48,25.51-8.74,6.29-23.41Z"/><path class="cls-28" d="M1800.27,256.51s-1.86,9.55-.7,11.41,12.12,11.18,14.45,14.68,6.52,10.48,6.75,11.18,8.16-3.73,8.16-3.73-1.4-5.59-.47-8.62,2.56-10.95,2.33-12.81S1800.27,256.51,1800.27,256.51Z"/><rect class="cls-22" x="1802.25" y="234.61" width="23.76" height="43.33" rx="1.78" transform="translate(307.52 1298.81) rotate(-42.72)"/><rect class="cls-5" x="1804.37" y="240.13" width="17.47" height="30.05" transform="translate(308 1297.81) rotate(-42.72)"/><path class="cls-28" d="M1806.1,264.89a7.81,7.81,0,0,0,3.26-1.86c1.4-1.4,7.68-7,8.85-7a3,3,0,0,1,2.56,2.33c0,.93-3.49,6.06-4.66,8.15s-3,5.36-2.79,6.06a16.94,16.94,0,0,1,.23,3l-7.45-7.69Z"/><path class="cls-16" d="M1898.81,255.81s-14.44,2.33-23.76,10.25-28.42,46.59-28.42,46.59l-16.77-26.09s-7.92,2.33-10.72,5.12c0,0,7,34,10.25,43.8s13.51,12.58,17.24,12.58,24.23-22.83,24.23-22.83l33.08-40.54Z"/><path class="cls-14" d="M1930.49,266.06s-40.53,10.25-46.12,12.11-15.38,2.33-18.17,24.69-3.73,43.8-3.73,43.8,1.86,39.6-28.89,33.54-58.12-26.9-58.12-26.9-8,8.73-1,19.45,28,33.54,70.36,36.8,70.81-14.9,82-55.9,16.77-70.82,16.77-70.82S1951.46,262.8,1930.49,266.06Z"/><path class="cls-21" d="M1866.2,302.86c-2.8,22.37-3.73,43.8-3.73,43.8s1.86,39.6-28.89,33.54-58.12-26.9-58.12-26.9,17.47,31,61.67,34.88S1866.2,302.86,1866.2,302.86Z"/><path class="cls-28" d="M1894.15,200.83s-10.25,18.64-10.25,24.69,12.12,20,12.12,20l6.52-14.45Z"/><path class="cls-25" d="M1916.05,178.47s-14,.93-21,14-1.39,37.28-.93,41,2.8,38.67,1.87,42.4,8.85,5.59,22.82,3.73a66,66,0,0,0,24.23-8.39l4.66,2.8a20,20,0,0,0,.93-14.91c-2.79-7.92-3.26-23.3-3.72-32.62S1947.26,174.74,1916.05,178.47Z"/><path class="cls-5" d="M-23.29,334.85c4.69,11.67,11.9,22.7,21.58,30.75,28.7-5.56,84.77-9.34,149.26-9.34,93.68,0,169.63,6.76,169.63,16.6,0,2.31-4.19,5.74-11.81,7.76l.71.08c7.68-1.45,15.12-3.75,21.71-7.8,16.72-10.27,25.12-30.59,24.48-49.9-1.34-40.16-31-67.17-60.53-90.82-11.13-8.92-22.56-18.17-29.27-30.63-6.21-11.53-7.82-24.8-10.89-37.48-9.51-39.22-36-79.66-72.48-99.76-38.52-21.21-87.84-23-128.56-7C-4.07,78.81-27.8,130.75-34.77,185.25c-4.25,33.19-2.32,66.85,1.18,100.13C-31.82,302.17-29.6,319.14-23.29,334.85Z"/><path class="cls-29" d="M-33.59,285.38c1.77,16.79,4,33.76,10.3,49.47,4.69,11.67,11.9,22.7,21.58,30.75,28.7-5.56,84.77-9.34,149.26-9.34,93.68,0,169.63,6.76,169.63,16.6,0,2.31-4.19,5.74-11.81,7.76l.71.08c7.68-1.45,15.12-3.75,21.71-7.8,16.72-10.27,25.12-30.59,24.48-49.9l0-.6c-1.25-31-27.28-55.61-59-56a309.37,309.37,0,0,0-32.32,1.44c-71.95,6.65-75.85-70.15-165.42-98.6l-2.19-.68C26,148-41.07,201.27-35.08,270Q-34.4,277.71-33.59,285.38Z"/><path class="cls-20" d="M305.37,380.62c7.62-2,11.81-5.45,11.81-7.76,0-9.84-76-16.6-169.63-16.6s-169.63,8-169.63,17.82c0,2.53,5,4.94,14.11,7.12-27.2,3.26-43.43,7.37-43.43,11.84,0,10.57,90.71,19.14,202.61,19.14S353.83,403.61,353.83,393C353.83,388.3,335.58,384,305.37,380.62Z"/><ellipse class="cls-30" cx="27.17" cy="383.43" rx="34.27" ry="4.06"/><path class="cls-30" d="M342.83,386.39c0,2.24-27.5,4.06-61.43,4.06S220,388.63,220,386.39s27.5-4.06,61.42-4.06S342.83,384.14,342.83,386.39Z"/><path class="cls-5" d="M408.2,273.27l.84-.3s-.21-.58-.43-1.15c-.12-.29-.23-.58-.32-.79l-.16-.36-.81.37.15.33c.08.21.2.49.31.77C408,272.7,408.2,273.27,408.2,273.27Z"/><path class="cls-5" d="M409.29,276.7l.85-.24s-.16-.59-.34-1.18-.37-1.17-.37-1.17l-.85.28s.2.57.37,1.15S409.29,276.7,409.29,276.7Z"/><path class="cls-5" d="M410.16,280.2,411,280s-.13-.6-.27-1.2-.3-1.19-.3-1.19l-.86.22s.16.59.29,1.18S410.16,280.2,410.16,280.2Z"/><path class="cls-5" d="M410.83,283.74l.88-.14s-.09-.61-.21-1.21l-.22-1.21-.87.18.22,1.19C410.74,283.14,410.83,283.74,410.83,283.74Z"/><path class="cls-5" d="M411.3,287.31l.88-.09s-.06-.61-.13-1.22l-.16-1.21-.88.12.16,1.2C411.23,286.71,411.3,287.31,411.3,287.31Z"/><path class="cls-5" d="M411.56,290.91l.88,0-.06-1.22c0-.62-.09-1.23-.09-1.23l-.89.07.1,1.21Z"/><path class="cls-5" d="M411.6,294.51l.89,0s0-.62,0-1.23l0-1.23-.89,0s0,.61,0,1.21Z"/><path class="cls-5" d="M411.43,298.11l.89.07s.06-.61.08-1.22l.06-1.23-.89,0-.06,1.21C411.49,297.51,411.43,298.11,411.43,298.11Z"/><path class="cls-5" d="M411.05,301.69l.88.13s.07-.61.15-1.22c0-.31.07-.61.1-.84a3.25,3.25,0,0,0,0-.38l-.88-.09s0,.15,0,.38-.06.52-.1.82Z"/><path class="cls-5" d="M410.42,305.24l.87.18.24-1.2c.12-.61.21-1.21.21-1.21l-.88-.15s-.09.6-.2,1.2Z"/><path class="cls-5" d="M409.58,308.74l.86.24.1-.37c.06-.22.13-.52.21-.82.14-.6.29-1.19.29-1.19l-.87-.2s-.14.59-.29,1.17c-.07.3-.14.59-.2.81Z"/><path class="cls-5" d="M408.51,312.18l.84.29s.19-.58.39-1.16c.1-.29.19-.59.25-.81s.11-.37.11-.37l-.85-.25-.11.36a7.71,7.71,0,0,1-.25.79Z"/><path class="cls-5" d="M407.22,315.55l.82.34.16-.35.3-.79.44-1.14-.83-.31-.44,1.12c-.1.29-.21.57-.3.78Z"/><path class="cls-5" d="M405.71,318.82l.8.39.54-1.1a8,8,0,0,0,.35-.77l.16-.35-.81-.36-.16.35c-.09.2-.2.48-.34.75Z"/><path class="cls-5" d="M376,259l.79-.42-.49-.91-.52-.91-.76.46.5.88Z"/><path class="cls-5" d="M377.34,261.72l.8-.39s-.23-.46-.45-.93l-.47-.91-.79.4.46.91C377.12,261.26,377.34,261.72,377.34,261.72Z"/><polygon class="cls-5" points="378.62 264.48 379.44 264.12 378.58 262.24 377.78 262.62 378.62 264.48"/><polygon class="cls-5" points="379.82 267.28 380.64 266.95 379.84 265.05 379.02 265.4 379.82 267.28"/><polygon class="cls-5" points="380.92 270.12 381.75 269.82 381.01 267.89 380.18 268.22 380.92 270.12"/><polygon class="cls-5" points="381.92 273 382.76 272.72 382.09 270.77 381.25 271.07 381.92 273"/><polygon class="cls-5" points="382.81 275.91 383.66 275.67 383.06 273.69 382.21 273.95 382.81 275.91"/><polygon class="cls-5" points="383.58 278.85 384.44 278.64 383.93 276.64 383.07 276.87 383.58 278.85"/><polygon class="cls-5" points="384.23 281.82 385.1 281.65 384.69 279.62 383.82 279.82 384.23 281.82"/><path class="cls-5" d="M384.75,284.82l.88-.14s-.08-.51-.15-1-.17-1-.17-1l-.88.16s.11.5.17,1S384.75,284.82,384.75,284.82Z"/><path class="cls-5" d="M385.12,287.83l.89-.09s-.05-.51-.09-1-.15-1-.15-1l-.88.11s.08.51.15,1Z"/><path class="cls-5" d="M385.34,290.85l.89,0s0-.13,0-.32,0-.46-.05-.71l-.08-1-.89.07.08,1c0,.25.05.5.06.7Z"/><polygon class="cls-5" points="385.36 293.88 386.25 293.91 386.23 291.83 385.35 291.85 385.36 293.88"/><polygon class="cls-5" points="385.16 296.9 386.04 296.99 386.2 294.92 385.31 294.88 385.16 296.9"/><path class="cls-5" d="M317.84,233.49l.4-.8-1.13-.56-1.14-.54-.37.81,1.12.53Z"/><path class="cls-5" d="M321.14,235.23l.43-.78-1.11-.6-1.12-.59-.41.79,1.11.58Z"/><path class="cls-5" d="M324.38,237.07l.46-.76-1.1-.64-1.09-.62-.44.77,1.09.62Z"/><path class="cls-5" d="M327.56,239l.48-.75L327,237.6l-1.07-.66-.46.76s.53.32,1.06.66S327.56,239,327.56,239Z"/><path class="cls-5" d="M330.68,241.07l.5-.73-1.05-.71-1.05-.69-.48.74,1,.69C330.17,240.71,330.68,241.07,330.68,241.07Z"/><path class="cls-5" d="M333.72,243.22l.53-.71-1-.74-1-.73-.51.73,1,.72Z"/><path class="cls-5" d="M336.68,245.49l.55-.69-1-.78c-.49-.39-1-.77-1-.77l-.54.71s.51.37,1,.76Z"/><path class="cls-5" d="M339.53,247.89l.59-.67-1-.83-1-.81-.56.69,1,.8Z"/><path class="cls-5" d="M342.26,250.42l.62-.64s-.44-.45-.91-.88l-.93-.85-.6.65.92.85C341.82,250,342.26,250.42,342.26,250.42Z"/><path class="cls-5" d="M344.84,253.09l.66-.6-.26-.3-.6-.63c-.44-.45-.87-.91-.87-.91l-.64.62.86.9c.22.23.43.46.6.62Z"/><path class="cls-5" d="M347.25,255.92l.7-.55-.81-1c-.2-.25-.39-.5-.55-.68l-.26-.29-.68.58.26.29c.16.18.35.42.55.66Z"/><path class="cls-5" d="M349.41,258.93l.74-.49-.71-1.06c-.17-.26-.37-.51-.51-.7l-.24-.32-.71.53.23.31c.14.19.34.43.5.69Z"/><path class="cls-5" d="M351.28,262.11l.79-.41s-.29-.56-.6-1.12l-.65-1.09-.76.46.64,1.07C351,261.56,351.28,262.11,351.28,262.11Z"/><path class="cls-5" d="M352.79,265.48l.83-.32s-.05-.15-.14-.37a6,6,0,0,0-.33-.81l-.52-1.17-.8.39.5,1.13a7.47,7.47,0,0,1,.33.78Z"/><path class="cls-7" d="M94.36,85.29A21.68,21.68,0,0,0,91,80.14,12.82,12.82,0,0,0,87.62,77a4.13,4.13,0,0,0-5.9,4.4,4.18,4.18,0,0,0,2.85,3.17,20.41,20.41,0,0,1,4.79,2.27,18.31,18.31,0,0,1,4.16,3.89,21,21,0,0,1,1.93,2.85c.21.38.41.76.59,1.15.1.23.57.59.57.09A21.72,21.72,0,0,0,94.36,85.29Zm.65,6.3h0a.24.24,0,0,1-.3-.14c-3.9-9.38-9.19-10.94-9.24-11a.25.25,0,1,1,.13-.48c.22.06,5.56,1.62,9.57,11.24A.26.26,0,0,1,95,91.59Z"/><path class="cls-7" d="M120.18,130.36a13.1,13.1,0,0,0-4.11,2,4.14,4.14,0,0,0,2,7.08,4.19,4.19,0,0,0,4-1.55,20.49,20.49,0,0,1,3.82-3.68,18.2,18.2,0,0,1,5.12-2.51,20.29,20.29,0,0,1,3.34-.8c.43-.06.86-.12,1.29-.15.24,0,.75-.32.28-.5a23.1,23.1,0,0,0-15.74.06Zm11.88,0a.25.25,0,0,1,.26.24v0a.25.25,0,0,1-.24.23c-10.16.34-13.48,4.73-13.52,4.77a.25.25,0,1,1-.4-.29C118.3,135.2,121.64,130.76,132.06,130.41Z"/><path class="cls-7" d="M23.61,186.94a1,1,0,0,1-1,1h0a1,1,0,0,1-1.05-1v-5.35a1,1,0,0,1,1.05-1.05h0a1,1,0,0,1,1,1.05Z"/><path class="cls-7" d="M25.24,185.31a1,1,0,0,0,1-1.05h0a1,1,0,0,0-1-1H19.89a1,1,0,0,0-1,1h0a1,1,0,0,0,1,1.05Z"/><path class="cls-7" d="M34.92,195.44a1,1,0,0,1-1.05,1h0a1,1,0,0,1-1-1v-5.35a1,1,0,0,1,1-1h0a1,1,0,0,1,1.05,1Z"/><path class="cls-7" d="M36.55,193.81a1,1,0,0,0,1-1.05h0a1,1,0,0,0-1-1H31.2a1,1,0,0,0-1.05,1h0a1,1,0,0,0,1.05,1.05Z"/><path class="cls-7" d="M40.57,183.22a1,1,0,0,1-1,1h0a1,1,0,0,1-1-1v-5.35a1,1,0,0,1,1-1.05h0a1,1,0,0,1,1,1.05Z"/><path class="cls-7" d="M42.2,181.59a1,1,0,0,0,1-1.05h0a1,1,0,0,0-1-1H36.85a1,1,0,0,0-1,1h0a1,1,0,0,0,1,1.05Z"/><path class="cls-7" d="M175.85,248.06a1.08,1.08,0,0,0,.6-.42,1.31,1.31,0,0,0,.49-1.58,2.52,2.52,0,0,0-1.8-1.44,1.67,1.67,0,0,0-1.15.15,2,2,0,0,0-.87.3,1.12,1.12,0,0,0-.29,1.66C173.06,247.68,174.73,248.35,175.85,248.06Z"/><path class="cls-7" d="M164.51,246.31a2.47,2.47,0,0,0,1.24-.25,1,1,0,0,0,.41-.42,1.56,1.56,0,0,0,.11-.54,1.2,1.2,0,0,0-1-1.32,1.94,1.94,0,0,0-.24,0c-.9-.62-2.65-.41-2.61.73a1.23,1.23,0,0,0,.58.94A1.85,1.85,0,0,0,164.51,246.31Z"/><path class="cls-7" d="M168.65,252.34a1.35,1.35,0,0,0,.47-.12,2.06,2.06,0,0,0,.26,0,.71.71,0,0,0,.75-.41.92.92,0,0,0,.2-1.45,2.74,2.74,0,0,0-2.2-.86,1.55,1.55,0,0,0-1.36.59,1,1,0,0,0,.18,1.16A1.49,1.49,0,0,0,168.65,252.34Z"/><path class="cls-7" d="M178,257a1.21,1.21,0,0,0,.07-.5,1.26,1.26,0,0,0-.21-1.2.76.76,0,0,0-.89-.48l0,0a1.9,1.9,0,0,0-2.5,1.06,1.28,1.28,0,0,0,.62,1.32A1.6,1.6,0,0,0,178,257Z"/><path class="cls-7" d="M169.52,260.8a1.46,1.46,0,0,0,.26-1.65,1.8,1.8,0,0,0-2.17-.9,1.71,1.71,0,0,0-1.05,0,1.21,1.21,0,0,0-.25,2.12,1.6,1.6,0,0,0,.46.25,2.48,2.48,0,0,0,.5.32A2,2,0,0,0,169.52,260.8Z"/><path class="cls-7" d="M159.09,252.9l.23-.05a1.22,1.22,0,0,0,1-.82c.12-.46-.28-.9-.67-1.18a2.44,2.44,0,0,0-1.66-.56,11,11,0,0,1-1.87,1.12,1,1,0,0,0,.26,1.13,2.63,2.63,0,0,0,1.47.91A1.27,1.27,0,0,0,159.09,252.9Z"/><path class="cls-7" d="M159.45,263a1.15,1.15,0,0,0,.34-.88,1.39,1.39,0,0,0,.14-.45,1.36,1.36,0,0,0,0-.2,1,1,0,0,0-.14-.6,2.07,2.07,0,0,0-2.64-.45,1.22,1.22,0,0,0-.93.91l0,.12v.06a1.26,1.26,0,0,0,.24.95,1.39,1.39,0,0,0,.46.41,4.45,4.45,0,0,0,.51.33A1.85,1.85,0,0,0,159.45,263Z"/><path class="cls-7" d="M177.66,83.11l-2.86-.45c-5,.07-11.52,2.32-12.63,10.74-1.34,10.19,3.83,8.16,2.31,13.37,0,0,.24,2.73,1.92,3.81h0s-.18.58-.38,1.48l-1.42-.23a1,1,0,0,0-.7.17.92.92,0,0,0-.38.62,1,1,0,0,0,.79,1.08l13.7,2.18a.95.95,0,1,0,.3-1.87l-1.05-.17c.07-.55.14-1.12.19-1.74h0a6.17,6.17,0,0,0,2.55-2.87c.17-5.42,4.46-1.89,6.34-12C187.88,88.9,182.42,84.74,177.66,83.11Zm-7.61,22.51c-.14-1.62-.43-3.21-.47-4.83-.05-2,.29-4.05.3-6.07a3.14,3.14,0,0,0,.56,1.12.42.42,0,0,0,.61-.06,7.94,7.94,0,0,0,.89-1.45c.65-1.31,1.17.83,1.35,1.26A2.09,2.09,0,0,0,174.57,97a.84.84,0,0,0,.56-.14,2.71,2.71,0,0,1,2.11-.39,4,4,0,0,0,2.36-.82,7,7,0,0,0-.51,1.58c-.48,1.75-1.12,3.46-1.74,5.16-.1.21-.19.43-.29.64a34.91,34.91,0,0,0-1.85,4.21q-.12.36-.21.75a12,12,0,0,0-1,2.64l-3.16-.5A15.15,15.15,0,0,1,170.05,105.62ZM185,97c-1,5.18-2.46,6.31-3.79,7.32a5.3,5.3,0,0,0-2.56,4.59c-.35.7-1.25,2.07-2.3,2.14l-.47-.08a76,76,0,0,0,3.26-7.86c.55-1.84,1.72-4.38,1.73-6.52a3.12,3.12,0,0,0,.12-2,.45.45,0,0,0-.57-.25,6.5,6.5,0,0,0-1.51.65,6,6,0,0,1-3.25.41,1,1,0,0,0-.6.36c-.72,1-1.3-1.25-1.46-1.63s-.54-1.25-1.13-1.22c-1,0-1.35,1-1.81,1.86-.55-1.06-.42-2.84-1.86-3a.45.45,0,0,0-.5.37,3.43,3.43,0,0,0,0,.84,18.39,18.39,0,0,0-.35,3,30,30,0,0,0-.57,5.34c0,2-.66,5.81.11,8.24l-.15,0c-1-.39-1.41-2-1.53-2.74a5.32,5.32,0,0,0-1-5.16c-.95-1.37-2-2.92-1.34-8.13,1.07-8.15,7.45-9.53,11.23-9.62l2.63.42C180.91,85.64,186.54,88.93,185,97Z"/><path class="cls-7" d="M177.18,117.08l-.52-.09-11.1-1.76-.85-.14a.78.78,0,0,0-.64.18,1,1,0,0,0-.36.62.9.9,0,0,0,.7,1.07l1.17.19,10.51,1.67.79.12a.95.95,0,0,0,.3-1.86Z"/><path class="cls-7" d="M176.15,120.15l-.59-.09-9.79-1.56-1-.16a.72.72,0,0,0-.59.19,1.05,1.05,0,0,0-.34.62.89.89,0,0,0,.63,1.06l2,.32a5.33,5.33,0,0,0,4.06,2.69,3.76,3.76,0,0,0,3.9-1.43l1.44.23a.87.87,0,0,0,.92-.81A.89.89,0,0,0,176.15,120.15Z"/><path class="cls-7" d="M187.59,117.87a15,15,0,0,0-2-2.47,13,13,0,0,1-1.35-1.52c-.24-.29-.84-.88-.88-1.28a.44.44,0,0,0-.87.1c.1.93,1.18,1.87,1.75,2.55a17.57,17.57,0,0,0,1.29,1.3,11.58,11.58,0,0,1,1.36,1.83C187.2,118.85,187.91,118.34,187.59,117.87Z"/><path class="cls-7" d="M195.14,112.33c-1.1-.59-2.12-1.35-3.19-2-1.25-.75-2.71-1.14-3.9-2-.46-.32-1,.35-.55.68a26.42,26.42,0,0,0,3.65,1.82c1.28.62,2.38,1.58,3.63,2.25C195.28,113.39,195.64,112.59,195.14,112.33Z"/><path class="cls-7" d="M199.15,102.49c-2.7-.36-5.46-1.46-8.21-1.37-.56,0-.46.88.1.86,2.66-.08,5.36,1,8,1.37C199.57,103.42,199.71,102.56,199.15,102.49Z"/><path class="cls-7" d="M201.38,93.27a36,36,0,0,1-4.41-.06c-1.29-.08-2.95.15-4.16-.34-.52-.21-.88.58-.36.79a9,9,0,0,0,3.19.37c2,0,3.87.22,5.83.11C202,94.1,201.93,93.24,201.38,93.27Z"/><path class="cls-7" d="M199.94,82.54a39.21,39.21,0,0,0-8.1,3.19c-.48.26-.17,1.08.32.81a39.1,39.1,0,0,1,8.09-3.18C200.8,83.2,200.48,82.39,199.94,82.54Z"/><path class="cls-7" d="M194.87,75.66c-2.28,2-4.79,3.64-7,5.77-.41.39.27.94.67.55,2.13-2.08,4.58-3.68,6.82-5.62C195.81,76,195.3,75.29,194.87,75.66Z"/><path class="cls-7" d="M180.85,71.7c-1.1,2.21-1.37,4.78-2.47,7-.25.51.55.86.8.36,1.1-2.18,1.36-4.75,2.46-7C181.89,71.56,181.1,71.2,180.85,71.7Z"/><path class="cls-7" d="M171.76,79c-.11-2.55.43-5.14,0-7.67-.09-.55-1-.46-.87.1.41,2.52-.12,5.12,0,7.66C170.91,79.62,171.78,79.52,171.76,79Z"/><path class="cls-7" d="M164.14,81.88a24,24,0,0,0-2.82-3.78,23.27,23.27,0,0,0-3.8-3.82A.44.44,0,0,0,157,75a23.84,23.84,0,0,1,3.65,3.66,21.33,21.33,0,0,1,2.71,3.58C163.58,82.7,164.39,82.39,164.14,81.88Z"/><path class="cls-7" d="M159.75,88.25c-3.06-1-5.93-2.36-9.2-2.42-.56,0-.45.86.1.87,3.08,0,5.85,1.44,8.74,2.35C159.92,89.21,160.28,88.42,159.75,88.25Z"/><path class="cls-7" d="M158.27,95.89a30.13,30.13,0,0,1-5,.34c-1.75.15-3.49.33-5.23.55a.44.44,0,0,0,.1.87c2-.25,4-.44,6-.62a26.08,26.08,0,0,0,4.42-.33C159.13,96.56,158.81,95.75,158.27,95.89Z"/><path class="cls-7" d="M159.51,102.35a10.85,10.85,0,0,0-3.38,1c-1.49.51-2.95,1.12-4.43,1.68a.44.44,0,0,0,.32.81c1.31-.5,2.61-1,3.93-1.5a11.92,11.92,0,0,1,3.66-1.16C160.17,103.22,160.06,102.36,159.51,102.35Z"/><path class="cls-7" d="M160.56,108.06c-1.19,1-2.49,1.82-3.71,2.77-.45.34.07,1,.51.7,1.22-.94,2.52-1.77,3.71-2.76C161.51,108.41,161,107.7,160.56,108.06Z"/><g id="Calque_2" data-name="Calque 2"><g id="textes"><path class="cls-31" d="M157.06,377.61a2.51,2.51,0,0,1-.69-4.92l19.36-5.51A2.51,2.51,0,1,1,177.1,372l-19.35,5.51A2.78,2.78,0,0,1,157.06,377.61Z"/><polygon class="cls-32" points="138.79 326.43 101.19 209.34 95.41 211.35 133.01 328.44 138.79 326.43"/><path class="cls-33" d="M268.34,373a59.72,59.72,0,0,0,50.14-18.48,57.42,57.42,0,0,0,14.66-47.89A58.78,58.78,0,0,0,304.79,265a57.78,57.78,0,0,0-49.38-4.42,54.94,54.94,0,0,0-33.71,35.29A64.11,64.11,0,0,0,219,320.48a62.77,62.77,0,0,0,7.25,23.62A60.73,60.73,0,0,0,238,359.25,81.35,81.35,0,0,0,254,370.57c1.28.7,2.45,2.25,2.18,3.39l-.55,2.23a2,2,0,0,1,0,.35v.35c-.78,2.72-6.19,1.28-7.54-1.08a41.17,41.17,0,0,1-20.91-13.58,72.48,72.48,0,0,1-12.29-21.71,81.6,81.6,0,0,1-5.22-22,60,60,0,0,1,2.28-22.77,68.35,68.35,0,0,1,32.72-40,66.47,66.47,0,0,1,52-4.67,68.08,68.08,0,0,1,42.48,89.77,65.5,65.5,0,0,1-34.61,35.95,76.33,76.33,0,0,1-23,6.38,54.54,54.54,0,0,1-23.54-2.72c-1.47-.51-2.72-1.9-2.42-2.88.55-3.61,1.36-5.26,3.18-5.72a8.45,8.45,0,0,1,3.61,0C263.86,372.31,265.87,372.47,268.34,373Zm66.32-80.54A63.63,63.63,0,0,1,339,317.49a58.57,58.57,0,0,0-4.29-25.13Z"/><path class="cls-32" d="M203.11,317.06a74,74,0,0,1,73.8-73.91h.29c1.15,0,11.38.27,16.35,2.75l-2.11,4.25c-3.42-1.7-11.5-2.2-14.32-2.25a69.22,69.22,0,0,0-69.25,69.16Z"/><path class="cls-32" d="M-36.75,305l-4.67-.86a73.92,73.92,0,0,1,86-59.34l-.68,4.7A69.21,69.21,0,0,0-36.75,305Z"/><path class="cls-32" d="M101.07,315.1a68.5,68.5,0,0,0-60.18-66.29l.55-4.72A73.28,73.28,0,0,1,105.82,315Z"/><path class="cls-33" d="M77.22,277.32a59.73,59.73,0,0,0-49.71-19.58,57.4,57.4,0,0,0-42.84,26,58.78,58.78,0,0,0-6.54,49.93A57.78,57.78,0,0,0,12,369.83,55,55,0,0,0,60.69,366a64.1,64.1,0,0,0,18.37-16.58,62.74,62.74,0,0,0,10.32-22.43,60.81,60.81,0,0,0,1.28-19.16,81.06,81.06,0,0,0-4.35-19,3.83,3.83,0,0,1,.63-4l1.82-1.38.27-.25.3-.19c2.38-1.46,5.43,3.18,4.91,5.81a41.26,41.26,0,0,1,6.49,24.11,72.44,72.44,0,0,1-5.3,24.43,81.46,81.46,0,0,1-10.85,19.9,60.15,60.15,0,0,1-16.86,15.48,68.41,68.41,0,0,1-51,7.87A66.51,66.51,0,0,1-25,349.42a68.46,68.46,0,0,1,6.35-78A67.94,67.94,0,0,1,3.08,254.16a65.49,65.49,0,0,1,49.79-3.77A75.81,75.81,0,0,1,74.26,261a54.57,54.57,0,0,1,15.8,17.62,3.32,3.32,0,0,1,0,3.74c-2.72,2.31-4.51,3-6.19,2.17A8.75,8.75,0,0,1,81.15,282C80.18,280.68,78.79,279.3,77.22,277.32ZM-25.94,293.25A63.53,63.53,0,0,1-12.37,271.7a58.46,58.46,0,0,0-13.52,21.58Z"/><path class="cls-34" d="M80.26,246.24a8.42,8.42,0,0,1-2.51-.39l-21-6.59H-4.31a8.37,8.37,0,0,1-8.36-8.37,8.37,8.37,0,0,1,8.36-8.36H59.36l23.41,7.37a8.36,8.36,0,0,1-2.51,16.34Z"/><path class="cls-35" d="M122,343.71,37.8,328.37c-.85-.16-1.76-.28-2.71-.4-5.07-.67-12.72-1.68-12.72-9.8,0-8.4,7.55-9,13.62-9.55.9-.08,1.8-.15,2.69-.25,6.93-.76,34.36.19,35.53.24l-.12,3.33c-.28,0-28.35-1-35.05-.25-.91.1-1.84.18-2.77.25-7.34.63-10.56,1.4-10.56,6.23s3.88,5.7,9.81,6.49c1,.13,2,.26,2.88.42l84.15,15.34Z"/><rect class="cls-31" x="11.34" y="220.04" width="5.02" height="95.56" transform="translate(-109.99 29.95) rotate(-24.54)"/><path class="cls-31" d="M86.34,270.46A2.53,2.53,0,0,1,84,268.82l-7.14-19.33-14-5.8H3.05a2.51,2.51,0,1,1,0-5H63.84l17,7,7.91,21.39a2.52,2.52,0,0,1-1.49,3.23A2.65,2.65,0,0,1,86.34,270.46Z"/><path class="cls-34" d="M215.62,231.17h-6.71l6.26-2.42c.38-.15,38.67-15.33,46.7-53.39a54.84,54.84,0,0,0,1.39-12.27c-5.71-6.6-14.17-11.84-22.78-11.84h-5.94l5.44-2.4c.52-.23,13-5.57,20.47.54,3.23,2.62,5,6.89,5.26,12.76a35.11,35.11,0,0,1,5.15,8.13,40.14,40.14,0,0,1-6.74,42.05C254.05,223.44,230.48,231.17,215.62,231.17Zm50.06-65a63.87,63.87,0,0,1-1.36,9.68c-6.35,30-30.82,46.27-42.28,52.35,14-1.76,32.18-8.7,40.21-17.56a37.61,37.61,0,0,0,6.32-39.39A31.46,31.46,0,0,0,265.68,166.2Zm-19.22-16.71a36.51,36.51,0,0,1,16.44,9.61c-.6-3.48-1.94-6.08-4-7.77C255.38,148.48,250.31,148.71,246.46,149.49Z"/><path class="cls-36" d="M228.21,221.5a91.52,91.52,0,0,0-12.81,10.86,151.58,151.58,0,0,0-11.48,13.33,114.6,114.6,0,0,0-15.78,29.56,165.31,165.31,0,0,1-16.29,33.48,91.54,91.54,0,0,1-12.27,14.74c-1.22,1.14-2.47,2.17-3.77,3.31a69.2,69.2,0,0,1-5.67,4,41.6,41.6,0,0,1-12.27,5c-2,.3-4.08.68-6.19.81l-3.07-5-1.58-2.5a5.3,5.3,0,0,1-.67-1.52l-.63-1.71-2.52-6.92-.6-1.63-.41-1-.84-2-1.76-4c-1.2-2.66-2.44-5.32-3.72-8A147.32,147.32,0,0,1,104.42,269c-1.93-8.83-4.64-17.6-3.77-27.15,0-1.06,1.76-2.72,3.93-3.48l4.32-1.46.68-.25.68-.21c5.43-1.71,7.27,1.11,4.69,3.31,8.45,7.63,5.43,19.63,7.71,29.32,2.09,9,7.66,17,10.51,25.87,1.63,5,3.39,10,5.27,15a15.25,15.25,0,0,0,1.71,3.85,14.93,14.93,0,0,0,1,1.58c0,.16.25,0,.44,0l.51-.3a8.61,8.61,0,0,0,.9-.65,7.56,7.56,0,0,0,1.22-1.31l.22-.3,1-1a24.54,24.54,0,0,0,2.25-2.31c.74-.84,1.5-1.6,2.2-2.44l2.12-2.71a100.27,100.27,0,0,0,13.79-25.74l2.53-7.17,2.87-7.92,1.52-4.07,1.77-4a80.13,80.13,0,0,1,3.77-7.92A95.75,95.75,0,0,1,198,221.37c3.72-3.59,7.33-7.42,11.3-11a34.92,34.92,0,0,1,14.36-8.14,2.71,2.71,0,0,1,2.12.68,7.11,7.11,0,0,1,1.9,2.22,65.26,65.26,0,0,1,3.15,7.71l.78,2.47a9.1,9.1,0,0,1,.27,1.8C232,219.17,230.66,219.82,228.21,221.5Zm-52.83,58.18,5.92-14.93c-1.11,2.47-2.2,5-3.23,7.46S176.17,277.15,175.38,279.68Z"/><path class="cls-36" d="M179.51,279.81a32.83,32.83,0,0,1-6.08,8.42,38.9,38.9,0,0,1-7.79,6.14,33.44,33.44,0,0,1-9.1,3.55c-3.06.71-6,1.14-9.06,1.63s-6.28.81-9.53,1.14a18.4,18.4,0,0,1-9.72-1.79,12.69,12.69,0,0,1-6.19-4.81,2.24,2.24,0,0,1,.49-1.84l1-1.39.17-.21.16-.22c1.19-1.74,1.87-1.71,1.55-.57,2.88-.79,4,2.28,6.27,3.31a21.85,21.85,0,0,0,6.6.52A46.62,46.62,0,0,0,153,291.57a25.11,25.11,0,0,0,12.3-6.3c1.55-1.38,3.15-2.93,4.78-4.56s1.95-4,3.82-5.43a2.52,2.52,0,0,1,1.66.33C180.49,278,180.35,278.16,179.51,279.81ZM161.81,292a23.47,23.47,0,0,0,3.37-1.93Z"/><path class="cls-32" d="M240.4,177.09l1.55-.63-.63-1.54L240,171.69l-.62-1.55-.08.08-1.55.62a43.41,43.41,0,0,0-11.21,6,19.24,19.24,0,0,0-6.76,13.58,54.88,54.88,0,0,0,2.71,11.73l4.56,12.7.57,1.58,1.58-.57,3.28-1.17,1.58-.57-.57-1.58L229,200a51.78,51.78,0,0,1-2.29-9.42,12.49,12.49,0,0,1,4.24-8.47A38.1,38.1,0,0,1,240.4,177.09Z"/><path class="cls-16" d="M243.66,232.6l-1.56.66a1.91,1.91,0,0,0,.23-1.66l-10.1-29.51v-.16l-3.58-8.15a1.94,1.94,0,0,0-2.42-1l-7.85,2.88a1.92,1.92,0,0,0-1.16,2.44l10.86,31.79v.22l2.71,5.84a1.92,1.92,0,0,0,2.47,1h0l-2.36,1,1.92,4.69,12.76-5.29Z"/><path class="cls-36" d="M272.44,316.52a95.67,95.67,0,0,1-6.93-11.27c-3.8-7.25-7.9-14.22-11.56-21.53s-6.82-14.52-11-21.44a40.82,40.82,0,0,1-4.62-11.3,25.59,25.59,0,0,1-1.35-9.39c0-.38.67-1,1.49-1.22l1.63-.54h.49c2-.63,2.71.29,1.71,1.08,3.06,2.5,1.9,6.6,2.71,9.86a78.08,78.08,0,0,0,4.21,8.19c2.71,6.63,6.52,12.71,9.75,19s7.19,12.65,10.85,19c1.69,2.88,3.26,5.89,4.7,8.91s3.86,5.07,4.86,8.14a2.48,2.48,0,0,1-.95,1.44C274.09,318.69,273.85,318.47,272.44,316.52Zm-10.86-26.47c.89,1.57,1.71,3.2,2.71,4.78a50.62,50.62,0,0,0-2.66-4.78Z"/><path class="cls-36" d="M107.89,257.8c-4,3.42-8.14,6.68-12.48,9.77-7.93,5.76-15.31,12.08-22.92,18.27a206.16,206.16,0,0,0-21.55,19.28,67.68,67.68,0,0,1-11,9.5,39.73,39.73,0,0,1-9.75,5.75,2.07,2.07,0,0,1-1.81-.84l-1.12-1.3L27,318l-.16-.22c-1.36-1.66-.52-2.71.62-2.2,1.77-4.23,6.68-5.13,10-7.49s5.43-5.43,8.36-7.93c6.74-5.59,12.84-11.89,19.52-17.54S79,270.88,85.82,265.18a101.23,101.23,0,0,1,10-7.3c3.45-2.28,5.78-5.43,9.34-7,.35-.16,1.14.19,1.63.76C110.47,255.6,110.09,255.92,107.89,257.8ZM78.6,275.85l5.13-4.18A64.07,64.07,0,0,0,78.6,275.85Z"/><path class="cls-36" d="M128.72,329.71c-5.43-.3-10.67-.87-16-1.57-9.86-1.33-19.68-1.88-29.59-2.72a211.89,211.89,0,0,0-29.27-1,69.26,69.26,0,0,1-14.74-.79A40.5,40.5,0,0,1,28,321.05a2.07,2.07,0,0,1-.76-1.87v-2.26c.16-2.11,1.54-2.36,2-1.16,4.27-1.85,8.5.92,12.6,1.52s7.82-.22,11.7,0c8.85.62,17.76.3,26.58.84s18.13.81,27.15,1.49c4.15.33,8.33.9,12.46,1.63s7.95.16,11.75,1.39c.38,0,.68.92.68,1.65C132.19,329.9,131.65,329.87,128.72,329.71Zm-34.1-7.22,6.71.54A63,63,0,0,0,94.62,322.49Z"/><path class="cls-34" d="M249.5,170.6l-6.57-16a4.94,4.94,0,0,0-4.59-3.06v0a4.86,4.86,0,0,0-1.88.38l-2.11.87a4.92,4.92,0,0,0-2.74,2.83,8.86,8.86,0,0,0-2.12-.42l0-.13a6.31,6.31,0,0,0-2.39.46,6.89,6.89,0,0,0-4,4.53,9.81,9.81,0,0,0,.32,6.46,8.85,8.85,0,0,0,7.82,5.95,6.51,6.51,0,0,0,2.39-.46,8.1,8.1,0,0,0,2.45-1.9l2.11,5.16a5,5,0,0,0,6.44,2.72h0l2.12-.87A5,5,0,0,0,249.5,170.6Z"/><path class="cls-34" d="M232.83,163.05l-1-1.92a4.44,4.44,0,0,0-4-2.47,4.27,4.27,0,0,0-1.95.46l-20.2,10a4.43,4.43,0,0,0-2,5.92l.95,1.93a4.43,4.43,0,0,0,5.92,2l20.2-10A4.44,4.44,0,0,0,232.83,163.05Z"/><path class="cls-34" d="M129,202.25a6.44,6.44,0,0,0-2.14-3.2,12.62,12.62,0,0,0-2.72-1.6,23.29,23.29,0,0,0-5.16-1.63c-2.88-.54-4-.54-4.32,1a1.39,1.39,0,0,0-1.05-1.15c-4.73-1-9.39-.35-13.25-1.27a37.22,37.22,0,0,1-7.55-3,24.87,24.87,0,0,0-9.47-2.71,12.91,12.91,0,0,0-10.1,3.5,9.29,9.29,0,0,0-2.42,5.16,12.49,12.49,0,0,0,.57,5.29,18.83,18.83,0,0,0,5.57,8.15,23.55,23.55,0,0,0,8.31,4.8,19.39,19.39,0,0,0,9.88.65A22.77,22.77,0,0,0,103.8,212a13.85,13.85,0,0,1,7-3.2c2.61,0,5.68.73,8.88.92a13.19,13.19,0,0,0,5.81-.68,5.9,5.9,0,0,0,2.91-2.71A5.44,5.44,0,0,0,129,202.25Z"/><path class="cls-31" d="M24.93,295a2.52,2.52,0,0,1-1.65-4.41l58-50.49a2.51,2.51,0,0,1,3.3,3.79l-58,50.49A2.48,2.48,0,0,1,24.93,295Z"/><path class="cls-34" d="M101.84,318.88c19.22,3,18.08,29.4,18.08,29.4s9.42,1.14,15.07,1.52,22.61,1.14,24.1-20-20.36-23.37-20.36-23.37-53.5-1.52-67.08-1.52A31.52,31.52,0,0,0,55,309.11a1.47,1.47,0,0,0-.64,1,1.49,1.49,0,0,0,1.21,1.73C64.19,313.1,86.56,316.44,101.84,318.88Z"/><path class="cls-31" d="M166.37,372.59a2.52,2.52,0,0,1-2.17-1.25l-24.13-41.45a2.51,2.51,0,1,1,4.34-2.53l24.13,41.45a2.52,2.52,0,0,1-.91,3.44A2.49,2.49,0,0,1,166.37,372.59Z"/><path class="cls-37" d="M138.73,346.43a17,17,0,1,1,17.05-17A17.05,17.05,0,0,1,138.73,346.43Zm0-32.41a15.37,15.37,0,1,0,15.37,15.37A15.38,15.38,0,0,0,138.73,314Z"/><path class="cls-7" d="M195.09,239.17a2.36,2.36,0,1,1,.74,3.26h0A2.36,2.36,0,0,1,195.09,239.17Zm-1.63-1a4.26,4.26,0,1,0,5.89-1.33,4.27,4.27,0,0,0-5.89,1.33Z"/><path class="cls-7" d="M194.2,247.16a8,8,0,0,0,.43-3.7,9.4,9.4,0,0,0-4.89-6.81l-.81-.52-1.79,2.72,1.63,1,.73-1.17a6.76,6.76,0,0,1,3,7l-8.71-1.6-1.63,2.55,1.63,1,.92-1.46,9,1.65Z"/><path class="cls-7" d="M193.14,248.65a4.27,4.27,0,1,1-1.82-1.14,1.28,1.28,0,0,0-.49.43l-.81,1.28a2.37,2.37,0,0,0-2.14,3.39,2.36,2.36,0,1,0,4.25-2.06l.82-1.28A1.22,1.22,0,0,0,193.14,248.65Z"/><path class="cls-7" d="M192.57,249a.77.77,0,0,0-1.31-.82l-1.71,2.72a.77.77,0,0,0,1.31.81l1.71-2.71Z"/><path class="cls-23" d="M202.72,156.59h0Z"/></g></g></g></g></g></g></g></svg>