<svg xmlns="http://www.w3.org/2000/svg" viewBox="0 0 64 64"><defs><style>.cls-1{fill:#312783;}.cls-2{fill:#fff;}</style></defs><title>notre_societe</title><g id="Notre_société" data-name="Notre société"><g id="la_team_vely_velo" data-name="la team vely velo"><circle class="cls-1" cx="32" cy="32" r="31.6"/><path class="cls-2" d="M17.85,26.72c.45.32,1.78,1.25,4,2.79s3.93,2.73,5.12,3.56l.83.6c.42.31.77.55,1.05.74s.62.4,1,.64a6.55,6.55,0,0,0,1.12.53,3.37,3.37,0,0,0,1,.17h0a3.37,3.37,0,0,0,1-.17,6.55,6.55,0,0,0,1.12-.53c.4-.24.74-.45,1-.64s.63-.43,1-.74l.83-.6,9.15-6.35a9.2,9.2,0,0,0,2.38-2.4,5.16,5.16,0,0,0,1-2.95,3,3,0,0,0-.93-2.21,3,3,0,0,0-2.2-.92H17.62a2.78,2.78,0,0,0-2.32,1,3.94,3.94,0,0,0-.81,2.54,4.57,4.57,0,0,0,1.08,2.67,9.49,9.49,0,0,0,2.28,2.25Zm0,0"/><path class="cls-2" d="M47.55,28.82q-6.4,4.34-9.73,6.74c-.74.54-1.34,1-1.8,1.28a11.27,11.27,0,0,1-1.85.93,5.64,5.64,0,0,1-2.15.48h0a5.64,5.64,0,0,1-2.15-.48A11.27,11.27,0,0,1,28,36.84c-.46-.31-1.06-.74-1.8-1.28q-2.64-1.94-9.72-6.74a10.48,10.48,0,0,1-2-1.71V42.63a3.14,3.14,0,0,0,3.13,3.13H46.38a3.14,3.14,0,0,0,3.13-3.13V27.11a10.51,10.51,0,0,1-2,1.71Zm0,0"/></g></g></svg>