<svg xmlns="http://www.w3.org/2000/svg" xmlns:xlink="http://www.w3.org/1999/xlink" viewBox="0 0 344 270"><defs><style>.cls-1{fill:none;}.cls-2{fill:url(#Dégradé_sans_nom_2);}.cls-3{clip-path:url(#clip-path);}.cls-4{clip-path:url(#clip-path-2);}.cls-5{fill:#c5cfef;}.cls-6{fill:#e2e7f2;}.cls-7{fill:#fcf7fc;}.cls-8{fill:#273783;}.cls-9{fill:#1d1d1b;}.cls-10{fill:#b1c1e5;}.cls-11{fill:#8c97af;}</style><linearGradient id="Dégradé_sans_nom_2" x1="113.53" y1="21.92" x2="113.53" y2="260.82" gradientUnits="userSpaceOnUse"><stop offset="0" stop-color="#273783" stop-opacity="0.3"/><stop offset="1" stop-color="#273783"/></linearGradient><clipPath id="clip-path"><path class="cls-1" d="M213.41,259.74H13.64a9.62,9.62,0,0,1-9.59-9.59V50.37c0-5.27,4.31-45.55,9.59-45.55H213.41c5.28,0,130.26,40.28,130.26,45.55V250.15C343.67,255.42,218.69,259.74,213.41,259.74Z"/></clipPath><clipPath id="clip-path-2"><path class="cls-1" d="M320.49,228.57c-14.95-3.56-136.8-4.18-144,8.19A83.51,83.51,0,0,1,20.83,194.61C20.83,148.49-25.29,8,20.83,8,43,8,252.83-10.66,312.5,35.19,378.7,86,348.9,235.34,320.49,228.57Z"/></clipPath></defs><title>hp_offre</title><g id="Calque_2_-_copie_2" data-name="Calque 2 - copie 2"><rect class="cls-2" x="4.05" y="40.78" width="218.96" height="218.96" rx="12"/><g class="cls-3"><g class="cls-4"><g id="Calque_2" data-name="Calque 2"><g id="textes"><path class="cls-5" d="M139.09,325.62V198.3c0-19.07-9.84-36.17-24.6-42.59l-11.86-5.19a31.28,31.28,0,0,0-24.6-.37l-6.82,2.76c-15.3,6.17-25.61,23.47-25.61,43v32.33c0,17.45,8.27,33.32,21.26,40.84l72.23,41.83"/><path class="cls-6" d="M139.68,190.92a8.61,8.61,0,0,1,14.49-9.28C166,198.36,184.42,206.75,201.23,203c14-3.1,23.66-14.4,26.63-31a8.62,8.62,0,0,1,17,3c-4.2,23.43-19.1,40.16-39.86,44.77-23.62,5.24-49.08-5.86-64.87-28.28C139.94,191.35,139.81,191.14,139.68,190.92Z"/><path class="cls-7" d="M135,117.48A38,38,0,0,1,124,144a36.13,36.13,0,0,1-26,10.73,37.62,37.62,0,1,1,37-37.34Z"/><path class="cls-8" d="M98.44,155.84H98a1.09,1.09,0,0,1,0-2.17h.45A36.23,36.23,0,0,0,124,143.25a1.08,1.08,0,0,1,1.51,1.55A38.37,38.37,0,0,1,98.44,155.84Z"/><path class="cls-9" d="M114.81,129.83a13.4,13.4,0,0,0,15.08-6.55c.91-1.67-1.65-3.19-2.46-1.5A10.39,10.39,0,0,1,115.7,127a1.5,1.5,0,0,0-.79,2.88Z"/><path class="cls-8" d="M83.16,101.51c0-2.4.8-8.79-1.6-8-3.72,1.1-10.9,10.29-14.38,12-3.67,1.77-8.17,5.62-8.27,10,3.77-1.63,3.37,0,5.56,2.66a5.45,5.45,0,0,0,4.43,2.16A3.36,3.36,0,0,0,72,117a4.52,4.52,0,0,0,4.46,4.59,5.29,5.29,0,0,0,.8-.06,4.53,4.53,0,0,0,3-5.65,4.6,4.6,0,0,0-.25-.65,2.88,2.88,0,0,0,3.76-1.4,8.23,8.23,0,0,0,.57-4.41C84.35,108.42,83.16,103.4,83.16,101.51Z"/><ellipse class="cls-7" cx="65.89" cy="122.23" rx="7.73" ry="9.89" transform="translate(-33.81 25.57) rotate(-17.56)"/><polyline class="cls-7" points="121.03 118.12 128.56 112.63 116.48 101.44"/><path class="cls-9" d="M121,119.2a1.06,1.06,0,0,1-.88-.45,1.08,1.08,0,0,1,.24-1.51l6.46-4.71-11.11-10.3a1.08,1.08,0,1,1,1.47-1.59l13,12.09L121.67,119A1.06,1.06,0,0,1,121,119.2Z"/><path class="cls-7" d="M69,132.17c-4.06,1.28-8.71-1.9-10.36-7.11S59,114.57,63,113.3"/><path class="cls-9" d="M67.16,133.53c-4,0-8-3.26-9.55-8.15a12.11,12.11,0,0,1,.56-9.17,7.81,7.81,0,0,1,4.53-3.95,1.08,1.08,0,0,1,.64,2.07,5.56,5.56,0,0,0-3.25,2.88,9.92,9.92,0,0,0-.42,7.52c1.46,4.63,5.48,7.5,9,6.4a1.08,1.08,0,1,1,.65,2.07A7.26,7.26,0,0,1,67.16,133.53Z"/><path class="cls-6" d="M247,170.24c4.66-2.3,12,3.19,16.78-3.2,2.19-2.92-20.57-25.79-24.19-26.27a11.16,11.16,0,0,1-6.71,10.43,7.39,7.39,0,0,1,7.42,5.16l-11.89-6.23c-1.3-.67-3-1.33-4.15-.43-1.43,1.21-.34,3.53.8,5l7,9.11c-5.66.64-4.67,8.89.23,9.83C238.19,174.3,242.42,174.15,247,170.24Z"/><path class="cls-5" d="M128.51,187.94a3.71,3.71,0,0,0,2.26,0l-9-28.13c15.8-5,28.7,6.48,33.84,14.07,22.26,32.1,44.74,26,45,25.95l9,28.12c-1.75.56-43.28,13.12-78.31-37.39A10.08,10.08,0,0,0,128.51,187.94Z"/><path class="cls-8" d="M82.83,269.45h-.07a2.46,2.46,0,0,1-2.39-2.53l1.64-59a2.46,2.46,0,1,1,4.92.13l-1.64,59.05A2.46,2.46,0,0,1,82.83,269.45Z"/><path class="cls-8" d="M189.15,76.19c-2,0-3.68,2.78-1.59,4a39.44,39.44,0,0,0,10.69,3.56,30.81,30.81,0,0,0,10.13,1.46,1.64,1.64,0,0,0,1.39-1.87,1.61,1.61,0,0,0-.66-1.09,33.79,33.79,0,0,0-9.62-3.56A42,42,0,0,0,189.15,76.19Z"/><path class="cls-8" d="M211.12,61.55a63,63,0,0,0,6.21,10.85c1.57,2.06,4.45,0,3.69-2.23a60.67,60.67,0,0,0-5.33-10.51C214.1,56.86,209.69,58.62,211.12,61.55Z"/><path class="cls-8" d="M236.9,54a70.26,70.26,0,0,0-2.38,12.36,2,2,0,0,0,3.92,1,69.68,69.68,0,0,0,3.63-12C242.7,52.38,237.75,51.1,236.9,54Z"/><path class="cls-5" d="M10.88,70.7C9.23,56.19,27.36,46.41,36.42,53.82c-1.58-3.68-1.13-21.48,22.85-29.57,23.12-7.3,36.61,7.28,36.61,7.28s17.58-15.27,30.34-3.2c8.08,9.54-.3,27-18.35,24.92,4.69,8.77,14.34,30.2,14.89,32.58,0,0-35.8-2.17-65.26,29.12l-.29.16C54.16,104.85,50,94.21,44.35,85.05,42.17,85.73,16.42,95.09,10.88,70.7Z"/><path class="cls-10" d="M35.27,70.09A25.06,25.06,0,0,0,43.87,73l-8.6-2.92,3.36-7.76s-12-21.71,9.92-32.43c0,0-13.29,11.31-5.06,21.81s32.85,12.48,48.16,1.5c5.69-5.5,5.64-14,5.64-14L97,35.29S121.48,55,129.17,37.38c-1.67,10.11-7.23,18.88-21.3,15.87a86.23,86.23,0,0,0-9,4.49l2.13,17L94.22,60.18C86.75,64,77.59,68,68.53,68.72a23,23,0,0,0-6,6l16.1,23.31A94.15,94.15,0,0,0,57.5,115l-.29.16A134.24,134.24,0,0,0,46.3,88.37c-.41-1-.81-2-1.2-2.78l-.37.11c-.12-.21-.24-.44-.38-.65-2,.62-23.91,8.56-31.74-9.1q-.11-.45-.18-.9C18.65,85.21,32.45,77.1,35.27,70.09Z"/><path class="cls-8" d="M162.9,163.1l173.57,3.05-28.72-7.05s-6.47-48-62.43-52.64c-41.61-4.13-60.93,49.74-60.93,49.74Z"/><path class="cls-11" d="M231.35,110.64s-29.71,12.49-39.81,41.22c26.37,4.2,80-.14,80-.14l-26.7-40.06S241.38,107,231.35,110.64Z"/><path class="cls-6" d="M236.92,112.13s-24.58,7.73-33.39,22.7c11.31,2.77,45.95-10.41,45.95-10.41S243.51,110.89,236.92,112.13Z"/><polygon class="cls-8" points="242.29 109.52 237.54 98.65 248.69 97.39 246.86 109.5 242.29 109.52"/><path class="cls-9" d="M113,105.87h-.1a1.34,1.34,0,0,1-1.41-1.24,2.42,2.42,0,0,0-.82-1.68,2.46,2.46,0,0,0-1.78-.6,2.41,2.41,0,0,0-2.28,2.6c0,.12,0,.24.05.37a1.32,1.32,0,0,1-1,1.56,1.34,1.34,0,0,1-1.56-1,5.52,5.52,0,0,1-.1-.71,5.1,5.1,0,1,1,10.17-.68A1.34,1.34,0,0,1,113,105.87Z"/><path class="cls-9" d="M119.45,100.42h-.1a1.32,1.32,0,0,1-1.41-1.24A5.1,5.1,0,0,1,128,97.78a1.33,1.33,0,0,1-2.6.56,2.45,2.45,0,0,0-4.83.68A1.32,1.32,0,0,1,119.45,100.42Z"/></g></g></g></g></g></svg>