<svg xmlns="http://www.w3.org/2000/svg" xmlns:xlink="http://www.w3.org/1999/xlink" viewBox="0 0 280 270"><defs><style>.cls-1{fill:none;}.cls-2{fill:url(#Dégradé_sans_nom_345);}.cls-3{clip-path:url(#clip-path);}.cls-4{fill:#e4eeef;}.cls-5{fill:#abb7b7;}.cls-6{clip-path:url(#clip-path-2);}.cls-7{fill:#c5d3cd;}.cls-8{fill:#216868;}.cls-9{fill:#1d1d1b;}.cls-10{fill:#3b9e7d;}.cls-11{fill:#46b594;}.cls-12{fill:#649644;}.cls-13{fill:#5c8a3e;}.cls-14{fill:#b52e1f;}.cls-15{fill:#c9dca0;}.cls-16{fill:#bdcc1f;}.cls-17{fill:#a62a1c;}.cls-18{fill:#8cc876;}.cls-19{fill:#a9df90;}.cls-20{fill:#c5c2ac;}.cls-21{fill:#a09800;}.cls-22{fill:#e5ecfb;}.cls-23{fill:#fff;}.cls-24{fill:#ccdfa3;}.cls-25{fill:#c2dfb5;}.cls-26{fill:#c4584c;}.cls-27{fill:#212121;}</style><linearGradient id="Dégradé_sans_nom_345" x1="142.88" y1="21.12" x2="142.88" y2="260.02" gradientUnits="userSpaceOnUse"><stop offset="0" stop-color="#46b594" stop-opacity="0.3"/><stop offset="1" stop-color="#3d9e81"/></linearGradient><clipPath id="clip-path"><path class="cls-1" d="M242.77,258.94H43a9.62,9.62,0,0,1-9.59-9.59V49.57C33.4,44.3,37.72,24,43,24H242.77c5.27,0,9.59,20.3,9.59,25.57V249.35A9.62,9.62,0,0,1,242.77,258.94Z"/></clipPath><clipPath id="clip-path-2"><path class="cls-1" d="M181.41,106.08A79.49,79.49,0,0,1,188,83.45c3.32-7.43,7.91-14.64,14.82-19A8.29,8.29,0,0,1,206.93,63c2.71,0,5,2.36,5.72,5s.33,5.38-.16,8c-2.91,15.68-7,30.54-7.19,46.59-.25,18.18,10,35.27,10.35,53.56.37,17.24-1.06,38.91,6.31,54.93,2.13,4.64,16,21.5,16,26.59,0,5.74-5.41,10.37-9.39,14.5-9.85,10.25-30,7.26-41.7,15.24-2.82,1.92-6.59,3.78-9.41,1.87-1.57-1.07-2.27-3-2.93-4.77-5.09-13.78-11.17-23.66-23.53-31.27a92.78,92.78,0,0,1-30-30c-8.62-13.85-9.32-21.4-2-35.91a20.18,20.18,0,0,1,5.44-7.28c11.47-8.67,27.42-1.35,40.27-5.55,14.7-4.8,23.36-23.93,19.21-38.43A74,74,0,0,1,181.41,106.08Z"/></clipPath></defs><title>hp_offre</title><g id="Calque_2_-_copie_2" data-name="Calque 2 - copie 2"><rect class="cls-2" x="33.4" y="39.98" width="218.96" height="218.96" rx="12"/><g class="cls-3"><path class="cls-4" d="M213.32,76.46c.32-3.18-.23-6.91-2.36-8.69a5.24,5.24,0,0,0-6.89,0c-1.85,1.78-3.12,4.68-4.24,7.28a24.68,24.68,0,0,0-.93,3.18,2,2,0,0,0,.48,1.16c2,2.82,6.37,4.77,9.37,5.43C212,85.53,213,79.66,213.32,76.46Z"/><path class="cls-5" d="M102.78,102a12.18,12.18,0,0,0,5.08-6.78,13.55,13.55,0,0,0-3.71-13.06c-5.87-5.77-17-8-24.57-10.3-5.72-1.73-12.67-3.9-16.77,1.62-1.45,2-2.1,2.67-2.24,5.14a8.37,8.37,0,0,0,.58,4.12c2.55,6.93,12.93,13,19,16.22,5.58,2.94,11.73,6,17.76,5A12.67,12.67,0,0,0,102.78,102Z"/><g class="cls-6"><path class="cls-7" d="M181.41,106.08A79.49,79.49,0,0,1,188,83.45c3.32-7.43,7.91-14.64,14.82-19A8.29,8.29,0,0,1,206.93,63c2.71,0,5,2.36,5.72,5s.33,5.38-.16,8c-2.91,15.68-7,30.54-7.19,46.59-.25,18.18,10,35.27,10.35,53.56.37,17.24-1.06,38.91,6.31,54.93,2.13,4.64,17.68,25.76,17.72,30.86,0,5.73-16.29-6.1-20.26-2a205.47,205.47,0,0,1-32.53,27.44c-2.82,1.92-6.59,3.78-9.41,1.87-1.57-1.07-2.27-3-2.93-4.77-5.09-13.78-11.17-23.66-23.53-31.27a92.78,92.78,0,0,1-30-30c-8.62-13.85-9.32-21.4-2-35.91a20.18,20.18,0,0,1,5.44-7.28c11.47-8.67,27.42-1.35,40.27-5.55,14.7-4.8,23.36-23.93,19.21-38.43A74,74,0,0,1,181.41,106.08Z"/><path class="cls-5" d="M208.16,235.27l-95.48,17.88a3.57,3.57,0,0,1-4.17-2.85L73,60.55a3.57,3.57,0,0,1,2.86-4.16L171.3,38.51a3.56,3.56,0,0,1,4.17,2.85L211,231.11A3.57,3.57,0,0,1,208.16,235.27Z"/></g><path class="cls-8" d="M203.22,228.51l-95.48,17.88a3.58,3.58,0,0,1-4.17-2.85L68,53.79a3.58,3.58,0,0,1,2.85-4.17l95.48-17.88a3.57,3.57,0,0,1,4.17,2.85l35.54,189.75A3.58,3.58,0,0,1,203.22,228.51Z"/><path class="cls-9" d="M158.61,224.07a5.54,5.54,0,1,1-6.47-4.42A5.54,5.54,0,0,1,158.61,224.07Z"/><path class="cls-10" d="M116.06,129.3A214.83,214.83,0,0,1,80.69,63.72l-2.54.48L107.88,223l86.72-16.24-.59-3.17C163.3,185.89,137.52,156.93,116.06,129.3Z"/><path class="cls-11" d="M191,187.61,164.87,48,96.19,60.82C112.44,111.72,149.08,153.34,191,187.61Z"/><path class="cls-11" d="M96.19,60.82l-15.5,2.9a214.83,214.83,0,0,0,35.37,65.58c21.46,27.63,47.24,56.59,77.95,74.26l-3-15.95C149.08,153.34,112.44,111.72,96.19,60.82Z"/><rect class="cls-9" x="101.6" y="45.26" width="36.64" height="4.7" transform="translate(-6.71 22.89) rotate(-10.61)"/><path class="cls-12" d="M120.44,153.3c.74.13,1.49.23,2.24.33a24.28,24.28,0,0,1,7.88.34l1.23-.1a2.47,2.47,0,0,0,.69-2.81,4.2,4.2,0,0,0-2.18-2.53,14.73,14.73,0,0,0-1-1.9,2.32,2.32,0,0,0-3.16-.75,2.53,2.53,0,0,0-1-.19,2.8,2.8,0,0,0-1.9-1.18c-.07-.24-.15-.49-.23-.74a2.14,2.14,0,0,0-2.32-1.59,2.54,2.54,0,0,0-1.73-.85,2.68,2.68,0,0,0-2.67-.83l-.27-.75a2.36,2.36,0,0,0-1.56-1.38l0-.37a2.21,2.21,0,0,0-1.64-1.9c0-.25-.1-.5-.16-.74a2.24,2.24,0,0,0-1.8-1.91,2.16,2.16,0,0,0-2.33,1.25c-.17.53-.31,1.07-.43,1.61a2,2,0,0,0-.2.65c0,.36-.07.71-.1,1.07a.28.28,0,0,1,0,.09h0a1.9,1.9,0,0,0-1.67-.47.75.75,0,0,0-.07-.12,1.72,1.72,0,0,0-3,.58c-.1-.21-.19-.43-.29-.64a.75.75,0,0,0-1.4.55c.46,1.87.9,3.74,1.35,5.61a2.32,2.32,0,0,1,.76.63A21.84,21.84,0,0,0,106,147a1.77,1.77,0,0,0,.16-.22,1.73,1.73,0,0,0,.3.16,1.9,1.9,0,0,0,1.58,1.08,2.58,2.58,0,0,0,.25.74c.58.39,1.18.75,1.79,1.09a2,2,0,0,0,.42,0,2.31,2.31,0,0,0,2.52.56,2.34,2.34,0,0,0,1.45,1.1,1.82,1.82,0,0,0,.41.42c.43.14.86.28,1.3.4a3.1,3.1,0,0,0,1.66-.55,3.12,3.12,0,0,0,.8.14,2.33,2.33,0,0,0,1,.41A2.37,2.37,0,0,0,120.44,153.3Z"/><path class="cls-12" d="M174.28,129.86c2.85-2.71,1.64-6.21.36-9.45-.11-.29-.24-.59-.36-.89a1.93,1.93,0,0,1-2.27-1.81c-.13-2-1.1-3.82-1.89-5.67a2.27,2.27,0,0,1-1.23-.12,10.54,10.54,0,0,0-1.85-.54c0,.11-.06.25-.08.34s0,0,0,0c0,.18,0,.14,0,0a2.25,2.25,0,0,1-3.38,1.36,3.46,3.46,0,0,0-.9.89,3.13,3.13,0,0,0-1.89-.69,17.79,17.79,0,0,0-3.81-1.17,6.38,6.38,0,0,0-1.51,0,7.81,7.81,0,0,0-4.17-1.48,2.94,2.94,0,0,0-3,1.6c-.07.14-.13.28-.18.41a3.48,3.48,0,0,0-.69.29l-.13,0a3.91,3.91,0,0,0-.92-1,3.43,3.43,0,0,0-1.3-.6c0-.23-.05-.45-.09-.68a2.75,2.75,0,0,0-4.78-1.42,2.33,2.33,0,0,0-1.48,1.2,2.17,2.17,0,0,0-2.15-1.66,1.39,1.39,0,0,0-2.11,0,7.06,7.06,0,0,0-1.1,2,2.34,2.34,0,0,0-1.52-.3,8.55,8.55,0,0,0-1.93-5.07,2.72,2.72,0,0,0-.61-.57,2.07,2.07,0,0,1-1.49.42l-1.67-.2a2.13,2.13,0,0,0-.26.26c-.05,0-.09.1-.14.15a2.32,2.32,0,0,1-1.37,1.62c-.11.14-.22.27-.34.4l0,0c0-.09-.08-.18-.13-.27a1.86,1.86,0,0,1-1.8-.88c-.36-.51-2.06-.07-2.52.19a2.9,2.9,0,0,1-.58.25,3.55,3.55,0,0,1-.34,1.6,2.26,2.26,0,0,1-.47.64c0,.08,0,.15,0,.22a2.12,2.12,0,1,1-4.21.44,14.56,14.56,0,0,1,0-1.75c-1.88-1-4.56.52-3.57,3,0,.07.06.16.09.24s-.14.25-.2.38a1.27,1.27,0,0,0-.33.24,3.08,3.08,0,0,0-.49-.34,3.16,3.16,0,0,0-3.18.23,3.5,3.5,0,0,0-.88.83,1.88,1.88,0,0,0-1.71,1.75,8.85,8.85,0,0,0,.15,3,1.35,1.35,0,0,1-.41.06,1.81,1.81,0,0,0-.93,3.17c.78.57,1.54,1.15,2.31,1.73a1.84,1.84,0,0,0,1.33.39,6.67,6.67,0,0,0,4.36,3,2,2,0,0,0,2.34-2.21c-.16-1.13-.3-2.25-.45-3.37a1.73,1.73,0,0,0,.2-.68,15.13,15.13,0,0,1,.14-1.51,2.56,2.56,0,0,0,3.1-.61,5.18,5.18,0,0,0,1.86-.81,2.5,2.5,0,0,0,3.14,0,2.52,2.52,0,0,0,2.66-.08,3.27,3.27,0,0,0,.65-.26,2.24,2.24,0,0,0,.73,0,2.56,2.56,0,0,0,1.92-.31,6.65,6.65,0,0,0-.94,3.59,2.43,2.43,0,0,0,2.63,2.12,5.85,5.85,0,0,0,.72-.07,2.48,2.48,0,0,0,1.22-.22c.12.08.24.16.37.23a3.08,3.08,0,0,0,1.84.42,2.65,2.65,0,0,0,3.19-.55c.56-.66,1.09-1.36,1.59-2.08a2.83,2.83,0,0,0,1.16,0,3.07,3.07,0,0,0,2.53.77,2.77,2.77,0,0,0,1.49,1.47,2.92,2.92,0,0,0,2.46,1.56,2.7,2.7,0,0,0,2.34-1.19,3.12,3.12,0,0,0,4.2.79,2.89,2.89,0,0,0,1.49-.08A2.53,2.53,0,0,0,155.4,124a2.72,2.72,0,0,0,4-1.73,3.48,3.48,0,0,0,1.66-.52,3.36,3.36,0,0,0,1.23.17,3,3,0,0,0,3.83-.15l.25,0A2.89,2.89,0,0,0,167.7,124a3.1,3.1,0,0,0,1.77,2.87l.09,1a2.65,2.65,0,0,0,.56,1.39,15.14,15.14,0,0,0-4.21,1.57c-.43.23-.85.48-1.25.74a2.75,2.75,0,0,0-3.66.56l-.42,0c-.94-1.42-3.46-1.83-4.48-.26a3.69,3.69,0,0,0-.53,3.27v.11a2.68,2.68,0,0,0,.26,1.08,2.74,2.74,0,0,0-3,1.51c-.14.36-.28.72-.41,1.08a2.36,2.36,0,0,0-4.36.59,2.46,2.46,0,0,0-.66-.81,2.32,2.32,0,0,0-3.87-.58,17.4,17.4,0,0,0-2.8,6.43,7.77,7.77,0,0,0-.27,2l0,.65a2.59,2.59,0,0,0,0,.56c-.1.1-.19.21-.29.33a1.74,1.74,0,0,0-3.12.7A8.5,8.5,0,0,0,137,150a3.9,3.9,0,0,1-.19.69c-1.65-.52-2.75,1.49-1.94,2.88l0,.07,6.54-.37c.23-.35.47-.7.71-1a2.35,2.35,0,0,0,3,.44,2,2,0,0,0,2.47-1.22c0-.09.05-.18.08-.27a2.71,2.71,0,0,0,3.19-.57,2.73,2.73,0,0,0,3.61-1.08,2.64,2.64,0,0,0,.78.25,2.7,2.7,0,0,0,1.89-.4,2.48,2.48,0,0,0,1.83-.6,2.81,2.81,0,0,0,4-2c.1-.38.19-.76.26-1.14a2.29,2.29,0,0,0,.59-.33,2.66,2.66,0,0,0,3.54-2.15c0-.29.1-.57.14-.86a2.74,2.74,0,0,0,.75-.08,3,3,0,0,0,3.06-1.65c.28-.49.58-1,.89-1.45a2.65,2.65,0,0,0,2.54-1.66l.47-1.5a10.6,10.6,0,0,0,.58-1.4,4.75,4.75,0,0,0,0-2.72A4.11,4.11,0,0,0,174.28,129.86Z"/><path class="cls-12" d="M137.39,128.56c-1.88-1.37-3.34-.32-4.44,1.15a2.42,2.42,0,0,0-1.89-.11,3,3,0,0,0-.88.52h0a2.9,2.9,0,0,0-2.24-.2,3,3,0,0,0-1.61,1.15,2.17,2.17,0,0,0-.89.84,2.41,2.41,0,0,0-.18-.43,9.19,9.19,0,0,0-.37-1.28,1.85,1.85,0,0,0-3.12-.48,5.42,5.42,0,0,0-.93,5.67,2,2,0,0,0,1.58,1.26,4.58,4.58,0,0,0,1,1.64l-.36.45c-1.08,1.35,0,3.85,1.9,3.48a9.85,9.85,0,0,0,2.31-.45l.23-.05a3,3,0,0,0,2.79.57,4.19,4.19,0,0,0,2-1.47,2,2,0,0,0,2.19-1.22,5.1,5.1,0,0,0,.29-2.84,2.1,2.1,0,0,0,.61-.09,2.18,2.18,0,0,0,4-.64C139.9,133.7,139.48,130.1,137.39,128.56Z"/><path class="cls-13" d="M121.46,152.62a1,1,0,0,0,1.17-.82l0-.33a3.66,3.66,0,0,0,.36-1.22,5.48,5.48,0,0,0,0-.91l0,0a5.58,5.58,0,0,1,.56,1.59,1.28,1.28,0,0,1,0,.7c0,.15-.49.63-.12.29a.9.9,0,0,0-.18,1.22,1.32,1.32,0,0,0,.29.33,17.55,17.55,0,0,1,2.17-.07,1.79,1.79,0,0,0,.28-.27,2,2,0,0,0,.48-1.33,1.82,1.82,0,0,0,.11-.28,2.34,2.34,0,0,0-.22-1.59,1.92,1.92,0,0,1,1.06.33,4.08,4.08,0,0,1,.86,1l-.13.34a.5.5,0,0,0,.24.64.49.49,0,0,0,.64-.25l.19-.5,0,0c.75-.84,0-2.15-.7-2.76a3.09,3.09,0,0,0-3.13-.69.92.92,0,0,0-.3.18,19.69,19.69,0,0,1-1.4-1.61.12.12,0,0,0-.21.12c.07.17.13.34.19.52l-.47-.34a3.43,3.43,0,0,0-.9-.39,6.2,6.2,0,0,0-1.84-2.44l-.09-.06a3.77,3.77,0,0,0-.64-.39.37.37,0,0,0-.51.35.94.94,0,0,0-.12.09A4.48,4.48,0,0,0,118,145.8a5.47,5.47,0,0,0-2.27-3.29.19.19,0,0,0-.25.05,7.79,7.79,0,0,0-.85-1.27.12.12,0,0,0-.21.08c0,1,0,2.08,0,3.12a11.58,11.58,0,0,0-.66-1.63,17.75,17.75,0,0,0-1.25-4.81c-.17-.41-.75-2.21-1.46-2.08-.23.05-.3,0-.3.31,0,0,0,0,0,0l.11,0s.07,0,0-.07c.15.09.26.61.34,1.15a3,3,0,0,0-.58-1.14.29.29,0,0,0-.41-.07,4,4,0,0,0-1.27,3.08.13.13,0,0,0-.12,0,5.65,5.65,0,0,0-1.73,4.4,4.68,4.68,0,0,1-.3-.54c-.3-.64-1.12-4.28.55-3.35.1,0,.21-.1.14-.19a1.89,1.89,0,0,0-1.93-.65,2.48,2.48,0,0,0-1.69,2.32,5.58,5.58,0,0,1-.15-1.22c0-.25.18-2.15.77-1.9a.13.13,0,0,0,.18-.17,1.07,1.07,0,0,0-1.45-.49l-.15.09a2.48,2.48,0,0,0-3.43.92,1.6,1.6,0,0,1,.63.89c.3,1.21.63,2.42,1,3.62a1.9,1.9,0,0,1,.57.36,2.11,2.11,0,0,1,1.46.84,21.47,21.47,0,0,0,4,3.85,5.42,5.42,0,0,0,.7.29,1.57,1.57,0,0,0,1,0,3.33,3.33,0,0,0,2.07.69.76.76,0,0,0,.61-.43l.1.09a1,1,0,0,0,.28.16,5.38,5.38,0,0,1-.4.84,1.25,1.25,0,0,0-.18.92c.75.35,1.53.68,2.32,1l.12-.05a2.26,2.26,0,0,0,.89-.9,1.93,1.93,0,0,0,.56-.18.92.92,0,0,0,.59.18,1.78,1.78,0,0,0,.53-.11,2.21,2.21,0,0,0,.62.13.94.94,0,0,0,.5.73,2.15,2.15,0,0,0,1.13.26,2,2,0,0,0,2.17,1.11A2.33,2.33,0,0,0,121.46,152.62Zm-19.28-13.48-.06.09h0a3.87,3.87,0,0,0-.43,1.58,2.26,2.26,0,0,1,.73-2.3A6.62,6.62,0,0,0,102.18,139.14Zm10,3.84a11.58,11.58,0,0,1-.33-1.32c-.14-.68-.17-1.55-.25-2.41.17.81.33,1.62.44,2.44C112.13,142.12,112.17,142.55,112.21,143Z"/><path class="cls-13" d="M171.44,131.62a1.73,1.73,0,0,0-2.71-.06,12.32,12.32,0,0,0-1.08,1.52,1.62,1.62,0,0,0-2.36.16l-.18.3a3.37,3.37,0,0,0-1.11.7,2,2,0,0,0-2.69-.88,3.41,3.41,0,0,0-1.64,2.19.88.88,0,0,0-1.2.65,31.41,31.41,0,0,0-1,5.05c-.09-.32-.18-.64-.3-.95a.19.19,0,0,0-.36,0l0,.25q-.19-.37-.42-.75a1,1,0,0,0-1.09-.49,1.35,1.35,0,0,0-2.44.48l0,.14a1.44,1.44,0,0,0-.39.79s0,.08,0,.13a1.3,1.3,0,0,0-2.57-.1,13.57,13.57,0,0,0,.14,5.88c.09.36.21.79.36,1.25h0a3.22,3.22,0,0,1-.31-.68,14.86,14.86,0,0,1-.63-2,17.9,17.9,0,0,1-.49-4.32.8.8,0,0,0-1-.75v-.37c0-1.34-2-1.25-2.26-.06l-.06.31a1.16,1.16,0,0,0-2.1.46,20.82,20.82,0,0,0-.58,3.85.76.76,0,0,0-.37.71,7.62,7.62,0,0,1,0,1.26c0,.2-.07.4-.09.6a8,8,0,0,1-.46,1.56,6,6,0,0,0,.13-.61.84.84,0,0,0-1.47-.66c-1.51,1.54-2.89,3.16-4.38,4.71a1.2,1.2,0,0,0,0,1.67l2.55-.14.47-.41a1.12,1.12,0,0,0,.29.36l1.56-.09a7.93,7.93,0,0,0,2.18-2.18,3.92,3.92,0,0,0,.44,1,.46.46,0,0,0,.82-.19,4.34,4.34,0,0,0,0-.51,2.31,2.31,0,0,0,.83-.15,1.73,1.73,0,0,0,1-.4,1,1,0,0,0,.34-.5,1.55,1.55,0,0,0,.29-.14c.12.19.25.38.38.55a1.43,1.43,0,0,0,2.44-.15,1.64,1.64,0,0,0,1.47-.87,2,2,0,0,0,1.78.91,1.4,1.4,0,0,0,.8-.28,2.81,2.81,0,0,0,2.12-1.31h.24a1.11,1.11,0,0,0,1.47.56,1.89,1.89,0,0,0,1.16-1.77h0a2.52,2.52,0,0,0,1.26-.6,2,2,0,0,0,.84.08.76.76,0,0,0,1.27-.4c0-.13,0-.25.06-.38a2.57,2.57,0,0,0,.34-.54c.08.21.17.42.26.63a1.59,1.59,0,0,0,.6.72,4.64,4.64,0,0,1,2.49-1.26l.08,0a17,17,0,0,0,.21-2.26,1.62,1.62,0,0,0,.94-.79,1.77,1.77,0,0,0,2.42-1.34,10.82,10.82,0,0,0,0-4.09l.09-.4v.39a1.79,1.79,0,1,0,3.56.1A12.49,12.49,0,0,0,171.44,131.62Z"/><path class="cls-13" d="M173,119.3a1.83,1.83,0,0,1-1-1.59s0-.11,0-.16a1.69,1.69,0,0,0-1.51-.5v0c-.3-1.18-.81-2.72-2.23-2.86a1.61,1.61,0,0,0-.69.09,7.16,7.16,0,0,0-.4-.78,1.09,1.09,0,0,0-.92-.57,2.44,2.44,0,0,1-1.35.55c-.29.27-.56.56-.82.85a8.91,8.91,0,0,0-.57-1,1,1,0,0,0-1.64.18,14.58,14.58,0,0,1-1,1.69,1.08,1.08,0,0,0-1.26-.09,3.66,3.66,0,0,0-1.28,1.31,10.11,10.11,0,0,0-.74-1.84.21.21,0,0,0-.41.1c0,.67,0,1.34,0,2-.09-1.07-.19-2.15-.28-3.22-.17-1.88-3-1.55-2.89.3l.12,2.66a17.36,17.36,0,0,0-1.06-2,1.31,1.31,0,0,0-.58-.89l-.38-.52c-.42-.57-1.43-.11-1.22.55a1.25,1.25,0,0,0-.55.92c-.11-.52-.21-1-.29-1.55-.28-1.67-2.85-1.43-2.64.29.35,3,.33,6.36,1.87,9a.8.8,0,0,0,1.36,0,1.67,1.67,0,0,0,.28.18,1.33,1.33,0,0,0,1.39-.11l.05.09c.21.88,1.39,1.5,2.09,1a1.75,1.75,0,0,0,1.13.66,1.54,1.54,0,0,0,.84-.1A1.37,1.37,0,0,0,159,123v-.31a1.62,1.62,0,0,0,3-.47,1.71,1.71,0,0,0,3-.17,1.86,1.86,0,0,0,3-.05c0,.5,0,1,0,1.5h0a1.73,1.73,0,0,0,3,.86c.15,2.11.05,4.23.25,6.34a1.66,1.66,0,0,0,3.27.09,21.63,21.63,0,0,0-.42-6.85A26.63,26.63,0,0,0,173,119.3Zm-13.6-1.66a11.36,11.36,0,0,0-.54,1.77c0-.3-.06-.61-.1-.92a10.35,10.35,0,0,1,.64-1.91C159.4,116.91,159.4,117.26,159.39,117.64Zm2.73-.31c-.08.22-.16.43-.23.65a10.51,10.51,0,0,0-.21-1.19,3.51,3.51,0,0,1,.35-.9C162.07,116.37,162.11,116.85,162.12,117.33Z"/><path class="cls-13" d="M122.57,107.57a.23.23,0,0,0-.45,0,17,17,0,0,1-.8,3.22l0-1.15a1.36,1.36,0,0,0-1.09-1.51,1.38,1.38,0,0,0-1.24.48c0-.12,0-.24,0-.36a.9.9,0,0,0-.16-.53,3,3,0,0,1-.22.63,2.47,2.47,0,0,1-.47.65c0,.07,0,.14,0,.21a2.16,2.16,0,0,1-1.88,2.33l-.21,0a.83.83,0,0,1,0,.15,5.88,5.88,0,0,0-.38,2.55,1.74,1.74,0,0,0-1.17,0,5,5,0,0,0,.1-1.39.22.22,0,0,0-.43,0,4.71,4.71,0,0,1-.4,1.2c0-.23-.08-.46-.13-.69a1.29,1.29,0,0,0-2.56.15,19.77,19.77,0,0,0-.23,2.05,10,10,0,0,1,0-1.22,1.56,1.56,0,0,0-.35-1.19c0-.36-.08-.72-.11-1.09a.16.16,0,0,0-.32,0q0,.35,0,.69a1.67,1.67,0,0,0-1.27-.2,1,1,0,0,0-.74.45,1.54,1.54,0,0,0-.33.79v0c0-.11-.09-.22-.14-.33a.3.3,0,0,0-.54,0,9.09,9.09,0,0,0-.83,3l-.18.9c-.06-.8-.07-1.6-.07-2.4s-1.19-.74-1.36,0c-.48,2-1.5,5.54.29,7.28,1.27,1.23,3.82.35,3.61-1.55h0a4.81,4.81,0,0,0,.73,1,1.68,1.68,0,0,0,2.34.25,1.81,1.81,0,0,0,2.54-1.27c0-.14,0-.28.06-.42a1.3,1.3,0,0,0,.89,0h0l0,0a1.16,1.16,0,0,0,.43-.3,2.68,2.68,0,0,0,.74-1.86q.1-1.16.3-2.31a1.91,1.91,0,0,0,0-.41,1,1,0,0,0,.65-.14,3.48,3.48,0,0,0,1.47-2.2,2.25,2.25,0,0,0,.39.64.9.9,0,0,0,1.24.18l0,0a2.25,2.25,0,0,0,0,.26.59.59,0,0,0,.92.41,3.21,3.21,0,0,0,.73-.94s0,.11.07.15c.26.54,1.2.41,1.08-.26a5.76,5.76,0,0,0-.59-1.64A17.54,17.54,0,0,0,122.57,107.57Z"/><path class="cls-12" d="M140.91,153.33c0-.49-.06-1,0-1.46a9,9,0,0,1,.43-1.7c.21-.8-.79-1.21-1.37-.84a3.73,3.73,0,0,0-1.29,4.13Z"/><path class="cls-12" d="M143.78,144.83a5.43,5.43,0,0,0-.44,5.3c.23.49,1.09.36,1-.24a13.52,13.52,0,0,1-.16-4.95C144.21,144.7,143.89,144.64,143.78,144.83Z"/><path class="cls-12" d="M148.42,150.51c-.41-1.57-1.37-2.9-1.66-4.52a22.21,22.21,0,0,1-.07-4.89.21.21,0,0,0-.36-.16c-2.31,2.52-2.22,8.53.86,10.47A.79.79,0,0,0,148.42,150.51Z"/><path class="cls-12" d="M150.84,148.17a33.83,33.83,0,0,1-1.67-6.34.24.24,0,0,0-.48,0,17.9,17.9,0,0,0,1.75,6.45A.22.22,0,0,0,150.84,148.17Z"/><path class="cls-12" d="M154.75,144.53a44.08,44.08,0,0,0-1.14-5.12c-.08-.28-.48-.15-.47.11.08,1.71.09,3.45.12,5.17,0,1.46-.4,3.42.32,4.72a.71.71,0,0,0,1.29,0C155.59,148,155,146,154.75,144.53Z"/><path class="cls-12" d="M156.76,142.21c-.07-.24-.49-.14-.44.11a24.37,24.37,0,0,1,.16,5.33c0,.39.55.33.64,0A9.79,9.79,0,0,0,156.76,142.21Z"/><path class="cls-12" d="M158.32,143.31a19.06,19.06,0,0,0-.63,4.22c0,.47.66.41.77,0a18.12,18.12,0,0,0,.33-4.17A.24.24,0,0,0,158.32,143.31Z"/><path class="cls-12" d="M160.24,139a.27.27,0,0,0-.52.13,16.55,16.55,0,0,1,.06,4.61.34.34,0,0,0,.67.11A8.28,8.28,0,0,0,160.24,139Z"/><path class="cls-12" d="M165.79,135.85a.3.3,0,0,0-.51.29,6.91,6.91,0,0,1,.53,3.11c0-.12,0-.25-.07-.38-.3-1.33-1.21-4-3.07-3.39-.26.08-.15.45.1.44,1.42-.07,1.28,3.17,1.21,4a5,5,0,0,1-.84,2.35,13.7,13.7,0,0,0,0-1.84,11.89,11.89,0,0,0-1.81-5.32c-.16-.25-.55,0-.45.25a10.81,10.81,0,0,1,.83,5.27c-.16,1.6-1,3-1.19,4.53a.86.86,0,0,0,1.51.68,3.86,3.86,0,0,0,.79-1.4.8.8,0,0,0,1,.15,3.75,3.75,0,0,0,1.8-2,.82.82,0,0,0,1.05-.09C168.25,140.69,167.09,137.45,165.79,135.85Z"/><path class="cls-12" d="M171,133.76a.32.32,0,0,0-.6.23,18.24,18.24,0,0,1,.86,4.85c0,.76,1.22.64,1.18-.12A11.22,11.22,0,0,0,171,133.76Z"/><path class="cls-12" d="M109.19,145.86a.56.56,0,0,0,.26-.82c-.49-.7-1-1.35-1.57-2s-.85-1.45-1.38-2.09a.25.25,0,0,0-.43.11A5.16,5.16,0,0,0,107.7,145C108.19,145.28,108.69,145.58,109.19,145.86Z"/><path class="cls-12" d="M107,138.94c-.26-.14-.43.28-.18.42,2.86,1.55,4.37,4.07,6.2,6.62.43.6,1.48,0,1.15-.66C112.74,142.35,109.76,140.45,107,138.94Z"/><path class="cls-12" d="M110.43,140.13c-.13-.15-.46-.08-.41.16.23,1.07.59,2.11.77,3.19s.14,2.23.26,3.34a.68.68,0,0,0,1.35,0A9.23,9.23,0,0,0,110.43,140.13Z"/><path class="cls-12" d="M113.64,141.71c-.14-.24-.52,0-.42.24.89,2.35,1.14,4.78,1.84,7.16.24.83,1.53.47,1.45-.35C116.24,146.31,114.86,143.82,113.64,141.71Z"/><path class="cls-12" d="M118.94,149c-.73-2.52-1.59-5-2.43-7.49-.09-.27-.55-.17-.49.12.55,2.62,1.07,5.24,1.74,7.84C118,150.19,119.16,149.74,118.94,149Z"/><path class="cls-12" d="M124.38,148.88,122.67,145c-.55-1.26-2.53-.5-2,.78l1.63,3.93C122.86,151,125,150.2,124.38,148.88Z"/><path class="cls-12" d="M129.73,112.45c-.22-.13-.55.16-.42.39.55,1,1.27,1.84,1.75,2.9.12.27.24.54.35.82a1.14,1.14,0,0,0-.71-.27,1.1,1.1,0,0,0-1.14.93c0,.84-.06,1.67,0,2.51a1.09,1.09,0,0,0,2.15.06c.07-.75.1-1.5.12-2.25.16.48.32,1,.44,1.46.19.74,1.46.43,1.32-.33C133.11,116.36,131.87,113.67,129.73,112.45Z"/><path class="cls-12" d="M137.58,112.58c-.22-1.07-1.92-.88-1.69.18s.45,2,.67,3.07,1.84.87,1.63-.17S137.78,113.6,137.58,112.58Z"/><path class="cls-12" d="M140.8,112.86a.9.9,0,0,0-1.79.19,27.67,27.67,0,0,0,.8,5.13.68.68,0,0,0,1.29-.14A28.1,28.1,0,0,0,140.8,112.86Z"/><path class="cls-12" d="M142.72,113.21c-.1-.29-.6-.18-.54.14a35,35,0,0,1,.57,5.59c0,.79,1.3.67,1.23-.13A24.54,24.54,0,0,0,142.72,113.21Z"/><path class="cls-12" d="M147.21,113.49c-.45-1.21-2.25-.48-1.85.73a22,22,0,0,1,.79,3.42c.16.88,1.58,1,1.68,0A9.1,9.1,0,0,0,147.21,113.49Z"/><path class="cls-12" d="M151,118.06c-.13-.72-.25-1.44-.37-2.16a.35.35,0,0,0-.7.08c0,.73.06,1.46.1,2.19a7,7,0,0,0,.19,2,.53.53,0,0,0,1-.11A7.59,7.59,0,0,0,151,118.06Z"/><path class="cls-12" d="M154.1,114.59c-.12-1.37-2.15-1.12-2.11.23s.09,2.58.13,3.88a11.25,11.25,0,0,0,.38,3.57,1.06,1.06,0,0,0,2-.21,11.23,11.23,0,0,0-.08-3.61Z"/><path class="cls-12" d="M155.89,115.57c-.17-.31-.76-.26-.67.17a12,12,0,0,1,.25,2.74,5.37,5.37,0,0,0,.11,2.46.73.73,0,0,0,1.24.19C157.82,119.5,156.71,117.09,155.89,115.57Z"/><path class="cls-12" d="M160.28,115.47c-.55-1.57-2.9-.62-2.4,1a20.15,20.15,0,0,1,.58,2.8c.14.84.66,1.87,1.69,1.56C162,120.21,160.7,116.66,160.28,115.47Z"/><path class="cls-12" d="M168.23,119.9c-.2-1.3-.27-3.77-1.36-4.7s-2.38-.14-3.46,1l0-.07a1.17,1.17,0,0,0-2.32.24c.08,1.12.14,2.24.26,3.36.16,1.46,2.59,1.64,2.68.07a4.23,4.23,0,0,1,.27-1.45c.2-.47.73-.79.91-1.18l.13,0v.11a17.72,17.72,0,0,0,.19,1.77c.16,1.8-.35,4.31.82,5.79a1,1,0,0,0,1.55,0C169,123.42,168.48,121.52,168.23,119.9Z"/><path class="cls-12" d="M170.4,121l.09,3.76c0,1.48,2.33,1.23,2.29-.25,0-1.25-.05-2.5-.08-3.76C172.66,119.3,170.37,119.55,170.4,121Z"/><path class="cls-12" d="M121.7,110.41c-.3,1.31-.66,2.6-1.06,3.89a10.66,10.66,0,0,0-.7,3c0,.83,1.13.81,1.46.23,1.11-2,.89-4.94.92-7.15C122.32,110.06,121.78,110.09,121.7,110.41Z"/><path class="cls-12" d="M118.16,109c0,.07,0,.14,0,.21a2.16,2.16,0,0,1-1.88,2.33h-.16a42.47,42.47,0,0,0-.78,4.69,1.06,1.06,0,0,0,2,.61,19.36,19.36,0,0,0,1.42-6.65A1.2,1.2,0,0,0,118.16,109Z"/><path class="cls-12" d="M113,114.25c0,1.82,0,3.63-.2,5.45a11,11,0,0,0,0,4.16.62.62,0,0,0,1.13,0,10.22,10.22,0,0,0,.11-4.44c-.17-1.76-.37-3.51-.53-5.26C113.56,113.82,113,113.89,113,114.25Z"/><path class="cls-12" d="M107.14,117.93a57.1,57.1,0,0,0-.28,6.4c0,.7,1.22.75,1.25,0a57.43,57.43,0,0,0-.36-6.42C107.73,117.61,107.16,117.58,107.14,117.93Z"/><path class="cls-13" d="M140.19,133.66a12.05,12.05,0,0,0-.62-1.58,13.55,13.55,0,0,1-.71-1.49,1.09,1.09,0,0,0-2,.79c0,.1.08.2.11.29a.19.19,0,0,0,0,.07.28.28,0,0,1,0,.09l-.38-.45-1.45-1.69a1.09,1.09,0,0,0-1.89.4,1,1,0,0,0-1.6.93l.18,1.9-.6-.79a12.33,12.33,0,0,0-.08-1.26,1,1,0,0,0-1.92.2,2.81,2.81,0,0,1,0,.29,1,1,0,0,0-.27,1.57l.21.27c-.05.37-.11.74-.19,1.11-.19-.86-.4-1.72-.61-2.58-.07-.29-.49-.12-.42.16.13.55.24,1.1.33,1.66-.26-.44-.53-.88-.78-1.32a1.12,1.12,0,0,0-1.67-.4c-.3-.73-1.43-.25-1.21.53.17.56.31,1.13.44,1.69a.85.85,0,0,0-.2.69,7.44,7.44,0,0,0-.81-2,.25.25,0,0,0-.42,0,3.58,3.58,0,0,0-.11.35,11.63,11.63,0,0,0-1-1.37.65.65,0,0,0-1,.77,13.07,13.07,0,0,1,1.11,2l.07.52a.51.51,0,0,0,.33.43c.15.36.3.73.46,1.09a.46.46,0,0,0,.45.3c.12.28.25.56.38.81a.83.83,0,0,0,.13.18,1.53,1.53,0,0,0-.13.57,9.85,9.85,0,0,0,.15,3.07,1,1,0,0,0,1.76,0,7.5,7.5,0,0,0,.22-2.55.59.59,0,0,0,.14.06l.12.6a.61.61,0,0,0,1.14.16.55.55,0,0,0,.17,0,4.51,4.51,0,0,0,.88-.62.34.34,0,0,0,.27.1.45.45,0,0,0,.16,0,7,7,0,0,0,.36,2.09.54.54,0,0,0,1-.11,8.44,8.44,0,0,0-.12-2.35l-.07-.55.21.76c.15.48.91.19.73-.28a12.44,12.44,0,0,1-.74-2.8c0-.17.1-.36.14-.54.13.2.25.41.38.63a.47.47,0,0,0,.21.34,11.5,11.5,0,0,0,.4,1.42.83.83,0,0,0,.48.53c0,.24.08.49.13.73a.54.54,0,0,0,1.07-.11c0-.32,0-.65-.05-1a1,1,0,0,0,.18-.59,1.25,1.25,0,0,0,.19-.15,2.06,2.06,0,0,0,.4-1.93c.1.36.2.71.32,1a.68.68,0,0,0,.11.19,8.4,8.4,0,0,0,.27,1.1c.13.42.71.28.8-.09a8.12,8.12,0,0,0-.43-4.12,2.21,2.21,0,0,0,1,.69,1.08,1.08,0,0,0,.64,0,8.16,8.16,0,0,0,.23,2.36.62.62,0,0,0,1.18-.12,8.41,8.41,0,0,0-.3-2.49c0-.15-.05-.29-.08-.44a7,7,0,0,0,1,1A.83.83,0,0,0,140.19,133.66Zm-14.78,3c-.16-.57-.33-1.13-.52-1.69a.6.6,0,0,0,.06.11l.45.73c.06.28.12.56.17.84Zm8.49-5a.38.38,0,0,0-.17.08c0-.13,0-.26,0-.39Z"/><path class="cls-13" d="M167.41,138.82a9.46,9.46,0,0,0,.19-4.06l0,0c-.23-.48-.85-.83-1.29-.22a5.53,5.53,0,0,0-.62,1.12.88.88,0,0,0-1.14.53c-.43,1.42-1,2.86-1.36,4.32a1.22,1.22,0,0,0-.68,0c.38-1.22.67-2.47.94-3.63s-1.59-1.49-1.88-.31a30.77,30.77,0,0,1-1.09,3.37.93.93,0,0,0-1.74.12c-.23.9-.46,1.79-.67,2.68a1.09,1.09,0,0,0-.95-.07c0-.23.1-.45.16-.67.27-1.17-1.36-1.6-1.94-.79a1.15,1.15,0,0,0-2.17.21c-.46,2.45-1.35,4.91-1.53,7.4a.76.76,0,0,0,1.43.43c.19-.31.35-.63.51-1a1.22,1.22,0,0,0,.27.09.64.64,0,0,0,1,.11,9.43,9.43,0,0,0,1.59-3.24,8.82,8.82,0,0,0,.35,2.4c.28.88,1.53.62,1.69-.18a8.12,8.12,0,0,0,.1-2.26.56.56,0,0,0,.4-.34.75.75,0,0,0,1.26.21,10.92,10.92,0,0,0,1.48-2.5,11.92,11.92,0,0,0,.35,3.3c.31,1.16,2.14.65,2-.5l-.09-.88a1.1,1.1,0,0,0,1.45-.16,7.86,7.86,0,0,0,1.48-3.27c0,.28-.07.56-.11.84a.93.93,0,0,0,1.83.3c.12-.85.24-1.7.37-2.55A1,1,0,0,0,167.41,138.82Z"/><path class="cls-13" d="M151.11,141.65a78.16,78.16,0,0,1-3.07,7.24.69.69,0,0,0,1.16.72,20.88,20.88,0,0,0,3.52-7.23C153.06,141.3,151.44,140.57,151.11,141.65Z"/><path class="cls-13" d="M145.68,145.63a29.92,29.92,0,0,1-.86,3.08c.21-1.33.26-2.7.39-4,.12-1.15-1.64-1.45-1.77-.29a44,44,0,0,0-.52,5.11c0,.87,1.08,1,1.55.44a11.21,11.21,0,0,0-.25,1.15.63.63,0,0,0,1.11.5,14.1,14.1,0,0,0,2-5.69C147.6,144.82,145.89,144.55,145.68,145.63Z"/><path class="cls-13" d="M118,146a9.7,9.7,0,0,1-1.09-1.84,1.33,1.33,0,0,0-2.47,1,.69.69,0,0,0,0,.13,34.41,34.41,0,0,1-2.62-3.82,1.1,1.1,0,0,0-1.63-.32c-.12-.34-.23-.68-.32-1-.44-1.63-2.9-.66-2.45,1l.09.31c-.3-.52-.61-1-.92-1.54-.64-1-2-.12-1.82.91a1.26,1.26,0,0,0-1.72,1.59,7.78,7.78,0,0,0,2.25,3.6,1.08,1.08,0,0,0,1.76-.63c.11.24.23.47.34.71a1.06,1.06,0,0,0,2-.78l-.12-.3a4.26,4.26,0,0,0,1.64,1.26,1,1,0,0,0,1.17-.33,11.24,11.24,0,0,0,2.75,3.05,1,1,0,0,0,1.46-.63,2.19,2.19,0,0,0,1.67.61.93.93,0,0,0,.82-.77A3,3,0,0,0,118,146Z"/><path class="cls-13" d="M123.39,148.89c-.78-1-1.62-1.9-2.46-2.84a1.18,1.18,0,0,0-1.6-.24,1.16,1.16,0,0,0-.24,1.6c.79,1,1.57,1.94,2.42,2.87a1.21,1.21,0,0,0,1.63.25A1.19,1.19,0,0,0,123.39,148.89Z"/><path class="cls-13" d="M126.52,147.79c-.53-.67-1.07-1.32-1.64-1.95a1.16,1.16,0,0,0-1.58-.23,1.13,1.13,0,0,0-.24,1.57c.55.66,1.12,1.28,1.71,1.9a1.13,1.13,0,0,0,1.52.23A1.11,1.11,0,0,0,126.52,147.79Z"/><path class="cls-13" d="M133.87,116.06a10.88,10.88,0,0,0-1.28-2.49,1.17,1.17,0,0,0-1.64-.24,1.19,1.19,0,0,0-.24,1.63,10.25,10.25,0,0,0,1.55,2.29,1.05,1.05,0,0,0,1.26,0A1.11,1.11,0,0,0,133.87,116.06Z"/><path class="cls-13" d="M137.94,115.65a12.76,12.76,0,0,0-2.6-3.93c-.8-.84-2.27.16-1.49,1.1a27.31,27.31,0,0,1,2.52,3.69C136.89,117.4,138.32,116.57,137.94,115.65Z"/><path class="cls-13" d="M165.79,116.88a5.51,5.51,0,0,0-1.07-.32c-.09-.27-.2-.53-.31-.78a1.55,1.55,0,0,0-2.34-.67,5.8,5.8,0,0,0-2,2.25,7.45,7.45,0,0,0-1.75-.85.27.27,0,0,0-.33.4c.49.7,1,1.34,1.52,2a6.4,6.4,0,0,1-.42,1.14l-.17-.17a1.12,1.12,0,0,0,.14-1,5,5,0,0,0-1.47-2.05,13.37,13.37,0,0,0-2.08-1.69,1,1,0,0,0-1.63.93l-1.5-2.42c-.78-1.28-3-.08-2.33,1.29l.19.36a.85.85,0,0,0-.09.22c-.88-.76-1.75-1.52-2.57-2.3s-2.33.54-1.56,1.45c-.79-.61-1.62-1.18-2.34-1.76a.82.82,0,0,0-.86-.14,1.11,1.11,0,0,0-1.73.27l-.15-.23a1.22,1.22,0,0,0-2,1.45l1.79,2.72a1.2,1.2,0,0,0,1.65.25,1.14,1.14,0,0,0,.26-.28l.28.53c.42.78,1.12,2.3,2.27,1.65a1.08,1.08,0,0,0,.46-1.41,13,13,0,0,0,1.5,1.47,1.25,1.25,0,0,0,1.49,0l.22-.21a1,1,0,0,0,.26-.78c.11.13.23.26.34.4.92,1.09,1.89,2.78,3.1,3.53a1.66,1.66,0,0,0,1.63.26l.16-.09a1.57,1.57,0,0,0,.86-2l0-.12a1.58,1.58,0,0,0-.13-.26.83.83,0,0,0,.09-.16.09.09,0,0,0,0,0,8.78,8.78,0,0,0,.47,1.76h0a1.09,1.09,0,0,0,2.06-.08c.12.12.24.25.36.36.51.48,1,.8,1.7.5a2.93,2.93,0,0,0,1.42-1.52l.24,0a1,1,0,0,0,.69-.19,7.7,7.7,0,0,0,.6,1.59c.46.87,2,1.24,2.4.06a6.48,6.48,0,0,0,.32-2.2,1.93,1.93,0,0,0,.64-.63c.49,1,1,2,2.3,1.88a.92.92,0,0,0,.8-.76C169.49,119.07,167.13,117.45,165.79,116.88Zm-10.56,2.53c-.08-.69-.17-1.37-.31-2,.25.24.48.49.71.75a.83.83,0,0,0-.18,1A1.29,1.29,0,0,0,155.23,119.41Z"/><path class="cls-13" d="M110.81,122.43a9.8,9.8,0,0,0-1.06-1.86,17.81,17.81,0,0,1-1-1.88,1.18,1.18,0,0,0-.68-.61c-.2-1-.46-2.1-.63-3.13-.29-1.87-3.28-1.52-2.91.31s.88,4.26,2.14,5.9a.89.89,0,0,0,.85.37,7.4,7.4,0,0,0,1.51,2.21C109.9,124.56,111.17,123.44,110.81,122.43Z"/><path class="cls-13" d="M113.19,114.66c.07-.28.15-.56.22-.83a1.29,1.29,0,0,0-.24-1,1.23,1.23,0,0,0-1-.52,1.28,1.28,0,0,0-.94.36,1.08,1.08,0,0,0-.3.4,1.33,1.33,0,0,0-.1.68v.45a.84.84,0,0,0-.26.84l.75,3.06a5.26,5.26,0,0,0,1.09,2.59.8.8,0,0,0,1.4-.34,5.29,5.29,0,0,0-.3-2.78c-.22-.75-.43-1.5-.65-2.25A1.47,1.47,0,0,0,113.19,114.66Z"/><path class="cls-13" d="M147.27,118.83c-.12-.42-.24-.85-.37-1.28a15.46,15.46,0,0,0-.83-4.4c-.47-1.51-1.35-3.45-3.23-3.39a2.28,2.28,0,0,0-.39.06c-.1-.16-.2-.3-.28-.42a1.46,1.46,0,0,0-2.64.68.2.2,0,0,0-.37.12,33.86,33.86,0,0,0,.38,3.41c-.32-.79-.67-1.52-1-2.12a1.14,1.14,0,0,0-1.92-.29,12.75,12.75,0,0,0-1.16,1.29c-.87-1.5-2.18-2.24-4.05-.72a4.48,4.48,0,0,0-.46.42c.13-1.62-.64-3.33-1-4.88a1.77,1.77,0,0,0-3-1.11,1.13,1.13,0,0,0-1.3-.58,2,2,0,0,1-3.64.68.43.43,0,0,0-.12-.11,13,13,0,0,1,.92,2.22,1.52,1.52,0,0,0-1.06.34,1.93,1.93,0,0,0-.61.75.61.61,0,0,0,0,.12c-.4-.74-.8-1.46-1.21-2.18a.78.78,0,0,0-1-.33,3.57,3.57,0,0,1-.33,1.23,1.75,1.75,0,0,1-.16.27l.24.5a1.64,1.64,0,0,0-.54-.14v0c0,.07,0,.14,0,.21a2.16,2.16,0,0,1-1.88,2.33,2.1,2.1,0,0,1-2-.91,1.61,1.61,0,0,0-.44,1.71,1.07,1.07,0,0,0,.1.42l.46,1a1.38,1.38,0,0,0-.74,1.75,8.44,8.44,0,0,0,.35,1,1.35,1.35,0,0,0,1.55.8,1.32,1.32,0,0,0,1-1.42s0-.09,0-.13a1.64,1.64,0,0,0,.54-.18,1.52,1.52,0,0,0,.59-.59,2,2,0,0,0,1.28-.36,1.12,1.12,0,0,0,.37-1.29c0-.07-.07-.14-.1-.2a4.54,4.54,0,0,0,.18-.83c.05-.44.06-.88.07-1.32.23.57.45,1.15.64,1.75.45,1.4.58,3.09,1.48,4.27a1.2,1.2,0,0,0,2.12-.51,8.31,8.31,0,0,0-1.31-4.27,1.91,1.91,0,0,0,.63,0,1.8,1.8,0,0,0,.07,1.11.52.52,0,0,0,.78.22,1.8,1.8,0,0,0,.64-.91,1.77,1.77,0,0,0,1.68-.62,2.68,2.68,0,0,0,.57.68c0,.33,0,.66.07,1a3.91,3.91,0,0,0,.41,1.38,7.19,7.19,0,0,0-.22,3.94,1.51,1.51,0,0,0,2.2,1.07,3.1,3.1,0,0,0,.91.7,2.68,2.68,0,0,0,3.49-1h0a.71.71,0,0,0,.5-.31c.69,1.43,2.66.64,2.69-.82a13.67,13.67,0,0,0-.25-2.67,5,5,0,0,1,.38-1.69c.09.45.18.92.23,1.39a7.33,7.33,0,0,0,.44,2.92l0-.06a1.21,1.21,0,0,0,2.25.12,3.73,3.73,0,0,0,.33-1.38c.14.56.29,1.11.46,1.68a.46.46,0,0,0,.69.21,1.51,1.51,0,0,0,1.35.51,3,3,0,0,0,.66-.18,1.71,1.71,0,0,0,2.7.59,2.85,2.85,0,0,0,.51,1.51.49.49,0,0,0,.83-.09A4.35,4.35,0,0,0,147.27,118.83Zm-13.38-3a5.92,5.92,0,0,0-.93-1.68,3.71,3.71,0,0,1,.27-.29c-.14-.3-.06-.17.23.4a7.25,7.25,0,0,1,.49,1.32C133.92,115.62,133.91,115.7,133.89,115.78Z"/><path class="cls-12" d="M131.2,119.12a22.27,22.27,0,0,0-2.24-5.55c-.32-.58-1.28-.23-1,.38.87,1.75,1.56,3.59,2.29,5.4C130.47,119.83,131.33,119.67,131.2,119.12Z"/><path class="cls-12" d="M133.93,116.06a12,12,0,0,0-1.74-2.82c-.2-.24-.6.05-.39.29a11.21,11.21,0,0,1,1.78,2.67C133.68,116.41,134,116.28,133.93,116.06Z"/><path class="cls-12" d="M137.32,118.06a49,49,0,0,0-1.53-5c-.2-.62-1.14-.25-.95.38a49.13,49.13,0,0,0,1.63,4.84C136.65,118.7,137.43,118.57,137.32,118.06Z"/><path class="cls-12" d="M139.2,117.85a19.35,19.35,0,0,0-1.92-4.91c-.32-.58-1.34,0-1,.57a17.46,17.46,0,0,1,1.64,4.48C138.07,118.82,139.4,118.67,139.2,117.85Z"/><path class="cls-12" d="M140.69,113.08a.77.77,0,0,0-1.44.57,18.25,18.25,0,0,0,1.71,3.89.6.6,0,0,0,1.07-.42A18.25,18.25,0,0,0,140.69,113.08Z"/><path class="cls-12" d="M142.8,112a.68.68,0,0,0-1.27.51,37.31,37.31,0,0,0,2.57,6.74c.29.48,1.1.13,1-.4A37.6,37.6,0,0,0,142.8,112Z"/><path class="cls-12" d="M148.59,115.77a1.11,1.11,0,0,0-1,1.19l.13,1.24a1.08,1.08,0,0,0,2.14-.23l-.13-1.24A1.1,1.1,0,0,0,148.59,115.77Z"/><path class="cls-12" d="M124.29,111.06l-.2,1.71a.74.74,0,0,0,1.46.24l.27-1.7C126,110.32,124.4,110.07,124.29,111.06Z"/><path class="cls-12" d="M121.68,108.34a22.05,22.05,0,0,0-.49,5.77.82.82,0,0,0,1.54.25,21.74,21.74,0,0,0,1-5.68C123.85,107.38,121.86,107,121.68,108.34Z"/><path class="cls-12" d="M119,110.17a25.13,25.13,0,0,1-1,4.1c-.22.78.93,1,1.27.38a10.45,10.45,0,0,0,1.16-4.24C120.55,109.45,119.09,109.2,119,110.17Z"/><path class="cls-12" d="M116.29,111.53a1.92,1.92,0,0,1-1.06-.16,43.58,43.58,0,0,1-1.37,4.24.66.66,0,0,0,1.11.69,9.4,9.4,0,0,0,2.07-5A2.29,2.29,0,0,1,116.29,111.53Z"/><path class="cls-12" d="M111.24,113.06a37.12,37.12,0,0,0-1,4.77c-.07.76,1,1.19,1.36.4a36.8,36.8,0,0,0,1.35-4.89C113.21,112.27,111.49,112,111.24,113.06Z"/><path class="cls-12" d="M107.1,114.34c0,2.32-.68,4.39-1,6.65a.8.8,0,0,0,1.51.46c1.28-2.1,1.41-4.92,1.4-7.31C109,112.88,107.09,113.09,107.1,114.34Z"/><path class="cls-12" d="M104.08,116.08a16,16,0,0,0,0,8.47c.31,1,1.81.56,1.73-.42a28.33,28.33,0,0,1,.11-7.75C106.11,115.21,104.35,115,104.08,116.08Z"/><path class="cls-13" d="M106.37,118c-.17-1.11-.3-2.22-.4-3.34,0-.56-.87-.46-.85.09,0,.39,0,.79,0,1.18a.56.56,0,0,0-.23.51c0,.53,0,1,0,1.58a.39.39,0,0,0,.49.41,6.9,6.9,0,0,0,.57,2.63c.18.32.76.37.8-.09A11.16,11.16,0,0,0,106.37,118Z"/><path class="cls-13" d="M113.53,116.17l.41-1.28a3.82,3.82,0,0,0-.21-.71h0a6.72,6.72,0,0,0-.27-1.77c-.32-1.07-1.88-.42-1.6.63l0,.14a1.39,1.39,0,0,0-1.27-.86,2.35,2.35,0,0,0-1.79,1.41.61.61,0,0,0-.43.71l0,.22a9,9,0,0,0-.36,1.4c0-.38-.09-.77-.13-1.15a.69.69,0,0,0-1.38.14c.18,1.66.33,3.32.57,5a.65.65,0,0,0,1.3-.14c0-.12,0-.24,0-.37a1.41,1.41,0,0,0,.87.53,2.72,2.72,0,0,0,2.18-.77,2.06,2.06,0,0,0,1.79-.73,5.27,5.27,0,0,0,0-1.58,6.92,6.92,0,0,0,.28-.76Zm-3.23.71c-.15-.76-.31-1.52-.46-2.27a2.57,2.57,0,0,1,.18-.33,22.43,22.43,0,0,0,.36,2.3c.06.31.1.63.16,1l-.09.08Z"/><path class="cls-13" d="M116.59,111.46l-.3.07a1.86,1.86,0,0,1-1.09-.18l.78,3.32c.18.79,1.46.68,1.28-.14Z"/><path class="cls-13" d="M119.25,111.18a.68.68,0,0,0-1.36.14,14,14,0,0,0,.3,2.67.7.7,0,0,0,1.32-.14A14.13,14.13,0,0,0,119.25,111.18Z"/><path class="cls-13" d="M120.85,110.38a.7.7,0,0,0-1.39.15c.16,1.33.05,2.63.08,4,0,.94,1.54,1,1.65,0A13.25,13.25,0,0,0,120.85,110.38Z"/><path class="cls-13" d="M123.64,108.93a1.18,1.18,0,0,0-1.51-.66,1.2,1.2,0,0,0-.66,1.52c.34,1.4.32,2.82.56,4.23a1,1,0,0,0,2,.06A10.74,10.74,0,0,0,123.64,108.93Z"/><path class="cls-13" d="M131.34,113.24c-.1-1.86-3.11-1.55-2.88.31a25.6,25.6,0,0,1-.16,5,1.13,1.13,0,0,0,1.93.94c.16.91,1.58.77,1.44-.16s-.28-1.81-.44-2.71A16.16,16.16,0,0,0,131.34,113.24Z"/><path class="cls-13" d="M135.73,113.61c-.18-.93-1.63-.81-1.5.16.34,2.48.3,5.51,1.31,7.81.27.61,1.33.6,1.39-.15C137.17,118.91,136.2,116.08,135.73,113.61Z"/><path class="cls-13" d="M136.9,114.33c0,1.6-.24,3.45.32,5a.71.71,0,0,0,1.29,0c.51-1.62.19-3.51.12-5.19C138.59,113,136.89,113.22,136.9,114.33Z"/><path class="cls-13" d="M147.62,114.5a1.53,1.53,0,0,0-1,.54,3.65,3.65,0,0,0-.78-1,2.61,2.61,0,0,0-3.85.26,1,1,0,0,0-.13.86,8,8,0,0,0-2.28-2.2c-.51-.31-1,.4-.7.83a.78.78,0,0,0-.13.57c.11.74.21,1.48.26,2.22a4.51,4.51,0,0,0,.43,2.12l0,0a1,1,0,0,0,1.45.23,5.35,5.35,0,0,0,0,.69,1,1,0,0,0,1.89.3,5,5,0,0,0-.69-4.34.9.9,0,0,0,.58.25,5.56,5.56,0,0,1,.45,2.28,1.25,1.25,0,0,0,1.36,1.11,1.23,1.23,0,0,0,.29-.07,4.23,4.23,0,0,0,.56,1.5,1.18,1.18,0,0,0,1.94.17,1.59,1.59,0,0,0,2.08-1.1,16.69,16.69,0,0,0,0-3.74A1.62,1.62,0,0,0,147.62,114.5Z"/><path class="cls-14" d="M116.74,127a1.64,1.64,0,0,0-2.45-.2,7,7,0,0,0-5.3-1.37,2.72,2.72,0,0,0-.94.36,1.33,1.33,0,0,0-.3-.06,6.69,6.69,0,0,0-5.92,1.78,5.14,5.14,0,0,0-1.16,4.79,3.74,3.74,0,0,0-.7,2.52s0,0,0,.06c-.16.21-.32.41-.47.62a1.68,1.68,0,0,0,1.9,2.59,3.74,3.74,0,0,0,1.64-1.15l.35,0,.21.06a2.78,2.78,0,0,0,1.25-.08,9.66,9.66,0,0,0,1.06,1.23.45.45,0,0,0,.49.12v0a.7.7,0,0,0,.17.4.62.62,0,0,0,.82.37.64.64,0,0,0,1-.72c-.08-.3-.14-.62-.19-.93v0a1.11,1.11,0,0,0,0-.48,7.89,7.89,0,0,0-.32-2.22,6.71,6.71,0,0,0,1.33-1,2.78,2.78,0,0,0,2,.35l.06.07,0,0a7.9,7.9,0,0,1,1.27,1.76c.69,2,3.35,1.5,4,0a1.61,1.61,0,0,0,.54-.63C118.42,132.73,118.76,129.33,116.74,127Z"/><path class="cls-15" d="M127.19,122.22a1.91,1.91,0,0,0-1.19-1.3,1.23,1.23,0,0,0-.64-.1c0-.08,0-.16-.08-.25a.93.93,0,0,0-.49-.61l-.07-.31a1.27,1.27,0,0,0-.29-.58,2.19,2.19,0,0,0,0-2.25c-.69-1.21-2.14-1.25-3.38-1.19a5.64,5.64,0,0,0-4.59.7,8.36,8.36,0,0,0-4,2.5,1.14,1.14,0,0,0-.21,1.11,4.66,4.66,0,0,0-.46,3.15,1.43,1.43,0,0,0,.94.93,1.75,1.75,0,0,0,.46.64,9.65,9.65,0,0,0,1.84,1l.54.34a1.31,1.31,0,0,0,.66.21,1.55,1.55,0,0,0,0,.22l0,.58c.06,1.19,1.51,1.34,2.21.65a3.91,3.91,0,0,1,4.6-.56,1.28,1.28,0,0,0,1.48-.35A10,10,0,0,0,125.7,125a1.29,1.29,0,0,0,.87-1c0-.11,0-.22,0-.33A1.26,1.26,0,0,0,127.19,122.22Z"/><path class="cls-15" d="M169.52,125.47a2.61,2.61,0,0,0,0-.63,1.86,1.86,0,0,0-1.35-1.64,3.8,3.8,0,0,0-3.29-1.24,3.19,3.19,0,0,0-.69,0,5.45,5.45,0,0,0-4.72.86,2.34,2.34,0,0,0-.65,1c-1.18.29-2.24.92-2.33,2.23a3,3,0,0,0,.73,1.86,3.06,3.06,0,0,0-.49,1c-.26,1.1.56,1.82,1.63,1.91a3.06,3.06,0,0,0,.91-.08l.41.54a2.39,2.39,0,0,0,3.57-.07,3.31,3.31,0,0,0,.48-1.27l.23-.06.39,0a1.74,1.74,0,0,0,1.26.55,2.9,2.9,0,0,0,.51,0h0l.32-.05C168.82,130,171.23,127.9,169.52,125.47Z"/><path class="cls-15" d="M143.94,121.09a10.59,10.59,0,0,0-2.38-.85A2.43,2.43,0,0,0,141,120a6.4,6.4,0,0,0-5.55.66c-1.49,1,.12,2,1.33,1.66l.27-.06.14,0a2.74,2.74,0,0,0,.46,2,1.5,1.5,0,0,0,1.77.39,1.71,1.71,0,0,0,2.23-.52c1,.41,2.73-.68,2.13-1.38a1.48,1.48,0,0,0,.32-.21A.84.84,0,0,0,143.94,121.09Z"/><path class="cls-16" d="M125.69,128.92a7.19,7.19,0,0,0-3.92-1.73c-.25-.52-1.34-.52-1.76-.28l-.38.25a1.21,1.21,0,0,0-1,.39l0,0a.64.64,0,0,0-.32.46.3.3,0,0,0,.13.45.24.24,0,0,0,.06.08,2.89,2.89,0,0,0,0,.29.65.65,0,0,0,.43.73l.11.07a1.49,1.49,0,0,0,0,.21,6.69,6.69,0,0,0-.4,1.77,14,14,0,0,0,.2,3.82c.21,1.23,3,.95,2.81-.3a21.9,21.9,0,0,1-.26-3.13,6,6,0,0,1,.1-.95l.24-.08a2.8,2.8,0,0,0,1.72-.12,2,2,0,0,0,2.46-1.32A.64.64,0,0,0,125.69,128.92Z"/><path class="cls-16" d="M134.35,144.09l-.21.21c-.13.13.15.21.22.09l.15-.24C134.56,144.07,134.4,144.05,134.35,144.09Z"/><path class="cls-15" d="M126.91,141.7c-.06-.17-.36-.2-.51-.19a1.68,1.68,0,0,0-.76.29,1.69,1.69,0,0,0-.53-.12,5.29,5.29,0,0,0-1.06.1,3.34,3.34,0,0,1-.66-1.82c-.11-1.11,0-2.28-.88-3.11a2.89,2.89,0,0,0-2.9-.56c-.32.1-1,.49-.89,1,0,.12.07.23.11.35a1,1,0,0,0-.52.52,4.74,4.74,0,0,0-.25,1.79v0c-.09.64-.17,1.27-.25,1.91-.16,1.14,1.67,1.31,2.42.69.57.7,1.23,1.35,1.76,2a1.67,1.67,0,0,0,1.6.32,2,2,0,0,0,1.88-.21,2.55,2.55,0,0,0,.23-.24,2,2,0,0,0,.58-1.75C126.65,142.45,127.08,142.14,126.91,141.7Z"/><path class="cls-15" d="M142.05,141.84a.79.79,0,0,0-.64-.59,3.51,3.51,0,0,0-1.25-.09c-.36,0-.72.13-1.09.2s-.85.43-.86.85a3.71,3.71,0,0,0-1.85-.68,8.19,8.19,0,0,0-1.93-.77c-2-.5-5.85-.31-7.07,1.72a1.61,1.61,0,0,0-.23,1,3,3,0,0,0-.35.63c-.6.1-1.21.32-1.78.43-1,.19-1.19,1.75-.06,1.9a5.9,5.9,0,0,1,4.81,3.67,1.07,1.07,0,0,0,1.61.41l.33.23a2.53,2.53,0,0,0,1.72.94,1.17,1.17,0,0,0,.77.37.74.74,0,0,0,.34.15,1,1,0,0,0,1.91-.36,8.25,8.25,0,0,0,.16-1.46,1,1,0,0,0,.43-.25l.23-.22a5.75,5.75,0,0,0,.69-.42,1,1,0,0,0,.59-.12,3.8,3.8,0,0,0,1.63-4.1A8.29,8.29,0,0,0,139,143a2.22,2.22,0,0,0,.57,0h.34a.94.94,0,0,0,.55.39,1.81,1.81,0,0,0,1,0,.76.76,0,0,0,.41-.27c.06-.1.12-.26,0-.37a1.27,1.27,0,0,0-.27-.25A.71.71,0,0,0,142.05,141.84Z"/><path class="cls-14" d="M156.44,127.45a2,2,0,0,0-.45-.65,1,1,0,0,0-.22-.14,1.28,1.28,0,0,0-.05-.27A5.5,5.5,0,0,0,153,123a10.52,10.52,0,0,0-9.3-.31c-2.84,1.4-4.65,4.89-3,7.88a1.71,1.71,0,0,0,.89.77,7.67,7.67,0,0,0,.43,1,1.46,1.46,0,0,0,.64,1.49,3.69,3.69,0,0,0,2.86.5,8.32,8.32,0,0,0,0,.86.34.34,0,0,0,.12.26,23.07,23.07,0,0,0-5.25-.2,1.43,1.43,0,0,0-.92.52,26.3,26.3,0,0,0-3.87.05c-.83.07-1.62,1.24-.43,1.45a16.28,16.28,0,0,0,3,.29c.62,0,1.32-.07,2-.08a5.64,5.64,0,0,0,2.06.6c.64.08,1.3-.44,1.12-.88h.45a3,3,0,0,0,.52-.05,5.9,5.9,0,0,0,.59-.06l1.26.18c1,.13,2.14-1.14.76-1.52-.3-.09-.61-.16-.92-.22a.37.37,0,0,0,.29-.32c0-.27.09-.53.15-.79a.5.5,0,0,0,.4-.21,19.2,19.2,0,0,1,2.49-2.53c.39-.22.79-.42,1.2-.62a.74.74,0,0,0,1,.13l1.14-.68a1.48,1.48,0,0,0,.35-.05,6.77,6.77,0,0,1,1.62-.37,1.55,1.55,0,0,0,1.51.65A1.73,1.73,0,0,0,156.44,127.45Z"/><path class="cls-15" d="M142.17,133.78c-.26-.58-1-1-1.35-1.56a6.2,6.2,0,0,1-.44-.69,11,11,0,0,0-1.4-3.87.39.39,0,0,0-.11-.65,5.53,5.53,0,0,0-1.59-.59,5.23,5.23,0,0,0-1.83-.7,3.23,3.23,0,0,0-1.81-.63,3.38,3.38,0,0,0-1.14.15,1.16,1.16,0,0,0-.68.26l-.34.34a2.2,2.2,0,0,0-.57,1c-.12.47.32.69.81.69v0a.6.6,0,0,0-.09.15,1.18,1.18,0,0,0,0,.94v.05h0c-.23.88,1.56.94,1.94.14a1.28,1.28,0,0,0,.13-.88h.11c-.14.32,0,.69.52.83a11.51,11.51,0,0,0,2.74.36h.14c0,.12.07.22.09.26.43,1.12.76,2.26,1.15,3.39.14.4.77.5,1.3.38a3,3,0,0,0,1.39,1.39c.18.07.6.05.59-.23a1.55,1.55,0,0,0,0-.23C141.91,134.16,142.28,134,142.17,133.78Z"/><path class="cls-14" d="M131.38,125.78l.08-.06a.53.53,0,0,0,.22-.44c-.08-.42-.6-.53-1-.5a1.31,1.31,0,0,0-.61.24.54.54,0,0,0-.22.45.56.56,0,0,0,0,.12l-.33.07a2.81,2.81,0,0,0-1.79.9,2.31,2.31,0,0,0-.31.39,2,2,0,0,0-1.28,2.29.37.37,0,0,0,.08.18,2.51,2.51,0,0,0,.11,1.62.51.51,0,0,0,.22.24c0,.13,0,.26,0,.4a.28.28,0,0,0,.21.26V132c0,.19.15.28.33.31a3.11,3.11,0,0,0,.35.54c.25.31,1.23.41,1.3-.14a11.37,11.37,0,0,1,.78-3.24l.08-.07.15-.11a3.85,3.85,0,0,0,.48,0,.71.71,0,0,0,.31-.08c.49.07,1.07-.12,1.13-.54a7.14,7.14,0,0,0,0-2.44A.59.59,0,0,0,131.38,125.78Z"/><path class="cls-17" d="M118.2,134.54a8.61,8.61,0,0,0-1.3,2l-1,1.6c-.46.08-.91.2-1.36.28a5,5,0,0,0-1.66.48c-.18.09-.23.29,0,.4a3.37,3.37,0,0,0,2,.25,6.13,6.13,0,0,0,2.26-.57c.38-.2.39-.45.23-.64a1.91,1.91,0,0,0,.67-1.43.2.2,0,0,0-.08-.13,7.72,7.72,0,0,0,1.14-2C119.19,134.33,118.4,134.34,118.2,134.54Z"/><path class="cls-17" d="M141.53,139l-.2.14a19.47,19.47,0,0,0-5.5-1.57.81.81,0,0,0-.51.13l-.91-.57a.36.36,0,0,0-.39.07l-.22-.07c-.09,0-.39,0-.35.18a3.14,3.14,0,0,0,1.33,1.56,7.57,7.57,0,0,0,1.92,1.34,8.21,8.21,0,0,0,3.71,1,1,1,0,0,0,.24,0,.78.78,0,0,0,.25.07,1.23,1.23,0,0,0,1.15-.38,3.49,3.49,0,0,0,.4-.74,1.4,1.4,0,0,0,.19-.87C142.56,138.86,141.85,138.81,141.53,139Z"/><path class="cls-17" d="M107.38,128.14s0,0,0,0S107.4,128.14,107.38,128.14Z"/><path class="cls-17" d="M116,129.45c-1.42-1.9-4.18-3.35-6.59-2.71a2,2,0,0,0-.07-.26c0-.19-.43-.15-.44,0-.07,1.38,0,2.76-.07,4.14,0,.31-.06.63-.11,1a40.26,40.26,0,0,0-.23-5.26c0-.31-.65-.22-.68.07-.12,1.65-.21,3.29-.32,4.94a15.62,15.62,0,0,0-.11-1.68c0-.16.05-.32.08-.48a.46.46,0,0,0-.25-.53c0-.17-.06-.34-.1-.5s-.55-.23-.59,0v0a1,1,0,0,0-1,.33l-.15.29a1.18,1.18,0,0,0-1,.53l-.07.18a1.67,1.67,0,0,0-.32,0,5.74,5.74,0,0,1,3.18-2c.42-.1.23-.54-.15-.48a7.21,7.21,0,0,0-5.32,10.11c.12.26.78.17.75-.14l0-.27a1,1,0,0,0,.25,0c.22.57,1.53.47,1.71-.15l.09-.33c0,.07,0,.13,0,.19a.39.39,0,0,0,.15.34c.09.72,1.81.59,1.92-.1,0-.3.09-.6.13-.9a.46.46,0,0,0,.17-.29v-.06a.91.91,0,0,0,.26-.13c-.12.64-.25,1.28-.39,1.94-.1.51.76.49,1,.27a3.91,3.91,0,0,0,1-2.91h0a.52.52,0,0,0,.87.06,2.78,2.78,0,0,0,.31-.83,9.2,9.2,0,0,0,.31,1.11c.18.54,1.17.32,1.4-.14a1.15,1.15,0,0,0,1.32-.31h0a11,11,0,0,0,.22,1.28c.2.8,1.9.69,2-.07a.7.7,0,0,0,.12-.35,19.49,19.49,0,0,0-.35-4.38.68.68,0,0,0-.56-.49l-.18-1.17a5.6,5.6,0,0,1,.74,1.05,6.3,6.3,0,0,1,.75,3.58c-.08,1.1-.64,2.07-.7,3.14,0,.5.91.38,1.14.19C118.23,135.56,117.52,131.51,116,129.45Zm-2.94-.61a1.37,1.37,0,0,0-.88.59l-.09,0a15.52,15.52,0,0,0-.54-1.53.41.41,0,0,0-.2-.21,7.2,7.2,0,0,1,2.05,1.09A1.65,1.65,0,0,0,113,128.84Zm-1.82-1.15a.9.9,0,0,0-.93.38,7.33,7.33,0,0,0-.46,1.59,18.41,18.41,0,0,0-.33-2.46C110.08,127.34,110.66,127.5,111.21,127.69Z"/><path class="cls-17" d="M155.45,127.86a9.2,9.2,0,0,0-2.16-1.86.58.58,0,0,0,0-.44c-.31-.74-1.34-1.27-2-1.66a6,6,0,0,0-2.51-.88c-.28,0-.82.18-.89.47a11.13,11.13,0,0,0-1.26-.23.88.88,0,0,0-.42.08.5.5,0,0,0-.22-.1,3.33,3.33,0,0,0-.92-.12c-.36-.23-1.15-.1-1.22.24a3.55,3.55,0,0,0-.44.21c-.34-.08-.79.07-.77.42,0,0,0,.08,0,.12a5.64,5.64,0,0,0-1.86,4.27c.14,3.17,2.6,6.28,5.81,6.65h.23c.58.63,2.13.18,2.2-.67a35.72,35.72,0,0,0,.1-3.87.67.67,0,0,0,.17-.5c0-.12,0-.24,0-.36a10.57,10.57,0,0,0,2,1.12c.61.26,2.82-.36,1.75-1.14s-2.08-1.45-3.11-2.16a5.94,5.94,0,0,0-1.26-2l0,0c0-.15,0-.3-.08-.45l.4.2a23,23,0,0,0,1.42,1.94,21.72,21.72,0,0,0,2.51,2.2,1.21,1.21,0,0,0,.75.25,1.57,1.57,0,0,1-.28.63c-.53.72.76,1,1.24.86A2,2,0,0,0,155.45,127.86Zm-11.12,3.69v.16a7.57,7.57,0,0,1-1.21-2.58,1.36,1.36,0,0,0,.53-.2,5.4,5.4,0,0,0,.44,1.79.48.48,0,0,0,.19.23C144.29,131.15,144.31,131.35,144.33,131.55Zm.82,1-.23-.21h.22C145.14,132.45,145.15,132.53,145.15,132.6Zm-.42-7.28a1.15,1.15,0,0,0-.74,0s0-.1,0-.14a4.68,4.68,0,0,1,.64-.52l.33.46A.83.83,0,0,0,144.73,125.32Z"/><path class="cls-17" d="M145.28,136.57l-.19,0a.37.37,0,0,0-.29-.21h0a.68.68,0,0,0-.37-.15l-5.36-.78c-.4-.06-.86.51-.3.61l.94.17c-.33,0-.65-.08-1-.14a.68.68,0,0,0-.46.12l-.82-.16a.5.5,0,0,0-.32.1l-.22,0a.45.45,0,0,0-.35.09l-.94-.07c-.61,0-1,.7-.23.76l1.45.13-.43.06c-.31.05-.28.39,0,.34a18.76,18.76,0,0,1,2.78-.2,9.07,9.07,0,0,0,.91.14,39.36,39.36,0,0,0,4.47.91c.42.06.91-.48.32-.64-.29-.09-.59-.16-.88-.23l0-.05,1.16-.06C145.72,137.21,145.86,136.62,145.28,136.57Z"/><path class="cls-18" d="M123,118.94c-.07-.24-.42-.32-.69-.25l0,0,0-.26a.25.25,0,0,0-.14-.19l0-.06c0-.12-.22-.15-.37-.11s0-.14,0-.2a.26.26,0,0,0-.21-.2c0-.07,0-.14,0-.2,0-.54-1.23-.41-1.2.13a11.81,11.81,0,0,1-.32,3.35,10.17,10.17,0,0,1-.81,2.33h0a12.25,12.25,0,0,0,.49-5.1c0-.31-.55-.32-.77-.12a.34.34,0,0,0-.2-.06c0-.13,0-.25,0-.37,0-.52-1-.31-1.1,0a11.65,11.65,0,0,0-1,4.15,6.32,6.32,0,0,1,0-2.08c0-.18.06-.36.1-.54.14-.58-1-.57-1.18-.09a10.27,10.27,0,0,0-.47,3.48c0,.21.19.32.42.34a9.81,9.81,0,0,0,.27,1.46c.18.64,1.26.56,1.56,0l0,.5c0,.53,1.11.44,1.29.09l.15-.33h0a1.9,1.9,0,0,0,2-1.15s0,.08,0,.12c0,.22.31.18.48.07,0,.16,0,.33,0,.49s.14.26.32.27a3.66,3.66,0,0,0-.14.72c-.05.43.66.49.9.24C123.7,123.83,123.55,120.9,123,118.94Z"/><path class="cls-19" d="M123.77,117.72c-.18.31-.34.62-.5.93a3.9,3.9,0,0,0-.31-.4c0-.06,0-.12,0-.19,0-.32-.37-.46-.76-.44a4.88,4.88,0,0,0-5,.16l-.17,0a2.91,2.91,0,0,0-1.7,1.26c-2.67,2.24-2,9.08,2.37,7.58.28-.1.41-.23.43-.36a4.94,4.94,0,0,0,5-1.28,3.6,3.6,0,0,0,.84-3,3.46,3.46,0,0,0,.09-1.62,9.83,9.83,0,0,1,1-2.35C125.33,117.45,124.05,117.24,123.77,117.72ZM120,119a.24.24,0,0,0-.06-.09,1.2,1.2,0,0,0,.5-.14,5.25,5.25,0,0,1,.81.51c0,.12-.06.25-.1.38a1.11,1.11,0,0,0,0-.17C121.18,119,120.51,118.86,120,119Zm-2.61,2.52a.51.51,0,0,0-.22,0c.36-.8.65-1.64.94-2.42a.12.12,0,0,0-.1-.17,1.39,1.39,0,0,1,1-.23.92.92,0,0,0-.79.48c-.12.33-.22.66-.31,1S117.55,121.06,117.36,121.51ZM115.28,124h0a3.53,3.53,0,0,0,1.66,1.87C116,125.85,115.47,125.05,115.28,124Zm3.23,1a1.16,1.16,0,0,0,.8-.36h.39a1.64,1.64,0,0,0,.38,0,5.26,5.26,0,0,0,.78-.12.78.78,0,0,0,0,.14.42.42,0,0,0,.09.14A3.28,3.28,0,0,1,118.51,125Z"/><path class="cls-19" d="M135.75,142.22l-.41-.11c-1.73-.7-4.1-.78-5.54.51a.8.8,0,0,0-.13.13l-.06,0a2.18,2.18,0,0,0-.87.52,2.58,2.58,0,0,0-.86,1.31,2.07,2.07,0,0,0,0,1.33,1.58,1.58,0,0,0,.51,1.73,3.49,3.49,0,0,0,2.56,1.71,7.23,7.23,0,0,0,4.79.42l.12,0a4,4,0,0,0,3.6-3.11C139.9,144.42,137.58,142.8,135.75,142.22Zm-.94,5.84a4.7,4.7,0,0,0,.7-.29,1.42,1.42,0,0,1-.85.44Z"/><path class="cls-19" d="M167.15,124.23c-.06-.06-.12-.13-.18-.18a5,5,0,0,0-4-.62,3.58,3.58,0,0,0-.91.29,2.78,2.78,0,0,0-2-.2,3.68,3.68,0,0,0-1.91,5.23,2.4,2.4,0,0,0,1.23,1,1.74,1.74,0,0,0,.26.19,4.05,4.05,0,0,0,4.07,0,4.24,4.24,0,0,0,2.49-.42C168.39,128.45,169,125.72,167.15,124.23Z"/><path class="cls-19" d="M141.44,121.07a2.47,2.47,0,0,0-1.52-1.15c-1.18-.44-2.92-.19-3.48,1.09a1.37,1.37,0,0,0-.12.55s0,0,0,0c-.31.47-.05.77.37.91a1.14,1.14,0,0,0,.11.11,2.14,2.14,0,0,0,2.07.37,1.15,1.15,0,0,0,.68-.49,2,2,0,0,0,1.27-.16A1,1,0,0,0,141.44,121.07Z"/><path class="cls-20" d="M136.7,123.77c-4-2.76-8.52.63-11.7,3-.39.29.33.5.6.31,3.14-2.26,6.58-4.09,10.51-2.86C136.33,124.33,137.09,124,136.7,123.77Z"/><path class="cls-20" d="M155.62,130.79a9.38,9.38,0,0,0-1.4,0c.07-.23-.06-.45-.54-.47a7.45,7.45,0,0,0-7.51,5.58c-.14.58,1.06.58,1.21.09a.66.66,0,0,0,.3-.2,10.81,10.81,0,0,1,7.84-4C156.28,131.74,156.49,130.87,155.62,130.79Z"/><path class="cls-17" d="M156.07,133a6.81,6.81,0,0,0-2.21.09,2.52,2.52,0,0,0-2,.5c0-.14.1-.29.16-.43s-.42-.25-.48,0-.16.52-.24.78l-.09,0c-1.71.83-3,2.13-2.69,3.83a1.09,1.09,0,0,0,1.18.95.88.88,0,0,0,1-.16v0a.32.32,0,0,0,.17-.23c.28-.57.52-1.13.81-1.64a8.62,8.62,0,0,1,2.22-1.84.87.87,0,0,0,.38-.53L156,134C156.74,133.87,157,133.12,156.07,133Z"/><path class="cls-16" d="M159.05,137.13a2.89,2.89,0,0,1-1-.67,2.5,2.5,0,0,1-.05-.29c0-.18-.2-.26-.37-.29a5.49,5.49,0,0,1-.53-1.49.77.77,0,0,0-.74-.52,1.21,1.21,0,0,0-1.26.6H155l-.62,0c-.3,0-.79.21-.86.55a1.23,1.23,0,0,0,0,.54,1.07,1.07,0,0,0-.7.83,1,1,0,0,0-.38,1c.18.84,1.56.69,2,.14A4.16,4.16,0,0,1,155,137c.46.24.94.51,1.44.72a4,4,0,0,0,1.07.68,1.58,1.58,0,0,0,1.62-.17A.61.61,0,0,0,159.05,137.13Z"/><path class="cls-21" d="M122.59,129a1.51,1.51,0,0,0-.86.32c.06-.26.13-.53.2-.79.14-.51-.9-.49-1.05-.08,0,.08-.06.16-.08.23a1.11,1.11,0,0,0-.76.17,2.44,2.44,0,0,0-.29.27c0-.66.18-1.28.63-1.12.22.08.52-.2.22-.31-1.81-.64-2,1.63-1.95,3.45a2.72,2.72,0,0,0,.26,1.86.33.33,0,0,0,.07.13,2.73,2.73,0,0,0,.34.44,1,1,0,0,0,.76.15c0,.12,0,.25,0,.38.06.44.91.31.95-.1.07-.75.14-1.48.23-2.22.33.15.92,0,.93-.39s0-1.64.55-1.79S123.05,129,122.59,129Z"/><path class="cls-21" d="M120.75,135.49a1.3,1.3,0,0,1-.89-1.48c.07-.33-.57-.31-.67,0a1.62,1.62,0,0,0,1.15,2.1.6.6,0,0,0,.61-.17C121.07,135.7,120.93,135.54,120.75,135.49Z"/><path class="cls-22" d="M172.84,138.25a21.55,21.55,0,0,1-3.61,4.14,11.81,11.81,0,0,1-4.43,3.09l-.23.06a43.58,43.58,0,0,1-5.89,9.25A37.68,37.68,0,0,1,147,164a32.35,32.35,0,0,1-6.48,2.59q-1,.27-1.95.51l-.84.19-.45.08c-1.13.18-2.35.25-3.49.5,1.4,0,2.79.06,4.18.11,2.9-.33,5.81-.62,8.71-.9a1.19,1.19,0,0,1,.25-.13c2.79-1.26,5.83-1.83,8.62-3.1,2.45-1.12,4.74-2.55,7.26-3.48,5.22-5.44,9.16-12.43,10.26-19.85.17-1.16.32-2.34.42-3.54A11.46,11.46,0,0,1,172.84,138.25Z"/><path class="cls-21" d="M157.34,137.8l-.21-.05a.37.37,0,0,0,.29-.23.28.28,0,0,0-.24-.32,1.55,1.55,0,0,1-.75-.36c0-.08,0-.17-.1-.26s0,0-.05-.05a.42.42,0,0,0-.21-.27,1,1,0,0,1,0-.3.25.25,0,0,0-.22-.23,1.11,1.11,0,0,1,0-.48c.05-.35-.45-.45-.76-.32a.28.28,0,0,0-.13-.33c.16-.36-.58-.51-.87-.27a4,4,0,0,0-.89,1.11.41.41,0,0,0-.12.14l-.5,1.11c-.06.12.06.22.19.26a1.84,1.84,0,0,0,.34,1.14c.23.32,1.07.28,1.06-.21,0-.17,0-.34,0-.51.24,0,.51-.11.56-.31l0-.13a2.21,2.21,0,0,0,.65,1.32c.12.11.63.08.56-.16,0-.07,0-.13-.05-.19a2.12,2.12,0,0,0,1.35.51c.19,0,.48,0,.54-.27S157.51,137.82,157.34,137.8Z"/><path class="cls-14" d="M106.1,129.53a4.12,4.12,0,0,0-2.73,1.59c-.1.17.14.17.24.12a20.21,20.21,0,0,1,2.55-1.38C106.39,129.77,106.38,129.48,106.1,129.53Z"/><path class="cls-14" d="M107.51,133.53a4.8,4.8,0,0,0-2.39,2.55c-.08.38.45.26.61.12.83-.67,1.52-1.56,2.32-2.29C108.48,133.53,107.82,133.35,107.51,133.53Z"/><path class="cls-14" d="M118.25,135.49c-1.59-2-5-3.2-7.4-1.87-.06,0,0,.1,0,.1a10.81,10.81,0,0,1,6.56,2.1C117.65,136,118.54,135.85,118.25,135.49Z"/><path class="cls-14" d="M142.84,126.89l-.37.46s0,0,0,0l.37-.46S142.85,126.88,142.84,126.89Z"/><path class="cls-14" d="M144.86,125.68a12.29,12.29,0,0,0-2.14,4.57c0,.08.12.07.16,0,1-1.41,1.68-3,2.7-4.4C145.83,125.53,145.05,125.39,144.86,125.68Z"/><path class="cls-14" d="M146.62,128.6a3.44,3.44,0,0,0-1.79,1.63,2.58,2.58,0,0,0-.23,2.16c.07.14.35.11.43,0,.35-.57.5-1.25.88-1.82a8.09,8.09,0,0,1,1.27-1.57C147.56,128.64,146.87,128.49,146.62,128.6Z"/><path class="cls-14" d="M148,131.17a3.51,3.51,0,0,0-2.28,2.76c0,.07.1.06.13,0a16.94,16.94,0,0,1,2.6-2.48C148.73,131.22,148.14,131.08,148,131.17Z"/><path class="cls-14" d="M152.06,123.93a19.37,19.37,0,0,0-2.52.64l-.53.19a5.75,5.75,0,0,1,2.35-1.59c.21-.09,0-.28-.18-.22a5.32,5.32,0,0,0-2.34,1.81s0,0,0,0a3,3,0,0,0-1.07.6c-.11.1,0,.2.11.21,1.5.17,3.19-.65,4.55-1.2C153,124.21,152.37,123.87,152.06,123.93Z"/><path class="cls-14" d="M154.09,126.09c-1.47-.42-3.8-.42-4.89.86-.09.09.09.15.15.14,1.51-.1,2.93-.46,4.46-.43C154.15,126.67,154.63,126.24,154.09,126.09Z"/><path class="cls-14" d="M156.85,128.9a5.27,5.27,0,0,0-3.34-.91,3.42,3.42,0,0,0-2.54.8s0,.06,0,.06c.77.13,1.55,0,2.33,0a16,16,0,0,1,3,.58C156.66,129.55,157.31,129.22,156.85,128.9Z"/><path class="cls-14" d="M114.58,131.11a5.88,5.88,0,0,0-4.31-.51.46.46,0,0,0-.32.24l-.24-1.17h0a4.45,4.45,0,0,1,3.82-.69c.36.1.86-.33.36-.5a3.85,3.85,0,0,0-4.24,1c-.29-1.29-.63-2.57-.89-3.82,0-.06-.16,0-.15,0,.1,1.2.1,2.45.12,3.7-.22-.77-.47-1.52-.72-2.23-.1-.27-.75-.16-.73.15,0,.58.08,1.18.13,1.79l-.48-1.35s-.06,0,0,0a14.48,14.48,0,0,1,.62,2.41c0,.43.08.85.13,1.28h0a5.43,5.43,0,0,0-4.45,1.35c-.41.4.33.57.62.43a13.44,13.44,0,0,1,3.79-1.32l.13-.05c0,.38.11.76.17,1.13.06.59.12,1.17.19,1.77,0,.1.11.14.22.13.09.33.18.65.29,1s.85.24.93-.07c.2.18.69.17.72-.12a14.69,14.69,0,0,0-.2-4.43.59.59,0,0,0,.33.11,15.89,15.89,0,0,1,3.63.39C114.33,131.83,115.16,131.41,114.58,131.11Z"/><path class="cls-14" d="M151.64,131.17a13.11,13.11,0,0,0-3.25-4.65,22.44,22.44,0,0,0-4.7-4.16s-.19,0-.15.08a31.58,31.58,0,0,0,2.9,3.83c-.06,0-.23,0-.18.07l1.77,2.74c0,.07.22,0,.17-.05l-1.74-2.73q.31.38.6.75c.32.42.63.84.94,1.27l1.48,2.49c0,.06.18,0,.14,0l-.76-1.28a13,13,0,0,0,1.82,2C150.88,131.62,151.78,131.6,151.64,131.17Z"/><path class="cls-14" d="M145.43,136.2l-.21,0-.07-.05a5.38,5.38,0,0,0-5.74.14c-.11.08-.13.16-.11.23h0c-.06,0-.08.07,0,.07l.13,0a.62.62,0,0,0,.5.1l.11,0c.81.09,1.6.15,2.4.19a8.46,8.46,0,0,0-1.62.34c-.07,0-.09.09,0,.12a8.56,8.56,0,0,0,4.54-.19c.26-.06.29-.24.19-.37C145.83,136.65,145.9,136.24,145.43,136.2Z"/><path class="cls-23" d="M117.5,119.52c-.08.5-.17,1-.26,1.5,0,0,.11,0,.12,0,.09-.5.17-1,.26-1.5C117.63,119.47,117.51,119.47,117.5,119.52Z"/><path class="cls-24" d="M118,119c-.92,1.11-2.06,2.37-2.31,3.81-.06.32.5.3.62.11.77-1.22,1.1-2.63,1.84-3.88C118.23,119,118.07,119,118,119Z"/><path class="cls-13" d="M126,116.8a8.89,8.89,0,0,0-6.7-2.11,8.58,8.58,0,0,0-5.65,2.74c-2,1.43-3.09,4.8-1.48,6.84.23.29.94.26,1-.19,0-.87-.07-1.71,0-2.56a7.73,7.73,0,0,1,1.14-2.64,6.94,6.94,0,0,1,5.29-2.94,6.55,6.55,0,0,1,5.21,2.23c1.29,1.43,1.37,3.23,2.32,4.77a.84.84,0,0,0,1.36-.14C129.34,120.75,127.5,118.11,126,116.8Z"/><path class="cls-13" d="M143,120.48a9,9,0,0,0-4-1.45c-1.85-.17-5.13.55-5.07,2.94a.35.35,0,0,0,.2.27c.09,0,.26.17.37.13.58-.22.7-.55,1.13-1a3.68,3.68,0,0,1,3.94-.76c1.86.57,3.15,2.42,5.05,2.66.29,0,.76-.13.75-.49C145.38,121.71,143.86,121,143,120.48Z"/><path class="cls-13" d="M143.43,146.88a8.48,8.48,0,0,0-6.34-5.5,9.11,9.11,0,0,0-5.29-.55c-2,.35-5.18,1.73-6.29,3.81-.59.68-.92,1.45-.43,2.16a.11.11,0,0,0,.16,0c.59-.44.94-1.07,1.51-1.56a7.78,7.78,0,0,1,2.62-1.39,15,15,0,0,1,5-1.21,6.48,6.48,0,0,1,2.3.43,6.83,6.83,0,0,1,1.32,1.1.93.93,0,0,0,.8.11,12.44,12.44,0,0,1,2.67,3C141.86,147.82,143.69,147.73,143.43,146.88Z"/><path class="cls-13" d="M170.12,126.53c-.43-2.78-2.35-5.21-5.29-5.33-2.45-.1-5.93,1-7.37,3.14-1.28,1.86-1.24,5.23,1.09,6.19.09,0,.28,0,.27-.1,0-1.38-.66-2.57-.35-4,.45-2,2.1-3,4-3.56,2.19-.68,3.93-.24,5,1.89a6.33,6.33,0,0,1,.7,2.4c0,.57-.09,2.27-.88,2.47-.2.06-.52.34-.26.55a1.71,1.71,0,0,0,2.15-.17A3.79,3.79,0,0,0,170.12,126.53Z"/><path class="cls-25" d="M120.5,122.14l-.23-.12c.28-.65.68-1.65.35-2.26-.06-.12-.27-.1-.35,0a6.1,6.1,0,0,0-1.09,1.71,20.41,20.41,0,0,0-2.7-1.32c-.21-.08-1,.12-.72.46a9.52,9.52,0,0,0,2.5,2.13,7.94,7.94,0,0,1-1.22,1.17c-1,.72,1,1.55,1.7.65.25-.33.49-.66.71-1,.9.62,2,1.33,3,1a1,1,0,0,0,.65-.45C123.45,123.32,121,122.37,120.5,122.14Z"/><path class="cls-25" d="M165.66,128.61a7,7,0,0,0-1.59-.87,7.51,7.51,0,0,0,1.11-3c0-.08-.12-.08-.16,0a30.16,30.16,0,0,0-2.1,2.28l-.11.12a13.7,13.7,0,0,1-2-1.31s-.18,0-.14.05a8.13,8.13,0,0,0,1.54,1.92c-.51.54-1,1.07-1.53,1.61-.32.36.12.76.45.85a1.32,1.32,0,0,0,1.33-.37,13,13,0,0,0,1-1.23,4,4,0,0,0,1.78.42C165.41,129.07,166,128.86,165.66,128.61Z"/><path class="cls-25" d="M137,147.51a19.06,19.06,0,0,0-3-1.31l.36-.32c.06,0,1.69-1.19,1.15-1.38-.89-.3-2.1.6-2.84,1.09a6.6,6.6,0,0,0-2.12-.73s-.09,0-.08.06a2.67,2.67,0,0,0,1.24,1.32,6.84,6.84,0,0,0-2.1,2.08c-.53,1,1.16,1.06,1.66.64a23.09,23.09,0,0,0,1.84-1.86,10.92,10.92,0,0,0,3,1.38C136.66,148.62,137.87,148,137,147.51Z"/><path class="cls-25" d="M133.32,125.89c.05-.08,0-.11-.11-.1a1.16,1.16,0,0,0-.14-.47.11.11,0,0,0-.09,0,2,2,0,0,0-1.53,1.84,1.92,1.92,0,0,0,1.29,2.23c.28.1.74,0,.75-.38a14.73,14.73,0,0,0-.33-2,6.11,6.11,0,0,1,.05-.86A1.45,1.45,0,0,1,133.32,125.89Z"/><path class="cls-13" d="M134.65,125.48a2.73,2.73,0,0,0-.41.22,1.29,1.29,0,0,0,0-.19c0-.06-.11-.06-.14,0a2.55,2.55,0,0,0-.26.55,3.28,3.28,0,0,0-.84,1.19,2.6,2.6,0,0,1,.27-.75,5,5,0,0,1,.48-.85s0-.06,0-.06a2.91,2.91,0,0,0-.69.13s0-.06-.06-.15-.19-.14-.28-.14c-.85,0-1.21.66-1.28,1.44a3,3,0,0,0,0,.79,1.84,1.84,0,0,0,1.1,2.16c.17.06.53,0,.53-.21s-.06-.68-.09-1a1.62,1.62,0,0,0,.67.77c.21.15.84,0,.8-.31,0-.08,0-.17,0-.26s.28,0,.31-.12a2.9,2.9,0,0,0-.2-1.48c-.08-.37-.1-.75-.15-1.12a1.57,1.57,0,0,1,.44-.5C134.82,125.49,134.69,125.46,134.65,125.48Z"/><path class="cls-13" d="M135.36,126.77a9.41,9.41,0,0,0-.3-1.16c0-.06-.14,0-.16,0a2.91,2.91,0,0,0,.33,2.53c.08.12.42.11.4-.08A8.46,8.46,0,0,0,135.36,126.77Z"/><path class="cls-13" d="M141.09,132.71a10.78,10.78,0,0,1-3.91-3.37c0-.05-.18,0-.14,0a7.76,7.76,0,0,0,1,1.56,6.29,6.29,0,0,1-1.82-2.09c0-.07-.19,0-.18,0a2.59,2.59,0,0,0,1.72,2.49c.12,0,.44-.07.46-.21a6.48,6.48,0,0,0,2.56,1.82C140.94,133.06,141.38,132.86,141.09,132.71Z"/><path class="cls-26" d="M107.48,127.93l.69,6.42c0,.44,1,.34,1-.1l-.68-6.42C108.42,127.39,107.44,127.49,107.48,127.93Z"/><path class="cls-26" d="M104.06,127.16c-2.78,2.67-3.92,7.3-1.58,10.62.24.35,1.14-.08,1-.5-1.3-3.33-1.27-7,1.33-9.76C105.27,127,104.41,126.82,104.06,127.16Z"/><path class="cls-26" d="M114.62,126.92a9.91,9.91,0,0,0-7.67-1.49c-.52.11-.27.64.18.59A8.88,8.88,0,0,1,114,128a5.17,5.17,0,0,1,.58.56c-.3.08-.54.3-.31.56a6.45,6.45,0,0,1,1.59,4.58,10.16,10.16,0,0,1-1.63,4.53c-.32.59.68.58,1,.37a5.43,5.43,0,0,0,2.13-5.12C118.64,131.08,116.55,128.27,114.62,126.92Z"/><path class="cls-26" d="M149.1,132.42c-2.5.27-5.06-.18-6.55-2.41a4.44,4.44,0,0,1,.89-6.11c.48-.36-.37-.67-.7-.48a5.08,5.08,0,0,0-1.61,7.44,7.14,7.14,0,0,0,8.18,2.23C149.88,132.89,149.65,132.35,149.1,132.42Z"/><path class="cls-26" d="M152.37,130a21.87,21.87,0,0,0-3.58-3.42,15,15,0,0,0-4-2.56c-.15,0-.67.08-.5.32a20.44,20.44,0,0,0,3.3,2.83c.86.75,1.7,1.52,2.55,2.28l.29.5c.06.11.23.11.36.07l.48.41C151.59,130.61,152.73,130.41,152.37,130Z"/><path class="cls-26" d="M155.61,125.05a11.9,11.9,0,0,0-11.36-1.85c-.43.15-.27.6.17.52a15,15,0,0,1,10.29,1.92C155.05,125.83,156.1,125.47,155.61,125.05Z"/><path class="cls-26" d="M144,138.21a26.93,26.93,0,0,1-8.38-1.59c-.08,0-.25,0-.14.11a18.27,18.27,0,0,0,8.46,2.07C144.36,138.78,144.48,138.24,144,138.21Z"/><path class="cls-26" d="M128.89,125.77c.05-.1.1-.2.16-.3s-.31-.24-.43-.11a6.62,6.62,0,0,0-.54.69c-1.43,1.24-2.28,3.39-1.33,5.15.14.28.88.2.84-.17a8.62,8.62,0,0,1-.07-1.43.35.35,0,0,0,.24-.2c.19-.64.22-1.32.41-2,0-.15.1-.29.15-.44a4.43,4.43,0,0,1,.73-.78C129.31,126,129.14,125.83,128.89,125.77Z"/><path class="cls-17" d="M105.38,129.48a1.23,1.23,0,0,0-1.44.89,6.07,6.07,0,0,0-.08,1.27,3.71,3.71,0,0,0,.06,2.28c.1.59.14,1.44.67,1.83a1.45,1.45,0,0,0,1.65-.14,2,2,0,0,0,1.07-.45c1.06-.84.77-2.18.39-3.3A3.22,3.22,0,0,0,105.38,129.48Z"/><path class="cls-17" d="M115.28,133a4.78,4.78,0,0,0-.38-.87.71.71,0,0,0-.1-.14,1.22,1.22,0,0,1-.07-.17,8.36,8.36,0,0,0-.34-1.42h0a1.87,1.87,0,0,0-.07-.22c-.18-.51-1-.61-1.64-.42l0,0a1.83,1.83,0,0,1-.08-.25.68.68,0,0,0-.68-.41l-.3-.2a.69.69,0,0,0-.23-.09c-.08-.17-.16-.35-.25-.51-.3-.54-1.56-.45-1.71.18a6.93,6.93,0,0,0,.73,5.19,1.34,1.34,0,0,0,1.5.28c.13.56.26,1.13.41,1.69.25,1,2.18.91,2.45,0a8.65,8.65,0,0,0,.3-1.55A.79.79,0,0,0,115.28,133Z"/><path class="cls-17" d="M148.44,130.42a4.62,4.62,0,0,0-.63-1,6.47,6.47,0,0,0-.5-1.14,6.63,6.63,0,0,0-2.84-2.71c-.5-.25-2.19-.13-2,.78a8.64,8.64,0,0,0,.64,1.78.59.59,0,0,0,0,.14,3.77,3.77,0,0,0,1.42,3.07c.83.65,2.22,1.13,3.09.28l.1-.12a1.29,1.29,0,0,0,.44-.25.72.72,0,0,0,.19-.25A.47.47,0,0,0,148.44,130.42Z"/><path class="cls-17" d="M155.68,127.41c-.45-.25-.91-.48-1.37-.69a3.86,3.86,0,0,0-1.85-1.06,1.78,1.78,0,0,0-.78,0c-.38-.32-.76-.64-1.12-1-.62-.59-2.46-.06-2,.78-.33.22-.44.54,0,.93a9.21,9.21,0,0,0,3.05,1.92l.9.55a1.31,1.31,0,0,0,.83.08,1.78,1.78,0,0,0,.49.17,1.91,1.91,0,0,0,2.28-1C156.19,127.83,155.92,127.54,155.68,127.41Z"/><path class="cls-26" d="M107.73,132.48a7.77,7.77,0,0,0-1.23-1.12,3.79,3.79,0,0,0-1.7-2.24.7.7,0,0,0-1,.43c-.28,1.63,2,3.42,3.51,3.47C107.51,133,107.94,132.76,107.73,132.48Z"/><path class="cls-26" d="M108.3,134.82a8.84,8.84,0,0,1-1.43-.37q-.33-.13-.66-.3c-.37-.84-1-.84-1.77-1.1a1.14,1.14,0,0,0-.26-.09v0c-.55-.08-1.35.22-1.37.83-.06,1.28,2.11,2.06,3.15,2.27a5.59,5.59,0,0,0,2.08,0c.37-.07,1.3-.34,1.17-.87C109.12,134.87,108.6,134.87,108.3,134.82Z"/><path class="cls-26" d="M112.22,128.62a.74.74,0,0,0-.57-.53,1.32,1.32,0,0,0-1,.11c-.24.15-.46.33-.44.64a3.82,3.82,0,0,1-.05,1.12,7.86,7.86,0,0,0-.3,1c0,.43.51.56.84.44A2.5,2.5,0,0,0,112.22,128.62Z"/><path class="cls-26" d="M113.46,130.17a1.17,1.17,0,0,0-1.16,0,1.54,1.54,0,0,0-.77,1.21q-.18.7-.33,1.41a3.58,3.58,0,0,0-.22,1.47c.11.42.71.36,1,.16a4.48,4.48,0,0,0,1.21-1.72,5.38,5.38,0,0,0,.64-2.06C113.83,130.42,113.6,130.26,113.46,130.17Z"/><path class="cls-26" d="M145.88,127.73c-1.15,0-1.77-.89-2.77-1.23-.43-.15-1.54.07-1.43.73s1.17,1.22,1.86,1.41a5.34,5.34,0,0,0,2.45.12c.29-.06.76-.21.72-.6S146.17,127.72,145.88,127.73Z"/><path class="cls-26" d="M148.46,130.3a11.43,11.43,0,0,1-3.28-.49,1.33,1.33,0,0,0-1.51.51c-.26.57.36.82.81.9a12,12,0,0,0,4.06-.12C149.29,131,149.21,130.27,148.46,130.3Z"/><path class="cls-26" d="M149.42,123.17c-.27-.17-1-.09-1,.29-.1.55.24,1,.39,1.51a10.6,10.6,0,0,1,.23,1.68c.06.58,1.31.51,1.4,0C150.58,125.57,150.4,123.78,149.42,123.17Z"/><path class="cls-26" d="M153.24,124.33c-.14-.71-1.64-.67-1.78,0-.19,1-.7,7,1.72,5.42.39-.25.37-.54.16-.73l0-.13a.24.24,0,0,0-.12-.17c0-.6.15-1.76.15-2A11.9,11.9,0,0,0,153.24,124.33Z"/><path class="cls-26" d="M145.12,136.05a5.78,5.78,0,0,1-3-.09.92.92,0,0,0-.64-.17c-.84.05-1.66.15-2.49.28-.25,0-.65.19-.62.51s.47.39.72.38c.84-.05,1.66-.13,2.49-.25l.1,0a5.85,5.85,0,0,0,3.85.15C146.39,136.61,145.79,135.86,145.12,136.05Z"/><path class="cls-27" d="M176.22,127a.4.4,0,0,0-.17-.38l-.1-.06a15.17,15.17,0,0,0-.62-2.1l-.12-.28a4.8,4.8,0,0,0,.24-.94c.14-.9.42-2.68-.09-3.47s-1.82-.44-2.61-.58c-2.16-.4-.94-2.38-1.06-3.85a4.54,4.54,0,0,0-3.38-4,1.78,1.78,0,0,0-2.09.76,2.46,2.46,0,0,0,.18,2.39c-.56-.33-1.14-.64-1.73-.93a5.07,5.07,0,0,0-2.07-1.8,1.93,1.93,0,0,0-1.89.18c-.28-.1-.56-.19-.85-.27-1.85-.56-3.75-1-5.68-1.4a6.79,6.79,0,0,0-1.18-.39,2.45,2.45,0,0,0-1.11,0,73.47,73.47,0,0,0-8.63-.83,1.78,1.78,0,0,0-.34-.45,3.36,3.36,0,0,0-2.65-.74c-.49.06-1,.34-1.44.39-.71.06-1-.49-1.57-.78a3.21,3.21,0,0,0-2.71,0,3.65,3.65,0,0,0-1.87,1.86c-1.13.12-2.27.28-3.4.48-.71-1.15.49-2.57-.27-3.9a1.45,1.45,0,0,0-2.14-.35c-1.13.74-1.72,4-3.42,2.69-.75-.6-.9-1.73-2-1.94s-2.54.74-3.26,1.44a3.18,3.18,0,0,0-.75,2.93c.05.67.23,2.92-1.76,1.73a3,3,0,0,1-1.19-2.14,6,6,0,0,0-.26-1.75c-.59-1.13-1.64-.21-2.61-.26a.23.23,0,0,0-.25.24c.07.51.16,1,.24,1.55a5.71,5.71,0,0,1,.22,1.82c-.21.74-1,.29-1.56,0a5.1,5.1,0,0,0-.9-.39,4.87,4.87,0,0,0-3.74.55c-2.09,1.27-2.11,3.92-1.06,5.85a2.54,2.54,0,0,0-2.09,3.43,2.68,2.68,0,0,0,1.9,1.66,30.8,30.8,0,0,0-4.05,6.14,26,26,0,0,0-1.66,4.4c-.15.53.73.79.92.28l.21-.55-.06.58a13.38,13.38,0,0,0,.49,4.95.76.76,0,0,0-.11.14s0,.07,0,0l.08-.09c1.34,4.5,4.9,8.22,9.06,10.55,6.44,3.6,14,4.23,21.26,4.21a96.37,96.37,0,0,0,21.64-2.07c6.53-1.54,12.85-4.25,17.74-8.95a23.4,23.4,0,0,0,3.85-4.79,49,49,0,0,1-3.36,10.41,28.73,28.73,0,0,1-15.17,14.71c-6.86,2.82-14.5,3.33-21.83,2.82a58.6,58.6,0,0,1-11.26-1.64,22.11,22.11,0,0,1-10.59-6.65A65.76,65.76,0,0,1,98,133.5s0,0,0,0A66.81,66.81,0,0,0,102.56,146a61,61,0,0,0,6.88,10.59,25.69,25.69,0,0,0,8.91,7.47c3.78,1.75,8,2.35,12.13,2.82,7.53.85,15.36.7,22.64-1.57a29.9,29.9,0,0,0,17-13.23c4.33-7.21,6.13-16.2,6.44-24.52A.5.5,0,0,0,176.22,127ZM168,112.14a2.81,2.81,0,0,1,1.56.72,3.62,3.62,0,0,1,1.3,3.12,15,15,0,0,1-.33,1.52,23.17,23.17,0,0,0-3.13-2.43.33.33,0,0,0,.05-.36c-.13-.27-.25-.53-.38-.79C166.6,113.12,166.91,112.53,168,112.14Zm-7.73.8c-.08.92.08,1.94-1.41,1.39-1-.39-1.57-1.52-2.27-2.39C157.84,112.22,159.07,112.55,160.28,112.94Zm-9.73-2c-.42.87-.92,3-1.88,3.11a.67.67,0,0,0,.07-.17,3.17,3.17,0,0,0-1.58-3.33Q148.85,110.67,150.55,110.89Zm-5.7-.58a.9.9,0,0,1-.8,0Zm-4.65-1.53a2.44,2.44,0,0,1,1.49.18h-2.11A3,3,0,0,1,140.2,108.78Zm-4.31-.75c.86,0,1.21.59,1.77,1l-1.55.06c-.79,0-1.57.09-2.36.16A2.38,2.38,0,0,1,135.89,108Zm-2.7,5.12a7.54,7.54,0,0,1,.07-2.71,67.77,67.77,0,0,1,9.45-.25.43.43,0,0,0,0,.07c.24.55.45,1,1.07,1.19s1.41-.29,2.13-.22a2.05,2.05,0,0,1,1.72,2.43.13.13,0,0,0,0,.06.3.3,0,0,0-.12.45,1.47,1.47,0,0,0,1.78.45c1-.38,1.27-1.44,1.58-2.35a2.24,2.24,0,0,1,.84-1.21l.78.11q1,.17,2.07.36a4.93,4.93,0,0,1,1.15.89c.86.9,1.37,2.19,2.55,2.77a2.2,2.2,0,0,0,2.33-.16,1.64,1.64,0,0,0,.55-.77,3.2,3.2,0,0,0,.08-.59,1.93,1.93,0,0,0,0-.41,31.31,31.31,0,0,1,3.42,1.45l.06.06a2.94,2.94,0,0,0,1.74,1,20.21,20.21,0,0,1,4.72,4,17.69,17.69,0,0,1,2.93,4.66,2.24,2.24,0,0,0-.36,1.5c.15.51.7.87,1.19,1.18l0,.14a9.51,9.51,0,0,0-1.64,2.28,17.72,17.72,0,0,0-2.52-.21,6,6,0,0,0-1-6.4,8.65,8.65,0,0,0-7.82-2.2c-2.08.4-5.22,1.8-6.09,4a9.34,9.34,0,0,0-6.35-3.52,10.24,10.24,0,0,0-4.36.49.22.22,0,0,0-.05-.24,9.29,9.29,0,0,0-6.14-2.55,7.5,7.5,0,0,0-3.11.49c-1.12.47-1.78,1.47-2.71,2.2a.11.11,0,0,0,.13.17,23.16,23.16,0,0,1,2.58-1.83,7.44,7.44,0,0,1,3.1-.51,9.47,9.47,0,0,1,5.9,2.34l0,0a10.45,10.45,0,0,0-3.64,2.27,7,7,0,0,0-1.17,1.51c-1.42-2.81-5.71-4.14-8.56-3.69a8.88,8.88,0,0,0-3.79,1.54,2.23,2.23,0,0,0-.08-1.26,3,3,0,0,0-.14-.36c.44.2.76.43.69.71a.06.06,0,0,0,.12,0,1.07,1.07,0,0,0-.55-1.33c-.59-.38-1.26-.42-1.73-1a1.65,1.65,0,0,1-.2-1.82A.37.37,0,0,0,126,118a1.55,1.55,0,0,1,1.08-.5.45.45,0,0,0,.32-.71,3,3,0,0,1,.78-4.13,3.18,3.18,0,0,1,4.1.85A.49.49,0,0,0,133.19,113.15Zm23.74,22.31a3.55,3.55,0,0,0,1.08.92c.3.19.63.33.91.54.59.44.9.7.17,1.18s-.58.32-1.17,0c-.22-.13-.44-.27-.66-.38a4,4,0,0,0-1.25-.45,5.25,5.25,0,0,0-2.5.39,12,12,0,0,0-1.29.59,3.71,3.71,0,0,1,1.62-3.63,7.65,7.65,0,0,1,2.82-1.08A2.16,2.16,0,0,0,156.93,135.46Zm-.13-2.27c-2.5-.77-6,2.66-4.75,5.12a11.31,11.31,0,0,1-2.49,1v0a4.44,4.44,0,0,0-1-2.48c.44-2,2.67-3.64,4.53-4.23a9.37,9.37,0,0,1,3.65-.34c.22,0,.43.06.64.1A3,3,0,0,0,156.8,133.19Zm-4.74-1c-1.46.65-3.73,2.36-3.91,4.2a5.6,5.6,0,0,0-1-.76,7.34,7.34,0,0,1,2.17-2.88,11.35,11.35,0,0,1,3.81-1.69,12.36,12.36,0,0,1,4.72-.48,6.51,6.51,0,0,1,2.52.91,4.43,4.43,0,0,0-2,.22A9.73,9.73,0,0,0,152.06,132.19Zm-10.19,8.75a22.72,22.72,0,0,1-5.24-.83,7.94,7.94,0,0,1-3.77-2.82c.49.07,1,0,1.51.08a21.26,21.26,0,0,1,2.62.4c1.76.38,3.45,1.25,5.26,1.43h0A4.05,4.05,0,0,0,141.87,140.94Zm.48,1.93a2.45,2.45,0,0,0-1.58,1.21l-.1.17a5.16,5.16,0,0,0-2.11-2.71,10.33,10.33,0,0,0,3.37.11A3.93,3.93,0,0,0,142.35,142.87Zm-22-.41c-.53,0-.82.27-1.29.4l-.34.24-1.29-.4a1.77,1.77,0,0,1-.14-.23,1.78,1.78,0,0,0,.69-1.92,2.42,2.42,0,0,0-.6-1.06,6.49,6.49,0,0,0,1.68-3.32c.79.6,2.37,1.14,3.17.29a4.74,4.74,0,0,0,1.22.74,2.22,2.22,0,0,0-1.05.49,1.56,1.56,0,0,0-.1,2.05,4.11,4.11,0,0,0,2.14,1.73c.88.33,2.37,0,3.3.34a12.08,12.08,0,0,0-4.25,4.59l-.56.14C122.9,144.77,122.47,142.55,120.33,142.46Zm9.08-31.5a2.86,2.86,0,0,0,.42.24,3.59,3.59,0,0,0-2.17.67,4,4,0,0,0-1.24,4.81,2.2,2.2,0,0,0-.69.33c-1.14-2.58-4.09-3.2-6.89-2.93A44.54,44.54,0,0,1,129.22,111Zm-4.31,6.67a2.29,2.29,0,0,0-.38,1.56,2.74,2.74,0,0,0,1,1.76,5.34,5.34,0,0,0,1.14.48,3.31,3.31,0,0,1,.19.87c0,.42-.17.92.08,1.28a.22.22,0,0,0,.15.1c-.22.18-.43.36-.64.56-.8.8-1.87,2-1.7,3.23a5.33,5.33,0,0,0-1.63-.94c-1.87-.67-5.39,0-5.14,2.37a8.41,8.41,0,0,0-1.15-1.61,8.59,8.59,0,0,0-5-2.62c-.94-3.53,0-7.35,3.71-8.83C118.62,114.68,123.79,114,125.1,117.63Zm-3.27,18.47c-.38.06-.75.21-1.14.24a3,3,0,0,1-1.61-.29h0a8.53,8.53,0,0,0,0-3.34,7.19,7.19,0,0,0-.69-3.34c-.29-1.6,1.51-2.37,2.76-2.46a4.56,4.56,0,0,1,2.32.48,4.05,4.05,0,0,1,1.85,1.81,2.5,2.5,0,0,1,.07,1.93,2.51,2.51,0,0,0-.57-.39,3,3,0,0,0-3.91,2.7A3.47,3.47,0,0,0,121.83,136.1Zm-3.14-1.54a7.12,7.12,0,0,1-.12,1,13.94,13.94,0,0,1-1.52,3.67c-1.11-.71-2.84-.27-4.11.29,0-.38.06-.76.06-1.14,2.33.44,4.71-1.52,5.59-3.56C118.63,134.74,118.66,134.65,118.69,134.56Zm6.79,6.6a3.48,3.48,0,0,1-1.42-.58c-.82-.54-1-.75-.85-1.72s.16-.77,1-1a4.11,4.11,0,0,0,.93-.33c.32-.17.36-.73-.08-.77a3.39,3.39,0,0,1-3.35-2.71,2.23,2.23,0,0,1,3.56-2.16c1.21.9,2.24,2.45,3.9,1.5a.32.32,0,0,0,.11-.39,2.12,2.12,0,0,1,3.56-2.22c.11.11.32.17.42,0,.58-.86,1.57-2.42,2.82-2.07s.88,1.15,1.29,2.08a2.85,2.85,0,0,0,.83.9,6,6,0,0,1,1.7,2.49c.13.35.68.13.54-.22a6.82,6.82,0,0,0-1.82-2.47c-.76-.69-.26.08-.93-1.79,0-.11,0-.26-.07-.37a1.8,1.8,0,0,0-.45-.67c-1.56-1.37-3.23.27-4.15,1.55a2.7,2.7,0,0,0-4.07.39,2.75,2.75,0,0,0-.46,1.1c0,.21.12,1.14.06,1.21-.53.6-1.69-.47-2.63-1.32.71-.63.5-1.89.11-2.7a2.51,2.51,0,0,0-.26-.45,7.5,7.5,0,0,1,5.5-3.56,6,6,0,0,0-.25,4.5.08.08,0,0,0,.16,0,7.67,7.67,0,0,1,.54-4.51l.24,0a9.64,9.64,0,0,1,6.82,2.43c.29.23.62-.19.36-.44a9.64,9.64,0,0,0-7.92-2.66c-2.06.31-4.82,1.58-5.64,3.7-.25-1.52,1.75-3.14,2.87-3.86a8.18,8.18,0,0,1,4.18-1.29,8,8,0,0,1,4,1,15.61,15.61,0,0,1,3,2.69c-1,3,.75,6.37,3.62,8.11-.33,0-.65,0-1,0a32.34,32.34,0,0,0-6.44.57,4.27,4.27,0,0,0-2.95,1.62c-.12,0-.24,0-.36.09v0s-.06,0,0,0h0a2.43,2.43,0,0,0-.49.22s0,0,0,0a2.05,2.05,0,0,0,.67.23,6.79,6.79,0,0,0,2.44,2.88A9.35,9.35,0,0,0,133,140a10.56,10.56,0,0,0-4.8,1.55C127.44,141,126.38,141.31,125.48,141.16ZM156.94,130a14.08,14.08,0,0,0-3.84.43c-2.1.53-6.51,2.19-6.39,5l-.38-.17a.22.22,0,0,0-.13-.14c-2.25-1-4.51-2.13-5.48-4.58s0-4.92,2.15-6.51a10.19,10.19,0,0,1,12.89.92l0,.12A6.52,6.52,0,0,0,156.94,130Zm-20.31,7a14.89,14.89,0,0,0-3.26-.32c2.09-1.32,5.31-1.15,7.62-1.22,2.48-.08,5.82.19,7.15,2.43a3.89,3.89,0,0,0-5.48.76.41.41,0,0,0-.28-.2C140.45,138,138.6,137.26,136.63,137Zm22.19-6.72a.25.25,0,0,0-.27-.23c-1.28,0-1.57-2-1.73-3a3.27,3.27,0,0,1,1.22-3.38,8.71,8.71,0,0,1,5.17-2.08,7.47,7.47,0,0,1,5.59,1.81c1.75,1.69,1.56,3.88.76,5.94a5.82,5.82,0,0,0-2,.69,4.84,4.84,0,0,0-1.47,1.29,4.14,4.14,0,0,0-.94-1.3.51.51,0,0,0-.63,0,6.89,6.89,0,0,0-2,1.94c-.34-.1-.7-.2-1.07-.28A5.25,5.25,0,0,0,158.82,130.23ZM132.15,112a4.19,4.19,0,0,0-1.88-.73.39.39,0,0,0,.14-.44c.62-.09,1.25-.18,1.87-.25A7.43,7.43,0,0,0,132.15,112Zm-27.94,9.9c-1.88-1-.66-3.27,1.12-3.24.37,0,.4-.48.2-.68a3.71,3.71,0,0,1,2-6.11,4.69,4.69,0,0,1,3.15.77,2.12,2.12,0,0,0,1.71.27c.14,0,.19-.19.19-.31a11,11,0,0,0-.67-4l.4-.13.63-.23,1.14.78c.31.47.14,1.52.38,2.11a2.41,2.41,0,0,0,2.16,1.65,1.5,1.5,0,0,0,1.42-1.41c.12-.8-.23-1.6.1-2.39a3.77,3.77,0,0,1,2.33-1.79c2-.49,1.8,1.47,3.26,2a1.89,1.89,0,0,0,2.22-1c.41-.58.87-2.13,1.67-2.16l.83.62a4.8,4.8,0,0,1-.08.85,8.46,8.46,0,0,0-.14,1,3,3,0,0,0,.31,1.36c-8.86,1.67-17.43,5.6-23.41,12.22A2.8,2.8,0,0,1,104.21,121.87Zm1.83,1.28c1.2.06,2.47.19,2.87,1.37a.16.16,0,0,0,.3-.08,2.42,2.42,0,0,0-2.25-2.1l-.14,0a35.2,35.2,0,0,1,4.76-4.11,6.18,6.18,0,0,0,0,6.4,12.37,12.37,0,0,0-8.51,2.36A31.79,31.79,0,0,1,106,123.15Zm-5.56,13.75a14.31,14.31,0,0,1,.38-6.09c.25-.51.51-1,.77-1.49a18.11,18.11,0,0,1,6-3.43,9.13,9.13,0,0,1,7.88,1.23,6.78,6.78,0,0,1,2.65,6.41c-.51,2.68-2.68,4.05-5.12,4.58a4.57,4.57,0,0,0-1-3,3,3,0,0,0-3.43-.9.4.4,0,0,0-.24.41c.07.88.14,1.76.22,2.64a4.31,4.31,0,0,1,.12,1.32.83.83,0,0,1-1.17.47c-1-.33-1.7-1.4-2.77-1.72a4.12,4.12,0,0,0-4,.88A13,13,0,0,1,100.48,136.9ZM117,151.36c-6.82-1.58-14.29-5.85-16.22-13a3.83,3.83,0,0,1,3.93-.58c1.14.51,1.9,1.74,3.13,2.08.48.14,1.28.12,1.55-.4a5.37,5.37,0,0,0-.08-2c-.06-.86-.13-1.72-.2-2.59a2.41,2.41,0,0,1,2.74,1.61,7.47,7.47,0,0,1,.16,3.73c0,.29.27.62.58.46a5.68,5.68,0,0,1,2.71-.93,1.93,1.93,0,0,1,1.4.47l.4,1.17a1,1,0,0,1-.39.46,1.18,1.18,0,0,0-1.46,0,.43.43,0,0,0,0,.68,1.47,1.47,0,0,0,1.17.35,14.13,14.13,0,0,0,.9,1.17,1.34,1.34,0,0,0,1,.22c1-.21,1.4-1.49,2.8-.58,1.09.71.93,2.4.85,3.51a.46.46,0,0,0,.61.49,4.63,4.63,0,0,1,3.87,0c1.37.67,2,2,2.93,3.15a4.59,4.59,0,0,0,2.65,1.76A60.2,60.2,0,0,1,117,151.36Zm16.19,1.18a2.92,2.92,0,0,0,.79-.32c.46-.26,0-1.06-.45-.81-2.74,1.42-4.21-3.07-6.07-4.28a5.34,5.34,0,0,0-3.81-.76A36.85,36.85,0,0,1,127,143a14.76,14.76,0,0,1,1.22-.85l0,0a.2.2,0,0,0,.33-.23,10.16,10.16,0,0,1,3.73-1.32,8.3,8.3,0,0,1,4.73.79,8.13,8.13,0,0,1,3.3,3.47l0,0a7.32,7.32,0,0,0-.18,1.35c-.13,1.5-.41,2.42-1.85,3.13-1,.51-2.09.94-2.1,2.24a2.08,2.08,0,0,0,.13.75ZM174.74,133a16.76,16.76,0,0,1-2.58,5.35c-3.75,5.26-9.56,8.75-15.59,10.81a70.83,70.83,0,0,1-19.17,3.23l-.69,0a1.83,1.83,0,0,1,.33-1.45,5.45,5.45,0,0,1,1.76-1,3.59,3.59,0,0,0,1.57-1.26c.68-1.06.52-6,2.74-4.87.37.19.8-.33.52-.65a3.1,3.1,0,0,1,.48-4.77,3.15,3.15,0,0,1,2.22-.44,2.69,2.69,0,0,1,1.23.55,1.92,1.92,0,0,1,.54.85,2.64,2.64,0,0,1-.72-.27.4.4,0,0,0-.56.3c0,.57-.07,1.14-.1,1.71a.45.45,0,0,0,.47.5,1.86,1.86,0,0,0,1.83-1.39,9.08,9.08,0,0,0,2.91-.93,11.68,11.68,0,0,1,2.94-1.13c1.36-.24,2.17.58,3.35,1.08,1.48.62,2.84-.53,2-2.07-.53-1-1.7-1.09-2.33-1.92a1.65,1.65,0,0,1,.87-2.62,4.47,4.47,0,0,0,.73,0,.17.17,0,0,0,.13-.25,7.43,7.43,0,0,1,2.82.57.5.5,0,0,0,.6-.14,6.52,6.52,0,0,1,1.64-1.75,2.67,2.67,0,0,1,.62,1.78,5.83,5.83,0,0,0-.1.73v0h0v.14c0,.62.89.56,1,0a3.94,3.94,0,0,0,.13-1c.72-2.72,4.65-2.59,7.05-2.29a3.91,3.91,0,0,0,.81.59c.24.14.48.31.73.45C174.9,132,174.83,132.48,174.74,133Zm-26.63,7.22a.77.77,0,0,1-.53.49c0-.2,0-.41,0-.62A3.18,3.18,0,0,0,148.11,140.18Zm27.07-9.86c0,.1,0,.2-.05.3l-.49-.24-.27-.14a.48.48,0,0,0-.37-.69l-.25,0c.48-.39.93-.83,1.37-1.26l0,.26A12.2,12.2,0,0,1,175.18,130.32Zm-.55-7.42a18.56,18.56,0,0,0-1.82-2.92,5.21,5.21,0,0,1,.76.12C174.87,120.45,174.86,121.75,174.63,122.9Z"/><path class="cls-5" d="M120.13,182.06c-15.84,8-37.48,7.82-53.55.93a12.72,12.72,0,0,0,.4,1.93,14.8,14.8,0,0,0,11.07,9.82c8.78,1.85,20.29-2.61,28.6-5C111.77,188.34,117.8,186.68,120.13,182.06Z"/><path class="cls-7" d="M120.13,182.06a9.15,9.15,0,0,0,1-3.61c.19-2.65.36-3.68-1-6a9.37,9.37,0,0,0-3-3.44c-6.41-4.86-19.5-4.35-27-3.72-6.85.57-14.28,1.39-19.21,5.87a14,14,0,0,0-3.32,4.59A13.61,13.61,0,0,0,66.58,183C82.65,189.88,104.29,190,120.13,182.06Z"/><path class="cls-4" d="M109.74,183.16c2.66-1,5.25-3.06,5.38-5.74a6.69,6.69,0,0,0-4-6.27c-2.47-1-5.48-.9-8.15-.85a20.19,20.19,0,0,0-3,.46,1.62,1.62,0,0,0-.63.92c-1,2.95,0,7.76,1.27,10.76C101.9,185.68,107.06,184.18,109.74,183.16Z"/><path class="cls-5" d="M84.38,213.8a8.65,8.65,0,0,0,1.33,4,9.91,9.91,0,0,0,9,4.22c6-.45,12.53-5.47,17.43-8.54a28.36,28.36,0,0,0,5-3.63C107.51,214.91,95.2,216,84.38,213.8Z"/><path class="cls-7" d="M119.24,203.53c-.37-1.73-.46-2.43-1.74-3.69a6.24,6.24,0,0,0-2.54-1.66c-5-1.92-13.33.86-18,2.67-4.29,1.65-8.91,3.57-11.23,7.37a9.2,9.2,0,0,0-1.32,5.58c10.82,2.16,23.13,1.11,32.69-3.92A6.57,6.57,0,0,0,119.24,203.53Z"/><path class="cls-4" d="M112.83,208.68c1.52-1.15,2.8-3,2.38-4.69a4.47,4.47,0,0,0-3.76-3.27,14.67,14.67,0,0,0-5.39,1,14.33,14.33,0,0,0-1.86.86,1.06,1.06,0,0,0-.22.71c-.12,2.09,1.47,5,2.83,6.67S111.31,209.84,112.83,208.68Z"/><path class="cls-5" d="M72.06,162.61c7.62,3.1,18.75.93,26.64.16,4.15-.4,8.92-.84,12-3.33a49.54,49.54,0,0,1-47-7A13.62,13.62,0,0,0,72.06,162.61Z"/><path class="cls-7" d="M63.72,152.41a49.54,49.54,0,0,0,47,7,8.26,8.26,0,0,0,2.88-4.56c.59-2.36.92-3.26.11-5.6a8.47,8.47,0,0,0-2.1-3.59c-5-5.43-16.91-7.1-23.79-7.75-6.28-.59-13.13-1.06-18.31,2.19a12.88,12.88,0,0,0-3.74,3.61A12.22,12.22,0,0,0,63.65,152,3.65,3.65,0,0,0,63.72,152.41Z"/><path class="cls-4" d="M102.56,157.29c2.57-.49,5.24-1.91,5.8-4.31a6.16,6.16,0,0,0-2.63-6.32c-2.08-1.26-4.8-1.7-7.22-2.09a18.93,18.93,0,0,0-2.81-.08,1.48,1.48,0,0,0-.71.73c-1.42,2.5-1.24,7-.6,9.94C95.07,158.29,100,157.78,102.56,157.29Z"/></g></g></svg>