<svg xmlns="http://www.w3.org/2000/svg" xmlns:xlink="http://www.w3.org/1999/xlink" viewBox="0 0 280 270"><defs><style>.cls-1{fill:none;}.cls-2{isolation:isolate;}.cls-3{fill:url(#Dégradé_sans_nom_12);}.cls-4{clip-path:url(#clip-path);}.cls-5{fill:#fff;}.cls-6{fill:#b297ce;}.cls-7{fill:#dccfe5;}.cls-8{fill:#e5dcea;}.cls-9{fill:#a79ea8;}.cls-10{fill:#87758e;}.cls-11{fill:#e9e4ef;}.cls-12{fill:#fcfcfc;opacity:0.32;mix-blend-mode:overlay;}.cls-13{fill:#b7c9ce;}.cls-14{fill:#8b7e9e;}.cls-15{fill:#8a6696;}.cls-16{fill:#58595b;}.cls-17{fill:#404040;}.cls-18{fill:#2b2a2a;}.cls-19{fill:#d2cfd6;}.cls-20{fill:#333;}.cls-21{fill:#edefef;}.cls-22{fill:#62871a;}.cls-23{fill:#35322d;}.cls-24{fill:#a07958;}.cls-25{fill:#b29076;}</style><linearGradient id="Dégradé_sans_nom_12" x1="139.12" y1="21.12" x2="139.12" y2="260.02" gradientUnits="userSpaceOnUse"><stop offset="0" stop-color="#65007f" stop-opacity="0.3"/><stop offset="1" stop-color="#65007f"/></linearGradient><clipPath id="clip-path"><path class="cls-1" d="M239,258.94H39.23a9.62,9.62,0,0,1-9.59-9.59V49.57C29.64,44.3,34,0,39.23,0H239c5.27,0,9.59,44.27,9.59,49.54V249.35A9.62,9.62,0,0,1,239,258.94Z"/></clipPath></defs><title>hp_offre</title><g class="cls-2"><g id="Calque_2_-_copie_2" data-name="Calque 2 - copie 2"><rect class="cls-3" x="29.64" y="39.98" width="218.96" height="218.96" rx="12"/><g class="cls-4"><rect class="cls-5" x="41.49" y="170.76" width="108.65" height="6.64"/><rect class="cls-6" x="52.36" y="8.45" width="86.92" height="48.51"/><rect class="cls-6" x="52.36" y="63.2" width="86.92" height="101.74"/><polygon class="cls-7" points="52.05 8.87 52.05 50.35 93.53 8.87 52.05 8.87"/><polygon class="cls-8" points="93.53 8.87 52.05 50.35 52.05 165.1 137.25 165.1 137.25 8.87 93.53 8.87"/><rect class="cls-9" x="52.05" y="81.16" width="16.44" height="83.46"/><rect class="cls-9" x="71.61" y="88.73" width="18.74" height="76.38"/><rect class="cls-10" x="52.05" y="102.74" width="23.82" height="62.37"/><rect class="cls-10" x="75.87" y="118.07" width="23.85" height="47.03"/><rect class="cls-10" x="97.58" y="140.15" width="33.91" height="24.95"/><path class="cls-11" d="M123.48,45.54a6.4,6.4,0,0,0-6.11-8.31l-.51,0A8.83,8.83,0,0,0,108.17,30a8.72,8.72,0,0,0-5,1.6,8.82,8.82,0,0,0-17,2.27,9.18,9.18,0,0,0-1.67-.16A8.82,8.82,0,0,0,76.2,45.54Z"/><path class="cls-11" d="M137.25,104.63a8.82,8.82,0,0,0-14.22,6,8.27,8.27,0,0,0-1.66-.16,8.82,8.82,0,0,0-8.82,8.82,9,9,0,0,0,.53,3h24.17Z"/><path class="cls-11" d="M136.42,81.16a4.23,4.23,0,0,0,.18-1.24,4.1,4.1,0,0,0-4.06-4.16h-.32A5.65,5.65,0,0,0,126.71,71a5.45,5.45,0,0,0-3.21,1,5.56,5.56,0,0,0-10.76,1.48,5.19,5.19,0,0,0-1-.11,5.67,5.67,0,0,0-5.6,5.74,5.82,5.82,0,0,0,.34,2Z"/><path class="cls-11" d="M102.87,68.45a4.29,4.29,0,0,0,.18-1.25A4.11,4.11,0,0,0,99,63l-.33,0a5.63,5.63,0,0,0-5.5-4.74,5.49,5.49,0,0,0-3.21,1,5.56,5.56,0,0,0-10.76,1.48,5.29,5.29,0,0,0-1.06-.11,5.66,5.66,0,0,0-5.59,5.74,5.93,5.93,0,0,0,.34,2Z"/><polygon class="cls-12" points="114.23 8.87 52.05 71.05 52.05 87.2 130.39 8.87 114.23 8.87"/><rect class="cls-13" x="45.79" y="168.19" width="100.05" height="2.67"/><path class="cls-5" d="M145.84,63.2V2.53H45.79V168.19H145.84Zm-6.56,101.74H52.36V63.2h86.92ZM52.36,57V8.45h86.92V57Z"/><path class="cls-14" d="M104.87,324.56H103a2.27,2.27,0,0,1-2.27-2.27V234.52h6.44v87.77A2.27,2.27,0,0,1,104.87,324.56Z"/><rect class="cls-14" x="84.79" y="211.17" width="240.85" height="20.17"/><rect class="cls-15" x="97.65" y="231.34" width="12.55" height="6.37"/><polygon class="cls-16" points="309.84 141.16 303.12 133.16 292.46 138.85 278.37 142.11 296.56 163.3 302.62 149.53 309.84 141.16"/><path class="cls-17" d="M235.84,118H117.94a3.43,3.43,0,0,0-3.43,3.44v65.28H239.27V121.48A3.43,3.43,0,0,0,235.84,118Z"/><rect class="cls-18" x="119.12" y="122.15" width="115.66" height="60.55"/><rect class="cls-5" x="156.72" y="209.68" width="40.34" height="1.49"/><polygon class="cls-19" points="188 209.68 186.44 201.03 167.34 201.03 165.78 209.68 188 209.68"/><path class="cls-5" d="M114.51,186.76H239.27a0,0,0,0,1,0,0v10.72a3.56,3.56,0,0,1-3.56,3.56H118.06a3.56,3.56,0,0,1-3.56-3.56V186.76A0,0,0,0,1,114.51,186.76Z"/><circle class="cls-20" cx="176.89" cy="194.44" r="2.41"/><path class="cls-21" d="M117.68,199.05c-.81.12-1.39-1.71-1.41-2.21,0-.77,0-1.55,0-2.32a.73.73,0,0,0-1.45,0c0,1.4-.2,2.95.55,4.19.63,1,1.41,1.93,2.72,1.73.92-.13.53-1.53-.38-1.39Z"/><path class="cls-21" d="M115.46,193.72a.73.73,0,0,0,0-1.45.73.73,0,0,0,0,1.45Z"/><path class="cls-22" d="M282.47,170.11c-2.15.85,1.93,1.24,2.95,0,1.55-1.9-1.14-3-.37-1.64a.71.71,0,0,0,1.23-.72c-.82-1.39-1.8-2.87-3.49-3.22a3.11,3.11,0,0,0-3.33,1.62c-1.34,2.31.18,6.59,3.39,5.33.84-.34.47-1.71-.38-1.38Z"/><path class="cls-23" d="M278.5,166.25l1.15.83a.73.73,0,0,0,1-.26.72.72,0,0,0-.26-1l-1.16-.83a.71.71,0,0,0-1,.25.73.73,0,0,0,.26,1Z"/><path class="cls-23" d="M279.11,178.38a2.8,2.8,0,0,0,1.46.41.71.71,0,0,0,0-1.42,1.39,1.39,0,0,1-.74-.22c-.78-.49-1.49.75-.72,1.23Z"/><path class="cls-23" d="M280.57,184.59h1.11a.72.72,0,0,0,0-1.43h-1.11a.72.72,0,0,0,0,1.43Z"/><path class="cls-23" d="M279.36,171.17a.55.55,0,0,1,.5-.17.71.71,0,0,0,.71-.71.73.73,0,0,0-.71-.71,2,2,0,0,0-1.73.87.71.71,0,1,0,1.23.72Z"/><path class="cls-24" d="M297.4,191.42c-.08-.72-20.46-3.7-20.38-3q1.23,11.09,2.48,22.16a.51.51,0,0,0,.2.38.5.5,0,0,0,.43.22h16.06c.39,0,.57-.08.67-.36a4.29,4.29,0,0,0,.16-.72q.94-9.34,1.52-18.71C298.58,190.69,297.44,190.69,297.4,191.42Z"/><path class="cls-25" d="M300.85,187.62c-.44-.48-1.36-.56-3.12-.56H278.55c-1.79,0-2.62.05-3.06.5s-.36,1-.32,2c0,.37,0,.81,0,1.32v.7c0,1.36,0,2.11.44,2.57s1.38.51,2.91.51h19.18c1.73,0,2.58,0,3-.48s.37-1,.34-2.07c0-.35,0-.76,0-1.23s0-1,.06-1.4C301.19,188.59,301.23,188,300.85,187.62Z"/><path class="cls-24" d="M276.54,188a7.54,7.54,0,0,0-.22,3c.06.46.79.46.73,0a6.8,6.8,0,0,1,.19-2.8.36.36,0,0,0-.7-.19Z"/><path class="cls-24" d="M277,192.47a.36.36,0,0,0,0-.72.36.36,0,0,0,0,.72Z"/></g></g></g></svg>